<?xml version="1.0" encoding="utf-8" standalone="no"?>
<!DOCTYPE svg PUBLIC "-//W3C//DTD SVG 1.1//EN"
  "http://www.w3.org/Graphics/SVG/1.1/DTD/svg11.dtd">
<!-- Created with matplotlib (https://matplotlib.org/) -->
<svg height="1296pt" version="1.1" viewBox="0 0 1440 1296" width="1440pt" xmlns="http://www.w3.org/2000/svg" xmlns:xlink="http://www.w3.org/1999/xlink">
 <metadata>
  <rdf:RDF xmlns:cc="http://creativecommons.org/ns#" xmlns:dc="http://purl.org/dc/elements/1.1/" xmlns:rdf="http://www.w3.org/1999/02/22-rdf-syntax-ns#">
   <cc:Work>
    <dc:type rdf:resource="http://purl.org/dc/dcmitype/StillImage"/>
    <dc:date>2021-10-14T16:24:04.283551</dc:date>
    <dc:format>image/svg+xml</dc:format>
    <dc:creator>
     <cc:Agent>
      <dc:title>Matplotlib v3.3.4, https://matplotlib.org/</dc:title>
     </cc:Agent>
    </dc:creator>
   </cc:Work>
  </rdf:RDF>
 </metadata>
 <defs>
  <style type="text/css">*{stroke-linecap:butt;stroke-linejoin:round;}</style>
 </defs>
 <g id="figure_1">
  <g id="patch_1">
   <path d="M 0 1296 
L 1440 1296 
L 1440 0 
L 0 0 
z
" style="fill:none;"/>
  </g>
  <g id="axes_1">
   <g id="patch_2">
    <path d="M 192.566667 484.83 
L 635.383333 484.83 
L 635.383333 126.09 
L 192.566667 126.09 
z
" style="fill:#ffffff;"/>
   </g>
   <g id="patch_3">
    <path clip-path="url(#p688699cbdb)" d="M 220.242708 484.83 
L 231.313125 484.83 
L 231.313125 481.277002 
L 220.242708 481.277002 
z
" style="fill:#1b9e77;"/>
   </g>
   <g id="patch_4">
    <path clip-path="url(#p688699cbdb)" d="M 330.946875 484.83 
L 342.017292 484.83 
L 342.017292 480.879279 
L 330.946875 480.879279 
z
" style="fill:#1b9e77;"/>
   </g>
   <g id="patch_5">
    <path clip-path="url(#p688699cbdb)" d="M 441.651042 484.83 
L 452.721458 484.83 
L 452.721458 480.905794 
L 441.651042 480.905794 
z
" style="fill:#1b9e77;"/>
   </g>
   <g id="patch_6">
    <path clip-path="url(#p688699cbdb)" d="M 552.355208 484.83 
L 563.425625 484.83 
L 563.425625 481.197458 
L 552.355208 481.197458 
z
" style="fill:#1b9e77;"/>
   </g>
   <g id="patch_7">
    <path clip-path="url(#p688699cbdb)" d="M 231.313125 484.83 
L 242.383542 484.83 
L 242.383542 383.145326 
L 231.313125 383.145326 
z
" style="fill:#7570b3;"/>
   </g>
   <g id="patch_8">
    <path clip-path="url(#p688699cbdb)" d="M 342.017292 484.83 
L 353.087708 484.83 
L 353.087708 316.61942 
L 342.017292 316.61942 
z
" style="fill:#7570b3;"/>
   </g>
   <g id="patch_9">
    <path clip-path="url(#p688699cbdb)" d="M 452.721458 484.83 
L 463.791875 484.83 
L 463.791875 293.763569 
L 452.721458 293.763569 
z
" style="fill:#7570b3;"/>
   </g>
   <g id="patch_10">
    <path clip-path="url(#p688699cbdb)" d="M 563.425625 484.83 
L 574.496042 484.83 
L 574.496042 184.893354 
L 563.425625 184.893354 
z
" style="fill:#7570b3;"/>
   </g>
   <g id="patch_11">
    <path clip-path="url(#p688699cbdb)" d="M 242.383542 484.83 
L 253.453958 484.83 
L 253.453958 445.77354 
L 242.383542 445.77354 
z
" style="fill:#66a61e;"/>
   </g>
   <g id="patch_12">
    <path clip-path="url(#p688699cbdb)" d="M 353.087708 484.83 
L 364.158125 484.83 
L 364.158125 413.027628 
L 353.087708 413.027628 
z
" style="fill:#66a61e;"/>
   </g>
   <g id="patch_13">
    <path clip-path="url(#p688699cbdb)" d="M 463.791875 484.83 
L 474.862292 484.83 
L 474.862292 356.391783 
L 463.791875 356.391783 
z
" style="fill:#66a61e;"/>
   </g>
   <g id="patch_14">
    <path clip-path="url(#p688699cbdb)" d="M 574.496042 484.83 
L 585.566458 484.83 
L 585.566458 231.347474 
L 574.496042 231.347474 
z
" style="fill:#66a61e;"/>
   </g>
   <g id="patch_15">
    <path clip-path="url(#p688699cbdb)" d="M 253.453958 484.83 
L 264.524375 484.83 
L 264.524375 455.584056 
L 253.453958 455.584056 
z
" style="fill:#a6761d;"/>
   </g>
   <g id="patch_16">
    <path clip-path="url(#p688699cbdb)" d="M 364.158125 484.83 
L 375.228542 484.83 
L 375.228542 443.122049 
L 364.158125 443.122049 
z
" style="fill:#a6761d;"/>
   </g>
   <g id="patch_17">
    <path clip-path="url(#p688699cbdb)" d="M 474.862292 484.83 
L 485.932708 484.83 
L 485.932708 433.178958 
L 474.862292 433.178958 
z
" style="fill:#a6761d;"/>
   </g>
   <g id="patch_18">
    <path clip-path="url(#p688699cbdb)" d="M 585.566458 484.83 
L 596.636875 484.83 
L 596.636875 419.444235 
L 585.566458 419.444235 
z
" style="fill:#a6761d;"/>
   </g>
   <g id="patch_19">
    <path clip-path="url(#p688699cbdb)" d="M 264.524375 484.83 
L 275.594792 484.83 
L 275.594792 481.595181 
L 264.524375 481.595181 
z
" style="fill:#666666;"/>
   </g>
   <g id="patch_20">
    <path clip-path="url(#p688699cbdb)" d="M 375.228542 484.83 
L 386.298958 484.83 
L 386.298958 481.117913 
L 375.228542 481.117913 
z
" style="fill:#666666;"/>
   </g>
   <g id="patch_21">
    <path clip-path="url(#p688699cbdb)" d="M 485.932708 484.83 
L 497.003125 484.83 
L 497.003125 481.144428 
L 485.932708 481.144428 
z
" style="fill:#666666;"/>
   </g>
   <g id="patch_22">
    <path clip-path="url(#p688699cbdb)" d="M 596.636875 484.83 
L 607.707292 484.83 
L 607.707292 481.223972 
L 596.636875 481.223972 
z
" style="fill:#666666;"/>
   </g>
   <g id="matplotlib.axis_1">
    <g id="xtick_1">
     <g id="line2d_1">
      <defs>
       <path d="M 0 0 
L 0 3.5 
" id="md179f3fd6d" style="stroke:#000000;stroke-width:0.8;"/>
      </defs>
      <g>
       <use style="stroke:#000000;stroke-width:0.8;" x="247.91875" xlink:href="#md179f3fd6d" y="484.83"/>
      </g>
     </g>
     <g id="text_1">
      <!-- 500 -->
      <g transform="translate(253.161563 528.09625)rotate(-90)scale(0.19 -0.19)">
       <defs>
        <path d="M 10.796875 72.90625 
L 49.515625 72.90625 
L 49.515625 64.59375 
L 19.828125 64.59375 
L 19.828125 46.734375 
Q 21.96875 47.46875 24.109375 47.828125 
Q 26.265625 48.1875 28.421875 48.1875 
Q 40.625 48.1875 47.75 41.5 
Q 54.890625 34.8125 54.890625 23.390625 
Q 54.890625 11.625 47.5625 5.09375 
Q 40.234375 -1.421875 26.90625 -1.421875 
Q 22.3125 -1.421875 17.546875 -0.640625 
Q 12.796875 0.140625 7.71875 1.703125 
L 7.71875 11.625 
Q 12.109375 9.234375 16.796875 8.0625 
Q 21.484375 6.890625 26.703125 6.890625 
Q 35.15625 6.890625 40.078125 11.328125 
Q 45.015625 15.765625 45.015625 23.390625 
Q 45.015625 31 40.078125 35.4375 
Q 35.15625 39.890625 26.703125 39.890625 
Q 22.75 39.890625 18.8125 39.015625 
Q 14.890625 38.140625 10.796875 36.28125 
z
" id="DejaVuSans-53"/>
        <path d="M 31.78125 66.40625 
Q 24.171875 66.40625 20.328125 58.90625 
Q 16.5 51.421875 16.5 36.375 
Q 16.5 21.390625 20.328125 13.890625 
Q 24.171875 6.390625 31.78125 6.390625 
Q 39.453125 6.390625 43.28125 13.890625 
Q 47.125 21.390625 47.125 36.375 
Q 47.125 51.421875 43.28125 58.90625 
Q 39.453125 66.40625 31.78125 66.40625 
z
M 31.78125 74.21875 
Q 44.046875 74.21875 50.515625 64.515625 
Q 56.984375 54.828125 56.984375 36.375 
Q 56.984375 17.96875 50.515625 8.265625 
Q 44.046875 -1.421875 31.78125 -1.421875 
Q 19.53125 -1.421875 13.0625 8.265625 
Q 6.59375 17.96875 6.59375 36.375 
Q 6.59375 54.828125 13.0625 64.515625 
Q 19.53125 74.21875 31.78125 74.21875 
z
" id="DejaVuSans-48"/>
       </defs>
       <use xlink:href="#DejaVuSans-53"/>
       <use x="63.623047" xlink:href="#DejaVuSans-48"/>
       <use x="127.246094" xlink:href="#DejaVuSans-48"/>
      </g>
     </g>
    </g>
    <g id="xtick_2">
     <g id="line2d_2">
      <g>
       <use style="stroke:#000000;stroke-width:0.8;" x="358.622917" xlink:href="#md179f3fd6d" y="484.83"/>
      </g>
     </g>
     <g id="text_2">
      <!-- 750 -->
      <g transform="translate(363.865729 528.09625)rotate(-90)scale(0.19 -0.19)">
       <defs>
        <path d="M 8.203125 72.90625 
L 55.078125 72.90625 
L 55.078125 68.703125 
L 28.609375 0 
L 18.3125 0 
L 43.21875 64.59375 
L 8.203125 64.59375 
z
" id="DejaVuSans-55"/>
       </defs>
       <use xlink:href="#DejaVuSans-55"/>
       <use x="63.623047" xlink:href="#DejaVuSans-53"/>
       <use x="127.246094" xlink:href="#DejaVuSans-48"/>
      </g>
     </g>
    </g>
    <g id="xtick_3">
     <g id="line2d_3">
      <g>
       <use style="stroke:#000000;stroke-width:0.8;" x="469.327083" xlink:href="#md179f3fd6d" y="484.83"/>
      </g>
     </g>
     <g id="text_3">
      <!-- 1000 -->
      <g transform="translate(474.569896 540.185)rotate(-90)scale(0.19 -0.19)">
       <defs>
        <path d="M 12.40625 8.296875 
L 28.515625 8.296875 
L 28.515625 63.921875 
L 10.984375 60.40625 
L 10.984375 69.390625 
L 28.421875 72.90625 
L 38.28125 72.90625 
L 38.28125 8.296875 
L 54.390625 8.296875 
L 54.390625 0 
L 12.40625 0 
z
" id="DejaVuSans-49"/>
       </defs>
       <use xlink:href="#DejaVuSans-49"/>
       <use x="63.623047" xlink:href="#DejaVuSans-48"/>
       <use x="127.246094" xlink:href="#DejaVuSans-48"/>
       <use x="190.869141" xlink:href="#DejaVuSans-48"/>
      </g>
     </g>
    </g>
    <g id="xtick_4">
     <g id="line2d_4">
      <g>
       <use style="stroke:#000000;stroke-width:0.8;" x="580.03125" xlink:href="#md179f3fd6d" y="484.83"/>
      </g>
     </g>
     <g id="text_4">
      <!-- 1500 -->
      <g transform="translate(585.274063 540.185)rotate(-90)scale(0.19 -0.19)">
       <use xlink:href="#DejaVuSans-49"/>
       <use x="63.623047" xlink:href="#DejaVuSans-53"/>
       <use x="127.246094" xlink:href="#DejaVuSans-48"/>
       <use x="190.869141" xlink:href="#DejaVuSans-48"/>
      </g>
     </g>
    </g>
    <g id="text_5">
     <!-- size -->
     <g transform="translate(395.555391 558.622031)scale(0.19 -0.19)">
      <defs>
       <path d="M 44.28125 53.078125 
L 44.28125 44.578125 
Q 40.484375 46.53125 36.375 47.5 
Q 32.28125 48.484375 27.875 48.484375 
Q 21.1875 48.484375 17.84375 46.4375 
Q 14.5 44.390625 14.5 40.28125 
Q 14.5 37.15625 16.890625 35.375 
Q 19.28125 33.59375 26.515625 31.984375 
L 29.59375 31.296875 
Q 39.15625 29.25 43.1875 25.515625 
Q 47.21875 21.78125 47.21875 15.09375 
Q 47.21875 7.46875 41.1875 3.015625 
Q 35.15625 -1.421875 24.609375 -1.421875 
Q 20.21875 -1.421875 15.453125 -0.5625 
Q 10.6875 0.296875 5.421875 2 
L 5.421875 11.28125 
Q 10.40625 8.6875 15.234375 7.390625 
Q 20.0625 6.109375 24.8125 6.109375 
Q 31.15625 6.109375 34.5625 8.28125 
Q 37.984375 10.453125 37.984375 14.40625 
Q 37.984375 18.0625 35.515625 20.015625 
Q 33.0625 21.96875 24.703125 23.78125 
L 21.578125 24.515625 
Q 13.234375 26.265625 9.515625 29.90625 
Q 5.8125 33.546875 5.8125 39.890625 
Q 5.8125 47.609375 11.28125 51.796875 
Q 16.75 56 26.8125 56 
Q 31.78125 56 36.171875 55.265625 
Q 40.578125 54.546875 44.28125 53.078125 
z
" id="DejaVuSans-115"/>
       <path d="M 9.421875 54.6875 
L 18.40625 54.6875 
L 18.40625 0 
L 9.421875 0 
z
M 9.421875 75.984375 
L 18.40625 75.984375 
L 18.40625 64.59375 
L 9.421875 64.59375 
z
" id="DejaVuSans-105"/>
       <path d="M 5.515625 54.6875 
L 48.1875 54.6875 
L 48.1875 46.484375 
L 14.40625 7.171875 
L 48.1875 7.171875 
L 48.1875 0 
L 4.296875 0 
L 4.296875 8.203125 
L 38.09375 47.515625 
L 5.515625 47.515625 
z
" id="DejaVuSans-122"/>
       <path d="M 56.203125 29.59375 
L 56.203125 25.203125 
L 14.890625 25.203125 
Q 15.484375 15.921875 20.484375 11.0625 
Q 25.484375 6.203125 34.421875 6.203125 
Q 39.59375 6.203125 44.453125 7.46875 
Q 49.3125 8.734375 54.109375 11.28125 
L 54.109375 2.78125 
Q 49.265625 0.734375 44.1875 -0.34375 
Q 39.109375 -1.421875 33.890625 -1.421875 
Q 20.796875 -1.421875 13.15625 6.1875 
Q 5.515625 13.8125 5.515625 26.8125 
Q 5.515625 40.234375 12.765625 48.109375 
Q 20.015625 56 32.328125 56 
Q 43.359375 56 49.78125 48.890625 
Q 56.203125 41.796875 56.203125 29.59375 
z
M 47.21875 32.234375 
Q 47.125 39.59375 43.09375 43.984375 
Q 39.0625 48.390625 32.421875 48.390625 
Q 24.90625 48.390625 20.390625 44.140625 
Q 15.875 39.890625 15.1875 32.171875 
z
" id="DejaVuSans-101"/>
      </defs>
      <use xlink:href="#DejaVuSans-115"/>
      <use x="52.099609" xlink:href="#DejaVuSans-105"/>
      <use x="79.882812" xlink:href="#DejaVuSans-122"/>
      <use x="132.373047" xlink:href="#DejaVuSans-101"/>
     </g>
    </g>
   </g>
   <g id="matplotlib.axis_2">
    <g id="ytick_1">
     <g id="line2d_5">
      <defs>
       <path d="M 0 0 
L -3.5 0 
" id="m32c03b8a45" style="stroke:#000000;stroke-width:0.8;"/>
      </defs>
      <g>
       <use style="stroke:#000000;stroke-width:0.8;" x="192.566667" xlink:href="#m32c03b8a45" y="484.83"/>
      </g>
     </g>
     <g id="text_6">
      <!-- 0 -->
      <g transform="translate(173.477917 492.048516)scale(0.19 -0.19)">
       <use xlink:href="#DejaVuSans-48"/>
      </g>
     </g>
    </g>
    <g id="ytick_2">
     <g id="line2d_6">
      <g>
       <use style="stroke:#000000;stroke-width:0.8;" x="192.566667" xlink:href="#m32c03b8a45" y="431.800183"/>
      </g>
     </g>
     <g id="text_7">
      <!-- 200 -->
      <g transform="translate(149.300417 439.018698)scale(0.19 -0.19)">
       <defs>
        <path d="M 19.1875 8.296875 
L 53.609375 8.296875 
L 53.609375 0 
L 7.328125 0 
L 7.328125 8.296875 
Q 12.9375 14.109375 22.625 23.890625 
Q 32.328125 33.6875 34.8125 36.53125 
Q 39.546875 41.84375 41.421875 45.53125 
Q 43.3125 49.21875 43.3125 52.78125 
Q 43.3125 58.59375 39.234375 62.25 
Q 35.15625 65.921875 28.609375 65.921875 
Q 23.96875 65.921875 18.8125 64.3125 
Q 13.671875 62.703125 7.8125 59.421875 
L 7.8125 69.390625 
Q 13.765625 71.78125 18.9375 73 
Q 24.125 74.21875 28.421875 74.21875 
Q 39.75 74.21875 46.484375 68.546875 
Q 53.21875 62.890625 53.21875 53.421875 
Q 53.21875 48.921875 51.53125 44.890625 
Q 49.859375 40.875 45.40625 35.40625 
Q 44.1875 33.984375 37.640625 27.21875 
Q 31.109375 20.453125 19.1875 8.296875 
z
" id="DejaVuSans-50"/>
       </defs>
       <use xlink:href="#DejaVuSans-50"/>
       <use x="63.623047" xlink:href="#DejaVuSans-48"/>
       <use x="127.246094" xlink:href="#DejaVuSans-48"/>
      </g>
     </g>
    </g>
    <g id="ytick_3">
     <g id="line2d_7">
      <g>
       <use style="stroke:#000000;stroke-width:0.8;" x="192.566667" xlink:href="#m32c03b8a45" y="378.770366"/>
      </g>
     </g>
     <g id="text_8">
      <!-- 400 -->
      <g transform="translate(149.300417 385.988881)scale(0.19 -0.19)">
       <defs>
        <path d="M 37.796875 64.3125 
L 12.890625 25.390625 
L 37.796875 25.390625 
z
M 35.203125 72.90625 
L 47.609375 72.90625 
L 47.609375 25.390625 
L 58.015625 25.390625 
L 58.015625 17.1875 
L 47.609375 17.1875 
L 47.609375 0 
L 37.796875 0 
L 37.796875 17.1875 
L 4.890625 17.1875 
L 4.890625 26.703125 
z
" id="DejaVuSans-52"/>
       </defs>
       <use xlink:href="#DejaVuSans-52"/>
       <use x="63.623047" xlink:href="#DejaVuSans-48"/>
       <use x="127.246094" xlink:href="#DejaVuSans-48"/>
      </g>
     </g>
    </g>
    <g id="ytick_4">
     <g id="line2d_8">
      <g>
       <use style="stroke:#000000;stroke-width:0.8;" x="192.566667" xlink:href="#m32c03b8a45" y="325.740548"/>
      </g>
     </g>
     <g id="text_9">
      <!-- 600 -->
      <g transform="translate(149.300417 332.959064)scale(0.19 -0.19)">
       <defs>
        <path d="M 33.015625 40.375 
Q 26.375 40.375 22.484375 35.828125 
Q 18.609375 31.296875 18.609375 23.390625 
Q 18.609375 15.53125 22.484375 10.953125 
Q 26.375 6.390625 33.015625 6.390625 
Q 39.65625 6.390625 43.53125 10.953125 
Q 47.40625 15.53125 47.40625 23.390625 
Q 47.40625 31.296875 43.53125 35.828125 
Q 39.65625 40.375 33.015625 40.375 
z
M 52.59375 71.296875 
L 52.59375 62.3125 
Q 48.875 64.0625 45.09375 64.984375 
Q 41.3125 65.921875 37.59375 65.921875 
Q 27.828125 65.921875 22.671875 59.328125 
Q 17.53125 52.734375 16.796875 39.40625 
Q 19.671875 43.65625 24.015625 45.921875 
Q 28.375 48.1875 33.59375 48.1875 
Q 44.578125 48.1875 50.953125 41.515625 
Q 57.328125 34.859375 57.328125 23.390625 
Q 57.328125 12.15625 50.6875 5.359375 
Q 44.046875 -1.421875 33.015625 -1.421875 
Q 20.359375 -1.421875 13.671875 8.265625 
Q 6.984375 17.96875 6.984375 36.375 
Q 6.984375 53.65625 15.1875 63.9375 
Q 23.390625 74.21875 37.203125 74.21875 
Q 40.921875 74.21875 44.703125 73.484375 
Q 48.484375 72.75 52.59375 71.296875 
z
" id="DejaVuSans-54"/>
       </defs>
       <use xlink:href="#DejaVuSans-54"/>
       <use x="63.623047" xlink:href="#DejaVuSans-48"/>
       <use x="127.246094" xlink:href="#DejaVuSans-48"/>
      </g>
     </g>
    </g>
    <g id="ytick_5">
     <g id="line2d_9">
      <g>
       <use style="stroke:#000000;stroke-width:0.8;" x="192.566667" xlink:href="#m32c03b8a45" y="272.710731"/>
      </g>
     </g>
     <g id="text_10">
      <!-- 800 -->
      <g transform="translate(149.300417 279.929247)scale(0.19 -0.19)">
       <defs>
        <path d="M 31.78125 34.625 
Q 24.75 34.625 20.71875 30.859375 
Q 16.703125 27.09375 16.703125 20.515625 
Q 16.703125 13.921875 20.71875 10.15625 
Q 24.75 6.390625 31.78125 6.390625 
Q 38.8125 6.390625 42.859375 10.171875 
Q 46.921875 13.96875 46.921875 20.515625 
Q 46.921875 27.09375 42.890625 30.859375 
Q 38.875 34.625 31.78125 34.625 
z
M 21.921875 38.8125 
Q 15.578125 40.375 12.03125 44.71875 
Q 8.5 49.078125 8.5 55.328125 
Q 8.5 64.0625 14.71875 69.140625 
Q 20.953125 74.21875 31.78125 74.21875 
Q 42.671875 74.21875 48.875 69.140625 
Q 55.078125 64.0625 55.078125 55.328125 
Q 55.078125 49.078125 51.53125 44.71875 
Q 48 40.375 41.703125 38.8125 
Q 48.828125 37.15625 52.796875 32.3125 
Q 56.78125 27.484375 56.78125 20.515625 
Q 56.78125 9.90625 50.3125 4.234375 
Q 43.84375 -1.421875 31.78125 -1.421875 
Q 19.734375 -1.421875 13.25 4.234375 
Q 6.78125 9.90625 6.78125 20.515625 
Q 6.78125 27.484375 10.78125 32.3125 
Q 14.796875 37.15625 21.921875 38.8125 
z
M 18.3125 54.390625 
Q 18.3125 48.734375 21.84375 45.5625 
Q 25.390625 42.390625 31.78125 42.390625 
Q 38.140625 42.390625 41.71875 45.5625 
Q 45.3125 48.734375 45.3125 54.390625 
Q 45.3125 60.0625 41.71875 63.234375 
Q 38.140625 66.40625 31.78125 66.40625 
Q 25.390625 66.40625 21.84375 63.234375 
Q 18.3125 60.0625 18.3125 54.390625 
z
" id="DejaVuSans-56"/>
       </defs>
       <use xlink:href="#DejaVuSans-56"/>
       <use x="63.623047" xlink:href="#DejaVuSans-48"/>
       <use x="127.246094" xlink:href="#DejaVuSans-48"/>
      </g>
     </g>
    </g>
    <g id="ytick_6">
     <g id="line2d_10">
      <g>
       <use style="stroke:#000000;stroke-width:0.8;" x="192.566667" xlink:href="#m32c03b8a45" y="219.680914"/>
      </g>
     </g>
     <g id="text_11">
      <!-- 1000 -->
      <g transform="translate(137.211667 226.89943)scale(0.19 -0.19)">
       <use xlink:href="#DejaVuSans-49"/>
       <use x="63.623047" xlink:href="#DejaVuSans-48"/>
       <use x="127.246094" xlink:href="#DejaVuSans-48"/>
       <use x="190.869141" xlink:href="#DejaVuSans-48"/>
      </g>
     </g>
    </g>
    <g id="ytick_7">
     <g id="line2d_11">
      <g>
       <use style="stroke:#000000;stroke-width:0.8;" x="192.566667" xlink:href="#m32c03b8a45" y="166.651097"/>
      </g>
     </g>
     <g id="text_12">
      <!-- 1200 -->
      <g transform="translate(137.211667 173.869613)scale(0.19 -0.19)">
       <use xlink:href="#DejaVuSans-49"/>
       <use x="63.623047" xlink:href="#DejaVuSans-50"/>
       <use x="127.246094" xlink:href="#DejaVuSans-48"/>
       <use x="190.869141" xlink:href="#DejaVuSans-48"/>
      </g>
     </g>
    </g>
   </g>
   <g id="LineCollection_1">
    <path clip-path="url(#p688699cbdb)" d="M 225.777917 482.117338 
L 225.777917 480.436666 
" style="fill:none;stroke:#000000;stroke-width:1.5;"/>
    <path clip-path="url(#p688699cbdb)" d="M 336.482083 481.972159 
L 336.482083 479.786398 
" style="fill:none;stroke:#000000;stroke-width:1.5;"/>
    <path clip-path="url(#p688699cbdb)" d="M 447.18625 481.778953 
L 447.18625 480.032634 
" style="fill:none;stroke:#000000;stroke-width:1.5;"/>
    <path clip-path="url(#p688699cbdb)" d="M 557.890417 482.063882 
L 557.890417 480.331033 
" style="fill:none;stroke:#000000;stroke-width:1.5;"/>
   </g>
   <g id="LineCollection_2">
    <path clip-path="url(#p688699cbdb)" d="M 236.848333 405.492866 
L 236.848333 360.797786 
" style="fill:none;stroke:#000000;stroke-width:1.5;"/>
    <path clip-path="url(#p688699cbdb)" d="M 347.5525 338.503886 
L 347.5525 294.734954 
" style="fill:none;stroke:#000000;stroke-width:1.5;"/>
    <path clip-path="url(#p688699cbdb)" d="M 458.256667 333.306495 
L 458.256667 254.220642 
" style="fill:none;stroke:#000000;stroke-width:1.5;"/>
    <path clip-path="url(#p688699cbdb)" d="M 568.960833 226.613851 
L 568.960833 143.172857 
" style="fill:none;stroke:#000000;stroke-width:1.5;"/>
   </g>
   <g id="LineCollection_3">
    <path clip-path="url(#p688699cbdb)" d="M 247.91875 467.939908 
L 247.91875 423.607171 
" style="fill:none;stroke:#000000;stroke-width:1.5;"/>
    <path clip-path="url(#p688699cbdb)" d="M 358.622917 432.924923 
L 358.622917 393.130333 
" style="fill:none;stroke:#000000;stroke-width:1.5;"/>
    <path clip-path="url(#p688699cbdb)" d="M 469.327083 370.223204 
L 469.327083 342.560361 
" style="fill:none;stroke:#000000;stroke-width:1.5;"/>
    <path clip-path="url(#p688699cbdb)" d="M 580.03125 231.347474 
L 580.03125 231.347474 
" style="fill:none;stroke:#000000;stroke-width:1.5;"/>
   </g>
   <g id="LineCollection_4">
    <path clip-path="url(#p688699cbdb)" d="M 258.989167 462.910844 
L 258.989167 448.257268 
" style="fill:none;stroke:#000000;stroke-width:1.5;"/>
    <path clip-path="url(#p688699cbdb)" d="M 369.693333 456.319295 
L 369.693333 429.924802 
" style="fill:none;stroke:#000000;stroke-width:1.5;"/>
    <path clip-path="url(#p688699cbdb)" d="M 480.3975 443.672968 
L 480.3975 422.684948 
" style="fill:none;stroke:#000000;stroke-width:1.5;"/>
    <path clip-path="url(#p688699cbdb)" d="M 591.101667 433.972534 
L 591.101667 404.915937 
" style="fill:none;stroke:#000000;stroke-width:1.5;"/>
   </g>
   <g id="LineCollection_5">
    <path clip-path="url(#p688699cbdb)" d="M 270.059583 482.363656 
L 270.059583 480.826706 
" style="fill:none;stroke:#000000;stroke-width:1.5;"/>
    <path clip-path="url(#p688699cbdb)" d="M 380.76375 482.027872 
L 380.76375 480.207954 
" style="fill:none;stroke:#000000;stroke-width:1.5;"/>
    <path clip-path="url(#p688699cbdb)" d="M 491.467917 482.178547 
L 491.467917 480.110309 
" style="fill:none;stroke:#000000;stroke-width:1.5;"/>
    <path clip-path="url(#p688699cbdb)" d="M 602.172083 482.468887 
L 602.172083 479.979057 
" style="fill:none;stroke:#000000;stroke-width:1.5;"/>
   </g>
   <g id="patch_23">
    <path d="M 192.566667 484.83 
L 192.566667 126.09 
" style="fill:none;stroke:#000000;stroke-linecap:square;stroke-linejoin:miter;stroke-width:0.8;"/>
   </g>
   <g id="patch_24">
    <path d="M 635.383333 484.83 
L 635.383333 126.09 
" style="fill:none;stroke:#000000;stroke-linecap:square;stroke-linejoin:miter;stroke-width:0.8;"/>
   </g>
   <g id="patch_25">
    <path d="M 192.566667 484.83 
L 635.383333 484.83 
" style="fill:none;stroke:#000000;stroke-linecap:square;stroke-linejoin:miter;stroke-width:0.8;"/>
   </g>
   <g id="patch_26">
    <path d="M 192.566667 126.09 
L 635.383333 126.09 
" style="fill:none;stroke:#000000;stroke-linecap:square;stroke-linejoin:miter;stroke-width:0.8;"/>
   </g>
   <g id="text_13">
    <!-- FFL motif-node participation counts -->
    <g transform="translate(211.831625 120.09)scale(0.228 -0.228)">
     <defs>
      <path d="M 9.8125 72.90625 
L 51.703125 72.90625 
L 51.703125 64.59375 
L 19.671875 64.59375 
L 19.671875 43.109375 
L 48.578125 43.109375 
L 48.578125 34.8125 
L 19.671875 34.8125 
L 19.671875 0 
L 9.8125 0 
z
" id="DejaVuSans-70"/>
      <path d="M 9.8125 72.90625 
L 19.671875 72.90625 
L 19.671875 8.296875 
L 55.171875 8.296875 
L 55.171875 0 
L 9.8125 0 
z
" id="DejaVuSans-76"/>
      <path id="DejaVuSans-32"/>
      <path d="M 52 44.1875 
Q 55.375 50.25 60.0625 53.125 
Q 64.75 56 71.09375 56 
Q 79.640625 56 84.28125 50.015625 
Q 88.921875 44.046875 88.921875 33.015625 
L 88.921875 0 
L 79.890625 0 
L 79.890625 32.71875 
Q 79.890625 40.578125 77.09375 44.375 
Q 74.3125 48.1875 68.609375 48.1875 
Q 61.625 48.1875 57.5625 43.546875 
Q 53.515625 38.921875 53.515625 30.90625 
L 53.515625 0 
L 44.484375 0 
L 44.484375 32.71875 
Q 44.484375 40.625 41.703125 44.40625 
Q 38.921875 48.1875 33.109375 48.1875 
Q 26.21875 48.1875 22.15625 43.53125 
Q 18.109375 38.875 18.109375 30.90625 
L 18.109375 0 
L 9.078125 0 
L 9.078125 54.6875 
L 18.109375 54.6875 
L 18.109375 46.1875 
Q 21.1875 51.21875 25.484375 53.609375 
Q 29.78125 56 35.6875 56 
Q 41.65625 56 45.828125 52.96875 
Q 50 49.953125 52 44.1875 
z
" id="DejaVuSans-109"/>
      <path d="M 30.609375 48.390625 
Q 23.390625 48.390625 19.1875 42.75 
Q 14.984375 37.109375 14.984375 27.296875 
Q 14.984375 17.484375 19.15625 11.84375 
Q 23.34375 6.203125 30.609375 6.203125 
Q 37.796875 6.203125 41.984375 11.859375 
Q 46.1875 17.53125 46.1875 27.296875 
Q 46.1875 37.015625 41.984375 42.703125 
Q 37.796875 48.390625 30.609375 48.390625 
z
M 30.609375 56 
Q 42.328125 56 49.015625 48.375 
Q 55.71875 40.765625 55.71875 27.296875 
Q 55.71875 13.875 49.015625 6.21875 
Q 42.328125 -1.421875 30.609375 -1.421875 
Q 18.84375 -1.421875 12.171875 6.21875 
Q 5.515625 13.875 5.515625 27.296875 
Q 5.515625 40.765625 12.171875 48.375 
Q 18.84375 56 30.609375 56 
z
" id="DejaVuSans-111"/>
      <path d="M 18.3125 70.21875 
L 18.3125 54.6875 
L 36.8125 54.6875 
L 36.8125 47.703125 
L 18.3125 47.703125 
L 18.3125 18.015625 
Q 18.3125 11.328125 20.140625 9.421875 
Q 21.96875 7.515625 27.59375 7.515625 
L 36.8125 7.515625 
L 36.8125 0 
L 27.59375 0 
Q 17.1875 0 13.234375 3.875 
Q 9.28125 7.765625 9.28125 18.015625 
L 9.28125 47.703125 
L 2.6875 47.703125 
L 2.6875 54.6875 
L 9.28125 54.6875 
L 9.28125 70.21875 
z
" id="DejaVuSans-116"/>
      <path d="M 37.109375 75.984375 
L 37.109375 68.5 
L 28.515625 68.5 
Q 23.6875 68.5 21.796875 66.546875 
Q 19.921875 64.59375 19.921875 59.515625 
L 19.921875 54.6875 
L 34.71875 54.6875 
L 34.71875 47.703125 
L 19.921875 47.703125 
L 19.921875 0 
L 10.890625 0 
L 10.890625 47.703125 
L 2.296875 47.703125 
L 2.296875 54.6875 
L 10.890625 54.6875 
L 10.890625 58.5 
Q 10.890625 67.625 15.140625 71.796875 
Q 19.390625 75.984375 28.609375 75.984375 
z
" id="DejaVuSans-102"/>
      <path d="M 4.890625 31.390625 
L 31.203125 31.390625 
L 31.203125 23.390625 
L 4.890625 23.390625 
z
" id="DejaVuSans-45"/>
      <path d="M 54.890625 33.015625 
L 54.890625 0 
L 45.90625 0 
L 45.90625 32.71875 
Q 45.90625 40.484375 42.875 44.328125 
Q 39.84375 48.1875 33.796875 48.1875 
Q 26.515625 48.1875 22.3125 43.546875 
Q 18.109375 38.921875 18.109375 30.90625 
L 18.109375 0 
L 9.078125 0 
L 9.078125 54.6875 
L 18.109375 54.6875 
L 18.109375 46.1875 
Q 21.34375 51.125 25.703125 53.5625 
Q 30.078125 56 35.796875 56 
Q 45.21875 56 50.046875 50.171875 
Q 54.890625 44.34375 54.890625 33.015625 
z
" id="DejaVuSans-110"/>
      <path d="M 45.40625 46.390625 
L 45.40625 75.984375 
L 54.390625 75.984375 
L 54.390625 0 
L 45.40625 0 
L 45.40625 8.203125 
Q 42.578125 3.328125 38.25 0.953125 
Q 33.9375 -1.421875 27.875 -1.421875 
Q 17.96875 -1.421875 11.734375 6.484375 
Q 5.515625 14.40625 5.515625 27.296875 
Q 5.515625 40.1875 11.734375 48.09375 
Q 17.96875 56 27.875 56 
Q 33.9375 56 38.25 53.625 
Q 42.578125 51.265625 45.40625 46.390625 
z
M 14.796875 27.296875 
Q 14.796875 17.390625 18.875 11.75 
Q 22.953125 6.109375 30.078125 6.109375 
Q 37.203125 6.109375 41.296875 11.75 
Q 45.40625 17.390625 45.40625 27.296875 
Q 45.40625 37.203125 41.296875 42.84375 
Q 37.203125 48.484375 30.078125 48.484375 
Q 22.953125 48.484375 18.875 42.84375 
Q 14.796875 37.203125 14.796875 27.296875 
z
" id="DejaVuSans-100"/>
      <path d="M 18.109375 8.203125 
L 18.109375 -20.796875 
L 9.078125 -20.796875 
L 9.078125 54.6875 
L 18.109375 54.6875 
L 18.109375 46.390625 
Q 20.953125 51.265625 25.265625 53.625 
Q 29.59375 56 35.59375 56 
Q 45.5625 56 51.78125 48.09375 
Q 58.015625 40.1875 58.015625 27.296875 
Q 58.015625 14.40625 51.78125 6.484375 
Q 45.5625 -1.421875 35.59375 -1.421875 
Q 29.59375 -1.421875 25.265625 0.953125 
Q 20.953125 3.328125 18.109375 8.203125 
z
M 48.6875 27.296875 
Q 48.6875 37.203125 44.609375 42.84375 
Q 40.53125 48.484375 33.40625 48.484375 
Q 26.265625 48.484375 22.1875 42.84375 
Q 18.109375 37.203125 18.109375 27.296875 
Q 18.109375 17.390625 22.1875 11.75 
Q 26.265625 6.109375 33.40625 6.109375 
Q 40.53125 6.109375 44.609375 11.75 
Q 48.6875 17.390625 48.6875 27.296875 
z
" id="DejaVuSans-112"/>
      <path d="M 34.28125 27.484375 
Q 23.390625 27.484375 19.1875 25 
Q 14.984375 22.515625 14.984375 16.5 
Q 14.984375 11.71875 18.140625 8.90625 
Q 21.296875 6.109375 26.703125 6.109375 
Q 34.1875 6.109375 38.703125 11.40625 
Q 43.21875 16.703125 43.21875 25.484375 
L 43.21875 27.484375 
z
M 52.203125 31.203125 
L 52.203125 0 
L 43.21875 0 
L 43.21875 8.296875 
Q 40.140625 3.328125 35.546875 0.953125 
Q 30.953125 -1.421875 24.3125 -1.421875 
Q 15.921875 -1.421875 10.953125 3.296875 
Q 6 8.015625 6 15.921875 
Q 6 25.140625 12.171875 29.828125 
Q 18.359375 34.515625 30.609375 34.515625 
L 43.21875 34.515625 
L 43.21875 35.40625 
Q 43.21875 41.609375 39.140625 45 
Q 35.0625 48.390625 27.6875 48.390625 
Q 23 48.390625 18.546875 47.265625 
Q 14.109375 46.140625 10.015625 43.890625 
L 10.015625 52.203125 
Q 14.9375 54.109375 19.578125 55.046875 
Q 24.21875 56 28.609375 56 
Q 40.484375 56 46.34375 49.84375 
Q 52.203125 43.703125 52.203125 31.203125 
z
" id="DejaVuSans-97"/>
      <path d="M 41.109375 46.296875 
Q 39.59375 47.171875 37.8125 47.578125 
Q 36.03125 48 33.890625 48 
Q 26.265625 48 22.1875 43.046875 
Q 18.109375 38.09375 18.109375 28.8125 
L 18.109375 0 
L 9.078125 0 
L 9.078125 54.6875 
L 18.109375 54.6875 
L 18.109375 46.1875 
Q 20.953125 51.171875 25.484375 53.578125 
Q 30.03125 56 36.53125 56 
Q 37.453125 56 38.578125 55.875 
Q 39.703125 55.765625 41.0625 55.515625 
z
" id="DejaVuSans-114"/>
      <path d="M 48.78125 52.59375 
L 48.78125 44.1875 
Q 44.96875 46.296875 41.140625 47.34375 
Q 37.3125 48.390625 33.40625 48.390625 
Q 24.65625 48.390625 19.8125 42.84375 
Q 14.984375 37.3125 14.984375 27.296875 
Q 14.984375 17.28125 19.8125 11.734375 
Q 24.65625 6.203125 33.40625 6.203125 
Q 37.3125 6.203125 41.140625 7.25 
Q 44.96875 8.296875 48.78125 10.40625 
L 48.78125 2.09375 
Q 45.015625 0.34375 40.984375 -0.53125 
Q 36.96875 -1.421875 32.421875 -1.421875 
Q 20.0625 -1.421875 12.78125 6.34375 
Q 5.515625 14.109375 5.515625 27.296875 
Q 5.515625 40.671875 12.859375 48.328125 
Q 20.21875 56 33.015625 56 
Q 37.15625 56 41.109375 55.140625 
Q 45.0625 54.296875 48.78125 52.59375 
z
" id="DejaVuSans-99"/>
      <path d="M 8.5 21.578125 
L 8.5 54.6875 
L 17.484375 54.6875 
L 17.484375 21.921875 
Q 17.484375 14.15625 20.5 10.265625 
Q 23.53125 6.390625 29.59375 6.390625 
Q 36.859375 6.390625 41.078125 11.03125 
Q 45.3125 15.671875 45.3125 23.6875 
L 45.3125 54.6875 
L 54.296875 54.6875 
L 54.296875 0 
L 45.3125 0 
L 45.3125 8.40625 
Q 42.046875 3.421875 37.71875 1 
Q 33.40625 -1.421875 27.6875 -1.421875 
Q 18.265625 -1.421875 13.375 4.4375 
Q 8.5 10.296875 8.5 21.578125 
z
M 31.109375 56 
z
" id="DejaVuSans-117"/>
     </defs>
     <use xlink:href="#DejaVuSans-70"/>
     <use x="57.519531" xlink:href="#DejaVuSans-70"/>
     <use x="115.039062" xlink:href="#DejaVuSans-76"/>
     <use x="170.751953" xlink:href="#DejaVuSans-32"/>
     <use x="202.539062" xlink:href="#DejaVuSans-109"/>
     <use x="299.951172" xlink:href="#DejaVuSans-111"/>
     <use x="361.132812" xlink:href="#DejaVuSans-116"/>
     <use x="400.341797" xlink:href="#DejaVuSans-105"/>
     <use x="428.125" xlink:href="#DejaVuSans-102"/>
     <use x="457.830078" xlink:href="#DejaVuSans-45"/>
     <use x="493.914062" xlink:href="#DejaVuSans-110"/>
     <use x="557.292969" xlink:href="#DejaVuSans-111"/>
     <use x="618.474609" xlink:href="#DejaVuSans-100"/>
     <use x="681.951172" xlink:href="#DejaVuSans-101"/>
     <use x="743.474609" xlink:href="#DejaVuSans-32"/>
     <use x="775.261719" xlink:href="#DejaVuSans-112"/>
     <use x="838.738281" xlink:href="#DejaVuSans-97"/>
     <use x="900.017578" xlink:href="#DejaVuSans-114"/>
     <use x="941.130859" xlink:href="#DejaVuSans-116"/>
     <use x="980.339844" xlink:href="#DejaVuSans-105"/>
     <use x="1008.123047" xlink:href="#DejaVuSans-99"/>
     <use x="1063.103516" xlink:href="#DejaVuSans-105"/>
     <use x="1090.886719" xlink:href="#DejaVuSans-112"/>
     <use x="1154.363281" xlink:href="#DejaVuSans-97"/>
     <use x="1215.642578" xlink:href="#DejaVuSans-116"/>
     <use x="1254.851562" xlink:href="#DejaVuSans-105"/>
     <use x="1282.634766" xlink:href="#DejaVuSans-111"/>
     <use x="1343.816406" xlink:href="#DejaVuSans-110"/>
     <use x="1407.195312" xlink:href="#DejaVuSans-32"/>
     <use x="1438.982422" xlink:href="#DejaVuSans-99"/>
     <use x="1493.962891" xlink:href="#DejaVuSans-111"/>
     <use x="1555.144531" xlink:href="#DejaVuSans-117"/>
     <use x="1618.523438" xlink:href="#DejaVuSans-110"/>
     <use x="1681.902344" xlink:href="#DejaVuSans-116"/>
     <use x="1721.111328" xlink:href="#DejaVuSans-115"/>
    </g>
   </g>
   <g id="legend_1">
    <g id="patch_27">
     <path d="M 205.866667 280.732187 
L 420.670573 280.732187 
Q 424.470573 280.732187 424.470573 276.932187 
L 424.470573 139.39 
Q 424.470573 135.59 420.670573 135.59 
L 205.866667 135.59 
Q 202.066667 135.59 202.066667 139.39 
L 202.066667 276.932187 
Q 202.066667 280.732187 205.866667 280.732187 
z
" style="fill:#ffffff;opacity:0.8;stroke:#cccccc;stroke-linejoin:miter;"/>
    </g>
    <g id="patch_28">
     <path d="M 209.666667 157.627031 
L 247.666667 157.627031 
L 247.666667 144.327031 
L 209.666667 144.327031 
z
" style="fill:#1b9e77;"/>
    </g>
    <g id="text_14">
     <!-- DAG -->
     <g transform="translate(262.866667 157.627031)scale(0.19 -0.19)">
      <defs>
       <path d="M 19.671875 64.796875 
L 19.671875 8.109375 
L 31.59375 8.109375 
Q 46.6875 8.109375 53.6875 14.9375 
Q 60.6875 21.78125 60.6875 36.53125 
Q 60.6875 51.171875 53.6875 57.984375 
Q 46.6875 64.796875 31.59375 64.796875 
z
M 9.8125 72.90625 
L 30.078125 72.90625 
Q 51.265625 72.90625 61.171875 64.09375 
Q 71.09375 55.28125 71.09375 36.53125 
Q 71.09375 17.671875 61.125 8.828125 
Q 51.171875 0 30.078125 0 
L 9.8125 0 
z
" id="DejaVuSans-68"/>
       <path d="M 34.1875 63.1875 
L 20.796875 26.90625 
L 47.609375 26.90625 
z
M 28.609375 72.90625 
L 39.796875 72.90625 
L 67.578125 0 
L 57.328125 0 
L 50.6875 18.703125 
L 17.828125 18.703125 
L 11.1875 0 
L 0.78125 0 
z
" id="DejaVuSans-65"/>
       <path d="M 59.515625 10.40625 
L 59.515625 29.984375 
L 43.40625 29.984375 
L 43.40625 38.09375 
L 69.28125 38.09375 
L 69.28125 6.78125 
Q 63.578125 2.734375 56.6875 0.65625 
Q 49.8125 -1.421875 42 -1.421875 
Q 24.90625 -1.421875 15.25 8.5625 
Q 5.609375 18.5625 5.609375 36.375 
Q 5.609375 54.25 15.25 64.234375 
Q 24.90625 74.21875 42 74.21875 
Q 49.125 74.21875 55.546875 72.453125 
Q 61.96875 70.703125 67.390625 67.28125 
L 67.390625 56.78125 
Q 61.921875 61.421875 55.765625 63.765625 
Q 49.609375 66.109375 42.828125 66.109375 
Q 29.4375 66.109375 22.71875 58.640625 
Q 16.015625 51.171875 16.015625 36.375 
Q 16.015625 21.625 22.71875 14.15625 
Q 29.4375 6.6875 42.828125 6.6875 
Q 48.046875 6.6875 52.140625 7.59375 
Q 56.25 8.5 59.515625 10.40625 
z
" id="DejaVuSans-71"/>
      </defs>
      <use xlink:href="#DejaVuSans-68"/>
      <use x="75.251953" xlink:href="#DejaVuSans-65"/>
      <use x="141.910156" xlink:href="#DejaVuSans-71"/>
     </g>
    </g>
    <g id="patch_29">
     <path d="M 209.666667 185.515469 
L 247.666667 185.515469 
L 247.666667 172.215469 
L 209.666667 172.215469 
z
" style="fill:#7570b3;"/>
    </g>
    <g id="text_15">
     <!-- FFLatt -->
     <g transform="translate(262.866667 185.515469)scale(0.19 -0.19)">
      <use xlink:href="#DejaVuSans-70"/>
      <use x="57.519531" xlink:href="#DejaVuSans-70"/>
      <use x="115.039062" xlink:href="#DejaVuSans-76"/>
      <use x="170.751953" xlink:href="#DejaVuSans-97"/>
      <use x="232.03125" xlink:href="#DejaVuSans-116"/>
      <use x="271.240234" xlink:href="#DejaVuSans-116"/>
     </g>
    </g>
    <g id="patch_30">
     <path d="M 209.666667 213.403906 
L 247.666667 213.403906 
L 247.666667 200.103906 
L 209.666667 200.103906 
z
" style="fill:#66a61e;"/>
    </g>
    <g id="text_16">
     <!-- GNW -->
     <g transform="translate(262.866667 213.403906)scale(0.19 -0.19)">
      <defs>
       <path d="M 9.8125 72.90625 
L 23.09375 72.90625 
L 55.421875 11.921875 
L 55.421875 72.90625 
L 64.984375 72.90625 
L 64.984375 0 
L 51.703125 0 
L 19.390625 60.984375 
L 19.390625 0 
L 9.8125 0 
z
" id="DejaVuSans-78"/>
       <path d="M 3.328125 72.90625 
L 13.28125 72.90625 
L 28.609375 11.28125 
L 43.890625 72.90625 
L 54.984375 72.90625 
L 70.3125 11.28125 
L 85.59375 72.90625 
L 95.609375 72.90625 
L 77.296875 0 
L 64.890625 0 
L 49.515625 63.28125 
L 33.984375 0 
L 21.578125 0 
z
" id="DejaVuSans-87"/>
      </defs>
      <use xlink:href="#DejaVuSans-71"/>
      <use x="77.490234" xlink:href="#DejaVuSans-78"/>
      <use x="152.294922" xlink:href="#DejaVuSans-87"/>
     </g>
    </g>
    <g id="patch_31">
     <path d="M 209.666667 241.292344 
L 247.666667 241.292344 
L 247.666667 227.992344 
L 209.666667 227.992344 
z
" style="fill:#a6761d;"/>
    </g>
    <g id="text_17">
     <!-- NetworkX graph -->
     <g transform="translate(262.866667 241.292344)scale(0.19 -0.19)">
      <defs>
       <path d="M 4.203125 54.6875 
L 13.1875 54.6875 
L 24.421875 12.015625 
L 35.59375 54.6875 
L 46.1875 54.6875 
L 57.421875 12.015625 
L 68.609375 54.6875 
L 77.59375 54.6875 
L 63.28125 0 
L 52.6875 0 
L 40.921875 44.828125 
L 29.109375 0 
L 18.5 0 
z
" id="DejaVuSans-119"/>
       <path d="M 9.078125 75.984375 
L 18.109375 75.984375 
L 18.109375 31.109375 
L 44.921875 54.6875 
L 56.390625 54.6875 
L 27.390625 29.109375 
L 57.625 0 
L 45.90625 0 
L 18.109375 26.703125 
L 18.109375 0 
L 9.078125 0 
z
" id="DejaVuSans-107"/>
       <path d="M 6.296875 72.90625 
L 16.890625 72.90625 
L 35.015625 45.796875 
L 53.21875 72.90625 
L 63.8125 72.90625 
L 40.375 37.890625 
L 65.375 0 
L 54.78125 0 
L 34.28125 31 
L 13.625 0 
L 2.984375 0 
L 29 38.921875 
z
" id="DejaVuSans-88"/>
       <path d="M 45.40625 27.984375 
Q 45.40625 37.75 41.375 43.109375 
Q 37.359375 48.484375 30.078125 48.484375 
Q 22.859375 48.484375 18.828125 43.109375 
Q 14.796875 37.75 14.796875 27.984375 
Q 14.796875 18.265625 18.828125 12.890625 
Q 22.859375 7.515625 30.078125 7.515625 
Q 37.359375 7.515625 41.375 12.890625 
Q 45.40625 18.265625 45.40625 27.984375 
z
M 54.390625 6.78125 
Q 54.390625 -7.171875 48.1875 -13.984375 
Q 42 -20.796875 29.203125 -20.796875 
Q 24.46875 -20.796875 20.265625 -20.09375 
Q 16.0625 -19.390625 12.109375 -17.921875 
L 12.109375 -9.1875 
Q 16.0625 -11.328125 19.921875 -12.34375 
Q 23.78125 -13.375 27.78125 -13.375 
Q 36.625 -13.375 41.015625 -8.765625 
Q 45.40625 -4.15625 45.40625 5.171875 
L 45.40625 9.625 
Q 42.625 4.78125 38.28125 2.390625 
Q 33.9375 0 27.875 0 
Q 17.828125 0 11.671875 7.65625 
Q 5.515625 15.328125 5.515625 27.984375 
Q 5.515625 40.671875 11.671875 48.328125 
Q 17.828125 56 27.875 56 
Q 33.9375 56 38.28125 53.609375 
Q 42.625 51.21875 45.40625 46.390625 
L 45.40625 54.6875 
L 54.390625 54.6875 
z
" id="DejaVuSans-103"/>
       <path d="M 54.890625 33.015625 
L 54.890625 0 
L 45.90625 0 
L 45.90625 32.71875 
Q 45.90625 40.484375 42.875 44.328125 
Q 39.84375 48.1875 33.796875 48.1875 
Q 26.515625 48.1875 22.3125 43.546875 
Q 18.109375 38.921875 18.109375 30.90625 
L 18.109375 0 
L 9.078125 0 
L 9.078125 75.984375 
L 18.109375 75.984375 
L 18.109375 46.1875 
Q 21.34375 51.125 25.703125 53.5625 
Q 30.078125 56 35.796875 56 
Q 45.21875 56 50.046875 50.171875 
Q 54.890625 44.34375 54.890625 33.015625 
z
" id="DejaVuSans-104"/>
      </defs>
      <use xlink:href="#DejaVuSans-78"/>
      <use x="74.804688" xlink:href="#DejaVuSans-101"/>
      <use x="136.328125" xlink:href="#DejaVuSans-116"/>
      <use x="175.537109" xlink:href="#DejaVuSans-119"/>
      <use x="257.324219" xlink:href="#DejaVuSans-111"/>
      <use x="318.505859" xlink:href="#DejaVuSans-114"/>
      <use x="359.619141" xlink:href="#DejaVuSans-107"/>
      <use x="417.529297" xlink:href="#DejaVuSans-88"/>
      <use x="486.035156" xlink:href="#DejaVuSans-32"/>
      <use x="517.822266" xlink:href="#DejaVuSans-103"/>
      <use x="581.298828" xlink:href="#DejaVuSans-114"/>
      <use x="622.412109" xlink:href="#DejaVuSans-97"/>
      <use x="683.691406" xlink:href="#DejaVuSans-112"/>
      <use x="747.167969" xlink:href="#DejaVuSans-104"/>
     </g>
    </g>
    <g id="patch_32">
     <path d="M 209.666667 269.180781 
L 247.666667 269.180781 
L 247.666667 255.880781 
L 209.666667 255.880781 
z
" style="fill:#666666;"/>
    </g>
    <g id="text_18">
     <!-- RandG -->
     <g transform="translate(262.866667 269.180781)scale(0.19 -0.19)">
      <defs>
       <path d="M 44.390625 34.1875 
Q 47.5625 33.109375 50.5625 29.59375 
Q 53.5625 26.078125 56.59375 19.921875 
L 66.609375 0 
L 56 0 
L 46.6875 18.703125 
Q 43.0625 26.03125 39.671875 28.421875 
Q 36.28125 30.8125 30.421875 30.8125 
L 19.671875 30.8125 
L 19.671875 0 
L 9.8125 0 
L 9.8125 72.90625 
L 32.078125 72.90625 
Q 44.578125 72.90625 50.734375 67.671875 
Q 56.890625 62.453125 56.890625 51.90625 
Q 56.890625 45.015625 53.6875 40.46875 
Q 50.484375 35.9375 44.390625 34.1875 
z
M 19.671875 64.796875 
L 19.671875 38.921875 
L 32.078125 38.921875 
Q 39.203125 38.921875 42.84375 42.21875 
Q 46.484375 45.515625 46.484375 51.90625 
Q 46.484375 58.296875 42.84375 61.546875 
Q 39.203125 64.796875 32.078125 64.796875 
z
" id="DejaVuSans-82"/>
      </defs>
      <use xlink:href="#DejaVuSans-82"/>
      <use x="67.232422" xlink:href="#DejaVuSans-97"/>
      <use x="128.511719" xlink:href="#DejaVuSans-110"/>
      <use x="191.890625" xlink:href="#DejaVuSans-100"/>
      <use x="255.367188" xlink:href="#DejaVuSans-71"/>
     </g>
    </g>
   </g>
  </g>
  <g id="axes_2">
   <g id="patch_33">
    <path d="M 878.366667 484.83 
L 1321.183333 484.83 
L 1321.183333 126.09 
L 878.366667 126.09 
z
" style="fill:#ffffff;"/>
   </g>
   <g id="patch_34">
    <path clip-path="url(#pa1622642eb)" d="M 906.042708 484.83 
L 917.113125 484.83 
L 917.113125 165.584923 
L 906.042708 165.584923 
z
" style="fill:#1b9e77;"/>
   </g>
   <g id="patch_35">
    <path clip-path="url(#pa1622642eb)" d="M 1016.746875 484.83 
L 1027.817292 484.83 
L 1027.817292 165.584923 
L 1016.746875 165.584923 
z
" style="fill:#1b9e77;"/>
   </g>
   <g id="patch_36">
    <path clip-path="url(#pa1622642eb)" d="M 1127.451042 484.83 
L 1138.521458 484.83 
L 1138.521458 165.584923 
L 1127.451042 165.584923 
z
" style="fill:#1b9e77;"/>
   </g>
   <g id="patch_37">
    <path clip-path="url(#pa1622642eb)" d="M 1238.155208 484.83 
L 1249.225625 484.83 
L 1249.225625 165.584923 
L 1238.155208 165.584923 
z
" style="fill:#1b9e77;"/>
   </g>
   <g id="patch_38">
    <path clip-path="url(#pa1622642eb)" d="M 917.113125 484.83 
L 928.183542 484.83 
L 928.183542 164.77987 
L 917.113125 164.77987 
z
" style="fill:#7570b3;"/>
   </g>
   <g id="patch_39">
    <path clip-path="url(#pa1622642eb)" d="M 1027.817292 484.83 
L 1038.887708 484.83 
L 1038.887708 159.658069 
L 1027.817292 159.658069 
z
" style="fill:#7570b3;"/>
   </g>
   <g id="patch_40">
    <path clip-path="url(#pa1622642eb)" d="M 1138.521458 484.83 
L 1149.591875 484.83 
L 1149.591875 159.644188 
L 1138.521458 159.644188 
z
" style="fill:#7570b3;"/>
   </g>
   <g id="patch_41">
    <path clip-path="url(#pa1622642eb)" d="M 1249.225625 484.83 
L 1260.296042 484.83 
L 1260.296042 163.072603 
L 1249.225625 163.072603 
z
" style="fill:#7570b3;"/>
   </g>
   <g id="patch_42">
    <path clip-path="url(#pa1622642eb)" d="M 928.183542 484.83 
L 939.253958 484.83 
L 939.253958 220.73104 
L 928.183542 220.73104 
z
" style="fill:#66a61e;"/>
   </g>
   <g id="patch_43">
    <path clip-path="url(#pa1622642eb)" d="M 1038.887708 484.83 
L 1049.958125 484.83 
L 1049.958125 202.714513 
L 1038.887708 202.714513 
z
" style="fill:#66a61e;"/>
   </g>
   <g id="patch_44">
    <path clip-path="url(#pa1622642eb)" d="M 1149.591875 484.83 
L 1160.662292 484.83 
L 1160.662292 158.936297 
L 1149.591875 158.936297 
z
" style="fill:#66a61e;"/>
   </g>
   <g id="patch_45">
    <path clip-path="url(#pa1622642eb)" d="M 1260.296042 484.83 
L 1271.366458 484.83 
L 1271.366458 143.251648 
L 1260.296042 143.251648 
z
" style="fill:#66a61e;"/>
   </g>
   <g id="patch_46">
    <path clip-path="url(#pa1622642eb)" d="M 939.253958 484.83 
L 950.324375 484.83 
L 950.324375 161.976065 
L 939.253958 161.976065 
z
" style="fill:#a6761d;"/>
   </g>
   <g id="patch_47">
    <path clip-path="url(#pa1622642eb)" d="M 1049.958125 484.83 
L 1061.028542 484.83 
L 1061.028542 161.837263 
L 1049.958125 161.837263 
z
" style="fill:#a6761d;"/>
   </g>
   <g id="patch_48">
    <path clip-path="url(#pa1622642eb)" d="M 1160.662292 484.83 
L 1171.732708 484.83 
L 1171.732708 161.837263 
L 1160.662292 161.837263 
z
" style="fill:#a6761d;"/>
   </g>
   <g id="patch_49">
    <path clip-path="url(#pa1622642eb)" d="M 1271.366458 484.83 
L 1282.436875 484.83 
L 1282.436875 161.837263 
L 1271.366458 161.837263 
z
" style="fill:#a6761d;"/>
   </g>
   <g id="patch_50">
    <path clip-path="url(#pa1622642eb)" d="M 950.324375 484.83 
L 961.394792 484.83 
L 961.394792 155.119236 
L 950.324375 155.119236 
z
" style="fill:#666666;"/>
   </g>
   <g id="patch_51">
    <path clip-path="url(#pa1622642eb)" d="M 1061.028542 484.83 
L 1072.098958 484.83 
L 1072.098958 154.883273 
L 1061.028542 154.883273 
z
" style="fill:#666666;"/>
   </g>
   <g id="patch_52">
    <path clip-path="url(#pa1622642eb)" d="M 1171.732708 484.83 
L 1182.803125 484.83 
L 1182.803125 154.855512 
L 1171.732708 154.855512 
z
" style="fill:#666666;"/>
   </g>
   <g id="patch_53">
    <path clip-path="url(#pa1622642eb)" d="M 1282.436875 484.83 
L 1293.507292 484.83 
L 1293.507292 154.786111 
L 1282.436875 154.786111 
z
" style="fill:#666666;"/>
   </g>
   <g id="matplotlib.axis_3">
    <g id="xtick_5">
     <g id="line2d_12">
      <g>
       <use style="stroke:#000000;stroke-width:0.8;" x="933.71875" xlink:href="#md179f3fd6d" y="484.83"/>
      </g>
     </g>
     <g id="text_19">
      <!-- 500 -->
      <g transform="translate(938.961563 528.09625)rotate(-90)scale(0.19 -0.19)">
       <use xlink:href="#DejaVuSans-53"/>
       <use x="63.623047" xlink:href="#DejaVuSans-48"/>
       <use x="127.246094" xlink:href="#DejaVuSans-48"/>
      </g>
     </g>
    </g>
    <g id="xtick_6">
     <g id="line2d_13">
      <g>
       <use style="stroke:#000000;stroke-width:0.8;" x="1044.422917" xlink:href="#md179f3fd6d" y="484.83"/>
      </g>
     </g>
     <g id="text_20">
      <!-- 750 -->
      <g transform="translate(1049.665729 528.09625)rotate(-90)scale(0.19 -0.19)">
       <use xlink:href="#DejaVuSans-55"/>
       <use x="63.623047" xlink:href="#DejaVuSans-53"/>
       <use x="127.246094" xlink:href="#DejaVuSans-48"/>
      </g>
     </g>
    </g>
    <g id="xtick_7">
     <g id="line2d_14">
      <g>
       <use style="stroke:#000000;stroke-width:0.8;" x="1155.127083" xlink:href="#md179f3fd6d" y="484.83"/>
      </g>
     </g>
     <g id="text_21">
      <!-- 1000 -->
      <g transform="translate(1160.369896 540.185)rotate(-90)scale(0.19 -0.19)">
       <use xlink:href="#DejaVuSans-49"/>
       <use x="63.623047" xlink:href="#DejaVuSans-48"/>
       <use x="127.246094" xlink:href="#DejaVuSans-48"/>
       <use x="190.869141" xlink:href="#DejaVuSans-48"/>
      </g>
     </g>
    </g>
    <g id="xtick_8">
     <g id="line2d_15">
      <g>
       <use style="stroke:#000000;stroke-width:0.8;" x="1265.83125" xlink:href="#md179f3fd6d" y="484.83"/>
      </g>
     </g>
     <g id="text_22">
      <!-- 1500 -->
      <g transform="translate(1271.074063 540.185)rotate(-90)scale(0.19 -0.19)">
       <use xlink:href="#DejaVuSans-49"/>
       <use x="63.623047" xlink:href="#DejaVuSans-53"/>
       <use x="127.246094" xlink:href="#DejaVuSans-48"/>
       <use x="190.869141" xlink:href="#DejaVuSans-48"/>
      </g>
     </g>
    </g>
    <g id="text_23">
     <!-- size -->
     <g transform="translate(1081.355391 558.622031)scale(0.19 -0.19)">
      <use xlink:href="#DejaVuSans-115"/>
      <use x="52.099609" xlink:href="#DejaVuSans-105"/>
      <use x="79.882812" xlink:href="#DejaVuSans-122"/>
      <use x="132.373047" xlink:href="#DejaVuSans-101"/>
     </g>
    </g>
   </g>
   <g id="matplotlib.axis_4">
    <g id="ytick_8">
     <g id="line2d_16">
      <g>
       <use style="stroke:#000000;stroke-width:0.8;" x="878.366667" xlink:href="#m32c03b8a45" y="484.83"/>
      </g>
     </g>
     <g id="text_24">
      <!-- 0.0 -->
      <g transform="translate(841.150729 492.048516)scale(0.19 -0.19)">
       <defs>
        <path d="M 10.6875 12.40625 
L 21 12.40625 
L 21 0 
L 10.6875 0 
z
" id="DejaVuSans-46"/>
       </defs>
       <use xlink:href="#DejaVuSans-48"/>
       <use x="63.623047" xlink:href="#DejaVuSans-46"/>
       <use x="95.410156" xlink:href="#DejaVuSans-48"/>
      </g>
     </g>
    </g>
    <g id="ytick_9">
     <g id="line2d_17">
      <g>
       <use style="stroke:#000000;stroke-width:0.8;" x="878.366667" xlink:href="#m32c03b8a45" y="415.428896"/>
      </g>
     </g>
     <g id="text_25">
      <!-- 0.5 -->
      <g transform="translate(841.150729 422.647412)scale(0.19 -0.19)">
       <use xlink:href="#DejaVuSans-48"/>
       <use x="63.623047" xlink:href="#DejaVuSans-46"/>
       <use x="95.410156" xlink:href="#DejaVuSans-53"/>
      </g>
     </g>
    </g>
    <g id="ytick_10">
     <g id="line2d_18">
      <g>
       <use style="stroke:#000000;stroke-width:0.8;" x="878.366667" xlink:href="#m32c03b8a45" y="346.027793"/>
      </g>
     </g>
     <g id="text_26">
      <!-- 1.0 -->
      <g transform="translate(841.150729 353.246308)scale(0.19 -0.19)">
       <use xlink:href="#DejaVuSans-49"/>
       <use x="63.623047" xlink:href="#DejaVuSans-46"/>
       <use x="95.410156" xlink:href="#DejaVuSans-48"/>
      </g>
     </g>
    </g>
    <g id="ytick_11">
     <g id="line2d_19">
      <g>
       <use style="stroke:#000000;stroke-width:0.8;" x="878.366667" xlink:href="#m32c03b8a45" y="276.626689"/>
      </g>
     </g>
     <g id="text_27">
      <!-- 1.5 -->
      <g transform="translate(841.150729 283.845204)scale(0.19 -0.19)">
       <use xlink:href="#DejaVuSans-49"/>
       <use x="63.623047" xlink:href="#DejaVuSans-46"/>
       <use x="95.410156" xlink:href="#DejaVuSans-53"/>
      </g>
     </g>
    </g>
    <g id="ytick_12">
     <g id="line2d_20">
      <g>
       <use style="stroke:#000000;stroke-width:0.8;" x="878.366667" xlink:href="#m32c03b8a45" y="207.225585"/>
      </g>
     </g>
     <g id="text_28">
      <!-- 2.0 -->
      <g transform="translate(841.150729 214.444101)scale(0.19 -0.19)">
       <use xlink:href="#DejaVuSans-50"/>
       <use x="63.623047" xlink:href="#DejaVuSans-46"/>
       <use x="95.410156" xlink:href="#DejaVuSans-48"/>
      </g>
     </g>
    </g>
    <g id="ytick_13">
     <g id="line2d_21">
      <g>
       <use style="stroke:#000000;stroke-width:0.8;" x="878.366667" xlink:href="#m32c03b8a45" y="137.824481"/>
      </g>
     </g>
     <g id="text_29">
      <!-- 2.5 -->
      <g transform="translate(841.150729 145.042997)scale(0.19 -0.19)">
       <use xlink:href="#DejaVuSans-50"/>
       <use x="63.623047" xlink:href="#DejaVuSans-46"/>
       <use x="95.410156" xlink:href="#DejaVuSans-53"/>
      </g>
     </g>
    </g>
   </g>
   <g id="LineCollection_6">
    <path clip-path="url(#pa1622642eb)" d="M 911.577917 165.584923 
L 911.577917 165.584923 
" style="fill:none;stroke:#000000;stroke-width:1.5;"/>
    <path clip-path="url(#pa1622642eb)" d="M 1022.282083 165.584923 
L 1022.282083 165.584923 
" style="fill:none;stroke:#000000;stroke-width:1.5;"/>
    <path clip-path="url(#pa1622642eb)" d="M 1132.98625 165.584923 
L 1132.98625 165.584923 
" style="fill:none;stroke:#000000;stroke-width:1.5;"/>
    <path clip-path="url(#pa1622642eb)" d="M 1243.690417 165.584923 
L 1243.690417 165.584923 
" style="fill:none;stroke:#000000;stroke-width:1.5;"/>
   </g>
   <g id="LineCollection_7">
    <path clip-path="url(#pa1622642eb)" d="M 922.648333 171.052406 
L 922.648333 158.507334 
" style="fill:none;stroke:#000000;stroke-width:1.5;"/>
    <path clip-path="url(#pa1622642eb)" d="M 1033.3525 168.214174 
L 1033.3525 151.101964 
" style="fill:none;stroke:#000000;stroke-width:1.5;"/>
    <path clip-path="url(#pa1622642eb)" d="M 1144.056667 167.192102 
L 1144.056667 152.096275 
" style="fill:none;stroke:#000000;stroke-width:1.5;"/>
    <path clip-path="url(#pa1622642eb)" d="M 1254.760833 172.291654 
L 1254.760833 153.853552 
" style="fill:none;stroke:#000000;stroke-width:1.5;"/>
   </g>
   <g id="LineCollection_8">
    <path clip-path="url(#pa1622642eb)" d="M 933.71875 269.918405 
L 933.71875 171.543675 
" style="fill:none;stroke:#000000;stroke-width:1.5;"/>
    <path clip-path="url(#pa1622642eb)" d="M 1044.422917 238.90871 
L 1044.422917 166.520317 
" style="fill:none;stroke:#000000;stroke-width:1.5;"/>
    <path clip-path="url(#pa1622642eb)" d="M 1155.127083 170.36265 
L 1155.127083 147.509944 
" style="fill:none;stroke:#000000;stroke-width:1.5;"/>
    <path clip-path="url(#pa1622642eb)" d="M 1265.83125 143.330438 
L 1265.83125 143.172857 
" style="fill:none;stroke:#000000;stroke-width:1.5;"/>
   </g>
   <g id="LineCollection_9">
    <path clip-path="url(#pa1622642eb)" d="M 944.789167 161.976065 
L 944.789167 161.976065 
" style="fill:none;stroke:#000000;stroke-width:1.5;"/>
    <path clip-path="url(#pa1622642eb)" d="M 1055.493333 161.837263 
L 1055.493333 161.837263 
" style="fill:none;stroke:#000000;stroke-width:1.5;"/>
    <path clip-path="url(#pa1622642eb)" d="M 1166.1975 161.837263 
L 1166.1975 161.837263 
" style="fill:none;stroke:#000000;stroke-width:1.5;"/>
    <path clip-path="url(#pa1622642eb)" d="M 1276.901667 161.837263 
L 1276.901667 161.837263 
" style="fill:none;stroke:#000000;stroke-width:1.5;"/>
   </g>
   <g id="LineCollection_10">
    <path clip-path="url(#pa1622642eb)" d="M 955.859583 155.554248 
L 955.859583 154.684224 
" style="fill:none;stroke:#000000;stroke-width:1.5;"/>
    <path clip-path="url(#pa1622642eb)" d="M 1066.56375 155.094791 
L 1066.56375 154.671754 
" style="fill:none;stroke:#000000;stroke-width:1.5;"/>
    <path clip-path="url(#pa1622642eb)" d="M 1177.267917 155.082647 
L 1177.267917 154.628377 
" style="fill:none;stroke:#000000;stroke-width:1.5;"/>
    <path clip-path="url(#pa1622642eb)" d="M 1287.972083 154.913662 
L 1287.972083 154.658561 
" style="fill:none;stroke:#000000;stroke-width:1.5;"/>
   </g>
   <g id="patch_54">
    <path d="M 878.366667 484.83 
L 878.366667 126.09 
" style="fill:none;stroke:#000000;stroke-linecap:square;stroke-linejoin:miter;stroke-width:0.8;"/>
   </g>
   <g id="patch_55">
    <path d="M 1321.183333 484.83 
L 1321.183333 126.09 
" style="fill:none;stroke:#000000;stroke-linecap:square;stroke-linejoin:miter;stroke-width:0.8;"/>
   </g>
   <g id="patch_56">
    <path d="M 878.366667 484.83 
L 1321.183333 484.83 
" style="fill:none;stroke:#000000;stroke-linecap:square;stroke-linejoin:miter;stroke-width:0.8;"/>
   </g>
   <g id="patch_57">
    <path d="M 878.366667 126.09 
L 1321.183333 126.09 
" style="fill:none;stroke:#000000;stroke-linecap:square;stroke-linejoin:miter;stroke-width:0.8;"/>
   </g>
   <g id="text_30">
    <!-- Sparsity -->
    <g transform="translate(1053.30575 120.09)scale(0.228 -0.228)">
     <defs>
      <path d="M 53.515625 70.515625 
L 53.515625 60.890625 
Q 47.90625 63.578125 42.921875 64.890625 
Q 37.9375 66.21875 33.296875 66.21875 
Q 25.25 66.21875 20.875 63.09375 
Q 16.5 59.96875 16.5 54.203125 
Q 16.5 49.359375 19.40625 46.890625 
Q 22.3125 44.4375 30.421875 42.921875 
L 36.375 41.703125 
Q 47.40625 39.59375 52.65625 34.296875 
Q 57.90625 29 57.90625 20.125 
Q 57.90625 9.515625 50.796875 4.046875 
Q 43.703125 -1.421875 29.984375 -1.421875 
Q 24.8125 -1.421875 18.96875 -0.25 
Q 13.140625 0.921875 6.890625 3.21875 
L 6.890625 13.375 
Q 12.890625 10.015625 18.65625 8.296875 
Q 24.421875 6.59375 29.984375 6.59375 
Q 38.421875 6.59375 43.015625 9.90625 
Q 47.609375 13.234375 47.609375 19.390625 
Q 47.609375 24.75 44.3125 27.78125 
Q 41.015625 30.8125 33.5 32.328125 
L 27.484375 33.5 
Q 16.453125 35.6875 11.515625 40.375 
Q 6.59375 45.0625 6.59375 53.421875 
Q 6.59375 63.09375 13.40625 68.65625 
Q 20.21875 74.21875 32.171875 74.21875 
Q 37.3125 74.21875 42.625 73.28125 
Q 47.953125 72.359375 53.515625 70.515625 
z
" id="DejaVuSans-83"/>
      <path d="M 32.171875 -5.078125 
Q 28.375 -14.84375 24.75 -17.8125 
Q 21.140625 -20.796875 15.09375 -20.796875 
L 7.90625 -20.796875 
L 7.90625 -13.28125 
L 13.1875 -13.28125 
Q 16.890625 -13.28125 18.9375 -11.515625 
Q 21 -9.765625 23.484375 -3.21875 
L 25.09375 0.875 
L 2.984375 54.6875 
L 12.5 54.6875 
L 29.59375 11.921875 
L 46.6875 54.6875 
L 56.203125 54.6875 
z
" id="DejaVuSans-121"/>
     </defs>
     <use xlink:href="#DejaVuSans-83"/>
     <use x="63.476562" xlink:href="#DejaVuSans-112"/>
     <use x="126.953125" xlink:href="#DejaVuSans-97"/>
     <use x="188.232422" xlink:href="#DejaVuSans-114"/>
     <use x="229.345703" xlink:href="#DejaVuSans-115"/>
     <use x="281.445312" xlink:href="#DejaVuSans-105"/>
     <use x="309.228516" xlink:href="#DejaVuSans-116"/>
     <use x="348.4375" xlink:href="#DejaVuSans-121"/>
    </g>
   </g>
  </g>
  <g id="axes_3">
   <g id="patch_58">
    <path d="M 192.566667 1086.66 
L 635.383333 1086.66 
L 635.383333 727.92 
L 192.566667 727.92 
z
" style="fill:#ffffff;"/>
   </g>
   <g id="patch_59">
    <path clip-path="url(#p7d4bda9570)" d="M 220.242708 1086.66 
L 231.313125 1086.66 
L 231.313125 766.622207 
L 220.242708 766.622207 
z
" style="fill:#1b9e77;"/>
   </g>
   <g id="patch_60">
    <path clip-path="url(#p7d4bda9570)" d="M 330.946875 1086.66 
L 342.017292 1086.66 
L 342.017292 765.472505 
L 330.946875 765.472505 
z
" style="fill:#1b9e77;"/>
   </g>
   <g id="patch_61">
    <path clip-path="url(#p7d4bda9570)" d="M 441.651042 1086.66 
L 452.721458 1086.66 
L 452.721458 765.19209 
L 441.651042 765.19209 
z
" style="fill:#1b9e77;"/>
   </g>
   <g id="patch_62">
    <path clip-path="url(#p7d4bda9570)" d="M 552.355208 1086.66 
L 563.425625 1086.66 
L 563.425625 764.743426 
L 552.355208 764.743426 
z
" style="fill:#1b9e77;"/>
   </g>
   <g id="patch_63">
    <path clip-path="url(#p7d4bda9570)" d="M 231.313125 1086.66 
L 242.383542 1086.66 
L 242.383542 822.761317 
L 231.313125 822.761317 
z
" style="fill:#7570b3;"/>
   </g>
   <g id="patch_64">
    <path clip-path="url(#p7d4bda9570)" d="M 342.017292 1086.66 
L 353.087708 1086.66 
L 353.087708 816.984765 
L 342.017292 816.984765 
z
" style="fill:#7570b3;"/>
   </g>
   <g id="patch_65">
    <path clip-path="url(#p7d4bda9570)" d="M 452.721458 1086.66 
L 463.791875 1086.66 
L 463.791875 815.274233 
L 452.721458 815.274233 
z
" style="fill:#7570b3;"/>
   </g>
   <g id="patch_66">
    <path clip-path="url(#p7d4bda9570)" d="M 563.425625 1086.66 
L 574.496042 1086.66 
L 574.496042 819.143962 
L 563.425625 819.143962 
z
" style="fill:#7570b3;"/>
   </g>
   <g id="patch_67">
    <path clip-path="url(#p7d4bda9570)" d="M 242.383542 1086.66 
L 253.453958 1086.66 
L 253.453958 823.518438 
L 242.383542 823.518438 
z
" style="fill:#66a61e;"/>
   </g>
   <g id="patch_68">
    <path clip-path="url(#p7d4bda9570)" d="M 353.087708 1086.66 
L 364.158125 1086.66 
L 364.158125 806.581364 
L 353.087708 806.581364 
z
" style="fill:#66a61e;"/>
   </g>
   <g id="patch_69">
    <path clip-path="url(#p7d4bda9570)" d="M 463.791875 1086.66 
L 474.862292 1086.66 
L 474.862292 759.836161 
L 463.791875 759.836161 
z
" style="fill:#66a61e;"/>
   </g>
   <g id="patch_70">
    <path clip-path="url(#p7d4bda9570)" d="M 574.496042 1086.66 
L 585.566458 1086.66 
L 585.566458 751.087208 
L 574.496042 751.087208 
z
" style="fill:#66a61e;"/>
   </g>
   <g id="patch_71">
    <path clip-path="url(#p7d4bda9570)" d="M 253.453958 1086.66 
L 264.524375 1086.66 
L 264.524375 782.157205 
L 253.453958 782.157205 
z
" style="fill:#a6761d;"/>
   </g>
   <g id="patch_72">
    <path clip-path="url(#p7d4bda9570)" d="M 364.158125 1086.66 
L 375.228542 1086.66 
L 375.228542 785.325896 
L 364.158125 785.325896 
z
" style="fill:#a6761d;"/>
   </g>
   <g id="patch_73">
    <path clip-path="url(#p7d4bda9570)" d="M 474.862292 1086.66 
L 485.932708 1086.66 
L 485.932708 784.064028 
L 474.862292 784.064028 
z
" style="fill:#a6761d;"/>
   </g>
   <g id="patch_74">
    <path clip-path="url(#p7d4bda9570)" d="M 585.566458 1086.66 
L 596.636875 1086.66 
L 596.636875 784.540734 
L 585.566458 784.540734 
z
" style="fill:#a6761d;"/>
   </g>
   <g id="patch_75">
    <path clip-path="url(#p7d4bda9570)" d="M 264.524375 1086.66 
L 275.594792 1086.66 
L 275.594792 753.246405 
L 264.524375 753.246405 
z
" style="fill:#666666;"/>
   </g>
   <g id="patch_76">
    <path clip-path="url(#p7d4bda9570)" d="M 375.228542 1086.66 
L 386.298958 1086.66 
L 386.298958 750.947001 
L 375.228542 750.947001 
z
" style="fill:#666666;"/>
   </g>
   <g id="patch_77">
    <path clip-path="url(#p7d4bda9570)" d="M 485.932708 1086.66 
L 497.003125 1086.66 
L 497.003125 752.545367 
L 485.932708 752.545367 
z
" style="fill:#666666;"/>
   </g>
   <g id="patch_78">
    <path clip-path="url(#p7d4bda9570)" d="M 596.636875 1086.66 
L 607.707292 1086.66 
L 607.707292 752.04062 
L 596.636875 752.04062 
z
" style="fill:#666666;"/>
   </g>
   <g id="matplotlib.axis_5">
    <g id="xtick_9">
     <g id="line2d_22">
      <g>
       <use style="stroke:#000000;stroke-width:0.8;" x="247.91875" xlink:href="#md179f3fd6d" y="1086.66"/>
      </g>
     </g>
     <g id="text_31">
      <!-- 500 -->
      <g transform="translate(253.161563 1129.92625)rotate(-90)scale(0.19 -0.19)">
       <use xlink:href="#DejaVuSans-53"/>
       <use x="63.623047" xlink:href="#DejaVuSans-48"/>
       <use x="127.246094" xlink:href="#DejaVuSans-48"/>
      </g>
     </g>
    </g>
    <g id="xtick_10">
     <g id="line2d_23">
      <g>
       <use style="stroke:#000000;stroke-width:0.8;" x="358.622917" xlink:href="#md179f3fd6d" y="1086.66"/>
      </g>
     </g>
     <g id="text_32">
      <!-- 750 -->
      <g transform="translate(363.865729 1129.92625)rotate(-90)scale(0.19 -0.19)">
       <use xlink:href="#DejaVuSans-55"/>
       <use x="63.623047" xlink:href="#DejaVuSans-53"/>
       <use x="127.246094" xlink:href="#DejaVuSans-48"/>
      </g>
     </g>
    </g>
    <g id="xtick_11">
     <g id="line2d_24">
      <g>
       <use style="stroke:#000000;stroke-width:0.8;" x="469.327083" xlink:href="#md179f3fd6d" y="1086.66"/>
      </g>
     </g>
     <g id="text_33">
      <!-- 1000 -->
      <g transform="translate(474.569896 1142.015)rotate(-90)scale(0.19 -0.19)">
       <use xlink:href="#DejaVuSans-49"/>
       <use x="63.623047" xlink:href="#DejaVuSans-48"/>
       <use x="127.246094" xlink:href="#DejaVuSans-48"/>
       <use x="190.869141" xlink:href="#DejaVuSans-48"/>
      </g>
     </g>
    </g>
    <g id="xtick_12">
     <g id="line2d_25">
      <g>
       <use style="stroke:#000000;stroke-width:0.8;" x="580.03125" xlink:href="#md179f3fd6d" y="1086.66"/>
      </g>
     </g>
     <g id="text_34">
      <!-- 1500 -->
      <g transform="translate(585.274063 1142.015)rotate(-90)scale(0.19 -0.19)">
       <use xlink:href="#DejaVuSans-49"/>
       <use x="63.623047" xlink:href="#DejaVuSans-53"/>
       <use x="127.246094" xlink:href="#DejaVuSans-48"/>
       <use x="190.869141" xlink:href="#DejaVuSans-48"/>
      </g>
     </g>
    </g>
    <g id="text_35">
     <!-- size -->
     <g transform="translate(395.555391 1160.452031)scale(0.19 -0.19)">
      <use xlink:href="#DejaVuSans-115"/>
      <use x="52.099609" xlink:href="#DejaVuSans-105"/>
      <use x="79.882812" xlink:href="#DejaVuSans-122"/>
      <use x="132.373047" xlink:href="#DejaVuSans-101"/>
     </g>
    </g>
   </g>
   <g id="matplotlib.axis_6">
    <g id="ytick_14">
     <g id="line2d_26">
      <g>
       <use style="stroke:#000000;stroke-width:0.8;" x="192.566667" xlink:href="#m32c03b8a45" y="1086.66"/>
      </g>
     </g>
     <g id="text_36">
      <!-- 0.0 -->
      <g transform="translate(155.350729 1093.878516)scale(0.19 -0.19)">
       <use xlink:href="#DejaVuSans-48"/>
       <use x="63.623047" xlink:href="#DejaVuSans-46"/>
       <use x="95.410156" xlink:href="#DejaVuSans-48"/>
      </g>
     </g>
    </g>
    <g id="ytick_15">
     <g id="line2d_27">
      <g>
       <use style="stroke:#000000;stroke-width:0.8;" x="192.566667" xlink:href="#m32c03b8a45" y="1030.576973"/>
      </g>
     </g>
     <g id="text_37">
      <!-- 0.2 -->
      <g transform="translate(155.350729 1037.795489)scale(0.19 -0.19)">
       <use xlink:href="#DejaVuSans-48"/>
       <use x="63.623047" xlink:href="#DejaVuSans-46"/>
       <use x="95.410156" xlink:href="#DejaVuSans-50"/>
      </g>
     </g>
    </g>
    <g id="ytick_16">
     <g id="line2d_28">
      <g>
       <use style="stroke:#000000;stroke-width:0.8;" x="192.566667" xlink:href="#m32c03b8a45" y="974.493946"/>
      </g>
     </g>
     <g id="text_38">
      <!-- 0.4 -->
      <g transform="translate(155.350729 981.712462)scale(0.19 -0.19)">
       <use xlink:href="#DejaVuSans-48"/>
       <use x="63.623047" xlink:href="#DejaVuSans-46"/>
       <use x="95.410156" xlink:href="#DejaVuSans-52"/>
      </g>
     </g>
    </g>
    <g id="ytick_17">
     <g id="line2d_29">
      <g>
       <use style="stroke:#000000;stroke-width:0.8;" x="192.566667" xlink:href="#m32c03b8a45" y="918.410919"/>
      </g>
     </g>
     <g id="text_39">
      <!-- 0.6 -->
      <g transform="translate(155.350729 925.629435)scale(0.19 -0.19)">
       <use xlink:href="#DejaVuSans-48"/>
       <use x="63.623047" xlink:href="#DejaVuSans-46"/>
       <use x="95.410156" xlink:href="#DejaVuSans-54"/>
      </g>
     </g>
    </g>
    <g id="ytick_18">
     <g id="line2d_30">
      <g>
       <use style="stroke:#000000;stroke-width:0.8;" x="192.566667" xlink:href="#m32c03b8a45" y="862.327892"/>
      </g>
     </g>
     <g id="text_40">
      <!-- 0.8 -->
      <g transform="translate(155.350729 869.546408)scale(0.19 -0.19)">
       <use xlink:href="#DejaVuSans-48"/>
       <use x="63.623047" xlink:href="#DejaVuSans-46"/>
       <use x="95.410156" xlink:href="#DejaVuSans-56"/>
      </g>
     </g>
    </g>
    <g id="ytick_19">
     <g id="line2d_31">
      <g>
       <use style="stroke:#000000;stroke-width:0.8;" x="192.566667" xlink:href="#m32c03b8a45" y="806.244865"/>
      </g>
     </g>
     <g id="text_41">
      <!-- 1.0 -->
      <g transform="translate(155.350729 813.463381)scale(0.19 -0.19)">
       <use xlink:href="#DejaVuSans-49"/>
       <use x="63.623047" xlink:href="#DejaVuSans-46"/>
       <use x="95.410156" xlink:href="#DejaVuSans-48"/>
      </g>
     </g>
    </g>
    <g id="ytick_20">
     <g id="line2d_32">
      <g>
       <use style="stroke:#000000;stroke-width:0.8;" x="192.566667" xlink:href="#m32c03b8a45" y="750.161839"/>
      </g>
     </g>
     <g id="text_42">
      <!-- 1.2 -->
      <g transform="translate(155.350729 757.380354)scale(0.19 -0.19)">
       <use xlink:href="#DejaVuSans-49"/>
       <use x="63.623047" xlink:href="#DejaVuSans-46"/>
       <use x="95.410156" xlink:href="#DejaVuSans-50"/>
      </g>
     </g>
    </g>
   </g>
   <g id="LineCollection_11">
    <path clip-path="url(#p7d4bda9570)" d="M 225.777917 773.39494 
L 225.777917 759.849473 
" style="fill:none;stroke:#000000;stroke-width:1.5;"/>
    <path clip-path="url(#p7d4bda9570)" d="M 336.482083 769.545126 
L 336.482083 761.399883 
" style="fill:none;stroke:#000000;stroke-width:1.5;"/>
    <path clip-path="url(#p7d4bda9570)" d="M 447.18625 768.933761 
L 447.18625 761.450418 
" style="fill:none;stroke:#000000;stroke-width:1.5;"/>
    <path clip-path="url(#p7d4bda9570)" d="M 557.890417 766.690691 
L 557.890417 762.796161 
" style="fill:none;stroke:#000000;stroke-width:1.5;"/>
   </g>
   <g id="LineCollection_12">
    <path clip-path="url(#p7d4bda9570)" d="M 236.848333 829.072492 
L 236.848333 816.450142 
" style="fill:none;stroke:#000000;stroke-width:1.5;"/>
    <path clip-path="url(#p7d4bda9570)" d="M 347.5525 825.686223 
L 347.5525 808.283307 
" style="fill:none;stroke:#000000;stroke-width:1.5;"/>
    <path clip-path="url(#p7d4bda9570)" d="M 458.256667 824.433316 
L 458.256667 806.11515 
" style="fill:none;stroke:#000000;stroke-width:1.5;"/>
    <path clip-path="url(#p7d4bda9570)" d="M 568.960833 828.98383 
L 568.960833 809.304094 
" style="fill:none;stroke:#000000;stroke-width:1.5;"/>
   </g>
   <g id="LineCollection_13">
    <path clip-path="url(#p7d4bda9570)" d="M 247.91875 871.088138 
L 247.91875 775.948738 
" style="fill:none;stroke:#000000;stroke-width:1.5;"/>
    <path clip-path="url(#p7d4bda9570)" d="M 358.622917 846.842354 
L 358.622917 766.320373 
" style="fill:none;stroke:#000000;stroke-width:1.5;"/>
    <path clip-path="url(#p7d4bda9570)" d="M 469.327083 772.420696 
L 469.327083 747.251626 
" style="fill:none;stroke:#000000;stroke-width:1.5;"/>
    <path clip-path="url(#p7d4bda9570)" d="M 580.03125 751.944401 
L 580.03125 750.230016 
" style="fill:none;stroke:#000000;stroke-width:1.5;"/>
   </g>
   <g id="LineCollection_14">
    <path clip-path="url(#p7d4bda9570)" d="M 258.989167 787.379004 
L 258.989167 776.935407 
" style="fill:none;stroke:#000000;stroke-width:1.5;"/>
    <path clip-path="url(#p7d4bda9570)" d="M 369.693333 791.221583 
L 369.693333 779.430209 
" style="fill:none;stroke:#000000;stroke-width:1.5;"/>
    <path clip-path="url(#p7d4bda9570)" d="M 480.3975 788.569035 
L 480.3975 779.559021 
" style="fill:none;stroke:#000000;stroke-width:1.5;"/>
    <path clip-path="url(#p7d4bda9570)" d="M 591.101667 787.272924 
L 591.101667 781.808545 
" style="fill:none;stroke:#000000;stroke-width:1.5;"/>
   </g>
   <g id="LineCollection_15">
    <path clip-path="url(#p7d4bda9570)" d="M 270.059583 761.489953 
L 270.059583 745.002857 
" style="fill:none;stroke:#000000;stroke-width:1.5;"/>
    <path clip-path="url(#p7d4bda9570)" d="M 380.76375 756.855419 
L 380.76375 745.038583 
" style="fill:none;stroke:#000000;stroke-width:1.5;"/>
    <path clip-path="url(#p7d4bda9570)" d="M 491.467917 756.053359 
L 491.467917 749.037375 
" style="fill:none;stroke:#000000;stroke-width:1.5;"/>
    <path clip-path="url(#p7d4bda9570)" d="M 602.172083 755.240712 
L 602.172083 748.840527 
" style="fill:none;stroke:#000000;stroke-width:1.5;"/>
   </g>
   <g id="patch_79">
    <path d="M 192.566667 1086.66 
L 192.566667 727.92 
" style="fill:none;stroke:#000000;stroke-linecap:square;stroke-linejoin:miter;stroke-width:0.8;"/>
   </g>
   <g id="patch_80">
    <path d="M 635.383333 1086.66 
L 635.383333 727.92 
" style="fill:none;stroke:#000000;stroke-linecap:square;stroke-linejoin:miter;stroke-width:0.8;"/>
   </g>
   <g id="patch_81">
    <path d="M 192.566667 1086.66 
L 635.383333 1086.66 
" style="fill:none;stroke:#000000;stroke-linecap:square;stroke-linejoin:miter;stroke-width:0.8;"/>
   </g>
   <g id="patch_82">
    <path d="M 192.566667 727.92 
L 635.383333 727.92 
" style="fill:none;stroke:#000000;stroke-linecap:square;stroke-linejoin:miter;stroke-width:0.8;"/>
   </g>
   <g id="text_43">
    <!-- In-degree -->
    <g transform="translate(359.32625 721.92)scale(0.228 -0.228)">
     <defs>
      <path d="M 9.8125 72.90625 
L 19.671875 72.90625 
L 19.671875 0 
L 9.8125 0 
z
" id="DejaVuSans-73"/>
     </defs>
     <use xlink:href="#DejaVuSans-73"/>
     <use x="29.492188" xlink:href="#DejaVuSans-110"/>
     <use x="92.871094" xlink:href="#DejaVuSans-45"/>
     <use x="128.955078" xlink:href="#DejaVuSans-100"/>
     <use x="192.431641" xlink:href="#DejaVuSans-101"/>
     <use x="253.955078" xlink:href="#DejaVuSans-103"/>
     <use x="317.431641" xlink:href="#DejaVuSans-114"/>
     <use x="356.294922" xlink:href="#DejaVuSans-101"/>
     <use x="417.818359" xlink:href="#DejaVuSans-101"/>
    </g>
   </g>
  </g>
  <g id="axes_4">
   <g id="patch_83">
    <path d="M 878.366667 1086.66 
L 1321.183333 1086.66 
L 1321.183333 727.92 
L 878.366667 727.92 
z
" style="fill:#ffffff;"/>
   </g>
   <g id="patch_84">
    <path clip-path="url(#pfc561af88b)" d="M 906.042708 1086.66 
L 917.113125 1086.66 
L 917.113125 810.443385 
L 906.042708 810.443385 
z
" style="fill:#1b9e77;"/>
   </g>
   <g id="patch_85">
    <path clip-path="url(#pfc561af88b)" d="M 1016.746875 1086.66 
L 1027.817292 1086.66 
L 1027.817292 811.420763 
L 1016.746875 811.420763 
z
" style="fill:#1b9e77;"/>
   </g>
   <g id="patch_86">
    <path clip-path="url(#pfc561af88b)" d="M 1127.451042 1086.66 
L 1138.521458 1086.66 
L 1138.521458 811.659148 
L 1127.451042 811.659148 
z
" style="fill:#1b9e77;"/>
   </g>
   <g id="patch_87">
    <path clip-path="url(#pfc561af88b)" d="M 1238.155208 1086.66 
L 1249.225625 1086.66 
L 1249.225625 812.040564 
L 1238.155208 812.040564 
z
" style="fill:#1b9e77;"/>
   </g>
   <g id="patch_88">
    <path clip-path="url(#pfc561af88b)" d="M 917.113125 1086.66 
L 928.183542 1086.66 
L 928.183542 761.33609 
L 917.113125 761.33609 
z
" style="fill:#7570b3;"/>
   </g>
   <g id="patch_89">
    <path clip-path="url(#pfc561af88b)" d="M 1027.817292 1086.66 
L 1038.887708 1086.66 
L 1038.887708 757.426578 
L 1027.817292 757.426578 
z
" style="fill:#7570b3;"/>
   </g>
   <g id="patch_90">
    <path clip-path="url(#pfc561af88b)" d="M 1138.521458 1086.66 
L 1149.591875 1086.66 
L 1149.591875 758.880726 
L 1138.521458 758.880726 
z
" style="fill:#7570b3;"/>
   </g>
   <g id="patch_91">
    <path clip-path="url(#pfc561af88b)" d="M 1249.225625 1086.66 
L 1260.296042 1086.66 
L 1260.296042 761.431444 
L 1249.225625 761.431444 
z
" style="fill:#7570b3;"/>
   </g>
   <g id="patch_92">
    <path clip-path="url(#pfc561af88b)" d="M 928.183542 1086.66 
L 939.253958 1086.66 
L 939.253958 856.785415 
L 928.183542 856.785415 
z
" style="fill:#66a61e;"/>
   </g>
   <g id="patch_93">
    <path clip-path="url(#pfc561af88b)" d="M 1038.887708 1086.66 
L 1049.958125 1086.66 
L 1049.958125 840.217663 
L 1038.887708 840.217663 
z
" style="fill:#66a61e;"/>
   </g>
   <g id="patch_94">
    <path clip-path="url(#pfc561af88b)" d="M 1149.591875 1086.66 
L 1160.662292 1086.66 
L 1160.662292 804.793663 
L 1149.591875 804.793663 
z
" style="fill:#66a61e;"/>
   </g>
   <g id="patch_95">
    <path clip-path="url(#pfc561af88b)" d="M 1260.296042 1086.66 
L 1271.366458 1086.66 
L 1271.366458 785.317614 
L 1260.296042 785.317614 
z
" style="fill:#66a61e;"/>
   </g>
   <g id="patch_96">
    <path clip-path="url(#pfc561af88b)" d="M 939.253958 1086.66 
L 950.324375 1086.66 
L 950.324375 791.038852 
L 939.253958 791.038852 
z
" style="fill:#a6761d;"/>
   </g>
   <g id="patch_97">
    <path clip-path="url(#pfc561af88b)" d="M 1049.958125 1086.66 
L 1061.028542 1086.66 
L 1061.028542 788.178233 
L 1049.958125 788.178233 
z
" style="fill:#a6761d;"/>
   </g>
   <g id="patch_98">
    <path clip-path="url(#pfc561af88b)" d="M 1160.662292 1086.66 
L 1171.732708 1086.66 
L 1171.732708 789.17945 
L 1160.662292 789.17945 
z
" style="fill:#a6761d;"/>
   </g>
   <g id="patch_99">
    <path clip-path="url(#pfc561af88b)" d="M 1271.366458 1086.66 
L 1282.436875 1086.66 
L 1282.436875 788.631164 
L 1271.366458 788.631164 
z
" style="fill:#a6761d;"/>
   </g>
   <g id="patch_100">
    <path clip-path="url(#pfc561af88b)" d="M 950.324375 1086.66 
L 961.394792 1086.66 
L 961.394792 803.840123 
L 950.324375 803.840123 
z
" style="fill:#666666;"/>
   </g>
   <g id="patch_101">
    <path clip-path="url(#pfc561af88b)" d="M 1061.028542 1086.66 
L 1072.098958 1086.66 
L 1072.098958 805.389625 
L 1061.028542 805.389625 
z
" style="fill:#666666;"/>
   </g>
   <g id="patch_102">
    <path clip-path="url(#pfc561af88b)" d="M 1171.732708 1086.66 
L 1182.803125 1086.66 
L 1182.803125 803.983154 
L 1171.732708 803.983154 
z
" style="fill:#666666;"/>
   </g>
   <g id="patch_103">
    <path clip-path="url(#pfc561af88b)" d="M 1282.436875 1086.66 
L 1293.507292 1086.66 
L 1293.507292 804.269216 
L 1282.436875 804.269216 
z
" style="fill:#666666;"/>
   </g>
   <g id="matplotlib.axis_7">
    <g id="xtick_13">
     <g id="line2d_33">
      <g>
       <use style="stroke:#000000;stroke-width:0.8;" x="933.71875" xlink:href="#md179f3fd6d" y="1086.66"/>
      </g>
     </g>
     <g id="text_44">
      <!-- 500 -->
      <g transform="translate(938.961563 1129.92625)rotate(-90)scale(0.19 -0.19)">
       <use xlink:href="#DejaVuSans-53"/>
       <use x="63.623047" xlink:href="#DejaVuSans-48"/>
       <use x="127.246094" xlink:href="#DejaVuSans-48"/>
      </g>
     </g>
    </g>
    <g id="xtick_14">
     <g id="line2d_34">
      <g>
       <use style="stroke:#000000;stroke-width:0.8;" x="1044.422917" xlink:href="#md179f3fd6d" y="1086.66"/>
      </g>
     </g>
     <g id="text_45">
      <!-- 750 -->
      <g transform="translate(1049.665729 1129.92625)rotate(-90)scale(0.19 -0.19)">
       <use xlink:href="#DejaVuSans-55"/>
       <use x="63.623047" xlink:href="#DejaVuSans-53"/>
       <use x="127.246094" xlink:href="#DejaVuSans-48"/>
      </g>
     </g>
    </g>
    <g id="xtick_15">
     <g id="line2d_35">
      <g>
       <use style="stroke:#000000;stroke-width:0.8;" x="1155.127083" xlink:href="#md179f3fd6d" y="1086.66"/>
      </g>
     </g>
     <g id="text_46">
      <!-- 1000 -->
      <g transform="translate(1160.369896 1142.015)rotate(-90)scale(0.19 -0.19)">
       <use xlink:href="#DejaVuSans-49"/>
       <use x="63.623047" xlink:href="#DejaVuSans-48"/>
       <use x="127.246094" xlink:href="#DejaVuSans-48"/>
       <use x="190.869141" xlink:href="#DejaVuSans-48"/>
      </g>
     </g>
    </g>
    <g id="xtick_16">
     <g id="line2d_36">
      <g>
       <use style="stroke:#000000;stroke-width:0.8;" x="1265.83125" xlink:href="#md179f3fd6d" y="1086.66"/>
      </g>
     </g>
     <g id="text_47">
      <!-- 1500 -->
      <g transform="translate(1271.074063 1142.015)rotate(-90)scale(0.19 -0.19)">
       <use xlink:href="#DejaVuSans-49"/>
       <use x="63.623047" xlink:href="#DejaVuSans-53"/>
       <use x="127.246094" xlink:href="#DejaVuSans-48"/>
       <use x="190.869141" xlink:href="#DejaVuSans-48"/>
      </g>
     </g>
    </g>
    <g id="text_48">
     <!-- size -->
     <g transform="translate(1081.355391 1160.452031)scale(0.19 -0.19)">
      <use xlink:href="#DejaVuSans-115"/>
      <use x="52.099609" xlink:href="#DejaVuSans-105"/>
      <use x="79.882812" xlink:href="#DejaVuSans-122"/>
      <use x="132.373047" xlink:href="#DejaVuSans-101"/>
     </g>
    </g>
   </g>
   <g id="matplotlib.axis_8">
    <g id="ytick_21">
     <g id="line2d_37">
      <g>
       <use style="stroke:#000000;stroke-width:0.8;" x="878.366667" xlink:href="#m32c03b8a45" y="1086.66"/>
      </g>
     </g>
     <g id="text_49">
      <!-- 0.0 -->
      <g transform="translate(841.150729 1093.878516)scale(0.19 -0.19)">
       <use xlink:href="#DejaVuSans-48"/>
       <use x="63.623047" xlink:href="#DejaVuSans-46"/>
       <use x="95.410156" xlink:href="#DejaVuSans-48"/>
      </g>
     </g>
    </g>
    <g id="ytick_22">
     <g id="line2d_38">
      <g>
       <use style="stroke:#000000;stroke-width:0.8;" x="878.366667" xlink:href="#m32c03b8a45" y="1038.983015"/>
      </g>
     </g>
     <g id="text_50">
      <!-- 0.2 -->
      <g transform="translate(841.150729 1046.20153)scale(0.19 -0.19)">
       <use xlink:href="#DejaVuSans-48"/>
       <use x="63.623047" xlink:href="#DejaVuSans-46"/>
       <use x="95.410156" xlink:href="#DejaVuSans-50"/>
      </g>
     </g>
    </g>
    <g id="ytick_23">
     <g id="line2d_39">
      <g>
       <use style="stroke:#000000;stroke-width:0.8;" x="878.366667" xlink:href="#m32c03b8a45" y="991.306029"/>
      </g>
     </g>
     <g id="text_51">
      <!-- 0.4 -->
      <g transform="translate(841.150729 998.524545)scale(0.19 -0.19)">
       <use xlink:href="#DejaVuSans-48"/>
       <use x="63.623047" xlink:href="#DejaVuSans-46"/>
       <use x="95.410156" xlink:href="#DejaVuSans-52"/>
      </g>
     </g>
    </g>
    <g id="ytick_24">
     <g id="line2d_40">
      <g>
       <use style="stroke:#000000;stroke-width:0.8;" x="878.366667" xlink:href="#m32c03b8a45" y="943.629044"/>
      </g>
     </g>
     <g id="text_52">
      <!-- 0.6 -->
      <g transform="translate(841.150729 950.84756)scale(0.19 -0.19)">
       <use xlink:href="#DejaVuSans-48"/>
       <use x="63.623047" xlink:href="#DejaVuSans-46"/>
       <use x="95.410156" xlink:href="#DejaVuSans-54"/>
      </g>
     </g>
    </g>
    <g id="ytick_25">
     <g id="line2d_41">
      <g>
       <use style="stroke:#000000;stroke-width:0.8;" x="878.366667" xlink:href="#m32c03b8a45" y="895.952059"/>
      </g>
     </g>
     <g id="text_53">
      <!-- 0.8 -->
      <g transform="translate(841.150729 903.170574)scale(0.19 -0.19)">
       <use xlink:href="#DejaVuSans-48"/>
       <use x="63.623047" xlink:href="#DejaVuSans-46"/>
       <use x="95.410156" xlink:href="#DejaVuSans-56"/>
      </g>
     </g>
    </g>
    <g id="ytick_26">
     <g id="line2d_42">
      <g>
       <use style="stroke:#000000;stroke-width:0.8;" x="878.366667" xlink:href="#m32c03b8a45" y="848.275073"/>
      </g>
     </g>
     <g id="text_54">
      <!-- 1.0 -->
      <g transform="translate(841.150729 855.493589)scale(0.19 -0.19)">
       <use xlink:href="#DejaVuSans-49"/>
       <use x="63.623047" xlink:href="#DejaVuSans-46"/>
       <use x="95.410156" xlink:href="#DejaVuSans-48"/>
      </g>
     </g>
    </g>
    <g id="ytick_27">
     <g id="line2d_43">
      <g>
       <use style="stroke:#000000;stroke-width:0.8;" x="878.366667" xlink:href="#m32c03b8a45" y="800.598088"/>
      </g>
     </g>
     <g id="text_55">
      <!-- 1.2 -->
      <g transform="translate(841.150729 807.816603)scale(0.19 -0.19)">
       <use xlink:href="#DejaVuSans-49"/>
       <use x="63.623047" xlink:href="#DejaVuSans-46"/>
       <use x="95.410156" xlink:href="#DejaVuSans-50"/>
      </g>
     </g>
    </g>
    <g id="ytick_28">
     <g id="line2d_44">
      <g>
       <use style="stroke:#000000;stroke-width:0.8;" x="878.366667" xlink:href="#m32c03b8a45" y="752.921102"/>
      </g>
     </g>
     <g id="text_56">
      <!-- 1.4 -->
      <g transform="translate(841.150729 760.139618)scale(0.19 -0.19)">
       <use xlink:href="#DejaVuSans-49"/>
       <use x="63.623047" xlink:href="#DejaVuSans-46"/>
       <use x="95.410156" xlink:href="#DejaVuSans-52"/>
      </g>
     </g>
    </g>
   </g>
   <g id="LineCollection_16">
    <path clip-path="url(#pfc561af88b)" d="M 911.577917 816.200983 
L 911.577917 804.685787 
" style="fill:none;stroke:#000000;stroke-width:1.5;"/>
    <path clip-path="url(#pfc561af88b)" d="M 1022.282083 814.882957 
L 1022.282083 807.958569 
" style="fill:none;stroke:#000000;stroke-width:1.5;"/>
    <path clip-path="url(#pfc561af88b)" d="M 1132.98625 814.839997 
L 1132.98625 808.4783 
" style="fill:none;stroke:#000000;stroke-width:1.5;"/>
    <path clip-path="url(#pfc561af88b)" d="M 1243.690417 813.695962 
L 1243.690417 810.385166 
" style="fill:none;stroke:#000000;stroke-width:1.5;"/>
   </g>
   <g id="LineCollection_17">
    <path clip-path="url(#pfc561af88b)" d="M 922.648333 773.602585 
L 922.648333 749.069596 
" style="fill:none;stroke:#000000;stroke-width:1.5;"/>
    <path clip-path="url(#pfc561af88b)" d="M 1033.3525 769.850298 
L 1033.3525 745.002857 
" style="fill:none;stroke:#000000;stroke-width:1.5;"/>
    <path clip-path="url(#pfc561af88b)" d="M 1144.056667 768.210619 
L 1144.056667 749.550832 
" style="fill:none;stroke:#000000;stroke-width:1.5;"/>
    <path clip-path="url(#pfc561af88b)" d="M 1254.760833 771.242335 
L 1254.760833 751.620554 
" style="fill:none;stroke:#000000;stroke-width:1.5;"/>
   </g>
   <g id="LineCollection_18">
    <path clip-path="url(#pfc561af88b)" d="M 933.71875 900.843589 
L 933.71875 812.727241 
" style="fill:none;stroke:#000000;stroke-width:1.5;"/>
    <path clip-path="url(#pfc561af88b)" d="M 1044.422917 868.275342 
L 1044.422917 812.159983 
" style="fill:none;stroke:#000000;stroke-width:1.5;"/>
    <path clip-path="url(#pfc561af88b)" d="M 1155.127083 814.238039 
L 1155.127083 795.349286 
" style="fill:none;stroke:#000000;stroke-width:1.5;"/>
    <path clip-path="url(#pfc561af88b)" d="M 1265.83125 786.049783 
L 1265.83125 784.585445 
" style="fill:none;stroke:#000000;stroke-width:1.5;"/>
   </g>
   <g id="LineCollection_19">
    <path clip-path="url(#pfc561af88b)" d="M 944.789167 795.477978 
L 944.789167 786.599726 
" style="fill:none;stroke:#000000;stroke-width:1.5;"/>
    <path clip-path="url(#pfc561af88b)" d="M 1055.493333 793.190556 
L 1055.493333 783.16591 
" style="fill:none;stroke:#000000;stroke-width:1.5;"/>
    <path clip-path="url(#pfc561af88b)" d="M 1166.1975 793.009221 
L 1166.1975 785.349679 
" style="fill:none;stroke:#000000;stroke-width:1.5;"/>
    <path clip-path="url(#pfc561af88b)" d="M 1276.901667 790.906045 
L 1276.901667 786.356284 
" style="fill:none;stroke:#000000;stroke-width:1.5;"/>
   </g>
   <g id="LineCollection_20">
    <path clip-path="url(#pfc561af88b)" d="M 955.859583 810.768522 
L 955.859583 796.911724 
" style="fill:none;stroke:#000000;stroke-width:1.5;"/>
    <path clip-path="url(#pfc561af88b)" d="M 1066.56375 810.258815 
L 1066.56375 800.520435 
" style="fill:none;stroke:#000000;stroke-width:1.5;"/>
    <path clip-path="url(#pfc561af88b)" d="M 1177.267917 806.852148 
L 1177.267917 801.114159 
" style="fill:none;stroke:#000000;stroke-width:1.5;"/>
    <path clip-path="url(#pfc561af88b)" d="M 1287.972083 806.917089 
L 1287.972083 801.621342 
" style="fill:none;stroke:#000000;stroke-width:1.5;"/>
   </g>
   <g id="patch_104">
    <path d="M 878.366667 1086.66 
L 878.366667 727.92 
" style="fill:none;stroke:#000000;stroke-linecap:square;stroke-linejoin:miter;stroke-width:0.8;"/>
   </g>
   <g id="patch_105">
    <path d="M 1321.183333 1086.66 
L 1321.183333 727.92 
" style="fill:none;stroke:#000000;stroke-linecap:square;stroke-linejoin:miter;stroke-width:0.8;"/>
   </g>
   <g id="patch_106">
    <path d="M 878.366667 1086.66 
L 1321.183333 1086.66 
" style="fill:none;stroke:#000000;stroke-linecap:square;stroke-linejoin:miter;stroke-width:0.8;"/>
   </g>
   <g id="patch_107">
    <path d="M 878.366667 727.92 
L 1321.183333 727.92 
" style="fill:none;stroke:#000000;stroke-linecap:square;stroke-linejoin:miter;stroke-width:0.8;"/>
   </g>
   <g id="text_57">
    <!-- Out-degree -->
    <g transform="translate(1035.046156 721.92)scale(0.228 -0.228)">
     <defs>
      <path d="M 39.40625 66.21875 
Q 28.65625 66.21875 22.328125 58.203125 
Q 16.015625 50.203125 16.015625 36.375 
Q 16.015625 22.609375 22.328125 14.59375 
Q 28.65625 6.59375 39.40625 6.59375 
Q 50.140625 6.59375 56.421875 14.59375 
Q 62.703125 22.609375 62.703125 36.375 
Q 62.703125 50.203125 56.421875 58.203125 
Q 50.140625 66.21875 39.40625 66.21875 
z
M 39.40625 74.21875 
Q 54.734375 74.21875 63.90625 63.9375 
Q 73.09375 53.65625 73.09375 36.375 
Q 73.09375 19.140625 63.90625 8.859375 
Q 54.734375 -1.421875 39.40625 -1.421875 
Q 24.03125 -1.421875 14.8125 8.828125 
Q 5.609375 19.09375 5.609375 36.375 
Q 5.609375 53.65625 14.8125 63.9375 
Q 24.03125 74.21875 39.40625 74.21875 
z
" id="DejaVuSans-79"/>
     </defs>
     <use xlink:href="#DejaVuSans-79"/>
     <use x="78.710938" xlink:href="#DejaVuSans-117"/>
     <use x="142.089844" xlink:href="#DejaVuSans-116"/>
     <use x="181.298828" xlink:href="#DejaVuSans-45"/>
     <use x="217.382812" xlink:href="#DejaVuSans-100"/>
     <use x="280.859375" xlink:href="#DejaVuSans-101"/>
     <use x="342.382812" xlink:href="#DejaVuSans-103"/>
     <use x="405.859375" xlink:href="#DejaVuSans-114"/>
     <use x="444.722656" xlink:href="#DejaVuSans-101"/>
     <use x="506.246094" xlink:href="#DejaVuSans-101"/>
    </g>
   </g>
  </g>
 </g>
 <defs>
  <clipPath id="p688699cbdb">
   <rect height="358.74" width="442.816667" x="192.566667" y="126.09"/>
  </clipPath>
  <clipPath id="pa1622642eb">
   <rect height="358.74" width="442.816667" x="878.366667" y="126.09"/>
  </clipPath>
  <clipPath id="p7d4bda9570">
   <rect height="358.74" width="442.816667" x="192.566667" y="727.92"/>
  </clipPath>
  <clipPath id="pfc561af88b">
   <rect height="358.74" width="442.816667" x="878.366667" y="727.92"/>
  </clipPath>
 </defs>
</svg>
