<svg version="1.1" viewBox="0.0 0.0 4032.0 3456.0" fill="none" stroke="none" stroke-linecap="square" stroke-miterlimit="10" xmlns:xlink="http://www.w3.org/1999/xlink" xmlns="http://www.w3.org/2000/svg"><clipPath id="gf84ff55190_0_72.0"><path d="m0 0l4032.0 0l0 3456.0l-4032.0 0l0 -3456.0z" clip-rule="nonzero"/></clipPath><g clip-path="url(#gf84ff55190_0_72.0)"><path fill="#ffffff" d="m0 0l4032.0 0l0 3456.0l-4032.0 0z" fill-rule="evenodd"/><path fill="#fce5cd" d="m2040.3019 1714.9203l0 0c0 13.959351 12.557251 25.275635 28.047241 25.275635l0 0c15.48999 0 28.04712 -11.316284 28.04712 -25.275635l0 0c0 -13.959351 -12.557129 -25.275635 -28.04712 -25.275635l0 0c-15.48999 0 -28.047241 11.316284 -28.047241 25.275635z" fill-rule="evenodd"/><path stroke="#6aa84f" stroke-width="8.0" stroke-linejoin="round" stroke-linecap="butt" d="m2040.3019 1714.9203l0 0c0 13.959351 12.557251 25.275635 28.047241 25.275635l0 0c15.48999 0 28.04712 -11.316284 28.04712 -25.275635l0 0c0 -13.959351 -12.557129 -25.275635 -28.04712 -25.275635l0 0c-15.48999 0 -28.047241 11.316284 -28.047241 25.275635z" fill-rule="evenodd"/><path fill="#000000" fill-opacity="0.0" d="m2048.5166 1697.0477l-195.307 -99.84253" fill-rule="evenodd"/><path stroke="#666666" stroke-width="4.0" stroke-linejoin="round" stroke-linecap="butt" d="m2048.5168 1697.0477l-173.93762 -88.91809" fill-rule="evenodd"/><path fill="#666666" stroke="#666666" stroke-width="4.0" stroke-linecap="butt" d="m1877.5865 1602.2467l-19.170166 -2.3797607l13.155518 14.145386z" fill-rule="evenodd"/><path fill="#d9ead3" d="m1795.4042 1864.6447l0 0c0 13.959351 12.557251 25.275635 28.047241 25.275635l0 0c15.490112 0 28.047241 -11.316284 28.047241 -25.275635l0 0c0 -13.9592285 -12.557129 -25.275513 -28.047241 -25.275513l0 0c-15.48999 0 -28.047241 11.316284 -28.047241 25.275513z" fill-rule="evenodd"/><path stroke="#666666" stroke-width="8.0" stroke-linejoin="round" stroke-linecap="butt" d="m1795.4042 1864.6447l0 0c0 13.959351 12.557251 25.275635 28.047241 25.275635l0 0c15.490112 0 28.047241 -11.316284 28.047241 -25.275635l0 0c0 -13.9592285 -12.557129 -25.275513 -28.047241 -25.275513l0 0c-15.48999 0 -28.047241 11.316284 -28.047241 25.275513z" fill-rule="evenodd"/><path fill="#c9daf8" d="m1797.1129 1597.1959l0 0c0 13.9592285 12.557129 25.275513 28.047241 25.275513l0 0c15.48999 0 28.047241 -11.316284 28.047241 -25.275513l0 0c0 -13.959351 -12.557251 -25.275635 -28.047241 -25.275635l0 0c-15.490112 0 -28.047241 11.316284 -28.047241 25.275635z" fill-rule="evenodd"/><path stroke="#666666" stroke-width="8.0" stroke-linejoin="round" stroke-linecap="butt" d="m1797.1129 1597.1959l0 0c0 13.9592285 12.557129 25.275513 28.047241 25.275513l0 0c15.48999 0 28.047241 -11.316284 28.047241 -25.275513l0 0c0 -13.959351 -12.557251 -25.275635 -28.047241 -25.275635l0 0c-15.490112 0 -28.047241 11.316284 -28.047241 25.275635z" fill-rule="evenodd"/><path fill="#000000" fill-opacity="0.0" d="m1843.2838 1846.7721l205.2284 -113.98425" fill-rule="evenodd"/><path stroke="#666666" stroke-width="4.0" stroke-linejoin="round" stroke-linecap="butt" d="m1864.2649 1835.1191l184.24731 -102.3313" fill-rule="evenodd"/><path fill="#666666" stroke="#666666" stroke-width="4.0" stroke-linecap="butt" d="m1861.057 1829.3433l-12.661133 14.5896l19.077026 -3.0378418z" fill-rule="evenodd"/><path fill="#000000" fill-opacity="0.0" d="m1823.4514 1839.3691l1.7008057 -216.88196" fill-rule="evenodd"/><path stroke="#666666" stroke-width="4.0" stroke-linejoin="round" stroke-linecap="butt" d="m1823.4514 1839.3691l1.5126953 -192.88281" fill-rule="evenodd"/><path fill="#666666" stroke="#666666" stroke-width="4.0" stroke-linecap="butt" d="m1831.5708 1646.5383l-6.4644775 -18.203735l-6.7490234 18.100098z" fill-rule="evenodd"/><path fill="#000000" fill-opacity="0.0" d="m2088.1814 1697.0477l202.74023 -102.77161" fill-rule="evenodd"/><path stroke="#666666" stroke-width="4.0" stroke-linejoin="round" stroke-linecap="butt" d="m2088.1814 1697.0477l181.3335 -91.92029" fill-rule="evenodd"/><path fill="#666666" stroke="#666666" stroke-width="4.0" stroke-linecap="butt" d="m2272.5022 1611.0205l13.203613 -14.100464l-19.178223 2.314331z" fill-rule="evenodd"/><path fill="#fce5cd" d="m2348.7244 1861.7366l0 0c0 13.959351 -12.557129 25.275513 -28.04712 25.275513l0 0c-15.490234 0 -28.047363 -11.316162 -28.047363 -25.275513l0 0c0 -13.959351 12.557129 -25.275635 28.047363 -25.275635l0 0c15.48999 0 28.04712 11.316284 28.04712 25.275635z" fill-rule="evenodd"/><path stroke="#666666" stroke-width="8.0" stroke-linejoin="round" stroke-linecap="butt" d="m2348.7244 1861.7366l0 0c0 13.959351 -12.557129 25.275513 -28.04712 25.275513l0 0c-15.490234 0 -28.047363 -11.316162 -28.047363 -25.275513l0 0c0 -13.959351 12.557129 -25.275635 28.047363 -25.275635l0 0c15.48999 0 28.04712 11.316284 28.04712 25.275635z" fill-rule="evenodd"/><path fill="#c9daf8" d="m2347.0159 1594.2877l0 0c0 13.959351 -12.557373 25.275635 -28.047363 25.275635l0 0c-15.48999 0 -28.047363 -11.316284 -28.047363 -25.275635l0 0c0 -13.959351 12.557373 -25.275635 28.047363 -25.275635l0 0c15.48999 0 28.047363 11.316284 28.047363 25.275635z" fill-rule="evenodd"/><path stroke="#666666" stroke-width="8.0" stroke-linejoin="round" stroke-linecap="butt" d="m2347.0159 1594.2877l0 0c0 13.959351 -12.557373 25.275635 -28.047363 25.275635l0 0c-15.48999 0 -28.047363 -11.316284 -28.047363 -25.275635l0 0c0 -13.959351 12.557373 -25.275635 28.047363 -25.275635l0 0c15.48999 0 28.047363 11.316284 28.047363 25.275635z" fill-rule="evenodd"/><path fill="#000000" fill-opacity="0.0" d="m2300.8447 1843.864l-205.22827 -113.98425" fill-rule="evenodd"/><path stroke="#666666" stroke-width="4.0" stroke-linejoin="round" stroke-linecap="butt" d="m2300.8447 1843.864l-184.24707 -102.33118" fill-rule="evenodd"/><path fill="#666666" stroke="#666666" stroke-width="4.0" stroke-linecap="butt" d="m2119.8054 1735.7568l-19.076904 -3.0378418l12.661133 14.5896z" fill-rule="evenodd"/><path fill="#000000" fill-opacity="0.0" d="m2320.6772 1836.4609l-1.7009277 -216.88184" fill-rule="evenodd"/><path stroke="#666666" stroke-width="4.0" stroke-linejoin="round" stroke-linecap="butt" d="m2320.6772 1836.4609l-1.5126953 -192.88269" fill-rule="evenodd"/><path fill="#666666" stroke="#666666" stroke-width="4.0" stroke-linecap="butt" d="m2325.7712 1643.5265l-6.7490234 -18.099976l-6.4643555 18.203613z" fill-rule="evenodd"/><path fill="#000000" fill-opacity="0.0" d="m2036.1129 1685.8346l64.47229 0l0 50.33081l-64.47229 0z" fill-rule="evenodd"/><path fill="#000000" d="m2069.4897 1720.3638q-2.671875 2.359375 -4.796875 2.359375q-1.25 0 -2.078125 -0.8125q-0.828125 -0.828125 -0.828125 -2.0625q0 -1.671875 1.4375 -3.0q1.4375 -1.34375 6.265625 -3.5625l0 -1.46875q0 -1.65625 -0.1875 -2.078125q-0.171875 -0.4375 -0.671875 -0.75q-0.5 -0.328125 -1.125 -0.328125q-1.015625 0 -1.671875 0.453125q-0.40625 0.28125 -0.40625 0.65625q0 0.328125 0.4375 0.8125q0.59375 0.671875 0.59375 1.296875q0 0.765625 -0.578125 1.3125q-0.5625 0.53125 -1.484375 0.53125q-0.984375 0 -1.65625 -0.59375q-0.65625 -0.59375 -0.65625 -1.390625q0 -1.125 0.890625 -2.140625q0.890625 -1.03125 2.484375 -1.578125q1.59375 -0.546875 3.3125 -0.546875q2.078125 0 3.28125 0.890625q1.21875 0.875 1.578125 1.90625q0.21875 0.65625 0.21875 3.015625l0 5.671875q0 1.0 0.078125 1.265625q0.078125 0.25 0.234375 0.375q0.15625 0.125 0.359375 0.125q0.40625 0 0.828125 -0.578125l0.46875 0.375q-0.78125 1.15625 -1.625 1.6875q-0.828125 0.515625 -1.890625 0.515625q-1.25 0 -1.953125 -0.578125q-0.703125 -0.59375 -0.859375 -1.78125zm0 -1.140625l0 -4.890625q-1.890625 1.109375 -2.8125 2.375q-0.609375 0.84375 -0.609375 1.703125q0 0.71875 0.515625 1.265625q0.390625 0.421875 1.09375 0.421875q0.78125 0 1.8125 -0.875z" fill-rule="nonzero"/><path fill="#000000" fill-opacity="0.0" d="m1791.4436 1835.5591l64.47241 0l0 55.118042l-64.47241 0z" fill-rule="evenodd"/><path fill="#000000" d="m1821.5157 1853.4506l0 8.046875q1.84375 -1.90625 4.03125 -1.90625q1.5 0 2.828125 0.890625q1.328125 0.875 2.078125 2.5q0.75 1.625 0.75 3.75q0 2.390625 -0.953125 4.34375q-0.953125 1.953125 -2.546875 2.984375q-1.59375 1.015625 -3.640625 1.015625q-1.1875 0 -2.109375 -0.375q-0.921875 -0.375 -1.8125 -1.21875l-2.421875 1.578125l-0.53125 0l0 -18.578125q0 -1.265625 -0.109375 -1.5625q-0.15625 -0.4375 -0.5 -0.640625q-0.328125 -0.21875 -1.125 -0.25l0 -0.578125l6.0625 0zm0 9.4375l0 6.5q0 1.984375 0.09375 2.53125q0.15625 0.921875 0.75 1.5q0.59375 0.5625 1.515625 0.5625q0.796875 0 1.359375 -0.453125q0.578125 -0.453125 0.953125 -1.796875q0.390625 -1.34375 0.390625 -4.84375q0 -3.359375 -0.84375 -4.609375q-0.609375 -0.90625 -1.640625 -0.90625q-1.34375 0 -2.578125 1.515625z" fill-rule="nonzero"/><path fill="#000000" fill-opacity="0.0" d="m1792.9238 1565.2021l64.472534 0l0 53.196777l-64.472534 0z" fill-rule="evenodd"/><path fill="#000000" d="m1831.0586 1599.5549l0.484375 0.375q-1.03125 1.9375 -2.578125 2.890625q-1.53125 0.9375 -3.265625 0.9375q-2.921875 0 -4.671875 -2.203125q-1.75 -2.203125 -1.75 -5.296875q0 -2.984375 1.59375 -5.25q1.921875 -2.734375 5.296875 -2.734375q2.265625 0 3.59375 1.140625q1.34375 1.140625 1.34375 2.546875q0 0.890625 -0.546875 1.421875q-0.53125 0.53125 -1.40625 0.53125q-0.921875 0 -1.53125 -0.609375q-0.59375 -0.609375 -0.734375 -2.171875q-0.09375 -0.984375 -0.453125 -1.375q-0.359375 -0.390625 -0.84375 -0.390625q-0.75 0 -1.28125 0.796875q-0.8125 1.203125 -0.8125 3.6875q0 2.0625 0.65625 3.953125q0.65625 1.875 1.796875 2.796875q0.859375 0.671875 2.03125 0.671875q0.765625 0 1.453125 -0.359375q0.6875 -0.359375 1.625 -1.359375z" fill-rule="nonzero"/><path fill="#000000" fill-opacity="0.0" d="m2287.5906 1831.895l64.47241 0l0 55.118164l-64.47241 0z" fill-rule="evenodd"/><path fill="#000000" d="m2326.2095 1849.7866l0 16.8125q0 1.703125 0.09375 2.015625q0.125 0.515625 0.46875 0.765625q0.359375 0.25 1.234375 0.3125l0 0.515625l-6.171875 1.203125l0 -2.3125q-1.109375 1.34375 -1.984375 1.828125q-0.859375 0.484375 -1.953125 0.484375q-2.796875 0 -4.421875 -2.5q-1.3125 -2.03125 -1.3125 -4.984375q0 -2.359375 0.8125 -4.21875q0.8125 -1.875 2.21875 -2.828125q1.421875 -0.953125 3.046875 -0.953125q1.046875 0 1.859375 0.40625q0.8125 0.40625 1.734375 1.421875l0 -4.40625q0 -1.671875 -0.140625 -2.015625q-0.1875 -0.453125 -0.5625 -0.671875q-0.375 -0.21875 -1.40625 -0.21875l0 -0.65625l6.484375 0zm-4.375 9.90625q-1.15625 -2.21875 -2.828125 -2.21875q-0.578125 0 -0.953125 0.3125q-0.578125 0.484375 -0.953125 1.703125q-0.359375 1.21875 -0.359375 3.734375q0 2.765625 0.40625 4.09375q0.40625 1.328125 1.109375 1.921875q0.359375 0.296875 0.984375 0.296875q1.375 0 2.59375 -2.15625l0 -7.6875z" fill-rule="nonzero"/><path fill="#000000" fill-opacity="0.0" d="m2287.5906 1565.2021l64.47241 0l0 50.33069l-64.47241 0z" fill-rule="evenodd"/><path fill="#000000" d="m2326.1782 1594.0593l-8.015625 0q0.140625 2.90625 1.546875 4.59375q1.078125 1.296875 2.59375 1.296875q0.9375 0 1.703125 -0.515625q0.765625 -0.53125 1.640625 -1.890625l0.53125 0.34375q-1.1875 2.421875 -2.625 3.4375q-1.4375 1.0 -3.328125 1.0q-3.25 0 -4.921875 -2.5q-1.34375 -2.015625 -1.34375 -5.0q0 -3.65625 1.96875 -5.8125q1.984375 -2.171875 4.640625 -2.171875q2.21875 0 3.84375 1.828125q1.640625 1.8125 1.765625 5.390625zm-3.84375 -1.046875q0 -2.515625 -0.28125 -3.453125q-0.265625 -0.9375 -0.84375 -1.421875q-0.328125 -0.28125 -0.875 -0.28125q-0.8125 0 -1.328125 0.796875q-0.921875 1.390625 -0.921875 3.8125l0 0.546875l4.25 0z" fill-rule="nonzero"/><path fill="#000000" fill-opacity="0.0" d="m2015.9384 1749.0052l112.25183 0l0 54.929077l-112.25183 0z" fill-rule="evenodd"/><path fill="#e69138" d="m2040.3584 1777.3215l0 5.4375q0 1.578125 0.1875 1.984375q0.1875 0.40625 0.671875 0.65625q0.5 0.234375 1.828125 0.234375l0 0.53125l-9.9375 0l0 -0.53125q1.34375 0 1.8125 -0.25q0.484375 -0.25 0.671875 -0.640625q0.203125 -0.40625 0.203125 -1.984375l0 -12.609375q0 -1.5625 -0.203125 -1.96875q-0.1875 -0.421875 -0.671875 -0.65625q-0.484375 -0.25 -1.8125 -0.25l0 -0.53125l9.015625 0q3.53125 0 5.15625 0.5q1.640625 0.484375 2.671875 1.796875q1.03125 1.296875 1.03125 3.0625q0 2.140625 -1.546875 3.546875q-1.0 0.890625 -2.765625 1.34375l4.671875 6.5625q0.90625 1.28125 1.296875 1.59375q0.59375 0.4375 1.359375 0.484375l0 0.53125l-6.109375 0l-6.265625 -8.84375l-1.265625 0zm0 -9.53125l0 8.515625l0.8125 0q1.984375 0 2.96875 -0.359375q1.0 -0.375 1.5625 -1.328125q0.5625 -0.953125 0.5625 -2.484375q0 -2.21875 -1.046875 -3.28125q-1.03125 -1.0625 -3.328125 -1.0625l-1.53125 0zm20.679932 4.578125q1.75 0 3.25 0.90625q1.515625 0.90625 2.296875 2.578125q0.78125 1.65625 0.78125 3.625q0 2.84375 -1.453125 4.765625q-1.75 2.328125 -4.828125 2.328125q-3.015625 0 -4.65625 -2.125q-1.625 -2.125 -1.625 -4.90625q0 -2.890625 1.65625 -5.03125q1.671875 -2.140625 4.578125 -2.140625zm0.0625 1.015625q-0.734375 0 -1.265625 0.5625q-0.515625 0.546875 -0.6875 2.171875q-0.15625 1.625 -0.15625 4.515625q0 1.53125 0.203125 2.875q0.15625 1.015625 0.671875 1.546875q0.515625 0.515625 1.171875 0.515625q0.65625 0 1.078125 -0.34375q0.5625 -0.5 0.75 -1.375q0.28125 -1.359375 0.28125 -5.484375q0 -2.4375 -0.28125 -3.34375q-0.265625 -0.921875 -0.796875 -1.328125q-0.359375 -0.3125 -0.96875 -0.3125zm13.5390625 -6.640625l0 16.640625q0 1.421875 0.328125 1.8125q0.328125 0.390625 1.28125 0.453125l0 0.515625l-7.234375 0l0 -0.515625q0.890625 -0.03125 1.328125 -0.515625q0.28125 -0.328125 0.28125 -1.75l0 -13.859375q0 -1.40625 -0.328125 -1.796875q-0.328125 -0.390625 -1.28125 -0.453125l0 -0.53125l5.625 0zm14.241943 12.25l-7.34375 0q0.125 2.65625 1.421875 4.203125q0.984375 1.1875 2.375 1.1875q0.859375 0 1.5625 -0.46875q0.703125 -0.484375 1.5 -1.734375l0.484375 0.3125q-1.09375 2.21875 -2.40625 3.15625q-1.3125 0.921875 -3.046875 0.921875q-2.984375 0 -4.515625 -2.296875q-1.234375 -1.84375 -1.234375 -4.578125q0 -3.359375 1.8125 -5.34375q1.8125 -1.984375 4.25 -1.984375q2.03125 0 3.53125 1.671875q1.5 1.671875 1.609375 4.953125zm-3.515625 -0.96875q0 -2.296875 -0.25 -3.15625q-0.25 -0.859375 -0.78125 -1.3125q-0.3125 -0.25 -0.8125 -0.25q-0.734375 0 -1.21875 0.734375q-0.84375 1.265625 -0.84375 3.484375l0 0.5l3.90625 0zm21.08374 -11.671875l0 15.875q0 1.796875 0.15625 2.296875q0.15625 0.484375 0.65625 0.796875q0.515625 0.3125 1.609375 0.3125l0.453125 0l0 0.53125l-10.234375 0l0 -0.53125l0.515625 0q1.25 0 1.78125 -0.28125q0.53125 -0.296875 0.71875 -0.796875q0.1875 -0.5 0.1875 -2.328125l0 -10.0625q0 -1.34375 -0.140625 -1.6875q-0.125 -0.34375 -0.484375 -0.578125q-0.34375 -0.234375 -0.796875 -0.234375q-0.734375 0 -1.78125 0.46875l-0.25 -0.515625l7.140625 -3.265625l0.46875 0z" fill-rule="nonzero"/><path fill="#000000" fill-opacity="0.0" d="m1679.9357 1834.273l112.25195 0l0 54.9292l-112.25195 0z" fill-rule="evenodd"/><path fill="#6aa84f" d="m1704.3558 1862.5892l0 5.4375q0 1.578125 0.1875 1.984375q0.1875 0.40625 0.671875 0.65625q0.5 0.234375 1.828125 0.234375l0 0.53125l-9.9375 0l0 -0.53125q1.34375 0 1.8125 -0.25q0.484375 -0.25 0.671875 -0.640625q0.203125 -0.40625 0.203125 -1.984375l0 -12.609375q0 -1.5625 -0.203125 -1.96875q-0.1875 -0.421875 -0.671875 -0.65625q-0.484375 -0.25 -1.8125 -0.25l0 -0.53125l9.015625 0q3.53125 0 5.15625 0.5q1.640625 0.484375 2.671875 1.796875q1.03125 1.296875 1.03125 3.0625q0 2.140625 -1.546875 3.546875q-1.0 0.890625 -2.765625 1.34375l4.671875 6.5625q0.90625 1.28125 1.296875 1.59375q0.59375 0.4375 1.359375 0.484375l0 0.53125l-6.109375 0l-6.265625 -8.84375l-1.265625 0zm0 -9.53125l0 8.515625l0.8125 0q1.984375 0 2.96875 -0.359375q1.0 -0.375 1.5625 -1.328125q0.5625 -0.953125 0.5625 -2.484375q0 -2.21875 -1.046875 -3.28125q-1.03125 -1.0625 -3.328125 -1.0625l-1.53125 0zm20.67981 4.578125q1.75 0 3.25 0.90625q1.515625 0.90625 2.296875 2.578125q0.78125 1.65625 0.78125 3.625q0 2.84375 -1.453125 4.765625q-1.75 2.328125 -4.828125 2.328125q-3.015625 0 -4.65625 -2.125q-1.625 -2.125 -1.625 -4.90625q0 -2.890625 1.65625 -5.03125q1.671875 -2.140625 4.578125 -2.140625zm0.0625 1.015625q-0.734375 0 -1.265625 0.5625q-0.515625 0.546875 -0.6875 2.171875q-0.15625 1.625 -0.15625 4.515625q0 1.53125 0.203125 2.875q0.15625 1.015625 0.671875 1.546875q0.515625 0.515625 1.171875 0.515625q0.65625 0 1.078125 -0.34375q0.5625 -0.5 0.75 -1.375q0.28125 -1.359375 0.28125 -5.484375q0 -2.4375 -0.28125 -3.34375q-0.265625 -0.921875 -0.796875 -1.328125q-0.359375 -0.3125 -0.96875 -0.3125zm13.5390625 -6.640625l0 16.640625q0 1.421875 0.328125 1.8125q0.328125 0.390625 1.28125 0.453125l0 0.515625l-7.234375 0l0 -0.515625q0.890625 -0.03125 1.328125 -0.515625q0.28125 -0.328125 0.28125 -1.75l0 -13.859375q0 -1.40625 -0.328125 -1.796875q-0.328125 -0.390625 -1.28125 -0.453125l0 -0.53125l5.625 0zm14.242065 12.25l-7.34375 0q0.125 2.65625 1.421875 4.203125q0.984375 1.1875 2.375 1.1875q0.859375 0 1.5625 -0.46875q0.703125 -0.484375 1.5 -1.734375l0.484375 0.3125q-1.09375 2.21875 -2.40625 3.15625q-1.3125 0.921875 -3.046875 0.921875q-2.984375 0 -4.515625 -2.296875q-1.234375 -1.84375 -1.234375 -4.578125q0 -3.359375 1.8125 -5.34375q1.8125 -1.984375 4.25 -1.984375q2.03125 0 3.53125 1.671875q1.5 1.671875 1.609375 4.953125zm-3.515625 -0.96875q0 -2.296875 -0.25 -3.15625q-0.25 -0.859375 -0.78125 -1.3125q-0.3125 -0.25 -0.8125 -0.25q-0.734375 0 -1.21875 0.734375q-0.84375 1.265625 -0.84375 3.484375l0 0.5l3.90625 0zm23.677368 8.140625l-11.421875 0l0 -0.3125q5.25 -6.265625 6.375 -8.421875q1.125 -2.15625 1.125 -4.21875q0 -1.515625 -0.9375 -2.5q-0.921875 -1.0 -2.265625 -1.0q-2.203125 0 -3.421875 2.203125l-0.53125 -0.1875q0.765625 -2.75 2.34375 -4.0625q1.578125 -1.3125 3.640625 -1.3125q1.46875 0 2.6875 0.6875q1.21875 0.6875 1.90625 1.890625q0.6875 1.1875 0.6875 2.234375q0 1.890625 -1.0625 3.859375q-1.4375 2.65625 -6.3125 7.390625l4.203125 0q1.546875 0 2.0 -0.125q0.46875 -0.140625 0.765625 -0.4375q0.3125 -0.3125 0.796875 -1.296875l0.515625 0l-1.09375 5.609375z" fill-rule="nonzero"/><path fill="#000000" fill-opacity="0.0" d="m1684.8569 1569.7323l112.25195 0l0 54.929077l-112.25195 0z" fill-rule="evenodd"/><path fill="#3c78d8" d="m1709.2771 1598.0486l0 5.4375q0 1.578125 0.1875 1.984375q0.1875 0.40625 0.671875 0.65625q0.5 0.234375 1.828125 0.234375l0 0.53125l-9.9375 0l0 -0.53125q1.34375 0 1.8125 -0.25q0.484375 -0.25 0.671875 -0.640625q0.203125 -0.40625 0.203125 -1.984375l0 -12.609375q0 -1.5625 -0.203125 -1.96875q-0.1875 -0.421875 -0.671875 -0.65625q-0.484375 -0.25 -1.8125 -0.25l0 -0.53125l9.015625 0q3.53125 0 5.15625 0.5q1.640625 0.484375 2.671875 1.796875q1.03125 1.296875 1.03125 3.0625q0 2.140625 -1.546875 3.546875q-1.0 0.890625 -2.765625 1.34375l4.671875 6.5625q0.90625 1.28125 1.296875 1.59375q0.59375 0.4375 1.359375 0.484375l0 0.53125l-6.109375 0l-6.265625 -8.84375l-1.265625 0zm0 -9.53125l0 8.515625l0.8125 0q1.984375 0 2.96875 -0.359375q1.0 -0.375 1.5625 -1.328125q0.5625 -0.953125 0.5625 -2.484375q0 -2.21875 -1.046875 -3.28125q-1.03125 -1.0625 -3.328125 -1.0625l-1.53125 0zm20.67981 4.578125q1.75 0 3.25 0.90625q1.515625 0.90625 2.296875 2.578125q0.78125 1.65625 0.78125 3.625q0 2.84375 -1.453125 4.765625q-1.75 2.328125 -4.828125 2.328125q-3.015625 0 -4.65625 -2.125q-1.625 -2.125 -1.625 -4.90625q0 -2.890625 1.65625 -5.03125q1.671875 -2.140625 4.578125 -2.140625zm0.0625 1.015625q-0.734375 0 -1.265625 0.5625q-0.515625 0.546875 -0.6875 2.171875q-0.15625 1.625 -0.15625 4.515625q0 1.53125 0.203125 2.875q0.15625 1.015625 0.671875 1.546875q0.515625 0.515625 1.171875 0.515625q0.65625 0 1.078125 -0.34375q0.5625 -0.5 0.75 -1.375q0.28125 -1.359375 0.28125 -5.484375q0 -2.4375 -0.28125 -3.34375q-0.265625 -0.921875 -0.796875 -1.328125q-0.359375 -0.3125 -0.96875 -0.3125zm13.5390625 -6.640625l0 16.640625q0 1.421875 0.328125 1.8125q0.328125 0.390625 1.28125 0.453125l0 0.515625l-7.234375 0l0 -0.515625q0.890625 -0.03125 1.328125 -0.515625q0.28125 -0.328125 0.28125 -1.75l0 -13.859375q0 -1.40625 -0.328125 -1.796875q-0.328125 -0.390625 -1.28125 -0.453125l0 -0.53125l5.625 0zm14.242065 12.25l-7.34375 0q0.125 2.65625 1.421875 4.203125q0.984375 1.1875 2.375 1.1875q0.859375 0 1.5625 -0.46875q0.703125 -0.484375 1.5 -1.734375l0.484375 0.3125q-1.09375 2.21875 -2.40625 3.15625q-1.3125 0.921875 -3.046875 0.921875q-2.984375 0 -4.515625 -2.296875q-1.234375 -1.84375 -1.234375 -4.578125q0 -3.359375 1.8125 -5.34375q1.8125 -1.984375 4.25 -1.984375q2.03125 0 3.53125 1.671875q1.5 1.671875 1.609375 4.953125zm-3.515625 -0.96875q0 -2.296875 -0.25 -3.15625q-0.25 -0.859375 -0.78125 -1.3125q-0.3125 -0.25 -0.8125 -0.25q-0.734375 0 -1.21875 0.734375q-0.84375 1.265625 -0.84375 3.484375l0 0.5l3.90625 0zm15.880493 -1.59375l0 -0.5q1.625 -0.484375 2.25 -0.890625q0.640625 -0.40625 1.09375 -1.234375q0.453125 -0.84375 0.453125 -1.703125q0 -1.1875 -0.859375 -2.03125q-0.859375 -0.859375 -2.15625 -0.859375q-2.0 0 -3.40625 2.125l-0.53125 -0.1875q1.03125 -2.390625 2.640625 -3.59375q1.609375 -1.203125 3.59375 -1.203125q2.015625 0 3.328125 1.234375q1.3125 1.21875 1.3125 2.875q0 1.0625 -0.609375 2.0625q-0.609375 1.0 -1.921875 1.75q1.6875 0.828125 2.5625 2.03125q0.875 1.1875 0.875 2.984375q0 3.03125 -2.203125 5.171875q-2.1875 2.125 -5.875 2.125q-2.46875 0 -3.609375 -0.828125q-0.8125 -0.5625 -0.8125 -1.46875q0 -0.65625 0.46875 -1.125q0.484375 -0.46875 1.09375 -0.46875q0.46875 0 0.890625 0.203125q0.234375 0.109375 1.625 1.25q1.390625 1.140625 2.609375 1.140625q1.0625 0 1.8125 -0.828125q0.765625 -0.84375 0.765625 -2.140625q0 -1.953125 -1.375 -3.609375q-1.375 -1.65625 -4.015625 -2.28125z" fill-rule="nonzero"/><path fill="#000000" fill-opacity="0.0" d="m2015.626 1784.4409l112.25195 0l0 54.9292l-112.25195 0z" fill-rule="evenodd"/><path fill="#6aa84f" d="m2040.0461 1812.7572l0 5.4375q0 1.578125 0.1875 1.984375q0.1875 0.40625 0.671875 0.65625q0.5 0.234375 1.828125 0.234375l0 0.53125l-9.9375 0l0 -0.53125q1.34375 0 1.8125 -0.25q0.484375 -0.25 0.671875 -0.640625q0.203125 -0.40625 0.203125 -1.984375l0 -12.609375q0 -1.5625 -0.203125 -1.96875q-0.1875 -0.421875 -0.671875 -0.65625q-0.484375 -0.25 -1.8125 -0.25l0 -0.53125l9.015625 0q3.53125 0 5.15625 0.5q1.640625 0.484375 2.671875 1.796875q1.03125 1.296875 1.03125 3.0625q0 2.140625 -1.546875 3.546875q-1.0 0.890625 -2.765625 1.34375l4.671875 6.5625q0.90625 1.28125 1.296875 1.59375q0.59375 0.4375 1.359375 0.484375l0 0.53125l-6.109375 0l-6.265625 -8.84375l-1.265625 0zm0 -9.53125l0 8.515625l0.8125 0q1.984375 0 2.96875 -0.359375q1.0 -0.375 1.5625 -1.328125q0.5625 -0.953125 0.5625 -2.484375q0 -2.21875 -1.046875 -3.28125q-1.03125 -1.0625 -3.328125 -1.0625l-1.53125 0zm20.679688 4.578125q1.75 0 3.25 0.90625q1.515625 0.90625 2.296875 2.578125q0.78125 1.65625 0.78125 3.625q0 2.84375 -1.453125 4.765625q-1.75 2.328125 -4.828125 2.328125q-3.015625 0 -4.65625 -2.125q-1.625 -2.125 -1.625 -4.90625q0 -2.890625 1.65625 -5.03125q1.671875 -2.140625 4.578125 -2.140625zm0.0625 1.015625q-0.734375 0 -1.265625 0.5625q-0.515625 0.546875 -0.6875 2.171875q-0.15625 1.625 -0.15625 4.515625q0 1.53125 0.203125 2.875q0.15625 1.015625 0.671875 1.546875q0.515625 0.515625 1.171875 0.515625q0.65625 0 1.078125 -0.34375q0.5625 -0.5 0.75 -1.375q0.28125 -1.359375 0.28125 -5.484375q0 -2.4375 -0.28125 -3.34375q-0.265625 -0.921875 -0.796875 -1.328125q-0.359375 -0.3125 -0.96875 -0.3125zm13.5390625 -6.640625l0 16.640625q0 1.421875 0.328125 1.8125q0.328125 0.390625 1.28125 0.453125l0 0.515625l-7.234375 0l0 -0.515625q0.890625 -0.03125 1.328125 -0.515625q0.28125 -0.328125 0.28125 -1.75l0 -13.859375q0 -1.40625 -0.328125 -1.796875q-0.328125 -0.390625 -1.28125 -0.453125l0 -0.53125l5.625 0zm14.2421875 12.25l-7.34375 0q0.125 2.65625 1.421875 4.203125q0.984375 1.1875 2.375 1.1875q0.859375 0 1.5625 -0.46875q0.703125 -0.484375 1.5 -1.734375l0.484375 0.3125q-1.09375 2.21875 -2.40625 3.15625q-1.3125 0.921875 -3.046875 0.921875q-2.984375 0 -4.515625 -2.296875q-1.234375 -1.84375 -1.234375 -4.578125q0 -3.359375 1.8125 -5.34375q1.8125 -1.984375 4.25 -1.984375q2.03125 0 3.53125 1.671875q1.5 1.671875 1.609375 4.953125zm-3.515625 -0.96875q0 -2.296875 -0.25 -3.15625q-0.25 -0.859375 -0.78125 -1.3125q-0.3125 -0.25 -0.8125 -0.25q-0.734375 0 -1.21875 0.734375q-0.84375 1.265625 -0.84375 3.484375l0 0.5l3.90625 0zm23.677246 8.140625l-11.421875 0l0 -0.3125q5.25 -6.265625 6.375 -8.421875q1.125 -2.15625 1.125 -4.21875q0 -1.515625 -0.9375 -2.5q-0.921875 -1.0 -2.265625 -1.0q-2.203125 0 -3.421875 2.203125l-0.53125 -0.1875q0.765625 -2.75 2.34375 -4.0625q1.578125 -1.3125 3.640625 -1.3125q1.46875 0 2.6875 0.6875q1.21875 0.6875 1.90625 1.890625q0.6875 1.1875 0.6875 2.234375q0 1.890625 -1.0625 3.859375q-1.4375 2.65625 -6.3125 7.390625l4.203125 0q1.546875 0 2.0 -0.125q0.46875 -0.140625 0.765625 -0.4375q0.3125 -0.3125 0.796875 -1.296875l0.515625 0l-1.09375 5.609375z" fill-rule="nonzero"/><path fill="#000000" fill-opacity="0.0" d="m2180.3767 1835.8688l112.25195 0l0 54.929077l-112.25195 0z" fill-rule="evenodd"/><path fill="#e69138" d="m2204.7966 1864.185l0 5.4375q0 1.578125 0.1875 1.984375q0.1875 0.40625 0.671875 0.65625q0.5 0.234375 1.828125 0.234375l0 0.53125l-9.9375 0l0 -0.53125q1.34375 0 1.8125 -0.25q0.484375 -0.25 0.671875 -0.640625q0.203125 -0.40625 0.203125 -1.984375l0 -12.609375q0 -1.5625 -0.203125 -1.96875q-0.1875 -0.421875 -0.671875 -0.65625q-0.484375 -0.25 -1.8125 -0.25l0 -0.53125l9.015625 0q3.53125 0 5.15625 0.5q1.640625 0.484375 2.671875 1.796875q1.03125 1.296875 1.03125 3.0625q0 2.140625 -1.546875 3.546875q-1.0 0.890625 -2.765625 1.34375l4.671875 6.5625q0.90625 1.28125 1.296875 1.59375q0.59375 0.4375 1.359375 0.484375l0 0.53125l-6.109375 0l-6.265625 -8.84375l-1.265625 0zm0 -9.53125l0 8.515625l0.8125 0q1.984375 0 2.96875 -0.359375q1.0 -0.375 1.5625 -1.328125q0.5625 -0.953125 0.5625 -2.484375q0 -2.21875 -1.046875 -3.28125q-1.03125 -1.0625 -3.328125 -1.0625l-1.53125 0zm20.679932 4.578125q1.75 0 3.25 0.90625q1.515625 0.90625 2.296875 2.578125q0.78125 1.65625 0.78125 3.625q0 2.84375 -1.453125 4.765625q-1.75 2.328125 -4.828125 2.328125q-3.015625 0 -4.65625 -2.125q-1.625 -2.125 -1.625 -4.90625q0 -2.890625 1.65625 -5.03125q1.671875 -2.140625 4.578125 -2.140625zm0.0625 1.015625q-0.734375 0 -1.265625 0.5625q-0.515625 0.546875 -0.6875 2.171875q-0.15625 1.625 -0.15625 4.515625q0 1.53125 0.203125 2.875q0.15625 1.015625 0.671875 1.546875q0.515625 0.515625 1.171875 0.515625q0.65625 0 1.078125 -0.34375q0.5625 -0.5 0.75 -1.375q0.28125 -1.359375 0.28125 -5.484375q0 -2.4375 -0.28125 -3.34375q-0.265625 -0.921875 -0.796875 -1.328125q-0.359375 -0.3125 -0.96875 -0.3125zm13.5390625 -6.640625l0 16.640625q0 1.421875 0.328125 1.8125q0.328125 0.390625 1.28125 0.453125l0 0.515625l-7.234375 0l0 -0.515625q0.890625 -0.03125 1.328125 -0.515625q0.28125 -0.328125 0.28125 -1.75l0 -13.859375q0 -1.40625 -0.328125 -1.796875q-0.328125 -0.390625 -1.28125 -0.453125l0 -0.53125l5.625 0zm14.2421875 12.25l-7.34375 0q0.125 2.65625 1.421875 4.203125q0.984375 1.1875 2.375 1.1875q0.859375 0 1.5625 -0.46875q0.703125 -0.484375 1.5 -1.734375l0.484375 0.3125q-1.09375 2.21875 -2.40625 3.15625q-1.3125 0.921875 -3.046875 0.921875q-2.984375 0 -4.515625 -2.296875q-1.234375 -1.84375 -1.234375 -4.578125q0 -3.359375 1.8125 -5.34375q1.8125 -1.984375 4.25 -1.984375q2.03125 0 3.53125 1.671875q1.5 1.671875 1.609375 4.953125zm-3.515625 -0.96875q0 -2.296875 -0.25 -3.15625q-0.25 -0.859375 -0.78125 -1.3125q-0.3125 -0.25 -0.8125 -0.25q-0.734375 0 -1.21875 0.734375q-0.84375 1.265625 -0.84375 3.484375l0 0.5l3.90625 0zm21.083496 -11.671875l0 15.875q0 1.796875 0.15625 2.296875q0.15625 0.484375 0.65625 0.796875q0.515625 0.3125 1.609375 0.3125l0.453125 0l0 0.53125l-10.234375 0l0 -0.53125l0.515625 0q1.25 0 1.78125 -0.28125q0.53125 -0.296875 0.71875 -0.796875q0.1875 -0.5 0.1875 -2.328125l0 -10.0625q0 -1.34375 -0.140625 -1.6875q-0.125 -0.34375 -0.484375 -0.578125q-0.34375 -0.234375 -0.796875 -0.234375q-0.734375 0 -1.78125 0.46875l-0.25 -0.515625l7.140625 -3.265625l0.46875 0z" fill-rule="nonzero"/><path fill="#000000" fill-opacity="0.0" d="m1864.9384 1683.5354l112.25195 0l0 54.9292l-112.25195 0z" fill-rule="evenodd"/><path fill="#666666" d="m1891.2424 1702.3986l0 7.96875l0.5625 0q1.28125 0 2.09375 -0.375q0.828125 -0.390625 1.390625 -1.3125q0.5625 -0.921875 0.734375 -2.484375l0.5 0l0 9.765625l-0.5 0q-0.265625 -2.765625 -1.484375 -3.640625q-1.203125 -0.890625 -2.734375 -0.890625l-0.5625 0l0 5.9375q0 1.5 0.15625 1.875q0.171875 0.359375 0.640625 0.640625q0.484375 0.28125 1.3125 0.28125l0.640625 0l0 0.53125l-10.15625 0l0 -0.53125l0.640625 0q0.84375 0 1.359375 -0.296875q0.375 -0.203125 0.578125 -0.6875q0.15625 -0.34375 0.15625 -1.8125l0 -12.765625q0 -1.484375 -0.15625 -1.859375q-0.15625 -0.375 -0.640625 -0.65625q-0.46875 -0.28125 -1.296875 -0.28125l-0.640625 0l0 -0.53125l16.390625 0l0 5.578125l-0.59375 0q-0.203125 -1.96875 -1.03125 -2.90625q-0.8125 -0.953125 -2.375 -1.34375q-0.859375 -0.203125 -3.1875 -0.203125l-1.796875 0zm17.914795 0l0 7.96875l0.5625 0q1.28125 0 2.09375 -0.375q0.828125 -0.390625 1.390625 -1.3125q0.5625 -0.921875 0.734375 -2.484375l0.5 0l0 9.765625l-0.5 0q-0.265625 -2.765625 -1.484375 -3.640625q-1.203125 -0.890625 -2.734375 -0.890625l-0.5625 0l0 5.9375q0 1.5 0.15625 1.875q0.171875 0.359375 0.640625 0.640625q0.484375 0.28125 1.3125 0.28125l0.640625 0l0 0.53125l-10.15625 0l0 -0.53125l0.640625 0q0.84375 0 1.359375 -0.296875q0.375 -0.203125 0.578125 -0.6875q0.15625 -0.34375 0.15625 -1.8125l0 -12.765625q0 -1.484375 -0.15625 -1.859375q-0.15625 -0.375 -0.640625 -0.65625q-0.46875 -0.28125 -1.296875 -0.28125l-0.640625 0l0 -0.53125l16.390625 0l0 5.578125l-0.59375 0q-0.203125 -1.96875 -1.03125 -2.90625q-0.8125 -0.953125 -2.375 -1.34375q-0.859375 -0.203125 -3.1875 -0.203125l-1.796875 0zm28.36792 11.484375l-0.734375 6.8125l-17.234375 0l0 -0.53125l0.640625 0q0.84375 0 1.359375 -0.296875q0.375 -0.203125 0.578125 -0.6875q0.15625 -0.34375 0.15625 -1.8125l0 -12.765625q0 -1.484375 -0.15625 -1.859375q-0.15625 -0.375 -0.640625 -0.65625q-0.484375 -0.28125 -1.296875 -0.28125l-0.640625 0l0 -0.53125l10.34375 0l0 0.53125l-0.84375 0q-0.84375 0 -1.359375 0.296875q-0.375 0.203125 -0.578125 0.6875q-0.15625 0.34375 -0.15625 1.8125l0 12.375q0 1.484375 0.171875 1.890625q0.171875 0.40625 0.671875 0.609375q0.359375 0.125 1.734375 0.125l1.609375 0q1.546875 0 2.578125 -0.53125q1.03125 -0.546875 1.78125 -1.71875q0.75 -1.1875 1.421875 -3.46875l0.59375 0zm16.306396 -13.0l0 15.875q0 1.796875 0.15625 2.296875q0.15625 0.484375 0.65625 0.796875q0.515625 0.3125 1.609375 0.3125l0.453125 0l0 0.53125l-10.234375 0l0 -0.53125l0.515625 0q1.25 0 1.78125 -0.28125q0.53125 -0.296875 0.71875 -0.796875q0.1875 -0.5 0.1875 -2.328125l0 -10.0625q0 -1.34375 -0.140625 -1.6875q-0.125 -0.34375 -0.484375 -0.578125q-0.34375 -0.234375 -0.796875 -0.234375q-0.734375 0 -1.78125 0.46875l-0.25 -0.515625l7.140625 -3.265625l0.46875 0z" fill-rule="nonzero"/><path fill="#000000" fill-opacity="0.0" d="m2180.378 1683.5354l112.25195 0l0 54.9292l-112.25195 0z" fill-rule="evenodd"/><path fill="#666666" d="m2206.6821 1702.3986l0 7.96875l0.5625 0q1.28125 0 2.09375 -0.375q0.828125 -0.390625 1.390625 -1.3125q0.5625 -0.921875 0.734375 -2.484375l0.5 0l0 9.765625l-0.5 0q-0.265625 -2.765625 -1.484375 -3.640625q-1.203125 -0.890625 -2.734375 -0.890625l-0.5625 0l0 5.9375q0 1.5 0.15625 1.875q0.171875 0.359375 0.640625 0.640625q0.484375 0.28125 1.3125 0.28125l0.640625 0l0 0.53125l-10.15625 0l0 -0.53125l0.640625 0q0.84375 0 1.359375 -0.296875q0.375 -0.203125 0.578125 -0.6875q0.15625 -0.34375 0.15625 -1.8125l0 -12.765625q0 -1.484375 -0.15625 -1.859375q-0.15625 -0.375 -0.640625 -0.65625q-0.46875 -0.28125 -1.296875 -0.28125l-0.640625 0l0 -0.53125l16.390625 0l0 5.578125l-0.59375 0q-0.203125 -1.96875 -1.03125 -2.90625q-0.8125 -0.953125 -2.375 -1.34375q-0.859375 -0.203125 -3.1875 -0.203125l-1.796875 0zm17.914795 0l0 7.96875l0.5625 0q1.28125 0 2.09375 -0.375q0.828125 -0.390625 1.390625 -1.3125q0.5625 -0.921875 0.734375 -2.484375l0.5 0l0 9.765625l-0.5 0q-0.265625 -2.765625 -1.484375 -3.640625q-1.203125 -0.890625 -2.734375 -0.890625l-0.5625 0l0 5.9375q0 1.5 0.15625 1.875q0.171875 0.359375 0.640625 0.640625q0.484375 0.28125 1.3125 0.28125l0.640625 0l0 0.53125l-10.15625 0l0 -0.53125l0.640625 0q0.84375 0 1.359375 -0.296875q0.375 -0.203125 0.578125 -0.6875q0.15625 -0.34375 0.15625 -1.8125l0 -12.765625q0 -1.484375 -0.15625 -1.859375q-0.15625 -0.375 -0.640625 -0.65625q-0.46875 -0.28125 -1.296875 -0.28125l-0.640625 0l0 -0.53125l16.390625 0l0 5.578125l-0.59375 0q-0.203125 -1.96875 -1.03125 -2.90625q-0.8125 -0.953125 -2.375 -1.34375q-0.859375 -0.203125 -3.1875 -0.203125l-1.796875 0zm28.36792 11.484375l-0.734375 6.8125l-17.234375 0l0 -0.53125l0.640625 0q0.84375 0 1.359375 -0.296875q0.375 -0.203125 0.578125 -0.6875q0.15625 -0.34375 0.15625 -1.8125l0 -12.765625q0 -1.484375 -0.15625 -1.859375q-0.15625 -0.375 -0.640625 -0.65625q-0.484375 -0.28125 -1.296875 -0.28125l-0.640625 0l0 -0.53125l10.34375 0l0 0.53125l-0.84375 0q-0.84375 0 -1.359375 0.296875q-0.375 0.203125 -0.578125 0.6875q-0.15625 0.34375 -0.15625 1.8125l0 12.375q0 1.484375 0.171875 1.890625q0.171875 0.40625 0.671875 0.609375q0.359375 0.125 1.734375 0.125l1.609375 0q1.546875 0 2.578125 -0.53125q1.03125 -0.546875 1.78125 -1.71875q0.75 -1.1875 1.421875 -3.46875l0.59375 0zm18.900146 6.8125l-11.421875 0l0 -0.3125q5.25 -6.265625 6.375 -8.421875q1.125 -2.15625 1.125 -4.21875q0 -1.515625 -0.9375 -2.5q-0.921875 -1.0 -2.265625 -1.0q-2.203125 0 -3.421875 2.203125l-0.53125 -0.1875q0.765625 -2.75 2.34375 -4.0625q1.578125 -1.3125 3.640625 -1.3125q1.46875 0 2.6875 0.6875q1.21875 0.6875 1.90625 1.890625q0.6875 1.1875 0.6875 2.234375q0 1.890625 -1.0625 3.859375q-1.4375 2.65625 -6.3125 7.390625l4.203125 0q1.546875 0 2.0 -0.125q0.46875 -0.140625 0.765625 -0.4375q0.3125 -0.3125 0.796875 -1.296875l0.515625 0l-1.09375 5.609375z" fill-rule="nonzero"/></g></svg>