<svg version="1.1" viewBox="0.0 0.0 4032.0 3456.0" fill="none" stroke="none" stroke-linecap="square" stroke-miterlimit="10" xmlns:xlink="http://www.w3.org/1999/xlink" xmlns="http://www.w3.org/2000/svg"><clipPath id="gf195bf06f7_0_0.0"><path d="m0 0l4032.0 0l0 3456.0l-4032.0 0l0 -3456.0z" clip-rule="nonzero"/></clipPath><g clip-path="url(#gf195bf06f7_0_0.0)"><path fill="#ffffff" d="m0 0l4032.0 0l0 3456.0l-4032.0 0z" fill-rule="evenodd"/><path fill="#000000" fill-opacity="0.0" d="m1048.4094 1721.1172l0 0c0 13.9592285 12.557251 25.275513 28.047241 25.275513l0 0c15.490112 0 28.047241 -11.316284 28.047241 -25.275513l0 0c0 -13.959351 -12.557129 -25.275635 -28.047241 -25.275635l0 0c-15.48999 0 -28.047241 11.316284 -28.047241 25.275635z" fill-rule="evenodd"/><path stroke="#434343" stroke-width="8.0" stroke-linejoin="round" stroke-linecap="butt" d="m1048.4094 1721.1172l0 0c0 13.9592285 12.557251 25.275513 28.047241 25.275513l0 0c15.490112 0 28.047241 -11.316284 28.047241 -25.275513l0 0c0 -13.959351 -12.557129 -25.275635 -28.047241 -25.275635l0 0c-15.48999 0 -28.047241 11.316284 -28.047241 25.275635z" fill-rule="evenodd"/><path fill="#000000" fill-opacity="0.0" d="m1096.2891 1738.9896l95.18115 114.86621" fill-rule="evenodd"/><path stroke="#434343" stroke-width="8.0" stroke-linejoin="round" stroke-linecap="butt" d="m1096.2892 1738.9896l64.55493 77.90625" fill-rule="evenodd"/><path fill="#434343" stroke="#434343" stroke-width="8.0" stroke-linecap="butt" d="m1150.6694 1825.3268l33.338745 19.523682l-12.98938 -36.385742z" fill-rule="evenodd"/><path fill="#000000" fill-opacity="0.0" d="m935.7192 1879.1172l0 0c0 13.9592285 12.55719 25.275513 28.047241 25.275513l0 0c15.490051 0 28.047241 -11.316284 28.047241 -25.275513l0 0c0 -13.959351 -12.55719 -25.275635 -28.047241 -25.275635l0 0c-15.490051 0 -28.047241 11.316284 -28.047241 25.275635z" fill-rule="evenodd"/><path stroke="#434343" stroke-width="8.0" stroke-linejoin="round" stroke-linecap="butt" d="m935.7192 1879.1172l0 0c0 13.9592285 12.55719 25.275513 28.047241 25.275513l0 0c15.490051 0 28.047241 -11.316284 28.047241 -25.275513l0 0c0 -13.959351 -12.55719 -25.275635 -28.047241 -25.275635l0 0c-15.490051 0 -28.047241 11.316284 -28.047241 25.275635z" fill-rule="evenodd"/><path fill="#000000" fill-opacity="0.0" d="m1163.4384 1879.1172l0 0c0 13.9592285 12.557129 25.275513 28.047241 25.275513l0 0c15.48999 0 28.047241 -11.316284 28.047241 -25.275513l0 0c0 -13.959351 -12.557251 -25.275635 -28.047241 -25.275635l0 0c-15.490112 0 -28.047241 11.316284 -28.047241 25.275635z" fill-rule="evenodd"/><path stroke="#434343" stroke-width="8.0" stroke-linejoin="round" stroke-linecap="butt" d="m1163.4384 1879.1172l0 0c0 13.9592285 12.557129 25.275513 28.047241 25.275513l0 0c15.48999 0 28.047241 -11.316284 28.047241 -25.275513l0 0c0 -13.959351 -12.557251 -25.275635 -28.047241 -25.275635l0 0c-15.490112 0 -28.047241 11.316284 -28.047241 25.275635z" fill-rule="evenodd"/><path fill="#000000" fill-opacity="0.0" d="m963.7664 1853.8416l92.8504 -114.86621" fill-rule="evenodd"/><path stroke="#434343" stroke-width="8.0" stroke-linejoin="round" stroke-linecap="butt" d="m963.7664 1853.8416l62.67572 -77.53674" fill-rule="evenodd"/><path fill="#434343" stroke="#434343" stroke-width="8.0" stroke-linecap="butt" d="m1036.7185 1784.6116l12.546265 -36.540894l-33.09906 19.927368z" fill-rule="evenodd"/><path fill="#000000" fill-opacity="0.0" d="m1503.8478 1717.4084l0 0c0 13.959351 12.557129 25.275635 28.047241 25.275635l0 0c15.490112 0 28.047241 -11.316284 28.047241 -25.275635l0 0c0 -13.959351 -12.557129 -25.275513 -28.047241 -25.275513l0 0c-15.490112 0 -28.047241 11.316162 -28.047241 25.275513z" fill-rule="evenodd"/><path stroke="#434343" stroke-width="8.0" stroke-linejoin="round" stroke-linecap="butt" d="m1503.8478 1717.4084l0 0c0 13.959351 12.557129 25.275635 28.047241 25.275635l0 0c15.490112 0 28.047241 -11.316284 28.047241 -25.275635l0 0c0 -13.959351 -12.557129 -25.275513 -28.047241 -25.275513l0 0c-15.490112 0 -28.047241 11.316162 -28.047241 25.275513z" fill-rule="evenodd"/><path fill="#000000" fill-opacity="0.0" d="m1551.7274 1735.281l95.18115 114.86609" fill-rule="evenodd"/><path stroke="#434343" stroke-width="8.0" stroke-linejoin="round" stroke-linecap="butt" d="m1551.7274 1735.281l64.55505 77.90613" fill-rule="evenodd"/><path fill="#434343" stroke="#434343" stroke-width="8.0" stroke-linecap="butt" d="m1606.1077 1821.6182l33.338745 19.523682l-12.98938 -36.385742z" fill-rule="evenodd"/><path fill="#000000" fill-opacity="0.0" d="m1391.1575 1875.4084l0 0c0 13.959351 12.557129 25.275635 28.047241 25.275635l0 0c15.490112 0 28.047241 -11.316284 28.047241 -25.275635l0 0c0 -13.959351 -12.557129 -25.275513 -28.047241 -25.275513l0 0c-15.490112 0 -28.047241 11.316162 -28.047241 25.275513z" fill-rule="evenodd"/><path stroke="#434343" stroke-width="8.0" stroke-linejoin="round" stroke-linecap="butt" d="m1391.1575 1875.4084l0 0c0 13.959351 12.557129 25.275635 28.047241 25.275635l0 0c15.490112 0 28.047241 -11.316284 28.047241 -25.275635l0 0c0 -13.959351 -12.557129 -25.275513 -28.047241 -25.275513l0 0c-15.490112 0 -28.047241 11.316162 -28.047241 25.275513z" fill-rule="evenodd"/><path fill="#000000" fill-opacity="0.0" d="m1618.8766 1875.4084l0 0c0 13.959351 12.557251 25.275635 28.047241 25.275635l0 0c15.490112 0 28.047241 -11.316284 28.047241 -25.275635l0 0c0 -13.959351 -12.557129 -25.275513 -28.047241 -25.275513l0 0c-15.48999 0 -28.047241 11.316162 -28.047241 25.275513z" fill-rule="evenodd"/><path stroke="#434343" stroke-width="8.0" stroke-linejoin="round" stroke-linecap="butt" d="m1618.8766 1875.4084l0 0c0 13.959351 12.557251 25.275635 28.047241 25.275635l0 0c15.490112 0 28.047241 -11.316284 28.047241 -25.275635l0 0c0 -13.959351 -12.557129 -25.275513 -28.047241 -25.275513l0 0c-15.48999 0 -28.047241 11.316162 -28.047241 25.275513z" fill-rule="evenodd"/><path fill="#000000" fill-opacity="0.0" d="m1419.2047 1850.1329l92.850464 -114.86621" fill-rule="evenodd"/><path stroke="#434343" stroke-width="8.0" stroke-linejoin="round" stroke-linecap="butt" d="m1449.3794 1812.8035l62.67578 -77.53674" fill-rule="evenodd"/><path fill="#434343" stroke="#434343" stroke-width="8.0" stroke-linecap="butt" d="m1439.103 1804.4967l-12.546265 36.540894l33.099 -19.927368z" fill-rule="evenodd"/><path fill="#000000" fill-opacity="0.0" d="m1985.0105 1717.4216l0 0c0 13.9592285 12.557129 25.275513 28.047241 25.275513l0 0c15.490112 0 28.047241 -11.316284 28.047241 -25.275513l0 0c0 -13.959351 -12.557129 -25.275635 -28.047241 -25.275635l0 0c-15.490112 0 -28.047241 11.316284 -28.047241 25.275635z" fill-rule="evenodd"/><path stroke="#434343" stroke-width="8.0" stroke-linejoin="round" stroke-linecap="butt" d="m1985.0105 1717.4216l0 0c0 13.9592285 12.557129 25.275513 28.047241 25.275513l0 0c15.490112 0 28.047241 -11.316284 28.047241 -25.275513l0 0c0 -13.959351 -12.557129 -25.275635 -28.047241 -25.275635l0 0c-15.490112 0 -28.047241 11.316284 -28.047241 25.275635z" fill-rule="evenodd"/><path fill="#000000" fill-opacity="0.0" d="m2032.8901 1735.2942l95.18115 114.86609" fill-rule="evenodd"/><path stroke="#434343" stroke-width="8.0" stroke-linejoin="round" stroke-linecap="butt" d="m2063.516 1772.2542l64.555176 77.90613" fill-rule="evenodd"/><path fill="#434343" stroke="#434343" stroke-width="8.0" stroke-linecap="butt" d="m2073.691 1763.8231l-33.338745 -19.523682l12.98938 36.385742z" fill-rule="evenodd"/><path fill="#000000" fill-opacity="0.0" d="m1872.3202 1875.4216l0 0c0 13.9592285 12.557251 25.275513 28.047241 25.275513l0 0c15.490112 0 28.047241 -11.316284 28.047241 -25.275513l0 0c0 -13.959351 -12.557129 -25.275635 -28.047241 -25.275635l0 0c-15.48999 0 -28.047241 11.316284 -28.047241 25.275635z" fill-rule="evenodd"/><path stroke="#434343" stroke-width="8.0" stroke-linejoin="round" stroke-linecap="butt" d="m1872.3202 1875.4216l0 0c0 13.9592285 12.557251 25.275513 28.047241 25.275513l0 0c15.490112 0 28.047241 -11.316284 28.047241 -25.275513l0 0c0 -13.959351 -12.557129 -25.275635 -28.047241 -25.275635l0 0c-15.48999 0 -28.047241 11.316284 -28.047241 25.275635z" fill-rule="evenodd"/><path fill="#000000" fill-opacity="0.0" d="m2100.0393 1875.4216l0 0c0 13.9592285 12.557129 25.275513 28.047363 25.275513l0 0c15.48999 0 28.04712 -11.316284 28.04712 -25.275513l0 0c0 -13.959351 -12.557129 -25.275635 -28.04712 -25.275635l0 0c-15.490234 0 -28.047363 11.316284 -28.047363 25.275635z" fill-rule="evenodd"/><path stroke="#434343" stroke-width="8.0" stroke-linejoin="round" stroke-linecap="butt" d="m2100.0393 1875.4216l0 0c0 13.9592285 12.557129 25.275513 28.047363 25.275513l0 0c15.48999 0 28.04712 -11.316284 28.04712 -25.275513l0 0c0 -13.959351 -12.557129 -25.275635 -28.04712 -25.275635l0 0c-15.490234 0 -28.047363 11.316284 -28.047363 25.275635z" fill-rule="evenodd"/><path fill="#000000" fill-opacity="0.0" d="m1900.3674 1850.146l92.850464 -114.86609" fill-rule="evenodd"/><path stroke="#434343" stroke-width="8.0" stroke-linejoin="round" stroke-linecap="butt" d="m1900.3674 1850.146l62.67566 -77.53674" fill-rule="evenodd"/><path fill="#434343" stroke="#434343" stroke-width="8.0" stroke-linecap="butt" d="m1973.3195 1780.916l12.546265 -36.54077l-33.099 19.927246z" fill-rule="evenodd"/><path fill="#000000" fill-opacity="0.0" d="m2466.1733 1713.7261l0 0c0 13.959351 12.557129 25.275513 28.04712 25.275513l0 0c15.48999 0 28.047363 -11.316162 28.047363 -25.275513l0 0c0 -13.959351 -12.557373 -25.275635 -28.047363 -25.275635l0 0c-15.48999 0 -28.04712 11.316284 -28.04712 25.275635z" fill-rule="evenodd"/><path stroke="#434343" stroke-width="8.0" stroke-linejoin="round" stroke-linecap="butt" d="m2466.1733 1713.7261l0 0c0 13.959351 12.557129 25.275513 28.04712 25.275513l0 0c15.48999 0 28.047363 -11.316162 28.047363 -25.275513l0 0c0 -13.959351 -12.557373 -25.275635 -28.047363 -25.275635l0 0c-15.48999 0 -28.04712 11.316284 -28.04712 25.275635z" fill-rule="evenodd"/><path fill="#000000" fill-opacity="0.0" d="m2514.053 1731.5986l95.18091 114.86609" fill-rule="evenodd"/><path stroke="#434343" stroke-width="8.0" stroke-linejoin="round" stroke-linecap="butt" d="m2544.6787 1768.5586l64.555176 77.90613" fill-rule="evenodd"/><path fill="#434343" stroke="#434343" stroke-width="8.0" stroke-linecap="butt" d="m2554.8535 1760.1276l-33.338623 -19.523682l12.989258 36.385742z" fill-rule="evenodd"/><path fill="#000000" fill-opacity="0.0" d="m2353.483 1871.7261l0 0c0 13.959351 12.557129 25.275513 28.047363 25.275513l0 0c15.48999 0 28.04712 -11.316162 28.04712 -25.275513l0 0c0 -13.959351 -12.557129 -25.275635 -28.04712 -25.275635l0 0c-15.490234 0 -28.047363 11.316284 -28.047363 25.275635z" fill-rule="evenodd"/><path stroke="#434343" stroke-width="8.0" stroke-linejoin="round" stroke-linecap="butt" d="m2353.483 1871.7261l0 0c0 13.959351 12.557129 25.275513 28.047363 25.275513l0 0c15.48999 0 28.04712 -11.316162 28.04712 -25.275513l0 0c0 -13.959351 -12.557129 -25.275635 -28.04712 -25.275635l0 0c-15.490234 0 -28.047363 11.316284 -28.047363 25.275635z" fill-rule="evenodd"/><path fill="#000000" fill-opacity="0.0" d="m2581.2021 1871.7261l0 0c0 13.959351 12.557129 25.275513 28.04712 25.275513l0 0c15.490234 0 28.047363 -11.316162 28.047363 -25.275513l0 0c0 -13.959351 -12.557129 -25.275635 -28.047363 -25.275635l0 0c-15.48999 0 -28.04712 11.316284 -28.04712 25.275635z" fill-rule="evenodd"/><path stroke="#434343" stroke-width="8.0" stroke-linejoin="round" stroke-linecap="butt" d="m2581.2021 1871.7261l0 0c0 13.959351 12.557129 25.275513 28.04712 25.275513l0 0c15.490234 0 28.047363 -11.316162 28.047363 -25.275513l0 0c0 -13.959351 -12.557129 -25.275635 -28.047363 -25.275635l0 0c-15.48999 0 -28.04712 11.316284 -28.04712 25.275635z" fill-rule="evenodd"/><path fill="#000000" fill-opacity="0.0" d="m2381.5303 1846.4504l92.85034 -114.86609" fill-rule="evenodd"/><path stroke="#434343" stroke-width="8.0" stroke-linejoin="round" stroke-linecap="butt" d="m2411.7048 1809.1211l62.67578 -77.53674" fill-rule="evenodd"/><path fill="#434343" stroke="#434343" stroke-width="8.0" stroke-linecap="butt" d="m2401.4285 1800.8142l-12.546143 36.540894l33.098877 -19.927368z" fill-rule="evenodd"/><path fill="#000000" fill-opacity="0.0" d="m2409.5774 1871.7261l171.62207 0" fill-rule="evenodd"/><path stroke="#434343" stroke-width="8.0" stroke-linejoin="round" stroke-linecap="butt" d="m2409.5774 1871.7261l123.62207 0" fill-rule="evenodd"/><path fill="#434343" stroke="#434343" stroke-width="8.0" stroke-linecap="butt" d="m2533.1995 1884.94l36.304688 -13.213867l-36.304688 -13.213867z" fill-rule="evenodd"/><path fill="#000000" fill-opacity="0.0" d="m2927.496 1717.4216l0 0c0 13.9592285 12.557129 25.275513 28.04712 25.275513l0 0c15.490234 0 28.047363 -11.316284 28.047363 -25.275513l0 0c0 -13.959351 -12.557129 -25.275635 -28.047363 -25.275635l0 0c-15.48999 0 -28.04712 11.316284 -28.04712 25.275635z" fill-rule="evenodd"/><path stroke="#434343" stroke-width="8.0" stroke-linejoin="round" stroke-linecap="butt" d="m2927.496 1717.4216l0 0c0 13.9592285 12.557129 25.275513 28.04712 25.275513l0 0c15.490234 0 28.047363 -11.316284 28.047363 -25.275513l0 0c0 -13.959351 -12.557129 -25.275635 -28.047363 -25.275635l0 0c-15.48999 0 -28.04712 11.316284 -28.04712 25.275635z" fill-rule="evenodd"/><path fill="#000000" fill-opacity="0.0" d="m2975.3757 1735.2942l95.18115 114.86609" fill-rule="evenodd"/><path stroke="#434343" stroke-width="8.0" stroke-linejoin="round" stroke-linecap="butt" d="m3006.0017 1772.2542l64.55493 77.90613" fill-rule="evenodd"/><path fill="#434343" stroke="#434343" stroke-width="8.0" stroke-linecap="butt" d="m3016.1765 1763.8231l-33.338867 -19.523682l12.989502 36.385742z" fill-rule="evenodd"/><path fill="#000000" fill-opacity="0.0" d="m2814.8057 1875.4216l0 0c0 13.9592285 12.557373 25.275513 28.047363 25.275513l0 0c15.48999 0 28.04712 -11.316284 28.04712 -25.275513l0 0c0 -13.959351 -12.557129 -25.275635 -28.04712 -25.275635l0 0c-15.48999 0 -28.047363 11.316284 -28.047363 25.275635z" fill-rule="evenodd"/><path stroke="#434343" stroke-width="8.0" stroke-linejoin="round" stroke-linecap="butt" d="m2814.8057 1875.4216l0 0c0 13.9592285 12.557373 25.275513 28.047363 25.275513l0 0c15.48999 0 28.04712 -11.316284 28.04712 -25.275513l0 0c0 -13.959351 -12.557129 -25.275635 -28.04712 -25.275635l0 0c-15.48999 0 -28.047363 11.316284 -28.047363 25.275635z" fill-rule="evenodd"/><path fill="#000000" fill-opacity="0.0" d="m3042.525 1875.4216l0 0c0 13.9592285 12.557129 25.275513 28.047363 25.275513l0 0c15.48999 0 28.04712 -11.316284 28.04712 -25.275513l0 0c0 -13.959351 -12.557129 -25.275635 -28.04712 -25.275635l0 0c-15.490234 0 -28.047363 11.316284 -28.047363 25.275635z" fill-rule="evenodd"/><path stroke="#434343" stroke-width="8.0" stroke-linejoin="round" stroke-linecap="butt" d="m3042.525 1875.4216l0 0c0 13.9592285 12.557129 25.275513 28.047363 25.275513l0 0c15.48999 0 28.04712 -11.316284 28.04712 -25.275513l0 0c0 -13.959351 -12.557129 -25.275635 -28.04712 -25.275635l0 0c-15.490234 0 -28.047363 11.316284 -28.047363 25.275635z" fill-rule="evenodd"/><path fill="#000000" fill-opacity="0.0" d="m2842.853 1850.146l92.85034 -114.86609" fill-rule="evenodd"/><path stroke="#434343" stroke-width="8.0" stroke-linejoin="round" stroke-linecap="butt" d="m2842.853 1850.146l62.675537 -77.53674" fill-rule="evenodd"/><path fill="#434343" stroke="#434343" stroke-width="8.0" stroke-linecap="butt" d="m2915.8052 1780.916l12.546143 -36.54077l-33.098877 19.927246z" fill-rule="evenodd"/><path fill="#000000" fill-opacity="0.0" d="m2870.9001 1875.4216l171.62207 0" fill-rule="evenodd"/><path stroke="#434343" stroke-width="8.0" stroke-linejoin="round" stroke-linecap="butt" d="m2870.9001 1875.4216l123.62207 0" fill-rule="evenodd"/><path fill="#434343" stroke="#434343" stroke-width="8.0" stroke-linecap="butt" d="m2994.5222 1888.6355l36.30493 -13.213867l-36.30493 -13.213867z" fill-rule="evenodd"/><path fill="#000000" fill-opacity="0.0" d="m930.6772 1551.6063l291.55902 0l0 77.57483l-291.55902 0z" fill-rule="evenodd"/><path fill="#666666" d="m1023.1793 1574.1707l0 11.015625l-0.921875 0q-1.03125 -4.3125 -3.84375 -6.609375q-2.8125 -2.296875 -6.375 -2.296875q-2.96875 0 -5.453125 1.71875q-2.484375 1.703125 -3.640625 4.46875q-1.46875 3.546875 -1.46875 7.875q0 4.265625 1.078125 7.78125q1.078125 3.5 3.375 5.296875q2.296875 1.78125 5.953125 1.78125q3.0 0 5.484375 -1.3125q2.5 -1.3125 5.265625 -4.515625l0 2.734375q-2.671875 2.796875 -5.5625 4.0625q-2.890625 1.25 -6.765625 1.25q-5.078125 0 -9.03125 -2.046875q-3.953125 -2.046875 -6.09375 -5.859375q-2.140625 -3.828125 -2.140625 -8.140625q0 -4.546875 2.375 -8.625q2.375 -4.078125 6.421875 -6.328125q4.046875 -2.25 8.59375 -2.25q3.34375 0 7.078125 1.453125q2.15625 0.84375 2.734375 0.84375q0.75 0 1.296875 -0.546875q0.5625 -0.546875 0.71875 -1.75l0.921875 0zm16.335938 29.28125q-4.015625 3.546875 -7.203125 3.546875q-1.875 0 -3.125 -1.234375q-1.234375 -1.234375 -1.234375 -3.09375q0 -2.5 2.15625 -4.5q2.15625 -2.015625 9.40625 -5.34375l0 -2.203125q0 -2.484375 -0.28125 -3.125q-0.265625 -0.640625 -1.015625 -1.125q-0.75 -0.484375 -1.6875 -0.484375q-1.515625 0 -2.5 0.6875q-0.609375 0.421875 -0.609375 0.984375q0 0.484375 0.65625 1.21875q0.890625 1.0 0.890625 1.9375q0 1.15625 -0.859375 1.96875q-0.859375 0.796875 -2.234375 0.796875q-1.484375 0 -2.484375 -0.890625q-0.984375 -0.890625 -0.984375 -2.078125q0 -1.6875 1.328125 -3.21875q1.34375 -1.546875 3.734375 -2.359375q2.390625 -0.828125 4.96875 -0.828125q3.109375 0 4.921875 1.328125q1.828125 1.328125 2.359375 2.875q0.328125 0.984375 0.328125 4.515625l0 8.515625q0 1.5 0.109375 1.890625q0.125 0.375 0.359375 0.5625q0.234375 0.1875 0.546875 0.1875q0.609375 0 1.234375 -0.859375l0.703125 0.5625q-1.171875 1.734375 -2.421875 2.53125q-1.25 0.78125 -2.84375 0.78125q-1.875 0 -2.9375 -0.875q-1.046875 -0.890625 -1.28125 -2.671875zm0 -1.71875l0 -7.328125q-2.84375 1.65625 -4.21875 3.5625q-0.921875 1.265625 -0.921875 2.546875q0 1.078125 0.78125 1.90625q0.578125 0.625 1.640625 0.625q1.171875 0 2.71875 -1.3125zm25.75 -17.578125l0.359375 7.484375l-0.796875 0q-1.4375 -3.328125 -2.96875 -4.546875q-1.53125 -1.21875 -3.0625 -1.21875q-0.953125 0 -1.640625 0.640625q-0.671875 0.640625 -0.671875 1.484375q0 0.640625 0.46875 1.21875q0.75 0.96875 4.1875 3.296875q3.453125 2.328125 4.53125 3.96875q1.09375 1.625 1.09375 3.640625q0 1.828125 -0.921875 3.59375q-0.90625 1.75 -2.578125 2.6875q-1.65625 0.9375 -3.671875 0.9375q-1.5625 0 -4.1875 -0.984375q-0.703125 -0.265625 -0.96875 -0.265625q-0.765625 0 -1.28125 1.1875l-0.78125 0l-0.375 -7.890625l0.796875 0q1.0625 3.09375 2.890625 4.640625q1.84375 1.546875 3.484375 1.546875q1.125 0 1.84375 -0.6875q0.71875 -0.6875 0.71875 -1.671875q0 -1.125 -0.703125 -1.9375q-0.703125 -0.828125 -3.140625 -2.5q-3.59375 -2.484375 -4.640625 -3.796875q-1.546875 -1.921875 -1.546875 -4.234375q0 -2.53125 1.734375 -4.578125q1.75 -2.0625 5.0625 -2.0625q1.78125 0 3.4375 0.875q0.640625 0.34375 1.03125 0.34375q0.421875 0 0.671875 -0.171875q0.265625 -0.171875 0.828125 -1.0l0.796875 0zm22.710938 16.875l0.734375 0.5625q-1.546875 2.90625 -3.859375 4.328125q-2.3125 1.421875 -4.90625 1.421875q-4.390625 0 -7.015625 -3.296875q-2.625 -3.3125 -2.625 -7.953125q0 -4.484375 2.390625 -7.875q2.890625 -4.109375 7.953125 -4.109375q3.390625 0 5.390625 1.71875q2.015625 1.703125 2.015625 3.8125q0 1.34375 -0.8125 2.140625q-0.8125 0.796875 -2.125 0.796875q-1.375 0 -2.28125 -0.90625q-0.90625 -0.921875 -1.109375 -3.265625q-0.140625 -1.484375 -0.6875 -2.0625q-0.53125 -0.59375 -1.265625 -0.59375q-1.125 0 -1.921875 1.203125q-1.21875 1.796875 -1.21875 5.53125q0 3.09375 0.984375 5.921875q0.984375 2.8125 2.703125 4.203125q1.28125 1.0 3.046875 1.0q1.140625 0 2.171875 -0.53125q1.03125 -0.546875 2.4375 -2.046875zm15.5234375 2.421875q-4.015625 3.546875 -7.203125 3.546875q-1.875 0 -3.125 -1.234375q-1.234375 -1.234375 -1.234375 -3.09375q0 -2.5 2.15625 -4.5q2.15625 -2.015625 9.40625 -5.34375l0 -2.203125q0 -2.484375 -0.28125 -3.125q-0.265625 -0.640625 -1.015625 -1.125q-0.75 -0.484375 -1.6875 -0.484375q-1.515625 0 -2.5 0.6875q-0.609375 0.421875 -0.609375 0.984375q0 0.484375 0.65625 1.21875q0.890625 1.0 0.890625 1.9375q0 1.15625 -0.859375 1.96875q-0.859375 0.796875 -2.234375 0.796875q-1.484375 0 -2.484375 -0.890625q-0.984375 -0.890625 -0.984375 -2.078125q0 -1.6875 1.328125 -3.21875q1.34375 -1.546875 3.734375 -2.359375q2.390625 -0.828125 4.96875 -0.828125q3.109375 0 4.921875 1.328125q1.828125 1.328125 2.359375 2.875q0.328125 0.984375 0.328125 4.515625l0 8.515625q0 1.5 0.109375 1.890625q0.125 0.375 0.359375 0.5625q0.234375 0.1875 0.546875 0.1875q0.609375 0 1.234375 -0.859375l0.703125 0.5625q-1.171875 1.734375 -2.421875 2.53125q-1.25 0.78125 -2.84375 0.78125q-1.875 0 -2.9375 -0.875q-1.046875 -0.890625 -1.28125 -2.671875zm0 -1.71875l0 -7.328125q-2.84375 1.65625 -4.21875 3.5625q-0.921875 1.265625 -0.921875 2.546875q0 1.078125 0.78125 1.90625q0.578125 0.625 1.640625 0.625q1.171875 0 2.71875 -1.3125zm33.203125 -26.828125l0 25.21875q0 2.546875 0.140625 3.015625q0.1875 0.78125 0.71875 1.15625q0.53125 0.375 1.84375 0.46875l0 0.765625l-9.265625 1.8125l0 -3.46875q-1.65625 2.015625 -2.96875 2.75q-1.296875 0.71875 -2.9375 0.71875q-4.1875 0 -6.625 -3.75q-1.96875 -3.046875 -1.96875 -7.484375q0 -3.53125 1.21875 -6.328125q1.21875 -2.8125 3.328125 -4.234375q2.125 -1.4375 4.5625 -1.4375q1.578125 0 2.796875 0.609375q1.21875 0.609375 2.59375 2.140625l0 -6.609375q0 -2.515625 -0.203125 -3.03125q-0.28125 -0.671875 -0.84375 -1.0q-0.5625 -0.328125 -2.109375 -0.328125l0 -0.984375l9.71875 0zm-6.5625 14.859375q-1.734375 -3.328125 -4.234375 -3.328125q-0.875 0 -1.4375 0.46875q-0.859375 0.71875 -1.421875 2.546875q-0.546875 1.828125 -0.546875 5.609375q0 4.140625 0.609375 6.140625q0.609375 1.984375 1.671875 2.875q0.53125 0.453125 1.46875 0.453125q2.0625 0 3.890625 -3.234375l0 -11.53125zm30.523438 5.171875l-12.03125 0q0.21875 4.359375 2.328125 6.890625q1.609375 1.953125 3.890625 1.953125q1.40625 0 2.546875 -0.78125q1.15625 -0.796875 2.46875 -2.828125l0.796875 0.515625q-1.78125 3.625 -3.9375 5.140625q-2.15625 1.515625 -5.0 1.515625q-4.875 0 -7.375 -3.75q-2.015625 -3.03125 -2.015625 -7.5q0 -5.484375 2.953125 -8.734375q2.96875 -3.25 6.953125 -3.25q3.328125 0 5.78125 2.734375q2.453125 2.734375 2.640625 8.09375zm-5.765625 -1.5625q0 -3.78125 -0.421875 -5.1875q-0.40625 -1.40625 -1.265625 -2.125q-0.5 -0.421875 -1.3125 -0.421875q-1.21875 0 -2.0 1.1875q-1.375 2.09375 -1.375 5.71875l0 0.828125l6.375 0z" fill-rule="nonzero"/><path fill="#000000" fill-opacity="0.0" d="m1386.1155 1551.6063l291.55908 0l0 77.57483l-291.55908 0z" fill-rule="evenodd"/><path fill="#666666" d="m1432.4927 1606.6863l0 -0.875l1.046875 0q1.390625 0 2.125 -0.421875q0.734375 -0.4375 1.09375 -1.1875q0.203125 -0.5 0.203125 -2.953125l0 -20.90625q0 -2.4375 -0.265625 -3.046875q-0.25 -0.609375 -1.03125 -1.0625q-0.78125 -0.46875 -2.125 -0.46875l-1.046875 0l0 -0.859375l14.21875 0q5.703125 0 9.171875 1.546875q4.234375 1.890625 6.421875 5.734375q2.203125 3.84375 2.203125 8.703125q0 3.34375 -1.078125 6.171875q-1.078125 2.828125 -2.796875 4.671875q-1.703125 1.828125 -3.953125 2.953125q-2.234375 1.109375 -5.46875 1.71875q-1.421875 0.28125 -4.5 0.28125l-14.21875 0zm12.109375 -29.984375l0 24.796875q0 1.96875 0.1875 2.421875q0.1875 0.4375 0.640625 0.671875q0.625 0.359375 1.828125 0.359375q3.90625 0 5.96875 -2.671875q2.8125 -3.609375 2.8125 -11.203125q0 -6.125 -1.921875 -9.78125q-1.515625 -2.859375 -3.90625 -3.890625q-1.6875 -0.71875 -5.609375 -0.703125zm33.867188 7.40625q2.859375 0 5.3125 1.484375q2.46875 1.46875 3.75 4.1875q1.28125 2.71875 1.28125 5.953125q0 4.671875 -2.375 7.8125q-2.859375 3.796875 -7.890625 3.796875q-4.953125 0 -7.625 -3.46875q-2.671875 -3.46875 -2.671875 -8.046875q0 -4.703125 2.734375 -8.203125q2.734375 -3.515625 7.484375 -3.515625zm0.09375 1.671875q-1.1875 0 -2.046875 0.90625q-0.859375 0.890625 -1.125 3.5625q-0.265625 2.65625 -0.265625 7.390625q0 2.5 0.328125 4.6875q0.25 1.65625 1.09375 2.53125q0.84375 0.859375 1.921875 0.859375q1.0625 0 1.765625 -0.578125q0.90625 -0.796875 1.21875 -2.234375q0.46875 -2.21875 0.46875 -9.0q0 -3.984375 -0.453125 -5.46875q-0.4375 -1.484375 -1.3125 -2.171875q-0.609375 -0.484375 -1.59375 -0.484375zm35.296875 21.5625l-6.0 -16.078125l-5.875 16.078125l-1.21875 0l-5.84375 -15.890625q-1.3125 -3.640625 -2.21875 -4.734375q-0.59375 -0.75 -1.78125 -1.078125l0 -0.875l11.0625 0l0 0.875q-1.125 0 -1.546875 0.328125q-0.421875 0.328125 -0.421875 0.75q0 0.390625 0.75 2.390625l3.203125 8.546875l3.09375 -8.546875l-0.234375 -0.5625q-0.703125 -1.765625 -1.234375 -2.234375q-0.515625 -0.484375 -1.625 -0.671875l0 -0.875l11.234375 0l0 0.875q-1.3125 0.0625 -1.671875 0.359375q-0.34375 0.296875 -0.34375 0.828125q0 0.515625 0.671875 2.28125l3.09375 8.546875l2.8125 -7.875q0.609375 -1.6875 0.609375 -2.296875q0 -0.90625 -0.453125 -1.328125q-0.4375 -0.421875 -1.71875 -0.515625l0 -0.875l6.484375 0l0 0.875q-1.078125 0.140625 -1.71875 0.765625q-0.625 0.609375 -1.625 3.515625l-6.140625 17.421875l-1.34375 0zm21.898438 -22.578125l0 2.84375q1.6875 -1.828125 3.234375 -2.65625q1.546875 -0.84375 3.328125 -0.84375q2.125 0 3.53125 1.1875q1.40625 1.1875 1.875 2.9375q0.375 1.34375 0.375 5.140625l0 8.53125q0 2.53125 0.453125 3.15625q0.46875 0.609375 1.921875 0.78125l0 0.84375l-11.09375 0l0 -0.84375q1.25 -0.171875 1.78125 -1.03125q0.375 -0.59375 0.375 -2.90625l0 -9.75q0 -2.703125 -0.21875 -3.40625q-0.203125 -0.703125 -0.703125 -1.078125q-0.5 -0.390625 -1.109375 -0.390625q-2.015625 0 -3.75 2.875l0 11.75q0 2.453125 0.453125 3.109375q0.453125 0.65625 1.703125 0.828125l0 0.84375l-11.09375 0l0 -0.84375q1.390625 -0.140625 1.96875 -0.890625q0.40625 -0.515625 0.40625 -3.046875l0 -12.375q0 -2.484375 -0.46875 -3.09375q-0.453125 -0.609375 -1.90625 -0.796875l0 -0.875l8.9375 0zm26.320312 -9.859375l0 27.234375q0 2.3125 0.53125 2.96875q0.546875 0.640625 2.109375 0.734375l0 0.84375l-11.828125 0l0 -0.84375q1.453125 -0.046875 2.15625 -0.84375q0.46875 -0.546875 0.46875 -2.859375l0 -22.6875q0 -2.296875 -0.546875 -2.9375q-0.53125 -0.65625 -2.078125 -0.75l0 -0.859375l9.1875 0zm10.0234375 -0.75q1.53125 0 2.578125 1.0625q1.0625 1.0625 1.0625 2.5625q0 1.5 -1.078125 2.5625q-1.0625 1.046875 -2.5625 1.046875q-1.5 0 -2.5625 -1.046875q-1.046875 -1.0625 -1.046875 -2.5625q0 -1.5 1.046875 -2.5625q1.0625 -1.0625 2.5625 -1.0625zm3.28125 10.609375l0 17.375q0 2.3125 0.53125 2.96875q0.546875 0.640625 2.125 0.734375l0 0.84375l-11.84375 0l0 -0.84375q1.453125 -0.046875 2.15625 -0.84375q0.46875 -0.546875 0.46875 -2.859375l0 -12.796875q0 -2.328125 -0.546875 -2.96875q-0.53125 -0.640625 -2.078125 -0.734375l0 -0.875l9.1875 0zm13.7421875 0l0 2.84375q1.6875 -1.828125 3.234375 -2.65625q1.546875 -0.84375 3.328125 -0.84375q2.125 0 3.53125 1.1875q1.40625 1.1875 1.875 2.9375q0.375 1.34375 0.375 5.140625l0 8.53125q0 2.53125 0.453125 3.15625q0.46875 0.609375 1.921875 0.78125l0 0.84375l-11.09375 0l0 -0.84375q1.25 -0.171875 1.78125 -1.03125q0.375 -0.59375 0.375 -2.90625l0 -9.75q0 -2.703125 -0.21875 -3.40625q-0.203125 -0.703125 -0.703125 -1.078125q-0.5 -0.390625 -1.109375 -0.390625q-2.015625 0 -3.75 2.875l0 11.75q0 2.453125 0.453125 3.109375q0.453125 0.65625 1.703125 0.828125l0 0.84375l-11.09375 0l0 -0.84375q1.390625 -0.140625 1.96875 -0.890625q0.40625 -0.515625 0.40625 -3.046875l0 -12.375q0 -2.484375 -0.46875 -3.09375q-0.453125 -0.609375 -1.90625 -0.796875l0 -0.875l8.9375 0zm26.648438 -9.859375l0 20.90625l5.078125 -5.0q1.578125 -1.515625 1.953125 -2.1875q0.390625 -0.6875 0.390625 -1.328125q0 -0.625 -0.515625 -1.046875q-0.515625 -0.421875 -2.015625 -0.609375l0 -0.875l9.828125 0l0 0.875q-1.40625 0.0625 -2.46875 0.671875q-1.046875 0.59375 -4.125 3.59375l-2.390625 2.34375l5.15625 7.546875q3.125 4.59375 3.703125 5.15625q0.796875 0.796875 2.015625 0.890625l0 0.84375l-11.3125 0l0 -0.84375q0.75 0 1.078125 -0.28125q0.34375 -0.28125 0.34375 -0.609375q0 -0.546875 -0.984375 -2.0l-4.328125 -6.34375l-1.40625 1.375l0 3.9375q0 2.515625 0.46875 3.140625q0.46875 0.609375 1.921875 0.78125l0 0.84375l-11.328125 0l0 -0.84375q1.390625 -0.140625 1.96875 -0.890625q0.40625 -0.515625 0.40625 -3.03125l0 -22.265625q0 -2.484375 -0.46875 -3.09375q-0.453125 -0.609375 -1.90625 -0.796875l0 -0.859375l8.9375 0z" fill-rule="nonzero"/><path fill="#000000" fill-opacity="0.0" d="m1862.0657 1551.6063l291.55908 0l0 77.57483l-291.55908 0z" fill-rule="evenodd"/><path fill="#666666" d="m1938.2592 1574.905l16.40625 0l0 0.859375l-0.8125 0q-1.859375 0 -2.546875 0.390625q-0.6875 0.390625 -0.984375 1.078125q-0.296875 0.671875 -0.296875 3.390625l0 15.5625q0 4.265625 0.640625 5.65625q0.65625 1.375 2.125 2.296875q1.484375 0.90625 3.734375 0.90625q2.578125 0 4.390625 -1.15625q1.8125 -1.171875 2.71875 -3.203125q0.90625 -2.046875 0.90625 -7.109375l0 -12.953125q0 -2.140625 -0.453125 -3.046875q-0.4375 -0.921875 -1.125 -1.265625q-1.046875 -0.546875 -2.96875 -0.546875l0 -0.859375l10.984375 0l0 0.859375l-0.65625 0q-1.328125 0 -2.21875 0.546875q-0.890625 0.53125 -1.296875 1.609375q-0.296875 0.75 -0.296875 2.703125l0 12.0625q0 5.609375 -0.75 8.09375q-0.734375 2.484375 -3.59375 4.578125q-2.859375 2.078125 -7.796875 2.078125q-4.125 0 -6.375 -1.109375q-3.078125 -1.5 -4.34375 -3.84375q-1.265625 -2.34375 -1.265625 -6.296875l0 -15.5625q0 -2.75 -0.3125 -3.40625q-0.296875 -0.671875 -1.046875 -1.0625q-0.75 -0.40625 -2.765625 -0.390625l0 -0.859375zm43.648438 29.546875l0 8.171875q0 1.6875 0.265625 2.296875q0.265625 0.609375 0.828125 0.890625q0.5625 0.28125 2.203125 0.28125l0 0.859375l-12.484375 0l0 -0.859375q1.453125 -0.046875 2.15625 -0.828125q0.46875 -0.53125 0.46875 -2.78125l0 -23.140625q0 -2.328125 -0.546875 -2.96875q-0.53125 -0.640625 -2.078125 -0.734375l0 -0.875l9.1875 0l0 2.890625q1.140625 -1.6875 2.34375 -2.4375q1.703125 -1.109375 3.71875 -1.109375q2.421875 0 4.390625 1.53125q1.984375 1.515625 3.015625 4.203125q1.03125 2.6875 1.03125 5.78125q0 3.328125 -1.0625 6.078125q-1.0625 2.75 -3.09375 4.203125q-2.03125 1.4375 -4.515625 1.4375q-1.796875 0 -3.375 -0.796875q-1.171875 -0.609375 -2.453125 -2.09375zm0 -2.359375q2.015625 2.859375 4.3125 2.859375q1.265625 0 2.078125 -1.34375q1.21875 -1.96875 1.21875 -7.5q0 -5.671875 -1.328125 -7.75q-0.890625 -1.390625 -2.390625 -1.390625q-2.375 0 -3.890625 3.421875l0 11.703125zm26.789062 -27.1875l0 27.234375q0 2.3125 0.53125 2.96875q0.546875 0.640625 2.109375 0.734375l0 0.84375l-11.828125 0l0 -0.84375q1.453125 -0.046875 2.15625 -0.84375q0.46875 -0.546875 0.46875 -2.859375l0 -22.6875q0 -2.296875 -0.546875 -2.9375q-0.53125 -0.65625 -2.078125 -0.75l0 -0.859375l9.1875 0zm10.0234375 -0.75q1.53125 0 2.578125 1.0625q1.0625 1.0625 1.0625 2.5625q0 1.5 -1.078125 2.5625q-1.0625 1.046875 -2.5625 1.046875q-1.5 0 -2.5625 -1.046875q-1.046875 -1.0625 -1.046875 -2.5625q0 -1.5 1.046875 -2.5625q1.0625 -1.0625 2.5625 -1.0625zm3.28125 10.609375l0 17.375q0 2.3125 0.53125 2.96875q0.546875 0.640625 2.125 0.734375l0 0.84375l-11.84375 0l0 -0.84375q1.453125 -0.046875 2.15625 -0.84375q0.46875 -0.546875 0.46875 -2.859375l0 -12.796875q0 -2.328125 -0.546875 -2.96875q-0.53125 -0.640625 -2.078125 -0.734375l0 -0.875l9.1875 0zm13.7421875 0l0 2.84375q1.6875 -1.828125 3.234375 -2.65625q1.546875 -0.84375 3.328125 -0.84375q2.125 0 3.53125 1.1875q1.40625 1.1875 1.875 2.9375q0.37512207 1.34375 0.37512207 5.140625l0 8.53125q0 2.53125 0.453125 3.15625q0.46875 0.609375 1.921875 0.78125l0 0.84375l-11.093872 0l0 -0.84375q1.25 -0.171875 1.78125 -1.03125q0.375 -0.59375 0.375 -2.90625l0 -9.75q0 -2.703125 -0.21875 -3.40625q-0.203125 -0.703125 -0.703125 -1.078125q-0.5 -0.390625 -1.109375 -0.390625q-2.015625 0 -3.75 2.875l0 11.75q0 2.453125 0.453125 3.109375q0.453125 0.65625 1.703125 0.828125l0 0.84375l-11.09375 0l0 -0.84375q1.390625 -0.140625 1.96875 -0.890625q0.40625 -0.515625 0.40625 -3.046875l0 -12.375q0 -2.484375 -0.46875 -3.09375q-0.453125 -0.609375 -1.90625 -0.796875l0 -0.875l8.9375 0zm26.64856 -9.859375l0 20.90625l5.078125 -5.0q1.578125 -1.515625 1.953125 -2.1875q0.390625 -0.6875 0.390625 -1.328125q0 -0.625 -0.515625 -1.046875q-0.515625 -0.421875 -2.015625 -0.609375l0 -0.875l9.828125 0l0 0.875q-1.40625 0.0625 -2.46875 0.671875q-1.046875 0.59375 -4.125 3.59375l-2.390625 2.34375l5.15625 7.546875q3.125 4.59375 3.703125 5.15625q0.796875 0.796875 2.015625 0.890625l0 0.84375l-11.3125 0l0 -0.84375q0.75 0 1.078125 -0.28125q0.34375 -0.28125 0.34375 -0.609375q0 -0.546875 -0.984375 -2.0l-4.328125 -6.34375l-1.40625 1.375l0 3.9375q0 2.515625 0.46875 3.140625q0.46875 0.609375 1.921875 0.78125l0 0.84375l-11.328125 0l0 -0.84375q1.390625 -0.140625 1.96875 -0.890625q0.40625 -0.515625 0.40625 -3.03125l0 -22.265625q0 -2.484375 -0.46875 -3.09375q-0.453125 -0.609375 -1.90625 -0.796875l0 -0.859375l8.9375 0z" fill-rule="nonzero"/><path fill="#000000" fill-opacity="0.0" d="m2349.609 1551.6063l291.55908 0l0 77.57483l-291.55908 0z" fill-rule="evenodd"/><path fill="#666666" d="m2470.1306 1574.1707l0 11.015625l-0.921875 0q-1.03125 -4.3125 -3.84375 -6.609375q-2.8125 -2.296875 -6.375 -2.296875q-2.96875 0 -5.453125 1.71875q-2.484375 1.703125 -3.640625 4.46875q-1.46875 3.546875 -1.46875 7.875q0 4.265625 1.078125 7.78125q1.078125 3.5 3.375 5.296875q2.296875 1.78125 5.953125 1.78125q3.0 0 5.484375 -1.3125q2.5 -1.3125 5.265625 -4.515625l0 2.734375q-2.671875 2.796875 -5.5625 4.0625q-2.890625 1.25 -6.765625 1.25q-5.078125 0 -9.03125 -2.046875q-3.953125 -2.046875 -6.09375 -5.859375q-2.140625 -3.828125 -2.140625 -8.140625q0 -4.546875 2.375 -8.625q2.375 -4.078125 6.421875 -6.328125q4.046875 -2.25 8.59375 -2.25q3.34375 0 7.078125 1.453125q2.15625 0.84375 2.734375 0.84375q0.75 0 1.296875 -0.546875q0.5625 -0.546875 0.71875 -1.75l0.921875 0zm14.2890625 33.40625l-7.078125 -16.25q-1.59375 -3.671875 -2.359375 -4.515625q-0.75 -0.84375 -1.828125 -1.171875l0 -0.875l11.640625 0l0 0.875q-1.140625 0.046875 -1.609375 0.453125q-0.46875 0.390625 -0.46875 0.953125q0 0.890625 1.171875 3.515625l3.75 8.578125l2.546875 -6.640625q1.390625 -3.53125 1.390625 -4.921875q0 -0.859375 -0.578125 -1.375q-0.578125 -0.515625 -2.03125 -0.5625l0 -0.875l7.34375 0l0 0.875q-1.078125 0.109375 -1.765625 0.828125q-0.671875 0.71875 -2.265625 4.859375l-6.265625 16.25q-2.359375 6.09375 -3.515625 7.5q-1.609375 1.96875 -4.046875 1.96875q-1.953125 0 -3.15625 -1.109375q-1.203125 -1.109375 -1.203125 -2.6875q0 -1.359375 0.828125 -2.25q0.828125 -0.890625 2.046875 -0.890625q1.171875 0 1.890625 0.75q0.71875 0.75 0.734375 2.328125q0.03125 0.890625 0.21875 1.140625q0.1875 0.265625 0.53125 0.265625q0.5625 0 1.203125 -0.6875q0.9375 -0.984375 2.203125 -4.5l0.671875 -1.828125zm31.828125 -6.546875l0.734375 0.5625q-1.546875 2.90625 -3.859375 4.328125q-2.3125 1.421875 -4.90625 1.421875q-4.390625 0 -7.015625 -3.296875q-2.625 -3.3125 -2.625 -7.953125q0 -4.484375 2.390625 -7.875q2.890625 -4.109375 7.953125 -4.109375q3.390625 0 5.390625 1.71875q2.015625 1.703125 2.015625 3.8125q0 1.34375 -0.8125 2.140625q-0.8125 0.796875 -2.125 0.796875q-1.375 0 -2.28125 -0.90625q-0.90625 -0.921875 -1.109375 -3.265625q-0.140625 -1.484375 -0.6875 -2.0625q-0.53125 -0.59375 -1.265625 -0.59375q-1.125 0 -1.921875 1.203125q-1.21875 1.796875 -1.21875 5.53125q0 3.09375 0.984375 5.921875q0.984375 2.8125 2.703125 4.203125q1.28125 1.0 3.046875 1.0q1.140625 0 2.171875 -0.53125q1.03125 -0.546875 2.4375 -2.046875zm12.0078125 -26.125l0 27.234375q0 2.3125 0.53125 2.96875q0.546875 0.640625 2.109375 0.734375l0 0.84375l-11.828125 0l0 -0.84375q1.453125 -0.046875 2.15625 -0.84375q0.46875 -0.546875 0.46875 -2.859375l0 -22.6875q0 -2.296875 -0.546875 -2.9375q-0.53125 -0.65625 -2.078125 -0.75l0 -0.859375l9.1875 0zm23.320312 20.03125l-12.03125 0q0.21875 4.359375 2.328125 6.890625q1.609375 1.953125 3.890625 1.953125q1.40625 0 2.546875 -0.78125q1.15625 -0.796875 2.46875 -2.828125l0.796875 0.515625q-1.78125 3.625 -3.9375 5.140625q-2.15625 1.515625 -5.0 1.515625q-4.875 0 -7.375 -3.75q-2.015625 -3.03125 -2.015625 -7.5q0 -5.484375 2.953125 -8.734375q2.96875 -3.25 6.953125 -3.25q3.328125 0 5.78125 2.734375q2.453125 2.734375 2.640625 8.09375zm-5.765625 -1.5625q0 -3.78125 -0.421875 -5.1875q-0.40625 -1.40625 -1.265625 -2.125q-0.5 -0.421875 -1.3125 -0.421875q-1.21875 0 -2.0 1.1875q-1.375 2.09375 -1.375 5.71875l0 0.828125l6.375 0z" fill-rule="nonzero"/><path fill="#000000" fill-opacity="0.0" d="m2809.7637 1551.6063l291.55908 0l0 77.57483l-291.55908 0z" fill-rule="evenodd"/><path fill="#666666" d="m2923.4182 1576.7332l0 13.046875l0.90625 0q2.109375 0 3.4375 -0.625q1.34375 -0.640625 2.265625 -2.140625q0.9375 -1.5 1.21875 -4.046875l0.8125 0l0 15.953125l-0.8125 0q-0.453125 -4.515625 -2.4375 -5.953125q-1.96875 -1.453125 -4.484375 -1.453125l-0.90625 0l0 9.734375q0 2.4375 0.265625 3.046875q0.265625 0.609375 1.046875 1.0625q0.796875 0.453125 2.125 0.453125l1.0625 0l0 0.875l-16.625 0l0 -0.875l1.0625 0q1.375 0 2.21875 -0.484375q0.609375 -0.328125 0.9375 -1.125q0.265625 -0.5625 0.265625 -2.953125l0 -20.90625q0 -2.4375 -0.265625 -3.046875q-0.25 -0.609375 -1.046875 -1.0625q-0.78125 -0.46875 -2.109375 -0.46875l-1.0625 0l0 -0.859375l26.8125 0l0 9.109375l-0.953125 0q-0.328125 -3.203125 -1.6875 -4.75q-1.34375 -1.546875 -3.890625 -2.1875q-1.40625 -0.34375 -5.203125 -0.34375l-2.953125 0zm29.320312 0l0 13.046875l0.90625 0q2.109375 0 3.4375 -0.625q1.34375 -0.640625 2.265625 -2.140625q0.9375 -1.5 1.21875 -4.046875l0.8125 0l0 15.953125l-0.8125 0q-0.453125 -4.515625 -2.4375 -5.953125q-1.96875 -1.453125 -4.484375 -1.453125l-0.90625 0l0 9.734375q0 2.4375 0.265625 3.046875q0.265625 0.609375 1.046875 1.0625q0.796875 0.453125 2.125 0.453125l1.0625 0l0 0.875l-16.625 0l0 -0.875l1.0625 0q1.375 0 2.21875 -0.484375q0.609375 -0.328125 0.9375 -1.125q0.265625 -0.5625 0.265625 -2.953125l0 -20.90625q0 -2.4375 -0.265625 -3.046875q-0.25 -0.609375 -1.046875 -1.0625q-0.78125 -0.46875 -2.109375 -0.46875l-1.0625 0l0 -0.859375l26.8125 0l0 9.109375l-0.953125 0q-0.328125 -3.203125 -1.6875 -4.75q-1.34375 -1.546875 -3.890625 -2.1875q-1.40625 -0.34375 -5.203125 -0.34375l-2.953125 0zm46.429688 18.796875l-1.203125 11.15625l-28.21875 0l0 -0.875l1.0625 0q1.375 0 2.21875 -0.484375q0.609375 -0.328125 0.9375 -1.125q0.265625 -0.5625 0.265625 -2.953125l0 -20.90625q0 -2.4375 -0.265625 -3.046875q-0.25 -0.609375 -1.046875 -1.0625q-0.78125 -0.46875 -2.109375 -0.46875l-1.0625 0l0 -0.859375l16.953125 0l0 0.859375l-1.390625 0q-1.375 0 -2.21875 0.5q-0.609375 0.328125 -0.96875 1.125q-0.25 0.5625 -0.25 2.953125l0 20.25q0 2.4375 0.28125 3.109375q0.28125 0.65625 1.09375 0.984375q0.59375 0.21875 2.84375 0.21875l2.640625 0q2.53125 0 4.21875 -0.890625q1.6875 -0.890625 2.921875 -2.8125q1.234375 -1.921875 2.328125 -5.671875l0.96875 0z" fill-rule="nonzero"/></g></svg>