<?xml version="1.0" encoding="UTF-8" standalone="no"?>
<svg
   xmlns:dc="http://purl.org/dc/elements/1.1/"
   xmlns:cc="http://creativecommons.org/ns#"
   xmlns:rdf="http://www.w3.org/1999/02/22-rdf-syntax-ns#"
   xmlns:svg="http://www.w3.org/2000/svg"
   xmlns="http://www.w3.org/2000/svg"
   xmlns:sodipodi="http://sodipodi.sourceforge.net/DTD/sodipodi-0.dtd"
   xmlns:inkscape="http://www.inkscape.org/namespaces/inkscape"
   version="1.1"
   viewBox="0 0 692.23731 383.49149"
   stroke-miterlimit="10"
   id="svg113"
   sodipodi:docname="figure2.svg"
   width="692.2373"
   height="383.49149"
   style="fill:none;stroke:none;stroke-linecap:square;stroke-miterlimit:10"
   inkscape:version="0.92.5 (2060ec1f9f, 2020-04-08)"
   inkscape:export-filename="/home/erikz/sonnhammer/network_generation_algo/results/figures/figure2.png"
   inkscape:export-xdpi="300"
   inkscape:export-ydpi="300">
  <metadata
     id="metadata119">
    <rdf:RDF>
      <cc:Work
         rdf:about="">
        <dc:format>image/svg+xml</dc:format>
        <dc:type
           rdf:resource="http://purl.org/dc/dcmitype/StillImage" />
      </cc:Work>
    </rdf:RDF>
  </metadata>
  <defs
     id="defs117" />
  <sodipodi:namedview
     pagecolor="#ffffff"
     bordercolor="#666666"
     borderopacity="1"
     objecttolerance="10"
     gridtolerance="10"
     guidetolerance="10"
     inkscape:pageopacity="0"
     inkscape:pageshadow="2"
     inkscape:window-width="1848"
     inkscape:window-height="1016"
     id="namedview115"
     showgrid="false"
     inkscape:zoom="1.0925926"
     inkscape:cx="338.339"
     inkscape:cy="187.6271"
     inkscape:window-x="72"
     inkscape:window-y="27"
     inkscape:window-maximized="1"
     inkscape:current-layer="g111" />
  <clipPath
     id="gf84ff55190_0_72.0">
    <path
       d="M 0,0 H 4032 V 3456 H 0 Z"
       id="path2"
       inkscape:connector-curvature="0"
       style="clip-rule:nonzero" />
  </clipPath>
  <g
     clip-path="url(#gf84ff55190_0_72.0)"
     id="g111"
     transform="translate(-1677.661,-1532.1356)">
    <path
       d="m 1677.661,1532.1356 h 692.2373 v 383.4915 H 1677.661 Z"
       id="path5"
       inkscape:connector-curvature="0"
       style="fill:#ffffff;fill-rule:evenodd;stroke-width:0.13802516" />
    <path
       d="m 2040.3019,1714.9203 v 0 c 0,13.9594 12.5573,25.2756 28.0472,25.2756 v 0 c 15.49,0 28.0472,-11.3162 28.0472,-25.2756 v 0 c 0,-13.9594 -12.5572,-25.2756 -28.0472,-25.2756 v 0 c -15.4899,0 -28.0472,11.3162 -28.0472,25.2756 z"
       id="path7"
       inkscape:connector-curvature="0"
       style="fill:#fce5cd;fill-rule:evenodd" />
    <path
       d="m 2040.3019,1714.9203 v 0 c 0,13.9594 12.5573,25.2756 28.0472,25.2756 v 0 c 15.49,0 28.0472,-11.3162 28.0472,-25.2756 v 0 c 0,-13.9594 -12.5572,-25.2756 -28.0472,-25.2756 v 0 c -15.4899,0 -28.0472,11.3162 -28.0472,25.2756 z"
       id="path9"
       inkscape:connector-curvature="0"
       style="fill-rule:evenodd;stroke:#6aa84f;stroke-width:8;stroke-linecap:butt;stroke-linejoin:round" />
    <path
       d="m 2048.5166,1697.0477 -195.307,-99.8425"
       id="path11"
       inkscape:connector-curvature="0"
       style="fill:#000000;fill-opacity:0;fill-rule:evenodd" />
    <path
       d="m 2048.5168,1697.0477 -173.9376,-88.9181"
       id="path13"
       inkscape:connector-curvature="0"
       style="fill-rule:evenodd;stroke:#666666;stroke-width:4;stroke-linecap:butt;stroke-linejoin:round" />
    <path
       d="m 1877.5865,1602.2467 -19.1702,-2.3798 13.1556,14.1454 z"
       id="path15"
       inkscape:connector-curvature="0"
       style="fill:#666666;fill-rule:evenodd;stroke:#666666;stroke-width:4;stroke-linecap:butt" />
    <path
       d="m 1795.4042,1864.6447 v 0 c 0,13.9594 12.5573,25.2756 28.0472,25.2756 v 0 c 15.4902,0 28.0473,-11.3162 28.0473,-25.2756 v 0 c 0,-13.9592 -12.5571,-25.2755 -28.0473,-25.2755 v 0 c -15.4899,0 -28.0472,11.3163 -28.0472,25.2755 z"
       id="path17"
       inkscape:connector-curvature="0"
       style="fill:#d9ead3;fill-rule:evenodd" />
    <path
       d="m 1795.4042,1864.6447 v 0 c 0,13.9594 12.5573,25.2756 28.0472,25.2756 v 0 c 15.4902,0 28.0473,-11.3162 28.0473,-25.2756 v 0 c 0,-13.9592 -12.5571,-25.2755 -28.0473,-25.2755 v 0 c -15.4899,0 -28.0472,11.3163 -28.0472,25.2755 z"
       id="path19"
       inkscape:connector-curvature="0"
       style="fill-rule:evenodd;stroke:#666666;stroke-width:8;stroke-linecap:butt;stroke-linejoin:round" />
    <path
       d="m 1797.1129,1597.1959 v 0 c 0,13.9592 12.5571,25.2755 28.0472,25.2755 v 0 c 15.49,0 28.0473,-11.3163 28.0473,-25.2755 v 0 c 0,-13.9594 -12.5573,-25.2756 -28.0473,-25.2756 v 0 c -15.4901,0 -28.0472,11.3162 -28.0472,25.2756 z"
       id="path21"
       inkscape:connector-curvature="0"
       style="fill:#c9daf8;fill-rule:evenodd" />
    <path
       d="m 1797.1129,1597.1959 v 0 c 0,13.9592 12.5571,25.2755 28.0472,25.2755 v 0 c 15.49,0 28.0473,-11.3163 28.0473,-25.2755 v 0 c 0,-13.9594 -12.5573,-25.2756 -28.0473,-25.2756 v 0 c -15.4901,0 -28.0472,11.3162 -28.0472,25.2756 z"
       id="path23"
       inkscape:connector-curvature="0"
       style="fill-rule:evenodd;stroke:#666666;stroke-width:8;stroke-linecap:butt;stroke-linejoin:round" />
    <path
       d="m 1843.2838,1846.7721 205.2284,-113.9842"
       id="path25"
       inkscape:connector-curvature="0"
       style="fill:#000000;fill-opacity:0;fill-rule:evenodd" />
    <path
       d="m 1864.2649,1835.1191 184.2473,-102.3313"
       id="path27"
       inkscape:connector-curvature="0"
       style="fill-rule:evenodd;stroke:#666666;stroke-width:4;stroke-linecap:butt;stroke-linejoin:round" />
    <path
       d="m 1861.057,1829.3433 -12.6611,14.5896 19.077,-3.0378 z"
       id="path29"
       inkscape:connector-curvature="0"
       style="fill:#666666;fill-rule:evenodd;stroke:#666666;stroke-width:4;stroke-linecap:butt" />
    <path
       d="m 1823.4514,1839.3691 1.7008,-216.882"
       id="path31"
       inkscape:connector-curvature="0"
       style="fill:#000000;fill-opacity:0;fill-rule:evenodd" />
    <path
       d="m 1823.4514,1839.3691 1.5127,-192.8828"
       id="path33"
       inkscape:connector-curvature="0"
       style="fill-rule:evenodd;stroke:#666666;stroke-width:4;stroke-linecap:butt;stroke-linejoin:round" />
    <path
       d="m 1831.5708,1646.5383 -6.4645,-18.2037 -6.749,18.1001 z"
       id="path35"
       inkscape:connector-curvature="0"
       style="fill:#666666;fill-rule:evenodd;stroke:#666666;stroke-width:4;stroke-linecap:butt" />
    <path
       d="m 2088.1814,1697.0477 202.7402,-102.7716"
       id="path37"
       inkscape:connector-curvature="0"
       style="fill:#000000;fill-opacity:0;fill-rule:evenodd" />
    <path
       d="m 2088.1814,1697.0477 181.3335,-91.9203"
       id="path39"
       inkscape:connector-curvature="0"
       style="fill-rule:evenodd;stroke:#666666;stroke-width:4;stroke-linecap:butt;stroke-linejoin:round" />
    <path
       d="m 2272.5022,1611.0205 13.2036,-14.1005 -19.1782,2.3144 z"
       id="path41"
       inkscape:connector-curvature="0"
       style="fill:#666666;fill-rule:evenodd;stroke:#666666;stroke-width:4;stroke-linecap:butt" />
    <path
       d="m 2348.7244,1861.7366 v 0 c 0,13.9594 -12.5571,25.2755 -28.0471,25.2755 v 0 c -15.4903,0 -28.0474,-11.3161 -28.0474,-25.2755 v 0 c 0,-13.9594 12.5571,-25.2756 28.0474,-25.2756 v 0 c 15.49,0 28.0471,11.3162 28.0471,25.2756 z"
       id="path43"
       inkscape:connector-curvature="0"
       style="fill:#fce5cd;fill-rule:evenodd" />
    <path
       d="m 2348.7244,1861.7366 v 0 c 0,13.9594 -12.5571,25.2755 -28.0471,25.2755 v 0 c -15.4903,0 -28.0474,-11.3161 -28.0474,-25.2755 v 0 c 0,-13.9594 12.5571,-25.2756 28.0474,-25.2756 v 0 c 15.49,0 28.0471,11.3162 28.0471,25.2756 z"
       id="path45"
       inkscape:connector-curvature="0"
       style="fill-rule:evenodd;stroke:#666666;stroke-width:8;stroke-linecap:butt;stroke-linejoin:round" />
    <path
       d="m 2347.0159,1594.2877 v 0 c 0,13.9594 -12.5574,25.2756 -28.0474,25.2756 v 0 c -15.49,0 -28.0473,-11.3162 -28.0473,-25.2756 v 0 c 0,-13.9594 12.5573,-25.2756 28.0473,-25.2756 v 0 c 15.49,0 28.0474,11.3162 28.0474,25.2756 z"
       id="path47"
       inkscape:connector-curvature="0"
       style="fill:#c9daf8;fill-rule:evenodd" />
    <path
       d="m 2347.0159,1594.2877 v 0 c 0,13.9594 -12.5574,25.2756 -28.0474,25.2756 v 0 c -15.49,0 -28.0473,-11.3162 -28.0473,-25.2756 v 0 c 0,-13.9594 12.5573,-25.2756 28.0473,-25.2756 v 0 c 15.49,0 28.0474,11.3162 28.0474,25.2756 z"
       id="path49"
       inkscape:connector-curvature="0"
       style="fill-rule:evenodd;stroke:#666666;stroke-width:8;stroke-linecap:butt;stroke-linejoin:round" />
    <path
       d="M 2300.8447,1843.864 2095.6164,1729.8798"
       id="path51"
       inkscape:connector-curvature="0"
       style="fill:#000000;fill-opacity:0;fill-rule:evenodd" />
    <path
       d="M 2300.8447,1843.864 2116.5976,1741.5328"
       id="path53"
       inkscape:connector-curvature="0"
       style="fill-rule:evenodd;stroke:#666666;stroke-width:4;stroke-linecap:butt;stroke-linejoin:round" />
    <path
       d="m 2119.8054,1735.7568 -19.0769,-3.0378 12.6611,14.5896 z"
       id="path55"
       inkscape:connector-curvature="0"
       style="fill:#666666;fill-rule:evenodd;stroke:#666666;stroke-width:4;stroke-linecap:butt" />
    <path
       d="m 2320.6772,1836.4609 -1.7009,-216.8818"
       id="path57"
       inkscape:connector-curvature="0"
       style="fill:#000000;fill-opacity:0;fill-rule:evenodd" />
    <path
       d="m 2320.6772,1836.4609 -1.5127,-192.8827"
       id="path59"
       inkscape:connector-curvature="0"
       style="fill-rule:evenodd;stroke:#666666;stroke-width:4;stroke-linecap:butt;stroke-linejoin:round" />
    <path
       d="m 2325.7712,1643.5265 -6.749,-18.1 -6.4644,18.2036 z"
       id="path61"
       inkscape:connector-curvature="0"
       style="fill:#666666;fill-rule:evenodd;stroke:#666666;stroke-width:4;stroke-linecap:butt" />
    <path
       d="m 2036.1129,1685.8346 h 64.4723 v 50.3308 h -64.4723 z"
       id="path63"
       inkscape:connector-curvature="0"
       style="fill:#000000;fill-opacity:0;fill-rule:evenodd" />
    <path
       d="m 2069.4897,1720.3638 q -2.6719,2.3594 -4.7969,2.3594 -1.25,0 -2.0781,-0.8125 -0.8281,-0.8281 -0.8281,-2.0625 0,-1.6719 1.4375,-3 1.4375,-1.3438 6.2656,-3.5625 v -1.4688 q 0,-1.6562 -0.1875,-2.0781 -0.1719,-0.4375 -0.6719,-0.75 -0.5,-0.3281 -1.125,-0.3281 -1.0156,0 -1.6718,0.4531 -0.4063,0.2813 -0.4063,0.6563 0,0.3281 0.4375,0.8125 0.5938,0.6718 0.5938,1.2968 0,0.7657 -0.5782,1.3125 -0.5625,0.5313 -1.4843,0.5313 -0.9844,0 -1.6563,-0.5938 -0.6562,-0.5937 -0.6562,-1.3906 0,-1.125 0.8906,-2.1406 0.8906,-1.0313 2.4844,-1.5781 1.5937,-0.5469 3.3125,-0.5469 2.0781,0 3.2812,0.8906 1.2188,0.875 1.5781,1.9063 0.2188,0.6562 0.2188,3.0156 v 5.6719 q 0,1 0.078,1.2656 0.078,0.25 0.2344,0.375 0.1562,0.125 0.3594,0.125 0.4062,0 0.8281,-0.5781 l 0.4687,0.375 q -0.7812,1.1562 -1.625,1.6875 -0.8281,0.5156 -1.8906,0.5156 -1.25,0 -1.9531,-0.5781 -0.7031,-0.5938 -0.8594,-1.7813 z m 0,-1.1406 v -4.8906 q -1.8906,1.1093 -2.8125,2.375 -0.6094,0.8437 -0.6094,1.7031 0,0.7187 0.5157,1.2656 0.3906,0.4219 1.0937,0.4219 0.7813,0 1.8125,-0.875 z"
       id="path65"
       inkscape:connector-curvature="0"
       style="fill:#000000;fill-rule:nonzero" />
    <path
       d="m 1791.4436,1835.5591 h 64.4724 v 55.118 h -64.4724 z"
       id="path67"
       inkscape:connector-curvature="0"
       style="fill:#000000;fill-opacity:0;fill-rule:evenodd" />
    <path
       d="m 1821.5157,1853.4506 v 8.0469 q 1.8438,-1.9063 4.0313,-1.9063 1.5,0 2.8281,0.8906 1.3281,0.875 2.0781,2.5 0.75,1.625 0.75,3.75 0,2.3907 -0.9531,4.3438 -0.9531,1.9531 -2.5469,2.9844 -1.5937,1.0156 -3.6406,1.0156 -1.1875,0 -2.1094,-0.375 -0.9219,-0.375 -1.8125,-1.2188 l -2.4219,1.5782 h -0.5312 v -18.5782 q 0,-1.2656 -0.1094,-1.5625 -0.1562,-0.4375 -0.5,-0.6406 -0.3281,-0.2187 -1.125,-0.25 v -0.5781 z m 0,9.4375 v 6.5 q 0,1.9844 0.094,2.5312 0.1562,0.9219 0.75,1.5 0.5937,0.5625 1.5156,0.5625 0.7969,0 1.3594,-0.4531 0.5781,-0.4531 0.9531,-1.7969 0.3906,-1.3437 0.3906,-4.8437 0,-3.3594 -0.8437,-4.6094 -0.6094,-0.9062 -1.6407,-0.9062 -1.3437,0 -2.5781,1.5156 z"
       id="path69"
       inkscape:connector-curvature="0"
       style="fill:#000000;fill-rule:nonzero" />
    <path
       d="m 1792.9238,1565.2021 h 64.4725 v 53.1968 h -64.4725 z"
       id="path71"
       inkscape:connector-curvature="0"
       style="fill:#000000;fill-opacity:0;fill-rule:evenodd" />
    <path
       d="m 1831.0586,1599.5549 0.4844,0.375 q -1.0313,1.9375 -2.5781,2.8906 -1.5313,0.9375 -3.2657,0.9375 -2.9218,0 -4.6718,-2.2031 -1.75,-2.2031 -1.75,-5.2969 0,-2.9843 1.5937,-5.25 1.9219,-2.7343 5.2969,-2.7343 2.2656,0 3.5937,1.1406 1.3438,1.1406 1.3438,2.5469 0,0.8906 -0.5469,1.4218 -0.5312,0.5313 -1.4062,0.5313 -0.9219,0 -1.5313,-0.6094 -0.5937,-0.6094 -0.7344,-2.1719 -0.094,-0.9843 -0.4531,-1.375 -0.3594,-0.3906 -0.8437,-0.3906 -0.75,0 -1.2813,0.7969 -0.8125,1.2031 -0.8125,3.6875 0,2.0625 0.6563,3.9531 0.6562,1.875 1.7968,2.7969 0.8594,0.6719 2.0313,0.6719 0.7656,0 1.4531,-0.3594 0.6875,-0.3594 1.625,-1.3594 z"
       id="path73"
       inkscape:connector-curvature="0"
       style="fill:#000000;fill-rule:nonzero" />
    <path
       d="m 2287.5906,1831.895 h 64.4724 v 55.1182 h -64.4724 z"
       id="path75"
       inkscape:connector-curvature="0"
       style="fill:#000000;fill-opacity:0;fill-rule:evenodd" />
    <path
       d="m 2326.2095,1849.7866 v 16.8125 q 0,1.7031 0.094,2.0156 0.125,0.5157 0.4687,0.7657 0.3594,0.25 1.2344,0.3125 v 0.5156 l -6.1719,1.2031 v -2.3125 q -1.1094,1.3438 -1.9844,1.8281 -0.8593,0.4844 -1.9531,0.4844 -2.7969,0 -4.4219,-2.5 -1.3125,-2.0312 -1.3125,-4.9844 0,-2.3593 0.8125,-4.2187 0.8125,-1.875 2.2188,-2.8281 1.4219,-0.9532 3.0469,-0.9532 1.0468,0 1.8593,0.4063 0.8125,0.4062 1.7344,1.4219 v -4.4063 q 0,-1.6719 -0.1406,-2.0156 -0.1875,-0.4531 -0.5625,-0.6719 -0.375,-0.2187 -1.4063,-0.2187 v -0.6563 z m -4.375,9.9063 q -1.1562,-2.2188 -2.8281,-2.2188 -0.5781,0 -0.9531,0.3125 -0.5782,0.4844 -0.9532,1.7031 -0.3593,1.2188 -0.3593,3.7344 0,2.7656 0.4062,4.0938 0.4063,1.3281 1.1094,1.9218 0.3594,0.2969 0.9844,0.2969 1.375,0 2.5937,-2.1562 z"
       id="path77"
       inkscape:connector-curvature="0"
       style="fill:#000000;fill-rule:nonzero" />
    <path
       d="m 2287.5906,1565.2021 h 64.4724 v 50.3307 h -64.4724 z"
       id="path79"
       inkscape:connector-curvature="0"
       style="fill:#000000;fill-opacity:0;fill-rule:evenodd" />
    <path
       d="m 2326.1782,1594.0593 h -8.0156 q 0.1406,2.9062 1.5468,4.5937 1.0782,1.2969 2.5938,1.2969 0.9375,0 1.7031,-0.5156 0.7656,-0.5313 1.6406,-1.8906 l 0.5313,0.3437 q -1.1875,2.4219 -2.625,3.4375 -1.4375,1 -3.3281,1 -3.25,0 -4.9219,-2.5 -1.3438,-2.0156 -1.3438,-5 0,-3.6562 1.9688,-5.8125 1.9844,-2.1719 4.6406,-2.1719 2.2188,0 3.8438,1.8282 1.6406,1.8125 1.7656,5.3906 z m -3.8438,-1.0469 q 0,-2.5156 -0.2812,-3.4531 -0.2656,-0.9375 -0.8438,-1.4219 -0.3281,-0.2812 -0.875,-0.2812 -0.8125,0 -1.3281,0.7968 -0.9219,1.3907 -0.9219,3.8125 v 0.5469 z"
       id="path81"
       inkscape:connector-curvature="0"
       style="fill:#000000;fill-rule:nonzero" />
    <path
       d="m 2015.9384,1749.0052 h 112.2518 v 54.9291 h -112.2518 z"
       id="path83"
       inkscape:connector-curvature="0"
       style="fill:#000000;fill-opacity:0;fill-rule:evenodd" />
    <path
       d="m 2040.3584,1777.3215 v 5.4375 q 0,1.5781 0.1875,1.9844 0.1875,0.4062 0.6719,0.6562 0.5,0.2344 1.8281,0.2344 v 0.5313 h -9.9375 v -0.5313 q 1.3438,0 1.8125,-0.25 0.4844,-0.25 0.6719,-0.6406 0.2031,-0.4063 0.2031,-1.9844 v -12.6094 q 0,-1.5625 -0.2031,-1.9687 -0.1875,-0.4219 -0.6719,-0.6563 -0.4844,-0.25 -1.8125,-0.25 v -0.5312 h 9.0156 q 3.5313,0 5.1563,0.5 1.6406,0.4844 2.6719,1.7969 1.0312,1.2968 1.0312,3.0625 0,2.1406 -1.5469,3.5468 -1,0.8907 -2.7656,1.3438 l 4.6719,6.5625 q 0.9062,1.2812 1.2969,1.5937 0.5937,0.4375 1.3593,0.4844 v 0.5313 h -6.1093 l -6.2657,-8.8438 z m 0,-9.5312 v 8.5156 h 0.8125 q 1.9844,0 2.9688,-0.3594 1,-0.375 1.5625,-1.3281 0.5625,-0.9531 0.5625,-2.4844 0,-2.2187 -1.0469,-3.2812 -1.0313,-1.0625 -3.3281,-1.0625 z m 20.6799,4.5781 q 1.75,0 3.25,0.9062 1.5157,0.9063 2.2969,2.5782 0.7813,1.6562 0.7813,3.625 0,2.8437 -1.4532,4.7656 -1.75,2.3281 -4.8281,2.3281 -3.0156,0 -4.6562,-2.125 -1.625,-2.125 -1.625,-4.9062 0,-2.8907 1.6562,-5.0313 1.6719,-2.1406 4.5781,-2.1406 z m 0.062,1.0156 q -0.7343,0 -1.2656,0.5625 -0.5156,0.5469 -0.6875,2.1719 -0.1562,1.625 -0.1562,4.5156 0,1.5313 0.2031,2.875 0.1562,1.0156 0.6719,1.5469 0.5156,0.5156 1.1718,0.5156 0.6563,0 1.0782,-0.3437 0.5625,-0.5 0.75,-1.375 0.2812,-1.3594 0.2812,-5.4844 0,-2.4375 -0.2812,-3.3438 -0.2657,-0.9218 -0.7969,-1.3281 -0.3594,-0.3125 -0.9688,-0.3125 z m 13.5391,-6.6406 v 16.6406 q 0,1.4219 0.3281,1.8125 0.3281,0.3906 1.2813,0.4531 v 0.5157 h -7.2344 v -0.5157 q 0.8906,-0.031 1.3281,-0.5156 0.2813,-0.3281 0.2813,-1.75 v -13.8594 q 0,-1.4062 -0.3282,-1.7968 -0.3281,-0.3907 -1.2812,-0.4532 v -0.5312 z m 14.2419,12.25 h -7.3437 q 0.125,2.6562 1.4219,4.2031 0.9843,1.1875 2.375,1.1875 0.8593,0 1.5625,-0.4687 0.7031,-0.4844 1.5,-1.7344 l 0.4843,0.3125 q -1.0937,2.2187 -2.4062,3.1562 -1.3125,0.9219 -3.0469,0.9219 -2.9844,0 -4.5156,-2.2969 -1.2344,-1.8437 -1.2344,-4.5781 0,-3.3594 1.8125,-5.3437 1.8125,-1.9844 4.25,-1.9844 2.0313,0 3.5313,1.6719 1.5,1.6718 1.6093,4.9531 z m -3.5156,-0.9688 q 0,-2.2968 -0.25,-3.1562 -0.25,-0.8594 -0.7812,-1.3125 -0.3125,-0.25 -0.8125,-0.25 -0.7344,0 -1.2188,0.7344 -0.8437,1.2656 -0.8437,3.4843 v 0.5 z m 21.0838,-11.6718 v 15.875 q 0,1.7968 0.1562,2.2968 0.1563,0.4844 0.6563,0.7969 0.5156,0.3125 1.6093,0.3125 h 0.4532 v 0.5313 h -10.2344 v -0.5313 h 0.5156 q 1.25,0 1.7813,-0.2812 0.5312,-0.2969 0.7187,-0.7969 0.1875,-0.5 0.1875,-2.3281 v -10.0625 q 0,-1.3438 -0.1406,-1.6875 -0.125,-0.3438 -0.4844,-0.5782 -0.3437,-0.2343 -0.7969,-0.2343 -0.7343,0 -1.7812,0.4687 l -0.25,-0.5156 7.1406,-3.2656 z"
       id="path85"
       inkscape:connector-curvature="0"
       style="fill:#e69138;fill-rule:nonzero" />
    <path
       d="m 1679.9357,1834.273 h 112.252 v 54.9292 h -112.252 z"
       id="path87"
       inkscape:connector-curvature="0"
       style="fill:#000000;fill-opacity:0;fill-rule:evenodd" />
    <path
       d="m 1704.3558,1862.5892 v 5.4375 q 0,1.5781 0.1875,1.9844 0.1875,0.4062 0.6719,0.6562 0.5,0.2344 1.8281,0.2344 v 0.5312 h -9.9375 v -0.5312 q 1.3438,0 1.8125,-0.25 0.4844,-0.25 0.6719,-0.6406 0.2031,-0.4063 0.2031,-1.9844 v -12.6094 q 0,-1.5625 -0.2031,-1.9687 -0.1875,-0.4219 -0.6719,-0.6563 -0.4844,-0.25 -1.8125,-0.25 v -0.5312 h 9.0156 q 3.5313,0 5.1563,0.5 1.6406,0.4843 2.6719,1.7968 1.0312,1.2969 1.0312,3.0625 0,2.1407 -1.5469,3.5469 -1,0.8906 -2.7656,1.3438 l 4.6719,6.5625 q 0.9062,1.2812 1.2969,1.5937 0.5937,0.4375 1.3593,0.4844 v 0.5312 h -6.1093 l -6.2657,-8.8437 z m 0,-9.5313 v 8.5157 h 0.8125 q 1.9844,0 2.9688,-0.3594 1,-0.375 1.5625,-1.3281 0.5625,-0.9532 0.5625,-2.4844 0,-2.2188 -1.0469,-3.2813 -1.0313,-1.0625 -3.3281,-1.0625 z m 20.6798,4.5782 q 1.75,0 3.25,0.9062 1.5156,0.9063 2.2969,2.5781 0.7812,1.6563 0.7812,3.625 0,2.8438 -1.4531,4.7657 -1.75,2.3281 -4.8281,2.3281 -3.0156,0 -4.6563,-2.125 -1.625,-2.125 -1.625,-4.9063 0,-2.8906 1.6563,-5.0312 1.6719,-2.1406 4.5781,-2.1406 z m 0.062,1.0156 q -0.7344,0 -1.2656,0.5625 -0.5156,0.5469 -0.6875,2.1719 -0.1563,1.625 -0.1563,4.5156 0,1.5312 0.2032,2.875 0.1562,1.0156 0.6718,1.5469 0.5157,0.5156 1.1719,0.5156 0.6563,0 1.0781,-0.3438 0.5625,-0.5 0.75,-1.375 0.2813,-1.3593 0.2813,-5.4843 0,-2.4375 -0.2813,-3.3438 -0.2656,-0.9219 -0.7968,-1.3281 -0.3594,-0.3125 -0.9688,-0.3125 z m 13.5391,-6.6406 v 16.6406 q 0,1.4219 0.3281,1.8125 0.3281,0.3906 1.2812,0.4531 v 0.5156 h -7.2343 v -0.5156 q 0.8906,-0.031 1.3281,-0.5156 0.2812,-0.3281 0.2812,-1.75 v -13.8594 q 0,-1.4062 -0.3281,-1.7969 -0.3281,-0.3906 -1.2812,-0.4531 v -0.5312 z m 14.242,12.25 h -7.3437 q 0.125,2.6562 1.4219,4.2031 0.9843,1.1875 2.375,1.1875 0.8593,0 1.5625,-0.4688 0.7031,-0.4843 1.5,-1.7343 l 0.4843,0.3125 q -1.0937,2.2187 -2.4062,3.1562 -1.3125,0.9219 -3.0469,0.9219 -2.9844,0 -4.5156,-2.2969 -1.2344,-1.8437 -1.2344,-4.5781 0,-3.3594 1.8125,-5.3438 1.8125,-1.9843 4.25,-1.9843 2.0313,0 3.5313,1.6718 1.5,1.6719 1.6093,4.9532 z m -3.5156,-0.9688 q 0,-2.2969 -0.25,-3.1562 -0.25,-0.8594 -0.7812,-1.3125 -0.3125,-0.25 -0.8125,-0.25 -0.7344,0 -1.2188,0.7343 -0.8437,1.2657 -0.8437,3.4844 v 0.5 z m 23.6774,8.1406 h -11.4219 v -0.3125 q 5.25,-6.2656 6.375,-8.4218 1.125,-2.1563 1.125,-4.2188 0,-1.5156 -0.9375,-2.5 -0.9219,-1 -2.2656,-1 -2.2031,0 -3.4219,2.2031 l -0.5312,-0.1875 q 0.7656,-2.75 2.3437,-4.0625 1.5781,-1.3125 3.6406,-1.3125 1.4688,0 2.6875,0.6875 1.2188,0.6875 1.9063,1.8907 0.6875,1.1875 0.6875,2.2343 0,1.8907 -1.0625,3.8594 -1.4375,2.6563 -6.3125,7.3906 h 4.2031 q 1.5469,0 2,-0.125 0.4688,-0.1406 0.7656,-0.4375 0.3125,-0.3125 0.7969,-1.2968 h 0.5156 z"
       id="path89"
       inkscape:connector-curvature="0"
       style="fill:#6aa84f;fill-rule:nonzero" />
    <path
       d="m 1684.8569,1569.7323 h 112.252 v 54.9291 h -112.252 z"
       id="path91"
       inkscape:connector-curvature="0"
       style="fill:#000000;fill-opacity:0;fill-rule:evenodd" />
    <path
       d="m 1709.2771,1598.0486 v 5.4375 q 0,1.5781 0.1875,1.9844 0.1875,0.4062 0.6719,0.6562 0.5,0.2344 1.8281,0.2344 v 0.5313 h -9.9375 v -0.5313 q 1.3438,0 1.8125,-0.25 0.4844,-0.25 0.6719,-0.6406 0.2031,-0.4063 0.2031,-1.9844 v -12.6094 q 0,-1.5625 -0.2031,-1.9687 -0.1875,-0.4219 -0.6719,-0.6563 -0.4844,-0.25 -1.8125,-0.25 v -0.5312 h 9.0156 q 3.5313,0 5.1563,0.5 1.6406,0.4844 2.6719,1.7969 1.0312,1.2968 1.0312,3.0625 0,2.1406 -1.5469,3.5468 -1,0.8907 -2.7656,1.3438 l 4.6719,6.5625 q 0.9062,1.2812 1.2969,1.5937 0.5937,0.4375 1.3593,0.4844 v 0.5313 h -6.1093 l -6.2657,-8.8438 z m 0,-9.5312 v 8.5156 h 0.8125 q 1.9844,0 2.9688,-0.3594 1,-0.375 1.5625,-1.3281 0.5625,-0.9531 0.5625,-2.4844 0,-2.2187 -1.0469,-3.2812 -1.0313,-1.0625 -3.3281,-1.0625 z m 20.6798,4.5781 q 1.75,0 3.25,0.9062 1.5156,0.9063 2.2969,2.5782 0.7812,1.6562 0.7812,3.625 0,2.8437 -1.4531,4.7656 -1.75,2.3281 -4.8281,2.3281 -3.0156,0 -4.6563,-2.125 -1.625,-2.125 -1.625,-4.9062 0,-2.8907 1.6563,-5.0313 1.6719,-2.1406 4.5781,-2.1406 z m 0.062,1.0156 q -0.7344,0 -1.2656,0.5625 -0.5156,0.5469 -0.6875,2.1719 -0.1563,1.625 -0.1563,4.5156 0,1.5313 0.2032,2.875 0.1562,1.0156 0.6718,1.5469 0.5157,0.5156 1.1719,0.5156 0.6563,0 1.0781,-0.3437 0.5625,-0.5 0.75,-1.375 0.2813,-1.3594 0.2813,-5.4844 0,-2.4375 -0.2813,-3.3438 -0.2656,-0.9218 -0.7968,-1.3281 -0.3594,-0.3125 -0.9688,-0.3125 z m 13.5391,-6.6406 v 16.6406 q 0,1.4219 0.3281,1.8125 0.3281,0.3906 1.2812,0.4531 v 0.5157 h -7.2343 v -0.5157 q 0.8906,-0.031 1.3281,-0.5156 0.2812,-0.3281 0.2812,-1.75 v -13.8594 q 0,-1.4062 -0.3281,-1.7968 -0.3281,-0.3907 -1.2812,-0.4532 v -0.5312 z m 14.242,12.25 h -7.3437 q 0.125,2.6562 1.4219,4.2031 0.9843,1.1875 2.375,1.1875 0.8593,0 1.5625,-0.4687 0.7031,-0.4844 1.5,-1.7344 l 0.4843,0.3125 q -1.0937,2.2187 -2.4062,3.1562 -1.3125,0.9219 -3.0469,0.9219 -2.9844,0 -4.5156,-2.2969 -1.2344,-1.8437 -1.2344,-4.5781 0,-3.3594 1.8125,-5.3437 1.8125,-1.9844 4.25,-1.9844 2.0313,0 3.5313,1.6719 1.5,1.6718 1.6093,4.9531 z m -3.5156,-0.9688 q 0,-2.2968 -0.25,-3.1562 -0.25,-0.8594 -0.7812,-1.3125 -0.3125,-0.25 -0.8125,-0.25 -0.7344,0 -1.2188,0.7344 -0.8437,1.2656 -0.8437,3.4843 v 0.5 z m 15.8805,-1.5937 v -0.5 q 1.625,-0.4844 2.25,-0.8906 0.6406,-0.4063 1.0938,-1.2344 0.4531,-0.8438 0.4531,-1.7031 0,-1.1875 -0.8594,-2.0313 -0.8594,-0.8594 -2.1562,-0.8594 -2,0 -3.4063,2.125 l -0.5312,-0.1875 q 1.0312,-2.3906 2.6406,-3.5937 1.6094,-1.2031 3.5937,-1.2031 2.0157,0 3.3282,1.2343 1.3125,1.2188 1.3125,2.875 0,1.0625 -0.6094,2.0625 -0.6094,1 -1.9219,1.75 1.6875,0.8282 2.5625,2.0313 0.875,1.1875 0.875,2.9844 0,3.0312 -2.2031,5.1718 -2.1875,2.125 -5.875,2.125 -2.4688,0 -3.6094,-0.8281 -0.8125,-0.5625 -0.8125,-1.4687 0,-0.6563 0.4688,-1.125 0.4843,-0.4688 1.0937,-0.4688 0.4688,0 0.8906,0.2031 0.2344,0.1094 1.625,1.25 1.3907,1.1407 2.6094,1.1407 1.0625,0 1.8125,-0.8282 0.7656,-0.8437 0.7656,-2.1406 0,-1.9531 -1.375,-3.6094 -1.375,-1.6562 -4.0156,-2.2812 z"
       id="path93"
       inkscape:connector-curvature="0"
       style="fill:#3c78d8;fill-rule:nonzero" />
    <path
       d="m 2015.626,1784.4409 h 112.252 v 54.9292 h -112.252 z"
       id="path95"
       inkscape:connector-curvature="0"
       style="fill:#000000;fill-opacity:0;fill-rule:evenodd" />
    <path
       d="m 2040.0461,1812.7572 v 5.4375 q 0,1.5781 0.1875,1.9844 0.1875,0.4062 0.6719,0.6562 0.5,0.2344 1.8281,0.2344 v 0.5313 h -9.9375 v -0.5313 q 1.3438,0 1.8125,-0.25 0.4844,-0.25 0.6719,-0.6406 0.2031,-0.4063 0.2031,-1.9844 v -12.6094 q 0,-1.5625 -0.2031,-1.9687 -0.1875,-0.4219 -0.6719,-0.6563 -0.4844,-0.25 -1.8125,-0.25 v -0.5312 h 9.0156 q 3.5313,0 5.1563,0.5 1.6406,0.4844 2.6719,1.7969 1.0312,1.2968 1.0312,3.0625 0,2.1406 -1.5469,3.5468 -1,0.8907 -2.7656,1.3438 l 4.6719,6.5625 q 0.9062,1.2812 1.2969,1.5937 0.5937,0.4375 1.3593,0.4844 v 0.5313 h -6.1093 l -6.2657,-8.8438 z m 0,-9.5312 v 8.5156 h 0.8125 q 1.9844,0 2.9688,-0.3594 1,-0.375 1.5625,-1.3281 0.5625,-0.9531 0.5625,-2.4844 0,-2.2187 -1.0469,-3.2812 -1.0313,-1.0625 -3.3281,-1.0625 z m 20.6797,4.5781 q 1.75,0 3.25,0.9062 1.5156,0.9063 2.2969,2.5782 0.7812,1.6562 0.7812,3.625 0,2.8437 -1.4531,4.7656 -1.75,2.3281 -4.8281,2.3281 -3.0157,0 -4.6563,-2.125 -1.625,-2.125 -1.625,-4.9062 0,-2.8907 1.6563,-5.0313 1.6718,-2.1406 4.5781,-2.1406 z m 0.062,1.0156 q -0.7344,0 -1.2656,0.5625 -0.5157,0.5469 -0.6875,2.1719 -0.1563,1.625 -0.1563,4.5156 0,1.5313 0.2031,2.875 0.1563,1.0156 0.6719,1.5469 0.5156,0.5156 1.1719,0.5156 0.6562,0 1.0781,-0.3437 0.5625,-0.5 0.75,-1.375 0.2813,-1.3594 0.2813,-5.4844 0,-2.4375 -0.2813,-3.3438 -0.2656,-0.9218 -0.7969,-1.3281 -0.3593,-0.3125 -0.9687,-0.3125 z m 13.5391,-6.6406 v 16.6406 q 0,1.4219 0.3281,1.8125 0.3281,0.3906 1.2812,0.4531 v 0.5157 h -7.2343 v -0.5157 q 0.8906,-0.031 1.3281,-0.5156 0.2812,-0.3281 0.2812,-1.75 v -13.8594 q 0,-1.4062 -0.3281,-1.7968 -0.3281,-0.3907 -1.2812,-0.4532 v -0.5312 z m 14.2421,12.25 h -7.3437 q 0.125,2.6562 1.4219,4.2031 0.9843,1.1875 2.375,1.1875 0.8593,0 1.5625,-0.4687 0.7031,-0.4844 1.5,-1.7344 l 0.4843,0.3125 q -1.0937,2.2187 -2.4062,3.1562 -1.3125,0.9219 -3.0469,0.9219 -2.9844,0 -4.5156,-2.2969 -1.2344,-1.8437 -1.2344,-4.5781 0,-3.3594 1.8125,-5.3437 1.8125,-1.9844 4.25,-1.9844 2.0313,0 3.5313,1.6719 1.5,1.6718 1.6093,4.9531 z m -3.5156,-0.9688 q 0,-2.2968 -0.25,-3.1562 -0.25,-0.8594 -0.7812,-1.3125 -0.3125,-0.25 -0.8125,-0.25 -0.7344,0 -1.2188,0.7344 -0.8437,1.2656 -0.8437,3.4843 v 0.5 z m 23.6773,8.1407 h -11.4219 v -0.3125 q 5.25,-6.2657 6.375,-8.4219 1.125,-2.1563 1.125,-4.2188 0,-1.5156 -0.9375,-2.5 -0.9219,-1 -2.2656,-1 -2.2032,0 -3.4219,2.2032 l -0.5313,-0.1875 q 0.7657,-2.75 2.3438,-4.0625 1.5781,-1.3125 3.6406,-1.3125 1.4688,0 2.6875,0.6875 1.2188,0.6875 1.9063,1.8906 0.6875,1.1875 0.6875,2.2344 0,1.8906 -1.0625,3.8593 -1.4375,2.6563 -6.3125,7.3907 h 4.2031 q 1.5469,0 2,-0.125 0.4687,-0.1407 0.7656,-0.4375 0.3125,-0.3125 0.7969,-1.2969 h 0.5156 z"
       id="path97"
       inkscape:connector-curvature="0"
       style="fill:#6aa84f;fill-rule:nonzero" />
    <path
       d="m 2180.3767,1835.8688 h 112.2519 v 54.9291 h -112.2519 z"
       id="path99"
       inkscape:connector-curvature="0"
       style="fill:#000000;fill-opacity:0;fill-rule:evenodd" />
    <path
       d="m 2204.7966,1864.185 v 5.4375 q 0,1.5781 0.1875,1.9844 0.1875,0.4062 0.6719,0.6562 0.5,0.2344 1.8281,0.2344 v 0.5313 h -9.9375 v -0.5313 q 1.3438,0 1.8125,-0.25 0.4844,-0.25 0.6719,-0.6406 0.2031,-0.4063 0.2031,-1.9844 v -12.6094 q 0,-1.5625 -0.2031,-1.9687 -0.1875,-0.4219 -0.6719,-0.6563 -0.4844,-0.25 -1.8125,-0.25 v -0.5312 h 9.0156 q 3.5313,0 5.1563,0.5 1.6406,0.4844 2.6719,1.7969 1.0312,1.2968 1.0312,3.0625 0,2.1406 -1.5469,3.5468 -1,0.8907 -2.7656,1.3438 l 4.6719,6.5625 q 0.9062,1.2812 1.2969,1.5937 0.5937,0.4375 1.3593,0.4844 v 0.5313 h -6.1093 l -6.2657,-8.8438 z m 0,-9.5312 v 8.5156 h 0.8125 q 1.9844,0 2.9688,-0.3594 1,-0.375 1.5625,-1.3281 0.5625,-0.9531 0.5625,-2.4844 0,-2.2187 -1.0469,-3.2812 -1.0313,-1.0625 -3.3281,-1.0625 z m 20.6799,4.5781 q 1.75,0 3.25,0.9062 1.5157,0.9063 2.2969,2.5782 0.7813,1.6562 0.7813,3.625 0,2.8437 -1.4532,4.7656 -1.75,2.3281 -4.8281,2.3281 -3.0156,0 -4.6562,-2.125 -1.625,-2.125 -1.625,-4.9062 0,-2.8907 1.6562,-5.0313 1.6719,-2.1406 4.5781,-2.1406 z m 0.062,1.0156 q -0.7343,0 -1.2656,0.5625 -0.5156,0.5469 -0.6875,2.1719 -0.1562,1.625 -0.1562,4.5156 0,1.5313 0.2031,2.875 0.1562,1.0156 0.6719,1.5469 0.5156,0.5156 1.1718,0.5156 0.6563,0 1.0782,-0.3437 0.5625,-0.5 0.75,-1.375 0.2812,-1.3594 0.2812,-5.4844 0,-2.4375 -0.2812,-3.3438 -0.2657,-0.9218 -0.7969,-1.3281 -0.3594,-0.3125 -0.9688,-0.3125 z m 13.5391,-6.6406 v 16.6406 q 0,1.4219 0.3281,1.8125 0.3281,0.3906 1.2813,0.4531 v 0.5157 h -7.2344 v -0.5157 q 0.8906,-0.031 1.3281,-0.5156 0.2813,-0.3281 0.2813,-1.75 v -13.8594 q 0,-1.4062 -0.3282,-1.7968 -0.3281,-0.3907 -1.2812,-0.4532 v -0.5312 z m 14.2422,12.25 h -7.3438 q 0.125,2.6562 1.4219,4.2031 0.9844,1.1875 2.375,1.1875 0.8594,0 1.5625,-0.4687 0.7031,-0.4844 1.5,-1.7344 l 0.4844,0.3125 q -1.0938,2.2187 -2.4063,3.1562 -1.3125,0.9219 -3.0468,0.9219 -2.9844,0 -4.5157,-2.2969 -1.2343,-1.8437 -1.2343,-4.5781 0,-3.3594 1.8125,-5.3437 1.8125,-1.9844 4.25,-1.9844 2.0312,0 3.5312,1.6719 1.5,1.6718 1.6094,4.9531 z m -3.5156,-0.9688 q 0,-2.2968 -0.25,-3.1562 -0.25,-0.8594 -0.7813,-1.3125 -0.3125,-0.25 -0.8125,-0.25 -0.7344,0 -1.2187,0.7344 -0.8438,1.2656 -0.8438,3.4843 v 0.5 z m 21.0835,-11.6718 v 15.875 q 0,1.7968 0.1562,2.2968 0.1563,0.4844 0.6563,0.7969 0.5156,0.3125 1.6093,0.3125 h 0.4532 v 0.5313 h -10.2344 v -0.5313 h 0.5156 q 1.25,0 1.7813,-0.2812 0.5312,-0.2969 0.7187,-0.7969 0.1875,-0.5 0.1875,-2.3281 v -10.0625 q 0,-1.3438 -0.1406,-1.6875 -0.125,-0.3438 -0.4844,-0.5782 -0.3437,-0.2343 -0.7969,-0.2343 -0.7343,0 -1.7812,0.4687 l -0.25,-0.5156 7.1406,-3.2656 z"
       id="path101"
       inkscape:connector-curvature="0"
       style="fill:#e69138;fill-rule:nonzero" />
    <path
       d="m 1864.9384,1683.5354 h 112.252 v 54.9292 h -112.252 z"
       id="path103"
       inkscape:connector-curvature="0"
       style="fill:#000000;fill-opacity:0;fill-rule:evenodd" />
    <path
       d="m 1891.2424,1702.3986 v 7.9688 h 0.5625 q 1.2813,0 2.0938,-0.375 0.8281,-0.3907 1.3906,-1.3125 0.5625,-0.9219 0.7344,-2.4844 h 0.5 v 9.7656 h -0.5 q -0.2657,-2.7656 -1.4844,-3.6406 -1.2031,-0.8906 -2.7344,-0.8906 h -0.5625 v 5.9375 q 0,1.5 0.1563,1.875 0.1718,0.3593 0.6406,0.6406 0.4844,0.2812 1.3125,0.2812 h 0.6406 v 0.5313 h -10.1562 v -0.5313 h 0.6406 q 0.8437,0 1.3594,-0.2968 0.375,-0.2032 0.5781,-0.6875 0.1562,-0.3438 0.1562,-1.8125 v -12.7657 q 0,-1.4843 -0.1562,-1.8593 -0.1563,-0.375 -0.6406,-0.6563 -0.4688,-0.2812 -1.2969,-0.2812 h -0.6406 v -0.5313 h 16.3906 v 5.5781 h -0.5938 q -0.2031,-1.9687 -1.0312,-2.9062 -0.8125,-0.9531 -2.375,-1.3438 -0.8594,-0.2031 -3.1875,-0.2031 z m 17.9148,0 v 7.9688 h 0.5625 q 1.2812,0 2.0937,-0.375 0.8282,-0.3907 1.3907,-1.3125 0.5625,-0.9219 0.7343,-2.4844 h 0.5 v 9.7656 h -0.5 q -0.2656,-2.7656 -1.4843,-3.6406 -1.2032,-0.8906 -2.7344,-0.8906 h -0.5625 v 5.9375 q 0,1.5 0.1562,1.875 0.1719,0.3593 0.6407,0.6406 0.4843,0.2812 1.3125,0.2812 h 0.6406 v 0.5313 h -10.1563 v -0.5313 h 0.6407 q 0.8437,0 1.3593,-0.2968 0.375,-0.2032 0.5782,-0.6875 0.1562,-0.3438 0.1562,-1.8125 v -12.7657 q 0,-1.4843 -0.1562,-1.8593 -0.1563,-0.375 -0.6407,-0.6563 -0.4687,-0.2812 -1.2968,-0.2812 h -0.6407 v -0.5313 h 16.3907 v 5.5781 h -0.5938 q -0.2031,-1.9687 -1.0312,-2.9062 -0.8125,-0.9531 -2.375,-1.3438 -0.8594,-0.2031 -3.1875,-0.2031 z m 28.3679,11.4844 -0.7344,6.8125 h -17.2343 v -0.5313 h 0.6406 q 0.8437,0 1.3594,-0.2968 0.375,-0.2032 0.5781,-0.6875 0.1562,-0.3438 0.1562,-1.8125 v -12.7657 q 0,-1.4843 -0.1562,-1.8593 -0.1563,-0.375 -0.6406,-0.6563 -0.4844,-0.2812 -1.2969,-0.2812 h -0.6406 v -0.5313 h 10.3437 v 0.5313 h -0.8437 q -0.8438,0 -1.3594,0.2968 -0.375,0.2032 -0.5781,0.6875 -0.1563,0.3438 -0.1563,1.8125 v 12.375 q 0,1.4844 0.1719,1.8907 0.1719,0.4062 0.6719,0.6093 0.3593,0.125 1.7343,0.125 h 1.6094 q 1.5469,0 2.5781,-0.5312 1.0313,-0.5469 1.7813,-1.7188 0.75,-1.1875 1.4219,-3.4687 z m 16.3064,-13 v 15.875 q 0,1.7969 0.1563,2.2969 0.1562,0.4843 0.6562,0.7968 0.5156,0.3125 1.6094,0.3125 h 0.4531 v 0.5313 h -10.2344 v -0.5313 h 0.5157 q 1.25,0 1.7812,-0.2812 0.5313,-0.2969 0.7188,-0.7969 0.1875,-0.5 0.1875,-2.3281 v -10.0625 q 0,-1.3438 -0.1407,-1.6875 -0.125,-0.3438 -0.4843,-0.5781 -0.3438,-0.2344 -0.7969,-0.2344 -0.7344,0 -1.7813,0.4687 l -0.25,-0.5156 7.1407,-3.2656 z"
       id="path105"
       inkscape:connector-curvature="0"
       style="fill:#666666;fill-rule:nonzero" />
    <path
       d="m 2180.378,1683.5354 h 112.252 v 54.9292 h -112.252 z"
       id="path107"
       inkscape:connector-curvature="0"
       style="fill:#000000;fill-opacity:0;fill-rule:evenodd" />
    <path
       d="m 2206.6821,1702.3986 v 7.9688 h 0.5625 q 1.2813,0 2.0938,-0.375 0.8281,-0.3907 1.3906,-1.3125 0.5625,-0.9219 0.7344,-2.4844 h 0.5 v 9.7656 h -0.5 q -0.2657,-2.7656 -1.4844,-3.6406 -1.2031,-0.8906 -2.7344,-0.8906 h -0.5625 v 5.9375 q 0,1.5 0.1563,1.875 0.1718,0.3593 0.6406,0.6406 0.4844,0.2812 1.3125,0.2812 h 0.6406 v 0.5313 h -10.1562 v -0.5313 h 0.6406 q 0.8437,0 1.3594,-0.2968 0.375,-0.2032 0.5781,-0.6875 0.1562,-0.3438 0.1562,-1.8125 v -12.7657 q 0,-1.4843 -0.1562,-1.8593 -0.1563,-0.375 -0.6406,-0.6563 -0.4688,-0.2812 -1.2969,-0.2812 h -0.6406 v -0.5313 h 16.3906 v 5.5781 h -0.5938 q -0.2031,-1.9687 -1.0312,-2.9062 -0.8125,-0.9531 -2.375,-1.3438 -0.8594,-0.2031 -3.1875,-0.2031 z m 17.9148,0 v 7.9688 h 0.5625 q 1.2812,0 2.0937,-0.375 0.8282,-0.3907 1.3907,-1.3125 0.5625,-0.9219 0.7343,-2.4844 h 0.5 v 9.7656 h -0.5 q -0.2656,-2.7656 -1.4843,-3.6406 -1.2032,-0.8906 -2.7344,-0.8906 h -0.5625 v 5.9375 q 0,1.5 0.1562,1.875 0.1719,0.3593 0.6407,0.6406 0.4843,0.2812 1.3125,0.2812 h 0.6406 v 0.5313 h -10.1563 v -0.5313 h 0.6407 q 0.8437,0 1.3593,-0.2968 0.375,-0.2032 0.5782,-0.6875 0.1562,-0.3438 0.1562,-1.8125 v -12.7657 q 0,-1.4843 -0.1562,-1.8593 -0.1563,-0.375 -0.6407,-0.6563 -0.4687,-0.2812 -1.2968,-0.2812 h -0.6407 v -0.5313 h 16.3907 v 5.5781 h -0.5938 q -0.2031,-1.9687 -1.0312,-2.9062 -0.8125,-0.9531 -2.375,-1.3438 -0.8594,-0.2031 -3.1875,-0.2031 z m 28.3679,11.4844 -0.7344,6.8125 h -17.2343 v -0.5313 h 0.6406 q 0.8437,0 1.3594,-0.2968 0.375,-0.2032 0.5781,-0.6875 0.1562,-0.3438 0.1562,-1.8125 v -12.7657 q 0,-1.4843 -0.1562,-1.8593 -0.1563,-0.375 -0.6406,-0.6563 -0.4844,-0.2812 -1.2969,-0.2812 h -0.6406 v -0.5313 h 10.3437 v 0.5313 h -0.8437 q -0.8438,0 -1.3594,0.2968 -0.375,0.2032 -0.5781,0.6875 -0.1563,0.3438 -0.1563,1.8125 v 12.375 q 0,1.4844 0.1719,1.8907 0.1719,0.4062 0.6719,0.6093 0.3593,0.125 1.7343,0.125 h 1.6094 q 1.5469,0 2.5781,-0.5312 1.0313,-0.5469 1.7813,-1.7188 0.75,-1.1875 1.4219,-3.4687 z m 18.9002,6.8125 h -11.4219 v -0.3125 q 5.25,-6.2656 6.375,-8.4219 1.125,-2.1562 1.125,-4.2187 0,-1.5157 -0.9375,-2.5 -0.9219,-1 -2.2656,-1 -2.2032,0 -3.4219,2.2031 l -0.5313,-0.1875 q 0.7657,-2.75 2.3438,-4.0625 1.5781,-1.3125 3.6406,-1.3125 1.4688,0 2.6875,0.6875 1.2188,0.6875 1.9063,1.8906 0.6875,1.1875 0.6875,2.2344 0,1.8906 -1.0625,3.8594 -1.4375,2.6562 -6.3125,7.3906 h 4.2031 q 1.5469,0 2,-0.125 0.4687,-0.1406 0.7656,-0.4375 0.3125,-0.3125 0.7969,-1.2969 h 0.5156 z"
       id="path109"
       inkscape:connector-curvature="0"
       style="fill:#666666;fill-rule:nonzero" />
  </g>
</svg>
