<?xml version="1.0" encoding="UTF-8" standalone="no"?>
<!-- Created with matplotlib (https://matplotlib.org/) -->

<svg
   xmlns:dc="http://purl.org/dc/elements/1.1/"
   xmlns:cc="http://creativecommons.org/ns#"
   xmlns:rdf="http://www.w3.org/1999/02/22-rdf-syntax-ns#"
   xmlns:svg="http://www.w3.org/2000/svg"
   xmlns="http://www.w3.org/2000/svg"
   xmlns:xlink="http://www.w3.org/1999/xlink"
   xmlns:sodipodi="http://sodipodi.sourceforge.net/DTD/sodipodi-0.dtd"
   xmlns:inkscape="http://www.inkscape.org/namespaces/inkscape"
   height="864pt"
   version="1.1"
   viewBox="0 0 1152 864"
   width="1152pt"
   id="svg492"
   sodipodi:docname="figure7.svg"
   inkscape:export-filename="/home/erikz/sonnhammer/network_generation_algo/results/figures/figure7.png"
   inkscape:export-xdpi="300"
   inkscape:export-ydpi="300"
   inkscape:version="0.92.5 (2060ec1f9f, 2020-04-08)">
  <sodipodi:namedview
     pagecolor="#ffffff"
     bordercolor="#666666"
     borderopacity="1"
     objecttolerance="10"
     gridtolerance="10"
     guidetolerance="10"
     inkscape:pageopacity="0"
     inkscape:pageshadow="2"
     inkscape:window-width="1848"
     inkscape:window-height="1016"
     id="namedview494"
     showgrid="false"
     inkscape:zoom="0.20486111"
     inkscape:cx="768"
     inkscape:cy="576"
     inkscape:window-x="72"
     inkscape:window-y="27"
     inkscape:window-maximized="1"
     inkscape:current-layer="svg492" />
  <metadata
     id="metadata2">
    <rdf:RDF>
      <cc:Work>
        <dc:type
           rdf:resource="http://purl.org/dc/dcmitype/StillImage" />
        <dc:date>2021-11-07T16:07:23.853656</dc:date>
        <dc:format>image/svg+xml</dc:format>
        <dc:creator>
          <cc:Agent>
            <dc:title>Matplotlib v3.3.4, https://matplotlib.org/</dc:title>
          </cc:Agent>
        </dc:creator>
      </cc:Work>
    </rdf:RDF>
  </metadata>
  <defs
     id="defs6">
    <style
       type="text/css"
       id="style4">*{stroke-linecap:butt;stroke-linejoin:round;}</style>
  </defs>
  <g
     id="figure_1">
    <g
       id="patch_1">
      <path
         d="M 0 864  L 1152 864  L 1152 0  L 0 0  z "
         style="fill:none;"
         id="path8" />
    </g>
    <g
       id="axes_1">
      <g
         id="patch_2">
        <path
           d="M 144 756  L 1036.8 756  L 1036.8 103.68  L 144 103.68  z "
           style="fill:#ffffff;"
           id="path11" />
      </g>
      <g
         id="PolyCollection_1">
        <defs
           id="defs15">
          <path
             d="M 184.581818 -206.383562  L 184.581818 -194.655688  L 387.490909 -254.998548  L 590.4 -300.532223  L 996.218182 -351.570614  L 996.218182 -364.129438  L 996.218182 -364.129438  L 590.4 -311.612642  L 387.490909 -266.544615  L 184.581818 -206.383562  z "
             id="m8f4a6572a7"
             style="stroke:#fb659e;stroke-opacity:0.2;" />
        </defs>
        <g
           clip-path="url(#p1b699a3691)"
           id="g19">
          <use
             style="fill:#fb659e;fill-opacity:0.2;stroke:#fb659e;stroke-opacity:0.2;"
             x="0"
             xlink:href="#m8f4a6572a7"
             y="864"
             id="use17" />
        </g>
      </g>
      <g
         id="PolyCollection_2">
        <defs
           id="defs23">
          <path
             d="M 184.581818 -208.413173  L 184.581818 -153.743643  L 387.490909 -168.895002  L 590.4 -198.052962  L 996.218182 -198.694641  L 996.218182 -258.915636  L 996.218182 -258.915636  L 590.4 -256.804476  L 387.490909 -223.193761  L 184.581818 -208.413173  z "
             id="m0d9aa47891"
             style="stroke:#00876c;stroke-opacity:0.2;" />
        </defs>
        <g
           clip-path="url(#p1b699a3691)"
           id="g27">
          <use
             style="fill:#00876c;fill-opacity:0.2;stroke:#00876c;stroke-opacity:0.2;"
             x="0"
             xlink:href="#m0d9aa47891"
             y="864"
             id="use25" />
        </g>
      </g>
      <g
         id="PolyCollection_3">
        <defs
           id="defs31">
          <path
             d="M 184.581818 -176.972869  L 184.581818 -137.650909  L 387.490909 -163.007004  L 590.4 -216.443936  L 996.218182 -235.603149  L 996.218182 -265.605183  L 996.218182 -265.605183  L 590.4 -249.764671  L 387.490909 -204.495374  L 184.581818 -176.972869  z "
             id="mcf9cb560cc"
             style="stroke:#e79053;stroke-opacity:0.2;" />
        </defs>
        <g
           clip-path="url(#p1b699a3691)"
           id="g35">
          <use
             style="fill:#e79053;fill-opacity:0.2;stroke:#e79053;stroke-opacity:0.2;"
             x="0"
             xlink:href="#mcf9cb560cc"
             y="864"
             id="use33" />
        </g>
      </g>
      <g
         id="PolyCollection_4">
        <defs
           id="defs39">
          <path
             d="M 184.581818 -185.039315  L 184.581818 -155.170528  L 387.490909 -190.768747  L 590.4 -192.700187  L 996.218182 -193.670709  L 996.218182 -226.509218  L 996.218182 -226.509218  L 590.4 -224.954921  L 387.490909 -232.048189  L 184.581818 -185.039315  z "
             id="mfa4c205a85"
             style="stroke:#7dc9e1;stroke-opacity:0.2;" />
        </defs>
        <g
           clip-path="url(#p1b699a3691)"
           id="g43">
          <use
             style="fill:#7dc9e1;fill-opacity:0.2;stroke:#7dc9e1;stroke-opacity:0.2;"
             x="0"
             xlink:href="#mfa4c205a85"
             y="864"
             id="use41" />
        </g>
      </g>
      <g
         id="PolyCollection_5">
        <defs
           id="defs47">
          <path
             d="M 184.581818 -472.05496  L 184.581818 -462.64945  L 387.490909 -560.775811  L 590.4 -627.369302  L 996.218182 -715.197502  L 996.218182 -730.669091  L 996.218182 -730.669091  L 590.4 -633.389215  L 387.490909 -567.776467  L 184.581818 -472.05496  z "
             id="m4607643362"
             style="stroke:#84b270;stroke-opacity:0.2;" />
        </defs>
        <g
           clip-path="url(#p1b699a3691)"
           id="g51">
          <use
             style="fill:#84b270;fill-opacity:0.2;stroke:#84b270;stroke-opacity:0.2;"
             x="0"
             xlink:href="#m4607643362"
             y="864"
             id="use49" />
        </g>
      </g>
      <g
         id="matplotlib.axis_1">
        <g
           id="xtick_1">
          <g
             id="line2d_1">
            <defs
               id="defs55">
              <path
                 d="M 0 0  L 0 3.5  "
                 id="me905d41eac"
                 style="stroke:#000000;stroke-width:0.8;" />
            </defs>
            <g
               id="g59">
              <use
                 style="stroke:#000000;stroke-width:0.8;"
                 x="265.745455"
                 xlink:href="#me905d41eac"
                 y="756"
                 id="use57" />
            </g>
          </g>
          <g
             id="text_1">
            <!-- 600 -->
            <g
               transform="translate(240.931705 782.755937)scale(0.26 -0.26)"
               id="g72">
              <defs
                 id="defs64">
                <path
                   d="M 33.015625 40.375  Q 26.375 40.375 22.484375 35.828125  Q 18.609375 31.296875 18.609375 23.390625  Q 18.609375 15.53125 22.484375 10.953125  Q 26.375 6.390625 33.015625 6.390625  Q 39.65625 6.390625 43.53125 10.953125  Q 47.40625 15.53125 47.40625 23.390625  Q 47.40625 31.296875 43.53125 35.828125  Q 39.65625 40.375 33.015625 40.375  z M 52.59375 71.296875  L 52.59375 62.3125  Q 48.875 64.0625 45.09375 64.984375  Q 41.3125 65.921875 37.59375 65.921875  Q 27.828125 65.921875 22.671875 59.328125  Q 17.53125 52.734375 16.796875 39.40625  Q 19.671875 43.65625 24.015625 45.921875  Q 28.375 48.1875 33.59375 48.1875  Q 44.578125 48.1875 50.953125 41.515625  Q 57.328125 34.859375 57.328125 23.390625  Q 57.328125 12.15625 50.6875 5.359375  Q 44.046875 -1.421875 33.015625 -1.421875  Q 20.359375 -1.421875 13.671875 8.265625  Q 6.984375 17.96875 6.984375 36.375  Q 6.984375 53.65625 15.1875 63.9375  Q 23.390625 74.21875 37.203125 74.21875  Q 40.921875 74.21875 44.703125 73.484375  Q 48.484375 72.75 52.59375 71.296875  z "
                   id="DejaVuSans-54" />
                <path
                   d="M 31.78125 66.40625  Q 24.171875 66.40625 20.328125 58.90625  Q 16.5 51.421875 16.5 36.375  Q 16.5 21.390625 20.328125 13.890625  Q 24.171875 6.390625 31.78125 6.390625  Q 39.453125 6.390625 43.28125 13.890625  Q 47.125 21.390625 47.125 36.375  Q 47.125 51.421875 43.28125 58.90625  Q 39.453125 66.40625 31.78125 66.40625  z M 31.78125 74.21875  Q 44.046875 74.21875 50.515625 64.515625  Q 56.984375 54.828125 56.984375 36.375  Q 56.984375 17.96875 50.515625 8.265625  Q 44.046875 -1.421875 31.78125 -1.421875  Q 19.53125 -1.421875 13.0625 8.265625  Q 6.59375 17.96875 6.59375 36.375  Q 6.59375 54.828125 13.0625 64.515625  Q 19.53125 74.21875 31.78125 74.21875  z "
                   id="DejaVuSans-48" />
              </defs>
              <use
                 xlink:href="#DejaVuSans-54"
                 id="use66" />
              <use
                 x="63.623047"
                 xlink:href="#DejaVuSans-48"
                 id="use68" />
              <use
                 x="127.246094"
                 xlink:href="#DejaVuSans-48"
                 id="use70" />
            </g>
          </g>
        </g>
        <g
           id="xtick_2">
          <g
             id="line2d_2">
            <g
               id="g78">
              <use
                 style="stroke:#000000;stroke-width:0.8;"
                 x="428.072727"
                 xlink:href="#me905d41eac"
                 y="756"
                 id="use76" />
            </g>
          </g>
          <g
             id="text_2">
            <!-- 800 -->
            <g
               transform="translate(403.258977 782.755937)scale(0.26 -0.26)"
               id="g90">
              <defs
                 id="defs82">
                <path
                   d="M 31.78125 34.625  Q 24.75 34.625 20.71875 30.859375  Q 16.703125 27.09375 16.703125 20.515625  Q 16.703125 13.921875 20.71875 10.15625  Q 24.75 6.390625 31.78125 6.390625  Q 38.8125 6.390625 42.859375 10.171875  Q 46.921875 13.96875 46.921875 20.515625  Q 46.921875 27.09375 42.890625 30.859375  Q 38.875 34.625 31.78125 34.625  z M 21.921875 38.8125  Q 15.578125 40.375 12.03125 44.71875  Q 8.5 49.078125 8.5 55.328125  Q 8.5 64.0625 14.71875 69.140625  Q 20.953125 74.21875 31.78125 74.21875  Q 42.671875 74.21875 48.875 69.140625  Q 55.078125 64.0625 55.078125 55.328125  Q 55.078125 49.078125 51.53125 44.71875  Q 48 40.375 41.703125 38.8125  Q 48.828125 37.15625 52.796875 32.3125  Q 56.78125 27.484375 56.78125 20.515625  Q 56.78125 9.90625 50.3125 4.234375  Q 43.84375 -1.421875 31.78125 -1.421875  Q 19.734375 -1.421875 13.25 4.234375  Q 6.78125 9.90625 6.78125 20.515625  Q 6.78125 27.484375 10.78125 32.3125  Q 14.796875 37.15625 21.921875 38.8125  z M 18.3125 54.390625  Q 18.3125 48.734375 21.84375 45.5625  Q 25.390625 42.390625 31.78125 42.390625  Q 38.140625 42.390625 41.71875 45.5625  Q 45.3125 48.734375 45.3125 54.390625  Q 45.3125 60.0625 41.71875 63.234375  Q 38.140625 66.40625 31.78125 66.40625  Q 25.390625 66.40625 21.84375 63.234375  Q 18.3125 60.0625 18.3125 54.390625  z "
                   id="DejaVuSans-56" />
              </defs>
              <use
                 xlink:href="#DejaVuSans-56"
                 id="use84" />
              <use
                 x="63.623047"
                 xlink:href="#DejaVuSans-48"
                 id="use86" />
              <use
                 x="127.246094"
                 xlink:href="#DejaVuSans-48"
                 id="use88" />
            </g>
          </g>
        </g>
        <g
           id="xtick_3">
          <g
             id="line2d_3">
            <g
               id="g96">
              <use
                 style="stroke:#000000;stroke-width:0.8;"
                 x="590.4"
                 xlink:href="#me905d41eac"
                 y="756"
                 id="use94" />
            </g>
          </g>
          <g
             id="text_3">
            <!-- 1000 -->
            <g
               transform="translate(557.315 782.755937)scale(0.26 -0.26)"
               id="g110">
              <defs
                 id="defs100">
                <path
                   d="M 12.40625 8.296875  L 28.515625 8.296875  L 28.515625 63.921875  L 10.984375 60.40625  L 10.984375 69.390625  L 28.421875 72.90625  L 38.28125 72.90625  L 38.28125 8.296875  L 54.390625 8.296875  L 54.390625 0  L 12.40625 0  z "
                   id="DejaVuSans-49" />
              </defs>
              <use
                 xlink:href="#DejaVuSans-49"
                 id="use102" />
              <use
                 x="63.623047"
                 xlink:href="#DejaVuSans-48"
                 id="use104" />
              <use
                 x="127.246094"
                 xlink:href="#DejaVuSans-48"
                 id="use106" />
              <use
                 x="190.869141"
                 xlink:href="#DejaVuSans-48"
                 id="use108" />
            </g>
          </g>
        </g>
        <g
           id="xtick_4">
          <g
             id="line2d_4">
            <g
               id="g116">
              <use
                 style="stroke:#000000;stroke-width:0.8;"
                 x="752.727273"
                 xlink:href="#me905d41eac"
                 y="756"
                 id="use114" />
            </g>
          </g>
          <g
             id="text_4">
            <!-- 1200 -->
            <g
               transform="translate(719.642273 782.755937)scale(0.26 -0.26)"
               id="g130">
              <defs
                 id="defs120">
                <path
                   d="M 19.1875 8.296875  L 53.609375 8.296875  L 53.609375 0  L 7.328125 0  L 7.328125 8.296875  Q 12.9375 14.109375 22.625 23.890625  Q 32.328125 33.6875 34.8125 36.53125  Q 39.546875 41.84375 41.421875 45.53125  Q 43.3125 49.21875 43.3125 52.78125  Q 43.3125 58.59375 39.234375 62.25  Q 35.15625 65.921875 28.609375 65.921875  Q 23.96875 65.921875 18.8125 64.3125  Q 13.671875 62.703125 7.8125 59.421875  L 7.8125 69.390625  Q 13.765625 71.78125 18.9375 73  Q 24.125 74.21875 28.421875 74.21875  Q 39.75 74.21875 46.484375 68.546875  Q 53.21875 62.890625 53.21875 53.421875  Q 53.21875 48.921875 51.53125 44.890625  Q 49.859375 40.875 45.40625 35.40625  Q 44.1875 33.984375 37.640625 27.21875  Q 31.109375 20.453125 19.1875 8.296875  z "
                   id="DejaVuSans-50" />
              </defs>
              <use
                 xlink:href="#DejaVuSans-49"
                 id="use122" />
              <use
                 x="63.623047"
                 xlink:href="#DejaVuSans-50"
                 id="use124" />
              <use
                 x="127.246094"
                 xlink:href="#DejaVuSans-48"
                 id="use126" />
              <use
                 x="190.869141"
                 xlink:href="#DejaVuSans-48"
                 id="use128" />
            </g>
          </g>
        </g>
        <g
           id="xtick_5">
          <g
             id="line2d_5">
            <g
               id="g136">
              <use
                 style="stroke:#000000;stroke-width:0.8;"
                 x="915.054545"
                 xlink:href="#me905d41eac"
                 y="756"
                 id="use134" />
            </g>
          </g>
          <g
             id="text_5">
            <!-- 1400 -->
            <g
               transform="translate(881.969545 782.755937)scale(0.26 -0.26)"
               id="g150">
              <defs
                 id="defs140">
                <path
                   d="M 37.796875 64.3125  L 12.890625 25.390625  L 37.796875 25.390625  z M 35.203125 72.90625  L 47.609375 72.90625  L 47.609375 25.390625  L 58.015625 25.390625  L 58.015625 17.1875  L 47.609375 17.1875  L 47.609375 0  L 37.796875 0  L 37.796875 17.1875  L 4.890625 17.1875  L 4.890625 26.703125  z "
                   id="DejaVuSans-52" />
              </defs>
              <use
                 xlink:href="#DejaVuSans-49"
                 id="use142" />
              <use
                 x="63.623047"
                 xlink:href="#DejaVuSans-52"
                 id="use144" />
              <use
                 x="127.246094"
                 xlink:href="#DejaVuSans-48"
                 id="use146" />
              <use
                 x="190.869141"
                 xlink:href="#DejaVuSans-48"
                 id="use148" />
            </g>
          </g>
        </g>
        <g
           id="text_6">
          <!-- network size -->
          <g
             transform="translate(508.270469 811.919062)scale(0.26 -0.26)"
             id="g191">
            <defs
               id="defs165">
              <path
                 d="M 54.890625 33.015625  L 54.890625 0  L 45.90625 0  L 45.90625 32.71875  Q 45.90625 40.484375 42.875 44.328125  Q 39.84375 48.1875 33.796875 48.1875  Q 26.515625 48.1875 22.3125 43.546875  Q 18.109375 38.921875 18.109375 30.90625  L 18.109375 0  L 9.078125 0  L 9.078125 54.6875  L 18.109375 54.6875  L 18.109375 46.1875  Q 21.34375 51.125 25.703125 53.5625  Q 30.078125 56 35.796875 56  Q 45.21875 56 50.046875 50.171875  Q 54.890625 44.34375 54.890625 33.015625  z "
                 id="DejaVuSans-110" />
              <path
                 d="M 56.203125 29.59375  L 56.203125 25.203125  L 14.890625 25.203125  Q 15.484375 15.921875 20.484375 11.0625  Q 25.484375 6.203125 34.421875 6.203125  Q 39.59375 6.203125 44.453125 7.46875  Q 49.3125 8.734375 54.109375 11.28125  L 54.109375 2.78125  Q 49.265625 0.734375 44.1875 -0.34375  Q 39.109375 -1.421875 33.890625 -1.421875  Q 20.796875 -1.421875 13.15625 6.1875  Q 5.515625 13.8125 5.515625 26.8125  Q 5.515625 40.234375 12.765625 48.109375  Q 20.015625 56 32.328125 56  Q 43.359375 56 49.78125 48.890625  Q 56.203125 41.796875 56.203125 29.59375  z M 47.21875 32.234375  Q 47.125 39.59375 43.09375 43.984375  Q 39.0625 48.390625 32.421875 48.390625  Q 24.90625 48.390625 20.390625 44.140625  Q 15.875 39.890625 15.1875 32.171875  z "
                 id="DejaVuSans-101" />
              <path
                 d="M 18.3125 70.21875  L 18.3125 54.6875  L 36.8125 54.6875  L 36.8125 47.703125  L 18.3125 47.703125  L 18.3125 18.015625  Q 18.3125 11.328125 20.140625 9.421875  Q 21.96875 7.515625 27.59375 7.515625  L 36.8125 7.515625  L 36.8125 0  L 27.59375 0  Q 17.1875 0 13.234375 3.875  Q 9.28125 7.765625 9.28125 18.015625  L 9.28125 47.703125  L 2.6875 47.703125  L 2.6875 54.6875  L 9.28125 54.6875  L 9.28125 70.21875  z "
                 id="DejaVuSans-116" />
              <path
                 d="M 4.203125 54.6875  L 13.1875 54.6875  L 24.421875 12.015625  L 35.59375 54.6875  L 46.1875 54.6875  L 57.421875 12.015625  L 68.609375 54.6875  L 77.59375 54.6875  L 63.28125 0  L 52.6875 0  L 40.921875 44.828125  L 29.109375 0  L 18.5 0  z "
                 id="DejaVuSans-119" />
              <path
                 d="M 30.609375 48.390625  Q 23.390625 48.390625 19.1875 42.75  Q 14.984375 37.109375 14.984375 27.296875  Q 14.984375 17.484375 19.15625 11.84375  Q 23.34375 6.203125 30.609375 6.203125  Q 37.796875 6.203125 41.984375 11.859375  Q 46.1875 17.53125 46.1875 27.296875  Q 46.1875 37.015625 41.984375 42.703125  Q 37.796875 48.390625 30.609375 48.390625  z M 30.609375 56  Q 42.328125 56 49.015625 48.375  Q 55.71875 40.765625 55.71875 27.296875  Q 55.71875 13.875 49.015625 6.21875  Q 42.328125 -1.421875 30.609375 -1.421875  Q 18.84375 -1.421875 12.171875 6.21875  Q 5.515625 13.875 5.515625 27.296875  Q 5.515625 40.765625 12.171875 48.375  Q 18.84375 56 30.609375 56  z "
                 id="DejaVuSans-111" />
              <path
                 d="M 41.109375 46.296875  Q 39.59375 47.171875 37.8125 47.578125  Q 36.03125 48 33.890625 48  Q 26.265625 48 22.1875 43.046875  Q 18.109375 38.09375 18.109375 28.8125  L 18.109375 0  L 9.078125 0  L 9.078125 54.6875  L 18.109375 54.6875  L 18.109375 46.1875  Q 20.953125 51.171875 25.484375 53.578125  Q 30.03125 56 36.53125 56  Q 37.453125 56 38.578125 55.875  Q 39.703125 55.765625 41.0625 55.515625  z "
                 id="DejaVuSans-114" />
              <path
                 d="M 9.078125 75.984375  L 18.109375 75.984375  L 18.109375 31.109375  L 44.921875 54.6875  L 56.390625 54.6875  L 27.390625 29.109375  L 57.625 0  L 45.90625 0  L 18.109375 26.703125  L 18.109375 0  L 9.078125 0  z "
                 id="DejaVuSans-107" />
              <path
                 id="DejaVuSans-32" />
              <path
                 d="M 44.28125 53.078125  L 44.28125 44.578125  Q 40.484375 46.53125 36.375 47.5  Q 32.28125 48.484375 27.875 48.484375  Q 21.1875 48.484375 17.84375 46.4375  Q 14.5 44.390625 14.5 40.28125  Q 14.5 37.15625 16.890625 35.375  Q 19.28125 33.59375 26.515625 31.984375  L 29.59375 31.296875  Q 39.15625 29.25 43.1875 25.515625  Q 47.21875 21.78125 47.21875 15.09375  Q 47.21875 7.46875 41.1875 3.015625  Q 35.15625 -1.421875 24.609375 -1.421875  Q 20.21875 -1.421875 15.453125 -0.5625  Q 10.6875 0.296875 5.421875 2  L 5.421875 11.28125  Q 10.40625 8.6875 15.234375 7.390625  Q 20.0625 6.109375 24.8125 6.109375  Q 31.15625 6.109375 34.5625 8.28125  Q 37.984375 10.453125 37.984375 14.40625  Q 37.984375 18.0625 35.515625 20.015625  Q 33.0625 21.96875 24.703125 23.78125  L 21.578125 24.515625  Q 13.234375 26.265625 9.515625 29.90625  Q 5.8125 33.546875 5.8125 39.890625  Q 5.8125 47.609375 11.28125 51.796875  Q 16.75 56 26.8125 56  Q 31.78125 56 36.171875 55.265625  Q 40.578125 54.546875 44.28125 53.078125  z "
                 id="DejaVuSans-115" />
              <path
                 d="M 9.421875 54.6875  L 18.40625 54.6875  L 18.40625 0  L 9.421875 0  z M 9.421875 75.984375  L 18.40625 75.984375  L 18.40625 64.59375  L 9.421875 64.59375  z "
                 id="DejaVuSans-105" />
              <path
                 d="M 5.515625 54.6875  L 48.1875 54.6875  L 48.1875 46.484375  L 14.40625 7.171875  L 48.1875 7.171875  L 48.1875 0  L 4.296875 0  L 4.296875 8.203125  L 38.09375 47.515625  L 5.515625 47.515625  z "
                 id="DejaVuSans-122" />
            </defs>
            <use
               xlink:href="#DejaVuSans-110"
               id="use167" />
            <use
               x="63.378906"
               xlink:href="#DejaVuSans-101"
               id="use169" />
            <use
               x="124.902344"
               xlink:href="#DejaVuSans-116"
               id="use171" />
            <use
               x="164.111328"
               xlink:href="#DejaVuSans-119"
               id="use173" />
            <use
               x="245.898438"
               xlink:href="#DejaVuSans-111"
               id="use175" />
            <use
               x="307.080078"
               xlink:href="#DejaVuSans-114"
               id="use177" />
            <use
               x="348.193359"
               xlink:href="#DejaVuSans-107"
               id="use179" />
            <use
               x="406.103516"
               xlink:href="#DejaVuSans-32"
               id="use181" />
            <use
               x="437.890625"
               xlink:href="#DejaVuSans-115"
               id="use183" />
            <use
               x="489.990234"
               xlink:href="#DejaVuSans-105"
               id="use185" />
            <use
               x="517.773438"
               xlink:href="#DejaVuSans-122"
               id="use187" />
            <use
               x="570.263672"
               xlink:href="#DejaVuSans-101"
               id="use189" />
          </g>
        </g>
      </g>
      <g
         id="matplotlib.axis_2">
        <g
           id="ytick_1">
          <g
             id="line2d_6">
            <defs
               id="defs196">
              <path
                 d="M 0 0  L -3.5 0  "
                 id="mbd4170b671"
                 style="stroke:#000000;stroke-width:0.8;" />
            </defs>
            <g
               id="g200">
              <use
                 style="stroke:#000000;stroke-width:0.8;"
                 x="144"
                 xlink:href="#mbd4170b671"
                 y="749.738567"
                 id="use198" />
            </g>
          </g>
          <g
             id="text_7">
            <!-- −2.2 -->
            <g
               transform="translate(73.864688 759.616536)scale(0.26 -0.26)"
               id="g215">
              <defs
                 id="defs205">
                <path
                   d="M 10.59375 35.5  L 73.1875 35.5  L 73.1875 27.203125  L 10.59375 27.203125  z "
                   id="DejaVuSans-8722" />
                <path
                   d="M 10.6875 12.40625  L 21 12.40625  L 21 0  L 10.6875 0  z "
                   id="DejaVuSans-46" />
              </defs>
              <use
                 xlink:href="#DejaVuSans-8722"
                 id="use207" />
              <use
                 x="83.789062"
                 xlink:href="#DejaVuSans-50"
                 id="use209" />
              <use
                 x="147.412109"
                 xlink:href="#DejaVuSans-46"
                 id="use211" />
              <use
                 x="179.199219"
                 xlink:href="#DejaVuSans-50"
                 id="use213" />
            </g>
          </g>
        </g>
        <g
           id="ytick_2">
          <g
             id="line2d_7">
            <g
               id="g221">
              <use
                 style="stroke:#000000;stroke-width:0.8;"
                 x="144"
                 xlink:href="#mbd4170b671"
                 y="666.155728"
                 id="use219" />
            </g>
          </g>
          <g
             id="text_8">
            <!-- −2.0 -->
            <g
               transform="translate(73.864688 676.033697)scale(0.26 -0.26)"
               id="g232">
              <use
                 xlink:href="#DejaVuSans-8722"
                 id="use224" />
              <use
                 x="83.789062"
                 xlink:href="#DejaVuSans-50"
                 id="use226" />
              <use
                 x="147.412109"
                 xlink:href="#DejaVuSans-46"
                 id="use228" />
              <use
                 x="179.199219"
                 xlink:href="#DejaVuSans-48"
                 id="use230" />
            </g>
          </g>
        </g>
        <g
           id="ytick_3">
          <g
             id="line2d_8">
            <g
               id="g238">
              <use
                 style="stroke:#000000;stroke-width:0.8;"
                 x="144"
                 xlink:href="#mbd4170b671"
                 y="582.57289"
                 id="use236" />
            </g>
          </g>
          <g
             id="text_9">
            <!-- −1.8 -->
            <g
               transform="translate(73.864688 592.450859)scale(0.26 -0.26)"
               id="g249">
              <use
                 xlink:href="#DejaVuSans-8722"
                 id="use241" />
              <use
                 x="83.789062"
                 xlink:href="#DejaVuSans-49"
                 id="use243" />
              <use
                 x="147.412109"
                 xlink:href="#DejaVuSans-46"
                 id="use245" />
              <use
                 x="179.199219"
                 xlink:href="#DejaVuSans-56"
                 id="use247" />
            </g>
          </g>
        </g>
        <g
           id="ytick_4">
          <g
             id="line2d_9">
            <g
               id="g255">
              <use
                 style="stroke:#000000;stroke-width:0.8;"
                 x="144"
                 xlink:href="#mbd4170b671"
                 y="498.990052"
                 id="use253" />
            </g>
          </g>
          <g
             id="text_10">
            <!-- −1.6 -->
            <g
               transform="translate(73.864688 508.868021)scale(0.26 -0.26)"
               id="g266">
              <use
                 xlink:href="#DejaVuSans-8722"
                 id="use258" />
              <use
                 x="83.789062"
                 xlink:href="#DejaVuSans-49"
                 id="use260" />
              <use
                 x="147.412109"
                 xlink:href="#DejaVuSans-46"
                 id="use262" />
              <use
                 x="179.199219"
                 xlink:href="#DejaVuSans-54"
                 id="use264" />
            </g>
          </g>
        </g>
        <g
           id="ytick_5">
          <g
             id="line2d_10">
            <g
               id="g272">
              <use
                 style="stroke:#000000;stroke-width:0.8;"
                 x="144"
                 xlink:href="#mbd4170b671"
                 y="415.407213"
                 id="use270" />
            </g>
          </g>
          <g
             id="text_11">
            <!-- −1.4 -->
            <g
               transform="translate(73.864688 425.285182)scale(0.26 -0.26)"
               id="g283">
              <use
                 xlink:href="#DejaVuSans-8722"
                 id="use275" />
              <use
                 x="83.789062"
                 xlink:href="#DejaVuSans-49"
                 id="use277" />
              <use
                 x="147.412109"
                 xlink:href="#DejaVuSans-46"
                 id="use279" />
              <use
                 x="179.199219"
                 xlink:href="#DejaVuSans-52"
                 id="use281" />
            </g>
          </g>
        </g>
        <g
           id="ytick_6">
          <g
             id="line2d_11">
            <g
               id="g289">
              <use
                 style="stroke:#000000;stroke-width:0.8;"
                 x="144"
                 xlink:href="#mbd4170b671"
                 y="331.824375"
                 id="use287" />
            </g>
          </g>
          <g
             id="text_12">
            <!-- −1.2 -->
            <g
               transform="translate(73.864688 341.702344)scale(0.26 -0.26)"
               id="g300">
              <use
                 xlink:href="#DejaVuSans-8722"
                 id="use292" />
              <use
                 x="83.789062"
                 xlink:href="#DejaVuSans-49"
                 id="use294" />
              <use
                 x="147.412109"
                 xlink:href="#DejaVuSans-46"
                 id="use296" />
              <use
                 x="179.199219"
                 xlink:href="#DejaVuSans-50"
                 id="use298" />
            </g>
          </g>
        </g>
        <g
           id="ytick_7">
          <g
             id="line2d_12">
            <g
               id="g306">
              <use
                 style="stroke:#000000;stroke-width:0.8;"
                 x="144"
                 xlink:href="#mbd4170b671"
                 y="248.241537"
                 id="use304" />
            </g>
          </g>
          <g
             id="text_13">
            <!-- −1.0 -->
            <g
               transform="translate(73.864688 258.119506)scale(0.26 -0.26)"
               id="g317">
              <use
                 xlink:href="#DejaVuSans-8722"
                 id="use309" />
              <use
                 x="83.789062"
                 xlink:href="#DejaVuSans-49"
                 id="use311" />
              <use
                 x="147.412109"
                 xlink:href="#DejaVuSans-46"
                 id="use313" />
              <use
                 x="179.199219"
                 xlink:href="#DejaVuSans-48"
                 id="use315" />
            </g>
          </g>
        </g>
        <g
           id="ytick_8">
          <g
             id="line2d_13">
            <g
               id="g323">
              <use
                 style="stroke:#000000;stroke-width:0.8;"
                 x="144"
                 xlink:href="#mbd4170b671"
                 y="164.658699"
                 id="use321" />
            </g>
          </g>
          <g
             id="text_14">
            <!-- −0.8 -->
            <g
               transform="translate(73.864688 174.536667)scale(0.26 -0.26)"
               id="g334">
              <use
                 xlink:href="#DejaVuSans-8722"
                 id="use326" />
              <use
                 x="83.789062"
                 xlink:href="#DejaVuSans-48"
                 id="use328" />
              <use
                 x="147.412109"
                 xlink:href="#DejaVuSans-46"
                 id="use330" />
              <use
                 x="179.199219"
                 xlink:href="#DejaVuSans-56"
                 id="use332" />
            </g>
          </g>
        </g>
        <g
           id="text_15">
          <!-- $\log2$($\lambda_{M}$) -->
          <g
             transform="translate(64.404687 484.05)rotate(-90)scale(0.26 -0.26)"
             id="g362">
            <defs
               id="defs344">
              <path
                 d="M 9.421875 75.984375  L 18.40625 75.984375  L 18.40625 0  L 9.421875 0  z "
                 id="DejaVuSans-108" />
              <path
                 d="M 45.40625 27.984375  Q 45.40625 37.75 41.375 43.109375  Q 37.359375 48.484375 30.078125 48.484375  Q 22.859375 48.484375 18.828125 43.109375  Q 14.796875 37.75 14.796875 27.984375  Q 14.796875 18.265625 18.828125 12.890625  Q 22.859375 7.515625 30.078125 7.515625  Q 37.359375 7.515625 41.375 12.890625  Q 45.40625 18.265625 45.40625 27.984375  z M 54.390625 6.78125  Q 54.390625 -7.171875 48.1875 -13.984375  Q 42 -20.796875 29.203125 -20.796875  Q 24.46875 -20.796875 20.265625 -20.09375  Q 16.0625 -19.390625 12.109375 -17.921875  L 12.109375 -9.1875  Q 16.0625 -11.328125 19.921875 -12.34375  Q 23.78125 -13.375 27.78125 -13.375  Q 36.625 -13.375 41.015625 -8.765625  Q 45.40625 -4.15625 45.40625 5.171875  L 45.40625 9.625  Q 42.625 4.78125 38.28125 2.390625  Q 33.9375 0 27.875 0  Q 17.828125 0 11.671875 7.65625  Q 5.515625 15.328125 5.515625 27.984375  Q 5.515625 40.671875 11.671875 48.328125  Q 17.828125 56 27.875 56  Q 33.9375 56 38.28125 53.609375  Q 42.625 51.21875 45.40625 46.390625  L 45.40625 54.6875  L 54.390625 54.6875  z "
                 id="DejaVuSans-103" />
              <path
                 d="M 31 75.875  Q 24.46875 64.65625 21.28125 53.65625  Q 18.109375 42.671875 18.109375 31.390625  Q 18.109375 20.125 21.3125 9.0625  Q 24.515625 -2 31 -13.1875  L 23.1875 -13.1875  Q 15.875 -1.703125 12.234375 9.375  Q 8.59375 20.453125 8.59375 31.390625  Q 8.59375 42.28125 12.203125 53.3125  Q 15.828125 64.359375 23.1875 75.875  z "
                 id="DejaVuSans-40" />
              <path
                 d="M 36.71875 67.4375  L 48.828125 0  L 39.3125 0  L 31.84375 40.4375  L 5.125 0  L -4.390625 0  L 29.734375 52.4375  L 28.03125 62.109375  Q 26.953125 68.265625 21.734375 68.265625  L 17.046875 68.265625  L 18.5 75.984375  L 24.21875 75.875  Q 35.203125 75.734375 36.71875 67.4375  z "
                 id="DejaVuSans-Oblique-955" />
              <path
                 d="M 16.890625 72.90625  L 31.6875 72.90625  L 40.1875 23.78125  L 68.40625 72.90625  L 83.59375 72.90625  L 69.390625 0  L 59.8125 0  L 72.21875 63.921875  L 43.609375 14.015625  L 33.984375 14.015625  L 24.703125 64.109375  L 12.3125 0  L 2.6875 0  z "
                 id="DejaVuSans-Oblique-77" />
              <path
                 d="M 8.015625 75.875  L 15.828125 75.875  Q 23.140625 64.359375 26.78125 53.3125  Q 30.421875 42.28125 30.421875 31.390625  Q 30.421875 20.453125 26.78125 9.375  Q 23.140625 -1.703125 15.828125 -13.1875  L 8.015625 -13.1875  Q 14.5 -2 17.703125 9.0625  Q 20.90625 20.125 20.90625 31.390625  Q 20.90625 42.671875 17.703125 53.65625  Q 14.5 64.65625 8.015625 75.875  z "
                 id="DejaVuSans-41" />
            </defs>
            <use
               transform="translate(0 0.015625)"
               xlink:href="#DejaVuSans-108"
               id="use346" />
            <use
               transform="translate(27.783203 0.015625)"
               xlink:href="#DejaVuSans-111"
               id="use348" />
            <use
               transform="translate(88.964844 0.015625)"
               xlink:href="#DejaVuSans-103"
               id="use350" />
            <use
               transform="translate(152.441406 0.015625)"
               xlink:href="#DejaVuSans-50"
               id="use352" />
            <use
               transform="translate(216.064453 0.015625)"
               xlink:href="#DejaVuSans-40"
               id="use354" />
            <use
               transform="translate(255.078125 0.015625)"
               xlink:href="#DejaVuSans-Oblique-955"
               id="use356" />
            <use
               transform="translate(314.257812 -16.390625)scale(0.7)"
               xlink:href="#DejaVuSans-Oblique-77"
               id="use358" />
            <use
               transform="translate(377.387695 0.015625)"
               xlink:href="#DejaVuSans-41"
               id="use360" />
          </g>
        </g>
      </g>
      <g
         id="line2d_14">
        <path
           clip-path="url(#p1b699a3691)"
           d="M 184.581818 663.770355  L 387.490909 603.564907  L 590.4 557.930076  L 996.218182 506.703383  "
           style="fill:none;stroke:#fb659e;stroke-linecap:square;stroke-width:3;"
           id="path366" />
      </g>
      <g
         id="line2d_15">
        <path
           clip-path="url(#p1b699a3691)"
           d="M 184.581818 682.762866  L 387.490909 667.341013  L 590.4 636.842688  L 996.218182 635.807401  "
           style="fill:none;stroke:#00876c;stroke-linecap:square;stroke-width:3;"
           id="path369" />
      </g>
      <g
         id="line2d_16">
        <path
           clip-path="url(#p1b699a3691)"
           d="M 184.581818 706.684177  L 387.490909 681.327126  L 590.4 631.114074  L 996.218182 613.184278  "
           style="fill:none;stroke:#e79053;stroke-linecap:square;stroke-width:3;"
           id="path372" />
      </g>
      <g
         id="line2d_17">
        <path
           clip-path="url(#p1b699a3691)"
           d="M 184.581818 694.264067  L 387.490909 653.663354  L 590.4 655.894117  L 996.218182 654.394414  "
           style="fill:none;stroke:#7dc9e1;stroke-linecap:square;stroke-width:3;"
           id="path375" />
      </g>
      <g
         id="line2d_18">
        <path
           clip-path="url(#p1b699a3691)"
           d="M 184.581818 396.449754  L 387.490909 299.639768  L 590.4 233.620527  L 996.218182 141.631442  "
           style="fill:none;stroke:#84b270;stroke-linecap:square;stroke-width:3;"
           id="path378" />
      </g>
      <g
         id="line2d_19" />
      <g
         id="line2d_20" />
      <g
         id="line2d_21" />
      <g
         id="line2d_22" />
      <g
         id="line2d_23" />
      <g
         id="patch_3">
        <path
           d="M 144 756  L 144 103.68  "
           style="fill:none;stroke:#000000;stroke-linecap:square;stroke-linejoin:miter;stroke-width:0.8;"
           id="path386" />
      </g>
      <g
         id="patch_4">
        <path
           d="M 1036.8 756  L 1036.8 103.68  "
           style="fill:none;stroke:#000000;stroke-linecap:square;stroke-linejoin:miter;stroke-width:0.8;"
           id="path389" />
      </g>
      <g
         id="patch_5">
        <path
           d="M 144 756  L 1036.8 756  "
           style="fill:none;stroke:#000000;stroke-linecap:square;stroke-linejoin:miter;stroke-width:0.8;"
           id="path392" />
      </g>
      <g
         id="patch_6">
        <path
           d="M 144 103.68  L 1036.8 103.68  "
           style="fill:none;stroke:#000000;stroke-linecap:square;stroke-linejoin:miter;stroke-width:0.8;"
           id="path395" />
      </g>
      <g
         id="legend_1">
        <g
           id="patch_7">
          <path
             d="M 162.2 315.295625  L 325.150937 315.295625  Q 330.350937 315.295625 330.350937 310.095625  L 330.350937 121.88  Q 330.350937 116.68 325.150937 116.68  L 162.2 116.68  Q 157 116.68 157 121.88  L 157 310.095625  Q 157 315.295625 162.2 315.295625  z "
             style="fill:#ffffff;opacity:0.8;stroke:#cccccc;stroke-linejoin:miter;"
             id="path398" />
        </g>
        <g
           id="line2d_24">
          <path
             d="M 167.4 137.735938  L 219.4 137.735938  "
             style="fill:none;stroke:#fb659e;stroke-linecap:square;stroke-width:1.5;"
             id="path401" />
        </g>
        <g
           id="line2d_25" />
        <g
           id="text_16">
          <!-- DAG -->
          <g
             transform="translate(240.2 146.835938)scale(0.26 -0.26)"
             id="g416">
            <defs
               id="defs408">
              <path
                 d="M 19.671875 64.796875  L 19.671875 8.109375  L 31.59375 8.109375  Q 46.6875 8.109375 53.6875 14.9375  Q 60.6875 21.78125 60.6875 36.53125  Q 60.6875 51.171875 53.6875 57.984375  Q 46.6875 64.796875 31.59375 64.796875  z M 9.8125 72.90625  L 30.078125 72.90625  Q 51.265625 72.90625 61.171875 64.09375  Q 71.09375 55.28125 71.09375 36.53125  Q 71.09375 17.671875 61.125 8.828125  Q 51.171875 0 30.078125 0  L 9.8125 0  z "
                 id="DejaVuSans-68" />
              <path
                 d="M 34.1875 63.1875  L 20.796875 26.90625  L 47.609375 26.90625  z M 28.609375 72.90625  L 39.796875 72.90625  L 67.578125 0  L 57.328125 0  L 50.6875 18.703125  L 17.828125 18.703125  L 11.1875 0  L 0.78125 0  z "
                 id="DejaVuSans-65" />
              <path
                 d="M 59.515625 10.40625  L 59.515625 29.984375  L 43.40625 29.984375  L 43.40625 38.09375  L 69.28125 38.09375  L 69.28125 6.78125  Q 63.578125 2.734375 56.6875 0.65625  Q 49.8125 -1.421875 42 -1.421875  Q 24.90625 -1.421875 15.25 8.5625  Q 5.609375 18.5625 5.609375 36.375  Q 5.609375 54.25 15.25 64.234375  Q 24.90625 74.21875 42 74.21875  Q 49.125 74.21875 55.546875 72.453125  Q 61.96875 70.703125 67.390625 67.28125  L 67.390625 56.78125  Q 61.921875 61.421875 55.765625 63.765625  Q 49.609375 66.109375 42.828125 66.109375  Q 29.4375 66.109375 22.71875 58.640625  Q 16.015625 51.171875 16.015625 36.375  Q 16.015625 21.625 22.71875 14.15625  Q 29.4375 6.6875 42.828125 6.6875  Q 48.046875 6.6875 52.140625 7.59375  Q 56.25 8.5 59.515625 10.40625  z "
                 id="DejaVuSans-71" />
            </defs>
            <use
               xlink:href="#DejaVuSans-68"
               id="use410" />
            <use
               x="75.251953"
               xlink:href="#DejaVuSans-65"
               id="use412" />
            <use
               x="141.910156"
               xlink:href="#DejaVuSans-71"
               id="use414" />
          </g>
        </g>
        <g
           id="line2d_26">
          <path
             d="M 167.4 175.899063  L 219.4 175.899063  "
             style="fill:none;stroke:#00876c;stroke-linecap:square;stroke-width:1.5;"
             id="path419" />
        </g>
        <g
           id="line2d_27" />
        <g
           id="text_17">
          <!-- FFL -->
          <g
             transform="translate(240.2 184.999063)scale(0.26 -0.26)"
             id="g433">
            <defs
               id="defs425">
              <path
                 d="M 9.8125 72.90625  L 51.703125 72.90625  L 51.703125 64.59375  L 19.671875 64.59375  L 19.671875 43.109375  L 48.578125 43.109375  L 48.578125 34.8125  L 19.671875 34.8125  L 19.671875 0  L 9.8125 0  z "
                 id="DejaVuSans-70" />
              <path
                 d="M 9.8125 72.90625  L 19.671875 72.90625  L 19.671875 8.296875  L 55.171875 8.296875  L 55.171875 0  L 9.8125 0  z "
                 id="DejaVuSans-76" />
            </defs>
            <use
               xlink:href="#DejaVuSans-70"
               id="use427" />
            <use
               x="57.519531"
               xlink:href="#DejaVuSans-70"
               id="use429" />
            <use
               x="115.039062"
               xlink:href="#DejaVuSans-76"
               id="use431" />
          </g>
        </g>
        <g
           id="line2d_28">
          <path
             d="M 167.4 214.062187  L 219.4 214.062187  "
             style="fill:none;stroke:#e79053;stroke-linecap:square;stroke-width:1.5;"
             id="path436" />
        </g>
        <g
           id="line2d_29" />
        <g
           id="text_18">
          <!-- gnw -->
          <g
             transform="translate(240.2 223.162187)scale(0.26 -0.26)"
             id="g446">
            <use
               xlink:href="#DejaVuSans-103"
               id="use440" />
            <use
               x="63.476562"
               xlink:href="#DejaVuSans-110"
               id="use442" />
            <use
               x="126.855469"
               xlink:href="#DejaVuSans-119"
               id="use444" />
          </g>
        </g>
        <g
           id="line2d_30">
          <path
             d="M 167.4 252.225313  L 219.4 252.225313  "
             style="fill:none;stroke:#7dc9e1;stroke-linecap:square;stroke-width:1.5;"
             id="path449" />
        </g>
        <g
           id="line2d_31" />
        <g
           id="text_19">
          <!-- nx -->
          <g
             transform="translate(240.2 261.325312)scale(0.26 -0.26)"
             id="g460">
            <defs
               id="defs454">
              <path
                 d="M 54.890625 54.6875  L 35.109375 28.078125  L 55.90625 0  L 45.3125 0  L 29.390625 21.484375  L 13.484375 0  L 2.875 0  L 24.125 28.609375  L 4.6875 54.6875  L 15.28125 54.6875  L 29.78125 35.203125  L 44.28125 54.6875  z "
                 id="DejaVuSans-120" />
            </defs>
            <use
               xlink:href="#DejaVuSans-110"
               id="use456" />
            <use
               x="63.378906"
               xlink:href="#DejaVuSans-120"
               id="use458" />
          </g>
        </g>
        <g
           id="line2d_32">
          <path
             d="M 167.4 290.388437  L 219.4 290.388437  "
             style="fill:none;stroke:#84b270;stroke-linecap:square;stroke-width:1.5;"
             id="path463" />
        </g>
        <g
           id="line2d_33" />
        <g
           id="text_20">
          <!-- randG -->
          <g
             transform="translate(240.2 299.488437)scale(0.26 -0.26)"
             id="g481">
            <defs
               id="defs469">
              <path
                 d="M 34.28125 27.484375  Q 23.390625 27.484375 19.1875 25  Q 14.984375 22.515625 14.984375 16.5  Q 14.984375 11.71875 18.140625 8.90625  Q 21.296875 6.109375 26.703125 6.109375  Q 34.1875 6.109375 38.703125 11.40625  Q 43.21875 16.703125 43.21875 25.484375  L 43.21875 27.484375  z M 52.203125 31.203125  L 52.203125 0  L 43.21875 0  L 43.21875 8.296875  Q 40.140625 3.328125 35.546875 0.953125  Q 30.953125 -1.421875 24.3125 -1.421875  Q 15.921875 -1.421875 10.953125 3.296875  Q 6 8.015625 6 15.921875  Q 6 25.140625 12.171875 29.828125  Q 18.359375 34.515625 30.609375 34.515625  L 43.21875 34.515625  L 43.21875 35.40625  Q 43.21875 41.609375 39.140625 45  Q 35.0625 48.390625 27.6875 48.390625  Q 23 48.390625 18.546875 47.265625  Q 14.109375 46.140625 10.015625 43.890625  L 10.015625 52.203125  Q 14.9375 54.109375 19.578125 55.046875  Q 24.21875 56 28.609375 56  Q 40.484375 56 46.34375 49.84375  Q 52.203125 43.703125 52.203125 31.203125  z "
                 id="DejaVuSans-97" />
              <path
                 d="M 45.40625 46.390625  L 45.40625 75.984375  L 54.390625 75.984375  L 54.390625 0  L 45.40625 0  L 45.40625 8.203125  Q 42.578125 3.328125 38.25 0.953125  Q 33.9375 -1.421875 27.875 -1.421875  Q 17.96875 -1.421875 11.734375 6.484375  Q 5.515625 14.40625 5.515625 27.296875  Q 5.515625 40.1875 11.734375 48.09375  Q 17.96875 56 27.875 56  Q 33.9375 56 38.25 53.625  Q 42.578125 51.265625 45.40625 46.390625  z M 14.796875 27.296875  Q 14.796875 17.390625 18.875 11.75  Q 22.953125 6.109375 30.078125 6.109375  Q 37.203125 6.109375 41.296875 11.75  Q 45.40625 17.390625 45.40625 27.296875  Q 45.40625 37.203125 41.296875 42.84375  Q 37.203125 48.484375 30.078125 48.484375  Q 22.953125 48.484375 18.875 42.84375  Q 14.796875 37.203125 14.796875 27.296875  z "
                 id="DejaVuSans-100" />
            </defs>
            <use
               xlink:href="#DejaVuSans-114"
               id="use471" />
            <use
               x="41.113281"
               xlink:href="#DejaVuSans-97"
               id="use473" />
            <use
               x="102.392578"
               xlink:href="#DejaVuSans-110"
               id="use475" />
            <use
               x="165.771484"
               xlink:href="#DejaVuSans-100"
               id="use477" />
            <use
               x="229.248047"
               xlink:href="#DejaVuSans-71"
               id="use479" />
          </g>
        </g>
      </g>
    </g>
  </g>
  <defs
     id="defs490">
    <clipPath
       id="p1b699a3691">
      <rect
         height="652.32"
         width="892.8"
         x="144"
         y="103.68"
         id="rect487" />
    </clipPath>
  </defs>
</svg>
