<?xml version="1.0" encoding="utf-8" standalone="no"?>
<!DOCTYPE svg PUBLIC "-//W3C//DTD SVG 1.1//EN"
  "http://www.w3.org/Graphics/SVG/1.1/DTD/svg11.dtd">
<!-- Created with matplotlib (https://matplotlib.org/) -->
<svg height="1296pt" version="1.1" viewBox="0 0 1728 1296" width="1728pt" xmlns="http://www.w3.org/2000/svg" xmlns:xlink="http://www.w3.org/1999/xlink">
 <metadata>
  <rdf:RDF xmlns:cc="http://creativecommons.org/ns#" xmlns:dc="http://purl.org/dc/elements/1.1/" xmlns:rdf="http://www.w3.org/1999/02/22-rdf-syntax-ns#">
   <cc:Work>
    <dc:type rdf:resource="http://purl.org/dc/dcmitype/StillImage"/>
    <dc:date>2021-11-01T15:31:15.462621</dc:date>
    <dc:format>image/svg+xml</dc:format>
    <dc:creator>
     <cc:Agent>
      <dc:title>Matplotlib v3.3.4, https://matplotlib.org/</dc:title>
     </cc:Agent>
    </dc:creator>
   </cc:Work>
  </rdf:RDF>
 </metadata>
 <defs>
  <style type="text/css">*{stroke-linecap:butt;stroke-linejoin:round;}</style>
 </defs>
 <g id="figure_1">
  <g id="patch_1">
   <path d="M 0 1296 
L 1728 1296 
L 1728 0 
L 0 0 
z
" style="fill:none;"/>
  </g>
  <g id="axes_1">
   <g id="patch_2">
    <path d="M 129.58 55.542857 
L 1603.42 55.542857 
L 1603.42 -129.6 
L 129.58 -129.6 
z
" style="fill:#ffffff;"/>
   </g>
   <g id="patch_3">
    <path clip-path="url(#p768909c110)" d="M 221.695 -37.028571 
L 258.541 -37.028571 
L 258.541 -34.303157 
L 221.695 -34.303157 
z
" style="fill:#fde725;"/>
   </g>
   <g id="patch_4">
    <path clip-path="url(#p768909c110)" d="M 590.155 -37.028571 
L 627.001 -37.028571 
L 627.001 -34.396305 
L 590.155 -34.396305 
z
" style="fill:#fde725;"/>
   </g>
   <g id="patch_5">
    <path clip-path="url(#p768909c110)" d="M 958.615 -37.028571 
L 995.461 -37.028571 
L 995.461 -38.0847 
L 958.615 -38.0847 
z
" style="fill:#fde725;"/>
   </g>
   <g id="patch_6">
    <path clip-path="url(#p768909c110)" d="M 1327.075 -37.028571 
L 1363.921 -37.028571 
L 1363.921 -34.416038 
L 1327.075 -34.416038 
z
" style="fill:#fde725;"/>
   </g>
   <g id="patch_7">
    <path clip-path="url(#p768909c110)" d="M 258.541 -37.028571 
L 295.387 -37.028571 
L 295.387 -33.102415 
L 258.541 -33.102415 
z
" style="fill:#5cc863;"/>
   </g>
   <g id="patch_8">
    <path clip-path="url(#p768909c110)" d="M 627.001 -37.028571 
L 663.847 -37.028571 
L 663.847 -33.685837 
L 627.001 -33.685837 
z
" style="fill:#5cc863;"/>
   </g>
   <g id="patch_9">
    <path clip-path="url(#p768909c110)" d="M 995.461 -37.028571 
L 1032.307 -37.028571 
L 1032.307 -35.635689 
L 995.461 -35.635689 
z
" style="fill:#5cc863;"/>
   </g>
   <g id="patch_10">
    <path clip-path="url(#p768909c110)" d="M 1363.921 -37.028571 
L 1400.767 -37.028571 
L 1400.767 -31.649167 
L 1363.921 -31.649167 
z
" style="fill:#5cc863;"/>
   </g>
   <g id="patch_11">
    <path clip-path="url(#p768909c110)" d="M 295.387 -37.028571 
L 332.233 -37.028571 
L 332.233 -36.411512 
L 295.387 -36.411512 
z
" style="fill:#21908d;"/>
   </g>
   <g id="patch_12">
    <path clip-path="url(#p768909c110)" d="M 663.847 -37.028571 
L 700.693 -37.028571 
L 700.693 -32.070264 
L 663.847 -32.070264 
z
" style="fill:#21908d;"/>
   </g>
   <g id="patch_13">
    <path clip-path="url(#p768909c110)" d="M 1032.307 -37.028571 
L 1069.153 -37.028571 
L 1069.153 -40.643789 
L 1032.307 -40.643789 
z
" style="fill:#21908d;"/>
   </g>
   <g id="patch_14">
    <path clip-path="url(#p768909c110)" d="M 1400.767 -37.028571 
L 1437.613 -37.028571 
L 1437.613 -35.328507 
L 1400.767 -35.328507 
z
" style="fill:#21908d;"/>
   </g>
   <g id="patch_15">
    <path clip-path="url(#p768909c110)" d="M 332.233 -37.028571 
L 369.079 -37.028571 
L 369.079 -34.764165 
L 332.233 -34.764165 
z
" style="fill:#3b518b;"/>
   </g>
   <g id="patch_16">
    <path clip-path="url(#p768909c110)" d="M 700.693 -37.028571 
L 737.539 -37.028571 
L 737.539 -36.46626 
L 700.693 -36.46626 
z
" style="fill:#3b518b;"/>
   </g>
   <g id="patch_17">
    <path clip-path="url(#p768909c110)" d="M 1069.153 -37.028571 
L 1105.999 -37.028571 
L 1105.999 -37.163181 
L 1069.153 -37.163181 
z
" style="fill:#3b518b;"/>
   </g>
   <g id="patch_18">
    <path clip-path="url(#p768909c110)" d="M 1437.613 -37.028571 
L 1474.459 -37.028571 
L 1474.459 -31.536708 
L 1437.613 -31.536708 
z
" style="fill:#3b518b;"/>
   </g>
   <g id="patch_19">
    <path clip-path="url(#p768909c110)" d="M 369.079 -37.028571 
L 405.925 -37.028571 
L 405.925 -32.724212 
L 369.079 -32.724212 
z
" style="fill:#440154;"/>
   </g>
   <g id="patch_20">
    <path clip-path="url(#p768909c110)" d="M 737.539 -37.028571 
L 774.385 -37.028571 
L 774.385 -38.408941 
L 737.539 -38.408941 
z
" style="fill:#440154;"/>
   </g>
   <g id="patch_21">
    <path clip-path="url(#p768909c110)" d="M 1105.999 -37.028571 
L 1142.845 -37.028571 
L 1142.845 -38.66662 
L 1105.999 -38.66662 
z
" style="fill:#440154;"/>
   </g>
   <g id="patch_22">
    <path clip-path="url(#p768909c110)" d="M 1474.459 -37.028571 
L 1511.305 -37.028571 
L 1511.305 -37.39827 
L 1474.459 -37.39827 
z
" style="fill:#440154;"/>
   </g>
   <g id="matplotlib.axis_1">
    <g id="xtick_1">
     <g id="line2d_1">
      <defs>
       <path d="M 0 0 
L 0 3.5 
" id="mde24e16f91" style="stroke:#000000;stroke-width:0.8;"/>
      </defs>
      <g>
       <use style="stroke:#000000;stroke-width:0.8;" x="313.81" xlink:href="#mde24e16f91" y="55.542857"/>
      </g>
     </g>
    </g>
    <g id="xtick_2">
     <g id="line2d_2">
      <g>
       <use style="stroke:#000000;stroke-width:0.8;" x="682.27" xlink:href="#mde24e16f91" y="55.542857"/>
      </g>
     </g>
    </g>
    <g id="xtick_3">
     <g id="line2d_3">
      <g>
       <use style="stroke:#000000;stroke-width:0.8;" x="1050.73" xlink:href="#mde24e16f91" y="55.542857"/>
      </g>
     </g>
    </g>
    <g id="xtick_4">
     <g id="line2d_4">
      <g>
       <use style="stroke:#000000;stroke-width:0.8;" x="1419.19" xlink:href="#mde24e16f91" y="55.542857"/>
      </g>
     </g>
    </g>
   </g>
   <g id="matplotlib.axis_2">
    <g id="ytick_1">
     <g id="line2d_5">
      <defs>
       <path d="M 0 0 
L -3.5 0 
" id="md871019b47" style="stroke:#000000;stroke-width:0.8;"/>
      </defs>
      <g>
       <use style="stroke:#000000;stroke-width:0.8;" x="129.58" xlink:href="#md871019b47" y="34.971429"/>
      </g>
     </g>
     <g id="text_1">
      <!-- −7.0 -->
      <g transform="translate(35.161875 48.648616)scale(0.36 -0.36)">
       <defs>
        <path d="M 10.59375 35.5 
L 73.1875 35.5 
L 73.1875 27.203125 
L 10.59375 27.203125 
z
" id="DejaVuSans-8722"/>
        <path d="M 8.203125 72.90625 
L 55.078125 72.90625 
L 55.078125 68.703125 
L 28.609375 0 
L 18.3125 0 
L 43.21875 64.59375 
L 8.203125 64.59375 
z
" id="DejaVuSans-55"/>
        <path d="M 10.6875 12.40625 
L 21 12.40625 
L 21 0 
L 10.6875 0 
z
" id="DejaVuSans-46"/>
        <path d="M 31.78125 66.40625 
Q 24.171875 66.40625 20.328125 58.90625 
Q 16.5 51.421875 16.5 36.375 
Q 16.5 21.390625 20.328125 13.890625 
Q 24.171875 6.390625 31.78125 6.390625 
Q 39.453125 6.390625 43.28125 13.890625 
Q 47.125 21.390625 47.125 36.375 
Q 47.125 51.421875 43.28125 58.90625 
Q 39.453125 66.40625 31.78125 66.40625 
z
M 31.78125 74.21875 
Q 44.046875 74.21875 50.515625 64.515625 
Q 56.984375 54.828125 56.984375 36.375 
Q 56.984375 17.96875 50.515625 8.265625 
Q 44.046875 -1.421875 31.78125 -1.421875 
Q 19.53125 -1.421875 13.0625 8.265625 
Q 6.59375 17.96875 6.59375 36.375 
Q 6.59375 54.828125 13.0625 64.515625 
Q 19.53125 74.21875 31.78125 74.21875 
z
" id="DejaVuSans-48"/>
       </defs>
       <use xlink:href="#DejaVuSans-8722"/>
       <use x="83.789062" xlink:href="#DejaVuSans-55"/>
       <use x="147.412109" xlink:href="#DejaVuSans-46"/>
       <use x="179.199219" xlink:href="#DejaVuSans-48"/>
      </g>
     </g>
    </g>
    <g id="ytick_2">
     <g id="line2d_6">
      <g/>
     </g>
     <g id="text_2">
      <!-- −3.5 -->
      <g transform="translate(35.161875 12.648616)scale(0.36 -0.36)">
       <defs>
        <path d="M 40.578125 39.3125 
Q 47.65625 37.796875 51.625 33 
Q 55.609375 28.21875 55.609375 21.1875 
Q 55.609375 10.40625 48.1875 4.484375 
Q 40.765625 -1.421875 27.09375 -1.421875 
Q 22.515625 -1.421875 17.65625 -0.515625 
Q 12.796875 0.390625 7.625 2.203125 
L 7.625 11.71875 
Q 11.71875 9.328125 16.59375 8.109375 
Q 21.484375 6.890625 26.8125 6.890625 
Q 36.078125 6.890625 40.9375 10.546875 
Q 45.796875 14.203125 45.796875 21.1875 
Q 45.796875 27.640625 41.28125 31.265625 
Q 36.765625 34.90625 28.71875 34.90625 
L 20.21875 34.90625 
L 20.21875 43.015625 
L 29.109375 43.015625 
Q 36.375 43.015625 40.234375 45.921875 
Q 44.09375 48.828125 44.09375 54.296875 
Q 44.09375 59.90625 40.109375 62.90625 
Q 36.140625 65.921875 28.71875 65.921875 
Q 24.65625 65.921875 20.015625 65.03125 
Q 15.375 64.15625 9.8125 62.3125 
L 9.8125 71.09375 
Q 15.4375 72.65625 20.34375 73.4375 
Q 25.25 74.21875 29.59375 74.21875 
Q 40.828125 74.21875 47.359375 69.109375 
Q 53.90625 64.015625 53.90625 55.328125 
Q 53.90625 49.265625 50.4375 45.09375 
Q 46.96875 40.921875 40.578125 39.3125 
z
" id="DejaVuSans-51"/>
        <path d="M 10.796875 72.90625 
L 49.515625 72.90625 
L 49.515625 64.59375 
L 19.828125 64.59375 
L 19.828125 46.734375 
Q 21.96875 47.46875 24.109375 47.828125 
Q 26.265625 48.1875 28.421875 48.1875 
Q 40.625 48.1875 47.75 41.5 
Q 54.890625 34.8125 54.890625 23.390625 
Q 54.890625 11.625 47.5625 5.09375 
Q 40.234375 -1.421875 26.90625 -1.421875 
Q 22.3125 -1.421875 17.546875 -0.640625 
Q 12.796875 0.140625 7.71875 1.703125 
L 7.71875 11.625 
Q 12.109375 9.234375 16.796875 8.0625 
Q 21.484375 6.890625 26.703125 6.890625 
Q 35.15625 6.890625 40.078125 11.328125 
Q 45.015625 15.765625 45.015625 23.390625 
Q 45.015625 31 40.078125 35.4375 
Q 35.15625 39.890625 26.703125 39.890625 
Q 22.75 39.890625 18.8125 39.015625 
Q 14.890625 38.140625 10.796875 36.28125 
z
" id="DejaVuSans-53"/>
       </defs>
       <use xlink:href="#DejaVuSans-8722"/>
       <use x="83.789062" xlink:href="#DejaVuSans-51"/>
       <use x="147.412109" xlink:href="#DejaVuSans-46"/>
       <use x="179.199219" xlink:href="#DejaVuSans-53"/>
      </g>
     </g>
    </g>
    <g id="ytick_3">
     <g id="line2d_7">
      <g/>
     </g>
     <g id="text_3">
      <!-- 0.0 -->
      <g transform="translate(65.32875 -23.351384)scale(0.36 -0.36)">
       <use xlink:href="#DejaVuSans-48"/>
       <use x="63.623047" xlink:href="#DejaVuSans-46"/>
       <use x="95.410156" xlink:href="#DejaVuSans-48"/>
      </g>
     </g>
    </g>
    <g id="ytick_4">
     <g id="line2d_8">
      <g/>
     </g>
     <g id="text_4">
      <!-- 3.5 -->
      <g transform="translate(65.32875 -59.351384)scale(0.36 -0.36)">
       <use xlink:href="#DejaVuSans-51"/>
       <use x="63.623047" xlink:href="#DejaVuSans-46"/>
       <use x="95.410156" xlink:href="#DejaVuSans-53"/>
      </g>
     </g>
    </g>
    <g id="ytick_5">
     <g id="line2d_9">
      <g/>
     </g>
     <g id="text_5">
      <!-- 7.0 -->
      <g transform="translate(65.32875 -95.351384)scale(0.36 -0.36)">
       <use xlink:href="#DejaVuSans-55"/>
       <use x="63.623047" xlink:href="#DejaVuSans-46"/>
       <use x="95.410156" xlink:href="#DejaVuSans-48"/>
      </g>
     </g>
    </g>
    <g id="text_6">
     <!-- Z-score -->
     <g transform="translate(23.675 29.838616)rotate(-90)scale(0.36 -0.36)">
      <defs>
       <path d="M 5.609375 72.90625 
L 62.890625 72.90625 
L 62.890625 65.375 
L 16.796875 8.296875 
L 64.015625 8.296875 
L 64.015625 0 
L 4.5 0 
L 4.5 7.515625 
L 50.59375 64.59375 
L 5.609375 64.59375 
z
" id="DejaVuSans-90"/>
       <path d="M 4.890625 31.390625 
L 31.203125 31.390625 
L 31.203125 23.390625 
L 4.890625 23.390625 
z
" id="DejaVuSans-45"/>
       <path d="M 44.28125 53.078125 
L 44.28125 44.578125 
Q 40.484375 46.53125 36.375 47.5 
Q 32.28125 48.484375 27.875 48.484375 
Q 21.1875 48.484375 17.84375 46.4375 
Q 14.5 44.390625 14.5 40.28125 
Q 14.5 37.15625 16.890625 35.375 
Q 19.28125 33.59375 26.515625 31.984375 
L 29.59375 31.296875 
Q 39.15625 29.25 43.1875 25.515625 
Q 47.21875 21.78125 47.21875 15.09375 
Q 47.21875 7.46875 41.1875 3.015625 
Q 35.15625 -1.421875 24.609375 -1.421875 
Q 20.21875 -1.421875 15.453125 -0.5625 
Q 10.6875 0.296875 5.421875 2 
L 5.421875 11.28125 
Q 10.40625 8.6875 15.234375 7.390625 
Q 20.0625 6.109375 24.8125 6.109375 
Q 31.15625 6.109375 34.5625 8.28125 
Q 37.984375 10.453125 37.984375 14.40625 
Q 37.984375 18.0625 35.515625 20.015625 
Q 33.0625 21.96875 24.703125 23.78125 
L 21.578125 24.515625 
Q 13.234375 26.265625 9.515625 29.90625 
Q 5.8125 33.546875 5.8125 39.890625 
Q 5.8125 47.609375 11.28125 51.796875 
Q 16.75 56 26.8125 56 
Q 31.78125 56 36.171875 55.265625 
Q 40.578125 54.546875 44.28125 53.078125 
z
" id="DejaVuSans-115"/>
       <path d="M 48.78125 52.59375 
L 48.78125 44.1875 
Q 44.96875 46.296875 41.140625 47.34375 
Q 37.3125 48.390625 33.40625 48.390625 
Q 24.65625 48.390625 19.8125 42.84375 
Q 14.984375 37.3125 14.984375 27.296875 
Q 14.984375 17.28125 19.8125 11.734375 
Q 24.65625 6.203125 33.40625 6.203125 
Q 37.3125 6.203125 41.140625 7.25 
Q 44.96875 8.296875 48.78125 10.40625 
L 48.78125 2.09375 
Q 45.015625 0.34375 40.984375 -0.53125 
Q 36.96875 -1.421875 32.421875 -1.421875 
Q 20.0625 -1.421875 12.78125 6.34375 
Q 5.515625 14.109375 5.515625 27.296875 
Q 5.515625 40.671875 12.859375 48.328125 
Q 20.21875 56 33.015625 56 
Q 37.15625 56 41.109375 55.140625 
Q 45.0625 54.296875 48.78125 52.59375 
z
" id="DejaVuSans-99"/>
       <path d="M 30.609375 48.390625 
Q 23.390625 48.390625 19.1875 42.75 
Q 14.984375 37.109375 14.984375 27.296875 
Q 14.984375 17.484375 19.15625 11.84375 
Q 23.34375 6.203125 30.609375 6.203125 
Q 37.796875 6.203125 41.984375 11.859375 
Q 46.1875 17.53125 46.1875 27.296875 
Q 46.1875 37.015625 41.984375 42.703125 
Q 37.796875 48.390625 30.609375 48.390625 
z
M 30.609375 56 
Q 42.328125 56 49.015625 48.375 
Q 55.71875 40.765625 55.71875 27.296875 
Q 55.71875 13.875 49.015625 6.21875 
Q 42.328125 -1.421875 30.609375 -1.421875 
Q 18.84375 -1.421875 12.171875 6.21875 
Q 5.515625 13.875 5.515625 27.296875 
Q 5.515625 40.765625 12.171875 48.375 
Q 18.84375 56 30.609375 56 
z
" id="DejaVuSans-111"/>
       <path d="M 41.109375 46.296875 
Q 39.59375 47.171875 37.8125 47.578125 
Q 36.03125 48 33.890625 48 
Q 26.265625 48 22.1875 43.046875 
Q 18.109375 38.09375 18.109375 28.8125 
L 18.109375 0 
L 9.078125 0 
L 9.078125 54.6875 
L 18.109375 54.6875 
L 18.109375 46.1875 
Q 20.953125 51.171875 25.484375 53.578125 
Q 30.03125 56 36.53125 56 
Q 37.453125 56 38.578125 55.875 
Q 39.703125 55.765625 41.0625 55.515625 
z
" id="DejaVuSans-114"/>
       <path d="M 56.203125 29.59375 
L 56.203125 25.203125 
L 14.890625 25.203125 
Q 15.484375 15.921875 20.484375 11.0625 
Q 25.484375 6.203125 34.421875 6.203125 
Q 39.59375 6.203125 44.453125 7.46875 
Q 49.3125 8.734375 54.109375 11.28125 
L 54.109375 2.78125 
Q 49.265625 0.734375 44.1875 -0.34375 
Q 39.109375 -1.421875 33.890625 -1.421875 
Q 20.796875 -1.421875 13.15625 6.1875 
Q 5.515625 13.8125 5.515625 26.8125 
Q 5.515625 40.234375 12.765625 48.109375 
Q 20.015625 56 32.328125 56 
Q 43.359375 56 49.78125 48.890625 
Q 56.203125 41.796875 56.203125 29.59375 
z
M 47.21875 32.234375 
Q 47.125 39.59375 43.09375 43.984375 
Q 39.0625 48.390625 32.421875 48.390625 
Q 24.90625 48.390625 20.390625 44.140625 
Q 15.875 39.890625 15.1875 32.171875 
z
" id="DejaVuSans-101"/>
      </defs>
      <use xlink:href="#DejaVuSans-90"/>
      <use x="66.755859" xlink:href="#DejaVuSans-45"/>
      <use x="102.839844" xlink:href="#DejaVuSans-115"/>
      <use x="154.939453" xlink:href="#DejaVuSans-99"/>
      <use x="209.919922" xlink:href="#DejaVuSans-111"/>
      <use x="271.101562" xlink:href="#DejaVuSans-114"/>
      <use x="309.964844" xlink:href="#DejaVuSans-101"/>
     </g>
    </g>
   </g>
   <g id="patch_23">
    <path d="M 129.58 55.542857 
L 129.58 -1 
" style="fill:none;stroke:#000000;stroke-linecap:square;stroke-linejoin:miter;stroke-width:0.8;"/>
   </g>
   <g id="patch_24">
    <path d="M 1603.42 55.542857 
L 1603.42 -1 
" style="fill:none;stroke:#000000;stroke-linecap:square;stroke-linejoin:miter;stroke-width:0.8;"/>
   </g>
   <g id="patch_25">
    <path d="M 129.58 55.542857 
L 1603.42 55.542857 
" style="fill:none;stroke:#000000;stroke-linecap:square;stroke-linejoin:miter;stroke-width:0.8;"/>
   </g>
   <g id="patch_26">
    <path style="fill:none;stroke:#000000;stroke-linecap:square;stroke-linejoin:miter;stroke-width:0.8;"/>
   </g>
   <g id="text_7">
    <!-- RandG -->
    <g transform="translate(794.602375 -138.58425)scale(0.432 -0.432)">
     <defs>
      <path d="M 44.390625 34.1875 
Q 47.5625 33.109375 50.5625 29.59375 
Q 53.5625 26.078125 56.59375 19.921875 
L 66.609375 0 
L 56 0 
L 46.6875 18.703125 
Q 43.0625 26.03125 39.671875 28.421875 
Q 36.28125 30.8125 30.421875 30.8125 
L 19.671875 30.8125 
L 19.671875 0 
L 9.8125 0 
L 9.8125 72.90625 
L 32.078125 72.90625 
Q 44.578125 72.90625 50.734375 67.671875 
Q 56.890625 62.453125 56.890625 51.90625 
Q 56.890625 45.015625 53.6875 40.46875 
Q 50.484375 35.9375 44.390625 34.1875 
z
M 19.671875 64.796875 
L 19.671875 38.921875 
L 32.078125 38.921875 
Q 39.203125 38.921875 42.84375 42.21875 
Q 46.484375 45.515625 46.484375 51.90625 
Q 46.484375 58.296875 42.84375 61.546875 
Q 39.203125 64.796875 32.078125 64.796875 
z
" id="DejaVuSans-82"/>
      <path d="M 34.28125 27.484375 
Q 23.390625 27.484375 19.1875 25 
Q 14.984375 22.515625 14.984375 16.5 
Q 14.984375 11.71875 18.140625 8.90625 
Q 21.296875 6.109375 26.703125 6.109375 
Q 34.1875 6.109375 38.703125 11.40625 
Q 43.21875 16.703125 43.21875 25.484375 
L 43.21875 27.484375 
z
M 52.203125 31.203125 
L 52.203125 0 
L 43.21875 0 
L 43.21875 8.296875 
Q 40.140625 3.328125 35.546875 0.953125 
Q 30.953125 -1.421875 24.3125 -1.421875 
Q 15.921875 -1.421875 10.953125 3.296875 
Q 6 8.015625 6 15.921875 
Q 6 25.140625 12.171875 29.828125 
Q 18.359375 34.515625 30.609375 34.515625 
L 43.21875 34.515625 
L 43.21875 35.40625 
Q 43.21875 41.609375 39.140625 45 
Q 35.0625 48.390625 27.6875 48.390625 
Q 23 48.390625 18.546875 47.265625 
Q 14.109375 46.140625 10.015625 43.890625 
L 10.015625 52.203125 
Q 14.9375 54.109375 19.578125 55.046875 
Q 24.21875 56 28.609375 56 
Q 40.484375 56 46.34375 49.84375 
Q 52.203125 43.703125 52.203125 31.203125 
z
" id="DejaVuSans-97"/>
      <path d="M 54.890625 33.015625 
L 54.890625 0 
L 45.90625 0 
L 45.90625 32.71875 
Q 45.90625 40.484375 42.875 44.328125 
Q 39.84375 48.1875 33.796875 48.1875 
Q 26.515625 48.1875 22.3125 43.546875 
Q 18.109375 38.921875 18.109375 30.90625 
L 18.109375 0 
L 9.078125 0 
L 9.078125 54.6875 
L 18.109375 54.6875 
L 18.109375 46.1875 
Q 21.34375 51.125 25.703125 53.5625 
Q 30.078125 56 35.796875 56 
Q 45.21875 56 50.046875 50.171875 
Q 54.890625 44.34375 54.890625 33.015625 
z
" id="DejaVuSans-110"/>
      <path d="M 45.40625 46.390625 
L 45.40625 75.984375 
L 54.390625 75.984375 
L 54.390625 0 
L 45.40625 0 
L 45.40625 8.203125 
Q 42.578125 3.328125 38.25 0.953125 
Q 33.9375 -1.421875 27.875 -1.421875 
Q 17.96875 -1.421875 11.734375 6.484375 
Q 5.515625 14.40625 5.515625 27.296875 
Q 5.515625 40.1875 11.734375 48.09375 
Q 17.96875 56 27.875 56 
Q 33.9375 56 38.25 53.625 
Q 42.578125 51.265625 45.40625 46.390625 
z
M 14.796875 27.296875 
Q 14.796875 17.390625 18.875 11.75 
Q 22.953125 6.109375 30.078125 6.109375 
Q 37.203125 6.109375 41.296875 11.75 
Q 45.40625 17.390625 45.40625 27.296875 
Q 45.40625 37.203125 41.296875 42.84375 
Q 37.203125 48.484375 30.078125 48.484375 
Q 22.953125 48.484375 18.875 42.84375 
Q 14.796875 37.203125 14.796875 27.296875 
z
" id="DejaVuSans-100"/>
      <path d="M 59.515625 10.40625 
L 59.515625 29.984375 
L 43.40625 29.984375 
L 43.40625 38.09375 
L 69.28125 38.09375 
L 69.28125 6.78125 
Q 63.578125 2.734375 56.6875 0.65625 
Q 49.8125 -1.421875 42 -1.421875 
Q 24.90625 -1.421875 15.25 8.5625 
Q 5.609375 18.5625 5.609375 36.375 
Q 5.609375 54.25 15.25 64.234375 
Q 24.90625 74.21875 42 74.21875 
Q 49.125 74.21875 55.546875 72.453125 
Q 61.96875 70.703125 67.390625 67.28125 
L 67.390625 56.78125 
Q 61.921875 61.421875 55.765625 63.765625 
Q 49.609375 66.109375 42.828125 66.109375 
Q 29.4375 66.109375 22.71875 58.640625 
Q 16.015625 51.171875 16.015625 36.375 
Q 16.015625 21.625 22.71875 14.15625 
Q 29.4375 6.6875 42.828125 6.6875 
Q 48.046875 6.6875 52.140625 7.59375 
Q 56.25 8.5 59.515625 10.40625 
z
" id="DejaVuSans-71"/>
     </defs>
     <use xlink:href="#DejaVuSans-82"/>
     <use x="67.232422" xlink:href="#DejaVuSans-97"/>
     <use x="128.511719" xlink:href="#DejaVuSans-110"/>
     <use x="191.890625" xlink:href="#DejaVuSans-100"/>
     <use x="255.367188" xlink:href="#DejaVuSans-71"/>
    </g>
   </g>
  </g>
  <g id="axes_2">
   <g id="patch_27">
    <path d="M 129.58 333.257143 
L 1603.42 333.257143 
L 1603.42 148.114286 
L 129.58 148.114286 
z
" style="fill:#ffffff;"/>
   </g>
   <g id="patch_28">
    <path clip-path="url(#p4c138ef8ed)" d="M 221.695 240.685714 
L 258.541 240.685714 
L 258.541 211.546078 
L 221.695 211.546078 
z
" style="fill:#fde725;"/>
   </g>
   <g id="patch_29">
    <path clip-path="url(#p4c138ef8ed)" d="M 590.155 240.685714 
L 627.001 240.685714 
L 627.001 216.035834 
L 590.155 216.035834 
z
" style="fill:#fde725;"/>
   </g>
   <g id="patch_30">
    <path clip-path="url(#p4c138ef8ed)" d="M 958.615 240.685714 
L 995.461 240.685714 
L 995.461 217.309118 
L 958.615 217.309118 
z
" style="fill:#fde725;"/>
   </g>
   <g id="patch_31">
    <path clip-path="url(#p4c138ef8ed)" d="M 1327.075 240.685714 
L 1363.921 240.685714 
L 1363.921 211.973767 
L 1327.075 211.973767 
z
" style="fill:#fde725;"/>
   </g>
   <g id="patch_32">
    <path clip-path="url(#p4c138ef8ed)" d="M 258.541 240.685714 
L 295.387 240.685714 
L 295.387 223.058559 
L 258.541 223.058559 
z
" style="fill:#5cc863;"/>
   </g>
   <g id="patch_33">
    <path clip-path="url(#p4c138ef8ed)" d="M 627.001 240.685714 
L 663.847 240.685714 
L 663.847 226.191241 
L 627.001 226.191241 
z
" style="fill:#5cc863;"/>
   </g>
   <g id="patch_34">
    <path clip-path="url(#p4c138ef8ed)" d="M 995.461 240.685714 
L 1032.307 240.685714 
L 1032.307 226.6766 
L 995.461 226.6766 
z
" style="fill:#5cc863;"/>
   </g>
   <g id="patch_35">
    <path clip-path="url(#p4c138ef8ed)" d="M 1363.921 240.685714 
L 1400.767 240.685714 
L 1400.767 224.176285 
L 1363.921 224.176285 
z
" style="fill:#5cc863;"/>
   </g>
   <g id="patch_36">
    <path clip-path="url(#p4c138ef8ed)" d="M 295.387 240.685714 
L 332.233 240.685714 
L 332.233 221.797153 
L 295.387 221.797153 
z
" style="fill:#21908d;"/>
   </g>
   <g id="patch_37">
    <path clip-path="url(#p4c138ef8ed)" d="M 663.847 240.685714 
L 700.693 240.685714 
L 700.693 225.123117 
L 663.847 225.123117 
z
" style="fill:#21908d;"/>
   </g>
   <g id="patch_38">
    <path clip-path="url(#p4c138ef8ed)" d="M 1032.307 240.685714 
L 1069.153 240.685714 
L 1069.153 226.841175 
L 1032.307 226.841175 
z
" style="fill:#21908d;"/>
   </g>
   <g id="patch_39">
    <path clip-path="url(#p4c138ef8ed)" d="M 1400.767 240.685714 
L 1437.613 240.685714 
L 1437.613 222.756225 
L 1400.767 222.756225 
z
" style="fill:#21908d;"/>
   </g>
   <g id="patch_40">
    <path clip-path="url(#p4c138ef8ed)" d="M 332.233 240.685714 
L 369.079 240.685714 
L 369.079 258.942868 
L 332.233 258.942868 
z
" style="fill:#3b518b;"/>
   </g>
   <g id="patch_41">
    <path clip-path="url(#p4c138ef8ed)" d="M 700.693 240.685714 
L 737.539 240.685714 
L 737.539 262.60533 
L 700.693 262.60533 
z
" style="fill:#3b518b;"/>
   </g>
   <g id="patch_42">
    <path clip-path="url(#p4c138ef8ed)" d="M 1069.153 240.685714 
L 1105.999 240.685714 
L 1105.999 262.99563 
L 1069.153 262.99563 
z
" style="fill:#3b518b;"/>
   </g>
   <g id="patch_43">
    <path clip-path="url(#p4c138ef8ed)" d="M 1437.613 240.685714 
L 1474.459 240.685714 
L 1474.459 262.60511 
L 1437.613 262.60511 
z
" style="fill:#3b518b;"/>
   </g>
   <g id="patch_44">
    <path clip-path="url(#p4c138ef8ed)" d="M 369.079 240.685714 
L 405.925 240.685714 
L 405.925 233.916511 
L 369.079 233.916511 
z
" style="fill:#440154;"/>
   </g>
   <g id="patch_45">
    <path clip-path="url(#p4c138ef8ed)" d="M 737.539 240.685714 
L 774.385 240.685714 
L 774.385 232.58153 
L 737.539 232.58153 
z
" style="fill:#440154;"/>
   </g>
   <g id="patch_46">
    <path clip-path="url(#p4c138ef8ed)" d="M 1105.999 240.685714 
L 1142.845 240.685714 
L 1142.845 229.757473 
L 1105.999 229.757473 
z
" style="fill:#440154;"/>
   </g>
   <g id="patch_47">
    <path clip-path="url(#p4c138ef8ed)" d="M 1474.459 240.685714 
L 1511.305 240.685714 
L 1511.305 235.880956 
L 1474.459 235.880956 
z
" style="fill:#440154;"/>
   </g>
   <g id="matplotlib.axis_3">
    <g id="xtick_5">
     <g id="line2d_10">
      <g>
       <use style="stroke:#000000;stroke-width:0.8;" x="313.81" xlink:href="#mde24e16f91" y="333.257143"/>
      </g>
     </g>
    </g>
    <g id="xtick_6">
     <g id="line2d_11">
      <g>
       <use style="stroke:#000000;stroke-width:0.8;" x="682.27" xlink:href="#mde24e16f91" y="333.257143"/>
      </g>
     </g>
    </g>
    <g id="xtick_7">
     <g id="line2d_12">
      <g>
       <use style="stroke:#000000;stroke-width:0.8;" x="1050.73" xlink:href="#mde24e16f91" y="333.257143"/>
      </g>
     </g>
    </g>
    <g id="xtick_8">
     <g id="line2d_13">
      <g>
       <use style="stroke:#000000;stroke-width:0.8;" x="1419.19" xlink:href="#mde24e16f91" y="333.257143"/>
      </g>
     </g>
    </g>
   </g>
   <g id="matplotlib.axis_4">
    <g id="ytick_6">
     <g id="line2d_14">
      <g>
       <use style="stroke:#000000;stroke-width:0.8;" x="129.58" xlink:href="#md871019b47" y="312.685714"/>
      </g>
     </g>
     <g id="text_8">
      <!-- −7.0 -->
      <g transform="translate(35.161875 326.362902)scale(0.36 -0.36)">
       <use xlink:href="#DejaVuSans-8722"/>
       <use x="83.789062" xlink:href="#DejaVuSans-55"/>
       <use x="147.412109" xlink:href="#DejaVuSans-46"/>
       <use x="179.199219" xlink:href="#DejaVuSans-48"/>
      </g>
     </g>
    </g>
    <g id="ytick_7">
     <g id="line2d_15">
      <g>
       <use style="stroke:#000000;stroke-width:0.8;" x="129.58" xlink:href="#md871019b47" y="276.685714"/>
      </g>
     </g>
     <g id="text_9">
      <!-- −3.5 -->
      <g transform="translate(35.161875 290.362902)scale(0.36 -0.36)">
       <use xlink:href="#DejaVuSans-8722"/>
       <use x="83.789062" xlink:href="#DejaVuSans-51"/>
       <use x="147.412109" xlink:href="#DejaVuSans-46"/>
       <use x="179.199219" xlink:href="#DejaVuSans-53"/>
      </g>
     </g>
    </g>
    <g id="ytick_8">
     <g id="line2d_16">
      <g>
       <use style="stroke:#000000;stroke-width:0.8;" x="129.58" xlink:href="#md871019b47" y="240.685714"/>
      </g>
     </g>
     <g id="text_10">
      <!-- 0.0 -->
      <g transform="translate(65.32875 254.362902)scale(0.36 -0.36)">
       <use xlink:href="#DejaVuSans-48"/>
       <use x="63.623047" xlink:href="#DejaVuSans-46"/>
       <use x="95.410156" xlink:href="#DejaVuSans-48"/>
      </g>
     </g>
    </g>
    <g id="ytick_9">
     <g id="line2d_17">
      <g>
       <use style="stroke:#000000;stroke-width:0.8;" x="129.58" xlink:href="#md871019b47" y="204.685714"/>
      </g>
     </g>
     <g id="text_11">
      <!-- 3.5 -->
      <g transform="translate(65.32875 218.362902)scale(0.36 -0.36)">
       <use xlink:href="#DejaVuSans-51"/>
       <use x="63.623047" xlink:href="#DejaVuSans-46"/>
       <use x="95.410156" xlink:href="#DejaVuSans-53"/>
      </g>
     </g>
    </g>
    <g id="ytick_10">
     <g id="line2d_18">
      <g>
       <use style="stroke:#000000;stroke-width:0.8;" x="129.58" xlink:href="#md871019b47" y="168.685714"/>
      </g>
     </g>
     <g id="text_12">
      <!-- 7.0 -->
      <g transform="translate(65.32875 182.362902)scale(0.36 -0.36)">
       <use xlink:href="#DejaVuSans-55"/>
       <use x="63.623047" xlink:href="#DejaVuSans-46"/>
       <use x="95.410156" xlink:href="#DejaVuSans-48"/>
      </g>
     </g>
    </g>
    <g id="text_13">
     <!-- Z-score -->
     <g transform="translate(23.675 307.552902)rotate(-90)scale(0.36 -0.36)">
      <use xlink:href="#DejaVuSans-90"/>
      <use x="66.755859" xlink:href="#DejaVuSans-45"/>
      <use x="102.839844" xlink:href="#DejaVuSans-115"/>
      <use x="154.939453" xlink:href="#DejaVuSans-99"/>
      <use x="209.919922" xlink:href="#DejaVuSans-111"/>
      <use x="271.101562" xlink:href="#DejaVuSans-114"/>
      <use x="309.964844" xlink:href="#DejaVuSans-101"/>
     </g>
    </g>
   </g>
   <g id="patch_48">
    <path d="M 129.58 333.257143 
L 129.58 148.114286 
" style="fill:none;stroke:#000000;stroke-linecap:square;stroke-linejoin:miter;stroke-width:0.8;"/>
   </g>
   <g id="patch_49">
    <path d="M 1603.42 333.257143 
L 1603.42 148.114286 
" style="fill:none;stroke:#000000;stroke-linecap:square;stroke-linejoin:miter;stroke-width:0.8;"/>
   </g>
   <g id="patch_50">
    <path d="M 129.58 333.257143 
L 1603.42 333.257143 
" style="fill:none;stroke:#000000;stroke-linecap:square;stroke-linejoin:miter;stroke-width:0.8;"/>
   </g>
   <g id="patch_51">
    <path d="M 129.58 148.114286 
L 1603.42 148.114286 
" style="fill:none;stroke:#000000;stroke-linecap:square;stroke-linejoin:miter;stroke-width:0.8;"/>
   </g>
   <g id="text_14">
    <!-- DAG -->
    <g transform="translate(819.111625 139.130036)scale(0.432 -0.432)">
     <defs>
      <path d="M 19.671875 64.796875 
L 19.671875 8.109375 
L 31.59375 8.109375 
Q 46.6875 8.109375 53.6875 14.9375 
Q 60.6875 21.78125 60.6875 36.53125 
Q 60.6875 51.171875 53.6875 57.984375 
Q 46.6875 64.796875 31.59375 64.796875 
z
M 9.8125 72.90625 
L 30.078125 72.90625 
Q 51.265625 72.90625 61.171875 64.09375 
Q 71.09375 55.28125 71.09375 36.53125 
Q 71.09375 17.671875 61.125 8.828125 
Q 51.171875 0 30.078125 0 
L 9.8125 0 
z
" id="DejaVuSans-68"/>
      <path d="M 34.1875 63.1875 
L 20.796875 26.90625 
L 47.609375 26.90625 
z
M 28.609375 72.90625 
L 39.796875 72.90625 
L 67.578125 0 
L 57.328125 0 
L 50.6875 18.703125 
L 17.828125 18.703125 
L 11.1875 0 
L 0.78125 0 
z
" id="DejaVuSans-65"/>
     </defs>
     <use xlink:href="#DejaVuSans-68"/>
     <use x="75.251953" xlink:href="#DejaVuSans-65"/>
     <use x="141.910156" xlink:href="#DejaVuSans-71"/>
    </g>
   </g>
  </g>
  <g id="axes_3">
   <g id="patch_52">
    <path d="M 129.58 610.971429 
L 1603.42 610.971429 
L 1603.42 425.828571 
L 129.58 425.828571 
z
" style="fill:#ffffff;"/>
   </g>
   <g id="patch_53">
    <path clip-path="url(#p65e98facae)" d="M 221.695 518.4 
L 258.541 518.4 
L 258.541 588.156939 
L 221.695 588.156939 
z
" style="fill:#fde725;"/>
   </g>
   <g id="patch_54">
    <path clip-path="url(#p65e98facae)" d="M 590.155 518.4 
L 627.001 518.4 
L 627.001 586.460608 
L 590.155 586.460608 
z
" style="fill:#fde725;"/>
   </g>
   <g id="patch_55">
    <path clip-path="url(#p65e98facae)" d="M 958.615 518.4 
L 995.461 518.4 
L 995.461 597.035947 
L 958.615 597.035947 
z
" style="fill:#fde725;"/>
   </g>
   <g id="patch_56">
    <path clip-path="url(#p65e98facae)" d="M 1327.075 518.4 
L 1363.921 518.4 
L 1363.921 599.265591 
L 1327.075 599.265591 
z
" style="fill:#fde725;"/>
   </g>
   <g id="patch_57">
    <path clip-path="url(#p65e98facae)" d="M 258.541 518.4 
L 295.387 518.4 
L 295.387 582.672156 
L 258.541 582.672156 
z
" style="fill:#5cc863;"/>
   </g>
   <g id="patch_58">
    <path clip-path="url(#p65e98facae)" d="M 627.001 518.4 
L 663.847 518.4 
L 663.847 581.837402 
L 627.001 581.837402 
z
" style="fill:#5cc863;"/>
   </g>
   <g id="patch_59">
    <path clip-path="url(#p65e98facae)" d="M 995.461 518.4 
L 1032.307 518.4 
L 1032.307 591.486927 
L 995.461 591.486927 
z
" style="fill:#5cc863;"/>
   </g>
   <g id="patch_60">
    <path clip-path="url(#p65e98facae)" d="M 1363.921 518.4 
L 1400.767 518.4 
L 1400.767 594.831515 
L 1363.921 594.831515 
z
" style="fill:#5cc863;"/>
   </g>
   <g id="patch_61">
    <path clip-path="url(#p65e98facae)" d="M 295.387 518.4 
L 332.233 518.4 
L 332.233 557.746299 
L 295.387 557.746299 
z
" style="fill:#21908d;"/>
   </g>
   <g id="patch_62">
    <path clip-path="url(#p65e98facae)" d="M 663.847 518.4 
L 700.693 518.4 
L 700.693 589.949724 
L 663.847 589.949724 
z
" style="fill:#21908d;"/>
   </g>
   <g id="patch_63">
    <path clip-path="url(#p65e98facae)" d="M 1032.307 518.4 
L 1069.153 518.4 
L 1069.153 603.356431 
L 1032.307 603.356431 
z
" style="fill:#21908d;"/>
   </g>
   <g id="patch_64">
    <path clip-path="url(#p65e98facae)" d="M 1400.767 518.4 
L 1437.613 518.4 
L 1437.613 604.300359 
L 1400.767 604.300359 
z
" style="fill:#21908d;"/>
   </g>
   <g id="patch_65">
    <path clip-path="url(#p65e98facae)" d="M 332.233 518.4 
L 369.079 518.4 
L 369.079 531.991021 
L 332.233 531.991021 
z
" style="fill:#3b518b;"/>
   </g>
   <g id="patch_66">
    <path clip-path="url(#p65e98facae)" d="M 700.693 518.4 
L 737.539 518.4 
L 737.539 528.267499 
L 700.693 528.267499 
z
" style="fill:#3b518b;"/>
   </g>
   <g id="patch_67">
    <path clip-path="url(#p65e98facae)" d="M 1069.153 518.4 
L 1105.999 518.4 
L 1105.999 529.236161 
L 1069.153 529.236161 
z
" style="fill:#3b518b;"/>
   </g>
   <g id="patch_68">
    <path clip-path="url(#p65e98facae)" d="M 1437.613 518.4 
L 1474.459 518.4 
L 1474.459 536.078247 
L 1437.613 536.078247 
z
" style="fill:#3b518b;"/>
   </g>
   <g id="patch_69">
    <path clip-path="url(#p65e98facae)" d="M 369.079 518.4 
L 405.925 518.4 
L 405.925 537.337843 
L 369.079 537.337843 
z
" style="fill:#440154;"/>
   </g>
   <g id="patch_70">
    <path clip-path="url(#p65e98facae)" d="M 737.539 518.4 
L 774.385 518.4 
L 774.385 511.516266 
L 737.539 511.516266 
z
" style="fill:#440154;"/>
   </g>
   <g id="patch_71">
    <path clip-path="url(#p65e98facae)" d="M 1105.999 518.4 
L 1142.845 518.4 
L 1142.845 514.644418 
L 1105.999 514.644418 
z
" style="fill:#440154;"/>
   </g>
   <g id="patch_72">
    <path clip-path="url(#p65e98facae)" d="M 1474.459 518.4 
L 1511.305 518.4 
L 1511.305 506.155785 
L 1474.459 506.155785 
z
" style="fill:#440154;"/>
   </g>
   <g id="matplotlib.axis_5">
    <g id="xtick_9">
     <g id="line2d_19">
      <g>
       <use style="stroke:#000000;stroke-width:0.8;" x="313.81" xlink:href="#mde24e16f91" y="610.971429"/>
      </g>
     </g>
    </g>
    <g id="xtick_10">
     <g id="line2d_20">
      <g>
       <use style="stroke:#000000;stroke-width:0.8;" x="682.27" xlink:href="#mde24e16f91" y="610.971429"/>
      </g>
     </g>
    </g>
    <g id="xtick_11">
     <g id="line2d_21">
      <g>
       <use style="stroke:#000000;stroke-width:0.8;" x="1050.73" xlink:href="#mde24e16f91" y="610.971429"/>
      </g>
     </g>
    </g>
    <g id="xtick_12">
     <g id="line2d_22">
      <g>
       <use style="stroke:#000000;stroke-width:0.8;" x="1419.19" xlink:href="#mde24e16f91" y="610.971429"/>
      </g>
     </g>
    </g>
   </g>
   <g id="matplotlib.axis_6">
    <g id="ytick_11">
     <g id="line2d_23">
      <g>
       <use style="stroke:#000000;stroke-width:0.8;" x="129.58" xlink:href="#md871019b47" y="590.4"/>
      </g>
     </g>
     <g id="text_15">
      <!-- −7.0 -->
      <g transform="translate(35.161875 604.077187)scale(0.36 -0.36)">
       <use xlink:href="#DejaVuSans-8722"/>
       <use x="83.789062" xlink:href="#DejaVuSans-55"/>
       <use x="147.412109" xlink:href="#DejaVuSans-46"/>
       <use x="179.199219" xlink:href="#DejaVuSans-48"/>
      </g>
     </g>
    </g>
    <g id="ytick_12">
     <g id="line2d_24">
      <g>
       <use style="stroke:#000000;stroke-width:0.8;" x="129.58" xlink:href="#md871019b47" y="554.4"/>
      </g>
     </g>
     <g id="text_16">
      <!-- −3.5 -->
      <g transform="translate(35.161875 568.077187)scale(0.36 -0.36)">
       <use xlink:href="#DejaVuSans-8722"/>
       <use x="83.789062" xlink:href="#DejaVuSans-51"/>
       <use x="147.412109" xlink:href="#DejaVuSans-46"/>
       <use x="179.199219" xlink:href="#DejaVuSans-53"/>
      </g>
     </g>
    </g>
    <g id="ytick_13">
     <g id="line2d_25">
      <g>
       <use style="stroke:#000000;stroke-width:0.8;" x="129.58" xlink:href="#md871019b47" y="518.4"/>
      </g>
     </g>
     <g id="text_17">
      <!-- 0.0 -->
      <g transform="translate(65.32875 532.077187)scale(0.36 -0.36)">
       <use xlink:href="#DejaVuSans-48"/>
       <use x="63.623047" xlink:href="#DejaVuSans-46"/>
       <use x="95.410156" xlink:href="#DejaVuSans-48"/>
      </g>
     </g>
    </g>
    <g id="ytick_14">
     <g id="line2d_26">
      <g>
       <use style="stroke:#000000;stroke-width:0.8;" x="129.58" xlink:href="#md871019b47" y="482.4"/>
      </g>
     </g>
     <g id="text_18">
      <!-- 3.5 -->
      <g transform="translate(65.32875 496.077187)scale(0.36 -0.36)">
       <use xlink:href="#DejaVuSans-51"/>
       <use x="63.623047" xlink:href="#DejaVuSans-46"/>
       <use x="95.410156" xlink:href="#DejaVuSans-53"/>
      </g>
     </g>
    </g>
    <g id="ytick_15">
     <g id="line2d_27">
      <g>
       <use style="stroke:#000000;stroke-width:0.8;" x="129.58" xlink:href="#md871019b47" y="446.4"/>
      </g>
     </g>
     <g id="text_19">
      <!-- 7.0 -->
      <g transform="translate(65.32875 460.077187)scale(0.36 -0.36)">
       <use xlink:href="#DejaVuSans-55"/>
       <use x="63.623047" xlink:href="#DejaVuSans-46"/>
       <use x="95.410156" xlink:href="#DejaVuSans-48"/>
      </g>
     </g>
    </g>
    <g id="text_20">
     <!-- Z-score -->
     <g transform="translate(23.675 585.267187)rotate(-90)scale(0.36 -0.36)">
      <use xlink:href="#DejaVuSans-90"/>
      <use x="66.755859" xlink:href="#DejaVuSans-45"/>
      <use x="102.839844" xlink:href="#DejaVuSans-115"/>
      <use x="154.939453" xlink:href="#DejaVuSans-99"/>
      <use x="209.919922" xlink:href="#DejaVuSans-111"/>
      <use x="271.101562" xlink:href="#DejaVuSans-114"/>
      <use x="309.964844" xlink:href="#DejaVuSans-101"/>
     </g>
    </g>
   </g>
   <g id="patch_73">
    <path d="M 129.58 610.971429 
L 129.58 425.828571 
" style="fill:none;stroke:#000000;stroke-linecap:square;stroke-linejoin:miter;stroke-width:0.8;"/>
   </g>
   <g id="patch_74">
    <path d="M 1603.42 610.971429 
L 1603.42 425.828571 
" style="fill:none;stroke:#000000;stroke-linecap:square;stroke-linejoin:miter;stroke-width:0.8;"/>
   </g>
   <g id="patch_75">
    <path d="M 129.58 610.971429 
L 1603.42 610.971429 
" style="fill:none;stroke:#000000;stroke-linecap:square;stroke-linejoin:miter;stroke-width:0.8;"/>
   </g>
   <g id="patch_76">
    <path d="M 129.58 425.828571 
L 1603.42 425.828571 
" style="fill:none;stroke:#000000;stroke-linecap:square;stroke-linejoin:miter;stroke-width:0.8;"/>
   </g>
   <g id="text_21">
    <!-- GNW -->
    <g transform="translate(812.246875 416.844321)scale(0.432 -0.432)">
     <defs>
      <path d="M 9.8125 72.90625 
L 23.09375 72.90625 
L 55.421875 11.921875 
L 55.421875 72.90625 
L 64.984375 72.90625 
L 64.984375 0 
L 51.703125 0 
L 19.390625 60.984375 
L 19.390625 0 
L 9.8125 0 
z
" id="DejaVuSans-78"/>
      <path d="M 3.328125 72.90625 
L 13.28125 72.90625 
L 28.609375 11.28125 
L 43.890625 72.90625 
L 54.984375 72.90625 
L 70.3125 11.28125 
L 85.59375 72.90625 
L 95.609375 72.90625 
L 77.296875 0 
L 64.890625 0 
L 49.515625 63.28125 
L 33.984375 0 
L 21.578125 0 
z
" id="DejaVuSans-87"/>
     </defs>
     <use xlink:href="#DejaVuSans-71"/>
     <use x="77.490234" xlink:href="#DejaVuSans-78"/>
     <use x="152.294922" xlink:href="#DejaVuSans-87"/>
    </g>
   </g>
  </g>
  <g id="axes_4">
   <g id="patch_77">
    <path d="M 129.58 888.685714 
L 1603.42 888.685714 
L 1603.42 703.542857 
L 129.58 703.542857 
z
" style="fill:#ffffff;"/>
   </g>
   <g id="patch_78">
    <path clip-path="url(#p356ef55bc0)" d="M 221.695 796.114286 
L 258.541 796.114286 
L 258.541 786.10951 
L 221.695 786.10951 
z
" style="fill:#fde725;"/>
   </g>
   <g id="patch_79">
    <path clip-path="url(#p356ef55bc0)" d="M 590.155 796.114286 
L 627.001 796.114286 
L 627.001 796.195826 
L 590.155 796.195826 
z
" style="fill:#fde725;"/>
   </g>
   <g id="patch_80">
    <path clip-path="url(#p356ef55bc0)" d="M 958.615 796.114286 
L 995.461 796.114286 
L 995.461 791.799489 
L 958.615 791.799489 
z
" style="fill:#fde725;"/>
   </g>
   <g id="patch_81">
    <path clip-path="url(#p356ef55bc0)" d="M 1327.075 796.114286 
L 1363.921 796.114286 
L 1363.921 794.034311 
L 1327.075 794.034311 
z
" style="fill:#fde725;"/>
   </g>
   <g id="patch_82">
    <path clip-path="url(#p356ef55bc0)" d="M 258.541 796.114286 
L 295.387 796.114286 
L 295.387 786.025943 
L 258.541 786.025943 
z
" style="fill:#5cc863;"/>
   </g>
   <g id="patch_83">
    <path clip-path="url(#p356ef55bc0)" d="M 627.001 796.114286 
L 663.847 796.114286 
L 663.847 797.001845 
L 627.001 797.001845 
z
" style="fill:#5cc863;"/>
   </g>
   <g id="patch_84">
    <path clip-path="url(#p356ef55bc0)" d="M 995.461 796.114286 
L 1032.307 796.114286 
L 1032.307 792.360069 
L 995.461 792.360069 
z
" style="fill:#5cc863;"/>
   </g>
   <g id="patch_85">
    <path clip-path="url(#p356ef55bc0)" d="M 1363.921 796.114286 
L 1400.767 796.114286 
L 1400.767 793.903801 
L 1363.921 793.903801 
z
" style="fill:#5cc863;"/>
   </g>
   <g id="patch_86">
    <path clip-path="url(#p356ef55bc0)" d="M 295.387 796.114286 
L 332.233 796.114286 
L 332.233 770.238981 
L 295.387 770.238981 
z
" style="fill:#21908d;"/>
   </g>
   <g id="patch_87">
    <path clip-path="url(#p356ef55bc0)" d="M 663.847 796.114286 
L 700.693 796.114286 
L 700.693 768.12812 
L 663.847 768.12812 
z
" style="fill:#21908d;"/>
   </g>
   <g id="patch_88">
    <path clip-path="url(#p356ef55bc0)" d="M 1032.307 796.114286 
L 1069.153 796.114286 
L 1069.153 766.431072 
L 1032.307 766.431072 
z
" style="fill:#21908d;"/>
   </g>
   <g id="patch_89">
    <path clip-path="url(#p356ef55bc0)" d="M 1400.767 796.114286 
L 1437.613 796.114286 
L 1437.613 773.141562 
L 1400.767 773.141562 
z
" style="fill:#21908d;"/>
   </g>
   <g id="patch_90">
    <path clip-path="url(#p356ef55bc0)" d="M 332.233 796.114286 
L 369.079 796.114286 
L 369.079 793.806737 
L 332.233 793.806737 
z
" style="fill:#3b518b;"/>
   </g>
   <g id="patch_91">
    <path clip-path="url(#p356ef55bc0)" d="M 700.693 796.114286 
L 737.539 796.114286 
L 737.539 800.269245 
L 700.693 800.269245 
z
" style="fill:#3b518b;"/>
   </g>
   <g id="patch_92">
    <path clip-path="url(#p356ef55bc0)" d="M 1069.153 796.114286 
L 1105.999 796.114286 
L 1105.999 800.42689 
L 1069.153 800.42689 
z
" style="fill:#3b518b;"/>
   </g>
   <g id="patch_93">
    <path clip-path="url(#p356ef55bc0)" d="M 1437.613 796.114286 
L 1474.459 796.114286 
L 1474.459 795.118967 
L 1437.613 795.118967 
z
" style="fill:#3b518b;"/>
   </g>
   <g id="patch_94">
    <path clip-path="url(#p356ef55bc0)" d="M 369.079 796.114286 
L 405.925 796.114286 
L 405.925 828.184362 
L 369.079 828.184362 
z
" style="fill:#440154;"/>
   </g>
   <g id="patch_95">
    <path clip-path="url(#p356ef55bc0)" d="M 737.539 796.114286 
L 774.385 796.114286 
L 774.385 816.497218 
L 737.539 816.497218 
z
" style="fill:#440154;"/>
   </g>
   <g id="patch_96">
    <path clip-path="url(#p356ef55bc0)" d="M 1105.999 796.114286 
L 1142.845 796.114286 
L 1142.845 824.100059 
L 1105.999 824.100059 
z
" style="fill:#440154;"/>
   </g>
   <g id="patch_97">
    <path clip-path="url(#p356ef55bc0)" d="M 1474.459 796.114286 
L 1511.305 796.114286 
L 1511.305 823.947476 
L 1474.459 823.947476 
z
" style="fill:#440154;"/>
   </g>
   <g id="matplotlib.axis_7">
    <g id="xtick_13">
     <g id="line2d_28">
      <g>
       <use style="stroke:#000000;stroke-width:0.8;" x="313.81" xlink:href="#mde24e16f91" y="888.685714"/>
      </g>
     </g>
    </g>
    <g id="xtick_14">
     <g id="line2d_29">
      <g>
       <use style="stroke:#000000;stroke-width:0.8;" x="682.27" xlink:href="#mde24e16f91" y="888.685714"/>
      </g>
     </g>
    </g>
    <g id="xtick_15">
     <g id="line2d_30">
      <g>
       <use style="stroke:#000000;stroke-width:0.8;" x="1050.73" xlink:href="#mde24e16f91" y="888.685714"/>
      </g>
     </g>
    </g>
    <g id="xtick_16">
     <g id="line2d_31">
      <g>
       <use style="stroke:#000000;stroke-width:0.8;" x="1419.19" xlink:href="#mde24e16f91" y="888.685714"/>
      </g>
     </g>
    </g>
   </g>
   <g id="matplotlib.axis_8">
    <g id="ytick_16">
     <g id="line2d_32">
      <g>
       <use style="stroke:#000000;stroke-width:0.8;" x="129.58" xlink:href="#md871019b47" y="868.114286"/>
      </g>
     </g>
     <g id="text_22">
      <!-- −7.0 -->
      <g transform="translate(35.161875 881.791473)scale(0.36 -0.36)">
       <use xlink:href="#DejaVuSans-8722"/>
       <use x="83.789062" xlink:href="#DejaVuSans-55"/>
       <use x="147.412109" xlink:href="#DejaVuSans-46"/>
       <use x="179.199219" xlink:href="#DejaVuSans-48"/>
      </g>
     </g>
    </g>
    <g id="ytick_17">
     <g id="line2d_33">
      <g>
       <use style="stroke:#000000;stroke-width:0.8;" x="129.58" xlink:href="#md871019b47" y="832.114286"/>
      </g>
     </g>
     <g id="text_23">
      <!-- −3.5 -->
      <g transform="translate(35.161875 845.791473)scale(0.36 -0.36)">
       <use xlink:href="#DejaVuSans-8722"/>
       <use x="83.789062" xlink:href="#DejaVuSans-51"/>
       <use x="147.412109" xlink:href="#DejaVuSans-46"/>
       <use x="179.199219" xlink:href="#DejaVuSans-53"/>
      </g>
     </g>
    </g>
    <g id="ytick_18">
     <g id="line2d_34">
      <g>
       <use style="stroke:#000000;stroke-width:0.8;" x="129.58" xlink:href="#md871019b47" y="796.114286"/>
      </g>
     </g>
     <g id="text_24">
      <!-- 0.0 -->
      <g transform="translate(65.32875 809.791473)scale(0.36 -0.36)">
       <use xlink:href="#DejaVuSans-48"/>
       <use x="63.623047" xlink:href="#DejaVuSans-46"/>
       <use x="95.410156" xlink:href="#DejaVuSans-48"/>
      </g>
     </g>
    </g>
    <g id="ytick_19">
     <g id="line2d_35">
      <g>
       <use style="stroke:#000000;stroke-width:0.8;" x="129.58" xlink:href="#md871019b47" y="760.114286"/>
      </g>
     </g>
     <g id="text_25">
      <!-- 3.5 -->
      <g transform="translate(65.32875 773.791473)scale(0.36 -0.36)">
       <use xlink:href="#DejaVuSans-51"/>
       <use x="63.623047" xlink:href="#DejaVuSans-46"/>
       <use x="95.410156" xlink:href="#DejaVuSans-53"/>
      </g>
     </g>
    </g>
    <g id="ytick_20">
     <g id="line2d_36">
      <g>
       <use style="stroke:#000000;stroke-width:0.8;" x="129.58" xlink:href="#md871019b47" y="724.114286"/>
      </g>
     </g>
     <g id="text_26">
      <!-- 7.0 -->
      <g transform="translate(65.32875 737.791473)scale(0.36 -0.36)">
       <use xlink:href="#DejaVuSans-55"/>
       <use x="63.623047" xlink:href="#DejaVuSans-46"/>
       <use x="95.410156" xlink:href="#DejaVuSans-48"/>
      </g>
     </g>
    </g>
    <g id="text_27">
     <!-- Z-score -->
     <g transform="translate(23.675 862.981473)rotate(-90)scale(0.36 -0.36)">
      <use xlink:href="#DejaVuSans-90"/>
      <use x="66.755859" xlink:href="#DejaVuSans-45"/>
      <use x="102.839844" xlink:href="#DejaVuSans-115"/>
      <use x="154.939453" xlink:href="#DejaVuSans-99"/>
      <use x="209.919922" xlink:href="#DejaVuSans-111"/>
      <use x="271.101562" xlink:href="#DejaVuSans-114"/>
      <use x="309.964844" xlink:href="#DejaVuSans-101"/>
     </g>
    </g>
   </g>
   <g id="patch_98">
    <path d="M 129.58 888.685714 
L 129.58 703.542857 
" style="fill:none;stroke:#000000;stroke-linecap:square;stroke-linejoin:miter;stroke-width:0.8;"/>
   </g>
   <g id="patch_99">
    <path d="M 1603.42 888.685714 
L 1603.42 703.542857 
" style="fill:none;stroke:#000000;stroke-linecap:square;stroke-linejoin:miter;stroke-width:0.8;"/>
   </g>
   <g id="patch_100">
    <path d="M 129.58 888.685714 
L 1603.42 888.685714 
" style="fill:none;stroke:#000000;stroke-linecap:square;stroke-linejoin:miter;stroke-width:0.8;"/>
   </g>
   <g id="patch_101">
    <path d="M 129.58 703.542857 
L 1603.42 703.542857 
" style="fill:none;stroke:#000000;stroke-linecap:square;stroke-linejoin:miter;stroke-width:0.8;"/>
   </g>
   <g id="text_28">
    <!-- NetworkX graph -->
    <g transform="translate(691.421875 694.558607)scale(0.432 -0.432)">
     <defs>
      <path d="M 18.3125 70.21875 
L 18.3125 54.6875 
L 36.8125 54.6875 
L 36.8125 47.703125 
L 18.3125 47.703125 
L 18.3125 18.015625 
Q 18.3125 11.328125 20.140625 9.421875 
Q 21.96875 7.515625 27.59375 7.515625 
L 36.8125 7.515625 
L 36.8125 0 
L 27.59375 0 
Q 17.1875 0 13.234375 3.875 
Q 9.28125 7.765625 9.28125 18.015625 
L 9.28125 47.703125 
L 2.6875 47.703125 
L 2.6875 54.6875 
L 9.28125 54.6875 
L 9.28125 70.21875 
z
" id="DejaVuSans-116"/>
      <path d="M 4.203125 54.6875 
L 13.1875 54.6875 
L 24.421875 12.015625 
L 35.59375 54.6875 
L 46.1875 54.6875 
L 57.421875 12.015625 
L 68.609375 54.6875 
L 77.59375 54.6875 
L 63.28125 0 
L 52.6875 0 
L 40.921875 44.828125 
L 29.109375 0 
L 18.5 0 
z
" id="DejaVuSans-119"/>
      <path d="M 9.078125 75.984375 
L 18.109375 75.984375 
L 18.109375 31.109375 
L 44.921875 54.6875 
L 56.390625 54.6875 
L 27.390625 29.109375 
L 57.625 0 
L 45.90625 0 
L 18.109375 26.703125 
L 18.109375 0 
L 9.078125 0 
z
" id="DejaVuSans-107"/>
      <path d="M 6.296875 72.90625 
L 16.890625 72.90625 
L 35.015625 45.796875 
L 53.21875 72.90625 
L 63.8125 72.90625 
L 40.375 37.890625 
L 65.375 0 
L 54.78125 0 
L 34.28125 31 
L 13.625 0 
L 2.984375 0 
L 29 38.921875 
z
" id="DejaVuSans-88"/>
      <path id="DejaVuSans-32"/>
      <path d="M 45.40625 27.984375 
Q 45.40625 37.75 41.375 43.109375 
Q 37.359375 48.484375 30.078125 48.484375 
Q 22.859375 48.484375 18.828125 43.109375 
Q 14.796875 37.75 14.796875 27.984375 
Q 14.796875 18.265625 18.828125 12.890625 
Q 22.859375 7.515625 30.078125 7.515625 
Q 37.359375 7.515625 41.375 12.890625 
Q 45.40625 18.265625 45.40625 27.984375 
z
M 54.390625 6.78125 
Q 54.390625 -7.171875 48.1875 -13.984375 
Q 42 -20.796875 29.203125 -20.796875 
Q 24.46875 -20.796875 20.265625 -20.09375 
Q 16.0625 -19.390625 12.109375 -17.921875 
L 12.109375 -9.1875 
Q 16.0625 -11.328125 19.921875 -12.34375 
Q 23.78125 -13.375 27.78125 -13.375 
Q 36.625 -13.375 41.015625 -8.765625 
Q 45.40625 -4.15625 45.40625 5.171875 
L 45.40625 9.625 
Q 42.625 4.78125 38.28125 2.390625 
Q 33.9375 0 27.875 0 
Q 17.828125 0 11.671875 7.65625 
Q 5.515625 15.328125 5.515625 27.984375 
Q 5.515625 40.671875 11.671875 48.328125 
Q 17.828125 56 27.875 56 
Q 33.9375 56 38.28125 53.609375 
Q 42.625 51.21875 45.40625 46.390625 
L 45.40625 54.6875 
L 54.390625 54.6875 
z
" id="DejaVuSans-103"/>
      <path d="M 18.109375 8.203125 
L 18.109375 -20.796875 
L 9.078125 -20.796875 
L 9.078125 54.6875 
L 18.109375 54.6875 
L 18.109375 46.390625 
Q 20.953125 51.265625 25.265625 53.625 
Q 29.59375 56 35.59375 56 
Q 45.5625 56 51.78125 48.09375 
Q 58.015625 40.1875 58.015625 27.296875 
Q 58.015625 14.40625 51.78125 6.484375 
Q 45.5625 -1.421875 35.59375 -1.421875 
Q 29.59375 -1.421875 25.265625 0.953125 
Q 20.953125 3.328125 18.109375 8.203125 
z
M 48.6875 27.296875 
Q 48.6875 37.203125 44.609375 42.84375 
Q 40.53125 48.484375 33.40625 48.484375 
Q 26.265625 48.484375 22.1875 42.84375 
Q 18.109375 37.203125 18.109375 27.296875 
Q 18.109375 17.390625 22.1875 11.75 
Q 26.265625 6.109375 33.40625 6.109375 
Q 40.53125 6.109375 44.609375 11.75 
Q 48.6875 17.390625 48.6875 27.296875 
z
" id="DejaVuSans-112"/>
      <path d="M 54.890625 33.015625 
L 54.890625 0 
L 45.90625 0 
L 45.90625 32.71875 
Q 45.90625 40.484375 42.875 44.328125 
Q 39.84375 48.1875 33.796875 48.1875 
Q 26.515625 48.1875 22.3125 43.546875 
Q 18.109375 38.921875 18.109375 30.90625 
L 18.109375 0 
L 9.078125 0 
L 9.078125 75.984375 
L 18.109375 75.984375 
L 18.109375 46.1875 
Q 21.34375 51.125 25.703125 53.5625 
Q 30.078125 56 35.796875 56 
Q 45.21875 56 50.046875 50.171875 
Q 54.890625 44.34375 54.890625 33.015625 
z
" id="DejaVuSans-104"/>
     </defs>
     <use xlink:href="#DejaVuSans-78"/>
     <use x="74.804688" xlink:href="#DejaVuSans-101"/>
     <use x="136.328125" xlink:href="#DejaVuSans-116"/>
     <use x="175.537109" xlink:href="#DejaVuSans-119"/>
     <use x="257.324219" xlink:href="#DejaVuSans-111"/>
     <use x="318.505859" xlink:href="#DejaVuSans-114"/>
     <use x="359.619141" xlink:href="#DejaVuSans-107"/>
     <use x="417.529297" xlink:href="#DejaVuSans-88"/>
     <use x="486.035156" xlink:href="#DejaVuSans-32"/>
     <use x="517.822266" xlink:href="#DejaVuSans-103"/>
     <use x="581.298828" xlink:href="#DejaVuSans-114"/>
     <use x="622.412109" xlink:href="#DejaVuSans-97"/>
     <use x="683.691406" xlink:href="#DejaVuSans-112"/>
     <use x="747.167969" xlink:href="#DejaVuSans-104"/>
    </g>
   </g>
  </g>
  <g id="axes_5">
   <g id="patch_102">
    <path d="M 129.58 1166.4 
L 1603.42 1166.4 
L 1603.42 981.257143 
L 129.58 981.257143 
z
" style="fill:#ffffff;"/>
   </g>
   <g id="patch_103">
    <path clip-path="url(#p95f4b825b1)" d="M 221.695 1073.828571 
L 258.541 1073.828571 
L 258.541 1014.872362 
L 221.695 1014.872362 
z
" style="fill:#fde725;"/>
   </g>
   <g id="patch_104">
    <path clip-path="url(#p95f4b825b1)" d="M 590.155 1073.828571 
L 627.001 1073.828571 
L 627.001 1022.143182 
L 590.155 1022.143182 
z
" style="fill:#fde725;"/>
   </g>
   <g id="patch_105">
    <path clip-path="url(#p95f4b825b1)" d="M 958.615 1073.828571 
L 995.461 1073.828571 
L 995.461 1028.528327 
L 958.615 1028.528327 
z
" style="fill:#fde725;"/>
   </g>
   <g id="patch_106">
    <path clip-path="url(#p95f4b825b1)" d="M 1327.075 1073.828571 
L 1363.921 1073.828571 
L 1363.921 1006.883207 
L 1327.075 1006.883207 
z
" style="fill:#fde725;"/>
   </g>
   <g id="patch_107">
    <path clip-path="url(#p95f4b825b1)" d="M 258.541 1073.828571 
L 295.387 1073.828571 
L 295.387 1018.100539 
L 258.541 1018.100539 
z
" style="fill:#5cc863;"/>
   </g>
   <g id="patch_108">
    <path clip-path="url(#p95f4b825b1)" d="M 627.001 1073.828571 
L 663.847 1073.828571 
L 663.847 1024.666845 
L 627.001 1024.666845 
z
" style="fill:#5cc863;"/>
   </g>
   <g id="patch_109">
    <path clip-path="url(#p95f4b825b1)" d="M 995.461 1073.828571 
L 1032.307 1073.828571 
L 1032.307 1030.051347 
L 995.461 1030.051347 
z
" style="fill:#5cc863;"/>
   </g>
   <g id="patch_110">
    <path clip-path="url(#p95f4b825b1)" d="M 1363.921 1073.828571 
L 1400.767 1073.828571 
L 1400.767 1008.981071 
L 1363.921 1008.981071 
z
" style="fill:#5cc863;"/>
   </g>
   <g id="patch_111">
    <path clip-path="url(#p95f4b825b1)" d="M 295.387 1073.828571 
L 332.233 1073.828571 
L 332.233 1008.483018 
L 295.387 1008.483018 
z
" style="fill:#21908d;"/>
   </g>
   <g id="patch_112">
    <path clip-path="url(#p95f4b825b1)" d="M 663.847 1073.828571 
L 700.693 1073.828571 
L 700.693 1011.814885 
L 663.847 1011.814885 
z
" style="fill:#21908d;"/>
   </g>
   <g id="patch_113">
    <path clip-path="url(#p95f4b825b1)" d="M 1032.307 1073.828571 
L 1069.153 1073.828571 
L 1069.153 1021.417428 
L 1032.307 1021.417428 
z
" style="fill:#21908d;"/>
   </g>
   <g id="patch_114">
    <path clip-path="url(#p95f4b825b1)" d="M 1400.767 1073.828571 
L 1437.613 1073.828571 
L 1437.613 1008.016136 
L 1400.767 1008.016136 
z
" style="fill:#21908d;"/>
   </g>
   <g id="patch_115">
    <path clip-path="url(#p95f4b825b1)" d="M 332.233 1073.828571 
L 369.079 1073.828571 
L 369.079 1106.677512 
L 332.233 1106.677512 
z
" style="fill:#3b518b;"/>
   </g>
   <g id="patch_116">
    <path clip-path="url(#p95f4b825b1)" d="M 700.693 1073.828571 
L 737.539 1073.828571 
L 737.539 1109.005763 
L 700.693 1109.005763 
z
" style="fill:#3b518b;"/>
   </g>
   <g id="patch_117">
    <path clip-path="url(#p95f4b825b1)" d="M 1069.153 1073.828571 
L 1105.999 1073.828571 
L 1105.999 1111.212104 
L 1069.153 1111.212104 
z
" style="fill:#3b518b;"/>
   </g>
   <g id="patch_118">
    <path clip-path="url(#p95f4b825b1)" d="M 1437.613 1073.828571 
L 1474.459 1073.828571 
L 1474.459 1115.508904 
L 1437.613 1115.508904 
z
" style="fill:#3b518b;"/>
   </g>
   <g id="patch_119">
    <path clip-path="url(#p95f4b825b1)" d="M 369.079 1073.828571 
L 405.925 1073.828571 
L 405.925 1043.473948 
L 369.079 1043.473948 
z
" style="fill:#440154;"/>
   </g>
   <g id="patch_120">
    <path clip-path="url(#p95f4b825b1)" d="M 737.539 1073.828571 
L 774.385 1073.828571 
L 774.385 1034.257789 
L 737.539 1034.257789 
z
" style="fill:#440154;"/>
   </g>
   <g id="patch_121">
    <path clip-path="url(#p95f4b825b1)" d="M 1105.999 1073.828571 
L 1142.845 1073.828571 
L 1142.845 1048.688885 
L 1105.999 1048.688885 
z
" style="fill:#440154;"/>
   </g>
   <g id="patch_122">
    <path clip-path="url(#p95f4b825b1)" d="M 1474.459 1073.828571 
L 1511.305 1073.828571 
L 1511.305 1022.604261 
L 1474.459 1022.604261 
z
" style="fill:#440154;"/>
   </g>
   <g id="matplotlib.axis_9">
    <g id="xtick_17">
     <g id="line2d_37">
      <g>
       <use style="stroke:#000000;stroke-width:0.8;" x="313.81" xlink:href="#mde24e16f91" y="1166.4"/>
      </g>
     </g>
     <g id="text_29">
      <!-- 500 -->
      <g transform="translate(323.74375 1242.115)rotate(-90)scale(0.36 -0.36)">
       <use xlink:href="#DejaVuSans-53"/>
       <use x="63.623047" xlink:href="#DejaVuSans-48"/>
       <use x="127.246094" xlink:href="#DejaVuSans-48"/>
      </g>
     </g>
    </g>
    <g id="xtick_18">
     <g id="line2d_38">
      <g>
       <use style="stroke:#000000;stroke-width:0.8;" x="682.27" xlink:href="#mde24e16f91" y="1166.4"/>
      </g>
     </g>
     <g id="text_30">
      <!-- 750 -->
      <g transform="translate(692.20375 1242.115)rotate(-90)scale(0.36 -0.36)">
       <use xlink:href="#DejaVuSans-55"/>
       <use x="63.623047" xlink:href="#DejaVuSans-53"/>
       <use x="127.246094" xlink:href="#DejaVuSans-48"/>
      </g>
     </g>
    </g>
    <g id="xtick_19">
     <g id="line2d_39">
      <g>
       <use style="stroke:#000000;stroke-width:0.8;" x="1050.73" xlink:href="#mde24e16f91" y="1166.4"/>
      </g>
     </g>
     <g id="text_31">
      <!-- 1000 -->
      <g transform="translate(1060.66375 1265.02)rotate(-90)scale(0.36 -0.36)">
       <defs>
        <path d="M 12.40625 8.296875 
L 28.515625 8.296875 
L 28.515625 63.921875 
L 10.984375 60.40625 
L 10.984375 69.390625 
L 28.421875 72.90625 
L 38.28125 72.90625 
L 38.28125 8.296875 
L 54.390625 8.296875 
L 54.390625 0 
L 12.40625 0 
z
" id="DejaVuSans-49"/>
       </defs>
       <use xlink:href="#DejaVuSans-49"/>
       <use x="63.623047" xlink:href="#DejaVuSans-48"/>
       <use x="127.246094" xlink:href="#DejaVuSans-48"/>
       <use x="190.869141" xlink:href="#DejaVuSans-48"/>
      </g>
     </g>
    </g>
    <g id="xtick_20">
     <g id="line2d_40">
      <g>
       <use style="stroke:#000000;stroke-width:0.8;" x="1419.19" xlink:href="#mde24e16f91" y="1166.4"/>
      </g>
     </g>
     <g id="text_32">
      <!-- 1500 -->
      <g transform="translate(1429.12375 1265.02)rotate(-90)scale(0.36 -0.36)">
       <use xlink:href="#DejaVuSans-49"/>
       <use x="63.623047" xlink:href="#DejaVuSans-53"/>
       <use x="127.246094" xlink:href="#DejaVuSans-48"/>
       <use x="190.869141" xlink:href="#DejaVuSans-48"/>
      </g>
     </g>
    </g>
    <g id="text_33">
     <!-- size -->
     <g transform="translate(831.599687 1296.374375)scale(0.36 -0.36)">
      <defs>
       <path d="M 9.421875 54.6875 
L 18.40625 54.6875 
L 18.40625 0 
L 9.421875 0 
z
M 9.421875 75.984375 
L 18.40625 75.984375 
L 18.40625 64.59375 
L 9.421875 64.59375 
z
" id="DejaVuSans-105"/>
       <path d="M 5.515625 54.6875 
L 48.1875 54.6875 
L 48.1875 46.484375 
L 14.40625 7.171875 
L 48.1875 7.171875 
L 48.1875 0 
L 4.296875 0 
L 4.296875 8.203125 
L 38.09375 47.515625 
L 5.515625 47.515625 
z
" id="DejaVuSans-122"/>
      </defs>
      <use xlink:href="#DejaVuSans-115"/>
      <use x="52.099609" xlink:href="#DejaVuSans-105"/>
      <use x="79.882812" xlink:href="#DejaVuSans-122"/>
      <use x="132.373047" xlink:href="#DejaVuSans-101"/>
     </g>
    </g>
   </g>
   <g id="matplotlib.axis_10">
    <g id="ytick_21">
     <g id="line2d_41">
      <g>
       <use style="stroke:#000000;stroke-width:0.8;" x="129.58" xlink:href="#md871019b47" y="1145.828571"/>
      </g>
     </g>
     <g id="text_34">
      <!-- −7.0 -->
      <g transform="translate(35.161875 1159.505759)scale(0.36 -0.36)">
       <use xlink:href="#DejaVuSans-8722"/>
       <use x="83.789062" xlink:href="#DejaVuSans-55"/>
       <use x="147.412109" xlink:href="#DejaVuSans-46"/>
       <use x="179.199219" xlink:href="#DejaVuSans-48"/>
      </g>
     </g>
    </g>
    <g id="ytick_22">
     <g id="line2d_42">
      <g>
       <use style="stroke:#000000;stroke-width:0.8;" x="129.58" xlink:href="#md871019b47" y="1109.828571"/>
      </g>
     </g>
     <g id="text_35">
      <!-- −3.5 -->
      <g transform="translate(35.161875 1123.505759)scale(0.36 -0.36)">
       <use xlink:href="#DejaVuSans-8722"/>
       <use x="83.789062" xlink:href="#DejaVuSans-51"/>
       <use x="147.412109" xlink:href="#DejaVuSans-46"/>
       <use x="179.199219" xlink:href="#DejaVuSans-53"/>
      </g>
     </g>
    </g>
    <g id="ytick_23">
     <g id="line2d_43">
      <g>
       <use style="stroke:#000000;stroke-width:0.8;" x="129.58" xlink:href="#md871019b47" y="1073.828571"/>
      </g>
     </g>
     <g id="text_36">
      <!-- 0.0 -->
      <g transform="translate(65.32875 1087.505759)scale(0.36 -0.36)">
       <use xlink:href="#DejaVuSans-48"/>
       <use x="63.623047" xlink:href="#DejaVuSans-46"/>
       <use x="95.410156" xlink:href="#DejaVuSans-48"/>
      </g>
     </g>
    </g>
    <g id="ytick_24">
     <g id="line2d_44">
      <g>
       <use style="stroke:#000000;stroke-width:0.8;" x="129.58" xlink:href="#md871019b47" y="1037.828571"/>
      </g>
     </g>
     <g id="text_37">
      <!-- 3.5 -->
      <g transform="translate(65.32875 1051.505759)scale(0.36 -0.36)">
       <use xlink:href="#DejaVuSans-51"/>
       <use x="63.623047" xlink:href="#DejaVuSans-46"/>
       <use x="95.410156" xlink:href="#DejaVuSans-53"/>
      </g>
     </g>
    </g>
    <g id="ytick_25">
     <g id="line2d_45">
      <g>
       <use style="stroke:#000000;stroke-width:0.8;" x="129.58" xlink:href="#md871019b47" y="1001.828571"/>
      </g>
     </g>
     <g id="text_38">
      <!-- 7.0 -->
      <g transform="translate(65.32875 1015.505759)scale(0.36 -0.36)">
       <use xlink:href="#DejaVuSans-55"/>
       <use x="63.623047" xlink:href="#DejaVuSans-46"/>
       <use x="95.410156" xlink:href="#DejaVuSans-48"/>
      </g>
     </g>
    </g>
    <g id="text_39">
     <!-- Z-score -->
     <g transform="translate(23.675 1140.695759)rotate(-90)scale(0.36 -0.36)">
      <use xlink:href="#DejaVuSans-90"/>
      <use x="66.755859" xlink:href="#DejaVuSans-45"/>
      <use x="102.839844" xlink:href="#DejaVuSans-115"/>
      <use x="154.939453" xlink:href="#DejaVuSans-99"/>
      <use x="209.919922" xlink:href="#DejaVuSans-111"/>
      <use x="271.101562" xlink:href="#DejaVuSans-114"/>
      <use x="309.964844" xlink:href="#DejaVuSans-101"/>
     </g>
    </g>
   </g>
   <g id="patch_123">
    <path d="M 129.58 1166.4 
L 129.58 981.257143 
" style="fill:none;stroke:#000000;stroke-linecap:square;stroke-linejoin:miter;stroke-width:0.8;"/>
   </g>
   <g id="patch_124">
    <path d="M 1603.42 1166.4 
L 1603.42 981.257143 
" style="fill:none;stroke:#000000;stroke-linecap:square;stroke-linejoin:miter;stroke-width:0.8;"/>
   </g>
   <g id="patch_125">
    <path d="M 129.58 1166.4 
L 1603.42 1166.4 
" style="fill:none;stroke:#000000;stroke-linecap:square;stroke-linejoin:miter;stroke-width:0.8;"/>
   </g>
   <g id="patch_126">
    <path d="M 129.58 981.257143 
L 1603.42 981.257143 
" style="fill:none;stroke:#000000;stroke-linecap:square;stroke-linejoin:miter;stroke-width:0.8;"/>
   </g>
   <g id="text_40">
    <!-- FFLatt -->
    <g transform="translate(799.4455 972.272893)scale(0.432 -0.432)">
     <defs>
      <path d="M 9.8125 72.90625 
L 51.703125 72.90625 
L 51.703125 64.59375 
L 19.671875 64.59375 
L 19.671875 43.109375 
L 48.578125 43.109375 
L 48.578125 34.8125 
L 19.671875 34.8125 
L 19.671875 0 
L 9.8125 0 
z
" id="DejaVuSans-70"/>
      <path d="M 9.8125 72.90625 
L 19.671875 72.90625 
L 19.671875 8.296875 
L 55.171875 8.296875 
L 55.171875 0 
L 9.8125 0 
z
" id="DejaVuSans-76"/>
     </defs>
     <use xlink:href="#DejaVuSans-70"/>
     <use x="57.519531" xlink:href="#DejaVuSans-70"/>
     <use x="115.039062" xlink:href="#DejaVuSans-76"/>
     <use x="170.751953" xlink:href="#DejaVuSans-97"/>
     <use x="232.03125" xlink:href="#DejaVuSans-116"/>
     <use x="271.240234" xlink:href="#DejaVuSans-116"/>
    </g>
   </g>
  </g>
  <g id="legend_1">
   <g id="patch_127">
    <path d="M 1667.244375 72.703125 
L 1962 72.703125 
Q 1969.2 72.703125 1969.2 65.503125 
L 1969.2 -195.103125 
Q 1969.2 -202.303125 1962 -202.303125 
L 1667.244375 -202.303125 
Q 1660.044375 -202.303125 1660.044375 -195.103125 
L 1660.044375 65.503125 
Q 1660.044375 72.703125 1667.244375 72.703125 
z
" style="fill:#ffffff;opacity:0.8;stroke:#cccccc;stroke-linejoin:miter;"/>
   </g>
   <g id="patch_128">
    <path d="M 1674.444375 -160.54875 
L 1746.444375 -160.54875 
L 1746.444375 -185.74875 
L 1674.444375 -185.74875 
z
" style="fill:#fde725;"/>
   </g>
   <g id="text_41">
    <!-- cascades -->
    <g transform="translate(1775.244375 -160.54875)scale(0.36 -0.36)">
     <use xlink:href="#DejaVuSans-99"/>
     <use x="54.980469" xlink:href="#DejaVuSans-97"/>
     <use x="116.259766" xlink:href="#DejaVuSans-115"/>
     <use x="168.359375" xlink:href="#DejaVuSans-99"/>
     <use x="223.339844" xlink:href="#DejaVuSans-97"/>
     <use x="284.619141" xlink:href="#DejaVuSans-100"/>
     <use x="348.095703" xlink:href="#DejaVuSans-101"/>
     <use x="409.619141" xlink:href="#DejaVuSans-115"/>
    </g>
   </g>
   <g id="patch_129">
    <path d="M 1674.444375 -107.7075 
L 1746.444375 -107.7075 
L 1746.444375 -132.9075 
L 1674.444375 -132.9075 
z
" style="fill:#5cc863;"/>
   </g>
   <g id="text_42">
    <!-- downlinks -->
    <g transform="translate(1775.244375 -107.7075)scale(0.36 -0.36)">
     <defs>
      <path d="M 9.421875 75.984375 
L 18.40625 75.984375 
L 18.40625 0 
L 9.421875 0 
z
" id="DejaVuSans-108"/>
     </defs>
     <use xlink:href="#DejaVuSans-100"/>
     <use x="63.476562" xlink:href="#DejaVuSans-111"/>
     <use x="124.658203" xlink:href="#DejaVuSans-119"/>
     <use x="206.445312" xlink:href="#DejaVuSans-110"/>
     <use x="269.824219" xlink:href="#DejaVuSans-108"/>
     <use x="297.607422" xlink:href="#DejaVuSans-105"/>
     <use x="325.390625" xlink:href="#DejaVuSans-110"/>
     <use x="388.769531" xlink:href="#DejaVuSans-107"/>
     <use x="446.679688" xlink:href="#DejaVuSans-115"/>
    </g>
   </g>
   <g id="patch_130">
    <path d="M 1674.444375 -54.86625 
L 1746.444375 -54.86625 
L 1746.444375 -80.06625 
L 1674.444375 -80.06625 
z
" style="fill:#21908d;"/>
   </g>
   <g id="text_43">
    <!-- uplinks -->
    <g transform="translate(1775.244375 -54.86625)scale(0.36 -0.36)">
     <defs>
      <path d="M 8.5 21.578125 
L 8.5 54.6875 
L 17.484375 54.6875 
L 17.484375 21.921875 
Q 17.484375 14.15625 20.5 10.265625 
Q 23.53125 6.390625 29.59375 6.390625 
Q 36.859375 6.390625 41.078125 11.03125 
Q 45.3125 15.671875 45.3125 23.6875 
L 45.3125 54.6875 
L 54.296875 54.6875 
L 54.296875 0 
L 45.3125 0 
L 45.3125 8.40625 
Q 42.046875 3.421875 37.71875 1 
Q 33.40625 -1.421875 27.6875 -1.421875 
Q 18.265625 -1.421875 13.375 4.4375 
Q 8.5 10.296875 8.5 21.578125 
z
M 31.109375 56 
z
" id="DejaVuSans-117"/>
     </defs>
     <use xlink:href="#DejaVuSans-117"/>
     <use x="63.378906" xlink:href="#DejaVuSans-112"/>
     <use x="126.855469" xlink:href="#DejaVuSans-108"/>
     <use x="154.638672" xlink:href="#DejaVuSans-105"/>
     <use x="182.421875" xlink:href="#DejaVuSans-110"/>
     <use x="245.800781" xlink:href="#DejaVuSans-107"/>
     <use x="303.710938" xlink:href="#DejaVuSans-115"/>
    </g>
   </g>
   <g id="patch_131">
    <path d="M 1674.444375 -2.025 
L 1746.444375 -2.025 
L 1746.444375 -27.225 
L 1674.444375 -27.225 
z
" style="fill:#3b518b;"/>
   </g>
   <g id="text_44">
    <!-- cycles -->
    <g transform="translate(1775.244375 -2.025)scale(0.36 -0.36)">
     <defs>
      <path d="M 32.171875 -5.078125 
Q 28.375 -14.84375 24.75 -17.8125 
Q 21.140625 -20.796875 15.09375 -20.796875 
L 7.90625 -20.796875 
L 7.90625 -13.28125 
L 13.1875 -13.28125 
Q 16.890625 -13.28125 18.9375 -11.515625 
Q 21 -9.765625 23.484375 -3.21875 
L 25.09375 0.875 
L 2.984375 54.6875 
L 12.5 54.6875 
L 29.59375 11.921875 
L 46.6875 54.6875 
L 56.203125 54.6875 
z
" id="DejaVuSans-121"/>
     </defs>
     <use xlink:href="#DejaVuSans-99"/>
     <use x="54.980469" xlink:href="#DejaVuSans-121"/>
     <use x="114.160156" xlink:href="#DejaVuSans-99"/>
     <use x="169.140625" xlink:href="#DejaVuSans-108"/>
     <use x="196.923828" xlink:href="#DejaVuSans-101"/>
     <use x="258.447266" xlink:href="#DejaVuSans-115"/>
    </g>
   </g>
   <g id="patch_132">
    <path d="M 1674.444375 50.81625 
L 1746.444375 50.81625 
L 1746.444375 25.61625 
L 1674.444375 25.61625 
z
" style="fill:#440154;"/>
   </g>
   <g id="text_45">
    <!-- FFLs -->
    <g transform="translate(1775.244375 50.81625)scale(0.36 -0.36)">
     <use xlink:href="#DejaVuSans-70"/>
     <use x="57.519531" xlink:href="#DejaVuSans-70"/>
     <use x="115.039062" xlink:href="#DejaVuSans-76"/>
     <use x="170.751953" xlink:href="#DejaVuSans-115"/>
    </g>
   </g>
  </g>
 </g>
 <defs>
  <clipPath id="p768909c110">
   <rect height="185.142857" width="1473.84" x="129.58" y="-129.6"/>
  </clipPath>
  <clipPath id="p4c138ef8ed">
   <rect height="185.142857" width="1473.84" x="129.58" y="148.114286"/>
  </clipPath>
  <clipPath id="p65e98facae">
   <rect height="185.142857" width="1473.84" x="129.58" y="425.828571"/>
  </clipPath>
  <clipPath id="p356ef55bc0">
   <rect height="185.142857" width="1473.84" x="129.58" y="703.542857"/>
  </clipPath>
  <clipPath id="p95f4b825b1">
   <rect height="185.142857" width="1473.84" x="129.58" y="981.257143"/>
  </clipPath>
 </defs>
</svg>
