<?xml version="1.0" encoding="utf-8" standalone="no"?>
<!DOCTYPE svg PUBLIC "-//W3C//DTD SVG 1.1//EN"
  "http://www.w3.org/Graphics/SVG/1.1/DTD/svg11.dtd">
<!-- Created with matplotlib (https://matplotlib.org/) -->
<svg height="1080pt" version="1.1" viewBox="0 0 1440 1080" width="1440pt" xmlns="http://www.w3.org/2000/svg" xmlns:xlink="http://www.w3.org/1999/xlink">
 <metadata>
  <rdf:RDF xmlns:cc="http://creativecommons.org/ns#" xmlns:dc="http://purl.org/dc/elements/1.1/" xmlns:rdf="http://www.w3.org/1999/02/22-rdf-syntax-ns#">
   <cc:Work>
    <dc:type rdf:resource="http://purl.org/dc/dcmitype/StillImage"/>
    <dc:date>2021-10-12T17:49:01.575569</dc:date>
    <dc:format>image/svg+xml</dc:format>
    <dc:creator>
     <cc:Agent>
      <dc:title>Matplotlib v3.3.4, https://matplotlib.org/</dc:title>
     </cc:Agent>
    </dc:creator>
   </cc:Work>
  </rdf:RDF>
 </metadata>
 <defs>
  <style type="text/css">*{stroke-linecap:butt;stroke-linejoin:round;}</style>
 </defs>
 <g id="figure_1">
  <g id="patch_1">
   <path d="M 0 1080 
L 1440 1080 
L 1440 0 
L 0 0 
z
" style="fill:none;"/>
  </g>
  <g id="axes_1">
   <g id="patch_2">
    <path d="M 202 402 
L 630.875 402 
L 630.875 109.125 
L 202 109.125 
z
" style="fill:#ffffff;"/>
   </g>
   <g id="patch_3">
    <path clip-path="url(#pe147d187c5)" d="M 228.804688 402 
L 242.207031 402 
L 242.207031 318.984727 
L 228.804688 318.984727 
z
" style="fill:#1b9e77;"/>
   </g>
   <g id="patch_4">
    <path clip-path="url(#pe147d187c5)" d="M 336.023438 402 
L 349.425781 402 
L 349.425781 264.67304 
L 336.023438 264.67304 
z
" style="fill:#1b9e77;"/>
   </g>
   <g id="patch_5">
    <path clip-path="url(#pe147d187c5)" d="M 443.242188 402 
L 456.644531 402 
L 456.644531 246.013544 
L 443.242188 246.013544 
z
" style="fill:#1b9e77;"/>
   </g>
   <g id="patch_6">
    <path clip-path="url(#pe147d187c5)" d="M 550.460938 402 
L 563.863281 402 
L 563.863281 157.132003 
L 550.460938 157.132003 
z
" style="fill:#1b9e77;"/>
   </g>
   <g id="patch_7">
    <path clip-path="url(#pe147d187c5)" d="M 242.207031 402 
L 255.609375 402 
L 255.609375 370.114342 
L 242.207031 370.114342 
z
" style="fill:#7570b3;"/>
   </g>
   <g id="patch_8">
    <path clip-path="url(#pe147d187c5)" d="M 349.425781 402 
L 362.828125 402 
L 362.828125 343.38061 
L 349.425781 343.38061 
z
" style="fill:#7570b3;"/>
   </g>
   <g id="patch_9">
    <path clip-path="url(#pe147d187c5)" d="M 456.644531 402 
L 470.046875 402 
L 470.046875 297.14316 
L 456.644531 297.14316 
z
" style="fill:#7570b3;"/>
   </g>
   <g id="patch_10">
    <path clip-path="url(#pe147d187c5)" d="M 563.863281 402 
L 577.265625 402 
L 577.265625 195.057103 
L 563.863281 195.057103 
z
" style="fill:#7570b3;"/>
   </g>
   <g id="patch_11">
    <path clip-path="url(#pe147d187c5)" d="M 255.609375 402 
L 269.011719 402 
L 269.011719 378.123639 
L 255.609375 378.123639 
z
" style="fill:#e6ab02;"/>
   </g>
   <g id="patch_12">
    <path clip-path="url(#pe147d187c5)" d="M 362.828125 402 
L 376.230469 402 
L 376.230469 367.949668 
L 362.828125 367.949668 
z
" style="fill:#e6ab02;"/>
   </g>
   <g id="patch_13">
    <path clip-path="url(#pe147d187c5)" d="M 470.046875 402 
L 483.449219 402 
L 483.449219 359.832138 
L 470.046875 359.832138 
z
" style="fill:#e6ab02;"/>
   </g>
   <g id="patch_14">
    <path clip-path="url(#pe147d187c5)" d="M 577.265625 402 
L 590.667969 402 
L 590.667969 348.619123 
L 577.265625 348.619123 
z
" style="fill:#e6ab02;"/>
   </g>
   <g id="patch_15">
    <path clip-path="url(#pe147d187c5)" d="M 269.011719 402 
L 282.414062 402 
L 282.414062 399.359097 
L 269.011719 399.359097 
z
" style="fill:#666666;"/>
   </g>
   <g id="patch_16">
    <path clip-path="url(#pe147d187c5)" d="M 376.230469 402 
L 389.632812 402 
L 389.632812 398.969455 
L 376.230469 398.969455 
z
" style="fill:#666666;"/>
   </g>
   <g id="patch_17">
    <path clip-path="url(#pe147d187c5)" d="M 483.449219 402 
L 496.851562 402 
L 496.851562 398.991102 
L 483.449219 398.991102 
z
" style="fill:#666666;"/>
   </g>
   <g id="patch_18">
    <path clip-path="url(#pe147d187c5)" d="M 590.667969 402 
L 604.070312 402 
L 604.070312 399.056042 
L 590.667969 399.056042 
z
" style="fill:#666666;"/>
   </g>
   <g id="matplotlib.axis_1">
    <g id="xtick_1">
     <g id="line2d_1">
      <defs>
       <path d="M 0 0 
L 0 3.5 
" id="m2321c236e4" style="stroke:#000000;stroke-width:0.8;"/>
      </defs>
      <g>
       <use style="stroke:#000000;stroke-width:0.8;" x="255.609375" xlink:href="#m2321c236e4" y="402"/>
      </g>
     </g>
     <g id="text_1">
      <!-- 500 -->
      <g transform="translate(261.128125 447.175)rotate(-90)scale(0.2 -0.2)">
       <defs>
        <path d="M 10.796875 72.90625 
L 49.515625 72.90625 
L 49.515625 64.59375 
L 19.828125 64.59375 
L 19.828125 46.734375 
Q 21.96875 47.46875 24.109375 47.828125 
Q 26.265625 48.1875 28.421875 48.1875 
Q 40.625 48.1875 47.75 41.5 
Q 54.890625 34.8125 54.890625 23.390625 
Q 54.890625 11.625 47.5625 5.09375 
Q 40.234375 -1.421875 26.90625 -1.421875 
Q 22.3125 -1.421875 17.546875 -0.640625 
Q 12.796875 0.140625 7.71875 1.703125 
L 7.71875 11.625 
Q 12.109375 9.234375 16.796875 8.0625 
Q 21.484375 6.890625 26.703125 6.890625 
Q 35.15625 6.890625 40.078125 11.328125 
Q 45.015625 15.765625 45.015625 23.390625 
Q 45.015625 31 40.078125 35.4375 
Q 35.15625 39.890625 26.703125 39.890625 
Q 22.75 39.890625 18.8125 39.015625 
Q 14.890625 38.140625 10.796875 36.28125 
z
" id="DejaVuSans-53"/>
        <path d="M 31.78125 66.40625 
Q 24.171875 66.40625 20.328125 58.90625 
Q 16.5 51.421875 16.5 36.375 
Q 16.5 21.390625 20.328125 13.890625 
Q 24.171875 6.390625 31.78125 6.390625 
Q 39.453125 6.390625 43.28125 13.890625 
Q 47.125 21.390625 47.125 36.375 
Q 47.125 51.421875 43.28125 58.90625 
Q 39.453125 66.40625 31.78125 66.40625 
z
M 31.78125 74.21875 
Q 44.046875 74.21875 50.515625 64.515625 
Q 56.984375 54.828125 56.984375 36.375 
Q 56.984375 17.96875 50.515625 8.265625 
Q 44.046875 -1.421875 31.78125 -1.421875 
Q 19.53125 -1.421875 13.0625 8.265625 
Q 6.59375 17.96875 6.59375 36.375 
Q 6.59375 54.828125 13.0625 64.515625 
Q 19.53125 74.21875 31.78125 74.21875 
z
" id="DejaVuSans-48"/>
       </defs>
       <use xlink:href="#DejaVuSans-53"/>
       <use x="63.623047" xlink:href="#DejaVuSans-48"/>
       <use x="127.246094" xlink:href="#DejaVuSans-48"/>
      </g>
     </g>
    </g>
    <g id="xtick_2">
     <g id="line2d_2">
      <g>
       <use style="stroke:#000000;stroke-width:0.8;" x="362.828125" xlink:href="#m2321c236e4" y="402"/>
      </g>
     </g>
     <g id="text_2">
      <!-- 750 -->
      <g transform="translate(368.346875 447.175)rotate(-90)scale(0.2 -0.2)">
       <defs>
        <path d="M 8.203125 72.90625 
L 55.078125 72.90625 
L 55.078125 68.703125 
L 28.609375 0 
L 18.3125 0 
L 43.21875 64.59375 
L 8.203125 64.59375 
z
" id="DejaVuSans-55"/>
       </defs>
       <use xlink:href="#DejaVuSans-55"/>
       <use x="63.623047" xlink:href="#DejaVuSans-53"/>
       <use x="127.246094" xlink:href="#DejaVuSans-48"/>
      </g>
     </g>
    </g>
    <g id="xtick_3">
     <g id="line2d_3">
      <g>
       <use style="stroke:#000000;stroke-width:0.8;" x="470.046875" xlink:href="#m2321c236e4" y="402"/>
      </g>
     </g>
     <g id="text_3">
      <!-- 1000 -->
      <g transform="translate(475.565625 459.9)rotate(-90)scale(0.2 -0.2)">
       <defs>
        <path d="M 12.40625 8.296875 
L 28.515625 8.296875 
L 28.515625 63.921875 
L 10.984375 60.40625 
L 10.984375 69.390625 
L 28.421875 72.90625 
L 38.28125 72.90625 
L 38.28125 8.296875 
L 54.390625 8.296875 
L 54.390625 0 
L 12.40625 0 
z
" id="DejaVuSans-49"/>
       </defs>
       <use xlink:href="#DejaVuSans-49"/>
       <use x="63.623047" xlink:href="#DejaVuSans-48"/>
       <use x="127.246094" xlink:href="#DejaVuSans-48"/>
       <use x="190.869141" xlink:href="#DejaVuSans-48"/>
      </g>
     </g>
    </g>
    <g id="xtick_4">
     <g id="line2d_4">
      <g>
       <use style="stroke:#000000;stroke-width:0.8;" x="577.265625" xlink:href="#m2321c236e4" y="402"/>
      </g>
     </g>
     <g id="text_4">
      <!-- 1500 -->
      <g transform="translate(582.784375 459.9)rotate(-90)scale(0.2 -0.2)">
       <use xlink:href="#DejaVuSans-49"/>
       <use x="63.623047" xlink:href="#DejaVuSans-53"/>
       <use x="127.246094" xlink:href="#DejaVuSans-48"/>
       <use x="190.869141" xlink:href="#DejaVuSans-48"/>
      </g>
     </g>
    </g>
    <g id="text_5">
     <!-- size -->
     <g transform="translate(397.048437 479.096875)scale(0.2 -0.2)">
      <defs>
       <path d="M 44.28125 53.078125 
L 44.28125 44.578125 
Q 40.484375 46.53125 36.375 47.5 
Q 32.28125 48.484375 27.875 48.484375 
Q 21.1875 48.484375 17.84375 46.4375 
Q 14.5 44.390625 14.5 40.28125 
Q 14.5 37.15625 16.890625 35.375 
Q 19.28125 33.59375 26.515625 31.984375 
L 29.59375 31.296875 
Q 39.15625 29.25 43.1875 25.515625 
Q 47.21875 21.78125 47.21875 15.09375 
Q 47.21875 7.46875 41.1875 3.015625 
Q 35.15625 -1.421875 24.609375 -1.421875 
Q 20.21875 -1.421875 15.453125 -0.5625 
Q 10.6875 0.296875 5.421875 2 
L 5.421875 11.28125 
Q 10.40625 8.6875 15.234375 7.390625 
Q 20.0625 6.109375 24.8125 6.109375 
Q 31.15625 6.109375 34.5625 8.28125 
Q 37.984375 10.453125 37.984375 14.40625 
Q 37.984375 18.0625 35.515625 20.015625 
Q 33.0625 21.96875 24.703125 23.78125 
L 21.578125 24.515625 
Q 13.234375 26.265625 9.515625 29.90625 
Q 5.8125 33.546875 5.8125 39.890625 
Q 5.8125 47.609375 11.28125 51.796875 
Q 16.75 56 26.8125 56 
Q 31.78125 56 36.171875 55.265625 
Q 40.578125 54.546875 44.28125 53.078125 
z
" id="DejaVuSans-115"/>
       <path d="M 9.421875 54.6875 
L 18.40625 54.6875 
L 18.40625 0 
L 9.421875 0 
z
M 9.421875 75.984375 
L 18.40625 75.984375 
L 18.40625 64.59375 
L 9.421875 64.59375 
z
" id="DejaVuSans-105"/>
       <path d="M 5.515625 54.6875 
L 48.1875 54.6875 
L 48.1875 46.484375 
L 14.40625 7.171875 
L 48.1875 7.171875 
L 48.1875 0 
L 4.296875 0 
L 4.296875 8.203125 
L 38.09375 47.515625 
L 5.515625 47.515625 
z
" id="DejaVuSans-122"/>
       <path d="M 56.203125 29.59375 
L 56.203125 25.203125 
L 14.890625 25.203125 
Q 15.484375 15.921875 20.484375 11.0625 
Q 25.484375 6.203125 34.421875 6.203125 
Q 39.59375 6.203125 44.453125 7.46875 
Q 49.3125 8.734375 54.109375 11.28125 
L 54.109375 2.78125 
Q 49.265625 0.734375 44.1875 -0.34375 
Q 39.109375 -1.421875 33.890625 -1.421875 
Q 20.796875 -1.421875 13.15625 6.1875 
Q 5.515625 13.8125 5.515625 26.8125 
Q 5.515625 40.234375 12.765625 48.109375 
Q 20.015625 56 32.328125 56 
Q 43.359375 56 49.78125 48.890625 
Q 56.203125 41.796875 56.203125 29.59375 
z
M 47.21875 32.234375 
Q 47.125 39.59375 43.09375 43.984375 
Q 39.0625 48.390625 32.421875 48.390625 
Q 24.90625 48.390625 20.390625 44.140625 
Q 15.875 39.890625 15.1875 32.171875 
z
" id="DejaVuSans-101"/>
      </defs>
      <use xlink:href="#DejaVuSans-115"/>
      <use x="52.099609" xlink:href="#DejaVuSans-105"/>
      <use x="79.882812" xlink:href="#DejaVuSans-122"/>
      <use x="132.373047" xlink:href="#DejaVuSans-101"/>
     </g>
    </g>
   </g>
   <g id="matplotlib.axis_2">
    <g id="ytick_1">
     <g id="line2d_5">
      <defs>
       <path d="M 0 0 
L -3.5 0 
" id="mfb6b44e135" style="stroke:#000000;stroke-width:0.8;"/>
      </defs>
      <g>
       <use style="stroke:#000000;stroke-width:0.8;" x="202" xlink:href="#mfb6b44e135" y="402"/>
      </g>
     </g>
     <g id="text_6">
      <!-- 0 -->
      <g transform="translate(182.275 409.598438)scale(0.2 -0.2)">
       <use xlink:href="#DejaVuSans-48"/>
      </g>
     </g>
    </g>
    <g id="ytick_2">
     <g id="line2d_6">
      <g>
       <use style="stroke:#000000;stroke-width:0.8;" x="202" xlink:href="#mfb6b44e135" y="358.706507"/>
      </g>
     </g>
     <g id="text_7">
      <!-- 200 -->
      <g transform="translate(156.825 366.304944)scale(0.2 -0.2)">
       <defs>
        <path d="M 19.1875 8.296875 
L 53.609375 8.296875 
L 53.609375 0 
L 7.328125 0 
L 7.328125 8.296875 
Q 12.9375 14.109375 22.625 23.890625 
Q 32.328125 33.6875 34.8125 36.53125 
Q 39.546875 41.84375 41.421875 45.53125 
Q 43.3125 49.21875 43.3125 52.78125 
Q 43.3125 58.59375 39.234375 62.25 
Q 35.15625 65.921875 28.609375 65.921875 
Q 23.96875 65.921875 18.8125 64.3125 
Q 13.671875 62.703125 7.8125 59.421875 
L 7.8125 69.390625 
Q 13.765625 71.78125 18.9375 73 
Q 24.125 74.21875 28.421875 74.21875 
Q 39.75 74.21875 46.484375 68.546875 
Q 53.21875 62.890625 53.21875 53.421875 
Q 53.21875 48.921875 51.53125 44.890625 
Q 49.859375 40.875 45.40625 35.40625 
Q 44.1875 33.984375 37.640625 27.21875 
Q 31.109375 20.453125 19.1875 8.296875 
z
" id="DejaVuSans-50"/>
       </defs>
       <use xlink:href="#DejaVuSans-50"/>
       <use x="63.623047" xlink:href="#DejaVuSans-48"/>
       <use x="127.246094" xlink:href="#DejaVuSans-48"/>
      </g>
     </g>
    </g>
    <g id="ytick_3">
     <g id="line2d_7">
      <g>
       <use style="stroke:#000000;stroke-width:0.8;" x="202" xlink:href="#mfb6b44e135" y="315.413014"/>
      </g>
     </g>
     <g id="text_8">
      <!-- 400 -->
      <g transform="translate(156.825 323.011451)scale(0.2 -0.2)">
       <defs>
        <path d="M 37.796875 64.3125 
L 12.890625 25.390625 
L 37.796875 25.390625 
z
M 35.203125 72.90625 
L 47.609375 72.90625 
L 47.609375 25.390625 
L 58.015625 25.390625 
L 58.015625 17.1875 
L 47.609375 17.1875 
L 47.609375 0 
L 37.796875 0 
L 37.796875 17.1875 
L 4.890625 17.1875 
L 4.890625 26.703125 
z
" id="DejaVuSans-52"/>
       </defs>
       <use xlink:href="#DejaVuSans-52"/>
       <use x="63.623047" xlink:href="#DejaVuSans-48"/>
       <use x="127.246094" xlink:href="#DejaVuSans-48"/>
      </g>
     </g>
    </g>
    <g id="ytick_4">
     <g id="line2d_8">
      <g>
       <use style="stroke:#000000;stroke-width:0.8;" x="202" xlink:href="#mfb6b44e135" y="272.119521"/>
      </g>
     </g>
     <g id="text_9">
      <!-- 600 -->
      <g transform="translate(156.825 279.717958)scale(0.2 -0.2)">
       <defs>
        <path d="M 33.015625 40.375 
Q 26.375 40.375 22.484375 35.828125 
Q 18.609375 31.296875 18.609375 23.390625 
Q 18.609375 15.53125 22.484375 10.953125 
Q 26.375 6.390625 33.015625 6.390625 
Q 39.65625 6.390625 43.53125 10.953125 
Q 47.40625 15.53125 47.40625 23.390625 
Q 47.40625 31.296875 43.53125 35.828125 
Q 39.65625 40.375 33.015625 40.375 
z
M 52.59375 71.296875 
L 52.59375 62.3125 
Q 48.875 64.0625 45.09375 64.984375 
Q 41.3125 65.921875 37.59375 65.921875 
Q 27.828125 65.921875 22.671875 59.328125 
Q 17.53125 52.734375 16.796875 39.40625 
Q 19.671875 43.65625 24.015625 45.921875 
Q 28.375 48.1875 33.59375 48.1875 
Q 44.578125 48.1875 50.953125 41.515625 
Q 57.328125 34.859375 57.328125 23.390625 
Q 57.328125 12.15625 50.6875 5.359375 
Q 44.046875 -1.421875 33.015625 -1.421875 
Q 20.359375 -1.421875 13.671875 8.265625 
Q 6.984375 17.96875 6.984375 36.375 
Q 6.984375 53.65625 15.1875 63.9375 
Q 23.390625 74.21875 37.203125 74.21875 
Q 40.921875 74.21875 44.703125 73.484375 
Q 48.484375 72.75 52.59375 71.296875 
z
" id="DejaVuSans-54"/>
       </defs>
       <use xlink:href="#DejaVuSans-54"/>
       <use x="63.623047" xlink:href="#DejaVuSans-48"/>
       <use x="127.246094" xlink:href="#DejaVuSans-48"/>
      </g>
     </g>
    </g>
    <g id="ytick_5">
     <g id="line2d_9">
      <g>
       <use style="stroke:#000000;stroke-width:0.8;" x="202" xlink:href="#mfb6b44e135" y="228.826028"/>
      </g>
     </g>
     <g id="text_10">
      <!-- 800 -->
      <g transform="translate(156.825 236.424465)scale(0.2 -0.2)">
       <defs>
        <path d="M 31.78125 34.625 
Q 24.75 34.625 20.71875 30.859375 
Q 16.703125 27.09375 16.703125 20.515625 
Q 16.703125 13.921875 20.71875 10.15625 
Q 24.75 6.390625 31.78125 6.390625 
Q 38.8125 6.390625 42.859375 10.171875 
Q 46.921875 13.96875 46.921875 20.515625 
Q 46.921875 27.09375 42.890625 30.859375 
Q 38.875 34.625 31.78125 34.625 
z
M 21.921875 38.8125 
Q 15.578125 40.375 12.03125 44.71875 
Q 8.5 49.078125 8.5 55.328125 
Q 8.5 64.0625 14.71875 69.140625 
Q 20.953125 74.21875 31.78125 74.21875 
Q 42.671875 74.21875 48.875 69.140625 
Q 55.078125 64.0625 55.078125 55.328125 
Q 55.078125 49.078125 51.53125 44.71875 
Q 48 40.375 41.703125 38.8125 
Q 48.828125 37.15625 52.796875 32.3125 
Q 56.78125 27.484375 56.78125 20.515625 
Q 56.78125 9.90625 50.3125 4.234375 
Q 43.84375 -1.421875 31.78125 -1.421875 
Q 19.734375 -1.421875 13.25 4.234375 
Q 6.78125 9.90625 6.78125 20.515625 
Q 6.78125 27.484375 10.78125 32.3125 
Q 14.796875 37.15625 21.921875 38.8125 
z
M 18.3125 54.390625 
Q 18.3125 48.734375 21.84375 45.5625 
Q 25.390625 42.390625 31.78125 42.390625 
Q 38.140625 42.390625 41.71875 45.5625 
Q 45.3125 48.734375 45.3125 54.390625 
Q 45.3125 60.0625 41.71875 63.234375 
Q 38.140625 66.40625 31.78125 66.40625 
Q 25.390625 66.40625 21.84375 63.234375 
Q 18.3125 60.0625 18.3125 54.390625 
z
" id="DejaVuSans-56"/>
       </defs>
       <use xlink:href="#DejaVuSans-56"/>
       <use x="63.623047" xlink:href="#DejaVuSans-48"/>
       <use x="127.246094" xlink:href="#DejaVuSans-48"/>
      </g>
     </g>
    </g>
    <g id="ytick_6">
     <g id="line2d_10">
      <g>
       <use style="stroke:#000000;stroke-width:0.8;" x="202" xlink:href="#mfb6b44e135" y="185.532535"/>
      </g>
     </g>
     <g id="text_11">
      <!-- 1000 -->
      <g transform="translate(144.1 193.130972)scale(0.2 -0.2)">
       <use xlink:href="#DejaVuSans-49"/>
       <use x="63.623047" xlink:href="#DejaVuSans-48"/>
       <use x="127.246094" xlink:href="#DejaVuSans-48"/>
       <use x="190.869141" xlink:href="#DejaVuSans-48"/>
      </g>
     </g>
    </g>
    <g id="ytick_7">
     <g id="line2d_11">
      <g>
       <use style="stroke:#000000;stroke-width:0.8;" x="202" xlink:href="#mfb6b44e135" y="142.239042"/>
      </g>
     </g>
     <g id="text_12">
      <!-- 1200 -->
      <g transform="translate(144.1 149.837479)scale(0.2 -0.2)">
       <use xlink:href="#DejaVuSans-49"/>
       <use x="63.623047" xlink:href="#DejaVuSans-50"/>
       <use x="127.246094" xlink:href="#DejaVuSans-48"/>
       <use x="190.869141" xlink:href="#DejaVuSans-48"/>
      </g>
     </g>
    </g>
   </g>
   <g id="LineCollection_1">
    <path clip-path="url(#pe147d187c5)" d="M 235.505859 337.229238 
L 235.505859 300.740216 
" style="fill:none;stroke:#000000;stroke-width:1.5;"/>
    <path clip-path="url(#pe147d187c5)" d="M 342.724609 282.539498 
L 342.724609 246.806582 
" style="fill:none;stroke:#000000;stroke-width:1.5;"/>
    <path clip-path="url(#pe147d187c5)" d="M 449.943359 278.296353 
L 449.943359 213.730736 
" style="fill:none;stroke:#000000;stroke-width:1.5;"/>
    <path clip-path="url(#pe147d187c5)" d="M 557.162109 191.192578 
L 557.162109 123.071429 
" style="fill:none;stroke:#000000;stroke-width:1.5;"/>
   </g>
   <g id="LineCollection_2">
    <path clip-path="url(#pe147d187c5)" d="M 248.908203 388.210945 
L 248.908203 352.01774 
" style="fill:none;stroke:#000000;stroke-width:1.5;"/>
    <path clip-path="url(#pe147d187c5)" d="M 356.126953 359.624743 
L 356.126953 327.136477 
" style="fill:none;stroke:#000000;stroke-width:1.5;"/>
    <path clip-path="url(#pe147d187c5)" d="M 463.345703 308.435119 
L 463.345703 285.8512 
" style="fill:none;stroke:#000000;stroke-width:1.5;"/>
    <path clip-path="url(#pe147d187c5)" d="M 570.564453 195.057103 
L 570.564453 195.057103 
" style="fill:none;stroke:#000000;stroke-width:1.5;"/>
   </g>
   <g id="LineCollection_3">
    <path clip-path="url(#pe147d187c5)" d="M 262.310547 384.105221 
L 262.310547 372.142056 
" style="fill:none;stroke:#000000;stroke-width:1.5;"/>
    <path clip-path="url(#pe147d187c5)" d="M 369.529297 378.723887 
L 369.529297 357.175448 
" style="fill:none;stroke:#000000;stroke-width:1.5;"/>
    <path clip-path="url(#pe147d187c5)" d="M 476.748047 368.399438 
L 476.748047 351.264838 
" style="fill:none;stroke:#000000;stroke-width:1.5;"/>
    <path clip-path="url(#pe147d187c5)" d="M 583.966797 360.480013 
L 583.966797 336.758233 
" style="fill:none;stroke:#000000;stroke-width:1.5;"/>
   </g>
   <g id="LineCollection_4">
    <path clip-path="url(#pe147d187c5)" d="M 275.712891 399.986479 
L 275.712891 398.731715 
" style="fill:none;stroke:#000000;stroke-width:1.5;"/>
    <path clip-path="url(#pe147d187c5)" d="M 382.931641 399.712345 
L 382.931641 398.226566 
" style="fill:none;stroke:#000000;stroke-width:1.5;"/>
    <path clip-path="url(#pe147d187c5)" d="M 490.150391 399.835356 
L 490.150391 398.146848 
" style="fill:none;stroke:#000000;stroke-width:1.5;"/>
    <path clip-path="url(#pe147d187c5)" d="M 597.369141 400.07239 
L 597.369141 398.039695 
" style="fill:none;stroke:#000000;stroke-width:1.5;"/>
   </g>
   <g id="patch_19">
    <path d="M 202 402 
L 202 109.125 
" style="fill:none;stroke:#000000;stroke-linecap:square;stroke-linejoin:miter;stroke-width:0.8;"/>
   </g>
   <g id="patch_20">
    <path d="M 630.875 402 
L 630.875 109.125 
" style="fill:none;stroke:#000000;stroke-linecap:square;stroke-linejoin:miter;stroke-width:0.8;"/>
   </g>
   <g id="patch_21">
    <path d="M 202 402 
L 630.875 402 
" style="fill:none;stroke:#000000;stroke-linecap:square;stroke-linejoin:miter;stroke-width:0.8;"/>
   </g>
   <g id="patch_22">
    <path d="M 202 109.125 
L 630.875 109.125 
" style="fill:none;stroke:#000000;stroke-linecap:square;stroke-linejoin:miter;stroke-width:0.8;"/>
   </g>
   <g id="text_13">
    <!-- FFL-motif node participation -->
    <g transform="translate(247.125 103.125)scale(0.24 -0.24)">
     <defs>
      <path d="M 9.8125 72.90625 
L 51.703125 72.90625 
L 51.703125 64.59375 
L 19.671875 64.59375 
L 19.671875 43.109375 
L 48.578125 43.109375 
L 48.578125 34.8125 
L 19.671875 34.8125 
L 19.671875 0 
L 9.8125 0 
z
" id="DejaVuSans-70"/>
      <path d="M 9.8125 72.90625 
L 19.671875 72.90625 
L 19.671875 8.296875 
L 55.171875 8.296875 
L 55.171875 0 
L 9.8125 0 
z
" id="DejaVuSans-76"/>
      <path d="M 4.890625 31.390625 
L 31.203125 31.390625 
L 31.203125 23.390625 
L 4.890625 23.390625 
z
" id="DejaVuSans-45"/>
      <path d="M 52 44.1875 
Q 55.375 50.25 60.0625 53.125 
Q 64.75 56 71.09375 56 
Q 79.640625 56 84.28125 50.015625 
Q 88.921875 44.046875 88.921875 33.015625 
L 88.921875 0 
L 79.890625 0 
L 79.890625 32.71875 
Q 79.890625 40.578125 77.09375 44.375 
Q 74.3125 48.1875 68.609375 48.1875 
Q 61.625 48.1875 57.5625 43.546875 
Q 53.515625 38.921875 53.515625 30.90625 
L 53.515625 0 
L 44.484375 0 
L 44.484375 32.71875 
Q 44.484375 40.625 41.703125 44.40625 
Q 38.921875 48.1875 33.109375 48.1875 
Q 26.21875 48.1875 22.15625 43.53125 
Q 18.109375 38.875 18.109375 30.90625 
L 18.109375 0 
L 9.078125 0 
L 9.078125 54.6875 
L 18.109375 54.6875 
L 18.109375 46.1875 
Q 21.1875 51.21875 25.484375 53.609375 
Q 29.78125 56 35.6875 56 
Q 41.65625 56 45.828125 52.96875 
Q 50 49.953125 52 44.1875 
z
" id="DejaVuSans-109"/>
      <path d="M 30.609375 48.390625 
Q 23.390625 48.390625 19.1875 42.75 
Q 14.984375 37.109375 14.984375 27.296875 
Q 14.984375 17.484375 19.15625 11.84375 
Q 23.34375 6.203125 30.609375 6.203125 
Q 37.796875 6.203125 41.984375 11.859375 
Q 46.1875 17.53125 46.1875 27.296875 
Q 46.1875 37.015625 41.984375 42.703125 
Q 37.796875 48.390625 30.609375 48.390625 
z
M 30.609375 56 
Q 42.328125 56 49.015625 48.375 
Q 55.71875 40.765625 55.71875 27.296875 
Q 55.71875 13.875 49.015625 6.21875 
Q 42.328125 -1.421875 30.609375 -1.421875 
Q 18.84375 -1.421875 12.171875 6.21875 
Q 5.515625 13.875 5.515625 27.296875 
Q 5.515625 40.765625 12.171875 48.375 
Q 18.84375 56 30.609375 56 
z
" id="DejaVuSans-111"/>
      <path d="M 18.3125 70.21875 
L 18.3125 54.6875 
L 36.8125 54.6875 
L 36.8125 47.703125 
L 18.3125 47.703125 
L 18.3125 18.015625 
Q 18.3125 11.328125 20.140625 9.421875 
Q 21.96875 7.515625 27.59375 7.515625 
L 36.8125 7.515625 
L 36.8125 0 
L 27.59375 0 
Q 17.1875 0 13.234375 3.875 
Q 9.28125 7.765625 9.28125 18.015625 
L 9.28125 47.703125 
L 2.6875 47.703125 
L 2.6875 54.6875 
L 9.28125 54.6875 
L 9.28125 70.21875 
z
" id="DejaVuSans-116"/>
      <path d="M 37.109375 75.984375 
L 37.109375 68.5 
L 28.515625 68.5 
Q 23.6875 68.5 21.796875 66.546875 
Q 19.921875 64.59375 19.921875 59.515625 
L 19.921875 54.6875 
L 34.71875 54.6875 
L 34.71875 47.703125 
L 19.921875 47.703125 
L 19.921875 0 
L 10.890625 0 
L 10.890625 47.703125 
L 2.296875 47.703125 
L 2.296875 54.6875 
L 10.890625 54.6875 
L 10.890625 58.5 
Q 10.890625 67.625 15.140625 71.796875 
Q 19.390625 75.984375 28.609375 75.984375 
z
" id="DejaVuSans-102"/>
      <path id="DejaVuSans-32"/>
      <path d="M 54.890625 33.015625 
L 54.890625 0 
L 45.90625 0 
L 45.90625 32.71875 
Q 45.90625 40.484375 42.875 44.328125 
Q 39.84375 48.1875 33.796875 48.1875 
Q 26.515625 48.1875 22.3125 43.546875 
Q 18.109375 38.921875 18.109375 30.90625 
L 18.109375 0 
L 9.078125 0 
L 9.078125 54.6875 
L 18.109375 54.6875 
L 18.109375 46.1875 
Q 21.34375 51.125 25.703125 53.5625 
Q 30.078125 56 35.796875 56 
Q 45.21875 56 50.046875 50.171875 
Q 54.890625 44.34375 54.890625 33.015625 
z
" id="DejaVuSans-110"/>
      <path d="M 45.40625 46.390625 
L 45.40625 75.984375 
L 54.390625 75.984375 
L 54.390625 0 
L 45.40625 0 
L 45.40625 8.203125 
Q 42.578125 3.328125 38.25 0.953125 
Q 33.9375 -1.421875 27.875 -1.421875 
Q 17.96875 -1.421875 11.734375 6.484375 
Q 5.515625 14.40625 5.515625 27.296875 
Q 5.515625 40.1875 11.734375 48.09375 
Q 17.96875 56 27.875 56 
Q 33.9375 56 38.25 53.625 
Q 42.578125 51.265625 45.40625 46.390625 
z
M 14.796875 27.296875 
Q 14.796875 17.390625 18.875 11.75 
Q 22.953125 6.109375 30.078125 6.109375 
Q 37.203125 6.109375 41.296875 11.75 
Q 45.40625 17.390625 45.40625 27.296875 
Q 45.40625 37.203125 41.296875 42.84375 
Q 37.203125 48.484375 30.078125 48.484375 
Q 22.953125 48.484375 18.875 42.84375 
Q 14.796875 37.203125 14.796875 27.296875 
z
" id="DejaVuSans-100"/>
      <path d="M 18.109375 8.203125 
L 18.109375 -20.796875 
L 9.078125 -20.796875 
L 9.078125 54.6875 
L 18.109375 54.6875 
L 18.109375 46.390625 
Q 20.953125 51.265625 25.265625 53.625 
Q 29.59375 56 35.59375 56 
Q 45.5625 56 51.78125 48.09375 
Q 58.015625 40.1875 58.015625 27.296875 
Q 58.015625 14.40625 51.78125 6.484375 
Q 45.5625 -1.421875 35.59375 -1.421875 
Q 29.59375 -1.421875 25.265625 0.953125 
Q 20.953125 3.328125 18.109375 8.203125 
z
M 48.6875 27.296875 
Q 48.6875 37.203125 44.609375 42.84375 
Q 40.53125 48.484375 33.40625 48.484375 
Q 26.265625 48.484375 22.1875 42.84375 
Q 18.109375 37.203125 18.109375 27.296875 
Q 18.109375 17.390625 22.1875 11.75 
Q 26.265625 6.109375 33.40625 6.109375 
Q 40.53125 6.109375 44.609375 11.75 
Q 48.6875 17.390625 48.6875 27.296875 
z
" id="DejaVuSans-112"/>
      <path d="M 34.28125 27.484375 
Q 23.390625 27.484375 19.1875 25 
Q 14.984375 22.515625 14.984375 16.5 
Q 14.984375 11.71875 18.140625 8.90625 
Q 21.296875 6.109375 26.703125 6.109375 
Q 34.1875 6.109375 38.703125 11.40625 
Q 43.21875 16.703125 43.21875 25.484375 
L 43.21875 27.484375 
z
M 52.203125 31.203125 
L 52.203125 0 
L 43.21875 0 
L 43.21875 8.296875 
Q 40.140625 3.328125 35.546875 0.953125 
Q 30.953125 -1.421875 24.3125 -1.421875 
Q 15.921875 -1.421875 10.953125 3.296875 
Q 6 8.015625 6 15.921875 
Q 6 25.140625 12.171875 29.828125 
Q 18.359375 34.515625 30.609375 34.515625 
L 43.21875 34.515625 
L 43.21875 35.40625 
Q 43.21875 41.609375 39.140625 45 
Q 35.0625 48.390625 27.6875 48.390625 
Q 23 48.390625 18.546875 47.265625 
Q 14.109375 46.140625 10.015625 43.890625 
L 10.015625 52.203125 
Q 14.9375 54.109375 19.578125 55.046875 
Q 24.21875 56 28.609375 56 
Q 40.484375 56 46.34375 49.84375 
Q 52.203125 43.703125 52.203125 31.203125 
z
" id="DejaVuSans-97"/>
      <path d="M 41.109375 46.296875 
Q 39.59375 47.171875 37.8125 47.578125 
Q 36.03125 48 33.890625 48 
Q 26.265625 48 22.1875 43.046875 
Q 18.109375 38.09375 18.109375 28.8125 
L 18.109375 0 
L 9.078125 0 
L 9.078125 54.6875 
L 18.109375 54.6875 
L 18.109375 46.1875 
Q 20.953125 51.171875 25.484375 53.578125 
Q 30.03125 56 36.53125 56 
Q 37.453125 56 38.578125 55.875 
Q 39.703125 55.765625 41.0625 55.515625 
z
" id="DejaVuSans-114"/>
      <path d="M 48.78125 52.59375 
L 48.78125 44.1875 
Q 44.96875 46.296875 41.140625 47.34375 
Q 37.3125 48.390625 33.40625 48.390625 
Q 24.65625 48.390625 19.8125 42.84375 
Q 14.984375 37.3125 14.984375 27.296875 
Q 14.984375 17.28125 19.8125 11.734375 
Q 24.65625 6.203125 33.40625 6.203125 
Q 37.3125 6.203125 41.140625 7.25 
Q 44.96875 8.296875 48.78125 10.40625 
L 48.78125 2.09375 
Q 45.015625 0.34375 40.984375 -0.53125 
Q 36.96875 -1.421875 32.421875 -1.421875 
Q 20.0625 -1.421875 12.78125 6.34375 
Q 5.515625 14.109375 5.515625 27.296875 
Q 5.515625 40.671875 12.859375 48.328125 
Q 20.21875 56 33.015625 56 
Q 37.15625 56 41.109375 55.140625 
Q 45.0625 54.296875 48.78125 52.59375 
z
" id="DejaVuSans-99"/>
     </defs>
     <use xlink:href="#DejaVuSans-70"/>
     <use x="57.519531" xlink:href="#DejaVuSans-70"/>
     <use x="115.039062" xlink:href="#DejaVuSans-76"/>
     <use x="169.001953" xlink:href="#DejaVuSans-45"/>
     <use x="205.085938" xlink:href="#DejaVuSans-109"/>
     <use x="302.498047" xlink:href="#DejaVuSans-111"/>
     <use x="363.679688" xlink:href="#DejaVuSans-116"/>
     <use x="402.888672" xlink:href="#DejaVuSans-105"/>
     <use x="430.671875" xlink:href="#DejaVuSans-102"/>
     <use x="465.876953" xlink:href="#DejaVuSans-32"/>
     <use x="497.664062" xlink:href="#DejaVuSans-110"/>
     <use x="561.042969" xlink:href="#DejaVuSans-111"/>
     <use x="622.224609" xlink:href="#DejaVuSans-100"/>
     <use x="685.701172" xlink:href="#DejaVuSans-101"/>
     <use x="747.224609" xlink:href="#DejaVuSans-32"/>
     <use x="779.011719" xlink:href="#DejaVuSans-112"/>
     <use x="842.488281" xlink:href="#DejaVuSans-97"/>
     <use x="903.767578" xlink:href="#DejaVuSans-114"/>
     <use x="944.880859" xlink:href="#DejaVuSans-116"/>
     <use x="984.089844" xlink:href="#DejaVuSans-105"/>
     <use x="1011.873047" xlink:href="#DejaVuSans-99"/>
     <use x="1066.853516" xlink:href="#DejaVuSans-105"/>
     <use x="1094.636719" xlink:href="#DejaVuSans-112"/>
     <use x="1158.113281" xlink:href="#DejaVuSans-97"/>
     <use x="1219.392578" xlink:href="#DejaVuSans-116"/>
     <use x="1258.601562" xlink:href="#DejaVuSans-105"/>
     <use x="1286.384766" xlink:href="#DejaVuSans-111"/>
     <use x="1347.566406" xlink:href="#DejaVuSans-110"/>
    </g>
   </g>
   <g id="legend_1">
    <g id="patch_23">
     <path d="M 216 242.55 
L 442.109375 242.55 
Q 446.109375 242.55 446.109375 238.55 
L 446.109375 123.125 
Q 446.109375 119.125 442.109375 119.125 
L 216 119.125 
Q 212 119.125 212 123.125 
L 212 238.55 
Q 212 242.55 216 242.55 
z
" style="fill:#ffffff;opacity:0.8;stroke:#cccccc;stroke-linejoin:miter;"/>
    </g>
    <g id="patch_24">
     <path d="M 220 142.321875 
L 260 142.321875 
L 260 128.321875 
L 220 128.321875 
z
" style="fill:#1b9e77;"/>
    </g>
    <g id="text_14">
     <!-- FFLatt -->
     <g transform="translate(276 142.321875)scale(0.2 -0.2)">
      <use xlink:href="#DejaVuSans-70"/>
      <use x="57.519531" xlink:href="#DejaVuSans-70"/>
      <use x="115.039062" xlink:href="#DejaVuSans-76"/>
      <use x="170.751953" xlink:href="#DejaVuSans-97"/>
      <use x="232.03125" xlink:href="#DejaVuSans-116"/>
      <use x="271.240234" xlink:href="#DejaVuSans-116"/>
     </g>
    </g>
    <g id="patch_25">
     <path d="M 220 171.678125 
L 260 171.678125 
L 260 157.678125 
L 220 157.678125 
z
" style="fill:#7570b3;"/>
    </g>
    <g id="text_15">
     <!-- GNW -->
     <g transform="translate(276 171.678125)scale(0.2 -0.2)">
      <defs>
       <path d="M 59.515625 10.40625 
L 59.515625 29.984375 
L 43.40625 29.984375 
L 43.40625 38.09375 
L 69.28125 38.09375 
L 69.28125 6.78125 
Q 63.578125 2.734375 56.6875 0.65625 
Q 49.8125 -1.421875 42 -1.421875 
Q 24.90625 -1.421875 15.25 8.5625 
Q 5.609375 18.5625 5.609375 36.375 
Q 5.609375 54.25 15.25 64.234375 
Q 24.90625 74.21875 42 74.21875 
Q 49.125 74.21875 55.546875 72.453125 
Q 61.96875 70.703125 67.390625 67.28125 
L 67.390625 56.78125 
Q 61.921875 61.421875 55.765625 63.765625 
Q 49.609375 66.109375 42.828125 66.109375 
Q 29.4375 66.109375 22.71875 58.640625 
Q 16.015625 51.171875 16.015625 36.375 
Q 16.015625 21.625 22.71875 14.15625 
Q 29.4375 6.6875 42.828125 6.6875 
Q 48.046875 6.6875 52.140625 7.59375 
Q 56.25 8.5 59.515625 10.40625 
z
" id="DejaVuSans-71"/>
       <path d="M 9.8125 72.90625 
L 23.09375 72.90625 
L 55.421875 11.921875 
L 55.421875 72.90625 
L 64.984375 72.90625 
L 64.984375 0 
L 51.703125 0 
L 19.390625 60.984375 
L 19.390625 0 
L 9.8125 0 
z
" id="DejaVuSans-78"/>
       <path d="M 3.328125 72.90625 
L 13.28125 72.90625 
L 28.609375 11.28125 
L 43.890625 72.90625 
L 54.984375 72.90625 
L 70.3125 11.28125 
L 85.59375 72.90625 
L 95.609375 72.90625 
L 77.296875 0 
L 64.890625 0 
L 49.515625 63.28125 
L 33.984375 0 
L 21.578125 0 
z
" id="DejaVuSans-87"/>
      </defs>
      <use xlink:href="#DejaVuSans-71"/>
      <use x="77.490234" xlink:href="#DejaVuSans-78"/>
      <use x="152.294922" xlink:href="#DejaVuSans-87"/>
     </g>
    </g>
    <g id="patch_26">
     <path d="M 220 201.034375 
L 260 201.034375 
L 260 187.034375 
L 220 187.034375 
z
" style="fill:#e6ab02;"/>
    </g>
    <g id="text_16">
     <!-- NetworkX graph -->
     <g transform="translate(276 201.034375)scale(0.2 -0.2)">
      <defs>
       <path d="M 4.203125 54.6875 
L 13.1875 54.6875 
L 24.421875 12.015625 
L 35.59375 54.6875 
L 46.1875 54.6875 
L 57.421875 12.015625 
L 68.609375 54.6875 
L 77.59375 54.6875 
L 63.28125 0 
L 52.6875 0 
L 40.921875 44.828125 
L 29.109375 0 
L 18.5 0 
z
" id="DejaVuSans-119"/>
       <path d="M 9.078125 75.984375 
L 18.109375 75.984375 
L 18.109375 31.109375 
L 44.921875 54.6875 
L 56.390625 54.6875 
L 27.390625 29.109375 
L 57.625 0 
L 45.90625 0 
L 18.109375 26.703125 
L 18.109375 0 
L 9.078125 0 
z
" id="DejaVuSans-107"/>
       <path d="M 6.296875 72.90625 
L 16.890625 72.90625 
L 35.015625 45.796875 
L 53.21875 72.90625 
L 63.8125 72.90625 
L 40.375 37.890625 
L 65.375 0 
L 54.78125 0 
L 34.28125 31 
L 13.625 0 
L 2.984375 0 
L 29 38.921875 
z
" id="DejaVuSans-88"/>
       <path d="M 45.40625 27.984375 
Q 45.40625 37.75 41.375 43.109375 
Q 37.359375 48.484375 30.078125 48.484375 
Q 22.859375 48.484375 18.828125 43.109375 
Q 14.796875 37.75 14.796875 27.984375 
Q 14.796875 18.265625 18.828125 12.890625 
Q 22.859375 7.515625 30.078125 7.515625 
Q 37.359375 7.515625 41.375 12.890625 
Q 45.40625 18.265625 45.40625 27.984375 
z
M 54.390625 6.78125 
Q 54.390625 -7.171875 48.1875 -13.984375 
Q 42 -20.796875 29.203125 -20.796875 
Q 24.46875 -20.796875 20.265625 -20.09375 
Q 16.0625 -19.390625 12.109375 -17.921875 
L 12.109375 -9.1875 
Q 16.0625 -11.328125 19.921875 -12.34375 
Q 23.78125 -13.375 27.78125 -13.375 
Q 36.625 -13.375 41.015625 -8.765625 
Q 45.40625 -4.15625 45.40625 5.171875 
L 45.40625 9.625 
Q 42.625 4.78125 38.28125 2.390625 
Q 33.9375 0 27.875 0 
Q 17.828125 0 11.671875 7.65625 
Q 5.515625 15.328125 5.515625 27.984375 
Q 5.515625 40.671875 11.671875 48.328125 
Q 17.828125 56 27.875 56 
Q 33.9375 56 38.28125 53.609375 
Q 42.625 51.21875 45.40625 46.390625 
L 45.40625 54.6875 
L 54.390625 54.6875 
z
" id="DejaVuSans-103"/>
       <path d="M 54.890625 33.015625 
L 54.890625 0 
L 45.90625 0 
L 45.90625 32.71875 
Q 45.90625 40.484375 42.875 44.328125 
Q 39.84375 48.1875 33.796875 48.1875 
Q 26.515625 48.1875 22.3125 43.546875 
Q 18.109375 38.921875 18.109375 30.90625 
L 18.109375 0 
L 9.078125 0 
L 9.078125 75.984375 
L 18.109375 75.984375 
L 18.109375 46.1875 
Q 21.34375 51.125 25.703125 53.5625 
Q 30.078125 56 35.796875 56 
Q 45.21875 56 50.046875 50.171875 
Q 54.890625 44.34375 54.890625 33.015625 
z
" id="DejaVuSans-104"/>
      </defs>
      <use xlink:href="#DejaVuSans-78"/>
      <use x="74.804688" xlink:href="#DejaVuSans-101"/>
      <use x="136.328125" xlink:href="#DejaVuSans-116"/>
      <use x="175.537109" xlink:href="#DejaVuSans-119"/>
      <use x="257.324219" xlink:href="#DejaVuSans-111"/>
      <use x="318.505859" xlink:href="#DejaVuSans-114"/>
      <use x="359.619141" xlink:href="#DejaVuSans-107"/>
      <use x="417.529297" xlink:href="#DejaVuSans-88"/>
      <use x="486.035156" xlink:href="#DejaVuSans-32"/>
      <use x="517.822266" xlink:href="#DejaVuSans-103"/>
      <use x="581.298828" xlink:href="#DejaVuSans-114"/>
      <use x="622.412109" xlink:href="#DejaVuSans-97"/>
      <use x="683.691406" xlink:href="#DejaVuSans-112"/>
      <use x="747.167969" xlink:href="#DejaVuSans-104"/>
     </g>
    </g>
    <g id="patch_27">
     <path d="M 220 230.390625 
L 260 230.390625 
L 260 216.390625 
L 220 216.390625 
z
" style="fill:#666666;"/>
    </g>
    <g id="text_17">
     <!-- RandG -->
     <g transform="translate(276 230.390625)scale(0.2 -0.2)">
      <defs>
       <path d="M 44.390625 34.1875 
Q 47.5625 33.109375 50.5625 29.59375 
Q 53.5625 26.078125 56.59375 19.921875 
L 66.609375 0 
L 56 0 
L 46.6875 18.703125 
Q 43.0625 26.03125 39.671875 28.421875 
Q 36.28125 30.8125 30.421875 30.8125 
L 19.671875 30.8125 
L 19.671875 0 
L 9.8125 0 
L 9.8125 72.90625 
L 32.078125 72.90625 
Q 44.578125 72.90625 50.734375 67.671875 
Q 56.890625 62.453125 56.890625 51.90625 
Q 56.890625 45.015625 53.6875 40.46875 
Q 50.484375 35.9375 44.390625 34.1875 
z
M 19.671875 64.796875 
L 19.671875 38.921875 
L 32.078125 38.921875 
Q 39.203125 38.921875 42.84375 42.21875 
Q 46.484375 45.515625 46.484375 51.90625 
Q 46.484375 58.296875 42.84375 61.546875 
Q 39.203125 64.796875 32.078125 64.796875 
z
" id="DejaVuSans-82"/>
      </defs>
      <use xlink:href="#DejaVuSans-82"/>
      <use x="67.232422" xlink:href="#DejaVuSans-97"/>
      <use x="128.511719" xlink:href="#DejaVuSans-110"/>
      <use x="191.890625" xlink:href="#DejaVuSans-100"/>
      <use x="255.367188" xlink:href="#DejaVuSans-71"/>
     </g>
    </g>
   </g>
  </g>
  <g id="axes_2">
   <g id="patch_28">
    <path d="M 886 402 
L 1314.875 402 
L 1314.875 109.125 
L 886 109.125 
z
" style="fill:#ffffff;"/>
   </g>
   <g id="patch_29">
    <path clip-path="url(#p759e0f161d)" d="M 912.804688 402 
L 926.207031 402 
L 926.207031 140.711374 
L 912.804688 140.711374 
z
" style="fill:#1b9e77;"/>
   </g>
   <g id="patch_30">
    <path clip-path="url(#p759e0f161d)" d="M 1020.023438 402 
L 1033.425781 402 
L 1033.425781 136.52994 
L 1020.023438 136.52994 
z
" style="fill:#1b9e77;"/>
   </g>
   <g id="patch_31">
    <path clip-path="url(#p759e0f161d)" d="M 1127.242188 402 
L 1140.644531 402 
L 1140.644531 136.518608 
L 1127.242188 136.518608 
z
" style="fill:#1b9e77;"/>
   </g>
   <g id="patch_32">
    <path clip-path="url(#p759e0f161d)" d="M 1234.460937 402 
L 1247.863281 402 
L 1247.863281 139.317562 
L 1234.460937 139.317562 
z
" style="fill:#1b9e77;"/>
   </g>
   <g id="patch_33">
    <path clip-path="url(#p759e0f161d)" d="M 926.207031 402 
L 939.609375 402 
L 939.609375 186.389856 
L 926.207031 186.389856 
z
" style="fill:#7570b3;"/>
   </g>
   <g id="patch_34">
    <path clip-path="url(#p759e0f161d)" d="M 1033.425781 402 
L 1046.828125 402 
L 1046.828125 171.681181 
L 1033.425781 171.681181 
z
" style="fill:#7570b3;"/>
   </g>
   <g id="patch_35">
    <path clip-path="url(#p759e0f161d)" d="M 1140.644531 402 
L 1154.046875 402 
L 1154.046875 135.940686 
L 1140.644531 135.940686 
z
" style="fill:#7570b3;"/>
   </g>
   <g id="patch_36">
    <path clip-path="url(#p759e0f161d)" d="M 1247.863281 402 
L 1261.265625 402 
L 1261.265625 123.135753 
L 1247.863281 123.135753 
z
" style="fill:#7570b3;"/>
   </g>
   <g id="patch_37">
    <path clip-path="url(#p759e0f161d)" d="M 939.609375 402 
L 953.011719 402 
L 953.011719 138.42235 
L 939.609375 138.42235 
z
" style="fill:#e6ab02;"/>
   </g>
   <g id="patch_38">
    <path clip-path="url(#p759e0f161d)" d="M 1046.828125 402 
L 1060.230469 402 
L 1060.230469 138.309032 
L 1046.828125 138.309032 
z
" style="fill:#e6ab02;"/>
   </g>
   <g id="patch_39">
    <path clip-path="url(#p759e0f161d)" d="M 1154.046875 402 
L 1167.449219 402 
L 1167.449219 138.309032 
L 1154.046875 138.309032 
z
" style="fill:#e6ab02;"/>
   </g>
   <g id="patch_40">
    <path clip-path="url(#p759e0f161d)" d="M 1261.265625 402 
L 1274.667969 402 
L 1274.667969 138.309032 
L 1261.265625 138.309032 
z
" style="fill:#e6ab02;"/>
   </g>
   <g id="patch_41">
    <path clip-path="url(#p759e0f161d)" d="M 953.011719 402 
L 966.414062 402 
L 966.414062 132.824441 
L 953.011719 132.824441 
z
" style="fill:#666666;"/>
   </g>
   <g id="patch_42">
    <path clip-path="url(#p759e0f161d)" d="M 1060.230469 402 
L 1073.632812 402 
L 1073.632812 132.631801 
L 1060.230469 132.631801 
z
" style="fill:#666666;"/>
   </g>
   <g id="patch_43">
    <path clip-path="url(#p759e0f161d)" d="M 1167.449219 402 
L 1180.851562 402 
L 1180.851562 132.609137 
L 1167.449219 132.609137 
z
" style="fill:#666666;"/>
   </g>
   <g id="patch_44">
    <path clip-path="url(#p759e0f161d)" d="M 1274.667969 402 
L 1288.070312 402 
L 1288.070312 132.552478 
L 1274.667969 132.552478 
z
" style="fill:#666666;"/>
   </g>
   <g id="matplotlib.axis_3">
    <g id="xtick_5">
     <g id="line2d_12">
      <g>
       <use style="stroke:#000000;stroke-width:0.8;" x="939.609375" xlink:href="#m2321c236e4" y="402"/>
      </g>
     </g>
     <g id="text_18">
      <!-- 500 -->
      <g transform="translate(945.128125 447.175)rotate(-90)scale(0.2 -0.2)">
       <use xlink:href="#DejaVuSans-53"/>
       <use x="63.623047" xlink:href="#DejaVuSans-48"/>
       <use x="127.246094" xlink:href="#DejaVuSans-48"/>
      </g>
     </g>
    </g>
    <g id="xtick_6">
     <g id="line2d_13">
      <g>
       <use style="stroke:#000000;stroke-width:0.8;" x="1046.828125" xlink:href="#m2321c236e4" y="402"/>
      </g>
     </g>
     <g id="text_19">
      <!-- 750 -->
      <g transform="translate(1052.346875 447.175)rotate(-90)scale(0.2 -0.2)">
       <use xlink:href="#DejaVuSans-55"/>
       <use x="63.623047" xlink:href="#DejaVuSans-53"/>
       <use x="127.246094" xlink:href="#DejaVuSans-48"/>
      </g>
     </g>
    </g>
    <g id="xtick_7">
     <g id="line2d_14">
      <g>
       <use style="stroke:#000000;stroke-width:0.8;" x="1154.046875" xlink:href="#m2321c236e4" y="402"/>
      </g>
     </g>
     <g id="text_20">
      <!-- 1000 -->
      <g transform="translate(1159.565625 459.9)rotate(-90)scale(0.2 -0.2)">
       <use xlink:href="#DejaVuSans-49"/>
       <use x="63.623047" xlink:href="#DejaVuSans-48"/>
       <use x="127.246094" xlink:href="#DejaVuSans-48"/>
       <use x="190.869141" xlink:href="#DejaVuSans-48"/>
      </g>
     </g>
    </g>
    <g id="xtick_8">
     <g id="line2d_15">
      <g>
       <use style="stroke:#000000;stroke-width:0.8;" x="1261.265625" xlink:href="#m2321c236e4" y="402"/>
      </g>
     </g>
     <g id="text_21">
      <!-- 1500 -->
      <g transform="translate(1266.784375 459.9)rotate(-90)scale(0.2 -0.2)">
       <use xlink:href="#DejaVuSans-49"/>
       <use x="63.623047" xlink:href="#DejaVuSans-53"/>
       <use x="127.246094" xlink:href="#DejaVuSans-48"/>
       <use x="190.869141" xlink:href="#DejaVuSans-48"/>
      </g>
     </g>
    </g>
    <g id="text_22">
     <!-- size -->
     <g transform="translate(1081.048438 479.096875)scale(0.2 -0.2)">
      <use xlink:href="#DejaVuSans-115"/>
      <use x="52.099609" xlink:href="#DejaVuSans-105"/>
      <use x="79.882812" xlink:href="#DejaVuSans-122"/>
      <use x="132.373047" xlink:href="#DejaVuSans-101"/>
     </g>
    </g>
   </g>
   <g id="matplotlib.axis_4">
    <g id="ytick_8">
     <g id="line2d_16">
      <g>
       <use style="stroke:#000000;stroke-width:0.8;" x="886" xlink:href="#mfb6b44e135" y="402"/>
      </g>
     </g>
     <g id="text_23">
      <!-- 0.0 -->
      <g transform="translate(847.19375 409.598438)scale(0.2 -0.2)">
       <defs>
        <path d="M 10.6875 12.40625 
L 21 12.40625 
L 21 0 
L 10.6875 0 
z
" id="DejaVuSans-46"/>
       </defs>
       <use xlink:href="#DejaVuSans-48"/>
       <use x="63.623047" xlink:href="#DejaVuSans-46"/>
       <use x="95.410156" xlink:href="#DejaVuSans-48"/>
      </g>
     </g>
    </g>
    <g id="ytick_9">
     <g id="line2d_17">
      <g>
       <use style="stroke:#000000;stroke-width:0.8;" x="886" xlink:href="#mfb6b44e135" y="345.341004"/>
      </g>
     </g>
     <g id="text_24">
      <!-- 0.5 -->
      <g transform="translate(847.19375 352.939441)scale(0.2 -0.2)">
       <use xlink:href="#DejaVuSans-48"/>
       <use x="63.623047" xlink:href="#DejaVuSans-46"/>
       <use x="95.410156" xlink:href="#DejaVuSans-53"/>
      </g>
     </g>
    </g>
    <g id="ytick_10">
     <g id="line2d_18">
      <g>
       <use style="stroke:#000000;stroke-width:0.8;" x="886" xlink:href="#mfb6b44e135" y="288.682008"/>
      </g>
     </g>
     <g id="text_25">
      <!-- 1.0 -->
      <g transform="translate(847.19375 296.280445)scale(0.2 -0.2)">
       <use xlink:href="#DejaVuSans-49"/>
       <use x="63.623047" xlink:href="#DejaVuSans-46"/>
       <use x="95.410156" xlink:href="#DejaVuSans-48"/>
      </g>
     </g>
    </g>
    <g id="ytick_11">
     <g id="line2d_19">
      <g>
       <use style="stroke:#000000;stroke-width:0.8;" x="886" xlink:href="#mfb6b44e135" y="232.023012"/>
      </g>
     </g>
     <g id="text_26">
      <!-- 1.5 -->
      <g transform="translate(847.19375 239.621449)scale(0.2 -0.2)">
       <use xlink:href="#DejaVuSans-49"/>
       <use x="63.623047" xlink:href="#DejaVuSans-46"/>
       <use x="95.410156" xlink:href="#DejaVuSans-53"/>
      </g>
     </g>
    </g>
    <g id="ytick_12">
     <g id="line2d_20">
      <g>
       <use style="stroke:#000000;stroke-width:0.8;" x="886" xlink:href="#mfb6b44e135" y="175.364016"/>
      </g>
     </g>
     <g id="text_27">
      <!-- 2.0 -->
      <g transform="translate(847.19375 182.962453)scale(0.2 -0.2)">
       <use xlink:href="#DejaVuSans-50"/>
       <use x="63.623047" xlink:href="#DejaVuSans-46"/>
       <use x="95.410156" xlink:href="#DejaVuSans-48"/>
      </g>
     </g>
    </g>
    <g id="ytick_13">
     <g id="line2d_21">
      <g>
       <use style="stroke:#000000;stroke-width:0.8;" x="886" xlink:href="#mfb6b44e135" y="118.70502"/>
      </g>
     </g>
     <g id="text_28">
      <!-- 2.5 -->
      <g transform="translate(847.19375 126.303457)scale(0.2 -0.2)">
       <use xlink:href="#DejaVuSans-50"/>
       <use x="63.623047" xlink:href="#DejaVuSans-46"/>
       <use x="95.410156" xlink:href="#DejaVuSans-53"/>
      </g>
     </g>
    </g>
   </g>
   <g id="LineCollection_5">
    <path clip-path="url(#p759e0f161d)" d="M 919.505859 145.832266 
L 919.505859 135.590481 
" style="fill:none;stroke:#000000;stroke-width:1.5;"/>
    <path clip-path="url(#p759e0f161d)" d="M 1026.724609 143.515136 
L 1026.724609 129.544744 
" style="fill:none;stroke:#000000;stroke-width:1.5;"/>
    <path clip-path="url(#p759e0f161d)" d="M 1133.943359 142.680718 
L 1133.943359 130.356498 
" style="fill:none;stroke:#000000;stroke-width:1.5;"/>
    <path clip-path="url(#p759e0f161d)" d="M 1241.162109 146.843987 
L 1241.162109 131.791138 
" style="fill:none;stroke:#000000;stroke-width:1.5;"/>
   </g>
   <g id="LineCollection_6">
    <path clip-path="url(#p759e0f161d)" d="M 932.908203 226.546375 
L 932.908203 146.233338 
" style="fill:none;stroke:#000000;stroke-width:1.5;"/>
    <path clip-path="url(#p759e0f161d)" d="M 1040.126953 201.230089 
L 1040.126953 142.132273 
" style="fill:none;stroke:#000000;stroke-width:1.5;"/>
    <path clip-path="url(#p759e0f161d)" d="M 1147.345703 145.26915 
L 1147.345703 126.612222 
" style="fill:none;stroke:#000000;stroke-width:1.5;"/>
    <path clip-path="url(#p759e0f161d)" d="M 1254.564453 123.200078 
L 1254.564453 123.071429 
" style="fill:none;stroke:#000000;stroke-width:1.5;"/>
   </g>
   <g id="LineCollection_7">
    <path clip-path="url(#p759e0f161d)" d="M 946.310547 138.42235 
L 946.310547 138.42235 
" style="fill:none;stroke:#000000;stroke-width:1.5;"/>
    <path clip-path="url(#p759e0f161d)" d="M 1053.529297 138.309032 
L 1053.529297 138.309032 
" style="fill:none;stroke:#000000;stroke-width:1.5;"/>
    <path clip-path="url(#p759e0f161d)" d="M 1160.748047 138.309032 
L 1160.748047 138.309032 
" style="fill:none;stroke:#000000;stroke-width:1.5;"/>
    <path clip-path="url(#p759e0f161d)" d="M 1267.966797 138.309032 
L 1267.966797 138.309032 
" style="fill:none;stroke:#000000;stroke-width:1.5;"/>
   </g>
   <g id="LineCollection_8">
    <path clip-path="url(#p759e0f161d)" d="M 959.712891 133.179585 
L 959.712891 132.469298 
" style="fill:none;stroke:#000000;stroke-width:1.5;"/>
    <path clip-path="url(#p759e0f161d)" d="M 1066.931641 132.804484 
L 1066.931641 132.459117 
" style="fill:none;stroke:#000000;stroke-width:1.5;"/>
    <path clip-path="url(#p759e0f161d)" d="M 1174.150391 132.79457 
L 1174.150391 132.423705 
" style="fill:none;stroke:#000000;stroke-width:1.5;"/>
    <path clip-path="url(#p759e0f161d)" d="M 1281.369141 132.65661 
L 1281.369141 132.448346 
" style="fill:none;stroke:#000000;stroke-width:1.5;"/>
   </g>
   <g id="patch_45">
    <path d="M 886 402 
L 886 109.125 
" style="fill:none;stroke:#000000;stroke-linecap:square;stroke-linejoin:miter;stroke-width:0.8;"/>
   </g>
   <g id="patch_46">
    <path d="M 1314.875 402 
L 1314.875 109.125 
" style="fill:none;stroke:#000000;stroke-linecap:square;stroke-linejoin:miter;stroke-width:0.8;"/>
   </g>
   <g id="patch_47">
    <path d="M 886 402 
L 1314.875 402 
" style="fill:none;stroke:#000000;stroke-linecap:square;stroke-linejoin:miter;stroke-width:0.8;"/>
   </g>
   <g id="patch_48">
    <path d="M 886 109.125 
L 1314.875 109.125 
" style="fill:none;stroke:#000000;stroke-linecap:square;stroke-linejoin:miter;stroke-width:0.8;"/>
   </g>
   <g id="text_29">
    <!-- Sparsity -->
    <g transform="translate(1051.5225 103.125)scale(0.24 -0.24)">
     <defs>
      <path d="M 53.515625 70.515625 
L 53.515625 60.890625 
Q 47.90625 63.578125 42.921875 64.890625 
Q 37.9375 66.21875 33.296875 66.21875 
Q 25.25 66.21875 20.875 63.09375 
Q 16.5 59.96875 16.5 54.203125 
Q 16.5 49.359375 19.40625 46.890625 
Q 22.3125 44.4375 30.421875 42.921875 
L 36.375 41.703125 
Q 47.40625 39.59375 52.65625 34.296875 
Q 57.90625 29 57.90625 20.125 
Q 57.90625 9.515625 50.796875 4.046875 
Q 43.703125 -1.421875 29.984375 -1.421875 
Q 24.8125 -1.421875 18.96875 -0.25 
Q 13.140625 0.921875 6.890625 3.21875 
L 6.890625 13.375 
Q 12.890625 10.015625 18.65625 8.296875 
Q 24.421875 6.59375 29.984375 6.59375 
Q 38.421875 6.59375 43.015625 9.90625 
Q 47.609375 13.234375 47.609375 19.390625 
Q 47.609375 24.75 44.3125 27.78125 
Q 41.015625 30.8125 33.5 32.328125 
L 27.484375 33.5 
Q 16.453125 35.6875 11.515625 40.375 
Q 6.59375 45.0625 6.59375 53.421875 
Q 6.59375 63.09375 13.40625 68.65625 
Q 20.21875 74.21875 32.171875 74.21875 
Q 37.3125 74.21875 42.625 73.28125 
Q 47.953125 72.359375 53.515625 70.515625 
z
" id="DejaVuSans-83"/>
      <path d="M 32.171875 -5.078125 
Q 28.375 -14.84375 24.75 -17.8125 
Q 21.140625 -20.796875 15.09375 -20.796875 
L 7.90625 -20.796875 
L 7.90625 -13.28125 
L 13.1875 -13.28125 
Q 16.890625 -13.28125 18.9375 -11.515625 
Q 21 -9.765625 23.484375 -3.21875 
L 25.09375 0.875 
L 2.984375 54.6875 
L 12.5 54.6875 
L 29.59375 11.921875 
L 46.6875 54.6875 
L 56.203125 54.6875 
z
" id="DejaVuSans-121"/>
     </defs>
     <use xlink:href="#DejaVuSans-83"/>
     <use x="63.476562" xlink:href="#DejaVuSans-112"/>
     <use x="126.953125" xlink:href="#DejaVuSans-97"/>
     <use x="188.232422" xlink:href="#DejaVuSans-114"/>
     <use x="229.345703" xlink:href="#DejaVuSans-115"/>
     <use x="281.445312" xlink:href="#DejaVuSans-105"/>
     <use x="309.228516" xlink:href="#DejaVuSans-116"/>
     <use x="348.4375" xlink:href="#DejaVuSans-121"/>
    </g>
   </g>
  </g>
  <g id="axes_3">
   <g id="patch_49">
    <path d="M 202 901.5 
L 630.875 901.5 
L 630.875 608.625 
L 202 608.625 
z
" style="fill:#ffffff;"/>
   </g>
   <g id="patch_50">
    <path clip-path="url(#pdec9acacdc)" d="M 228.804688 901.5 
L 242.207031 901.5 
L 242.207031 686.053362 
L 228.804688 686.053362 
z
" style="fill:#1b9e77;"/>
   </g>
   <g id="patch_51">
    <path clip-path="url(#pdec9acacdc)" d="M 336.023438 901.5 
L 349.425781 901.5 
L 349.425781 681.337391 
L 336.023438 681.337391 
z
" style="fill:#1b9e77;"/>
   </g>
   <g id="patch_52">
    <path clip-path="url(#pdec9acacdc)" d="M 443.242188 901.5 
L 456.644531 901.5 
L 456.644531 679.940914 
L 443.242188 679.940914 
z
" style="fill:#1b9e77;"/>
   </g>
   <g id="patch_53">
    <path clip-path="url(#pdec9acacdc)" d="M 550.460938 901.5 
L 563.863281 901.5 
L 563.863281 683.100157 
L 550.460938 683.100157 
z
" style="fill:#1b9e77;"/>
   </g>
   <g id="patch_54">
    <path clip-path="url(#pdec9acacdc)" d="M 242.207031 901.5 
L 255.609375 901.5 
L 255.609375 686.671475 
L 242.207031 686.671475 
z
" style="fill:#7570b3;"/>
   </g>
   <g id="patch_55">
    <path clip-path="url(#pdec9acacdc)" d="M 349.425781 901.5 
L 362.828125 901.5 
L 362.828125 672.844064 
L 349.425781 672.844064 
z
" style="fill:#7570b3;"/>
   </g>
   <g id="patch_56">
    <path clip-path="url(#pdec9acacdc)" d="M 456.644531 901.5 
L 470.046875 901.5 
L 470.046875 634.681324 
L 456.644531 634.681324 
z
" style="fill:#7570b3;"/>
   </g>
   <g id="patch_57">
    <path clip-path="url(#pdec9acacdc)" d="M 563.863281 901.5 
L 577.265625 901.5 
L 577.265625 627.538687 
L 563.863281 627.538687 
z
" style="fill:#7570b3;"/>
   </g>
   <g id="patch_58">
    <path clip-path="url(#pdec9acacdc)" d="M 255.609375 901.5 
L 269.011719 901.5 
L 269.011719 652.904204 
L 255.609375 652.904204 
z
" style="fill:#e6ab02;"/>
   </g>
   <g id="patch_59">
    <path clip-path="url(#pdec9acacdc)" d="M 362.828125 901.5 
L 376.230469 901.5 
L 376.230469 655.49112 
L 362.828125 655.49112 
z
" style="fill:#e6ab02;"/>
   </g>
   <g id="patch_60">
    <path clip-path="url(#pdec9acacdc)" d="M 470.046875 901.5 
L 483.449219 901.5 
L 483.449219 654.460932 
L 470.046875 654.460932 
z
" style="fill:#e6ab02;"/>
   </g>
   <g id="patch_61">
    <path clip-path="url(#pdec9acacdc)" d="M 577.265625 901.5 
L 590.667969 901.5 
L 590.667969 654.850114 
L 577.265625 654.850114 
z
" style="fill:#e6ab02;"/>
   </g>
   <g id="patch_62">
    <path clip-path="url(#pdec9acacdc)" d="M 269.011719 901.5 
L 282.414062 901.5 
L 282.414062 629.301453 
L 269.011719 629.301453 
z
" style="fill:#666666;"/>
   </g>
   <g id="patch_63">
    <path clip-path="url(#pdec9acacdc)" d="M 376.230469 901.5 
L 389.632812 901.5 
L 389.632812 627.424222 
L 376.230469 627.424222 
z
" style="fill:#666666;"/>
   </g>
   <g id="patch_64">
    <path clip-path="url(#pdec9acacdc)" d="M 483.449219 901.5 
L 496.851562 901.5 
L 496.851562 628.729127 
L 483.449219 628.729127 
z
" style="fill:#666666;"/>
   </g>
   <g id="patch_65">
    <path clip-path="url(#pdec9acacdc)" d="M 590.667969 901.5 
L 604.070312 901.5 
L 604.070312 628.317052 
L 590.667969 628.317052 
z
" style="fill:#666666;"/>
   </g>
   <g id="matplotlib.axis_5">
    <g id="xtick_9">
     <g id="line2d_22">
      <g>
       <use style="stroke:#000000;stroke-width:0.8;" x="255.609375" xlink:href="#m2321c236e4" y="901.5"/>
      </g>
     </g>
     <g id="text_30">
      <!-- 500 -->
      <g transform="translate(261.128125 946.675)rotate(-90)scale(0.2 -0.2)">
       <use xlink:href="#DejaVuSans-53"/>
       <use x="63.623047" xlink:href="#DejaVuSans-48"/>
       <use x="127.246094" xlink:href="#DejaVuSans-48"/>
      </g>
     </g>
    </g>
    <g id="xtick_10">
     <g id="line2d_23">
      <g>
       <use style="stroke:#000000;stroke-width:0.8;" x="362.828125" xlink:href="#m2321c236e4" y="901.5"/>
      </g>
     </g>
     <g id="text_31">
      <!-- 750 -->
      <g transform="translate(368.346875 946.675)rotate(-90)scale(0.2 -0.2)">
       <use xlink:href="#DejaVuSans-55"/>
       <use x="63.623047" xlink:href="#DejaVuSans-53"/>
       <use x="127.246094" xlink:href="#DejaVuSans-48"/>
      </g>
     </g>
    </g>
    <g id="xtick_11">
     <g id="line2d_24">
      <g>
       <use style="stroke:#000000;stroke-width:0.8;" x="470.046875" xlink:href="#m2321c236e4" y="901.5"/>
      </g>
     </g>
     <g id="text_32">
      <!-- 1000 -->
      <g transform="translate(475.565625 959.4)rotate(-90)scale(0.2 -0.2)">
       <use xlink:href="#DejaVuSans-49"/>
       <use x="63.623047" xlink:href="#DejaVuSans-48"/>
       <use x="127.246094" xlink:href="#DejaVuSans-48"/>
       <use x="190.869141" xlink:href="#DejaVuSans-48"/>
      </g>
     </g>
    </g>
    <g id="xtick_12">
     <g id="line2d_25">
      <g>
       <use style="stroke:#000000;stroke-width:0.8;" x="577.265625" xlink:href="#m2321c236e4" y="901.5"/>
      </g>
     </g>
     <g id="text_33">
      <!-- 1500 -->
      <g transform="translate(582.784375 959.4)rotate(-90)scale(0.2 -0.2)">
       <use xlink:href="#DejaVuSans-49"/>
       <use x="63.623047" xlink:href="#DejaVuSans-53"/>
       <use x="127.246094" xlink:href="#DejaVuSans-48"/>
       <use x="190.869141" xlink:href="#DejaVuSans-48"/>
      </g>
     </g>
    </g>
    <g id="text_34">
     <!-- size -->
     <g transform="translate(397.048437 978.596875)scale(0.2 -0.2)">
      <use xlink:href="#DejaVuSans-115"/>
      <use x="52.099609" xlink:href="#DejaVuSans-105"/>
      <use x="79.882812" xlink:href="#DejaVuSans-122"/>
      <use x="132.373047" xlink:href="#DejaVuSans-101"/>
     </g>
    </g>
   </g>
   <g id="matplotlib.axis_6">
    <g id="ytick_14">
     <g id="line2d_26">
      <g>
       <use style="stroke:#000000;stroke-width:0.8;" x="202" xlink:href="#mfb6b44e135" y="901.5"/>
      </g>
     </g>
     <g id="text_35">
      <!-- 0.0 -->
      <g transform="translate(163.19375 909.098437)scale(0.2 -0.2)">
       <use xlink:href="#DejaVuSans-48"/>
       <use x="63.623047" xlink:href="#DejaVuSans-46"/>
       <use x="95.410156" xlink:href="#DejaVuSans-48"/>
      </g>
     </g>
    </g>
    <g id="ytick_15">
     <g id="line2d_27">
      <g>
       <use style="stroke:#000000;stroke-width:0.8;" x="202" xlink:href="#mfb6b44e135" y="855.713869"/>
      </g>
     </g>
     <g id="text_36">
      <!-- 0.2 -->
      <g transform="translate(163.19375 863.312307)scale(0.2 -0.2)">
       <use xlink:href="#DejaVuSans-48"/>
       <use x="63.623047" xlink:href="#DejaVuSans-46"/>
       <use x="95.410156" xlink:href="#DejaVuSans-50"/>
      </g>
     </g>
    </g>
    <g id="ytick_16">
     <g id="line2d_28">
      <g>
       <use style="stroke:#000000;stroke-width:0.8;" x="202" xlink:href="#mfb6b44e135" y="809.927739"/>
      </g>
     </g>
     <g id="text_37">
      <!-- 0.4 -->
      <g transform="translate(163.19375 817.526176)scale(0.2 -0.2)">
       <use xlink:href="#DejaVuSans-48"/>
       <use x="63.623047" xlink:href="#DejaVuSans-46"/>
       <use x="95.410156" xlink:href="#DejaVuSans-52"/>
      </g>
     </g>
    </g>
    <g id="ytick_17">
     <g id="line2d_29">
      <g>
       <use style="stroke:#000000;stroke-width:0.8;" x="202" xlink:href="#mfb6b44e135" y="764.141608"/>
      </g>
     </g>
     <g id="text_38">
      <!-- 0.6 -->
      <g transform="translate(163.19375 771.740046)scale(0.2 -0.2)">
       <use xlink:href="#DejaVuSans-48"/>
       <use x="63.623047" xlink:href="#DejaVuSans-46"/>
       <use x="95.410156" xlink:href="#DejaVuSans-54"/>
      </g>
     </g>
    </g>
    <g id="ytick_18">
     <g id="line2d_30">
      <g>
       <use style="stroke:#000000;stroke-width:0.8;" x="202" xlink:href="#mfb6b44e135" y="718.355477"/>
      </g>
     </g>
     <g id="text_39">
      <!-- 0.8 -->
      <g transform="translate(163.19375 725.953915)scale(0.2 -0.2)">
       <use xlink:href="#DejaVuSans-48"/>
       <use x="63.623047" xlink:href="#DejaVuSans-46"/>
       <use x="95.410156" xlink:href="#DejaVuSans-56"/>
      </g>
     </g>
    </g>
    <g id="ytick_19">
     <g id="line2d_31">
      <g>
       <use style="stroke:#000000;stroke-width:0.8;" x="202" xlink:href="#mfb6b44e135" y="672.569347"/>
      </g>
     </g>
     <g id="text_40">
      <!-- 1.0 -->
      <g transform="translate(163.19375 680.167784)scale(0.2 -0.2)">
       <use xlink:href="#DejaVuSans-49"/>
       <use x="63.623047" xlink:href="#DejaVuSans-46"/>
       <use x="95.410156" xlink:href="#DejaVuSans-48"/>
      </g>
     </g>
    </g>
    <g id="ytick_20">
     <g id="line2d_32">
      <g>
       <use style="stroke:#000000;stroke-width:0.8;" x="202" xlink:href="#mfb6b44e135" y="626.783216"/>
      </g>
     </g>
     <g id="text_41">
      <!-- 1.2 -->
      <g transform="translate(163.19375 634.381654)scale(0.2 -0.2)">
       <use xlink:href="#DejaVuSans-49"/>
       <use x="63.623047" xlink:href="#DejaVuSans-46"/>
       <use x="95.410156" xlink:href="#DejaVuSans-50"/>
      </g>
     </g>
    </g>
   </g>
   <g id="LineCollection_9">
    <path clip-path="url(#pdec9acacdc)" d="M 235.505859 691.2058 
L 235.505859 680.900925 
" style="fill:none;stroke:#000000;stroke-width:1.5;"/>
    <path clip-path="url(#pdec9acacdc)" d="M 342.724609 688.441253 
L 342.724609 674.233528 
" style="fill:none;stroke:#000000;stroke-width:1.5;"/>
    <path clip-path="url(#pdec9acacdc)" d="M 449.943359 687.418381 
L 449.943359 672.463447 
" style="fill:none;stroke:#000000;stroke-width:1.5;"/>
    <path clip-path="url(#pdec9acacdc)" d="M 557.162109 691.133416 
L 557.162109 675.066898 
" style="fill:none;stroke:#000000;stroke-width:1.5;"/>
   </g>
   <g id="LineCollection_10">
    <path clip-path="url(#pdec9acacdc)" d="M 248.908203 725.507334 
L 248.908203 647.835617 
" style="fill:none;stroke:#000000;stroke-width:1.5;"/>
    <path clip-path="url(#pdec9acacdc)" d="M 356.126953 705.713099 
L 356.126953 639.975028 
" style="fill:none;stroke:#000000;stroke-width:1.5;"/>
    <path clip-path="url(#pdec9acacdc)" d="M 463.345703 644.955326 
L 463.345703 624.407321 
" style="fill:none;stroke:#000000;stroke-width:1.5;"/>
    <path clip-path="url(#pdec9acacdc)" d="M 570.564453 628.238498 
L 570.564453 626.838876 
" style="fill:none;stroke:#000000;stroke-width:1.5;"/>
   </g>
   <g id="LineCollection_11">
    <path clip-path="url(#pdec9acacdc)" d="M 262.310547 657.167275 
L 262.310547 648.641132 
" style="fill:none;stroke:#000000;stroke-width:1.5;"/>
    <path clip-path="url(#pdec9acacdc)" d="M 369.529297 660.304353 
L 369.529297 650.677887 
" style="fill:none;stroke:#000000;stroke-width:1.5;"/>
    <path clip-path="url(#pdec9acacdc)" d="M 476.748047 658.138815 
L 476.748047 650.783049 
" style="fill:none;stroke:#000000;stroke-width:1.5;"/>
    <path clip-path="url(#pdec9acacdc)" d="M 583.966797 657.080671 
L 583.966797 652.619557 
" style="fill:none;stroke:#000000;stroke-width:1.5;"/>
   </g>
   <g id="LineCollection_12">
    <path clip-path="url(#pdec9acacdc)" d="M 275.712891 636.031478 
L 275.712891 622.571429 
" style="fill:none;stroke:#000000;stroke-width:1.5;"/>
    <path clip-path="url(#pdec9acacdc)" d="M 382.931641 632.247849 
L 382.931641 622.600595 
" style="fill:none;stroke:#000000;stroke-width:1.5;"/>
    <path clip-path="url(#pdec9acacdc)" d="M 490.150391 631.593048 
L 490.150391 625.865205 
" style="fill:none;stroke:#000000;stroke-width:1.5;"/>
    <path clip-path="url(#pdec9acacdc)" d="M 597.369141 630.929604 
L 597.369141 625.704499 
" style="fill:none;stroke:#000000;stroke-width:1.5;"/>
   </g>
   <g id="patch_66">
    <path d="M 202 901.5 
L 202 608.625 
" style="fill:none;stroke:#000000;stroke-linecap:square;stroke-linejoin:miter;stroke-width:0.8;"/>
   </g>
   <g id="patch_67">
    <path d="M 630.875 901.5 
L 630.875 608.625 
" style="fill:none;stroke:#000000;stroke-linecap:square;stroke-linejoin:miter;stroke-width:0.8;"/>
   </g>
   <g id="patch_68">
    <path d="M 202 901.5 
L 630.875 901.5 
" style="fill:none;stroke:#000000;stroke-linecap:square;stroke-linejoin:miter;stroke-width:0.8;"/>
   </g>
   <g id="patch_69">
    <path d="M 202 608.625 
L 630.875 608.625 
" style="fill:none;stroke:#000000;stroke-linecap:square;stroke-linejoin:miter;stroke-width:0.8;"/>
   </g>
   <g id="text_42">
    <!-- In-degree -->
    <g transform="translate(358.9125 602.625)scale(0.24 -0.24)">
     <defs>
      <path d="M 9.8125 72.90625 
L 19.671875 72.90625 
L 19.671875 0 
L 9.8125 0 
z
" id="DejaVuSans-73"/>
     </defs>
     <use xlink:href="#DejaVuSans-73"/>
     <use x="29.492188" xlink:href="#DejaVuSans-110"/>
     <use x="92.871094" xlink:href="#DejaVuSans-45"/>
     <use x="128.955078" xlink:href="#DejaVuSans-100"/>
     <use x="192.431641" xlink:href="#DejaVuSans-101"/>
     <use x="253.955078" xlink:href="#DejaVuSans-103"/>
     <use x="317.431641" xlink:href="#DejaVuSans-114"/>
     <use x="356.294922" xlink:href="#DejaVuSans-101"/>
     <use x="417.818359" xlink:href="#DejaVuSans-101"/>
    </g>
   </g>
  </g>
  <g id="axes_4">
   <g id="patch_70">
    <path d="M 886 901.5 
L 1314.875 901.5 
L 1314.875 608.625 
L 886 608.625 
z
" style="fill:#ffffff;"/>
   </g>
   <g id="patch_71">
    <path clip-path="url(#pa96b727065)" d="M 912.804688 901.5 
L 926.207031 901.5 
L 926.207031 635.905865 
L 912.804688 635.905865 
z
" style="fill:#1b9e77;"/>
   </g>
   <g id="patch_72">
    <path clip-path="url(#pa96b727065)" d="M 1020.023438 901.5 
L 1033.425781 901.5 
L 1033.425781 632.714142 
L 1020.023438 632.714142 
z
" style="fill:#1b9e77;"/>
   </g>
   <g id="patch_73">
    <path clip-path="url(#pa96b727065)" d="M 1127.242188 901.5 
L 1140.644531 901.5 
L 1140.644531 633.901307 
L 1127.242188 633.901307 
z
" style="fill:#1b9e77;"/>
   </g>
   <g id="patch_74">
    <path clip-path="url(#pa96b727065)" d="M 1234.460937 901.5 
L 1247.863281 901.5 
L 1247.863281 635.983712 
L 1234.460937 635.983712 
z
" style="fill:#1b9e77;"/>
   </g>
   <g id="patch_75">
    <path clip-path="url(#pa96b727065)" d="M 926.207031 901.5 
L 939.609375 901.5 
L 939.609375 713.830604 
L 926.207031 713.830604 
z
" style="fill:#7570b3;"/>
   </g>
   <g id="patch_76">
    <path clip-path="url(#pa96b727065)" d="M 1033.425781 901.5 
L 1046.828125 901.5 
L 1046.828125 700.304707 
L 1033.425781 700.304707 
z
" style="fill:#7570b3;"/>
   </g>
   <g id="patch_77">
    <path clip-path="url(#pa96b727065)" d="M 1140.644531 901.5 
L 1154.046875 901.5 
L 1154.046875 671.384586 
L 1140.644531 671.384586 
z
" style="fill:#7570b3;"/>
   </g>
   <g id="patch_78">
    <path clip-path="url(#pa96b727065)" d="M 1247.863281 901.5 
L 1261.265625 901.5 
L 1261.265625 655.484358 
L 1247.863281 655.484358 
z
" style="fill:#7570b3;"/>
   </g>
   <g id="patch_79">
    <path clip-path="url(#pa96b727065)" d="M 939.609375 901.5 
L 953.011719 901.5 
L 953.011719 660.155172 
L 939.609375 660.155172 
z
" style="fill:#e6ab02;"/>
   </g>
   <g id="patch_80">
    <path clip-path="url(#pa96b727065)" d="M 1046.828125 901.5 
L 1060.230469 901.5 
L 1060.230469 657.819765 
L 1046.828125 657.819765 
z
" style="fill:#e6ab02;"/>
   </g>
   <g id="patch_81">
    <path clip-path="url(#pa96b727065)" d="M 1154.046875 901.5 
L 1167.449219 901.5 
L 1167.449219 658.637157 
L 1154.046875 658.637157 
z
" style="fill:#e6ab02;"/>
   </g>
   <g id="patch_82">
    <path clip-path="url(#pa96b727065)" d="M 1261.265625 901.5 
L 1274.667969 901.5 
L 1274.667969 658.189538 
L 1261.265625 658.189538 
z
" style="fill:#e6ab02;"/>
   </g>
   <g id="patch_83">
    <path clip-path="url(#pa96b727065)" d="M 953.011719 901.5 
L 966.414062 901.5 
L 966.414062 670.606117 
L 953.011719 670.606117 
z
" style="fill:#666666;"/>
   </g>
   <g id="patch_84">
    <path clip-path="url(#pa96b727065)" d="M 1060.230469 901.5 
L 1073.632812 901.5 
L 1073.632812 671.871129 
L 1060.230469 671.871129 
z
" style="fill:#666666;"/>
   </g>
   <g id="patch_85">
    <path clip-path="url(#pa96b727065)" d="M 1167.449219 901.5 
L 1180.851562 901.5 
L 1180.851562 670.722887 
L 1167.449219 670.722887 
z
" style="fill:#666666;"/>
   </g>
   <g id="patch_86">
    <path clip-path="url(#pa96b727065)" d="M 1274.667969 901.5 
L 1288.070312 901.5 
L 1288.070312 670.956428 
L 1274.667969 670.956428 
z
" style="fill:#666666;"/>
   </g>
   <g id="matplotlib.axis_7">
    <g id="xtick_13">
     <g id="line2d_33">
      <g>
       <use style="stroke:#000000;stroke-width:0.8;" x="939.609375" xlink:href="#m2321c236e4" y="901.5"/>
      </g>
     </g>
     <g id="text_43">
      <!-- 500 -->
      <g transform="translate(945.128125 946.675)rotate(-90)scale(0.2 -0.2)">
       <use xlink:href="#DejaVuSans-53"/>
       <use x="63.623047" xlink:href="#DejaVuSans-48"/>
       <use x="127.246094" xlink:href="#DejaVuSans-48"/>
      </g>
     </g>
    </g>
    <g id="xtick_14">
     <g id="line2d_34">
      <g>
       <use style="stroke:#000000;stroke-width:0.8;" x="1046.828125" xlink:href="#m2321c236e4" y="901.5"/>
      </g>
     </g>
     <g id="text_44">
      <!-- 750 -->
      <g transform="translate(1052.346875 946.675)rotate(-90)scale(0.2 -0.2)">
       <use xlink:href="#DejaVuSans-55"/>
       <use x="63.623047" xlink:href="#DejaVuSans-53"/>
       <use x="127.246094" xlink:href="#DejaVuSans-48"/>
      </g>
     </g>
    </g>
    <g id="xtick_15">
     <g id="line2d_35">
      <g>
       <use style="stroke:#000000;stroke-width:0.8;" x="1154.046875" xlink:href="#m2321c236e4" y="901.5"/>
      </g>
     </g>
     <g id="text_45">
      <!-- 1000 -->
      <g transform="translate(1159.565625 959.4)rotate(-90)scale(0.2 -0.2)">
       <use xlink:href="#DejaVuSans-49"/>
       <use x="63.623047" xlink:href="#DejaVuSans-48"/>
       <use x="127.246094" xlink:href="#DejaVuSans-48"/>
       <use x="190.869141" xlink:href="#DejaVuSans-48"/>
      </g>
     </g>
    </g>
    <g id="xtick_16">
     <g id="line2d_36">
      <g>
       <use style="stroke:#000000;stroke-width:0.8;" x="1261.265625" xlink:href="#m2321c236e4" y="901.5"/>
      </g>
     </g>
     <g id="text_46">
      <!-- 1500 -->
      <g transform="translate(1266.784375 959.4)rotate(-90)scale(0.2 -0.2)">
       <use xlink:href="#DejaVuSans-49"/>
       <use x="63.623047" xlink:href="#DejaVuSans-53"/>
       <use x="127.246094" xlink:href="#DejaVuSans-48"/>
       <use x="190.869141" xlink:href="#DejaVuSans-48"/>
      </g>
     </g>
    </g>
    <g id="text_47">
     <!-- size -->
     <g transform="translate(1081.048438 978.596875)scale(0.2 -0.2)">
      <use xlink:href="#DejaVuSans-115"/>
      <use x="52.099609" xlink:href="#DejaVuSans-105"/>
      <use x="79.882812" xlink:href="#DejaVuSans-122"/>
      <use x="132.373047" xlink:href="#DejaVuSans-101"/>
     </g>
    </g>
   </g>
   <g id="matplotlib.axis_8">
    <g id="ytick_21">
     <g id="line2d_37">
      <g>
       <use style="stroke:#000000;stroke-width:0.8;" x="886" xlink:href="#mfb6b44e135" y="901.5"/>
      </g>
     </g>
     <g id="text_48">
      <!-- 0.00 -->
      <g transform="translate(834.46875 909.098437)scale(0.2 -0.2)">
       <use xlink:href="#DejaVuSans-48"/>
       <use x="63.623047" xlink:href="#DejaVuSans-46"/>
       <use x="95.410156" xlink:href="#DejaVuSans-48"/>
       <use x="159.033203" xlink:href="#DejaVuSans-48"/>
      </g>
     </g>
    </g>
    <g id="ytick_22">
     <g id="line2d_38">
      <g>
       <use style="stroke:#000000;stroke-width:0.8;" x="886" xlink:href="#mfb6b44e135" y="852.845692"/>
      </g>
     </g>
     <g id="text_49">
      <!-- 0.25 -->
      <g transform="translate(834.46875 860.44413)scale(0.2 -0.2)">
       <use xlink:href="#DejaVuSans-48"/>
       <use x="63.623047" xlink:href="#DejaVuSans-46"/>
       <use x="95.410156" xlink:href="#DejaVuSans-50"/>
       <use x="159.033203" xlink:href="#DejaVuSans-53"/>
      </g>
     </g>
    </g>
    <g id="ytick_23">
     <g id="line2d_39">
      <g>
       <use style="stroke:#000000;stroke-width:0.8;" x="886" xlink:href="#mfb6b44e135" y="804.191385"/>
      </g>
     </g>
     <g id="text_50">
      <!-- 0.50 -->
      <g transform="translate(834.46875 811.789822)scale(0.2 -0.2)">
       <use xlink:href="#DejaVuSans-48"/>
       <use x="63.623047" xlink:href="#DejaVuSans-46"/>
       <use x="95.410156" xlink:href="#DejaVuSans-53"/>
       <use x="159.033203" xlink:href="#DejaVuSans-48"/>
      </g>
     </g>
    </g>
    <g id="ytick_24">
     <g id="line2d_40">
      <g>
       <use style="stroke:#000000;stroke-width:0.8;" x="886" xlink:href="#mfb6b44e135" y="755.537077"/>
      </g>
     </g>
     <g id="text_51">
      <!-- 0.75 -->
      <g transform="translate(834.46875 763.135514)scale(0.2 -0.2)">
       <use xlink:href="#DejaVuSans-48"/>
       <use x="63.623047" xlink:href="#DejaVuSans-46"/>
       <use x="95.410156" xlink:href="#DejaVuSans-55"/>
       <use x="159.033203" xlink:href="#DejaVuSans-53"/>
      </g>
     </g>
    </g>
    <g id="ytick_25">
     <g id="line2d_41">
      <g>
       <use style="stroke:#000000;stroke-width:0.8;" x="886" xlink:href="#mfb6b44e135" y="706.882769"/>
      </g>
     </g>
     <g id="text_52">
      <!-- 1.00 -->
      <g transform="translate(834.46875 714.481207)scale(0.2 -0.2)">
       <use xlink:href="#DejaVuSans-49"/>
       <use x="63.623047" xlink:href="#DejaVuSans-46"/>
       <use x="95.410156" xlink:href="#DejaVuSans-48"/>
       <use x="159.033203" xlink:href="#DejaVuSans-48"/>
      </g>
     </g>
    </g>
    <g id="ytick_26">
     <g id="line2d_42">
      <g>
       <use style="stroke:#000000;stroke-width:0.8;" x="886" xlink:href="#mfb6b44e135" y="658.228461"/>
      </g>
     </g>
     <g id="text_53">
      <!-- 1.25 -->
      <g transform="translate(834.46875 665.826899)scale(0.2 -0.2)">
       <use xlink:href="#DejaVuSans-49"/>
       <use x="63.623047" xlink:href="#DejaVuSans-46"/>
       <use x="95.410156" xlink:href="#DejaVuSans-50"/>
       <use x="159.033203" xlink:href="#DejaVuSans-53"/>
      </g>
     </g>
    </g>
    <g id="ytick_27">
     <g id="line2d_43">
      <g>
       <use style="stroke:#000000;stroke-width:0.8;" x="886" xlink:href="#mfb6b44e135" y="609.574154"/>
      </g>
     </g>
     <g id="text_54">
      <!-- 1.50 -->
      <g transform="translate(834.46875 617.172591)scale(0.2 -0.2)">
       <use xlink:href="#DejaVuSans-49"/>
       <use x="63.623047" xlink:href="#DejaVuSans-46"/>
       <use x="95.410156" xlink:href="#DejaVuSans-53"/>
       <use x="159.033203" xlink:href="#DejaVuSans-48"/>
      </g>
     </g>
    </g>
   </g>
   <g id="LineCollection_13">
    <path clip-path="url(#pa96b727065)" d="M 919.505859 645.920219 
L 919.505859 625.89151 
" style="fill:none;stroke:#000000;stroke-width:1.5;"/>
    <path clip-path="url(#pa96b727065)" d="M 1026.724609 642.856856 
L 1026.724609 622.571429 
" style="fill:none;stroke:#000000;stroke-width:1.5;"/>
    <path clip-path="url(#pa96b727065)" d="M 1133.943359 641.518223 
L 1133.943359 626.284391 
" style="fill:none;stroke:#000000;stroke-width:1.5;"/>
    <path clip-path="url(#pa96b727065)" d="M 1241.162109 643.993314 
L 1241.162109 627.97411 
" style="fill:none;stroke:#000000;stroke-width:1.5;"/>
   </g>
   <g id="LineCollection_14">
    <path clip-path="url(#pa96b727065)" d="M 932.908203 749.799656 
L 932.908203 677.861552 
" style="fill:none;stroke:#000000;stroke-width:1.5;"/>
    <path clip-path="url(#pa96b727065)" d="M 1040.126953 723.21097 
L 1040.126953 677.398443 
" style="fill:none;stroke:#000000;stroke-width:1.5;"/>
    <path clip-path="url(#pa96b727065)" d="M 1147.345703 679.094966 
L 1147.345703 663.674206 
" style="fill:none;stroke:#000000;stroke-width:1.5;"/>
    <path clip-path="url(#pa96b727065)" d="M 1254.564453 656.0821 
L 1254.564453 654.886616 
" style="fill:none;stroke:#000000;stroke-width:1.5;"/>
   </g>
   <g id="LineCollection_15">
    <path clip-path="url(#pa96b727065)" d="M 946.310547 663.77927 
L 946.310547 656.531074 
" style="fill:none;stroke:#000000;stroke-width:1.5;"/>
    <path clip-path="url(#pa96b727065)" d="M 1053.529297 661.911821 
L 1053.529297 653.727709 
" style="fill:none;stroke:#000000;stroke-width:1.5;"/>
    <path clip-path="url(#pa96b727065)" d="M 1160.748047 661.763779 
L 1160.748047 655.510536 
" style="fill:none;stroke:#000000;stroke-width:1.5;"/>
    <path clip-path="url(#pa96b727065)" d="M 1267.966797 660.046748 
L 1267.966797 656.332328 
" style="fill:none;stroke:#000000;stroke-width:1.5;"/>
   </g>
   <g id="LineCollection_16">
    <path clip-path="url(#pa96b727065)" d="M 959.712891 676.262456 
L 959.712891 664.949779 
" style="fill:none;stroke:#000000;stroke-width:1.5;"/>
    <path clip-path="url(#pa96b727065)" d="M 1066.931641 675.846331 
L 1066.931641 667.895927 
" style="fill:none;stroke:#000000;stroke-width:1.5;"/>
    <path clip-path="url(#pa96b727065)" d="M 1174.150391 673.065132 
L 1174.150391 668.380643 
" style="fill:none;stroke:#000000;stroke-width:1.5;"/>
    <path clip-path="url(#pa96b727065)" d="M 1281.369141 673.11815 
L 1281.369141 668.794707 
" style="fill:none;stroke:#000000;stroke-width:1.5;"/>
   </g>
   <g id="patch_87">
    <path d="M 886 901.5 
L 886 608.625 
" style="fill:none;stroke:#000000;stroke-linecap:square;stroke-linejoin:miter;stroke-width:0.8;"/>
   </g>
   <g id="patch_88">
    <path d="M 1314.875 901.5 
L 1314.875 608.625 
" style="fill:none;stroke:#000000;stroke-linecap:square;stroke-linejoin:miter;stroke-width:0.8;"/>
   </g>
   <g id="patch_89">
    <path d="M 886 901.5 
L 1314.875 901.5 
" style="fill:none;stroke:#000000;stroke-linecap:square;stroke-linejoin:miter;stroke-width:0.8;"/>
   </g>
   <g id="patch_90">
    <path d="M 886 608.625 
L 1314.875 608.625 
" style="fill:none;stroke:#000000;stroke-linecap:square;stroke-linejoin:miter;stroke-width:0.8;"/>
   </g>
   <g id="text_55">
    <!-- Out-degree -->
    <g transform="translate(1032.301875 602.625)scale(0.24 -0.24)">
     <defs>
      <path d="M 39.40625 66.21875 
Q 28.65625 66.21875 22.328125 58.203125 
Q 16.015625 50.203125 16.015625 36.375 
Q 16.015625 22.609375 22.328125 14.59375 
Q 28.65625 6.59375 39.40625 6.59375 
Q 50.140625 6.59375 56.421875 14.59375 
Q 62.703125 22.609375 62.703125 36.375 
Q 62.703125 50.203125 56.421875 58.203125 
Q 50.140625 66.21875 39.40625 66.21875 
z
M 39.40625 74.21875 
Q 54.734375 74.21875 63.90625 63.9375 
Q 73.09375 53.65625 73.09375 36.375 
Q 73.09375 19.140625 63.90625 8.859375 
Q 54.734375 -1.421875 39.40625 -1.421875 
Q 24.03125 -1.421875 14.8125 8.828125 
Q 5.609375 19.09375 5.609375 36.375 
Q 5.609375 53.65625 14.8125 63.9375 
Q 24.03125 74.21875 39.40625 74.21875 
z
" id="DejaVuSans-79"/>
      <path d="M 8.5 21.578125 
L 8.5 54.6875 
L 17.484375 54.6875 
L 17.484375 21.921875 
Q 17.484375 14.15625 20.5 10.265625 
Q 23.53125 6.390625 29.59375 6.390625 
Q 36.859375 6.390625 41.078125 11.03125 
Q 45.3125 15.671875 45.3125 23.6875 
L 45.3125 54.6875 
L 54.296875 54.6875 
L 54.296875 0 
L 45.3125 0 
L 45.3125 8.40625 
Q 42.046875 3.421875 37.71875 1 
Q 33.40625 -1.421875 27.6875 -1.421875 
Q 18.265625 -1.421875 13.375 4.4375 
Q 8.5 10.296875 8.5 21.578125 
z
M 31.109375 56 
z
" id="DejaVuSans-117"/>
     </defs>
     <use xlink:href="#DejaVuSans-79"/>
     <use x="78.710938" xlink:href="#DejaVuSans-117"/>
     <use x="142.089844" xlink:href="#DejaVuSans-116"/>
     <use x="181.298828" xlink:href="#DejaVuSans-45"/>
     <use x="217.382812" xlink:href="#DejaVuSans-100"/>
     <use x="280.859375" xlink:href="#DejaVuSans-101"/>
     <use x="342.382812" xlink:href="#DejaVuSans-103"/>
     <use x="405.859375" xlink:href="#DejaVuSans-114"/>
     <use x="444.722656" xlink:href="#DejaVuSans-101"/>
     <use x="506.246094" xlink:href="#DejaVuSans-101"/>
    </g>
   </g>
  </g>
 </g>
 <defs>
  <clipPath id="pe147d187c5">
   <rect height="292.875" width="428.875" x="202" y="109.125"/>
  </clipPath>
  <clipPath id="p759e0f161d">
   <rect height="292.875" width="428.875" x="886" y="109.125"/>
  </clipPath>
  <clipPath id="pdec9acacdc">
   <rect height="292.875" width="428.875" x="202" y="608.625"/>
  </clipPath>
  <clipPath id="pa96b727065">
   <rect height="292.875" width="428.875" x="886" y="608.625"/>
  </clipPath>
 </defs>
</svg>
