<?xml version="1.0" encoding="utf-8" standalone="no"?>
<!DOCTYPE svg PUBLIC "-//W3C//DTD SVG 1.1//EN"
  "http://www.w3.org/Graphics/SVG/1.1/DTD/svg11.dtd">
<!-- Created with matplotlib (https://matplotlib.org/) -->
<svg height="1296pt" version="1.1" viewBox="0 0 1728 1296" width="1728pt" xmlns="http://www.w3.org/2000/svg" xmlns:xlink="http://www.w3.org/1999/xlink">
 <metadata>
  <rdf:RDF xmlns:cc="http://creativecommons.org/ns#" xmlns:dc="http://purl.org/dc/elements/1.1/" xmlns:rdf="http://www.w3.org/1999/02/22-rdf-syntax-ns#">
   <cc:Work>
    <dc:type rdf:resource="http://purl.org/dc/dcmitype/StillImage"/>
    <dc:date>2021-10-26T23:23:23.179768</dc:date>
    <dc:format>image/svg+xml</dc:format>
    <dc:creator>
     <cc:Agent>
      <dc:title>Matplotlib v3.3.4, https://matplotlib.org/</dc:title>
     </cc:Agent>
    </dc:creator>
   </cc:Work>
  </rdf:RDF>
 </metadata>
 <defs>
  <style type="text/css">*{stroke-linecap:butt;stroke-linejoin:round;}</style>
 </defs>
 <g id="figure_1">
  <g id="patch_1">
   <path d="M 0 1296 
L 1728 1296 
L 1728 0 
L 0 0 
z
" style="fill:none;"/>
  </g>
  <g id="axes_1">
   <g id="patch_2">
    <path d="M 216 324.223448 
L 1555.2 324.223448 
L 1555.2 155.52 
L 216 155.52 
z
" style="fill:#ffffff;"/>
   </g>
   <g id="patch_3">
    <path clip-path="url(#p7338ebb6b5)" d="M 299.7 239.871724 
L 333.18 239.871724 
L 333.18 242.355141 
L 299.7 242.355141 
z
" style="fill:#fde725;"/>
   </g>
   <g id="patch_4">
    <path clip-path="url(#p7338ebb6b5)" d="M 634.5 239.871724 
L 667.98 239.871724 
L 667.98 242.270264 
L 634.5 242.270264 
z
" style="fill:#fde725;"/>
   </g>
   <g id="patch_5">
    <path clip-path="url(#p7338ebb6b5)" d="M 969.3 239.871724 
L 1002.78 239.871724 
L 1002.78 238.909373 
L 969.3 238.909373 
z
" style="fill:#fde725;"/>
   </g>
   <g id="patch_6">
    <path clip-path="url(#p7338ebb6b5)" d="M 1304.1 239.871724 
L 1337.58 239.871724 
L 1337.58 242.252283 
L 1304.1 242.252283 
z
" style="fill:#fde725;"/>
   </g>
   <g id="patch_7">
    <path clip-path="url(#p7338ebb6b5)" d="M 333.18 239.871724 
L 366.66 239.871724 
L 366.66 243.449265 
L 333.18 243.449265 
z
" style="fill:#5cc863;"/>
   </g>
   <g id="patch_8">
    <path clip-path="url(#p7338ebb6b5)" d="M 667.98 239.871724 
L 701.46 239.871724 
L 701.46 242.917647 
L 667.98 242.917647 
z
" style="fill:#5cc863;"/>
   </g>
   <g id="patch_9">
    <path clip-path="url(#p7338ebb6b5)" d="M 1002.78 239.871724 
L 1036.26 239.871724 
L 1036.26 241.140928 
L 1002.78 241.140928 
z
" style="fill:#5cc863;"/>
   </g>
   <g id="patch_10">
    <path clip-path="url(#p7338ebb6b5)" d="M 1337.58 239.871724 
L 1371.06 239.871724 
L 1371.06 244.773475 
L 1337.58 244.773475 
z
" style="fill:#5cc863;"/>
   </g>
   <g id="patch_11">
    <path clip-path="url(#p7338ebb6b5)" d="M 366.66 239.871724 
L 400.14 239.871724 
L 400.14 240.433993 
L 366.66 240.433993 
z
" style="fill:#21908d;"/>
   </g>
   <g id="patch_12">
    <path clip-path="url(#p7338ebb6b5)" d="M 701.46 239.871724 
L 734.94 239.871724 
L 734.94 244.389768 
L 701.46 244.389768 
z
" style="fill:#21908d;"/>
   </g>
   <g id="patch_13">
    <path clip-path="url(#p7338ebb6b5)" d="M 1036.26 239.871724 
L 1069.74 239.871724 
L 1069.74 236.577513 
L 1036.26 236.577513 
z
" style="fill:#21908d;"/>
   </g>
   <g id="patch_14">
    <path clip-path="url(#p7338ebb6b5)" d="M 1371.06 239.871724 
L 1404.54 239.871724 
L 1404.54 241.420835 
L 1371.06 241.420835 
z
" style="fill:#21908d;"/>
   </g>
   <g id="patch_15">
    <path clip-path="url(#p7338ebb6b5)" d="M 400.14 239.871724 
L 433.62 239.871724 
L 433.62 241.935067 
L 400.14 241.935067 
z
" style="fill:#3b518b;"/>
   </g>
   <g id="patch_16">
    <path clip-path="url(#p7338ebb6b5)" d="M 734.94 239.871724 
L 768.42 239.871724 
L 768.42 240.384106 
L 734.94 240.384106 
z
" style="fill:#3b518b;"/>
   </g>
   <g id="patch_17">
    <path clip-path="url(#p7338ebb6b5)" d="M 1069.74 239.871724 
L 1103.22 239.871724 
L 1103.22 239.749067 
L 1069.74 239.749067 
z
" style="fill:#3b518b;"/>
   </g>
   <g id="patch_18">
    <path clip-path="url(#p7338ebb6b5)" d="M 1404.54 239.871724 
L 1438.02 239.871724 
L 1438.02 244.875948 
L 1404.54 244.875948 
z
" style="fill:#3b518b;"/>
   </g>
   <g id="patch_19">
    <path clip-path="url(#p7338ebb6b5)" d="M 433.62 239.871724 
L 467.1 239.871724 
L 467.1 243.793886 
L 433.62 243.793886 
z
" style="fill:#440154;"/>
   </g>
   <g id="patch_20">
    <path clip-path="url(#p7338ebb6b5)" d="M 768.42 239.871724 
L 801.9 239.871724 
L 801.9 238.613922 
L 768.42 238.613922 
z
" style="fill:#440154;"/>
   </g>
   <g id="patch_21">
    <path clip-path="url(#p7338ebb6b5)" d="M 1103.22 239.871724 
L 1136.7 239.871724 
L 1136.7 238.379123 
L 1103.22 238.379123 
z
" style="fill:#440154;"/>
   </g>
   <g id="patch_22">
    <path clip-path="url(#p7338ebb6b5)" d="M 1438.02 239.871724 
L 1471.5 239.871724 
L 1471.5 239.534852 
L 1438.02 239.534852 
z
" style="fill:#440154;"/>
   </g>
   <g id="matplotlib.axis_1">
    <g id="xtick_1">
     <g id="line2d_1">
      <defs>
       <path d="M 0 0 
L 0 3.5 
" id="m6ca5281da4" style="stroke:#000000;stroke-width:0.8;"/>
      </defs>
      <g>
       <use style="stroke:#000000;stroke-width:0.8;" x="383.4" xlink:href="#m6ca5281da4" y="324.223448"/>
      </g>
     </g>
    </g>
    <g id="xtick_2">
     <g id="line2d_2">
      <g>
       <use style="stroke:#000000;stroke-width:0.8;" x="718.2" xlink:href="#m6ca5281da4" y="324.223448"/>
      </g>
     </g>
    </g>
    <g id="xtick_3">
     <g id="line2d_3">
      <g>
       <use style="stroke:#000000;stroke-width:0.8;" x="1053" xlink:href="#m6ca5281da4" y="324.223448"/>
      </g>
     </g>
    </g>
    <g id="xtick_4">
     <g id="line2d_4">
      <g>
       <use style="stroke:#000000;stroke-width:0.8;" x="1387.8" xlink:href="#m6ca5281da4" y="324.223448"/>
      </g>
     </g>
    </g>
   </g>
   <g id="matplotlib.axis_2">
    <g id="ytick_1">
     <g id="line2d_5">
      <defs>
       <path d="M 0 0 
L -3.5 0 
" id="mf54687f830" style="stroke:#000000;stroke-width:0.8;"/>
      </defs>
      <g>
       <use style="stroke:#000000;stroke-width:0.8;" x="216" xlink:href="#mf54687f830" y="305.478621"/>
      </g>
     </g>
     <g id="text_1">
      <!-- −7.0 -->
      <g transform="translate(121.581875 319.155808)scale(0.36 -0.36)">
       <defs>
        <path d="M 10.59375 35.5 
L 73.1875 35.5 
L 73.1875 27.203125 
L 10.59375 27.203125 
z
" id="DejaVuSans-8722"/>
        <path d="M 8.203125 72.90625 
L 55.078125 72.90625 
L 55.078125 68.703125 
L 28.609375 0 
L 18.3125 0 
L 43.21875 64.59375 
L 8.203125 64.59375 
z
" id="DejaVuSans-55"/>
        <path d="M 10.6875 12.40625 
L 21 12.40625 
L 21 0 
L 10.6875 0 
z
" id="DejaVuSans-46"/>
        <path d="M 31.78125 66.40625 
Q 24.171875 66.40625 20.328125 58.90625 
Q 16.5 51.421875 16.5 36.375 
Q 16.5 21.390625 20.328125 13.890625 
Q 24.171875 6.390625 31.78125 6.390625 
Q 39.453125 6.390625 43.28125 13.890625 
Q 47.125 21.390625 47.125 36.375 
Q 47.125 51.421875 43.28125 58.90625 
Q 39.453125 66.40625 31.78125 66.40625 
z
M 31.78125 74.21875 
Q 44.046875 74.21875 50.515625 64.515625 
Q 56.984375 54.828125 56.984375 36.375 
Q 56.984375 17.96875 50.515625 8.265625 
Q 44.046875 -1.421875 31.78125 -1.421875 
Q 19.53125 -1.421875 13.0625 8.265625 
Q 6.59375 17.96875 6.59375 36.375 
Q 6.59375 54.828125 13.0625 64.515625 
Q 19.53125 74.21875 31.78125 74.21875 
z
" id="DejaVuSans-48"/>
       </defs>
       <use xlink:href="#DejaVuSans-8722"/>
       <use x="83.789062" xlink:href="#DejaVuSans-55"/>
       <use x="147.412109" xlink:href="#DejaVuSans-46"/>
       <use x="179.199219" xlink:href="#DejaVuSans-48"/>
      </g>
     </g>
    </g>
    <g id="ytick_2">
     <g id="line2d_6">
      <g>
       <use style="stroke:#000000;stroke-width:0.8;" x="216" xlink:href="#mf54687f830" y="272.675172"/>
      </g>
     </g>
     <g id="text_2">
      <!-- −3.5 -->
      <g transform="translate(121.581875 286.35236)scale(0.36 -0.36)">
       <defs>
        <path d="M 40.578125 39.3125 
Q 47.65625 37.796875 51.625 33 
Q 55.609375 28.21875 55.609375 21.1875 
Q 55.609375 10.40625 48.1875 4.484375 
Q 40.765625 -1.421875 27.09375 -1.421875 
Q 22.515625 -1.421875 17.65625 -0.515625 
Q 12.796875 0.390625 7.625 2.203125 
L 7.625 11.71875 
Q 11.71875 9.328125 16.59375 8.109375 
Q 21.484375 6.890625 26.8125 6.890625 
Q 36.078125 6.890625 40.9375 10.546875 
Q 45.796875 14.203125 45.796875 21.1875 
Q 45.796875 27.640625 41.28125 31.265625 
Q 36.765625 34.90625 28.71875 34.90625 
L 20.21875 34.90625 
L 20.21875 43.015625 
L 29.109375 43.015625 
Q 36.375 43.015625 40.234375 45.921875 
Q 44.09375 48.828125 44.09375 54.296875 
Q 44.09375 59.90625 40.109375 62.90625 
Q 36.140625 65.921875 28.71875 65.921875 
Q 24.65625 65.921875 20.015625 65.03125 
Q 15.375 64.15625 9.8125 62.3125 
L 9.8125 71.09375 
Q 15.4375 72.65625 20.34375 73.4375 
Q 25.25 74.21875 29.59375 74.21875 
Q 40.828125 74.21875 47.359375 69.109375 
Q 53.90625 64.015625 53.90625 55.328125 
Q 53.90625 49.265625 50.4375 45.09375 
Q 46.96875 40.921875 40.578125 39.3125 
z
" id="DejaVuSans-51"/>
        <path d="M 10.796875 72.90625 
L 49.515625 72.90625 
L 49.515625 64.59375 
L 19.828125 64.59375 
L 19.828125 46.734375 
Q 21.96875 47.46875 24.109375 47.828125 
Q 26.265625 48.1875 28.421875 48.1875 
Q 40.625 48.1875 47.75 41.5 
Q 54.890625 34.8125 54.890625 23.390625 
Q 54.890625 11.625 47.5625 5.09375 
Q 40.234375 -1.421875 26.90625 -1.421875 
Q 22.3125 -1.421875 17.546875 -0.640625 
Q 12.796875 0.140625 7.71875 1.703125 
L 7.71875 11.625 
Q 12.109375 9.234375 16.796875 8.0625 
Q 21.484375 6.890625 26.703125 6.890625 
Q 35.15625 6.890625 40.078125 11.328125 
Q 45.015625 15.765625 45.015625 23.390625 
Q 45.015625 31 40.078125 35.4375 
Q 35.15625 39.890625 26.703125 39.890625 
Q 22.75 39.890625 18.8125 39.015625 
Q 14.890625 38.140625 10.796875 36.28125 
z
" id="DejaVuSans-53"/>
       </defs>
       <use xlink:href="#DejaVuSans-8722"/>
       <use x="83.789062" xlink:href="#DejaVuSans-51"/>
       <use x="147.412109" xlink:href="#DejaVuSans-46"/>
       <use x="179.199219" xlink:href="#DejaVuSans-53"/>
      </g>
     </g>
    </g>
    <g id="ytick_3">
     <g id="line2d_7">
      <g>
       <use style="stroke:#000000;stroke-width:0.8;" x="216" xlink:href="#mf54687f830" y="239.871724"/>
      </g>
     </g>
     <g id="text_3">
      <!-- 0.0 -->
      <g transform="translate(151.74875 253.548912)scale(0.36 -0.36)">
       <use xlink:href="#DejaVuSans-48"/>
       <use x="63.623047" xlink:href="#DejaVuSans-46"/>
       <use x="95.410156" xlink:href="#DejaVuSans-48"/>
      </g>
     </g>
    </g>
    <g id="ytick_4">
     <g id="line2d_8">
      <g>
       <use style="stroke:#000000;stroke-width:0.8;" x="216" xlink:href="#mf54687f830" y="207.068276"/>
      </g>
     </g>
     <g id="text_4">
      <!-- 3.5 -->
      <g transform="translate(151.74875 220.745463)scale(0.36 -0.36)">
       <use xlink:href="#DejaVuSans-51"/>
       <use x="63.623047" xlink:href="#DejaVuSans-46"/>
       <use x="95.410156" xlink:href="#DejaVuSans-53"/>
      </g>
     </g>
    </g>
    <g id="ytick_5">
     <g id="line2d_9">
      <g>
       <use style="stroke:#000000;stroke-width:0.8;" x="216" xlink:href="#mf54687f830" y="174.264828"/>
      </g>
     </g>
     <g id="text_5">
      <!-- 7.0 -->
      <g transform="translate(151.74875 187.942015)scale(0.36 -0.36)">
       <use xlink:href="#DejaVuSans-55"/>
       <use x="63.623047" xlink:href="#DejaVuSans-46"/>
       <use x="95.410156" xlink:href="#DejaVuSans-48"/>
      </g>
     </g>
    </g>
   </g>
   <g id="patch_23">
    <path d="M 216 324.223448 
L 216 155.52 
" style="fill:none;stroke:#000000;stroke-linecap:square;stroke-linejoin:miter;stroke-width:0.8;"/>
   </g>
   <g id="patch_24">
    <path d="M 1555.2 324.223448 
L 1555.2 155.52 
" style="fill:none;stroke:#000000;stroke-linecap:square;stroke-linejoin:miter;stroke-width:0.8;"/>
   </g>
   <g id="patch_25">
    <path d="M 216 324.223448 
L 1555.2 324.223448 
" style="fill:none;stroke:#000000;stroke-linecap:square;stroke-linejoin:miter;stroke-width:0.8;"/>
   </g>
   <g id="patch_26">
    <path d="M 216 155.52 
L 1555.2 155.52 
" style="fill:none;stroke:#000000;stroke-linecap:square;stroke-linejoin:miter;stroke-width:0.8;"/>
   </g>
  </g>
  <g id="axes_2">
   <g id="patch_27">
    <path d="M 216 526.667586 
L 1555.2 526.667586 
L 1555.2 357.964138 
L 216 357.964138 
z
" style="fill:#ffffff;"/>
   </g>
   <g id="patch_28">
    <path clip-path="url(#p9e3b1724c2)" d="M 299.7 442.315862 
L 333.18 442.315862 
L 333.18 415.763625 
L 299.7 415.763625 
z
" style="fill:#fde725;"/>
   </g>
   <g id="patch_29">
    <path clip-path="url(#p9e3b1724c2)" d="M 634.5 442.315862 
L 667.98 442.315862 
L 667.98 419.854721 
L 634.5 419.854721 
z
" style="fill:#fde725;"/>
   </g>
   <g id="patch_30">
    <path clip-path="url(#p9e3b1724c2)" d="M 969.3 442.315862 
L 1002.78 442.315862 
L 1002.78 421.014947 
L 969.3 421.014947 
z
" style="fill:#fde725;"/>
   </g>
   <g id="patch_31">
    <path clip-path="url(#p9e3b1724c2)" d="M 1304.1 442.315862 
L 1337.58 442.315862 
L 1337.58 416.153338 
L 1304.1 416.153338 
z
" style="fill:#fde725;"/>
   </g>
   <g id="patch_32">
    <path clip-path="url(#p9e3b1724c2)" d="M 333.18 442.315862 
L 366.66 442.315862 
L 366.66 426.253876 
L 333.18 426.253876 
z
" style="fill:#5cc863;"/>
   </g>
   <g id="patch_33">
    <path clip-path="url(#p9e3b1724c2)" d="M 667.98 442.315862 
L 701.46 442.315862 
L 701.46 429.108398 
L 667.98 429.108398 
z
" style="fill:#5cc863;"/>
   </g>
   <g id="patch_34">
    <path clip-path="url(#p9e3b1724c2)" d="M 1002.78 442.315862 
L 1036.26 442.315862 
L 1036.26 429.55066 
L 1002.78 429.55066 
z
" style="fill:#5cc863;"/>
   </g>
   <g id="patch_35">
    <path clip-path="url(#p9e3b1724c2)" d="M 1337.58 442.315862 
L 1371.06 442.315862 
L 1371.06 427.272357 
L 1337.58 427.272357 
z
" style="fill:#5cc863;"/>
   </g>
   <g id="patch_36">
    <path clip-path="url(#p9e3b1724c2)" d="M 366.66 442.315862 
L 400.14 442.315862 
L 400.14 425.104474 
L 366.66 425.104474 
z
" style="fill:#21908d;"/>
   </g>
   <g id="patch_37">
    <path clip-path="url(#p9e3b1724c2)" d="M 701.46 442.315862 
L 734.94 442.315862 
L 734.94 428.135116 
L 701.46 428.135116 
z
" style="fill:#21908d;"/>
   </g>
   <g id="patch_38">
    <path clip-path="url(#p9e3b1724c2)" d="M 1036.26 442.315862 
L 1069.74 442.315862 
L 1069.74 429.700623 
L 1036.26 429.700623 
z
" style="fill:#21908d;"/>
   </g>
   <g id="patch_39">
    <path clip-path="url(#p9e3b1724c2)" d="M 1371.06 442.315862 
L 1404.54 442.315862 
L 1404.54 425.978388 
L 1371.06 425.978388 
z
" style="fill:#21908d;"/>
   </g>
   <g id="patch_40">
    <path clip-path="url(#p9e3b1724c2)" d="M 400.14 442.315862 
L 433.62 442.315862 
L 433.62 458.951906 
L 400.14 458.951906 
z
" style="fill:#3b518b;"/>
   </g>
   <g id="patch_41">
    <path clip-path="url(#p9e3b1724c2)" d="M 734.94 442.315862 
L 768.42 442.315862 
L 768.42 462.289168 
L 734.94 462.289168 
z
" style="fill:#3b518b;"/>
   </g>
   <g id="patch_42">
    <path clip-path="url(#p9e3b1724c2)" d="M 1069.74 442.315862 
L 1103.22 442.315862 
L 1103.22 462.644811 
L 1069.74 462.644811 
z
" style="fill:#3b518b;"/>
   </g>
   <g id="patch_43">
    <path clip-path="url(#p9e3b1724c2)" d="M 1404.54 442.315862 
L 1438.02 442.315862 
L 1438.02 462.288967 
L 1404.54 462.288967 
z
" style="fill:#3b518b;"/>
   </g>
   <g id="patch_44">
    <path clip-path="url(#p9e3b1724c2)" d="M 433.62 442.315862 
L 467.1 442.315862 
L 467.1 436.147717 
L 433.62 436.147717 
z
" style="fill:#440154;"/>
   </g>
   <g id="patch_45">
    <path clip-path="url(#p9e3b1724c2)" d="M 768.42 442.315862 
L 801.9 442.315862 
L 801.9 434.931274 
L 768.42 434.931274 
z
" style="fill:#440154;"/>
   </g>
   <g id="patch_46">
    <path clip-path="url(#p9e3b1724c2)" d="M 1103.22 442.315862 
L 1136.7 442.315862 
L 1136.7 432.357974 
L 1103.22 432.357974 
z
" style="fill:#440154;"/>
   </g>
   <g id="patch_47">
    <path clip-path="url(#p9e3b1724c2)" d="M 1438.02 442.315862 
L 1471.5 442.315862 
L 1471.5 437.937733 
L 1438.02 437.937733 
z
" style="fill:#440154;"/>
   </g>
   <g id="matplotlib.axis_3">
    <g id="xtick_5">
     <g id="line2d_10">
      <g>
       <use style="stroke:#000000;stroke-width:0.8;" x="383.4" xlink:href="#m6ca5281da4" y="526.667586"/>
      </g>
     </g>
    </g>
    <g id="xtick_6">
     <g id="line2d_11">
      <g>
       <use style="stroke:#000000;stroke-width:0.8;" x="718.2" xlink:href="#m6ca5281da4" y="526.667586"/>
      </g>
     </g>
    </g>
    <g id="xtick_7">
     <g id="line2d_12">
      <g>
       <use style="stroke:#000000;stroke-width:0.8;" x="1053" xlink:href="#m6ca5281da4" y="526.667586"/>
      </g>
     </g>
    </g>
    <g id="xtick_8">
     <g id="line2d_13">
      <g>
       <use style="stroke:#000000;stroke-width:0.8;" x="1387.8" xlink:href="#m6ca5281da4" y="526.667586"/>
      </g>
     </g>
    </g>
   </g>
   <g id="matplotlib.axis_4">
    <g id="ytick_6">
     <g id="line2d_14">
      <g>
       <use style="stroke:#000000;stroke-width:0.8;" x="216" xlink:href="#mf54687f830" y="507.922759"/>
      </g>
     </g>
     <g id="text_6">
      <!-- −7.0 -->
      <g transform="translate(121.581875 521.599946)scale(0.36 -0.36)">
       <use xlink:href="#DejaVuSans-8722"/>
       <use x="83.789062" xlink:href="#DejaVuSans-55"/>
       <use x="147.412109" xlink:href="#DejaVuSans-46"/>
       <use x="179.199219" xlink:href="#DejaVuSans-48"/>
      </g>
     </g>
    </g>
    <g id="ytick_7">
     <g id="line2d_15">
      <g>
       <use style="stroke:#000000;stroke-width:0.8;" x="216" xlink:href="#mf54687f830" y="475.11931"/>
      </g>
     </g>
     <g id="text_7">
      <!-- −3.5 -->
      <g transform="translate(121.581875 488.796498)scale(0.36 -0.36)">
       <use xlink:href="#DejaVuSans-8722"/>
       <use x="83.789062" xlink:href="#DejaVuSans-51"/>
       <use x="147.412109" xlink:href="#DejaVuSans-46"/>
       <use x="179.199219" xlink:href="#DejaVuSans-53"/>
      </g>
     </g>
    </g>
    <g id="ytick_8">
     <g id="line2d_16">
      <g>
       <use style="stroke:#000000;stroke-width:0.8;" x="216" xlink:href="#mf54687f830" y="442.315862"/>
      </g>
     </g>
     <g id="text_8">
      <!-- 0.0 -->
      <g transform="translate(151.74875 455.99305)scale(0.36 -0.36)">
       <use xlink:href="#DejaVuSans-48"/>
       <use x="63.623047" xlink:href="#DejaVuSans-46"/>
       <use x="95.410156" xlink:href="#DejaVuSans-48"/>
      </g>
     </g>
    </g>
    <g id="ytick_9">
     <g id="line2d_17">
      <g>
       <use style="stroke:#000000;stroke-width:0.8;" x="216" xlink:href="#mf54687f830" y="409.512414"/>
      </g>
     </g>
     <g id="text_9">
      <!-- 3.5 -->
      <g transform="translate(151.74875 423.189601)scale(0.36 -0.36)">
       <use xlink:href="#DejaVuSans-51"/>
       <use x="63.623047" xlink:href="#DejaVuSans-46"/>
       <use x="95.410156" xlink:href="#DejaVuSans-53"/>
      </g>
     </g>
    </g>
    <g id="ytick_10">
     <g id="line2d_18">
      <g>
       <use style="stroke:#000000;stroke-width:0.8;" x="216" xlink:href="#mf54687f830" y="376.708966"/>
      </g>
     </g>
     <g id="text_10">
      <!-- 7.0 -->
      <g transform="translate(151.74875 390.386153)scale(0.36 -0.36)">
       <use xlink:href="#DejaVuSans-55"/>
       <use x="63.623047" xlink:href="#DejaVuSans-46"/>
       <use x="95.410156" xlink:href="#DejaVuSans-48"/>
      </g>
     </g>
    </g>
   </g>
   <g id="patch_48">
    <path d="M 216 526.667586 
L 216 357.964138 
" style="fill:none;stroke:#000000;stroke-linecap:square;stroke-linejoin:miter;stroke-width:0.8;"/>
   </g>
   <g id="patch_49">
    <path d="M 1555.2 526.667586 
L 1555.2 357.964138 
" style="fill:none;stroke:#000000;stroke-linecap:square;stroke-linejoin:miter;stroke-width:0.8;"/>
   </g>
   <g id="patch_50">
    <path d="M 216 526.667586 
L 1555.2 526.667586 
" style="fill:none;stroke:#000000;stroke-linecap:square;stroke-linejoin:miter;stroke-width:0.8;"/>
   </g>
   <g id="patch_51">
    <path d="M 216 357.964138 
L 1555.2 357.964138 
" style="fill:none;stroke:#000000;stroke-linecap:square;stroke-linejoin:miter;stroke-width:0.8;"/>
   </g>
  </g>
  <g id="axes_3">
   <g id="patch_52">
    <path d="M 216 729.111724 
L 1555.2 729.111724 
L 1555.2 560.408276 
L 216 560.408276 
z
" style="fill:#ffffff;"/>
   </g>
   <g id="patch_53">
    <path clip-path="url(#p76ebfce982)" d="M 299.7 644.76 
L 333.18 644.76 
L 333.18 708.323004 
L 299.7 708.323004 
z
" style="fill:#fde725;"/>
   </g>
   <g id="patch_54">
    <path clip-path="url(#p76ebfce982)" d="M 634.5 644.76 
L 667.98 644.76 
L 667.98 706.777296 
L 634.5 706.777296 
z
" style="fill:#fde725;"/>
   </g>
   <g id="patch_55">
    <path clip-path="url(#p76ebfce982)" d="M 969.3 644.76 
L 1002.78 644.76 
L 1002.78 716.413617 
L 969.3 716.413617 
z
" style="fill:#fde725;"/>
   </g>
   <g id="patch_56">
    <path clip-path="url(#p76ebfce982)" d="M 1304.1 644.76 
L 1337.58 644.76 
L 1337.58 718.445284 
L 1304.1 718.445284 
z
" style="fill:#fde725;"/>
   </g>
   <g id="patch_57">
    <path clip-path="url(#p76ebfce982)" d="M 333.18 644.76 
L 366.66 644.76 
L 366.66 703.325232 
L 333.18 703.325232 
z
" style="fill:#5cc863;"/>
   </g>
   <g id="patch_58">
    <path clip-path="url(#p76ebfce982)" d="M 667.98 644.76 
L 701.46 644.76 
L 701.46 702.564599 
L 667.98 702.564599 
z
" style="fill:#5cc863;"/>
   </g>
   <g id="patch_59">
    <path clip-path="url(#p76ebfce982)" d="M 1002.78 644.76 
L 1036.26 644.76 
L 1036.26 711.357312 
L 1002.78 711.357312 
z
" style="fill:#5cc863;"/>
   </g>
   <g id="patch_60">
    <path clip-path="url(#p76ebfce982)" d="M 1337.58 644.76 
L 1371.06 644.76 
L 1371.06 714.404923 
L 1337.58 714.404923 
z
" style="fill:#5cc863;"/>
   </g>
   <g id="patch_61">
    <path clip-path="url(#p76ebfce982)" d="M 366.66 644.76 
L 400.14 644.76 
L 400.14 680.612619 
L 366.66 680.612619 
z
" style="fill:#21908d;"/>
   </g>
   <g id="patch_62">
    <path clip-path="url(#p76ebfce982)" d="M 701.46 644.76 
L 734.94 644.76 
L 734.94 709.956602 
L 701.46 709.956602 
z
" style="fill:#21908d;"/>
   </g>
   <g id="patch_63">
    <path clip-path="url(#p76ebfce982)" d="M 1036.26 644.76 
L 1069.74 644.76 
L 1069.74 722.172886 
L 1036.26 722.172886 
z
" style="fill:#21908d;"/>
   </g>
   <g id="patch_64">
    <path clip-path="url(#p76ebfce982)" d="M 1371.06 644.76 
L 1404.54 644.76 
L 1404.54 723.033 
L 1371.06 723.033 
z
" style="fill:#21908d;"/>
   </g>
   <g id="patch_65">
    <path clip-path="url(#p76ebfce982)" d="M 400.14 644.76 
L 433.62 644.76 
L 433.62 657.144232 
L 400.14 657.144232 
z
" style="fill:#3b518b;"/>
   </g>
   <g id="patch_66">
    <path clip-path="url(#p76ebfce982)" d="M 734.94 644.76 
L 768.42 644.76 
L 768.42 653.751333 
L 734.94 653.751333 
z
" style="fill:#3b518b;"/>
   </g>
   <g id="patch_67">
    <path clip-path="url(#p76ebfce982)" d="M 1069.74 644.76 
L 1103.22 644.76 
L 1103.22 654.633985 
L 1069.74 654.633985 
z
" style="fill:#3b518b;"/>
   </g>
   <g id="patch_68">
    <path clip-path="url(#p76ebfce982)" d="M 1404.54 644.76 
L 1438.02 644.76 
L 1438.02 660.868541 
L 1404.54 660.868541 
z
" style="fill:#3b518b;"/>
   </g>
   <g id="patch_69">
    <path clip-path="url(#p76ebfce982)" d="M 433.62 644.76 
L 467.1 644.76 
L 467.1 662.016293 
L 433.62 662.016293 
z
" style="fill:#440154;"/>
   </g>
   <g id="patch_70">
    <path clip-path="url(#p76ebfce982)" d="M 768.42 644.76 
L 801.9 644.76 
L 801.9 638.487494 
L 768.42 638.487494 
z
" style="fill:#440154;"/>
   </g>
   <g id="patch_71">
    <path clip-path="url(#p76ebfce982)" d="M 1103.22 644.76 
L 1136.7 644.76 
L 1136.7 641.337887 
L 1103.22 641.337887 
z
" style="fill:#440154;"/>
   </g>
   <g id="patch_72">
    <path clip-path="url(#p76ebfce982)" d="M 1438.02 644.76 
L 1471.5 644.76 
L 1471.5 633.602987 
L 1438.02 633.602987 
z
" style="fill:#440154;"/>
   </g>
   <g id="matplotlib.axis_5">
    <g id="xtick_9">
     <g id="line2d_19">
      <g>
       <use style="stroke:#000000;stroke-width:0.8;" x="383.4" xlink:href="#m6ca5281da4" y="729.111724"/>
      </g>
     </g>
    </g>
    <g id="xtick_10">
     <g id="line2d_20">
      <g>
       <use style="stroke:#000000;stroke-width:0.8;" x="718.2" xlink:href="#m6ca5281da4" y="729.111724"/>
      </g>
     </g>
    </g>
    <g id="xtick_11">
     <g id="line2d_21">
      <g>
       <use style="stroke:#000000;stroke-width:0.8;" x="1053" xlink:href="#m6ca5281da4" y="729.111724"/>
      </g>
     </g>
    </g>
    <g id="xtick_12">
     <g id="line2d_22">
      <g>
       <use style="stroke:#000000;stroke-width:0.8;" x="1387.8" xlink:href="#m6ca5281da4" y="729.111724"/>
      </g>
     </g>
    </g>
   </g>
   <g id="matplotlib.axis_6">
    <g id="ytick_11">
     <g id="line2d_23">
      <g>
       <use style="stroke:#000000;stroke-width:0.8;" x="216" xlink:href="#mf54687f830" y="710.366897"/>
      </g>
     </g>
     <g id="text_11">
      <!-- −7.0 -->
      <g transform="translate(121.581875 724.044084)scale(0.36 -0.36)">
       <use xlink:href="#DejaVuSans-8722"/>
       <use x="83.789062" xlink:href="#DejaVuSans-55"/>
       <use x="147.412109" xlink:href="#DejaVuSans-46"/>
       <use x="179.199219" xlink:href="#DejaVuSans-48"/>
      </g>
     </g>
    </g>
    <g id="ytick_12">
     <g id="line2d_24">
      <g>
       <use style="stroke:#000000;stroke-width:0.8;" x="216" xlink:href="#mf54687f830" y="677.563448"/>
      </g>
     </g>
     <g id="text_12">
      <!-- −3.5 -->
      <g transform="translate(121.581875 691.240636)scale(0.36 -0.36)">
       <use xlink:href="#DejaVuSans-8722"/>
       <use x="83.789062" xlink:href="#DejaVuSans-51"/>
       <use x="147.412109" xlink:href="#DejaVuSans-46"/>
       <use x="179.199219" xlink:href="#DejaVuSans-53"/>
      </g>
     </g>
    </g>
    <g id="ytick_13">
     <g id="line2d_25">
      <g>
       <use style="stroke:#000000;stroke-width:0.8;" x="216" xlink:href="#mf54687f830" y="644.76"/>
      </g>
     </g>
     <g id="text_13">
      <!-- 0.0 -->
      <g transform="translate(151.74875 658.437187)scale(0.36 -0.36)">
       <use xlink:href="#DejaVuSans-48"/>
       <use x="63.623047" xlink:href="#DejaVuSans-46"/>
       <use x="95.410156" xlink:href="#DejaVuSans-48"/>
      </g>
     </g>
    </g>
    <g id="ytick_14">
     <g id="line2d_26">
      <g>
       <use style="stroke:#000000;stroke-width:0.8;" x="216" xlink:href="#mf54687f830" y="611.956552"/>
      </g>
     </g>
     <g id="text_14">
      <!-- 3.5 -->
      <g transform="translate(151.74875 625.633739)scale(0.36 -0.36)">
       <use xlink:href="#DejaVuSans-51"/>
       <use x="63.623047" xlink:href="#DejaVuSans-46"/>
       <use x="95.410156" xlink:href="#DejaVuSans-53"/>
      </g>
     </g>
    </g>
    <g id="ytick_15">
     <g id="line2d_27">
      <g>
       <use style="stroke:#000000;stroke-width:0.8;" x="216" xlink:href="#mf54687f830" y="579.153103"/>
      </g>
     </g>
     <g id="text_15">
      <!-- 7.0 -->
      <g transform="translate(151.74875 592.830291)scale(0.36 -0.36)">
       <use xlink:href="#DejaVuSans-55"/>
       <use x="63.623047" xlink:href="#DejaVuSans-46"/>
       <use x="95.410156" xlink:href="#DejaVuSans-48"/>
      </g>
     </g>
    </g>
   </g>
   <g id="patch_73">
    <path d="M 216 729.111724 
L 216 560.408276 
" style="fill:none;stroke:#000000;stroke-linecap:square;stroke-linejoin:miter;stroke-width:0.8;"/>
   </g>
   <g id="patch_74">
    <path d="M 1555.2 729.111724 
L 1555.2 560.408276 
" style="fill:none;stroke:#000000;stroke-linecap:square;stroke-linejoin:miter;stroke-width:0.8;"/>
   </g>
   <g id="patch_75">
    <path d="M 216 729.111724 
L 1555.2 729.111724 
" style="fill:none;stroke:#000000;stroke-linecap:square;stroke-linejoin:miter;stroke-width:0.8;"/>
   </g>
   <g id="patch_76">
    <path d="M 216 560.408276 
L 1555.2 560.408276 
" style="fill:none;stroke:#000000;stroke-linecap:square;stroke-linejoin:miter;stroke-width:0.8;"/>
   </g>
  </g>
  <g id="axes_4">
   <g id="patch_77">
    <path d="M 216 931.555862 
L 1555.2 931.555862 
L 1555.2 762.852414 
L 216 762.852414 
z
" style="fill:#ffffff;"/>
   </g>
   <g id="patch_78">
    <path clip-path="url(#p122d9d717d)" d="M 299.7 847.204138 
L 333.18 847.204138 
L 333.18 838.087717 
L 299.7 838.087717 
z
" style="fill:#fde725;"/>
   </g>
   <g id="patch_79">
    <path clip-path="url(#p122d9d717d)" d="M 634.5 847.204138 
L 667.98 847.204138 
L 667.98 847.278438 
L 634.5 847.278438 
z
" style="fill:#fde725;"/>
   </g>
   <g id="patch_80">
    <path clip-path="url(#p122d9d717d)" d="M 969.3 847.204138 
L 1002.78 847.204138 
L 1002.78 843.272465 
L 969.3 843.272465 
z
" style="fill:#fde725;"/>
   </g>
   <g id="patch_81">
    <path clip-path="url(#p122d9d717d)" d="M 1304.1 847.204138 
L 1337.58 847.204138 
L 1337.58 845.308851 
L 1304.1 845.308851 
z
" style="fill:#fde725;"/>
   </g>
   <g id="patch_82">
    <path clip-path="url(#p122d9d717d)" d="M 333.18 847.204138 
L 366.66 847.204138 
L 366.66 838.01157 
L 333.18 838.01157 
z
" style="fill:#5cc863;"/>
   </g>
   <g id="patch_83">
    <path clip-path="url(#p122d9d717d)" d="M 667.98 847.204138 
L 701.46 847.204138 
L 701.46 848.012888 
L 667.98 848.012888 
z
" style="fill:#5cc863;"/>
   </g>
   <g id="patch_84">
    <path clip-path="url(#p122d9d717d)" d="M 1002.78 847.204138 
L 1036.26 847.204138 
L 1036.26 843.783269 
L 1002.78 843.783269 
z
" style="fill:#5cc863;"/>
   </g>
   <g id="patch_85">
    <path clip-path="url(#p122d9d717d)" d="M 1337.58 847.204138 
L 1371.06 847.204138 
L 1371.06 845.189929 
L 1337.58 845.189929 
z
" style="fill:#5cc863;"/>
   </g>
   <g id="patch_86">
    <path clip-path="url(#p122d9d717d)" d="M 366.66 847.204138 
L 400.14 847.204138 
L 400.14 823.626382 
L 366.66 823.626382 
z
" style="fill:#21908d;"/>
   </g>
   <g id="patch_87">
    <path clip-path="url(#p122d9d717d)" d="M 701.46 847.204138 
L 734.94 847.204138 
L 734.94 821.702951 
L 701.46 821.702951 
z
" style="fill:#21908d;"/>
   </g>
   <g id="patch_88">
    <path clip-path="url(#p122d9d717d)" d="M 1036.26 847.204138 
L 1069.74 847.204138 
L 1069.74 820.156589 
L 1036.26 820.156589 
z
" style="fill:#21908d;"/>
   </g>
   <g id="patch_89">
    <path clip-path="url(#p122d9d717d)" d="M 1371.06 847.204138 
L 1404.54 847.204138 
L 1404.54 826.271234 
L 1371.06 826.271234 
z
" style="fill:#21908d;"/>
   </g>
   <g id="patch_90">
    <path clip-path="url(#p122d9d717d)" d="M 400.14 847.204138 
L 433.62 847.204138 
L 433.62 845.101483 
L 400.14 845.101483 
z
" style="fill:#3b518b;"/>
   </g>
   <g id="patch_91">
    <path clip-path="url(#p122d9d717d)" d="M 734.94 847.204138 
L 768.42 847.204138 
L 768.42 850.990166 
L 734.94 850.990166 
z
" style="fill:#3b518b;"/>
   </g>
   <g id="patch_92">
    <path clip-path="url(#p122d9d717d)" d="M 1069.74 847.204138 
L 1103.22 847.204138 
L 1103.22 851.133812 
L 1069.74 851.133812 
z
" style="fill:#3b518b;"/>
   </g>
   <g id="patch_93">
    <path clip-path="url(#p122d9d717d)" d="M 1404.54 847.204138 
L 1438.02 847.204138 
L 1438.02 846.297196 
L 1404.54 846.297196 
z
" style="fill:#3b518b;"/>
   </g>
   <g id="patch_94">
    <path clip-path="url(#p122d9d717d)" d="M 433.62 847.204138 
L 467.1 847.204138 
L 467.1 876.426613 
L 433.62 876.426613 
z
" style="fill:#440154;"/>
   </g>
   <g id="patch_95">
    <path clip-path="url(#p122d9d717d)" d="M 768.42 847.204138 
L 801.9 847.204138 
L 801.9 865.777207 
L 768.42 865.777207 
z
" style="fill:#440154;"/>
   </g>
   <g id="patch_96">
    <path clip-path="url(#p122d9d717d)" d="M 1103.22 847.204138 
L 1136.7 847.204138 
L 1136.7 872.704968 
L 1103.22 872.704968 
z
" style="fill:#440154;"/>
   </g>
   <g id="patch_97">
    <path clip-path="url(#p122d9d717d)" d="M 1438.02 847.204138 
L 1471.5 847.204138 
L 1471.5 872.565933 
L 1438.02 872.565933 
z
" style="fill:#440154;"/>
   </g>
   <g id="matplotlib.axis_7">
    <g id="xtick_13">
     <g id="line2d_28">
      <g>
       <use style="stroke:#000000;stroke-width:0.8;" x="383.4" xlink:href="#m6ca5281da4" y="931.555862"/>
      </g>
     </g>
    </g>
    <g id="xtick_14">
     <g id="line2d_29">
      <g>
       <use style="stroke:#000000;stroke-width:0.8;" x="718.2" xlink:href="#m6ca5281da4" y="931.555862"/>
      </g>
     </g>
    </g>
    <g id="xtick_15">
     <g id="line2d_30">
      <g>
       <use style="stroke:#000000;stroke-width:0.8;" x="1053" xlink:href="#m6ca5281da4" y="931.555862"/>
      </g>
     </g>
    </g>
    <g id="xtick_16">
     <g id="line2d_31">
      <g>
       <use style="stroke:#000000;stroke-width:0.8;" x="1387.8" xlink:href="#m6ca5281da4" y="931.555862"/>
      </g>
     </g>
    </g>
   </g>
   <g id="matplotlib.axis_8">
    <g id="ytick_16">
     <g id="line2d_32">
      <g>
       <use style="stroke:#000000;stroke-width:0.8;" x="216" xlink:href="#mf54687f830" y="912.811034"/>
      </g>
     </g>
     <g id="text_16">
      <!-- −7.0 -->
      <g transform="translate(121.581875 926.488222)scale(0.36 -0.36)">
       <use xlink:href="#DejaVuSans-8722"/>
       <use x="83.789062" xlink:href="#DejaVuSans-55"/>
       <use x="147.412109" xlink:href="#DejaVuSans-46"/>
       <use x="179.199219" xlink:href="#DejaVuSans-48"/>
      </g>
     </g>
    </g>
    <g id="ytick_17">
     <g id="line2d_33">
      <g>
       <use style="stroke:#000000;stroke-width:0.8;" x="216" xlink:href="#mf54687f830" y="880.007586"/>
      </g>
     </g>
     <g id="text_17">
      <!-- −3.5 -->
      <g transform="translate(121.581875 893.684774)scale(0.36 -0.36)">
       <use xlink:href="#DejaVuSans-8722"/>
       <use x="83.789062" xlink:href="#DejaVuSans-51"/>
       <use x="147.412109" xlink:href="#DejaVuSans-46"/>
       <use x="179.199219" xlink:href="#DejaVuSans-53"/>
      </g>
     </g>
    </g>
    <g id="ytick_18">
     <g id="line2d_34">
      <g>
       <use style="stroke:#000000;stroke-width:0.8;" x="216" xlink:href="#mf54687f830" y="847.204138"/>
      </g>
     </g>
     <g id="text_18">
      <!-- 0.0 -->
      <g transform="translate(151.74875 860.881325)scale(0.36 -0.36)">
       <use xlink:href="#DejaVuSans-48"/>
       <use x="63.623047" xlink:href="#DejaVuSans-46"/>
       <use x="95.410156" xlink:href="#DejaVuSans-48"/>
      </g>
     </g>
    </g>
    <g id="ytick_19">
     <g id="line2d_35">
      <g>
       <use style="stroke:#000000;stroke-width:0.8;" x="216" xlink:href="#mf54687f830" y="814.40069"/>
      </g>
     </g>
     <g id="text_19">
      <!-- 3.5 -->
      <g transform="translate(151.74875 828.077877)scale(0.36 -0.36)">
       <use xlink:href="#DejaVuSans-51"/>
       <use x="63.623047" xlink:href="#DejaVuSans-46"/>
       <use x="95.410156" xlink:href="#DejaVuSans-53"/>
      </g>
     </g>
    </g>
    <g id="ytick_20">
     <g id="line2d_36">
      <g>
       <use style="stroke:#000000;stroke-width:0.8;" x="216" xlink:href="#mf54687f830" y="781.597241"/>
      </g>
     </g>
     <g id="text_20">
      <!-- 7.0 -->
      <g transform="translate(151.74875 795.274429)scale(0.36 -0.36)">
       <use xlink:href="#DejaVuSans-55"/>
       <use x="63.623047" xlink:href="#DejaVuSans-46"/>
       <use x="95.410156" xlink:href="#DejaVuSans-48"/>
      </g>
     </g>
    </g>
   </g>
   <g id="patch_98">
    <path d="M 216 931.555862 
L 216 762.852414 
" style="fill:none;stroke:#000000;stroke-linecap:square;stroke-linejoin:miter;stroke-width:0.8;"/>
   </g>
   <g id="patch_99">
    <path d="M 1555.2 931.555862 
L 1555.2 762.852414 
" style="fill:none;stroke:#000000;stroke-linecap:square;stroke-linejoin:miter;stroke-width:0.8;"/>
   </g>
   <g id="patch_100">
    <path d="M 216 931.555862 
L 1555.2 931.555862 
" style="fill:none;stroke:#000000;stroke-linecap:square;stroke-linejoin:miter;stroke-width:0.8;"/>
   </g>
   <g id="patch_101">
    <path d="M 216 762.852414 
L 1555.2 762.852414 
" style="fill:none;stroke:#000000;stroke-linecap:square;stroke-linejoin:miter;stroke-width:0.8;"/>
   </g>
  </g>
  <g id="axes_5">
   <g id="patch_102">
    <path d="M 216 1134 
L 1555.2 1134 
L 1555.2 965.296552 
L 216 965.296552 
z
" style="fill:#ffffff;"/>
   </g>
   <g id="patch_103">
    <path clip-path="url(#pe37944b55c)" d="M 299.7 1049.648276 
L 333.18 1049.648276 
L 333.18 995.926971 
L 299.7 995.926971 
z
" style="fill:#fde725;"/>
   </g>
   <g id="patch_104">
    <path clip-path="url(#pe37944b55c)" d="M 634.5 1049.648276 
L 667.98 1049.648276 
L 667.98 1002.552193 
L 634.5 1002.552193 
z
" style="fill:#fde725;"/>
   </g>
   <g id="patch_105">
    <path clip-path="url(#pe37944b55c)" d="M 969.3 1049.648276 
L 1002.78 1049.648276 
L 1002.78 1008.37038 
L 969.3 1008.37038 
z
" style="fill:#fde725;"/>
   </g>
   <g id="patch_106">
    <path clip-path="url(#pe37944b55c)" d="M 1304.1 1049.648276 
L 1337.58 1049.648276 
L 1337.58 988.647198 
L 1304.1 988.647198 
z
" style="fill:#fde725;"/>
   </g>
   <g id="patch_107">
    <path clip-path="url(#pe37944b55c)" d="M 333.18 1049.648276 
L 366.66 1049.648276 
L 366.66 998.868509 
L 333.18 998.868509 
z
" style="fill:#5cc863;"/>
   </g>
   <g id="patch_108">
    <path clip-path="url(#pe37944b55c)" d="M 667.98 1049.648276 
L 701.46 1049.648276 
L 701.46 1004.851771 
L 667.98 1004.851771 
z
" style="fill:#5cc863;"/>
   </g>
   <g id="patch_109">
    <path clip-path="url(#pe37944b55c)" d="M 1002.78 1049.648276 
L 1036.26 1049.648276 
L 1036.26 1009.758167 
L 1002.78 1009.758167 
z
" style="fill:#5cc863;"/>
   </g>
   <g id="patch_110">
    <path clip-path="url(#pe37944b55c)" d="M 1337.58 1049.648276 
L 1371.06 1049.648276 
L 1371.06 990.558786 
L 1337.58 990.558786 
z
" style="fill:#5cc863;"/>
   </g>
   <g id="patch_111">
    <path clip-path="url(#pe37944b55c)" d="M 366.66 1049.648276 
L 400.14 1049.648276 
L 400.14 990.104957 
L 366.66 990.104957 
z
" style="fill:#21908d;"/>
   </g>
   <g id="patch_112">
    <path clip-path="url(#pe37944b55c)" d="M 701.46 1049.648276 
L 734.94 1049.648276 
L 734.94 993.140977 
L 701.46 993.140977 
z
" style="fill:#21908d;"/>
   </g>
   <g id="patch_113">
    <path clip-path="url(#pe37944b55c)" d="M 1036.26 1049.648276 
L 1069.74 1049.648276 
L 1069.74 1001.890881 
L 1036.26 1001.890881 
z
" style="fill:#21908d;"/>
   </g>
   <g id="patch_114">
    <path clip-path="url(#pe37944b55c)" d="M 1371.06 1049.648276 
L 1404.54 1049.648276 
L 1404.54 989.67953 
L 1371.06 989.67953 
z
" style="fill:#21908d;"/>
   </g>
   <g id="patch_115">
    <path clip-path="url(#pe37944b55c)" d="M 400.14 1049.648276 
L 433.62 1049.648276 
L 433.62 1079.580457 
L 400.14 1079.580457 
z
" style="fill:#3b518b;"/>
   </g>
   <g id="patch_116">
    <path clip-path="url(#pe37944b55c)" d="M 734.94 1049.648276 
L 768.42 1049.648276 
L 768.42 1081.701975 
L 734.94 1081.701975 
z
" style="fill:#3b518b;"/>
   </g>
   <g id="patch_117">
    <path clip-path="url(#pe37944b55c)" d="M 1069.74 1049.648276 
L 1103.22 1049.648276 
L 1103.22 1083.712409 
L 1069.74 1083.712409 
z
" style="fill:#3b518b;"/>
   </g>
   <g id="patch_118">
    <path clip-path="url(#pe37944b55c)" d="M 1404.54 1049.648276 
L 1438.02 1049.648276 
L 1438.02 1087.627682 
L 1404.54 1087.627682 
z
" style="fill:#3b518b;"/>
   </g>
   <g id="patch_119">
    <path clip-path="url(#pe37944b55c)" d="M 433.62 1049.648276 
L 467.1 1049.648276 
L 467.1 1021.988934 
L 433.62 1021.988934 
z
" style="fill:#440154;"/>
   </g>
   <g id="patch_120">
    <path clip-path="url(#pe37944b55c)" d="M 768.42 1049.648276 
L 801.9 1049.648276 
L 801.9 1013.591106 
L 768.42 1013.591106 
z
" style="fill:#440154;"/>
   </g>
   <g id="patch_121">
    <path clip-path="url(#pe37944b55c)" d="M 1103.22 1049.648276 
L 1136.7 1049.648276 
L 1136.7 1026.74082 
L 1103.22 1026.74082 
z
" style="fill:#440154;"/>
   </g>
   <g id="patch_122">
    <path clip-path="url(#pe37944b55c)" d="M 1438.02 1049.648276 
L 1471.5 1049.648276 
L 1471.5 1002.972331 
L 1438.02 1002.972331 
z
" style="fill:#440154;"/>
   </g>
   <g id="matplotlib.axis_9">
    <g id="xtick_17">
     <g id="line2d_37">
      <g>
       <use style="stroke:#000000;stroke-width:0.8;" x="383.4" xlink:href="#m6ca5281da4" y="1134"/>
      </g>
     </g>
     <g id="text_21">
      <!-- 500 -->
      <g transform="translate(393.33375 1209.715)rotate(-90)scale(0.36 -0.36)">
       <use xlink:href="#DejaVuSans-53"/>
       <use x="63.623047" xlink:href="#DejaVuSans-48"/>
       <use x="127.246094" xlink:href="#DejaVuSans-48"/>
      </g>
     </g>
    </g>
    <g id="xtick_18">
     <g id="line2d_38">
      <g>
       <use style="stroke:#000000;stroke-width:0.8;" x="718.2" xlink:href="#m6ca5281da4" y="1134"/>
      </g>
     </g>
     <g id="text_22">
      <!-- 750 -->
      <g transform="translate(728.13375 1209.715)rotate(-90)scale(0.36 -0.36)">
       <use xlink:href="#DejaVuSans-55"/>
       <use x="63.623047" xlink:href="#DejaVuSans-53"/>
       <use x="127.246094" xlink:href="#DejaVuSans-48"/>
      </g>
     </g>
    </g>
    <g id="xtick_19">
     <g id="line2d_39">
      <g>
       <use style="stroke:#000000;stroke-width:0.8;" x="1053" xlink:href="#m6ca5281da4" y="1134"/>
      </g>
     </g>
     <g id="text_23">
      <!-- 1000 -->
      <g transform="translate(1062.93375 1232.62)rotate(-90)scale(0.36 -0.36)">
       <defs>
        <path d="M 12.40625 8.296875 
L 28.515625 8.296875 
L 28.515625 63.921875 
L 10.984375 60.40625 
L 10.984375 69.390625 
L 28.421875 72.90625 
L 38.28125 72.90625 
L 38.28125 8.296875 
L 54.390625 8.296875 
L 54.390625 0 
L 12.40625 0 
z
" id="DejaVuSans-49"/>
       </defs>
       <use xlink:href="#DejaVuSans-49"/>
       <use x="63.623047" xlink:href="#DejaVuSans-48"/>
       <use x="127.246094" xlink:href="#DejaVuSans-48"/>
       <use x="190.869141" xlink:href="#DejaVuSans-48"/>
      </g>
     </g>
    </g>
    <g id="xtick_20">
     <g id="line2d_40">
      <g>
       <use style="stroke:#000000;stroke-width:0.8;" x="1387.8" xlink:href="#m6ca5281da4" y="1134"/>
      </g>
     </g>
     <g id="text_24">
      <!-- 1500 -->
      <g transform="translate(1397.73375 1232.62)rotate(-90)scale(0.36 -0.36)">
       <use xlink:href="#DejaVuSans-49"/>
       <use x="63.623047" xlink:href="#DejaVuSans-53"/>
       <use x="127.246094" xlink:href="#DejaVuSans-48"/>
       <use x="190.869141" xlink:href="#DejaVuSans-48"/>
      </g>
     </g>
    </g>
    <g id="text_25">
     <!-- size -->
     <g transform="translate(850.699687 1263.974375)scale(0.36 -0.36)">
      <defs>
       <path d="M 44.28125 53.078125 
L 44.28125 44.578125 
Q 40.484375 46.53125 36.375 47.5 
Q 32.28125 48.484375 27.875 48.484375 
Q 21.1875 48.484375 17.84375 46.4375 
Q 14.5 44.390625 14.5 40.28125 
Q 14.5 37.15625 16.890625 35.375 
Q 19.28125 33.59375 26.515625 31.984375 
L 29.59375 31.296875 
Q 39.15625 29.25 43.1875 25.515625 
Q 47.21875 21.78125 47.21875 15.09375 
Q 47.21875 7.46875 41.1875 3.015625 
Q 35.15625 -1.421875 24.609375 -1.421875 
Q 20.21875 -1.421875 15.453125 -0.5625 
Q 10.6875 0.296875 5.421875 2 
L 5.421875 11.28125 
Q 10.40625 8.6875 15.234375 7.390625 
Q 20.0625 6.109375 24.8125 6.109375 
Q 31.15625 6.109375 34.5625 8.28125 
Q 37.984375 10.453125 37.984375 14.40625 
Q 37.984375 18.0625 35.515625 20.015625 
Q 33.0625 21.96875 24.703125 23.78125 
L 21.578125 24.515625 
Q 13.234375 26.265625 9.515625 29.90625 
Q 5.8125 33.546875 5.8125 39.890625 
Q 5.8125 47.609375 11.28125 51.796875 
Q 16.75 56 26.8125 56 
Q 31.78125 56 36.171875 55.265625 
Q 40.578125 54.546875 44.28125 53.078125 
z
" id="DejaVuSans-115"/>
       <path d="M 9.421875 54.6875 
L 18.40625 54.6875 
L 18.40625 0 
L 9.421875 0 
z
M 9.421875 75.984375 
L 18.40625 75.984375 
L 18.40625 64.59375 
L 9.421875 64.59375 
z
" id="DejaVuSans-105"/>
       <path d="M 5.515625 54.6875 
L 48.1875 54.6875 
L 48.1875 46.484375 
L 14.40625 7.171875 
L 48.1875 7.171875 
L 48.1875 0 
L 4.296875 0 
L 4.296875 8.203125 
L 38.09375 47.515625 
L 5.515625 47.515625 
z
" id="DejaVuSans-122"/>
       <path d="M 56.203125 29.59375 
L 56.203125 25.203125 
L 14.890625 25.203125 
Q 15.484375 15.921875 20.484375 11.0625 
Q 25.484375 6.203125 34.421875 6.203125 
Q 39.59375 6.203125 44.453125 7.46875 
Q 49.3125 8.734375 54.109375 11.28125 
L 54.109375 2.78125 
Q 49.265625 0.734375 44.1875 -0.34375 
Q 39.109375 -1.421875 33.890625 -1.421875 
Q 20.796875 -1.421875 13.15625 6.1875 
Q 5.515625 13.8125 5.515625 26.8125 
Q 5.515625 40.234375 12.765625 48.109375 
Q 20.015625 56 32.328125 56 
Q 43.359375 56 49.78125 48.890625 
Q 56.203125 41.796875 56.203125 29.59375 
z
M 47.21875 32.234375 
Q 47.125 39.59375 43.09375 43.984375 
Q 39.0625 48.390625 32.421875 48.390625 
Q 24.90625 48.390625 20.390625 44.140625 
Q 15.875 39.890625 15.1875 32.171875 
z
" id="DejaVuSans-101"/>
      </defs>
      <use xlink:href="#DejaVuSans-115"/>
      <use x="52.099609" xlink:href="#DejaVuSans-105"/>
      <use x="79.882812" xlink:href="#DejaVuSans-122"/>
      <use x="132.373047" xlink:href="#DejaVuSans-101"/>
     </g>
    </g>
   </g>
   <g id="matplotlib.axis_10">
    <g id="ytick_21">
     <g id="line2d_41">
      <g>
       <use style="stroke:#000000;stroke-width:0.8;" x="216" xlink:href="#mf54687f830" y="1115.255172"/>
      </g>
     </g>
     <g id="text_26">
      <!-- −7.0 -->
      <g transform="translate(121.581875 1128.93236)scale(0.36 -0.36)">
       <use xlink:href="#DejaVuSans-8722"/>
       <use x="83.789062" xlink:href="#DejaVuSans-55"/>
       <use x="147.412109" xlink:href="#DejaVuSans-46"/>
       <use x="179.199219" xlink:href="#DejaVuSans-48"/>
      </g>
     </g>
    </g>
    <g id="ytick_22">
     <g id="line2d_42">
      <g>
       <use style="stroke:#000000;stroke-width:0.8;" x="216" xlink:href="#mf54687f830" y="1082.451724"/>
      </g>
     </g>
     <g id="text_27">
      <!-- −3.5 -->
      <g transform="translate(121.581875 1096.128912)scale(0.36 -0.36)">
       <use xlink:href="#DejaVuSans-8722"/>
       <use x="83.789062" xlink:href="#DejaVuSans-51"/>
       <use x="147.412109" xlink:href="#DejaVuSans-46"/>
       <use x="179.199219" xlink:href="#DejaVuSans-53"/>
      </g>
     </g>
    </g>
    <g id="ytick_23">
     <g id="line2d_43">
      <g>
       <use style="stroke:#000000;stroke-width:0.8;" x="216" xlink:href="#mf54687f830" y="1049.648276"/>
      </g>
     </g>
     <g id="text_28">
      <!-- 0.0 -->
      <g transform="translate(151.74875 1063.325463)scale(0.36 -0.36)">
       <use xlink:href="#DejaVuSans-48"/>
       <use x="63.623047" xlink:href="#DejaVuSans-46"/>
       <use x="95.410156" xlink:href="#DejaVuSans-48"/>
      </g>
     </g>
    </g>
    <g id="ytick_24">
     <g id="line2d_44">
      <g>
       <use style="stroke:#000000;stroke-width:0.8;" x="216" xlink:href="#mf54687f830" y="1016.844828"/>
      </g>
     </g>
     <g id="text_29">
      <!-- 3.5 -->
      <g transform="translate(151.74875 1030.522015)scale(0.36 -0.36)">
       <use xlink:href="#DejaVuSans-51"/>
       <use x="63.623047" xlink:href="#DejaVuSans-46"/>
       <use x="95.410156" xlink:href="#DejaVuSans-53"/>
      </g>
     </g>
    </g>
    <g id="ytick_25">
     <g id="line2d_45">
      <g>
       <use style="stroke:#000000;stroke-width:0.8;" x="216" xlink:href="#mf54687f830" y="984.041379"/>
      </g>
     </g>
     <g id="text_30">
      <!-- 7.0 -->
      <g transform="translate(151.74875 997.718567)scale(0.36 -0.36)">
       <use xlink:href="#DejaVuSans-55"/>
       <use x="63.623047" xlink:href="#DejaVuSans-46"/>
       <use x="95.410156" xlink:href="#DejaVuSans-48"/>
      </g>
     </g>
    </g>
   </g>
   <g id="patch_123">
    <path d="M 216 1134 
L 216 965.296552 
" style="fill:none;stroke:#000000;stroke-linecap:square;stroke-linejoin:miter;stroke-width:0.8;"/>
   </g>
   <g id="patch_124">
    <path d="M 1555.2 1134 
L 1555.2 965.296552 
" style="fill:none;stroke:#000000;stroke-linecap:square;stroke-linejoin:miter;stroke-width:0.8;"/>
   </g>
   <g id="patch_125">
    <path d="M 216 1134 
L 1555.2 1134 
" style="fill:none;stroke:#000000;stroke-linecap:square;stroke-linejoin:miter;stroke-width:0.8;"/>
   </g>
   <g id="patch_126">
    <path d="M 216 965.296552 
L 1555.2 965.296552 
" style="fill:none;stroke:#000000;stroke-linecap:square;stroke-linejoin:miter;stroke-width:0.8;"/>
   </g>
  </g>
 </g>
 <defs>
  <clipPath id="p7338ebb6b5">
   <rect height="168.703448" width="1339.2" x="216" y="155.52"/>
  </clipPath>
  <clipPath id="p9e3b1724c2">
   <rect height="168.703448" width="1339.2" x="216" y="357.964138"/>
  </clipPath>
  <clipPath id="p76ebfce982">
   <rect height="168.703448" width="1339.2" x="216" y="560.408276"/>
  </clipPath>
  <clipPath id="p122d9d717d">
   <rect height="168.703448" width="1339.2" x="216" y="762.852414"/>
  </clipPath>
  <clipPath id="pe37944b55c">
   <rect height="168.703448" width="1339.2" x="216" y="965.296552"/>
  </clipPath>
 </defs>
</svg>
