<?xml version="1.0" encoding="UTF-8" standalone="no"?>
<svg
   xmlns:dc="http://purl.org/dc/elements/1.1/"
   xmlns:cc="http://creativecommons.org/ns#"
   xmlns:rdf="http://www.w3.org/1999/02/22-rdf-syntax-ns#"
   xmlns:svg="http://www.w3.org/2000/svg"
   xmlns="http://www.w3.org/2000/svg"
   xmlns:sodipodi="http://sodipodi.sourceforge.net/DTD/sodipodi-0.dtd"
   xmlns:inkscape="http://www.inkscape.org/namespaces/inkscape"
   version="1.1"
   viewBox="0 0 2362.5762 673.62708"
   stroke-miterlimit="10"
   id="svg161"
   sodipodi:docname="figure1.svg"
   width="2362.5762"
   height="673.62708"
   style="fill:none;stroke:none;stroke-linecap:square;stroke-miterlimit:10"
   inkscape:version="0.92.5 (2060ec1f9f, 2020-04-08)">
  <metadata
     id="metadata167">
    <rdf:RDF>
      <cc:Work
         rdf:about="">
        <dc:format>image/svg+xml</dc:format>
        <dc:type
           rdf:resource="http://purl.org/dc/dcmitype/StillImage" />
      </cc:Work>
    </rdf:RDF>
  </metadata>
  <defs
     id="defs165" />
  <sodipodi:namedview
     pagecolor="#ffffff"
     bordercolor="#666666"
     borderopacity="1"
     objecttolerance="10"
     gridtolerance="10"
     guidetolerance="10"
     inkscape:pageopacity="0"
     inkscape:pageshadow="2"
     inkscape:window-width="1848"
     inkscape:window-height="1016"
     id="namedview163"
     showgrid="false"
     inkscape:zoom="0.068287037"
     inkscape:cx="-1461.9661"
     inkscape:cy="322.1695"
     inkscape:window-x="72"
     inkscape:window-y="27"
     inkscape:window-maximized="1"
     inkscape:current-layer="g159" />
  <clipPath
     id="gf195bf06f7_0_0.0">
    <path
       d="M 0,0 H 4032 V 3456 H 0 Z"
       id="path2"
       inkscape:connector-curvature="0"
       style="clip-rule:nonzero" />
  </clipPath>
  <g
     clip-path="url(#gf195bf06f7_0_0.0)"
     id="g159"
     transform="translate(-834.71186,-1376.5424)">
    <path
       d="M 834.71186,1376.5424 H 3197.2881 v 673.6271 H 834.71186 Z"
       id="path5"
       inkscape:connector-curvature="0"
       style="fill:#ffffff;fill-rule:evenodd;stroke-width:0.33795244"
       inkscape:export-xdpi="299.99796"
       inkscape:export-ydpi="299.99796" />
    <path
       d="m 1048.4094,1721.1172 v 0 c 0,13.9592 12.5573,25.2755 28.0472,25.2755 v 0 c 15.4902,0 28.0473,-11.3163 28.0473,-25.2755 v 0 c 0,-13.9594 -12.5571,-25.2756 -28.0473,-25.2756 v 0 c -15.4899,0 -28.0472,11.3162 -28.0472,25.2756 z"
       id="path7"
       inkscape:connector-curvature="0"
       style="fill:#000000;fill-opacity:0;fill-rule:evenodd" />
    <path
       d="m 1048.4094,1721.1172 v 0 c 0,13.9592 12.5573,25.2755 28.0472,25.2755 v 0 c 15.4902,0 28.0473,-11.3163 28.0473,-25.2755 v 0 c 0,-13.9594 -12.5571,-25.2756 -28.0473,-25.2756 v 0 c -15.4899,0 -28.0472,11.3162 -28.0472,25.2756 z"
       id="path9"
       inkscape:connector-curvature="0"
       style="fill-rule:evenodd;stroke:#434343;stroke-width:8;stroke-linecap:butt;stroke-linejoin:round" />
    <path
       d="m 1096.2891,1738.9896 95.1811,114.8662"
       id="path11"
       inkscape:connector-curvature="0"
       style="fill:#000000;fill-opacity:0;fill-rule:evenodd" />
    <path
       d="m 1096.2892,1738.9896 64.5549,77.9063"
       id="path13"
       inkscape:connector-curvature="0"
       style="fill-rule:evenodd;stroke:#434343;stroke-width:8;stroke-linecap:butt;stroke-linejoin:round" />
    <path
       d="m 1150.6694,1825.3268 33.3387,19.5237 -12.9893,-36.3858 z"
       id="path15"
       inkscape:connector-curvature="0"
       style="fill:#434343;fill-rule:evenodd;stroke:#434343;stroke-width:8;stroke-linecap:butt" />
    <path
       d="m 935.7192,1879.1172 v 0 c 0,13.9592 12.55719,25.2755 28.04724,25.2755 v 0 c 15.49005,0 28.04724,-11.3163 28.04724,-25.2755 v 0 c 0,-13.9594 -12.55719,-25.2756 -28.04724,-25.2756 v 0 c -15.49005,0 -28.04724,11.3162 -28.04724,25.2756 z"
       id="path17"
       inkscape:connector-curvature="0"
       style="fill:#000000;fill-opacity:0;fill-rule:evenodd" />
    <path
       d="m 935.7192,1879.1172 v 0 c 0,13.9592 12.55719,25.2755 28.04724,25.2755 v 0 c 15.49005,0 28.04724,-11.3163 28.04724,-25.2755 v 0 c 0,-13.9594 -12.55719,-25.2756 -28.04724,-25.2756 v 0 c -15.49005,0 -28.04724,11.3162 -28.04724,25.2756 z"
       id="path19"
       inkscape:connector-curvature="0"
       style="fill-rule:evenodd;stroke:#434343;stroke-width:8;stroke-linecap:butt;stroke-linejoin:round" />
    <path
       d="m 1163.4384,1879.1172 v 0 c 0,13.9592 12.5571,25.2755 28.0472,25.2755 v 0 c 15.49,0 28.0473,-11.3163 28.0473,-25.2755 v 0 c 0,-13.9594 -12.5573,-25.2756 -28.0473,-25.2756 v 0 c -15.4901,0 -28.0472,11.3162 -28.0472,25.2756 z"
       id="path21"
       inkscape:connector-curvature="0"
       style="fill:#000000;fill-opacity:0;fill-rule:evenodd" />
    <path
       d="m 1163.4384,1879.1172 v 0 c 0,13.9592 12.5571,25.2755 28.0472,25.2755 v 0 c 15.49,0 28.0473,-11.3163 28.0473,-25.2755 v 0 c 0,-13.9594 -12.5573,-25.2756 -28.0473,-25.2756 v 0 c -15.4901,0 -28.0472,11.3162 -28.0472,25.2756 z"
       id="path23"
       inkscape:connector-curvature="0"
       style="fill-rule:evenodd;stroke:#434343;stroke-width:8;stroke-linecap:butt;stroke-linejoin:round" />
    <path
       d="m 963.7664,1853.8416 92.8504,-114.8662"
       id="path25"
       inkscape:connector-curvature="0"
       style="fill:#000000;fill-opacity:0;fill-rule:evenodd" />
    <path
       d="m 963.7664,1853.8416 62.6757,-77.5367"
       id="path27"
       inkscape:connector-curvature="0"
       style="fill-rule:evenodd;stroke:#434343;stroke-width:8;stroke-linecap:butt;stroke-linejoin:round" />
    <path
       d="m 1036.7185,1784.6116 12.5463,-36.5409 -33.0991,19.9274 z"
       id="path29"
       inkscape:connector-curvature="0"
       style="fill:#434343;fill-rule:evenodd;stroke:#434343;stroke-width:8;stroke-linecap:butt" />
    <path
       d="m 1503.8478,1717.4084 v 0 c 0,13.9594 12.5571,25.2756 28.0472,25.2756 v 0 c 15.4902,0 28.0473,-11.3162 28.0473,-25.2756 v 0 c 0,-13.9594 -12.5571,-25.2755 -28.0473,-25.2755 v 0 c -15.4901,0 -28.0472,11.3161 -28.0472,25.2755 z"
       id="path31"
       inkscape:connector-curvature="0"
       style="fill:#000000;fill-opacity:0;fill-rule:evenodd" />
    <path
       d="m 1503.8478,1717.4084 v 0 c 0,13.9594 12.5571,25.2756 28.0472,25.2756 v 0 c 15.4902,0 28.0473,-11.3162 28.0473,-25.2756 v 0 c 0,-13.9594 -12.5571,-25.2755 -28.0473,-25.2755 v 0 c -15.4901,0 -28.0472,11.3161 -28.0472,25.2755 z"
       id="path33"
       inkscape:connector-curvature="0"
       style="fill-rule:evenodd;stroke:#434343;stroke-width:8;stroke-linecap:butt;stroke-linejoin:round" />
    <path
       d="m 1551.7274,1735.281 95.1812,114.8661"
       id="path35"
       inkscape:connector-curvature="0"
       style="fill:#000000;fill-opacity:0;fill-rule:evenodd" />
    <path
       d="m 1551.7274,1735.281 64.5551,77.9061"
       id="path37"
       inkscape:connector-curvature="0"
       style="fill-rule:evenodd;stroke:#434343;stroke-width:8;stroke-linecap:butt;stroke-linejoin:round" />
    <path
       d="m 1606.1077,1821.6182 33.3387,19.5237 -12.9893,-36.3858 z"
       id="path39"
       inkscape:connector-curvature="0"
       style="fill:#434343;fill-rule:evenodd;stroke:#434343;stroke-width:8;stroke-linecap:butt" />
    <path
       d="m 1391.1575,1875.4084 v 0 c 0,13.9594 12.5571,25.2756 28.0472,25.2756 v 0 c 15.4902,0 28.0473,-11.3162 28.0473,-25.2756 v 0 c 0,-13.9594 -12.5571,-25.2755 -28.0473,-25.2755 v 0 c -15.4901,0 -28.0472,11.3161 -28.0472,25.2755 z"
       id="path41"
       inkscape:connector-curvature="0"
       style="fill:#000000;fill-opacity:0;fill-rule:evenodd" />
    <path
       d="m 1391.1575,1875.4084 v 0 c 0,13.9594 12.5571,25.2756 28.0472,25.2756 v 0 c 15.4902,0 28.0473,-11.3162 28.0473,-25.2756 v 0 c 0,-13.9594 -12.5571,-25.2755 -28.0473,-25.2755 v 0 c -15.4901,0 -28.0472,11.3161 -28.0472,25.2755 z"
       id="path43"
       inkscape:connector-curvature="0"
       style="fill-rule:evenodd;stroke:#434343;stroke-width:8;stroke-linecap:butt;stroke-linejoin:round" />
    <path
       d="m 1618.8766,1875.4084 v 0 c 0,13.9594 12.5573,25.2756 28.0472,25.2756 v 0 c 15.4902,0 28.0473,-11.3162 28.0473,-25.2756 v 0 c 0,-13.9594 -12.5571,-25.2755 -28.0473,-25.2755 v 0 c -15.4899,0 -28.0472,11.3161 -28.0472,25.2755 z"
       id="path45"
       inkscape:connector-curvature="0"
       style="fill:#000000;fill-opacity:0;fill-rule:evenodd" />
    <path
       d="m 1618.8766,1875.4084 v 0 c 0,13.9594 12.5573,25.2756 28.0472,25.2756 v 0 c 15.4902,0 28.0473,-11.3162 28.0473,-25.2756 v 0 c 0,-13.9594 -12.5571,-25.2755 -28.0473,-25.2755 v 0 c -15.4899,0 -28.0472,11.3161 -28.0472,25.2755 z"
       id="path47"
       inkscape:connector-curvature="0"
       style="fill-rule:evenodd;stroke:#434343;stroke-width:8;stroke-linecap:butt;stroke-linejoin:round" />
    <path
       d="m 1419.2047,1850.1329 92.8505,-114.8662"
       id="path49"
       inkscape:connector-curvature="0"
       style="fill:#000000;fill-opacity:0;fill-rule:evenodd" />
    <path
       d="m 1449.3794,1812.8035 62.6758,-77.5367"
       id="path51"
       inkscape:connector-curvature="0"
       style="fill-rule:evenodd;stroke:#434343;stroke-width:8;stroke-linecap:butt;stroke-linejoin:round" />
    <path
       d="m 1439.103,1804.4967 -12.5463,36.5409 33.099,-19.9274 z"
       id="path53"
       inkscape:connector-curvature="0"
       style="fill:#434343;fill-rule:evenodd;stroke:#434343;stroke-width:8;stroke-linecap:butt" />
    <path
       d="m 1985.0105,1717.4216 v 0 c 0,13.9592 12.5571,25.2755 28.0472,25.2755 v 0 c 15.4902,0 28.0473,-11.3163 28.0473,-25.2755 v 0 c 0,-13.9594 -12.5571,-25.2756 -28.0473,-25.2756 v 0 c -15.4901,0 -28.0472,11.3162 -28.0472,25.2756 z"
       id="path55"
       inkscape:connector-curvature="0"
       style="fill:#000000;fill-opacity:0;fill-rule:evenodd" />
    <path
       d="m 1985.0105,1717.4216 v 0 c 0,13.9592 12.5571,25.2755 28.0472,25.2755 v 0 c 15.4902,0 28.0473,-11.3163 28.0473,-25.2755 v 0 c 0,-13.9594 -12.5571,-25.2756 -28.0473,-25.2756 v 0 c -15.4901,0 -28.0472,11.3162 -28.0472,25.2756 z"
       id="path57"
       inkscape:connector-curvature="0"
       style="fill-rule:evenodd;stroke:#434343;stroke-width:8;stroke-linecap:butt;stroke-linejoin:round" />
    <path
       d="m 2032.8901,1735.2942 95.1812,114.8661"
       id="path59"
       inkscape:connector-curvature="0"
       style="fill:#000000;fill-opacity:0;fill-rule:evenodd" />
    <path
       d="m 2063.516,1772.2542 64.5552,77.9061"
       id="path61"
       inkscape:connector-curvature="0"
       style="fill-rule:evenodd;stroke:#434343;stroke-width:8;stroke-linecap:butt;stroke-linejoin:round" />
    <path
       d="m 2073.691,1763.8231 -33.3387,-19.5237 12.9893,36.3858 z"
       id="path63"
       inkscape:connector-curvature="0"
       style="fill:#434343;fill-rule:evenodd;stroke:#434343;stroke-width:8;stroke-linecap:butt" />
    <path
       d="m 1872.3202,1875.4216 v 0 c 0,13.9592 12.5573,25.2755 28.0472,25.2755 v 0 c 15.4902,0 28.0473,-11.3163 28.0473,-25.2755 v 0 c 0,-13.9594 -12.5571,-25.2756 -28.0473,-25.2756 v 0 c -15.4899,0 -28.0472,11.3162 -28.0472,25.2756 z"
       id="path65"
       inkscape:connector-curvature="0"
       style="fill:#000000;fill-opacity:0;fill-rule:evenodd" />
    <path
       d="m 1872.3202,1875.4216 v 0 c 0,13.9592 12.5573,25.2755 28.0472,25.2755 v 0 c 15.4902,0 28.0473,-11.3163 28.0473,-25.2755 v 0 c 0,-13.9594 -12.5571,-25.2756 -28.0473,-25.2756 v 0 c -15.4899,0 -28.0472,11.3162 -28.0472,25.2756 z"
       id="path67"
       inkscape:connector-curvature="0"
       style="fill-rule:evenodd;stroke:#434343;stroke-width:8;stroke-linecap:butt;stroke-linejoin:round" />
    <path
       d="m 2100.0393,1875.4216 v 0 c 0,13.9592 12.5571,25.2755 28.0474,25.2755 v 0 c 15.49,0 28.0471,-11.3163 28.0471,-25.2755 v 0 c 0,-13.9594 -12.5571,-25.2756 -28.0471,-25.2756 v 0 c -15.4903,0 -28.0474,11.3162 -28.0474,25.2756 z"
       id="path69"
       inkscape:connector-curvature="0"
       style="fill:#000000;fill-opacity:0;fill-rule:evenodd" />
    <path
       d="m 2100.0393,1875.4216 v 0 c 0,13.9592 12.5571,25.2755 28.0474,25.2755 v 0 c 15.49,0 28.0471,-11.3163 28.0471,-25.2755 v 0 c 0,-13.9594 -12.5571,-25.2756 -28.0471,-25.2756 v 0 c -15.4903,0 -28.0474,11.3162 -28.0474,25.2756 z"
       id="path71"
       inkscape:connector-curvature="0"
       style="fill-rule:evenodd;stroke:#434343;stroke-width:8;stroke-linecap:butt;stroke-linejoin:round" />
    <path
       d="m 1900.3674,1850.146 92.8505,-114.8661"
       id="path73"
       inkscape:connector-curvature="0"
       style="fill:#000000;fill-opacity:0;fill-rule:evenodd" />
    <path
       d="m 1900.3674,1850.146 62.6757,-77.5367"
       id="path75"
       inkscape:connector-curvature="0"
       style="fill-rule:evenodd;stroke:#434343;stroke-width:8;stroke-linecap:butt;stroke-linejoin:round" />
    <path
       d="m 1973.3195,1780.916 12.5463,-36.5408 -33.099,19.9273 z"
       id="path77"
       inkscape:connector-curvature="0"
       style="fill:#434343;fill-rule:evenodd;stroke:#434343;stroke-width:8;stroke-linecap:butt" />
    <path
       d="m 2466.1733,1713.7261 v 0 c 0,13.9594 12.5571,25.2755 28.0471,25.2755 v 0 c 15.49,0 28.0474,-11.3161 28.0474,-25.2755 v 0 c 0,-13.9594 -12.5574,-25.2756 -28.0474,-25.2756 v 0 c -15.49,0 -28.0471,11.3162 -28.0471,25.2756 z"
       id="path79"
       inkscape:connector-curvature="0"
       style="fill:#000000;fill-opacity:0;fill-rule:evenodd" />
    <path
       d="m 2466.1733,1713.7261 v 0 c 0,13.9594 12.5571,25.2755 28.0471,25.2755 v 0 c 15.49,0 28.0474,-11.3161 28.0474,-25.2755 v 0 c 0,-13.9594 -12.5574,-25.2756 -28.0474,-25.2756 v 0 c -15.49,0 -28.0471,11.3162 -28.0471,25.2756 z"
       id="path81"
       inkscape:connector-curvature="0"
       style="fill-rule:evenodd;stroke:#434343;stroke-width:8;stroke-linecap:butt;stroke-linejoin:round" />
    <path
       d="m 2514.053,1731.5986 95.1809,114.8661"
       id="path83"
       inkscape:connector-curvature="0"
       style="fill:#000000;fill-opacity:0;fill-rule:evenodd" />
    <path
       d="m 2544.6787,1768.5586 64.5552,77.9061"
       id="path85"
       inkscape:connector-curvature="0"
       style="fill-rule:evenodd;stroke:#434343;stroke-width:8;stroke-linecap:butt;stroke-linejoin:round" />
    <path
       d="m 2554.8535,1760.1276 -33.3386,-19.5237 12.9892,36.3858 z"
       id="path87"
       inkscape:connector-curvature="0"
       style="fill:#434343;fill-rule:evenodd;stroke:#434343;stroke-width:8;stroke-linecap:butt" />
    <path
       d="m 2353.483,1871.7261 v 0 c 0,13.9594 12.5571,25.2755 28.0474,25.2755 v 0 c 15.49,0 28.0471,-11.3161 28.0471,-25.2755 v 0 c 0,-13.9594 -12.5571,-25.2756 -28.0471,-25.2756 v 0 c -15.4903,0 -28.0474,11.3162 -28.0474,25.2756 z"
       id="path89"
       inkscape:connector-curvature="0"
       style="fill:#000000;fill-opacity:0;fill-rule:evenodd" />
    <path
       d="m 2353.483,1871.7261 v 0 c 0,13.9594 12.5571,25.2755 28.0474,25.2755 v 0 c 15.49,0 28.0471,-11.3161 28.0471,-25.2755 v 0 c 0,-13.9594 -12.5571,-25.2756 -28.0471,-25.2756 v 0 c -15.4903,0 -28.0474,11.3162 -28.0474,25.2756 z"
       id="path91"
       inkscape:connector-curvature="0"
       style="fill-rule:evenodd;stroke:#434343;stroke-width:8;stroke-linecap:butt;stroke-linejoin:round" />
    <path
       d="m 2581.2021,1871.7261 v 0 c 0,13.9594 12.5571,25.2755 28.0471,25.2755 v 0 c 15.4903,0 28.0474,-11.3161 28.0474,-25.2755 v 0 c 0,-13.9594 -12.5571,-25.2756 -28.0474,-25.2756 v 0 c -15.49,0 -28.0471,11.3162 -28.0471,25.2756 z"
       id="path93"
       inkscape:connector-curvature="0"
       style="fill:#000000;fill-opacity:0;fill-rule:evenodd" />
    <path
       d="m 2581.2021,1871.7261 v 0 c 0,13.9594 12.5571,25.2755 28.0471,25.2755 v 0 c 15.4903,0 28.0474,-11.3161 28.0474,-25.2755 v 0 c 0,-13.9594 -12.5571,-25.2756 -28.0474,-25.2756 v 0 c -15.49,0 -28.0471,11.3162 -28.0471,25.2756 z"
       id="path95"
       inkscape:connector-curvature="0"
       style="fill-rule:evenodd;stroke:#434343;stroke-width:8;stroke-linecap:butt;stroke-linejoin:round" />
    <path
       d="m 2381.5303,1846.4504 92.8503,-114.8661"
       id="path97"
       inkscape:connector-curvature="0"
       style="fill:#000000;fill-opacity:0;fill-rule:evenodd" />
    <path
       d="m 2411.7048,1809.1211 62.6758,-77.5367"
       id="path99"
       inkscape:connector-curvature="0"
       style="fill-rule:evenodd;stroke:#434343;stroke-width:8;stroke-linecap:butt;stroke-linejoin:round" />
    <path
       d="m 2401.4285,1800.8142 -12.5461,36.5409 33.0988,-19.9274 z"
       id="path101"
       inkscape:connector-curvature="0"
       style="fill:#434343;fill-rule:evenodd;stroke:#434343;stroke-width:8;stroke-linecap:butt" />
    <path
       d="m 2409.5774,1871.7261 h 171.6221"
       id="path103"
       inkscape:connector-curvature="0"
       style="fill:#000000;fill-opacity:0;fill-rule:evenodd" />
    <path
       d="m 2409.5774,1871.7261 h 123.6221"
       id="path105"
       inkscape:connector-curvature="0"
       style="fill-rule:evenodd;stroke:#434343;stroke-width:8;stroke-linecap:butt;stroke-linejoin:round" />
    <path
       d="m 2533.1995,1884.94 36.3047,-13.2139 -36.3047,-13.2138 z"
       id="path107"
       inkscape:connector-curvature="0"
       style="fill:#434343;fill-rule:evenodd;stroke:#434343;stroke-width:8;stroke-linecap:butt" />
    <path
       d="m 2927.496,1717.4216 v 0 c 0,13.9592 12.5571,25.2755 28.0471,25.2755 v 0 c 15.4903,0 28.0474,-11.3163 28.0474,-25.2755 v 0 c 0,-13.9594 -12.5571,-25.2756 -28.0474,-25.2756 v 0 c -15.49,0 -28.0471,11.3162 -28.0471,25.2756 z"
       id="path109"
       inkscape:connector-curvature="0"
       style="fill:#000000;fill-opacity:0;fill-rule:evenodd" />
    <path
       d="m 2927.496,1717.4216 v 0 c 0,13.9592 12.5571,25.2755 28.0471,25.2755 v 0 c 15.4903,0 28.0474,-11.3163 28.0474,-25.2755 v 0 c 0,-13.9594 -12.5571,-25.2756 -28.0474,-25.2756 v 0 c -15.49,0 -28.0471,11.3162 -28.0471,25.2756 z"
       id="path111"
       inkscape:connector-curvature="0"
       style="fill-rule:evenodd;stroke:#434343;stroke-width:8;stroke-linecap:butt;stroke-linejoin:round" />
    <path
       d="m 2975.3757,1735.2942 95.1812,114.8661"
       id="path113"
       inkscape:connector-curvature="0"
       style="fill:#000000;fill-opacity:0;fill-rule:evenodd" />
    <path
       d="m 3006.0017,1772.2542 64.5549,77.9061"
       id="path115"
       inkscape:connector-curvature="0"
       style="fill-rule:evenodd;stroke:#434343;stroke-width:8;stroke-linecap:butt;stroke-linejoin:round" />
    <path
       d="m 3016.1765,1763.8231 -33.3389,-19.5237 12.9895,36.3858 z"
       id="path117"
       inkscape:connector-curvature="0"
       style="fill:#434343;fill-rule:evenodd;stroke:#434343;stroke-width:8;stroke-linecap:butt" />
    <path
       d="m 2814.8057,1875.4216 v 0 c 0,13.9592 12.5574,25.2755 28.0474,25.2755 v 0 c 15.49,0 28.0471,-11.3163 28.0471,-25.2755 v 0 c 0,-13.9594 -12.5571,-25.2756 -28.0471,-25.2756 v 0 c -15.49,0 -28.0474,11.3162 -28.0474,25.2756 z"
       id="path119"
       inkscape:connector-curvature="0"
       style="fill:#000000;fill-opacity:0;fill-rule:evenodd" />
    <path
       d="m 2814.8057,1875.4216 v 0 c 0,13.9592 12.5574,25.2755 28.0474,25.2755 v 0 c 15.49,0 28.0471,-11.3163 28.0471,-25.2755 v 0 c 0,-13.9594 -12.5571,-25.2756 -28.0471,-25.2756 v 0 c -15.49,0 -28.0474,11.3162 -28.0474,25.2756 z"
       id="path121"
       inkscape:connector-curvature="0"
       style="fill-rule:evenodd;stroke:#434343;stroke-width:8;stroke-linecap:butt;stroke-linejoin:round" />
    <path
       d="m 3042.525,1875.4216 v 0 c 0,13.9592 12.5571,25.2755 28.0474,25.2755 v 0 c 15.49,0 28.0471,-11.3163 28.0471,-25.2755 v 0 c 0,-13.9594 -12.5571,-25.2756 -28.0471,-25.2756 v 0 c -15.4903,0 -28.0474,11.3162 -28.0474,25.2756 z"
       id="path123"
       inkscape:connector-curvature="0"
       style="fill:#000000;fill-opacity:0;fill-rule:evenodd" />
    <path
       d="m 3042.525,1875.4216 v 0 c 0,13.9592 12.5571,25.2755 28.0474,25.2755 v 0 c 15.49,0 28.0471,-11.3163 28.0471,-25.2755 v 0 c 0,-13.9594 -12.5571,-25.2756 -28.0471,-25.2756 v 0 c -15.4903,0 -28.0474,11.3162 -28.0474,25.2756 z"
       id="path125"
       inkscape:connector-curvature="0"
       style="fill-rule:evenodd;stroke:#434343;stroke-width:8;stroke-linecap:butt;stroke-linejoin:round" />
    <path
       d="m 2842.853,1850.146 92.8503,-114.8661"
       id="path127"
       inkscape:connector-curvature="0"
       style="fill:#000000;fill-opacity:0;fill-rule:evenodd" />
    <path
       d="m 2842.853,1850.146 62.6755,-77.5367"
       id="path129"
       inkscape:connector-curvature="0"
       style="fill-rule:evenodd;stroke:#434343;stroke-width:8;stroke-linecap:butt;stroke-linejoin:round" />
    <path
       d="m 2915.8052,1780.916 12.5461,-36.5408 -33.0988,19.9273 z"
       id="path131"
       inkscape:connector-curvature="0"
       style="fill:#434343;fill-rule:evenodd;stroke:#434343;stroke-width:8;stroke-linecap:butt" />
    <path
       d="m 2870.9001,1875.4216 h 171.6221"
       id="path133"
       inkscape:connector-curvature="0"
       style="fill:#000000;fill-opacity:0;fill-rule:evenodd" />
    <path
       d="m 2870.9001,1875.4216 h 123.6221"
       id="path135"
       inkscape:connector-curvature="0"
       style="fill-rule:evenodd;stroke:#434343;stroke-width:8;stroke-linecap:butt;stroke-linejoin:round" />
    <path
       d="m 2994.5222,1888.6355 36.3049,-13.2139 -36.3049,-13.2138 z"
       id="path137"
       inkscape:connector-curvature="0"
       style="fill:#434343;fill-rule:evenodd;stroke:#434343;stroke-width:8;stroke-linecap:butt" />
    <path
       d="m 930.6772,1551.6063 h 291.559 v 77.5748 h -291.559 z"
       id="path139"
       inkscape:connector-curvature="0"
       style="fill:#000000;fill-opacity:0;fill-rule:evenodd" />
    <path
       d="m 1023.1793,1574.1707 v 11.0156 h -0.9219 q -1.0312,-4.3125 -3.8437,-6.6094 -2.8125,-2.2968 -6.375,-2.2968 -2.9688,0 -5.4532,1.7187 -2.4843,1.7031 -3.6406,4.4688 -1.4687,3.5468 -1.4687,7.875 0,4.2656 1.0781,7.7812 1.0781,3.5 3.375,5.2969 2.2969,1.7812 5.9531,1.7812 3,0 5.4844,-1.3125 2.5,-1.3125 5.2656,-4.5156 v 2.7344 q -2.6719,2.7969 -5.5625,4.0625 -2.8906,1.25 -6.7656,1.25 -5.0781,0 -9.0313,-2.0469 -3.95308,-2.0469 -6.0937,-5.8594 -2.14063,-3.8281 -2.14063,-8.1406 0,-4.5469 2.375,-8.625 2.375,-4.0781 6.42183,-6.3281 4.0469,-2.25 8.5938,-2.25 3.3437,0 7.0781,1.4531 2.1563,0.8438 2.7344,0.8438 0.75,0 1.2969,-0.5469 0.5625,-0.5469 0.7187,-1.75 z m 16.3359,29.2812 q -4.0156,3.5469 -7.2031,3.5469 -1.875,0 -3.125,-1.2344 -1.2344,-1.2343 -1.2344,-3.0937 0,-2.5 2.1563,-4.5 2.1562,-2.0156 9.4062,-5.3438 v -2.2031 q 0,-2.4844 -0.2812,-3.125 -0.2656,-0.6406 -1.0156,-1.125 -0.75,-0.4844 -1.6875,-0.4844 -1.5157,0 -2.5,0.6875 -0.6094,0.4219 -0.6094,0.9844 0,0.4844 0.6562,1.2188 0.8907,1 0.8907,1.9375 0,1.1562 -0.8594,1.9687 -0.8594,0.7969 -2.2344,0.7969 -1.4844,0 -2.4844,-0.8906 -0.9843,-0.8907 -0.9843,-2.0782 0,-1.6875 1.3281,-3.2187 1.3437,-1.5469 3.7344,-2.3594 2.3906,-0.8281 4.9687,-0.8281 3.1094,0 4.9219,1.3281 1.8281,1.3281 2.3594,2.875 0.3281,0.9844 0.3281,4.5156 v 8.5157 q 0,1.5 0.1094,1.8906 0.125,0.375 0.3593,0.5625 0.2344,0.1875 0.5469,0.1875 0.6094,0 1.2344,-0.8594 l 0.7031,0.5625 q -1.1719,1.7344 -2.4219,2.5313 -1.25,0.7812 -2.8437,0.7812 -1.875,0 -2.9375,-0.875 -1.0469,-0.8906 -1.2813,-2.6719 z m 0,-1.7187 v -7.3281 q -2.8437,1.6562 -4.2187,3.5625 -0.9219,1.2656 -0.9219,2.5468 0,1.0782 0.7813,1.9063 0.5781,0.625 1.6406,0.625 1.1719,0 2.7187,-1.3125 z m 25.75,-17.5781 0.3594,7.4843 h -0.7969 q -1.4375,-3.3281 -2.9687,-4.5468 -1.5313,-1.2188 -3.0625,-1.2188 -0.9531,0 -1.6406,0.6406 -0.6719,0.6407 -0.6719,1.4844 0,0.6406 0.4687,1.2188 0.75,0.9687 4.1875,3.2968 3.4532,2.3282 4.5313,3.9688 1.0937,1.625 1.0937,3.6406 0,1.8281 -0.9218,3.5938 -0.9063,1.75 -2.5782,2.6875 -1.6562,0.9375 -3.6718,0.9375 -1.5625,0 -4.1875,-0.9844 -0.7032,-0.2656 -0.9688,-0.2656 -0.7656,0 -1.2812,1.1875 h -0.7813 l -0.375,-7.8907 h 0.7969 q 1.0625,3.0938 2.8906,4.6407 1.8438,1.5468 3.4844,1.5468 1.125,0 1.8437,-0.6875 0.7188,-0.6875 0.7188,-1.6718 0,-1.125 -0.7031,-1.9375 -0.7032,-0.8282 -3.1407,-2.5 -3.5937,-2.4844 -4.6406,-3.7969 -1.5469,-1.9219 -1.5469,-4.2344 0,-2.5312 1.7344,-4.5781 1.75,-2.0625 5.0625,-2.0625 1.7813,0 3.4375,0.875 0.6406,0.3437 1.0313,0.3437 0.4218,0 0.6718,-0.1718 0.2657,-0.1719 0.8282,-1 z m 22.711,16.875 0.7344,0.5625 q -1.5469,2.9062 -3.8594,4.3281 -2.3125,1.4219 -4.9063,1.4219 -4.3906,0 -7.0156,-3.2969 -2.625,-3.3125 -2.625,-7.9531 0,-4.4844 2.3906,-7.875 2.8907,-4.1094 7.9532,-4.1094 3.3906,0 5.3906,1.7187 2.0156,1.7032 2.0156,3.8125 0,1.3438 -0.8125,2.1407 -0.8125,0.7968 -2.125,0.7968 -1.375,0 -2.2812,-0.9062 -0.9063,-0.9219 -1.1094,-3.2656 -0.1406,-1.4844 -0.6875,-2.0625 -0.5313,-0.5938 -1.2656,-0.5938 -1.125,0 -1.9219,1.2031 -1.2188,1.7969 -1.2188,5.5313 0,3.0937 0.9844,5.9219 0.9844,2.8125 2.7031,4.2031 1.2813,1 3.0469,1 1.1406,0 2.1719,-0.5313 1.0312,-0.5468 2.4375,-2.0468 z m 15.5234,2.4218 q -4.0156,3.5469 -7.2031,3.5469 -1.875,0 -3.125,-1.2344 -1.2344,-1.2343 -1.2344,-3.0937 0,-2.5 2.1563,-4.5 2.1562,-2.0156 9.4062,-5.3438 v -2.2031 q 0,-2.4844 -0.2812,-3.125 -0.2657,-0.6406 -1.0157,-1.125 -0.75,-0.4844 -1.6875,-0.4844 -1.5156,0 -2.5,0.6875 -0.6093,0.4219 -0.6093,0.9844 0,0.4844 0.6562,1.2188 0.8906,1 0.8906,1.9375 0,1.1562 -0.8593,1.9687 -0.8594,0.7969 -2.2344,0.7969 -1.4844,0 -2.4844,-0.8906 -0.9844,-0.8907 -0.9844,-2.0782 0,-1.6875 1.3282,-3.2187 1.3437,-1.5469 3.7343,-2.3594 2.3907,-0.8281 4.9688,-0.8281 3.1094,0 4.9219,1.3281 1.8281,1.3281 2.3593,2.875 0.3282,0.9844 0.3282,4.5156 v 8.5157 q 0,1.5 0.1093,1.8906 0.125,0.375 0.3594,0.5625 0.2344,0.1875 0.5469,0.1875 0.6094,0 1.2344,-0.8594 l 0.7031,0.5625 q -1.1719,1.7344 -2.4219,2.5313 -1.25,0.7812 -2.8437,0.7812 -1.875,0 -2.9375,-0.875 -1.0469,-0.8906 -1.2813,-2.6719 z m 0,-1.7187 v -7.3281 q -2.8437,1.6562 -4.2187,3.5625 -0.9219,1.2656 -0.9219,2.5468 0,1.0782 0.7812,1.9063 0.5782,0.625 1.6407,0.625 1.1718,0 2.7187,-1.3125 z m 33.2031,-26.8281 v 25.2187 q 0,2.5469 0.1407,3.0156 0.1875,0.7813 0.7187,1.1563 0.5313,0.375 1.8438,0.4687 v 0.7657 l -9.2657,1.8125 v -3.4688 q -1.6562,2.0156 -2.9687,2.75 -1.2969,0.7188 -2.9375,0.7188 -4.1875,0 -6.625,-3.75 -1.9688,-3.0469 -1.9688,-7.4844 0,-3.5313 1.2188,-6.3281 1.2187,-2.8125 3.3281,-4.2344 2.125,-1.4375 4.5625,-1.4375 1.5781,0 2.7969,0.6094 1.2187,0.6093 2.5937,2.1406 v -6.6094 q 0,-2.5156 -0.2031,-3.0312 -0.2812,-0.6719 -0.8437,-1 -0.5625,-0.3282 -2.1094,-0.3282 v -0.9843 z m -6.5625,14.8593 q -1.7343,-3.3281 -4.2343,-3.3281 -0.875,0 -1.4375,0.4688 -0.8594,0.7187 -1.4219,2.5468 -0.5469,1.8282 -0.5469,5.6094 0,4.1406 0.6094,6.1406 0.6094,1.9844 1.6719,2.875 0.5312,0.4532 1.4687,0.4532 2.0625,0 3.8906,-3.2344 z m 30.5235,5.1719 h -12.0313 q 0.2188,4.3594 2.3282,6.8906 1.6093,1.9532 3.8906,1.9532 1.4062,0 2.5469,-0.7813 1.1562,-0.7969 2.4687,-2.8281 l 0.7969,0.5156 q -1.7813,3.625 -3.9375,5.1406 -2.1563,1.5157 -5,1.5157 -4.875,0 -7.375,-3.75 -2.0156,-3.0313 -2.0156,-7.5 0,-5.4844 2.9531,-8.7344 2.9687,-3.25 6.9531,-3.25 3.3281,0 5.7813,2.7344 2.4531,2.7343 2.6406,8.0937 z m -5.7656,-1.5625 q 0,-3.7812 -0.4219,-5.1875 -0.4063,-1.4062 -1.2656,-2.125 -0.5,-0.4219 -1.3125,-0.4219 -1.2188,0 -2,1.1875 -1.375,2.0938 -1.375,5.7188 v 0.8281 z"
       id="path141"
       inkscape:connector-curvature="0"
       style="fill:#666666;fill-rule:nonzero" />
    <path
       d="m 1386.1155,1551.6063 h 291.5591 v 77.5748 h -291.5591 z"
       id="path143"
       inkscape:connector-curvature="0"
       style="fill:#000000;fill-opacity:0;fill-rule:evenodd" />
    <path
       d="m 1432.4927,1606.6863 v -0.875 h 1.0469 q 1.3906,0 2.125,-0.4219 0.7344,-0.4375 1.0937,-1.1875 0.2032,-0.5 0.2032,-2.9531 v -20.9062 q 0,-2.4375 -0.2657,-3.0469 -0.25,-0.6094 -1.0312,-1.0625 -0.7813,-0.4688 -2.125,-0.4688 h -1.0469 v -0.8593 h 14.2188 q 5.7031,0 9.1718,1.5468 4.2344,1.8907 6.4219,5.7344 2.2031,3.8438 2.2031,8.7031 0,3.3438 -1.0781,6.1719 -1.0781,2.8281 -2.7969,4.6719 -1.7031,1.8281 -3.9531,2.9531 -2.2344,1.1094 -5.4687,1.7188 -1.4219,0.2812 -4.5,0.2812 z m 12.1094,-29.9844 v 24.7969 q 0,1.9688 0.1875,2.4219 0.1875,0.4375 0.6406,0.6719 0.625,0.3593 1.8281,0.3593 3.9063,0 5.9688,-2.6718 2.8125,-3.6094 2.8125,-11.2032 0,-6.125 -1.9219,-9.7812 -1.5156,-2.8594 -3.9062,-3.8906 -1.6875,-0.7188 -5.6094,-0.7032 z m 33.8672,7.4063 q 2.8593,0 5.3125,1.4844 2.4687,1.4687 3.75,4.1875 1.2812,2.7187 1.2812,5.9531 0,4.6719 -2.375,7.8125 -2.8594,3.7969 -7.8906,3.7969 -4.9531,0 -7.625,-3.4688 -2.6719,-3.4687 -2.6719,-8.0469 0,-4.7031 2.7344,-8.2031 2.7344,-3.5156 7.4844,-3.5156 z m 0.094,1.6719 q -1.1875,0 -2.0469,0.9062 -0.8593,0.8906 -1.125,3.5625 -0.2656,2.6563 -0.2656,7.3906 0,2.5 0.3281,4.6875 0.25,1.6563 1.0938,2.5313 0.8437,0.8594 1.9219,0.8594 1.0625,0 1.7656,-0.5782 0.9062,-0.7968 1.2187,-2.2343 0.4688,-2.2188 0.4688,-9 0,-3.9844 -0.4531,-5.4688 -0.4375,-1.4844 -1.3125,-2.1719 -0.6094,-0.4843 -1.5938,-0.4843 z m 35.2969,21.5625 -6,-16.0782 -5.875,16.0782 h -1.2188 l -5.8437,-15.8907 q -1.3125,-3.6406 -2.2188,-4.7343 -0.5937,-0.75 -1.7812,-1.0782 v -0.875 h 11.0625 v 0.875 q -1.125,0 -1.5469,0.3282 -0.4219,0.3281 -0.4219,0.75 0,0.3906 0.75,2.3906 l 3.2032,8.5469 3.0937,-8.5469 -0.2344,-0.5625 q -0.7031,-1.7656 -1.2343,-2.2344 -0.5157,-0.4844 -1.625,-0.6719 v -0.875 h 11.2343 v 0.875 q -1.3125,0.062 -1.6718,0.3594 -0.3438,0.2969 -0.3438,0.8281 0,0.5157 0.6719,2.2813 l 3.0937,8.5469 2.8125,-7.875 q 0.6094,-1.6875 0.6094,-2.2969 0,-0.9063 -0.4531,-1.3281 -0.4375,-0.4219 -1.7188,-0.5157 v -0.875 h 6.4844 v 0.875 q -1.0781,0.1407 -1.7187,0.7657 -0.625,0.6093 -1.625,3.5156 l -6.1407,17.4219 z m 21.8984,-22.5782 v 2.8438 q 1.6875,-1.8281 3.2344,-2.6563 1.5469,-0.8437 3.3281,-0.8437 2.125,0 3.5313,1.1875 1.4062,1.1875 1.875,2.9375 0.375,1.3437 0.375,5.1406 v 8.5313 q 0,2.5312 0.4531,3.1562 0.4688,0.6094 1.9219,0.7813 v 0.8437 h -11.0938 v -0.8437 q 1.25,-0.1719 1.7813,-1.0313 0.375,-0.5937 0.375,-2.9062 v -9.75 q 0,-2.7032 -0.2188,-3.4063 -0.2031,-0.7031 -0.7031,-1.0781 -0.5,-0.3906 -1.1094,-0.3906 -2.0156,0 -3.75,2.875 v 11.75 q 0,2.4531 0.4532,3.1093 0.4531,0.6563 1.7031,0.8282 v 0.8437 h -11.0938 v -0.8437 q 1.3907,-0.1407 1.9688,-0.8907 0.4062,-0.5156 0.4062,-3.0468 v -12.375 q 0,-2.4844 -0.4687,-3.0938 -0.4531,-0.6094 -1.9063,-0.7969 v -0.875 z m 26.3203,-9.8593 v 27.2343 q 0,2.3125 0.5313,2.9688 0.5469,0.6406 2.1094,0.7344 v 0.8437 h -11.8282 v -0.8437 q 1.4532,-0.047 2.1563,-0.8438 0.4687,-0.5469 0.4687,-2.8594 v -22.6875 q 0,-2.2968 -0.5468,-2.9375 -0.5313,-0.6562 -2.0782,-0.75 v -0.8593 z m 10.0235,-0.75 q 1.5312,0 2.5781,1.0625 1.0625,1.0625 1.0625,2.5625 0,1.5 -1.0781,2.5625 -1.0625,1.0468 -2.5625,1.0468 -1.5,0 -2.5625,-1.0468 -1.0469,-1.0625 -1.0469,-2.5625 0,-1.5 1.0469,-2.5625 1.0625,-1.0625 2.5625,-1.0625 z m 3.2812,10.6093 v 17.375 q 0,2.3125 0.5313,2.9688 0.5469,0.6406 2.125,0.7344 v 0.8437 h -11.8438 v -0.8437 q 1.4532,-0.047 2.1563,-0.8438 0.4687,-0.5469 0.4687,-2.8594 v -12.7968 q 0,-2.3282 -0.5468,-2.9688 -0.5313,-0.6406 -2.0782,-0.7344 v -0.875 z m 13.7422,0 v 2.8438 q 1.6875,-1.8281 3.2344,-2.6563 1.5469,-0.8437 3.3281,-0.8437 2.125,0 3.5313,1.1875 1.4062,1.1875 1.875,2.9375 0.375,1.3437 0.375,5.1406 v 8.5313 q 0,2.5312 0.4531,3.1562 0.4687,0.6094 1.9219,0.7813 v 0.8437 h -11.0938 v -0.8437 q 1.25,-0.1719 1.7813,-1.0313 0.375,-0.5937 0.375,-2.9062 v -9.75 q 0,-2.7032 -0.2188,-3.4063 -0.2031,-0.7031 -0.7031,-1.0781 -0.5,-0.3906 -1.1094,-0.3906 -2.0156,0 -3.75,2.875 v 11.75 q 0,2.4531 0.4531,3.1093 0.4532,0.6563 1.7032,0.8282 v 0.8437 h -11.0938 v -0.8437 q 1.3906,-0.1407 1.9688,-0.8907 0.4062,-0.5156 0.4062,-3.0468 v -12.375 q 0,-2.4844 -0.4687,-3.0938 -0.4532,-0.6094 -1.9063,-0.7969 v -0.875 z m 26.6485,-9.8593 v 20.9062 l 5.0781,-5 q 1.5781,-1.5156 1.9531,-2.1875 0.3906,-0.6875 0.3906,-1.3281 0,-0.625 -0.5156,-1.0469 -0.5156,-0.4219 -2.0156,-0.6094 v -0.875 h 9.8281 v 0.875 q -1.4062,0.062 -2.4687,0.6719 -1.0469,0.5938 -4.125,3.5938 l -2.3907,2.3437 5.1563,7.5469 q 3.125,4.5937 3.7031,5.1562 0.7969,0.7969 2.0156,0.8907 v 0.8437 h -11.3125 v -0.8437 q 0.75,0 1.0782,-0.2813 0.3437,-0.2812 0.3437,-0.6094 0,-0.5468 -0.9844,-2 l -4.3281,-6.3437 -1.4062,1.375 v 3.9375 q 0,2.5156 0.4687,3.1406 0.4688,0.6094 1.9219,0.7813 v 0.8437 h -11.3281 v -0.8437 q 1.3906,-0.1407 1.9687,-0.8907 0.4063,-0.5156 0.4063,-3.0312 v -22.2656 q 0,-2.4844 -0.4688,-3.0938 -0.4531,-0.6094 -1.9062,-0.7969 v -0.8593 z"
       id="path145"
       inkscape:connector-curvature="0"
       style="fill:#666666;fill-rule:nonzero" />
    <path
       d="m 1862.0657,1551.6063 h 291.5591 v 77.5748 h -291.5591 z"
       id="path147"
       inkscape:connector-curvature="0"
       style="fill:#000000;fill-opacity:0;fill-rule:evenodd" />
    <path
       d="m 1938.2592,1574.905 h 16.4063 v 0.8594 h -0.8125 q -1.8594,0 -2.5469,0.3906 -0.6875,0.3906 -0.9844,1.0781 -0.2969,0.6719 -0.2969,3.3907 v 15.5625 q 0,4.2656 0.6407,5.6562 0.6562,1.375 2.125,2.2969 1.4843,0.9062 3.7343,0.9062 2.5782,0 4.3907,-1.1562 1.8125,-1.1719 2.7187,-3.2031 0.9063,-2.0469 0.9063,-7.1094 v -12.9531 q 0,-2.1407 -0.4532,-3.0469 -0.4375,-0.9219 -1.125,-1.2656 -1.0468,-0.5469 -2.9687,-0.5469 v -0.8594 h 10.9844 v 0.8594 h -0.6563 q -1.3281,0 -2.2187,0.5469 -0.8907,0.5312 -1.2969,1.6093 -0.2969,0.75 -0.2969,2.7032 v 12.0625 q 0,5.6093 -0.75,8.0937 -0.7344,2.4844 -3.5937,4.5781 -2.8594,2.0782 -7.7969,2.0782 -4.125,0 -6.375,-1.1094 -3.0781,-1.5 -4.3438,-3.8438 -1.2656,-2.3437 -1.2656,-6.2968 v -15.5625 q 0,-2.75 -0.3125,-3.4063 -0.2969,-0.6719 -1.0469,-1.0625 -0.75,-0.4062 -2.7656,-0.3906 z m 43.6484,29.5469 v 8.1719 q 0,1.6875 0.2657,2.2968 0.2656,0.6094 0.8281,0.8907 0.5625,0.2812 2.2031,0.2812 v 0.8594 h -12.4844 v -0.8594 q 1.4532,-0.047 2.1563,-0.8281 0.4687,-0.5313 0.4687,-2.7813 v -23.1406 q 0,-2.3281 -0.5468,-2.9687 -0.5313,-0.6407 -2.0782,-0.7344 v -0.875 h 9.1875 v 2.8906 q 1.1407,-1.6875 2.3438,-2.4375 1.7031,-1.1094 3.7187,-1.1094 2.4219,0 4.3907,1.5313 1.9843,1.5156 3.0156,4.2031 1.0312,2.6875 1.0312,5.7813 0,3.3281 -1.0625,6.0781 -1.0625,2.75 -3.0937,4.2031 -2.0313,1.4375 -4.5156,1.4375 -1.7969,0 -3.375,-0.7969 -1.1719,-0.6093 -2.4532,-2.0937 z m 0,-2.3594 q 2.0157,2.8594 4.3125,2.8594 1.2657,0 2.0782,-1.3438 1.2187,-1.9687 1.2187,-7.5 0,-5.6718 -1.3281,-7.75 -0.8906,-1.3906 -2.3906,-1.3906 -2.375,0 -3.8907,3.4219 z m 26.7891,-27.1875 v 27.2344 q 0,2.3125 0.5313,2.9687 0.5468,0.6407 2.1093,0.7344 v 0.8438 h -11.8281 v -0.8438 q 1.4531,-0.047 2.1563,-0.8437 0.4687,-0.5469 0.4687,-2.8594 v -22.6875 q 0,-2.2969 -0.5469,-2.9375 -0.5312,-0.6563 -2.0781,-0.75 v -0.8594 z m 10.0234,-0.75 q 1.5313,0 2.5782,1.0625 1.0625,1.0625 1.0625,2.5625 0,1.5 -1.0782,2.5625 -1.0625,1.0469 -2.5625,1.0469 -1.5,0 -2.5625,-1.0469 -1.0468,-1.0625 -1.0468,-2.5625 0,-1.5 1.0468,-2.5625 1.0625,-1.0625 2.5625,-1.0625 z m 3.2813,10.6094 v 17.375 q 0,2.3125 0.5312,2.9687 0.5469,0.6407 2.125,0.7344 v 0.8438 h -11.8437 v -0.8438 q 1.4531,-0.047 2.1562,-0.8437 0.4688,-0.5469 0.4688,-2.8594 v -12.7969 q 0,-2.3281 -0.5469,-2.9687 -0.5312,-0.6407 -2.0781,-0.7344 v -0.875 z m 13.7422,0 v 2.8437 q 1.6875,-1.8281 3.2344,-2.6562 1.5468,-0.8438 3.3281,-0.8438 2.125,0 3.5312,1.1875 1.4063,1.1875 1.875,2.9375 0.3751,1.3438 0.3751,5.1407 v 8.5312 q 0,2.5313 0.4532,3.1563 0.4687,0.6093 1.9218,0.7812 v 0.8438 h -11.0938 v -0.8438 q 1.25,-0.1719 1.7812,-1.0312 0.375,-0.5938 0.375,-2.9063 v -9.75 q 0,-2.7031 -0.2187,-3.4062 -0.2031,-0.7032 -0.7031,-1.0782 -0.5,-0.3906 -1.1094,-0.3906 -2.0156,0 -3.75,2.875 v 11.75 q 0,2.4531 0.4531,3.1094 0.4531,0.6562 1.7031,0.8281 v 0.8438 h -11.0937 v -0.8438 q 1.3906,-0.1406 1.9687,-0.8906 0.4063,-0.5156 0.4063,-3.0469 v -12.375 q 0,-2.4844 -0.4688,-3.0937 -0.4531,-0.6094 -1.9062,-0.7969 v -0.875 z m 26.6485,-9.8594 v 20.9063 l 5.0782,-5 q 1.5781,-1.5157 1.9531,-2.1875 0.3906,-0.6875 0.3906,-1.3282 0,-0.625 -0.5156,-1.0468 -0.5156,-0.4219 -2.0156,-0.6094 v -0.875 h 9.8281 v 0.875 q -1.4063,0.062 -2.4688,0.6719 -1.0468,0.5937 -4.125,3.5937 l -2.3906,2.3438 5.1563,7.5468 q 3.125,4.5938 3.7031,5.1563 0.7969,0.7969 2.0156,0.8906 v 0.8438 h -11.3125 v -0.8438 q 0.75,0 1.0781,-0.2812 0.3438,-0.2813 0.3438,-0.6094 0,-0.5469 -0.9844,-2 l -4.3281,-6.3438 -1.4063,1.375 v 3.9375 q 0,2.5157 0.4688,3.1407 0.4687,0.6093 1.9219,0.7812 v 0.8438 h -11.3282 v -0.8438 q 1.3907,-0.1406 1.9688,-0.8906 0.4062,-0.5156 0.4062,-3.0313 v -22.2656 q 0,-2.4844 -0.4687,-3.0937 -0.4531,-0.6094 -1.9063,-0.7969 v -0.8594 z"
       id="path149"
       inkscape:connector-curvature="0"
       style="fill:#666666;fill-rule:nonzero" />
    <path
       d="m 2349.609,1551.6063 h 291.5591 v 77.5748 H 2349.609 Z"
       id="path151"
       inkscape:connector-curvature="0"
       style="fill:#000000;fill-opacity:0;fill-rule:evenodd" />
    <path
       d="m 2470.1306,1574.1707 v 11.0156 h -0.9219 q -1.0312,-4.3125 -3.8437,-6.6094 -2.8125,-2.2968 -6.375,-2.2968 -2.9688,0 -5.4531,1.7187 -2.4844,1.7031 -3.6407,4.4688 -1.4687,3.5468 -1.4687,7.875 0,4.2656 1.0781,7.7812 1.0781,3.5 3.375,5.2969 2.2969,1.7812 5.9531,1.7812 3,0 5.4844,-1.3125 2.5,-1.3125 5.2656,-4.5156 v 2.7344 q -2.6718,2.7969 -5.5625,4.0625 -2.8906,1.25 -6.7656,1.25 -5.0781,0 -9.0312,-2.0469 -3.9532,-2.0469 -6.0938,-5.8594 -2.1406,-3.8281 -2.1406,-8.1406 0,-4.5469 2.375,-8.625 2.375,-4.0781 6.4219,-6.3281 4.0468,-2.25 8.5937,-2.25 3.3438,0 7.0781,1.4531 2.1563,0.8438 2.7344,0.8438 0.75,0 1.2969,-0.5469 0.5625,-0.5469 0.7187,-1.75 z m 14.2891,33.4062 -7.0782,-16.25 q -1.5937,-3.6718 -2.3593,-4.5156 -0.75,-0.8437 -1.8282,-1.1719 v -0.875 h 11.6407 v 0.875 q -1.1407,0.047 -1.6094,0.4532 -0.4688,0.3906 -0.4688,0.9531 0,0.8906 1.1719,3.5156 l 3.75,8.5781 2.5469,-6.6406 q 1.3906,-3.5312 1.3906,-4.9219 0,-0.8593 -0.5781,-1.375 -0.5781,-0.5156 -2.0313,-0.5625 v -0.875 h 7.3438 v 0.875 q -1.0781,0.1094 -1.7656,0.8282 -0.6719,0.7187 -2.2657,4.8593 l -6.2656,16.25 q -2.3594,6.0938 -3.5156,7.5 -1.6094,1.9688 -4.0469,1.9688 -1.9531,0 -3.1562,-1.1094 -1.2032,-1.1094 -1.2032,-2.6875 0,-1.3594 0.8282,-2.25 0.8281,-0.8906 2.0468,-0.8906 1.1719,0 1.8907,0.75 0.7187,0.75 0.7343,2.3281 0.031,0.8906 0.2188,1.1406 0.1875,0.2657 0.5312,0.2657 0.5625,0 1.2032,-0.6875 0.9375,-0.9844 2.2031,-4.5 z m 31.8281,-6.5468 0.7344,0.5625 q -1.5469,2.9062 -3.8594,4.3281 -2.3125,1.4219 -4.9063,1.4219 -4.3906,0 -7.0156,-3.2969 -2.625,-3.3125 -2.625,-7.9531 0,-4.4844 2.3906,-7.875 2.8907,-4.1094 7.9532,-4.1094 3.3906,0 5.3906,1.7187 2.0156,1.7032 2.0156,3.8125 0,1.3438 -0.8125,2.1407 -0.8125,0.7968 -2.125,0.7968 -1.375,0 -2.2812,-0.9062 -0.9063,-0.9219 -1.1094,-3.2656 -0.1406,-1.4844 -0.6875,-2.0625 -0.5313,-0.5938 -1.2656,-0.5938 -1.125,0 -1.9219,1.2031 -1.2188,1.7969 -1.2188,5.5313 0,3.0937 0.9844,5.9219 0.9844,2.8125 2.7031,4.2031 1.2813,1 3.0469,1 1.1406,0 2.1719,-0.5313 1.0312,-0.5468 2.4375,-2.0468 z m 12.0078,-26.125 v 27.2343 q 0,2.3125 0.5313,2.9688 0.5468,0.6406 2.1093,0.7344 v 0.8437 h -11.8281 v -0.8437 q 1.4531,-0.047 2.1563,-0.8438 0.4687,-0.5469 0.4687,-2.8594 v -22.6875 q 0,-2.2968 -0.5469,-2.9375 -0.5312,-0.6562 -2.0781,-0.75 v -0.8593 z m 23.3203,20.0312 h -12.0312 q 0.2187,4.3594 2.3281,6.8906 1.6094,1.9532 3.8906,1.9532 1.4063,0 2.5469,-0.7813 1.1562,-0.7969 2.4687,-2.8281 l 0.7969,0.5156 q -1.7812,3.625 -3.9375,5.1406 -2.1562,1.5157 -5,1.5157 -4.875,0 -7.375,-3.75 -2.0156,-3.0313 -2.0156,-7.5 0,-5.4844 2.9531,-8.7344 2.9688,-3.25 6.9531,-3.25 3.3282,0 5.7813,2.7344 2.4531,2.7343 2.6406,8.0937 z m -5.7656,-1.5625 q 0,-3.7812 -0.4219,-5.1875 -0.4062,-1.4062 -1.2656,-2.125 -0.5,-0.4219 -1.3125,-0.4219 -1.2188,0 -2,1.1875 -1.375,2.0938 -1.375,5.7188 v 0.8281 z"
       id="path153"
       inkscape:connector-curvature="0"
       style="fill:#666666;fill-rule:nonzero" />
    <path
       d="m 2809.7637,1551.6063 h 291.5591 v 77.5748 h -291.5591 z"
       id="path155"
       inkscape:connector-curvature="0"
       style="fill:#000000;fill-opacity:0;fill-rule:evenodd" />
    <path
       d="m 2923.4182,1576.7332 v 13.0469 h 0.9063 q 2.1093,0 3.4375,-0.625 1.3437,-0.6407 2.2656,-2.1407 0.9375,-1.5 1.2187,-4.0468 h 0.8125 v 15.9531 h -0.8125 q -0.4531,-4.5156 -2.4375,-5.9531 -1.9687,-1.4532 -4.4843,-1.4532 h -0.9063 v 9.7344 q 0,2.4375 0.2656,3.0469 0.2657,0.6094 1.0469,1.0625 0.7969,0.4531 2.125,0.4531 h 1.0625 v 0.875 h -16.625 v -0.875 h 1.0625 q 1.375,0 2.2188,-0.4844 0.6093,-0.3281 0.9375,-1.125 0.2656,-0.5625 0.2656,-2.9531 v -20.9062 q 0,-2.4375 -0.2656,-3.0469 -0.25,-0.6094 -1.0469,-1.0625 -0.7813,-0.4688 -2.1094,-0.4688 h -1.0625 v -0.8593 h 26.8125 v 9.1093 h -0.9531 q -0.3281,-3.2031 -1.6875,-4.75 -1.3438,-1.5468 -3.8906,-2.1875 -1.4063,-0.3437 -5.2032,-0.3437 z m 29.3203,0 v 13.0469 h 0.9063 q 2.1093,0 3.4375,-0.625 1.3437,-0.6407 2.2656,-2.1407 0.9375,-1.5 1.2187,-4.0468 h 0.8125 v 15.9531 h -0.8125 q -0.4531,-4.5156 -2.4375,-5.9531 -1.9687,-1.4532 -4.4843,-1.4532 h -0.9063 v 9.7344 q 0,2.4375 0.2656,3.0469 0.2657,0.6094 1.0469,1.0625 0.7969,0.4531 2.125,0.4531 h 1.0625 v 0.875 h -16.625 v -0.875 h 1.0625 q 1.375,0 2.2188,-0.4844 0.6093,-0.3281 0.9375,-1.125 0.2656,-0.5625 0.2656,-2.9531 v -20.9062 q 0,-2.4375 -0.2656,-3.0469 -0.25,-0.6094 -1.0469,-1.0625 -0.7813,-0.4688 -2.1094,-0.4688 h -1.0625 v -0.8593 h 26.8125 v 9.1093 h -0.9531 q -0.3281,-3.2031 -1.6875,-4.75 -1.3438,-1.5468 -3.8906,-2.1875 -1.4063,-0.3437 -5.2032,-0.3437 z m 46.4297,18.7969 -1.2031,11.1562 h -28.2188 v -0.875 h 1.0625 q 1.375,0 2.2188,-0.4844 0.6094,-0.3281 0.9375,-1.125 0.2656,-0.5625 0.2656,-2.9531 v -20.9062 q 0,-2.4375 -0.2656,-3.0469 -0.25,-0.6094 -1.0469,-1.0625 -0.7812,-0.4688 -2.1094,-0.4688 h -1.0625 v -0.8593 h 16.9532 v 0.8593 h -1.3907 q -1.375,0 -2.2187,0.5 -0.6094,0.3282 -0.9688,1.125 -0.25,0.5625 -0.25,2.9532 v 20.25 q 0,2.4375 0.2813,3.1093 0.2812,0.6563 1.0937,0.9844 0.5938,0.2188 2.8438,0.2188 h 2.6406 q 2.5313,0 4.2188,-0.8907 1.6875,-0.8906 2.9218,-2.8125 1.2344,-1.9218 2.3282,-5.6718 z"
       id="path157"
       inkscape:connector-curvature="0"
       style="fill:#666666;fill-rule:nonzero" />
  </g>
</svg>
