<?xml version="1.0" encoding="UTF-8" standalone="no"?>
<!-- Created with matplotlib (https://matplotlib.org/) -->

<svg
   xmlns:dc="http://purl.org/dc/elements/1.1/"
   xmlns:cc="http://creativecommons.org/ns#"
   xmlns:rdf="http://www.w3.org/1999/02/22-rdf-syntax-ns#"
   xmlns:svg="http://www.w3.org/2000/svg"
   xmlns="http://www.w3.org/2000/svg"
   xmlns:xlink="http://www.w3.org/1999/xlink"
   xmlns:sodipodi="http://sodipodi.sourceforge.net/DTD/sodipodi-0.dtd"
   xmlns:inkscape="http://www.inkscape.org/namespaces/inkscape"
   height="246.48079pt"
   version="1.1"
   viewBox="0 0 159.75505 246.48079"
   width="159.75505pt"
   id="svg266"
   sodipodi:docname="figure6_ecoli.svg"
   inkscape:version="0.92.5 (2060ec1f9f, 2020-04-08)"
   inkscape:export-filename="/home/erikz/sonnhammer/network_generation_algo/results/figures/figure6_ecoli.png"
   inkscape:export-xdpi="300"
   inkscape:export-ydpi="300">
  <sodipodi:namedview
     pagecolor="#ffffff"
     bordercolor="#666666"
     borderopacity="1"
     objecttolerance="10"
     gridtolerance="10"
     guidetolerance="10"
     inkscape:pageopacity="0"
     inkscape:pageshadow="2"
     inkscape:window-width="1848"
     inkscape:window-height="1016"
     id="namedview268"
     showgrid="false"
     inkscape:zoom="1.7039309"
     inkscape:cx="219.44516"
     inkscape:cy="144.53333"
     inkscape:window-x="72"
     inkscape:window-y="27"
     inkscape:window-maximized="1"
     inkscape:current-layer="axes_1" />
  <metadata
     id="metadata2">
    <rdf:RDF>
      <cc:Work>
        <dc:type
           rdf:resource="http://purl.org/dc/dcmitype/StillImage" />
        <dc:date>2021-11-01T15:35:18.949190</dc:date>
        <dc:format>image/svg+xml</dc:format>
        <dc:creator>
          <cc:Agent>
            <dc:title>Matplotlib v3.3.4, https://matplotlib.org/</dc:title>
          </cc:Agent>
        </dc:creator>
      </cc:Work>
    </rdf:RDF>
  </metadata>
  <defs
     id="defs6"
     style="stroke-linecap:butt;stroke-linejoin:round">
    <style
       type="text/css"
       id="style4">*{stroke-linecap:butt;stroke-linejoin:round;}</style>
  </defs>
  <g
     id="figure_1"
     style="stroke-linecap:butt;stroke-linejoin:round"
     transform="translate(-50.17117,-5.9192161)">
    <g
       id="patch_1"
       style="stroke-linecap:butt;stroke-linejoin:round">
      <path
         d="M 0,288 H 432 V 0 H 0 Z"
         style="fill:none;stroke-linecap:butt;stroke-linejoin:round"
         id="path8"
         inkscape:connector-curvature="0" />
    </g>
    <g
       id="axes_1"
       style="stroke-linecap:butt;stroke-linejoin:round">
      <g
         id="patch_2"
         transform="matrix(0.46453471,0,0,1,28.915126,0)"
         style="stroke-linecap:butt;stroke-linejoin:round">
        <path
           d="M 54,252 H 388.8 V 34.56 H 54 Z"
           style="fill:#ffffff;stroke-linecap:butt;stroke-linejoin:round"
           id="path11"
           inkscape:connector-curvature="0" />
      </g>
      <g
         id="patch_3"
         style="stroke-linecap:butt;stroke-linejoin:round">
        <path
           clip-path="url(#pf1bf7efd7d)"
           d="m 95.85,116.1 h 16.74 v 71.7552 H 95.85 Z"
           style="fill:#fde725;stroke-linecap:butt;stroke-linejoin:round"
           id="path14"
           inkscape:connector-curvature="0" />
      </g>
      <g
         id="patch_5"
         style="stroke-linecap:butt;stroke-linejoin:round">
        <path
           clip-path="url(#pf1bf7efd7d)"
           d="m 112.59,116.1 h 16.74 v 65.8662 h -16.74 z"
           style="fill:#5cc863;stroke-linecap:butt;stroke-linejoin:round"
           id="path20"
           inkscape:connector-curvature="0" />
      </g>
      <g
         id="patch_7"
         style="stroke-linecap:butt;stroke-linejoin:round">
        <path
           clip-path="url(#pf1bf7efd7d)"
           d="m 129.33,116.1 h 16.74 v 131.5512 h -16.74 z"
           style="fill:#21908d;stroke-linecap:butt;stroke-linejoin:round"
           id="path26"
           inkscape:connector-curvature="0" />
      </g>
      <g
         id="patch_9"
         style="stroke-linecap:butt;stroke-linejoin:round">
        <path
           clip-path="url(#pf1bf7efd7d)"
           d="m 146.07,116.1 h 16.74 v 12.4122 h -16.74 z"
           style="fill:#3b518b;stroke-linecap:butt;stroke-linejoin:round"
           id="path32"
           inkscape:connector-curvature="0" />
      </g>
      <g
         id="patch_11"
         style="stroke-linecap:butt;stroke-linejoin:round">
        <path
           clip-path="url(#pf1bf7efd7d)"
           d="m 162.81,116.1 h 16.74 V 49.056 h -16.74 z"
           style="fill:#440154;stroke-linecap:butt;stroke-linejoin:round"
           id="path38"
           inkscape:connector-curvature="0" />
      </g>
      <g
         id="matplotlib.axis_1"
         style="stroke-linecap:butt;stroke-linejoin:round" />
      <g
         id="matplotlib.axis_2"
         style="stroke-linecap:butt;stroke-linejoin:round">
        <g
           id="ytick_1"
           style="stroke-linecap:butt;stroke-linejoin:round">
          <g
             id="line2d_1"
             style="stroke-linecap:butt;stroke-linejoin:round">
            <defs
               id="defs46">
              <path
                 d="M 0,0 H -3.5"
                 id="m92442f391b"
                 style="stroke:#000000;stroke-width:0.80000001;stroke-linecap:butt;stroke-linejoin:round"
                 inkscape:connector-curvature="0" />
            </defs>
            <g
               id="g50"
               style="stroke-linecap:butt;stroke-linejoin:round">
              <use
                 style="stroke:#000000;stroke-width:0.80000001;stroke-linecap:butt;stroke-linejoin:round"
                 x="54"
                 xlink:href="#m92442f391b"
                 y="242.94"
                 id="use48"
                 width="100%"
                 height="100%" />
            </g>
          </g>
          <g
             id="text_1"
             style="stroke-linecap:butt;stroke-linejoin:round">
            <!-- −14.0 -->
            <g
               transform="matrix(0.18,0,0,-0.18,-8.161562,249.77859)"
               id="g70"
               style="stroke-linecap:butt;stroke-linejoin:round">
              <defs
                 id="defs58">
                <path
                   d="M 10.59375,35.5 H 73.1875 V 27.203125 H 10.59375 Z"
                   id="DejaVuSans-8722"
                   inkscape:connector-curvature="0"
                   style="stroke-linecap:butt;stroke-linejoin:round" />
                <path
                   d="m 12.40625,8.296875 h 16.109375 v 55.625 L 10.984375,60.40625 v 8.984375 l 17.4375,3.515625 H 38.28125 V 8.296875 H 54.390625 V 0 H 12.40625 Z"
                   id="DejaVuSans-49"
                   inkscape:connector-curvature="0"
                   style="stroke-linecap:butt;stroke-linejoin:round" />
                <path
                   d="M 37.796875,64.3125 12.890625,25.390625 h 24.90625 z m -2.59375,8.59375 h 12.40625 V 25.390625 h 10.40625 V 17.1875 H 47.609375 V 0 h -9.8125 V 17.1875 H 4.890625 v 9.515625 z"
                   id="DejaVuSans-52"
                   inkscape:connector-curvature="0"
                   style="stroke-linecap:butt;stroke-linejoin:round" />
                <path
                   d="M 10.6875,12.40625 H 21 V 0 H 10.6875 Z"
                   id="DejaVuSans-46"
                   inkscape:connector-curvature="0"
                   style="stroke-linecap:butt;stroke-linejoin:round" />
                <path
                   d="m 31.78125,66.40625 q -7.609375,0 -11.453125,-7.5 Q 16.5,51.421875 16.5,36.375 q 0,-14.984375 3.828125,-22.484375 3.84375,-7.5 11.453125,-7.5 7.671875,0 11.5,7.5 3.84375,7.5 3.84375,22.484375 0,15.046875 -3.84375,22.53125 -3.828125,7.5 -11.5,7.5 z m 0,7.8125 q 12.265625,0 18.734375,-9.703125 6.46875,-9.6875 6.46875,-28.140625 0,-18.40625 -6.46875,-28.109375 -6.46875,-9.6875 -18.734375,-9.6875 -12.25,0 -18.71875,9.6875 Q 6.59375,17.96875 6.59375,36.375 q 0,18.453125 6.46875,28.140625 6.46875,9.703125 18.71875,9.703125 z"
                   id="DejaVuSans-48"
                   inkscape:connector-curvature="0"
                   style="stroke-linecap:butt;stroke-linejoin:round" />
              </defs>
              <use
                 xlink:href="#DejaVuSans-8722"
                 id="use60"
                 style="stroke-linecap:butt;stroke-linejoin:round"
                 x="0"
                 y="0"
                 width="100%"
                 height="100%" />
              <use
                 x="83.789062"
                 xlink:href="#DejaVuSans-49"
                 id="use62"
                 style="stroke-linecap:butt;stroke-linejoin:round"
                 y="0"
                 width="100%"
                 height="100%" />
              <use
                 x="147.41211"
                 xlink:href="#DejaVuSans-52"
                 id="use64"
                 style="stroke-linecap:butt;stroke-linejoin:round"
                 y="0"
                 width="100%"
                 height="100%" />
              <use
                 x="211.03516"
                 xlink:href="#DejaVuSans-46"
                 id="use66"
                 style="stroke-linecap:butt;stroke-linejoin:round"
                 y="0"
                 width="100%"
                 height="100%" />
              <use
                 x="242.82227"
                 xlink:href="#DejaVuSans-48"
                 id="use68"
                 style="stroke-linecap:butt;stroke-linejoin:round"
                 y="0"
                 width="100%"
                 height="100%" />
            </g>
          </g>
        </g>
        <g
           id="ytick_2"
           style="stroke-linecap:butt;stroke-linejoin:round">
          <g
             id="line2d_2"
             style="stroke-linecap:butt;stroke-linejoin:round">
            <g
               id="g76"
               style="stroke-linecap:butt;stroke-linejoin:round">
              <use
                 style="stroke:#000000;stroke-width:0.80000001;stroke-linecap:butt;stroke-linejoin:round"
                 x="54"
                 xlink:href="#m92442f391b"
                 y="211.23"
                 id="use74"
                 width="100%"
                 height="100%" />
            </g>
          </g>
          <g
             id="text_2"
             style="stroke-linecap:butt;stroke-linejoin:round">
            <!-- −10.5 -->
            <g
               transform="matrix(0.18,0,0,-0.18,-8.161562,218.06859)"
               id="g92"
               style="stroke-linecap:butt;stroke-linejoin:round">
              <defs
                 id="defs80">
                <path
                   d="m 10.796875,72.90625 h 38.71875 v -8.3125 h -29.6875 V 46.734375 q 2.140625,0.734375 4.28125,1.09375 2.15625,0.359375 4.3125,0.359375 Q 40.625,48.1875 47.75,41.5 54.890625,34.8125 54.890625,23.390625 54.890625,11.625 47.5625,5.09375 40.234375,-1.421875 26.90625,-1.421875 q -4.59375,0 -9.359375,0.78125 -4.75,0.78125 -9.828125,2.34375 V 11.625 q 4.390625,-2.390625 9.078125,-3.5625 4.6875,-1.171875 9.90625,-1.171875 8.453125,0 13.375,4.4375 4.9375,4.4375 4.9375,12.0625 0,7.609375 -4.9375,12.046875 -4.921875,4.453125 -13.375,4.453125 -3.953125,0 -7.890625,-0.875 -3.921875,-0.875 -8.015625,-2.734375 z"
                   id="DejaVuSans-53"
                   inkscape:connector-curvature="0"
                   style="stroke-linecap:butt;stroke-linejoin:round" />
              </defs>
              <use
                 xlink:href="#DejaVuSans-8722"
                 id="use82"
                 style="stroke-linecap:butt;stroke-linejoin:round"
                 x="0"
                 y="0"
                 width="100%"
                 height="100%" />
              <use
                 x="83.789062"
                 xlink:href="#DejaVuSans-49"
                 id="use84"
                 style="stroke-linecap:butt;stroke-linejoin:round"
                 y="0"
                 width="100%"
                 height="100%" />
              <use
                 x="147.41211"
                 xlink:href="#DejaVuSans-48"
                 id="use86"
                 style="stroke-linecap:butt;stroke-linejoin:round"
                 y="0"
                 width="100%"
                 height="100%" />
              <use
                 x="211.03516"
                 xlink:href="#DejaVuSans-46"
                 id="use88"
                 style="stroke-linecap:butt;stroke-linejoin:round"
                 y="0"
                 width="100%"
                 height="100%" />
              <use
                 x="242.82227"
                 xlink:href="#DejaVuSans-53"
                 id="use90"
                 style="stroke-linecap:butt;stroke-linejoin:round"
                 y="0"
                 width="100%"
                 height="100%" />
            </g>
          </g>
        </g>
        <g
           id="ytick_3"
           style="stroke-linecap:butt;stroke-linejoin:round">
          <g
             id="line2d_3"
             style="stroke-linecap:butt;stroke-linejoin:round">
            <g
               id="g98"
               style="stroke-linecap:butt;stroke-linejoin:round">
              <use
                 style="stroke:#000000;stroke-width:0.80000001;stroke-linecap:butt;stroke-linejoin:round"
                 x="54"
                 xlink:href="#m92442f391b"
                 y="179.52"
                 id="use96"
                 width="100%"
                 height="100%" />
            </g>
          </g>
          <g
             id="text_3"
             style="stroke-linecap:butt;stroke-linejoin:round">
            <!-- −7.0 -->
            <g
               transform="matrix(0.18,0,0,-0.18,3.290937,186.35859)"
               id="g112"
               style="stroke-linecap:butt;stroke-linejoin:round">
              <defs
                 id="defs102">
                <path
                   d="m 8.203125,72.90625 h 46.875 V 68.703125 L 28.609375,0 H 18.3125 L 43.21875,64.59375 H 8.203125 Z"
                   id="DejaVuSans-55"
                   inkscape:connector-curvature="0"
                   style="stroke-linecap:butt;stroke-linejoin:round" />
              </defs>
              <use
                 xlink:href="#DejaVuSans-8722"
                 id="use104"
                 style="stroke-linecap:butt;stroke-linejoin:round"
                 x="0"
                 y="0"
                 width="100%"
                 height="100%" />
              <use
                 x="83.789062"
                 xlink:href="#DejaVuSans-55"
                 id="use106"
                 style="stroke-linecap:butt;stroke-linejoin:round"
                 y="0"
                 width="100%"
                 height="100%" />
              <use
                 x="147.41211"
                 xlink:href="#DejaVuSans-46"
                 id="use108"
                 style="stroke-linecap:butt;stroke-linejoin:round"
                 y="0"
                 width="100%"
                 height="100%" />
              <use
                 x="179.19922"
                 xlink:href="#DejaVuSans-48"
                 id="use110"
                 style="stroke-linecap:butt;stroke-linejoin:round"
                 y="0"
                 width="100%"
                 height="100%" />
            </g>
          </g>
        </g>
        <g
           id="ytick_4"
           style="stroke-linecap:butt;stroke-linejoin:round">
          <g
             id="line2d_4"
             style="stroke-linecap:butt;stroke-linejoin:round">
            <g
               id="g118"
               style="stroke-linecap:butt;stroke-linejoin:round">
              <use
                 style="stroke:#000000;stroke-width:0.80000001;stroke-linecap:butt;stroke-linejoin:round"
                 x="54"
                 xlink:href="#m92442f391b"
                 y="147.81"
                 id="use116"
                 width="100%"
                 height="100%" />
            </g>
          </g>
          <g
             id="text_4"
             style="stroke-linecap:butt;stroke-linejoin:round">
            <!-- −3.5 -->
            <g
               transform="matrix(0.18,0,0,-0.18,3.290937,154.64859)"
               id="g132"
               style="stroke-linecap:butt;stroke-linejoin:round">
              <defs
                 id="defs122">
                <path
                   d="M 40.578125,39.3125 Q 47.65625,37.796875 51.625,33 q 3.984375,-4.78125 3.984375,-11.8125 0,-10.78125 -7.421875,-16.703125 -7.421875,-5.90625 -21.09375,-5.90625 -4.578125,0 -9.4375,0.90625 -4.859375,0.90625 -10.03125,2.71875 v 9.515625 q 4.09375,-2.390625 8.96875,-3.609375 4.890625,-1.21875 10.21875,-1.21875 9.265625,0 14.125,3.65625 4.859375,3.65625 4.859375,10.640625 0,6.453125 -4.515625,10.078125 -4.515625,3.640625 -12.5625,3.640625 h -8.5 v 8.109375 h 8.890625 q 7.265625,0 11.125,2.90625 3.859375,2.90625 3.859375,8.375 0,5.609375 -3.984375,8.609375 -3.96875,3.015625 -11.390625,3.015625 -4.0625,0 -8.703125,-0.890625 Q 15.375,64.15625 9.8125,62.3125 v 8.78125 q 5.625,1.5625 10.53125,2.34375 4.90625,0.78125 9.25,0.78125 11.234375,0 17.765625,-5.109375 6.546875,-5.09375 6.546875,-13.78125 0,-6.0625 -3.46875,-10.234375 -3.46875,-4.171875 -9.859375,-5.78125 z"
                   id="DejaVuSans-51"
                   inkscape:connector-curvature="0"
                   style="stroke-linecap:butt;stroke-linejoin:round" />
              </defs>
              <use
                 xlink:href="#DejaVuSans-8722"
                 id="use124"
                 style="stroke-linecap:butt;stroke-linejoin:round"
                 x="0"
                 y="0"
                 width="100%"
                 height="100%" />
              <use
                 x="83.789062"
                 xlink:href="#DejaVuSans-51"
                 id="use126"
                 style="stroke-linecap:butt;stroke-linejoin:round"
                 y="0"
                 width="100%"
                 height="100%" />
              <use
                 x="147.41211"
                 xlink:href="#DejaVuSans-46"
                 id="use128"
                 style="stroke-linecap:butt;stroke-linejoin:round"
                 y="0"
                 width="100%"
                 height="100%" />
              <use
                 x="179.19922"
                 xlink:href="#DejaVuSans-53"
                 id="use130"
                 style="stroke-linecap:butt;stroke-linejoin:round"
                 y="0"
                 width="100%"
                 height="100%" />
            </g>
          </g>
        </g>
        <g
           id="ytick_5"
           style="stroke-linecap:butt;stroke-linejoin:round">
          <g
             id="line2d_5"
             style="stroke-linecap:butt;stroke-linejoin:round">
            <g
               id="g138"
               style="stroke-linecap:butt;stroke-linejoin:round">
              <use
                 style="stroke:#000000;stroke-width:0.80000001;stroke-linecap:butt;stroke-linejoin:round"
                 x="54"
                 xlink:href="#m92442f391b"
                 y="116.1"
                 id="use136"
                 width="100%"
                 height="100%" />
            </g>
          </g>
          <g
             id="text_5"
             style="stroke-linecap:butt;stroke-linejoin:round">
            <!-- 0.0 -->
            <g
               transform="matrix(0.18,0,0,-0.18,18.374375,122.93859)"
               id="g147"
               style="stroke-linecap:butt;stroke-linejoin:round">
              <use
                 xlink:href="#DejaVuSans-48"
                 id="use141"
                 style="stroke-linecap:butt;stroke-linejoin:round"
                 x="0"
                 y="0"
                 width="100%"
                 height="100%" />
              <use
                 x="63.623047"
                 xlink:href="#DejaVuSans-46"
                 id="use143"
                 style="stroke-linecap:butt;stroke-linejoin:round"
                 y="0"
                 width="100%"
                 height="100%" />
              <use
                 x="95.410156"
                 xlink:href="#DejaVuSans-48"
                 id="use145"
                 style="stroke-linecap:butt;stroke-linejoin:round"
                 y="0"
                 width="100%"
                 height="100%" />
            </g>
          </g>
        </g>
        <g
           id="ytick_6"
           style="stroke-linecap:butt;stroke-linejoin:round">
          <g
             id="line2d_6"
             style="stroke-linecap:butt;stroke-linejoin:round">
            <g
               id="g153"
               style="stroke-linecap:butt;stroke-linejoin:round">
              <use
                 style="stroke:#000000;stroke-width:0.80000001;stroke-linecap:butt;stroke-linejoin:round"
                 x="54"
                 xlink:href="#m92442f391b"
                 y="84.389999"
                 id="use151"
                 width="100%"
                 height="100%" />
            </g>
          </g>
          <g
             id="text_6"
             style="stroke-linecap:butt;stroke-linejoin:round">
            <!-- 3.5 -->
            <g
               transform="matrix(0.18,0,0,-0.18,18.374375,91.228594)"
               id="g162"
               style="stroke-linecap:butt;stroke-linejoin:round">
              <use
                 xlink:href="#DejaVuSans-51"
                 id="use156"
                 style="stroke-linecap:butt;stroke-linejoin:round"
                 x="0"
                 y="0"
                 width="100%"
                 height="100%" />
              <use
                 x="63.623047"
                 xlink:href="#DejaVuSans-46"
                 id="use158"
                 style="stroke-linecap:butt;stroke-linejoin:round"
                 y="0"
                 width="100%"
                 height="100%" />
              <use
                 x="95.410156"
                 xlink:href="#DejaVuSans-53"
                 id="use160"
                 style="stroke-linecap:butt;stroke-linejoin:round"
                 y="0"
                 width="100%"
                 height="100%" />
            </g>
          </g>
        </g>
        <g
           id="ytick_7"
           style="stroke-linecap:butt;stroke-linejoin:round">
          <g
             id="line2d_7"
             style="stroke-linecap:butt;stroke-linejoin:round">
            <g
               id="g168"
               style="stroke-linecap:butt;stroke-linejoin:round">
              <use
                 style="stroke:#000000;stroke-width:0.80000001;stroke-linecap:butt;stroke-linejoin:round"
                 x="54"
                 xlink:href="#m92442f391b"
                 y="52.68"
                 id="use166"
                 width="100%"
                 height="100%" />
            </g>
          </g>
          <g
             id="text_7"
             style="stroke-linecap:butt;stroke-linejoin:round">
            <!-- 7.0 -->
            <g
               transform="matrix(0.18,0,0,-0.18,18.374375,59.518594)"
               id="g177"
               style="stroke-linecap:butt;stroke-linejoin:round">
              <use
                 xlink:href="#DejaVuSans-55"
                 id="use171"
                 style="stroke-linecap:butt;stroke-linejoin:round"
                 x="0"
                 y="0"
                 width="100%"
                 height="100%" />
              <use
                 x="63.623047"
                 xlink:href="#DejaVuSans-46"
                 id="use173"
                 style="stroke-linecap:butt;stroke-linejoin:round"
                 y="0"
                 width="100%"
                 height="100%" />
              <use
                 x="95.410156"
                 xlink:href="#DejaVuSans-48"
                 id="use175"
                 style="stroke-linecap:butt;stroke-linejoin:round"
                 y="0"
                 width="100%"
                 height="100%" />
            </g>
          </g>
        </g>
        <g
           id="text_8"
           style="stroke-linecap:butt;stroke-linejoin:round">
          <!-- Z-score -->
          <g
             transform="matrix(0,-0.18,-0.18,0,-15.905,176.71359)"
             id="g204"
             style="stroke-linecap:butt;stroke-linejoin:round">
            <defs
               id="defs188">
              <path
                 d="m 5.609375,72.90625 h 57.28125 V 65.375 L 16.796875,8.296875 h 47.21875 V 0 H 4.5 V 7.515625 L 50.59375,64.59375 H 5.609375 Z"
                 id="DejaVuSans-90"
                 inkscape:connector-curvature="0"
                 style="stroke-linecap:butt;stroke-linejoin:round" />
              <path
                 d="m 4.890625,31.390625 h 26.3125 v -8 h -26.3125 z"
                 id="DejaVuSans-45"
                 inkscape:connector-curvature="0"
                 style="stroke-linecap:butt;stroke-linejoin:round" />
              <path
                 d="m 44.28125,53.078125 v -8.5 Q 40.484375,46.53125 36.375,47.5 q -4.09375,0.984375 -8.5,0.984375 -6.6875,0 -10.03125,-2.046875 Q 14.5,44.390625 14.5,40.28125 q 0,-3.125 2.390625,-4.90625 2.390625,-1.78125 9.625,-3.390625 l 3.078125,-0.6875 Q 39.15625,29.25 43.1875,25.515625 47.21875,21.78125 47.21875,15.09375 q 0,-7.625 -6.03125,-12.078125 -6.03125,-4.4375 -16.578125,-4.4375 -4.390625,0 -9.15625,0.859375 Q 10.6875,0.296875 5.421875,2 v 9.28125 q 4.984375,-2.59375 9.8125,-3.890625 4.828125,-1.28125 9.578125,-1.28125 6.34375,0 9.75,2.171875 3.421875,2.171875 3.421875,6.125 0,3.65625 -2.46875,5.609375 -2.453125,1.953125 -10.8125,3.765625 l -3.125,0.734375 q -8.34375,1.75 -12.0625,5.390625 -3.703125,3.640625 -3.703125,9.984375 0,7.71875 5.46875,11.90625 Q 16.75,56 26.8125,56 q 4.96875,0 9.359375,-0.734375 4.40625,-0.71875 8.109375,-2.1875 z"
                 id="DejaVuSans-115"
                 inkscape:connector-curvature="0"
                 style="stroke-linecap:butt;stroke-linejoin:round" />
              <path
                 d="M 48.78125,52.59375 V 44.1875 q -3.8125,2.109375 -7.640625,3.15625 -3.828125,1.046875 -7.734375,1.046875 -8.75,0 -13.59375,-5.546875 -4.828125,-5.53125 -4.828125,-15.546875 0,-10.015625 4.828125,-15.5625 4.84375,-5.53125 13.59375,-5.53125 3.90625,0 7.734375,1.046875 3.828125,1.046875 7.640625,3.15625 v -8.3125 q -3.765625,-1.75 -7.796875,-2.625 -4.015625,-0.890625 -8.5625,-0.890625 -12.359375,0 -19.640625,7.765625 -7.265625,7.765625 -7.265625,20.953125 0,13.375 7.34375,21.03125 Q 20.21875,56 33.015625,56 q 4.140625,0 8.09375,-0.859375 3.953125,-0.84375 7.671875,-2.546875 z"
                 id="DejaVuSans-99"
                 inkscape:connector-curvature="0"
                 style="stroke-linecap:butt;stroke-linejoin:round" />
              <path
                 d="m 30.609375,48.390625 q -7.21875,0 -11.421875,-5.640625 -4.203125,-5.640625 -4.203125,-15.453125 0,-9.8125 4.171875,-15.453125 4.1875,-5.640625 11.453125,-5.640625 7.1875,0 11.375,5.65625 4.203125,5.671875 4.203125,15.4375 0,9.71875 -4.203125,15.40625 -4.1875,5.6875 -11.375,5.6875 z m 0,7.609375 q 11.71875,0 18.40625,-7.625 6.703125,-7.609375 6.703125,-21.078125 0,-13.421875 -6.703125,-21.078125 -6.6875,-7.640625 -18.40625,-7.640625 -11.765625,0 -18.4375,7.640625 -6.65625,7.65625 -6.65625,21.078125 0,13.46875 6.65625,21.078125 Q 18.84375,56 30.609375,56 Z"
                 id="DejaVuSans-111"
                 inkscape:connector-curvature="0"
                 style="stroke-linecap:butt;stroke-linejoin:round" />
              <path
                 d="m 41.109375,46.296875 q -1.515625,0.875 -3.296875,1.28125 Q 36.03125,48 33.890625,48 26.265625,48 22.1875,43.046875 18.109375,38.09375 18.109375,28.8125 V 0 h -9.03125 v 54.6875 h 9.03125 v -8.5 q 2.84375,4.984375 7.375,7.390625 Q 30.03125,56 36.53125,56 q 0.921875,0 2.046875,-0.125 1.125,-0.109375 2.484375,-0.359375 z"
                 id="DejaVuSans-114"
                 inkscape:connector-curvature="0"
                 style="stroke-linecap:butt;stroke-linejoin:round" />
              <path
                 d="m 56.203125,29.59375 v -4.390625 h -41.3125 q 0.59375,-9.28125 5.59375,-14.140625 5,-4.859375 13.9375,-4.859375 5.171875,0 10.03125,1.265625 4.859375,1.265625 9.65625,3.8125 v -8.5 q -4.84375,-2.046875 -9.921875,-3.125 -5.078125,-1.078125 -10.296875,-1.078125 -13.09375,0 -20.734375,7.609375 -7.640625,7.625 -7.640625,20.625 0,13.421875 7.25,21.296875 Q 20.015625,56 32.328125,56 q 11.03125,0 17.453125,-7.109375 6.421875,-7.09375 6.421875,-19.296875 z m -8.984375,2.640625 q -0.09375,7.359375 -4.125,11.75 -4.03125,4.40625 -10.671875,4.40625 -7.515625,0 -12.03125,-4.25 -4.515625,-4.25 -5.203125,-11.96875 z"
                 id="DejaVuSans-101"
                 inkscape:connector-curvature="0"
                 style="stroke-linecap:butt;stroke-linejoin:round" />
            </defs>
            <use
               xlink:href="#DejaVuSans-90"
               id="use190"
               style="stroke-linecap:butt;stroke-linejoin:round"
               x="0"
               y="0"
               width="100%"
               height="100%" />
            <use
               x="66.755859"
               xlink:href="#DejaVuSans-45"
               id="use192"
               style="stroke-linecap:butt;stroke-linejoin:round"
               y="0"
               width="100%"
               height="100%" />
            <use
               x="102.83984"
               xlink:href="#DejaVuSans-115"
               id="use194"
               style="stroke-linecap:butt;stroke-linejoin:round"
               y="0"
               width="100%"
               height="100%" />
            <use
               x="154.93945"
               xlink:href="#DejaVuSans-99"
               id="use196"
               style="stroke-linecap:butt;stroke-linejoin:round"
               y="0"
               width="100%"
               height="100%" />
            <use
               x="209.91992"
               xlink:href="#DejaVuSans-111"
               id="use198"
               style="stroke-linecap:butt;stroke-linejoin:round"
               y="0"
               width="100%"
               height="100%" />
            <use
               x="271.10156"
               xlink:href="#DejaVuSans-114"
               id="use200"
               style="stroke-linecap:butt;stroke-linejoin:round"
               y="0"
               width="100%"
               height="100%" />
            <use
               x="309.96484"
               xlink:href="#DejaVuSans-101"
               id="use202"
               style="stroke-linecap:butt;stroke-linejoin:round"
               y="0"
               width="100%"
               height="100%" />
          </g>
        </g>
      </g>
      <g
         id="patch_13"
         style="stroke-linecap:butt;stroke-linejoin:round">
        <path
           d="M 54,252 V 34.56"
           style="fill:none;stroke:#000000;stroke-width:0.80000001;stroke-linecap:square;stroke-linejoin:miter"
           id="path208"
           inkscape:connector-curvature="0" />
      </g>
      <g
         id="patch_14"
         transform="translate(-179.27378)"
         style="stroke-linecap:butt;stroke-linejoin:round">
        <path
           d="M 388.8,252 V 34.56"
           style="fill:none;stroke:#000000;stroke-width:0.80000001;stroke-linecap:square;stroke-linejoin:miter"
           id="path211"
           inkscape:connector-curvature="0" />
      </g>
      <g
         id="patch_15"
         transform="matrix(0.46453471,0,0,1,28.915126,0)"
         style="stroke-linecap:butt;stroke-linejoin:round">
        <path
           d="M 54,252 H 388.8"
           style="fill:none;stroke:#000000;stroke-width:0.80000001;stroke-linecap:square;stroke-linejoin:miter"
           id="path214"
           inkscape:connector-curvature="0" />
      </g>
      <g
         id="patch_16"
         transform="matrix(0.46453471,0,0,1,28.915126,0)"
         style="stroke-linecap:butt;stroke-linejoin:round">
        <path
           d="M 54,34.56 H 388.8"
           style="fill:none;stroke:#000000;stroke-width:0.80000001;stroke-linecap:square;stroke-linejoin:miter"
           id="path217"
           inkscape:connector-curvature="0" />
      </g>
      <g
         id="text_9"
         transform="translate(-90.855934,-2.2633557)"
         style="stroke-linecap:butt;stroke-linejoin:round">
        <!-- $\it{E.coli}$ graph -->
        <g
           transform="matrix(0.216,0,0,-0.216,155.412,28.56)"
           id="g256"
           style="stroke-linecap:butt;stroke-linejoin:round">
          <defs
             id="defs230">
            <path
               d="m 16.890625,72.90625 h 46.09375 L 61.375,64.59375 H 25.09375 l -4.1875,-21.578125 h 34.8125 L 54.109375,34.71875 H 19.28125 L 14.203125,8.296875 H 51.3125 L 49.703125,0 H 2.6875 Z"
               id="DejaVuSans-Oblique-69"
               inkscape:connector-curvature="0"
               style="stroke-linecap:butt;stroke-linejoin:round" />
            <path
               d="M 53.609375,52.59375 51.8125,43.703125 q -3.234375,2.34375 -6.875,3.515625 -3.625,1.171875 -7.53125,1.171875 -4.296875,0 -8.1875,-1.515625 -3.875,-1.515625 -6.515625,-4.296875 -4.203125,-4.25 -6.5,-9.96875 -2.28125,-5.703125 -2.28125,-11.8125 0,-7.375 3.6875,-10.984375 3.6875,-3.609375 11.203125,-3.609375 3.703125,0 7.875,1.125 4.1875,1.125 8.71875,3.359375 l -1.703125,-8.875 q -3.90625,-1.609375 -8.03125,-2.421875 -4.125,-0.8125 -8.46875,-0.8125 -10.890625,0 -16.75,5.4375 -5.859375,5.453125 -5.859375,15.5625 0,8.5 3.046875,15.65625 3.046875,7.15625 9.0625,12.859375 Q 20.796875,52 26.3125,54 q 5.53125,2 12.0625,2 3.8125,0 7.5625,-0.859375 3.765625,-0.84375 7.671875,-2.546875 z"
               id="DejaVuSans-Oblique-99"
               inkscape:connector-curvature="0"
               style="stroke-linecap:butt;stroke-linejoin:round" />
            <path
               d="m 25.390625,-1.421875 q -9.625,0 -15.21875,5.9375 -5.578125,5.9375 -5.578125,16.1875 0,5.953125 1.921875,12.125 1.9375,6.1875 5.015625,10.390625 Q 16.359375,49.75 22.3125,52.875 28.265625,56 35.796875,56 q 9.328125,0 15.0625,-5.8125 5.734375,-5.796875 5.734375,-15.171875 0,-6.5 -1.90625,-12.953125 Q 52.78125,15.625 49.703125,11.375 44.921875,4.828125 38.96875,1.703125 q -5.953125,-3.125 -13.578125,-3.125 z M 13.921875,21 q 0,-7.421875 3.09375,-11.109375 3.109375,-3.6875 9.40625,-3.6875 9.03125,0 14.953125,7.875 5.9375,7.890625 5.9375,20 0,7.078125 -3.171875,10.6875 -3.171875,3.625 -9.328125,3.625 -5.078125,0 -9.03125,-2.375 Q 21.828125,43.65625 18.703125,38.8125 16.40625,35.203125 15.15625,30.5625 13.921875,25.921875 13.921875,21 Z"
               id="DejaVuSans-Oblique-111"
               inkscape:connector-curvature="0"
               style="stroke-linecap:butt;stroke-linejoin:round" />
            <path
               d="m 18.3125,75.984375 h 8.984375 L 12.5,0 H 3.515625 Z"
               id="DejaVuSans-Oblique-108"
               inkscape:connector-curvature="0"
               style="stroke-linecap:butt;stroke-linejoin:round" />
            <path
               d="m 18.3125,75.984375 h 8.984375 L 25.09375,64.59375 H 16.109375 Z M 14.203125,54.6875 H 23.1875 L 12.5,0 H 3.515625 Z"
               id="DejaVuSans-Oblique-105"
               inkscape:connector-curvature="0"
               style="stroke-linecap:butt;stroke-linejoin:round" />
            <path
               id="DejaVuSans-32"
               inkscape:connector-curvature="0"
               style="stroke-linecap:butt;stroke-linejoin:round" />
            <path
               d="m 45.40625,27.984375 q 0,9.765625 -4.03125,15.125 -4.015625,5.375 -11.296875,5.375 -7.21875,0 -11.25,-5.375 -4.03125,-5.359375 -4.03125,-15.125 0,-9.71875 4.03125,-15.09375 4.03125,-5.375 11.25,-5.375 7.28125,0 11.296875,5.375 4.03125,5.375 4.03125,15.09375 z M 54.390625,6.78125 q 0,-13.953125 -6.203125,-20.765625 -6.1875,-6.8125 -18.984375,-6.8125 -4.734375,0 -8.9375,0.703125 -4.203125,0.703125 -8.15625,2.171875 V -9.1875 q 3.953125,-2.140625 7.8125,-3.15625 3.859375,-1.03125 7.859375,-1.03125 8.84375,0 13.234375,4.609375 4.390625,4.609375 4.390625,13.9375 V 9.625 Q 42.625,4.78125 38.28125,2.390625 33.9375,0 27.875,0 17.828125,0 11.671875,7.65625 q -6.15625,7.671875 -6.15625,20.328125 0,12.6875 6.15625,20.34375 Q 17.828125,56 27.875,56 q 6.0625,0 10.40625,-2.390625 4.34375,-2.390625 7.125,-7.21875 V 54.6875 h 8.984375 z"
               id="DejaVuSans-103"
               inkscape:connector-curvature="0"
               style="stroke-linecap:butt;stroke-linejoin:round" />
            <path
               d="m 34.28125,27.484375 q -10.890625,0 -15.09375,-2.484375 -4.203125,-2.484375 -4.203125,-8.5 0,-4.78125 3.15625,-7.59375 3.15625,-2.796875 8.5625,-2.796875 7.484375,0 12,5.296875 4.515625,5.296875 4.515625,14.078125 v 2 z m 17.921875,3.71875 V 0 H 43.21875 v 8.296875 q -3.078125,-4.96875 -7.671875,-7.34375 -4.59375,-2.375 -11.234375,-2.375 -8.390625,0 -13.359375,4.71875 Q 6,8.015625 6,15.921875 q 0,9.21875 6.171875,13.90625 6.1875,4.6875 18.4375,4.6875 H 43.21875 v 0.890625 q 0,6.203125 -4.078125,9.59375 -4.078125,3.390625 -11.453125,3.390625 -4.6875,0 -9.140625,-1.125 -4.4375,-1.125 -8.53125,-3.375 v 8.3125 q 4.921875,1.90625 9.5625,2.84375 Q 24.21875,56 28.609375,56 q 11.875,0 17.734375,-6.15625 5.859375,-6.140625 5.859375,-18.640625 z"
               id="DejaVuSans-97"
               inkscape:connector-curvature="0"
               style="stroke-linecap:butt;stroke-linejoin:round" />
            <path
               d="m 18.109375,8.203125 v -29 H 9.078125 V 54.6875 h 9.03125 v -8.296875 q 2.84375,4.875 7.15625,7.234375 Q 29.59375,56 35.59375,56 q 9.96875,0 16.1875,-7.90625 6.234375,-7.90625 6.234375,-20.796875 0,-12.890625 -6.234375,-20.8125 -6.21875,-7.90625 -16.1875,-7.90625 -6,0 -10.328125,2.375 -4.3125,2.375 -7.15625,7.25 z M 48.6875,27.296875 q 0,9.90625 -4.078125,15.546875 -4.078125,5.640625 -11.203125,5.640625 -7.140625,0 -11.21875,-5.640625 -4.078125,-5.640625 -4.078125,-15.546875 0,-9.90625 4.078125,-15.546875 4.078125,-5.640625 11.21875,-5.640625 7.125,0 11.203125,5.640625 4.078125,5.640625 4.078125,15.546875 z"
               id="DejaVuSans-112"
               inkscape:connector-curvature="0"
               style="stroke-linecap:butt;stroke-linejoin:round" />
            <path
               d="M 54.890625,33.015625 V 0 H 45.90625 v 32.71875 q 0,7.765625 -3.03125,11.609375 -3.03125,3.859375 -9.078125,3.859375 -7.28125,0 -11.484375,-4.640625 -4.203125,-4.625 -4.203125,-12.640625 V 0 h -9.03125 v 75.984375 h 9.03125 V 46.1875 q 3.234375,4.9375 7.59375,7.375 4.375,2.4375 10.09375,2.4375 9.421875,0 14.25,-5.828125 4.84375,-5.828125 4.84375,-17.15625 z"
               id="DejaVuSans-104"
               inkscape:connector-curvature="0"
               style="stroke-linecap:butt;stroke-linejoin:round" />
          </defs>
          <use
             transform="translate(0,0.015625)"
             xlink:href="#DejaVuSans-Oblique-69"
             id="use232"
             style="stroke-linecap:butt;stroke-linejoin:round"
             x="0"
             y="0"
             width="100%"
             height="100%" />
          <use
             transform="translate(63.183594,0.015625)"
             xlink:href="#DejaVuSans-46"
             id="use234"
             style="stroke-linecap:butt;stroke-linejoin:round"
             x="0"
             y="0"
             width="100%"
             height="100%" />
          <use
             transform="translate(114.45313,0.015625)"
             xlink:href="#DejaVuSans-Oblique-99"
             id="use236"
             style="stroke-linecap:butt;stroke-linejoin:round"
             x="0"
             y="0"
             width="100%"
             height="100%" />
          <use
             transform="translate(169.43359,0.015625)"
             xlink:href="#DejaVuSans-Oblique-111"
             id="use238"
             style="stroke-linecap:butt;stroke-linejoin:round"
             x="0"
             y="0"
             width="100%"
             height="100%" />
          <use
             transform="translate(230.61523,0.015625)"
             xlink:href="#DejaVuSans-Oblique-108"
             id="use240"
             style="stroke-linecap:butt;stroke-linejoin:round"
             x="0"
             y="0"
             width="100%"
             height="100%" />
          <use
             transform="translate(258.39844,0.015625)"
             xlink:href="#DejaVuSans-Oblique-105"
             id="use242"
             style="stroke-linecap:butt;stroke-linejoin:round"
             x="0"
             y="0"
             width="100%"
             height="100%" />
          <use
             transform="translate(286.18164,0.015625)"
             xlink:href="#DejaVuSans-32"
             id="use244"
             style="stroke-linecap:butt;stroke-linejoin:round"
             x="0"
             y="0"
             width="100%"
             height="100%" />
          <use
             transform="translate(317.96875,0.015625)"
             xlink:href="#DejaVuSans-103"
             id="use246"
             style="stroke-linecap:butt;stroke-linejoin:round"
             x="0"
             y="0"
             width="100%"
             height="100%" />
          <use
             transform="translate(381.44531,0.015625)"
             xlink:href="#DejaVuSans-114"
             id="use248"
             style="stroke-linecap:butt;stroke-linejoin:round"
             x="0"
             y="0"
             width="100%"
             height="100%" />
          <use
             transform="translate(422.55859,0.015625)"
             xlink:href="#DejaVuSans-97"
             id="use250"
             style="stroke-linecap:butt;stroke-linejoin:round"
             x="0"
             y="0"
             width="100%"
             height="100%" />
          <use
             transform="translate(483.83789,0.015625)"
             xlink:href="#DejaVuSans-112"
             id="use252"
             style="stroke-linecap:butt;stroke-linejoin:round"
             x="0"
             y="0"
             width="100%"
             height="100%" />
          <use
             transform="translate(547.31445,0.015625)"
             xlink:href="#DejaVuSans-104"
             id="use254"
             style="stroke-linecap:butt;stroke-linejoin:round"
             x="0"
             y="0"
             width="100%"
             height="100%" />
        </g>
      </g>
    </g>
  </g>
  <defs
     id="defs264">
    <clipPath
       id="pf1bf7efd7d"
       style="stroke-linecap:butt;stroke-linejoin:round">
      <rect
         height="217.44"
         width="334.79999"
         x="54"
         y="34.560001"
         id="rect261"
         style="stroke-linecap:butt;stroke-linejoin:round" />
    </clipPath>
  </defs>
</svg>
