<?xml version="1.0" encoding="utf-8" standalone="no"?>
<!DOCTYPE svg PUBLIC "-//W3C//DTD SVG 1.1//EN"
  "http://www.w3.org/Graphics/SVG/1.1/DTD/svg11.dtd">
<!-- Created with matplotlib (https://matplotlib.org/) -->
<svg height="1296pt" version="1.1" viewBox="0 0 1440 1296" width="1440pt" xmlns="http://www.w3.org/2000/svg" xmlns:xlink="http://www.w3.org/1999/xlink">
 <metadata>
  <rdf:RDF xmlns:cc="http://creativecommons.org/ns#" xmlns:dc="http://purl.org/dc/elements/1.1/" xmlns:rdf="http://www.w3.org/1999/02/22-rdf-syntax-ns#">
   <cc:Work>
    <dc:type rdf:resource="http://purl.org/dc/dcmitype/StillImage"/>
    <dc:date>2021-10-26T14:21:36.059867</dc:date>
    <dc:format>image/svg+xml</dc:format>
    <dc:creator>
     <cc:Agent>
      <dc:title>Matplotlib v3.3.4, https://matplotlib.org/</dc:title>
     </cc:Agent>
    </dc:creator>
   </cc:Work>
  </rdf:RDF>
 </metadata>
 <defs>
  <style type="text/css">*{stroke-linecap:butt;stroke-linejoin:round;}</style>
 </defs>
 <g id="figure_1">
  <g id="patch_1">
   <path d="M 0 1296 
L 1440 1296 
L 1440 0 
L 0 0 
z
" style="fill:none;"/>
  </g>
  <g id="axes_1">
   <g id="patch_2">
    <path d="M 150.833333 508.5 
L 656.25 508.5 
L 656.25 42.75 
L 150.833333 42.75 
z
" style="fill:#ffffff;"/>
   </g>
   <g id="patch_3">
    <path clip-path="url(#p328f338fde)" d="M 182.421875 508.5 
L 195.057292 508.5 
L 195.057292 503.887164 
L 182.421875 503.887164 
z
" style="fill:#1b9e77;"/>
   </g>
   <g id="patch_4">
    <path clip-path="url(#p328f338fde)" d="M 308.776042 508.5 
L 321.411458 508.5 
L 321.411458 503.370802 
L 308.776042 503.370802 
z
" style="fill:#1b9e77;"/>
   </g>
   <g id="patch_5">
    <path clip-path="url(#p328f338fde)" d="M 435.130208 508.5 
L 447.765625 508.5 
L 447.765625 503.405226 
L 435.130208 503.405226 
z
" style="fill:#1b9e77;"/>
   </g>
   <g id="patch_6">
    <path clip-path="url(#p328f338fde)" d="M 561.484375 508.5 
L 574.119792 508.5 
L 574.119792 503.783892 
L 561.484375 503.783892 
z
" style="fill:#1b9e77;"/>
   </g>
   <g id="patch_7">
    <path clip-path="url(#p328f338fde)" d="M 195.057292 508.5 
L 207.692708 508.5 
L 207.692708 376.483394 
L 195.057292 376.483394 
z
" style="fill:#7570b3;"/>
   </g>
   <g id="patch_8">
    <path clip-path="url(#p328f338fde)" d="M 321.411458 508.5 
L 334.046875 508.5 
L 334.046875 290.113208 
L 321.411458 290.113208 
z
" style="fill:#7570b3;"/>
   </g>
   <g id="patch_9">
    <path clip-path="url(#p328f338fde)" d="M 447.765625 508.5 
L 460.401042 508.5 
L 460.401042 260.439593 
L 447.765625 260.439593 
z
" style="fill:#7570b3;"/>
   </g>
   <g id="patch_10">
    <path clip-path="url(#p328f338fde)" d="M 574.119792 508.5 
L 586.755208 508.5 
L 586.755208 119.094043 
L 574.119792 119.094043 
z
" style="fill:#7570b3;"/>
   </g>
   <g id="patch_11">
    <path clip-path="url(#p328f338fde)" d="M 207.692708 508.5 
L 220.328125 508.5 
L 220.328125 457.793231 
L 207.692708 457.793231 
z
" style="fill:#66a61e;"/>
   </g>
   <g id="patch_12">
    <path clip-path="url(#p328f338fde)" d="M 334.046875 508.5 
L 346.682292 508.5 
L 346.682292 415.279409 
L 334.046875 415.279409 
z
" style="fill:#66a61e;"/>
   </g>
   <g id="patch_13">
    <path clip-path="url(#p328f338fde)" d="M 460.401042 508.5 
L 473.036458 508.5 
L 473.036458 341.74943 
L 460.401042 341.74943 
z
" style="fill:#66a61e;"/>
   </g>
   <g id="patch_14">
    <path clip-path="url(#p328f338fde)" d="M 586.755208 508.5 
L 599.390625 508.5 
L 599.390625 179.40515 
L 586.755208 179.40515 
z
" style="fill:#66a61e;"/>
   </g>
   <g id="patch_15">
    <path clip-path="url(#p328f338fde)" d="M 220.328125 508.5 
L 232.963542 508.5 
L 232.963542 470.530165 
L 220.328125 470.530165 
z
" style="fill:#a6761d;"/>
   </g>
   <g id="patch_16">
    <path clip-path="url(#p328f338fde)" d="M 346.682292 508.5 
L 359.317708 508.5 
L 359.317708 454.350816 
L 346.682292 454.350816 
z
" style="fill:#a6761d;"/>
   </g>
   <g id="patch_17">
    <path clip-path="url(#p328f338fde)" d="M 473.036458 508.5 
L 485.671875 508.5 
L 485.671875 441.441761 
L 473.036458 441.441761 
z
" style="fill:#a6761d;"/>
   </g>
   <g id="patch_18">
    <path clip-path="url(#p328f338fde)" d="M 599.390625 508.5 
L 612.026042 508.5 
L 612.026042 423.610052 
L 599.390625 423.610052 
z
" style="fill:#a6761d;"/>
   </g>
   <g id="patch_19">
    <path clip-path="url(#p328f338fde)" d="M 232.963542 508.5 
L 245.598958 508.5 
L 245.598958 504.300254 
L 232.963542 504.300254 
z
" style="fill:#666666;"/>
   </g>
   <g id="patch_20">
    <path clip-path="url(#p328f338fde)" d="M 359.317708 508.5 
L 371.953125 508.5 
L 371.953125 503.680619 
L 359.317708 503.680619 
z
" style="fill:#666666;"/>
   </g>
   <g id="patch_21">
    <path clip-path="url(#p328f338fde)" d="M 485.671875 508.5 
L 498.307292 508.5 
L 498.307292 503.715043 
L 485.671875 503.715043 
z
" style="fill:#666666;"/>
   </g>
   <g id="patch_22">
    <path clip-path="url(#p328f338fde)" d="M 612.026042 508.5 
L 624.661458 508.5 
L 624.661458 503.818316 
L 612.026042 503.818316 
z
" style="fill:#666666;"/>
   </g>
   <g id="matplotlib.axis_1">
    <g id="xtick_1">
     <g id="line2d_1">
      <defs>
       <path d="M 0 0 
L 0 3.5 
" id="m092843a438" style="stroke:#000000;stroke-width:0.8;"/>
      </defs>
      <g>
       <use style="stroke:#000000;stroke-width:0.8;" x="214.010417" xlink:href="#m092843a438" y="508.5"/>
      </g>
     </g>
     <g id="text_1">
      <!-- 500 -->
      <g transform="translate(220.632917 561.31)rotate(-90)scale(0.24 -0.24)">
       <defs>
        <path d="M 10.796875 72.90625 
L 49.515625 72.90625 
L 49.515625 64.59375 
L 19.828125 64.59375 
L 19.828125 46.734375 
Q 21.96875 47.46875 24.109375 47.828125 
Q 26.265625 48.1875 28.421875 48.1875 
Q 40.625 48.1875 47.75 41.5 
Q 54.890625 34.8125 54.890625 23.390625 
Q 54.890625 11.625 47.5625 5.09375 
Q 40.234375 -1.421875 26.90625 -1.421875 
Q 22.3125 -1.421875 17.546875 -0.640625 
Q 12.796875 0.140625 7.71875 1.703125 
L 7.71875 11.625 
Q 12.109375 9.234375 16.796875 8.0625 
Q 21.484375 6.890625 26.703125 6.890625 
Q 35.15625 6.890625 40.078125 11.328125 
Q 45.015625 15.765625 45.015625 23.390625 
Q 45.015625 31 40.078125 35.4375 
Q 35.15625 39.890625 26.703125 39.890625 
Q 22.75 39.890625 18.8125 39.015625 
Q 14.890625 38.140625 10.796875 36.28125 
z
" id="DejaVuSans-53"/>
        <path d="M 31.78125 66.40625 
Q 24.171875 66.40625 20.328125 58.90625 
Q 16.5 51.421875 16.5 36.375 
Q 16.5 21.390625 20.328125 13.890625 
Q 24.171875 6.390625 31.78125 6.390625 
Q 39.453125 6.390625 43.28125 13.890625 
Q 47.125 21.390625 47.125 36.375 
Q 47.125 51.421875 43.28125 58.90625 
Q 39.453125 66.40625 31.78125 66.40625 
z
M 31.78125 74.21875 
Q 44.046875 74.21875 50.515625 64.515625 
Q 56.984375 54.828125 56.984375 36.375 
Q 56.984375 17.96875 50.515625 8.265625 
Q 44.046875 -1.421875 31.78125 -1.421875 
Q 19.53125 -1.421875 13.0625 8.265625 
Q 6.59375 17.96875 6.59375 36.375 
Q 6.59375 54.828125 13.0625 64.515625 
Q 19.53125 74.21875 31.78125 74.21875 
z
" id="DejaVuSans-48"/>
       </defs>
       <use xlink:href="#DejaVuSans-53"/>
       <use x="63.623047" xlink:href="#DejaVuSans-48"/>
       <use x="127.246094" xlink:href="#DejaVuSans-48"/>
      </g>
     </g>
    </g>
    <g id="xtick_2">
     <g id="line2d_2">
      <g>
       <use style="stroke:#000000;stroke-width:0.8;" x="340.364583" xlink:href="#m092843a438" y="508.5"/>
      </g>
     </g>
     <g id="text_2">
      <!-- 750 -->
      <g transform="translate(346.987083 561.31)rotate(-90)scale(0.24 -0.24)">
       <defs>
        <path d="M 8.203125 72.90625 
L 55.078125 72.90625 
L 55.078125 68.703125 
L 28.609375 0 
L 18.3125 0 
L 43.21875 64.59375 
L 8.203125 64.59375 
z
" id="DejaVuSans-55"/>
       </defs>
       <use xlink:href="#DejaVuSans-55"/>
       <use x="63.623047" xlink:href="#DejaVuSans-53"/>
       <use x="127.246094" xlink:href="#DejaVuSans-48"/>
      </g>
     </g>
    </g>
    <g id="xtick_3">
     <g id="line2d_3">
      <g>
       <use style="stroke:#000000;stroke-width:0.8;" x="466.71875" xlink:href="#m092843a438" y="508.5"/>
      </g>
     </g>
     <g id="text_3">
      <!-- 1000 -->
      <g transform="translate(473.34125 576.58)rotate(-90)scale(0.24 -0.24)">
       <defs>
        <path d="M 12.40625 8.296875 
L 28.515625 8.296875 
L 28.515625 63.921875 
L 10.984375 60.40625 
L 10.984375 69.390625 
L 28.421875 72.90625 
L 38.28125 72.90625 
L 38.28125 8.296875 
L 54.390625 8.296875 
L 54.390625 0 
L 12.40625 0 
z
" id="DejaVuSans-49"/>
       </defs>
       <use xlink:href="#DejaVuSans-49"/>
       <use x="63.623047" xlink:href="#DejaVuSans-48"/>
       <use x="127.246094" xlink:href="#DejaVuSans-48"/>
       <use x="190.869141" xlink:href="#DejaVuSans-48"/>
      </g>
     </g>
    </g>
    <g id="xtick_4">
     <g id="line2d_4">
      <g>
       <use style="stroke:#000000;stroke-width:0.8;" x="593.072917" xlink:href="#m092843a438" y="508.5"/>
      </g>
     </g>
     <g id="text_4">
      <!-- 1500 -->
      <g transform="translate(599.695417 576.58)rotate(-90)scale(0.24 -0.24)">
       <use xlink:href="#DejaVuSans-49"/>
       <use x="63.623047" xlink:href="#DejaVuSans-53"/>
       <use x="127.246094" xlink:href="#DejaVuSans-48"/>
       <use x="190.869141" xlink:href="#DejaVuSans-48"/>
      </g>
     </g>
    </g>
    <g id="text_5">
     <!-- size -->
     <g transform="translate(380.274792 598.81625)scale(0.24 -0.24)">
      <defs>
       <path d="M 44.28125 53.078125 
L 44.28125 44.578125 
Q 40.484375 46.53125 36.375 47.5 
Q 32.28125 48.484375 27.875 48.484375 
Q 21.1875 48.484375 17.84375 46.4375 
Q 14.5 44.390625 14.5 40.28125 
Q 14.5 37.15625 16.890625 35.375 
Q 19.28125 33.59375 26.515625 31.984375 
L 29.59375 31.296875 
Q 39.15625 29.25 43.1875 25.515625 
Q 47.21875 21.78125 47.21875 15.09375 
Q 47.21875 7.46875 41.1875 3.015625 
Q 35.15625 -1.421875 24.609375 -1.421875 
Q 20.21875 -1.421875 15.453125 -0.5625 
Q 10.6875 0.296875 5.421875 2 
L 5.421875 11.28125 
Q 10.40625 8.6875 15.234375 7.390625 
Q 20.0625 6.109375 24.8125 6.109375 
Q 31.15625 6.109375 34.5625 8.28125 
Q 37.984375 10.453125 37.984375 14.40625 
Q 37.984375 18.0625 35.515625 20.015625 
Q 33.0625 21.96875 24.703125 23.78125 
L 21.578125 24.515625 
Q 13.234375 26.265625 9.515625 29.90625 
Q 5.8125 33.546875 5.8125 39.890625 
Q 5.8125 47.609375 11.28125 51.796875 
Q 16.75 56 26.8125 56 
Q 31.78125 56 36.171875 55.265625 
Q 40.578125 54.546875 44.28125 53.078125 
z
" id="DejaVuSans-115"/>
       <path d="M 9.421875 54.6875 
L 18.40625 54.6875 
L 18.40625 0 
L 9.421875 0 
z
M 9.421875 75.984375 
L 18.40625 75.984375 
L 18.40625 64.59375 
L 9.421875 64.59375 
z
" id="DejaVuSans-105"/>
       <path d="M 5.515625 54.6875 
L 48.1875 54.6875 
L 48.1875 46.484375 
L 14.40625 7.171875 
L 48.1875 7.171875 
L 48.1875 0 
L 4.296875 0 
L 4.296875 8.203125 
L 38.09375 47.515625 
L 5.515625 47.515625 
z
" id="DejaVuSans-122"/>
       <path d="M 56.203125 29.59375 
L 56.203125 25.203125 
L 14.890625 25.203125 
Q 15.484375 15.921875 20.484375 11.0625 
Q 25.484375 6.203125 34.421875 6.203125 
Q 39.59375 6.203125 44.453125 7.46875 
Q 49.3125 8.734375 54.109375 11.28125 
L 54.109375 2.78125 
Q 49.265625 0.734375 44.1875 -0.34375 
Q 39.109375 -1.421875 33.890625 -1.421875 
Q 20.796875 -1.421875 13.15625 6.1875 
Q 5.515625 13.8125 5.515625 26.8125 
Q 5.515625 40.234375 12.765625 48.109375 
Q 20.015625 56 32.328125 56 
Q 43.359375 56 49.78125 48.890625 
Q 56.203125 41.796875 56.203125 29.59375 
z
M 47.21875 32.234375 
Q 47.125 39.59375 43.09375 43.984375 
Q 39.0625 48.390625 32.421875 48.390625 
Q 24.90625 48.390625 20.390625 44.140625 
Q 15.875 39.890625 15.1875 32.171875 
z
" id="DejaVuSans-101"/>
      </defs>
      <use xlink:href="#DejaVuSans-115"/>
      <use x="52.099609" xlink:href="#DejaVuSans-105"/>
      <use x="79.882812" xlink:href="#DejaVuSans-122"/>
      <use x="132.373047" xlink:href="#DejaVuSans-101"/>
     </g>
    </g>
   </g>
   <g id="matplotlib.axis_2">
    <g id="ytick_1">
     <g id="line2d_5">
      <defs>
       <path d="M 0 0 
L -3.5 0 
" id="mec7f017f07" style="stroke:#000000;stroke-width:0.8;"/>
      </defs>
      <g>
       <use style="stroke:#000000;stroke-width:0.8;" x="150.833333" xlink:href="#mec7f017f07" y="508.5"/>
      </g>
     </g>
     <g id="text_6">
      <!-- 0 -->
      <g transform="translate(128.563333 517.618125)scale(0.24 -0.24)">
       <use xlink:href="#DejaVuSans-48"/>
      </g>
     </g>
    </g>
    <g id="ytick_2">
     <g id="line2d_6">
      <g>
       <use style="stroke:#000000;stroke-width:0.8;" x="150.833333" xlink:href="#mec7f017f07" y="439.651705"/>
      </g>
     </g>
     <g id="text_7">
      <!-- 200 -->
      <g transform="translate(98.023333 448.76983)scale(0.24 -0.24)">
       <defs>
        <path d="M 19.1875 8.296875 
L 53.609375 8.296875 
L 53.609375 0 
L 7.328125 0 
L 7.328125 8.296875 
Q 12.9375 14.109375 22.625 23.890625 
Q 32.328125 33.6875 34.8125 36.53125 
Q 39.546875 41.84375 41.421875 45.53125 
Q 43.3125 49.21875 43.3125 52.78125 
Q 43.3125 58.59375 39.234375 62.25 
Q 35.15625 65.921875 28.609375 65.921875 
Q 23.96875 65.921875 18.8125 64.3125 
Q 13.671875 62.703125 7.8125 59.421875 
L 7.8125 69.390625 
Q 13.765625 71.78125 18.9375 73 
Q 24.125 74.21875 28.421875 74.21875 
Q 39.75 74.21875 46.484375 68.546875 
Q 53.21875 62.890625 53.21875 53.421875 
Q 53.21875 48.921875 51.53125 44.890625 
Q 49.859375 40.875 45.40625 35.40625 
Q 44.1875 33.984375 37.640625 27.21875 
Q 31.109375 20.453125 19.1875 8.296875 
z
" id="DejaVuSans-50"/>
       </defs>
       <use xlink:href="#DejaVuSans-50"/>
       <use x="63.623047" xlink:href="#DejaVuSans-48"/>
       <use x="127.246094" xlink:href="#DejaVuSans-48"/>
      </g>
     </g>
    </g>
    <g id="ytick_3">
     <g id="line2d_7">
      <g>
       <use style="stroke:#000000;stroke-width:0.8;" x="150.833333" xlink:href="#mec7f017f07" y="370.80341"/>
      </g>
     </g>
     <g id="text_8">
      <!-- 400 -->
      <g transform="translate(98.023333 379.921535)scale(0.24 -0.24)">
       <defs>
        <path d="M 37.796875 64.3125 
L 12.890625 25.390625 
L 37.796875 25.390625 
z
M 35.203125 72.90625 
L 47.609375 72.90625 
L 47.609375 25.390625 
L 58.015625 25.390625 
L 58.015625 17.1875 
L 47.609375 17.1875 
L 47.609375 0 
L 37.796875 0 
L 37.796875 17.1875 
L 4.890625 17.1875 
L 4.890625 26.703125 
z
" id="DejaVuSans-52"/>
       </defs>
       <use xlink:href="#DejaVuSans-52"/>
       <use x="63.623047" xlink:href="#DejaVuSans-48"/>
       <use x="127.246094" xlink:href="#DejaVuSans-48"/>
      </g>
     </g>
    </g>
    <g id="ytick_4">
     <g id="line2d_8">
      <g>
       <use style="stroke:#000000;stroke-width:0.8;" x="150.833333" xlink:href="#mec7f017f07" y="301.955115"/>
      </g>
     </g>
     <g id="text_9">
      <!-- 600 -->
      <g transform="translate(98.023333 311.07324)scale(0.24 -0.24)">
       <defs>
        <path d="M 33.015625 40.375 
Q 26.375 40.375 22.484375 35.828125 
Q 18.609375 31.296875 18.609375 23.390625 
Q 18.609375 15.53125 22.484375 10.953125 
Q 26.375 6.390625 33.015625 6.390625 
Q 39.65625 6.390625 43.53125 10.953125 
Q 47.40625 15.53125 47.40625 23.390625 
Q 47.40625 31.296875 43.53125 35.828125 
Q 39.65625 40.375 33.015625 40.375 
z
M 52.59375 71.296875 
L 52.59375 62.3125 
Q 48.875 64.0625 45.09375 64.984375 
Q 41.3125 65.921875 37.59375 65.921875 
Q 27.828125 65.921875 22.671875 59.328125 
Q 17.53125 52.734375 16.796875 39.40625 
Q 19.671875 43.65625 24.015625 45.921875 
Q 28.375 48.1875 33.59375 48.1875 
Q 44.578125 48.1875 50.953125 41.515625 
Q 57.328125 34.859375 57.328125 23.390625 
Q 57.328125 12.15625 50.6875 5.359375 
Q 44.046875 -1.421875 33.015625 -1.421875 
Q 20.359375 -1.421875 13.671875 8.265625 
Q 6.984375 17.96875 6.984375 36.375 
Q 6.984375 53.65625 15.1875 63.9375 
Q 23.390625 74.21875 37.203125 74.21875 
Q 40.921875 74.21875 44.703125 73.484375 
Q 48.484375 72.75 52.59375 71.296875 
z
" id="DejaVuSans-54"/>
       </defs>
       <use xlink:href="#DejaVuSans-54"/>
       <use x="63.623047" xlink:href="#DejaVuSans-48"/>
       <use x="127.246094" xlink:href="#DejaVuSans-48"/>
      </g>
     </g>
    </g>
    <g id="ytick_5">
     <g id="line2d_9">
      <g>
       <use style="stroke:#000000;stroke-width:0.8;" x="150.833333" xlink:href="#mec7f017f07" y="233.10682"/>
      </g>
     </g>
     <g id="text_10">
      <!-- 800 -->
      <g transform="translate(98.023333 242.224945)scale(0.24 -0.24)">
       <defs>
        <path d="M 31.78125 34.625 
Q 24.75 34.625 20.71875 30.859375 
Q 16.703125 27.09375 16.703125 20.515625 
Q 16.703125 13.921875 20.71875 10.15625 
Q 24.75 6.390625 31.78125 6.390625 
Q 38.8125 6.390625 42.859375 10.171875 
Q 46.921875 13.96875 46.921875 20.515625 
Q 46.921875 27.09375 42.890625 30.859375 
Q 38.875 34.625 31.78125 34.625 
z
M 21.921875 38.8125 
Q 15.578125 40.375 12.03125 44.71875 
Q 8.5 49.078125 8.5 55.328125 
Q 8.5 64.0625 14.71875 69.140625 
Q 20.953125 74.21875 31.78125 74.21875 
Q 42.671875 74.21875 48.875 69.140625 
Q 55.078125 64.0625 55.078125 55.328125 
Q 55.078125 49.078125 51.53125 44.71875 
Q 48 40.375 41.703125 38.8125 
Q 48.828125 37.15625 52.796875 32.3125 
Q 56.78125 27.484375 56.78125 20.515625 
Q 56.78125 9.90625 50.3125 4.234375 
Q 43.84375 -1.421875 31.78125 -1.421875 
Q 19.734375 -1.421875 13.25 4.234375 
Q 6.78125 9.90625 6.78125 20.515625 
Q 6.78125 27.484375 10.78125 32.3125 
Q 14.796875 37.15625 21.921875 38.8125 
z
M 18.3125 54.390625 
Q 18.3125 48.734375 21.84375 45.5625 
Q 25.390625 42.390625 31.78125 42.390625 
Q 38.140625 42.390625 41.71875 45.5625 
Q 45.3125 48.734375 45.3125 54.390625 
Q 45.3125 60.0625 41.71875 63.234375 
Q 38.140625 66.40625 31.78125 66.40625 
Q 25.390625 66.40625 21.84375 63.234375 
Q 18.3125 60.0625 18.3125 54.390625 
z
" id="DejaVuSans-56"/>
       </defs>
       <use xlink:href="#DejaVuSans-56"/>
       <use x="63.623047" xlink:href="#DejaVuSans-48"/>
       <use x="127.246094" xlink:href="#DejaVuSans-48"/>
      </g>
     </g>
    </g>
    <g id="ytick_6">
     <g id="line2d_10">
      <g>
       <use style="stroke:#000000;stroke-width:0.8;" x="150.833333" xlink:href="#mec7f017f07" y="164.258525"/>
      </g>
     </g>
     <g id="text_11">
      <!-- 1000 -->
      <g transform="translate(82.753333 173.37665)scale(0.24 -0.24)">
       <use xlink:href="#DejaVuSans-49"/>
       <use x="63.623047" xlink:href="#DejaVuSans-48"/>
       <use x="127.246094" xlink:href="#DejaVuSans-48"/>
       <use x="190.869141" xlink:href="#DejaVuSans-48"/>
      </g>
     </g>
    </g>
    <g id="ytick_7">
     <g id="line2d_11">
      <g>
       <use style="stroke:#000000;stroke-width:0.8;" x="150.833333" xlink:href="#mec7f017f07" y="95.41023"/>
      </g>
     </g>
     <g id="text_12">
      <!-- 1200 -->
      <g transform="translate(82.753333 104.528355)scale(0.24 -0.24)">
       <use xlink:href="#DejaVuSans-49"/>
       <use x="63.623047" xlink:href="#DejaVuSans-50"/>
       <use x="127.246094" xlink:href="#DejaVuSans-48"/>
       <use x="190.869141" xlink:href="#DejaVuSans-48"/>
      </g>
     </g>
    </g>
    <g id="text_13">
     <!-- counts -->
     <g transform="translate(73.762083 315.73125)rotate(-90)scale(0.24 -0.24)">
      <defs>
       <path d="M 48.78125 52.59375 
L 48.78125 44.1875 
Q 44.96875 46.296875 41.140625 47.34375 
Q 37.3125 48.390625 33.40625 48.390625 
Q 24.65625 48.390625 19.8125 42.84375 
Q 14.984375 37.3125 14.984375 27.296875 
Q 14.984375 17.28125 19.8125 11.734375 
Q 24.65625 6.203125 33.40625 6.203125 
Q 37.3125 6.203125 41.140625 7.25 
Q 44.96875 8.296875 48.78125 10.40625 
L 48.78125 2.09375 
Q 45.015625 0.34375 40.984375 -0.53125 
Q 36.96875 -1.421875 32.421875 -1.421875 
Q 20.0625 -1.421875 12.78125 6.34375 
Q 5.515625 14.109375 5.515625 27.296875 
Q 5.515625 40.671875 12.859375 48.328125 
Q 20.21875 56 33.015625 56 
Q 37.15625 56 41.109375 55.140625 
Q 45.0625 54.296875 48.78125 52.59375 
z
" id="DejaVuSans-99"/>
       <path d="M 30.609375 48.390625 
Q 23.390625 48.390625 19.1875 42.75 
Q 14.984375 37.109375 14.984375 27.296875 
Q 14.984375 17.484375 19.15625 11.84375 
Q 23.34375 6.203125 30.609375 6.203125 
Q 37.796875 6.203125 41.984375 11.859375 
Q 46.1875 17.53125 46.1875 27.296875 
Q 46.1875 37.015625 41.984375 42.703125 
Q 37.796875 48.390625 30.609375 48.390625 
z
M 30.609375 56 
Q 42.328125 56 49.015625 48.375 
Q 55.71875 40.765625 55.71875 27.296875 
Q 55.71875 13.875 49.015625 6.21875 
Q 42.328125 -1.421875 30.609375 -1.421875 
Q 18.84375 -1.421875 12.171875 6.21875 
Q 5.515625 13.875 5.515625 27.296875 
Q 5.515625 40.765625 12.171875 48.375 
Q 18.84375 56 30.609375 56 
z
" id="DejaVuSans-111"/>
       <path d="M 8.5 21.578125 
L 8.5 54.6875 
L 17.484375 54.6875 
L 17.484375 21.921875 
Q 17.484375 14.15625 20.5 10.265625 
Q 23.53125 6.390625 29.59375 6.390625 
Q 36.859375 6.390625 41.078125 11.03125 
Q 45.3125 15.671875 45.3125 23.6875 
L 45.3125 54.6875 
L 54.296875 54.6875 
L 54.296875 0 
L 45.3125 0 
L 45.3125 8.40625 
Q 42.046875 3.421875 37.71875 1 
Q 33.40625 -1.421875 27.6875 -1.421875 
Q 18.265625 -1.421875 13.375 4.4375 
Q 8.5 10.296875 8.5 21.578125 
z
M 31.109375 56 
z
" id="DejaVuSans-117"/>
       <path d="M 54.890625 33.015625 
L 54.890625 0 
L 45.90625 0 
L 45.90625 32.71875 
Q 45.90625 40.484375 42.875 44.328125 
Q 39.84375 48.1875 33.796875 48.1875 
Q 26.515625 48.1875 22.3125 43.546875 
Q 18.109375 38.921875 18.109375 30.90625 
L 18.109375 0 
L 9.078125 0 
L 9.078125 54.6875 
L 18.109375 54.6875 
L 18.109375 46.1875 
Q 21.34375 51.125 25.703125 53.5625 
Q 30.078125 56 35.796875 56 
Q 45.21875 56 50.046875 50.171875 
Q 54.890625 44.34375 54.890625 33.015625 
z
" id="DejaVuSans-110"/>
       <path d="M 18.3125 70.21875 
L 18.3125 54.6875 
L 36.8125 54.6875 
L 36.8125 47.703125 
L 18.3125 47.703125 
L 18.3125 18.015625 
Q 18.3125 11.328125 20.140625 9.421875 
Q 21.96875 7.515625 27.59375 7.515625 
L 36.8125 7.515625 
L 36.8125 0 
L 27.59375 0 
Q 17.1875 0 13.234375 3.875 
Q 9.28125 7.765625 9.28125 18.015625 
L 9.28125 47.703125 
L 2.6875 47.703125 
L 2.6875 54.6875 
L 9.28125 54.6875 
L 9.28125 70.21875 
z
" id="DejaVuSans-116"/>
      </defs>
      <use xlink:href="#DejaVuSans-99"/>
      <use x="54.980469" xlink:href="#DejaVuSans-111"/>
      <use x="116.162109" xlink:href="#DejaVuSans-117"/>
      <use x="179.541016" xlink:href="#DejaVuSans-110"/>
      <use x="242.919922" xlink:href="#DejaVuSans-116"/>
      <use x="282.128906" xlink:href="#DejaVuSans-115"/>
     </g>
    </g>
   </g>
   <g id="LineCollection_1">
    <path clip-path="url(#p328f338fde)" d="M 188.739583 504.978168 
L 188.739583 502.796161 
" style="fill:none;stroke:#000000;stroke-width:1.5;"/>
    <path clip-path="url(#p328f338fde)" d="M 315.09375 504.789682 
L 315.09375 501.951922 
" style="fill:none;stroke:#000000;stroke-width:1.5;"/>
    <path clip-path="url(#p328f338fde)" d="M 441.447917 504.538844 
L 441.447917 502.271608 
" style="fill:none;stroke:#000000;stroke-width:1.5;"/>
    <path clip-path="url(#p328f338fde)" d="M 567.802083 504.908765 
L 567.802083 502.659018 
" style="fill:none;stroke:#000000;stroke-width:1.5;"/>
   </g>
   <g id="LineCollection_2">
    <path clip-path="url(#p328f338fde)" d="M 201.375 405.497072 
L 201.375 347.469717 
" style="fill:none;stroke:#000000;stroke-width:1.5;"/>
    <path clip-path="url(#p328f338fde)" d="M 327.729167 318.52568 
L 327.729167 261.700737 
" style="fill:none;stroke:#000000;stroke-width:1.5;"/>
    <path clip-path="url(#p328f338fde)" d="M 454.083333 311.777939 
L 454.083333 209.101248 
" style="fill:none;stroke:#000000;stroke-width:1.5;"/>
    <path clip-path="url(#p328f338fde)" d="M 580.4375 173.259516 
L 580.4375 64.928571 
" style="fill:none;stroke:#000000;stroke-width:1.5;"/>
   </g>
   <g id="LineCollection_3">
    <path clip-path="url(#p328f338fde)" d="M 214.010417 486.571695 
L 214.010417 429.014767 
" style="fill:none;stroke:#000000;stroke-width:1.5;"/>
    <path clip-path="url(#p328f338fde)" d="M 340.364583 441.111948 
L 340.364583 389.446869 
" style="fill:none;stroke:#000000;stroke-width:1.5;"/>
    <path clip-path="url(#p328f338fde)" d="M 466.71875 359.706682 
L 466.71875 323.792177 
" style="fill:none;stroke:#000000;stroke-width:1.5;"/>
    <path clip-path="url(#p328f338fde)" d="M 593.072917 179.40515 
L 593.072917 179.40515 
" style="fill:none;stroke:#000000;stroke-width:1.5;"/>
   </g>
   <g id="LineCollection_4">
    <path clip-path="url(#p328f338fde)" d="M 226.645833 480.04249 
L 226.645833 461.01784 
" style="fill:none;stroke:#000000;stroke-width:1.5;"/>
    <path clip-path="url(#p328f338fde)" d="M 353 471.484722 
L 353 437.21691 
" style="fill:none;stroke:#000000;stroke-width:1.5;"/>
    <path clip-path="url(#p328f338fde)" d="M 479.354167 455.066071 
L 479.354167 427.81745 
" style="fill:none;stroke:#000000;stroke-width:1.5;"/>
    <path clip-path="url(#p328f338fde)" d="M 605.708333 442.472056 
L 605.708333 404.748049 
" style="fill:none;stroke:#000000;stroke-width:1.5;"/>
   </g>
   <g id="LineCollection_5">
    <path clip-path="url(#p328f338fde)" d="M 239.28125 505.297961 
L 239.28125 503.302547 
" style="fill:none;stroke:#000000;stroke-width:1.5;"/>
    <path clip-path="url(#p328f338fde)" d="M 365.635417 504.862014 
L 365.635417 502.499225 
" style="fill:none;stroke:#000000;stroke-width:1.5;"/>
    <path clip-path="url(#p328f338fde)" d="M 491.989583 505.057634 
L 491.989583 502.372453 
" style="fill:none;stroke:#000000;stroke-width:1.5;"/>
    <path clip-path="url(#p328f338fde)" d="M 618.34375 505.434582 
L 618.34375 502.20205 
" style="fill:none;stroke:#000000;stroke-width:1.5;"/>
   </g>
   <g id="patch_23">
    <path d="M 150.833333 508.5 
L 150.833333 42.75 
" style="fill:none;stroke:#000000;stroke-linecap:square;stroke-linejoin:miter;stroke-width:0.8;"/>
   </g>
   <g id="patch_24">
    <path d="M 656.25 508.5 
L 656.25 42.75 
" style="fill:none;stroke:#000000;stroke-linecap:square;stroke-linejoin:miter;stroke-width:0.8;"/>
   </g>
   <g id="patch_25">
    <path d="M 150.833333 508.5 
L 656.25 508.5 
" style="fill:none;stroke:#000000;stroke-linecap:square;stroke-linejoin:miter;stroke-width:0.8;"/>
   </g>
   <g id="patch_26">
    <path d="M 150.833333 42.75 
L 656.25 42.75 
" style="fill:none;stroke:#000000;stroke-linecap:square;stroke-linejoin:miter;stroke-width:0.8;"/>
   </g>
   <g id="text_14">
    <!-- FFL motif-node participation -->
    <g transform="translate(200.906667 36.75)scale(0.288 -0.288)">
     <defs>
      <path d="M 9.8125 72.90625 
L 51.703125 72.90625 
L 51.703125 64.59375 
L 19.671875 64.59375 
L 19.671875 43.109375 
L 48.578125 43.109375 
L 48.578125 34.8125 
L 19.671875 34.8125 
L 19.671875 0 
L 9.8125 0 
z
" id="DejaVuSans-70"/>
      <path d="M 9.8125 72.90625 
L 19.671875 72.90625 
L 19.671875 8.296875 
L 55.171875 8.296875 
L 55.171875 0 
L 9.8125 0 
z
" id="DejaVuSans-76"/>
      <path id="DejaVuSans-32"/>
      <path d="M 52 44.1875 
Q 55.375 50.25 60.0625 53.125 
Q 64.75 56 71.09375 56 
Q 79.640625 56 84.28125 50.015625 
Q 88.921875 44.046875 88.921875 33.015625 
L 88.921875 0 
L 79.890625 0 
L 79.890625 32.71875 
Q 79.890625 40.578125 77.09375 44.375 
Q 74.3125 48.1875 68.609375 48.1875 
Q 61.625 48.1875 57.5625 43.546875 
Q 53.515625 38.921875 53.515625 30.90625 
L 53.515625 0 
L 44.484375 0 
L 44.484375 32.71875 
Q 44.484375 40.625 41.703125 44.40625 
Q 38.921875 48.1875 33.109375 48.1875 
Q 26.21875 48.1875 22.15625 43.53125 
Q 18.109375 38.875 18.109375 30.90625 
L 18.109375 0 
L 9.078125 0 
L 9.078125 54.6875 
L 18.109375 54.6875 
L 18.109375 46.1875 
Q 21.1875 51.21875 25.484375 53.609375 
Q 29.78125 56 35.6875 56 
Q 41.65625 56 45.828125 52.96875 
Q 50 49.953125 52 44.1875 
z
" id="DejaVuSans-109"/>
      <path d="M 37.109375 75.984375 
L 37.109375 68.5 
L 28.515625 68.5 
Q 23.6875 68.5 21.796875 66.546875 
Q 19.921875 64.59375 19.921875 59.515625 
L 19.921875 54.6875 
L 34.71875 54.6875 
L 34.71875 47.703125 
L 19.921875 47.703125 
L 19.921875 0 
L 10.890625 0 
L 10.890625 47.703125 
L 2.296875 47.703125 
L 2.296875 54.6875 
L 10.890625 54.6875 
L 10.890625 58.5 
Q 10.890625 67.625 15.140625 71.796875 
Q 19.390625 75.984375 28.609375 75.984375 
z
" id="DejaVuSans-102"/>
      <path d="M 4.890625 31.390625 
L 31.203125 31.390625 
L 31.203125 23.390625 
L 4.890625 23.390625 
z
" id="DejaVuSans-45"/>
      <path d="M 45.40625 46.390625 
L 45.40625 75.984375 
L 54.390625 75.984375 
L 54.390625 0 
L 45.40625 0 
L 45.40625 8.203125 
Q 42.578125 3.328125 38.25 0.953125 
Q 33.9375 -1.421875 27.875 -1.421875 
Q 17.96875 -1.421875 11.734375 6.484375 
Q 5.515625 14.40625 5.515625 27.296875 
Q 5.515625 40.1875 11.734375 48.09375 
Q 17.96875 56 27.875 56 
Q 33.9375 56 38.25 53.625 
Q 42.578125 51.265625 45.40625 46.390625 
z
M 14.796875 27.296875 
Q 14.796875 17.390625 18.875 11.75 
Q 22.953125 6.109375 30.078125 6.109375 
Q 37.203125 6.109375 41.296875 11.75 
Q 45.40625 17.390625 45.40625 27.296875 
Q 45.40625 37.203125 41.296875 42.84375 
Q 37.203125 48.484375 30.078125 48.484375 
Q 22.953125 48.484375 18.875 42.84375 
Q 14.796875 37.203125 14.796875 27.296875 
z
" id="DejaVuSans-100"/>
      <path d="M 18.109375 8.203125 
L 18.109375 -20.796875 
L 9.078125 -20.796875 
L 9.078125 54.6875 
L 18.109375 54.6875 
L 18.109375 46.390625 
Q 20.953125 51.265625 25.265625 53.625 
Q 29.59375 56 35.59375 56 
Q 45.5625 56 51.78125 48.09375 
Q 58.015625 40.1875 58.015625 27.296875 
Q 58.015625 14.40625 51.78125 6.484375 
Q 45.5625 -1.421875 35.59375 -1.421875 
Q 29.59375 -1.421875 25.265625 0.953125 
Q 20.953125 3.328125 18.109375 8.203125 
z
M 48.6875 27.296875 
Q 48.6875 37.203125 44.609375 42.84375 
Q 40.53125 48.484375 33.40625 48.484375 
Q 26.265625 48.484375 22.1875 42.84375 
Q 18.109375 37.203125 18.109375 27.296875 
Q 18.109375 17.390625 22.1875 11.75 
Q 26.265625 6.109375 33.40625 6.109375 
Q 40.53125 6.109375 44.609375 11.75 
Q 48.6875 17.390625 48.6875 27.296875 
z
" id="DejaVuSans-112"/>
      <path d="M 34.28125 27.484375 
Q 23.390625 27.484375 19.1875 25 
Q 14.984375 22.515625 14.984375 16.5 
Q 14.984375 11.71875 18.140625 8.90625 
Q 21.296875 6.109375 26.703125 6.109375 
Q 34.1875 6.109375 38.703125 11.40625 
Q 43.21875 16.703125 43.21875 25.484375 
L 43.21875 27.484375 
z
M 52.203125 31.203125 
L 52.203125 0 
L 43.21875 0 
L 43.21875 8.296875 
Q 40.140625 3.328125 35.546875 0.953125 
Q 30.953125 -1.421875 24.3125 -1.421875 
Q 15.921875 -1.421875 10.953125 3.296875 
Q 6 8.015625 6 15.921875 
Q 6 25.140625 12.171875 29.828125 
Q 18.359375 34.515625 30.609375 34.515625 
L 43.21875 34.515625 
L 43.21875 35.40625 
Q 43.21875 41.609375 39.140625 45 
Q 35.0625 48.390625 27.6875 48.390625 
Q 23 48.390625 18.546875 47.265625 
Q 14.109375 46.140625 10.015625 43.890625 
L 10.015625 52.203125 
Q 14.9375 54.109375 19.578125 55.046875 
Q 24.21875 56 28.609375 56 
Q 40.484375 56 46.34375 49.84375 
Q 52.203125 43.703125 52.203125 31.203125 
z
" id="DejaVuSans-97"/>
      <path d="M 41.109375 46.296875 
Q 39.59375 47.171875 37.8125 47.578125 
Q 36.03125 48 33.890625 48 
Q 26.265625 48 22.1875 43.046875 
Q 18.109375 38.09375 18.109375 28.8125 
L 18.109375 0 
L 9.078125 0 
L 9.078125 54.6875 
L 18.109375 54.6875 
L 18.109375 46.1875 
Q 20.953125 51.171875 25.484375 53.578125 
Q 30.03125 56 36.53125 56 
Q 37.453125 56 38.578125 55.875 
Q 39.703125 55.765625 41.0625 55.515625 
z
" id="DejaVuSans-114"/>
     </defs>
     <use xlink:href="#DejaVuSans-70"/>
     <use x="57.519531" xlink:href="#DejaVuSans-70"/>
     <use x="115.039062" xlink:href="#DejaVuSans-76"/>
     <use x="170.751953" xlink:href="#DejaVuSans-32"/>
     <use x="202.539062" xlink:href="#DejaVuSans-109"/>
     <use x="299.951172" xlink:href="#DejaVuSans-111"/>
     <use x="361.132812" xlink:href="#DejaVuSans-116"/>
     <use x="400.341797" xlink:href="#DejaVuSans-105"/>
     <use x="428.125" xlink:href="#DejaVuSans-102"/>
     <use x="457.830078" xlink:href="#DejaVuSans-45"/>
     <use x="493.914062" xlink:href="#DejaVuSans-110"/>
     <use x="557.292969" xlink:href="#DejaVuSans-111"/>
     <use x="618.474609" xlink:href="#DejaVuSans-100"/>
     <use x="681.951172" xlink:href="#DejaVuSans-101"/>
     <use x="743.474609" xlink:href="#DejaVuSans-32"/>
     <use x="775.261719" xlink:href="#DejaVuSans-112"/>
     <use x="838.738281" xlink:href="#DejaVuSans-97"/>
     <use x="900.017578" xlink:href="#DejaVuSans-114"/>
     <use x="941.130859" xlink:href="#DejaVuSans-116"/>
     <use x="980.339844" xlink:href="#DejaVuSans-105"/>
     <use x="1008.123047" xlink:href="#DejaVuSans-99"/>
     <use x="1063.103516" xlink:href="#DejaVuSans-105"/>
     <use x="1090.886719" xlink:href="#DejaVuSans-112"/>
     <use x="1154.363281" xlink:href="#DejaVuSans-97"/>
     <use x="1215.642578" xlink:href="#DejaVuSans-116"/>
     <use x="1254.851562" xlink:href="#DejaVuSans-105"/>
     <use x="1282.634766" xlink:href="#DejaVuSans-111"/>
     <use x="1343.816406" xlink:href="#DejaVuSans-110"/>
    </g>
   </g>
   <g id="legend_1">
    <g id="patch_27">
     <path d="M 167.633333 238.0875 
L 438.964583 238.0875 
Q 443.764583 238.0875 443.764583 233.2875 
L 443.764583 59.55 
Q 443.764583 54.75 438.964583 54.75 
L 167.633333 54.75 
Q 162.833333 54.75 162.833333 59.55 
L 162.833333 233.2875 
Q 162.833333 238.0875 167.633333 238.0875 
z
" style="fill:#ffffff;opacity:0.8;stroke:#cccccc;stroke-linejoin:miter;"/>
    </g>
    <g id="patch_28">
     <path d="M 172.433333 82.58625 
L 220.433333 82.58625 
L 220.433333 65.78625 
L 172.433333 65.78625 
z
" style="fill:#1b9e77;"/>
    </g>
    <g id="text_15">
     <!-- DAG -->
     <g transform="translate(239.633333 82.58625)scale(0.24 -0.24)">
      <defs>
       <path d="M 19.671875 64.796875 
L 19.671875 8.109375 
L 31.59375 8.109375 
Q 46.6875 8.109375 53.6875 14.9375 
Q 60.6875 21.78125 60.6875 36.53125 
Q 60.6875 51.171875 53.6875 57.984375 
Q 46.6875 64.796875 31.59375 64.796875 
z
M 9.8125 72.90625 
L 30.078125 72.90625 
Q 51.265625 72.90625 61.171875 64.09375 
Q 71.09375 55.28125 71.09375 36.53125 
Q 71.09375 17.671875 61.125 8.828125 
Q 51.171875 0 30.078125 0 
L 9.8125 0 
z
" id="DejaVuSans-68"/>
       <path d="M 34.1875 63.1875 
L 20.796875 26.90625 
L 47.609375 26.90625 
z
M 28.609375 72.90625 
L 39.796875 72.90625 
L 67.578125 0 
L 57.328125 0 
L 50.6875 18.703125 
L 17.828125 18.703125 
L 11.1875 0 
L 0.78125 0 
z
" id="DejaVuSans-65"/>
       <path d="M 59.515625 10.40625 
L 59.515625 29.984375 
L 43.40625 29.984375 
L 43.40625 38.09375 
L 69.28125 38.09375 
L 69.28125 6.78125 
Q 63.578125 2.734375 56.6875 0.65625 
Q 49.8125 -1.421875 42 -1.421875 
Q 24.90625 -1.421875 15.25 8.5625 
Q 5.609375 18.5625 5.609375 36.375 
Q 5.609375 54.25 15.25 64.234375 
Q 24.90625 74.21875 42 74.21875 
Q 49.125 74.21875 55.546875 72.453125 
Q 61.96875 70.703125 67.390625 67.28125 
L 67.390625 56.78125 
Q 61.921875 61.421875 55.765625 63.765625 
Q 49.609375 66.109375 42.828125 66.109375 
Q 29.4375 66.109375 22.71875 58.640625 
Q 16.015625 51.171875 16.015625 36.375 
Q 16.015625 21.625 22.71875 14.15625 
Q 29.4375 6.6875 42.828125 6.6875 
Q 48.046875 6.6875 52.140625 7.59375 
Q 56.25 8.5 59.515625 10.40625 
z
" id="DejaVuSans-71"/>
      </defs>
      <use xlink:href="#DejaVuSans-68"/>
      <use x="75.251953" xlink:href="#DejaVuSans-65"/>
      <use x="141.910156" xlink:href="#DejaVuSans-71"/>
     </g>
    </g>
    <g id="patch_29">
     <path d="M 172.433333 117.81375 
L 220.433333 117.81375 
L 220.433333 101.01375 
L 172.433333 101.01375 
z
" style="fill:#7570b3;"/>
    </g>
    <g id="text_16">
     <!-- FFLatt -->
     <g transform="translate(239.633333 117.81375)scale(0.24 -0.24)">
      <use xlink:href="#DejaVuSans-70"/>
      <use x="57.519531" xlink:href="#DejaVuSans-70"/>
      <use x="115.039062" xlink:href="#DejaVuSans-76"/>
      <use x="170.751953" xlink:href="#DejaVuSans-97"/>
      <use x="232.03125" xlink:href="#DejaVuSans-116"/>
      <use x="271.240234" xlink:href="#DejaVuSans-116"/>
     </g>
    </g>
    <g id="patch_30">
     <path d="M 172.433333 153.04125 
L 220.433333 153.04125 
L 220.433333 136.24125 
L 172.433333 136.24125 
z
" style="fill:#66a61e;"/>
    </g>
    <g id="text_17">
     <!-- GNW -->
     <g transform="translate(239.633333 153.04125)scale(0.24 -0.24)">
      <defs>
       <path d="M 9.8125 72.90625 
L 23.09375 72.90625 
L 55.421875 11.921875 
L 55.421875 72.90625 
L 64.984375 72.90625 
L 64.984375 0 
L 51.703125 0 
L 19.390625 60.984375 
L 19.390625 0 
L 9.8125 0 
z
" id="DejaVuSans-78"/>
       <path d="M 3.328125 72.90625 
L 13.28125 72.90625 
L 28.609375 11.28125 
L 43.890625 72.90625 
L 54.984375 72.90625 
L 70.3125 11.28125 
L 85.59375 72.90625 
L 95.609375 72.90625 
L 77.296875 0 
L 64.890625 0 
L 49.515625 63.28125 
L 33.984375 0 
L 21.578125 0 
z
" id="DejaVuSans-87"/>
      </defs>
      <use xlink:href="#DejaVuSans-71"/>
      <use x="77.490234" xlink:href="#DejaVuSans-78"/>
      <use x="152.294922" xlink:href="#DejaVuSans-87"/>
     </g>
    </g>
    <g id="patch_31">
     <path d="M 172.433333 188.26875 
L 220.433333 188.26875 
L 220.433333 171.46875 
L 172.433333 171.46875 
z
" style="fill:#a6761d;"/>
    </g>
    <g id="text_18">
     <!-- NetworkX graph -->
     <g transform="translate(239.633333 188.26875)scale(0.24 -0.24)">
      <defs>
       <path d="M 4.203125 54.6875 
L 13.1875 54.6875 
L 24.421875 12.015625 
L 35.59375 54.6875 
L 46.1875 54.6875 
L 57.421875 12.015625 
L 68.609375 54.6875 
L 77.59375 54.6875 
L 63.28125 0 
L 52.6875 0 
L 40.921875 44.828125 
L 29.109375 0 
L 18.5 0 
z
" id="DejaVuSans-119"/>
       <path d="M 9.078125 75.984375 
L 18.109375 75.984375 
L 18.109375 31.109375 
L 44.921875 54.6875 
L 56.390625 54.6875 
L 27.390625 29.109375 
L 57.625 0 
L 45.90625 0 
L 18.109375 26.703125 
L 18.109375 0 
L 9.078125 0 
z
" id="DejaVuSans-107"/>
       <path d="M 6.296875 72.90625 
L 16.890625 72.90625 
L 35.015625 45.796875 
L 53.21875 72.90625 
L 63.8125 72.90625 
L 40.375 37.890625 
L 65.375 0 
L 54.78125 0 
L 34.28125 31 
L 13.625 0 
L 2.984375 0 
L 29 38.921875 
z
" id="DejaVuSans-88"/>
       <path d="M 45.40625 27.984375 
Q 45.40625 37.75 41.375 43.109375 
Q 37.359375 48.484375 30.078125 48.484375 
Q 22.859375 48.484375 18.828125 43.109375 
Q 14.796875 37.75 14.796875 27.984375 
Q 14.796875 18.265625 18.828125 12.890625 
Q 22.859375 7.515625 30.078125 7.515625 
Q 37.359375 7.515625 41.375 12.890625 
Q 45.40625 18.265625 45.40625 27.984375 
z
M 54.390625 6.78125 
Q 54.390625 -7.171875 48.1875 -13.984375 
Q 42 -20.796875 29.203125 -20.796875 
Q 24.46875 -20.796875 20.265625 -20.09375 
Q 16.0625 -19.390625 12.109375 -17.921875 
L 12.109375 -9.1875 
Q 16.0625 -11.328125 19.921875 -12.34375 
Q 23.78125 -13.375 27.78125 -13.375 
Q 36.625 -13.375 41.015625 -8.765625 
Q 45.40625 -4.15625 45.40625 5.171875 
L 45.40625 9.625 
Q 42.625 4.78125 38.28125 2.390625 
Q 33.9375 0 27.875 0 
Q 17.828125 0 11.671875 7.65625 
Q 5.515625 15.328125 5.515625 27.984375 
Q 5.515625 40.671875 11.671875 48.328125 
Q 17.828125 56 27.875 56 
Q 33.9375 56 38.28125 53.609375 
Q 42.625 51.21875 45.40625 46.390625 
L 45.40625 54.6875 
L 54.390625 54.6875 
z
" id="DejaVuSans-103"/>
       <path d="M 54.890625 33.015625 
L 54.890625 0 
L 45.90625 0 
L 45.90625 32.71875 
Q 45.90625 40.484375 42.875 44.328125 
Q 39.84375 48.1875 33.796875 48.1875 
Q 26.515625 48.1875 22.3125 43.546875 
Q 18.109375 38.921875 18.109375 30.90625 
L 18.109375 0 
L 9.078125 0 
L 9.078125 75.984375 
L 18.109375 75.984375 
L 18.109375 46.1875 
Q 21.34375 51.125 25.703125 53.5625 
Q 30.078125 56 35.796875 56 
Q 45.21875 56 50.046875 50.171875 
Q 54.890625 44.34375 54.890625 33.015625 
z
" id="DejaVuSans-104"/>
      </defs>
      <use xlink:href="#DejaVuSans-78"/>
      <use x="74.804688" xlink:href="#DejaVuSans-101"/>
      <use x="136.328125" xlink:href="#DejaVuSans-116"/>
      <use x="175.537109" xlink:href="#DejaVuSans-119"/>
      <use x="257.324219" xlink:href="#DejaVuSans-111"/>
      <use x="318.505859" xlink:href="#DejaVuSans-114"/>
      <use x="359.619141" xlink:href="#DejaVuSans-107"/>
      <use x="417.529297" xlink:href="#DejaVuSans-88"/>
      <use x="486.035156" xlink:href="#DejaVuSans-32"/>
      <use x="517.822266" xlink:href="#DejaVuSans-103"/>
      <use x="581.298828" xlink:href="#DejaVuSans-114"/>
      <use x="622.412109" xlink:href="#DejaVuSans-97"/>
      <use x="683.691406" xlink:href="#DejaVuSans-112"/>
      <use x="747.167969" xlink:href="#DejaVuSans-104"/>
     </g>
    </g>
    <g id="patch_32">
     <path d="M 172.433333 223.49625 
L 220.433333 223.49625 
L 220.433333 206.69625 
L 172.433333 206.69625 
z
" style="fill:#666666;"/>
    </g>
    <g id="text_19">
     <!-- RandG -->
     <g transform="translate(239.633333 223.49625)scale(0.24 -0.24)">
      <defs>
       <path d="M 44.390625 34.1875 
Q 47.5625 33.109375 50.5625 29.59375 
Q 53.5625 26.078125 56.59375 19.921875 
L 66.609375 0 
L 56 0 
L 46.6875 18.703125 
Q 43.0625 26.03125 39.671875 28.421875 
Q 36.28125 30.8125 30.421875 30.8125 
L 19.671875 30.8125 
L 19.671875 0 
L 9.8125 0 
L 9.8125 72.90625 
L 32.078125 72.90625 
Q 44.578125 72.90625 50.734375 67.671875 
Q 56.890625 62.453125 56.890625 51.90625 
Q 56.890625 45.015625 53.6875 40.46875 
Q 50.484375 35.9375 44.390625 34.1875 
z
M 19.671875 64.796875 
L 19.671875 38.921875 
L 32.078125 38.921875 
Q 39.203125 38.921875 42.84375 42.21875 
Q 46.484375 45.515625 46.484375 51.90625 
Q 46.484375 58.296875 42.84375 61.546875 
Q 39.203125 64.796875 32.078125 64.796875 
z
" id="DejaVuSans-82"/>
      </defs>
      <use xlink:href="#DejaVuSans-82"/>
      <use x="67.232422" xlink:href="#DejaVuSans-97"/>
      <use x="128.511719" xlink:href="#DejaVuSans-110"/>
      <use x="191.890625" xlink:href="#DejaVuSans-100"/>
      <use x="255.367188" xlink:href="#DejaVuSans-71"/>
     </g>
    </g>
   </g>
  </g>
  <g id="axes_2">
   <g id="patch_33">
    <path d="M 870.833333 508.5 
L 1376.25 508.5 
L 1376.25 42.75 
L 870.833333 42.75 
z
" style="fill:#ffffff;"/>
   </g>
   <g id="patch_34">
    <path clip-path="url(#p5f95325479)" d="M 902.421875 508.5 
L 915.057292 508.5 
L 915.057292 94.026023 
L 902.421875 94.026023 
z
" style="fill:#1b9e77;"/>
   </g>
   <g id="patch_35">
    <path clip-path="url(#p5f95325479)" d="M 1028.776042 508.5 
L 1041.411458 508.5 
L 1041.411458 94.026023 
L 1028.776042 94.026023 
z
" style="fill:#1b9e77;"/>
   </g>
   <g id="patch_36">
    <path clip-path="url(#p5f95325479)" d="M 1155.130208 508.5 
L 1167.765625 508.5 
L 1167.765625 94.026023 
L 1155.130208 94.026023 
z
" style="fill:#1b9e77;"/>
   </g>
   <g id="patch_37">
    <path clip-path="url(#p5f95325479)" d="M 1281.484375 508.5 
L 1294.119792 508.5 
L 1294.119792 94.026023 
L 1281.484375 94.026023 
z
" style="fill:#1b9e77;"/>
   </g>
   <g id="patch_38">
    <path clip-path="url(#p5f95325479)" d="M 915.057292 508.5 
L 927.692708 508.5 
L 927.692708 92.980827 
L 915.057292 92.980827 
z
" style="fill:#7570b3;"/>
   </g>
   <g id="patch_39">
    <path clip-path="url(#p5f95325479)" d="M 1041.411458 508.5 
L 1054.046875 508.5 
L 1054.046875 86.331223 
L 1041.411458 86.331223 
z
" style="fill:#7570b3;"/>
   </g>
   <g id="patch_40">
    <path clip-path="url(#p5f95325479)" d="M 1167.765625 508.5 
L 1180.401042 508.5 
L 1180.401042 86.313202 
L 1167.765625 86.313202 
z
" style="fill:#7570b3;"/>
   </g>
   <g id="patch_41">
    <path clip-path="url(#p5f95325479)" d="M 1294.119792 508.5 
L 1306.755208 508.5 
L 1306.755208 90.764293 
L 1294.119792 90.764293 
z
" style="fill:#7570b3;"/>
   </g>
   <g id="patch_42">
    <path clip-path="url(#p5f95325479)" d="M 927.692708 508.5 
L 940.328125 508.5 
L 940.328125 165.621897 
L 927.692708 165.621897 
z
" style="fill:#66a61e;"/>
   </g>
   <g id="patch_43">
    <path clip-path="url(#p5f95325479)" d="M 1054.046875 508.5 
L 1066.682292 508.5 
L 1066.682292 142.231148 
L 1054.046875 142.231148 
z
" style="fill:#66a61e;"/>
   </g>
   <g id="patch_44">
    <path clip-path="url(#p5f95325479)" d="M 1180.401042 508.5 
L 1193.036458 508.5 
L 1193.036458 85.394151 
L 1180.401042 85.394151 
z
" style="fill:#66a61e;"/>
   </g>
   <g id="patch_45">
    <path clip-path="url(#p5f95325479)" d="M 1306.755208 508.5 
L 1319.390625 508.5 
L 1319.390625 65.030865 
L 1306.755208 65.030865 
z
" style="fill:#66a61e;"/>
   </g>
   <g id="patch_46">
    <path clip-path="url(#p5f95325479)" d="M 940.328125 508.5 
L 952.963542 508.5 
L 952.963542 89.340665 
L 940.328125 89.340665 
z
" style="fill:#a6761d;"/>
   </g>
   <g id="patch_47">
    <path clip-path="url(#p5f95325479)" d="M 1066.682292 508.5 
L 1079.317708 508.5 
L 1079.317708 89.160458 
L 1066.682292 89.160458 
z
" style="fill:#a6761d;"/>
   </g>
   <g id="patch_48">
    <path clip-path="url(#p5f95325479)" d="M 1193.036458 508.5 
L 1205.671875 508.5 
L 1205.671875 89.160458 
L 1193.036458 89.160458 
z
" style="fill:#a6761d;"/>
   </g>
   <g id="patch_49">
    <path clip-path="url(#p5f95325479)" d="M 1319.390625 508.5 
L 1332.026042 508.5 
L 1332.026042 89.160458 
L 1319.390625 89.160458 
z
" style="fill:#a6761d;"/>
   </g>
   <g id="patch_50">
    <path clip-path="url(#p5f95325479)" d="M 952.963542 508.5 
L 965.598958 508.5 
L 965.598958 80.438484 
L 952.963542 80.438484 
z
" style="fill:#666666;"/>
   </g>
   <g id="patch_51">
    <path clip-path="url(#p5f95325479)" d="M 1079.317708 508.5 
L 1091.953125 508.5 
L 1091.953125 80.132134 
L 1079.317708 80.132134 
z
" style="fill:#666666;"/>
   </g>
   <g id="patch_52">
    <path clip-path="url(#p5f95325479)" d="M 1205.671875 508.5 
L 1218.307292 508.5 
L 1218.307292 80.096093 
L 1205.671875 80.096093 
z
" style="fill:#666666;"/>
   </g>
   <g id="patch_53">
    <path clip-path="url(#p5f95325479)" d="M 1332.026042 508.5 
L 1344.661458 508.5 
L 1344.661458 80.00599 
L 1332.026042 80.00599 
z
" style="fill:#666666;"/>
   </g>
   <g id="matplotlib.axis_3">
    <g id="xtick_5">
     <g id="line2d_12">
      <g>
       <use style="stroke:#000000;stroke-width:0.8;" x="934.010417" xlink:href="#m092843a438" y="508.5"/>
      </g>
     </g>
     <g id="text_20">
      <!-- 500 -->
      <g transform="translate(940.632917 561.31)rotate(-90)scale(0.24 -0.24)">
       <use xlink:href="#DejaVuSans-53"/>
       <use x="63.623047" xlink:href="#DejaVuSans-48"/>
       <use x="127.246094" xlink:href="#DejaVuSans-48"/>
      </g>
     </g>
    </g>
    <g id="xtick_6">
     <g id="line2d_13">
      <g>
       <use style="stroke:#000000;stroke-width:0.8;" x="1060.364583" xlink:href="#m092843a438" y="508.5"/>
      </g>
     </g>
     <g id="text_21">
      <!-- 750 -->
      <g transform="translate(1066.987083 561.31)rotate(-90)scale(0.24 -0.24)">
       <use xlink:href="#DejaVuSans-55"/>
       <use x="63.623047" xlink:href="#DejaVuSans-53"/>
       <use x="127.246094" xlink:href="#DejaVuSans-48"/>
      </g>
     </g>
    </g>
    <g id="xtick_7">
     <g id="line2d_14">
      <g>
       <use style="stroke:#000000;stroke-width:0.8;" x="1186.71875" xlink:href="#m092843a438" y="508.5"/>
      </g>
     </g>
     <g id="text_22">
      <!-- 1000 -->
      <g transform="translate(1193.34125 576.58)rotate(-90)scale(0.24 -0.24)">
       <use xlink:href="#DejaVuSans-49"/>
       <use x="63.623047" xlink:href="#DejaVuSans-48"/>
       <use x="127.246094" xlink:href="#DejaVuSans-48"/>
       <use x="190.869141" xlink:href="#DejaVuSans-48"/>
      </g>
     </g>
    </g>
    <g id="xtick_8">
     <g id="line2d_15">
      <g>
       <use style="stroke:#000000;stroke-width:0.8;" x="1313.072917" xlink:href="#m092843a438" y="508.5"/>
      </g>
     </g>
     <g id="text_23">
      <!-- 1500 -->
      <g transform="translate(1319.695417 576.58)rotate(-90)scale(0.24 -0.24)">
       <use xlink:href="#DejaVuSans-49"/>
       <use x="63.623047" xlink:href="#DejaVuSans-53"/>
       <use x="127.246094" xlink:href="#DejaVuSans-48"/>
       <use x="190.869141" xlink:href="#DejaVuSans-48"/>
      </g>
     </g>
    </g>
    <g id="text_24">
     <!-- size -->
     <g transform="translate(1100.274792 598.81625)scale(0.24 -0.24)">
      <use xlink:href="#DejaVuSans-115"/>
      <use x="52.099609" xlink:href="#DejaVuSans-105"/>
      <use x="79.882812" xlink:href="#DejaVuSans-122"/>
      <use x="132.373047" xlink:href="#DejaVuSans-101"/>
     </g>
    </g>
   </g>
   <g id="matplotlib.axis_4">
    <g id="ytick_8">
     <g id="line2d_16">
      <g>
       <use style="stroke:#000000;stroke-width:0.8;" x="870.833333" xlink:href="#mec7f017f07" y="508.5"/>
      </g>
     </g>
     <g id="text_25">
      <!-- 0.0 -->
      <g transform="translate(825.665833 517.618125)scale(0.24 -0.24)">
       <defs>
        <path d="M 10.6875 12.40625 
L 21 12.40625 
L 21 0 
L 10.6875 0 
z
" id="DejaVuSans-46"/>
       </defs>
       <use xlink:href="#DejaVuSans-48"/>
       <use x="63.623047" xlink:href="#DejaVuSans-46"/>
       <use x="95.410156" xlink:href="#DejaVuSans-48"/>
      </g>
     </g>
    </g>
    <g id="ytick_9">
     <g id="line2d_17">
      <g>
       <use style="stroke:#000000;stroke-width:0.8;" x="870.833333" xlink:href="#mec7f017f07" y="418.396961"/>
      </g>
     </g>
     <g id="text_26">
      <!-- 0.5 -->
      <g transform="translate(825.665833 427.515086)scale(0.24 -0.24)">
       <use xlink:href="#DejaVuSans-48"/>
       <use x="63.623047" xlink:href="#DejaVuSans-46"/>
       <use x="95.410156" xlink:href="#DejaVuSans-53"/>
      </g>
     </g>
    </g>
    <g id="ytick_10">
     <g id="line2d_18">
      <g>
       <use style="stroke:#000000;stroke-width:0.8;" x="870.833333" xlink:href="#mec7f017f07" y="328.293923"/>
      </g>
     </g>
     <g id="text_27">
      <!-- 1.0 -->
      <g transform="translate(825.665833 337.412048)scale(0.24 -0.24)">
       <use xlink:href="#DejaVuSans-49"/>
       <use x="63.623047" xlink:href="#DejaVuSans-46"/>
       <use x="95.410156" xlink:href="#DejaVuSans-48"/>
      </g>
     </g>
    </g>
    <g id="ytick_11">
     <g id="line2d_19">
      <g>
       <use style="stroke:#000000;stroke-width:0.8;" x="870.833333" xlink:href="#mec7f017f07" y="238.190884"/>
      </g>
     </g>
     <g id="text_28">
      <!-- 1.5 -->
      <g transform="translate(825.665833 247.309009)scale(0.24 -0.24)">
       <use xlink:href="#DejaVuSans-49"/>
       <use x="63.623047" xlink:href="#DejaVuSans-46"/>
       <use x="95.410156" xlink:href="#DejaVuSans-53"/>
      </g>
     </g>
    </g>
    <g id="ytick_12">
     <g id="line2d_20">
      <g>
       <use style="stroke:#000000;stroke-width:0.8;" x="870.833333" xlink:href="#mec7f017f07" y="148.087846"/>
      </g>
     </g>
     <g id="text_29">
      <!-- 2.0 -->
      <g transform="translate(825.665833 157.205971)scale(0.24 -0.24)">
       <use xlink:href="#DejaVuSans-50"/>
       <use x="63.623047" xlink:href="#DejaVuSans-46"/>
       <use x="95.410156" xlink:href="#DejaVuSans-48"/>
      </g>
     </g>
    </g>
    <g id="ytick_13">
     <g id="line2d_21">
      <g>
       <use style="stroke:#000000;stroke-width:0.8;" x="870.833333" xlink:href="#mec7f017f07" y="57.984807"/>
      </g>
     </g>
     <g id="text_30">
      <!-- 2.5 -->
      <g transform="translate(825.665833 67.102932)scale(0.24 -0.24)">
       <use xlink:href="#DejaVuSans-50"/>
       <use x="63.623047" xlink:href="#DejaVuSans-46"/>
       <use x="95.410156" xlink:href="#DejaVuSans-53"/>
      </g>
     </g>
    </g>
    <g id="text_31">
     <!-- average links per node -->
     <g transform="translate(816.674583 413.551875)rotate(-90)scale(0.24 -0.24)">
      <defs>
       <path d="M 2.984375 54.6875 
L 12.5 54.6875 
L 29.59375 8.796875 
L 46.6875 54.6875 
L 56.203125 54.6875 
L 35.6875 0 
L 23.484375 0 
z
" id="DejaVuSans-118"/>
       <path d="M 9.421875 75.984375 
L 18.40625 75.984375 
L 18.40625 0 
L 9.421875 0 
z
" id="DejaVuSans-108"/>
      </defs>
      <use xlink:href="#DejaVuSans-97"/>
      <use x="61.279297" xlink:href="#DejaVuSans-118"/>
      <use x="120.458984" xlink:href="#DejaVuSans-101"/>
      <use x="181.982422" xlink:href="#DejaVuSans-114"/>
      <use x="223.095703" xlink:href="#DejaVuSans-97"/>
      <use x="284.375" xlink:href="#DejaVuSans-103"/>
      <use x="347.851562" xlink:href="#DejaVuSans-101"/>
      <use x="409.375" xlink:href="#DejaVuSans-32"/>
      <use x="441.162109" xlink:href="#DejaVuSans-108"/>
      <use x="468.945312" xlink:href="#DejaVuSans-105"/>
      <use x="496.728516" xlink:href="#DejaVuSans-110"/>
      <use x="560.107422" xlink:href="#DejaVuSans-107"/>
      <use x="618.017578" xlink:href="#DejaVuSans-115"/>
      <use x="670.117188" xlink:href="#DejaVuSans-32"/>
      <use x="701.904297" xlink:href="#DejaVuSans-112"/>
      <use x="765.380859" xlink:href="#DejaVuSans-101"/>
      <use x="826.904297" xlink:href="#DejaVuSans-114"/>
      <use x="868.017578" xlink:href="#DejaVuSans-32"/>
      <use x="899.804688" xlink:href="#DejaVuSans-110"/>
      <use x="963.183594" xlink:href="#DejaVuSans-111"/>
      <use x="1024.365234" xlink:href="#DejaVuSans-100"/>
      <use x="1087.841797" xlink:href="#DejaVuSans-101"/>
     </g>
    </g>
   </g>
   <g id="LineCollection_6">
    <path clip-path="url(#p5f95325479)" d="M 908.739583 94.026023 
L 908.739583 94.026023 
" style="fill:none;stroke:#000000;stroke-width:1.5;"/>
    <path clip-path="url(#p5f95325479)" d="M 1035.09375 94.026023 
L 1035.09375 94.026023 
" style="fill:none;stroke:#000000;stroke-width:1.5;"/>
    <path clip-path="url(#p5f95325479)" d="M 1161.447917 94.026023 
L 1161.447917 94.026023 
" style="fill:none;stroke:#000000;stroke-width:1.5;"/>
    <path clip-path="url(#p5f95325479)" d="M 1287.802083 94.026023 
L 1287.802083 94.026023 
" style="fill:none;stroke:#000000;stroke-width:1.5;"/>
   </g>
   <g id="LineCollection_7">
    <path clip-path="url(#p5f95325479)" d="M 921.375 101.124423 
L 921.375 84.837232 
" style="fill:none;stroke:#000000;stroke-width:1.5;"/>
    <path clip-path="url(#p5f95325479)" d="M 1047.729167 97.439563 
L 1047.729167 75.222883 
" style="fill:none;stroke:#000000;stroke-width:1.5;"/>
    <path clip-path="url(#p5f95325479)" d="M 1174.083333 96.112614 
L 1174.083333 76.513791 
" style="fill:none;stroke:#000000;stroke-width:1.5;"/>
    <path clip-path="url(#p5f95325479)" d="M 1300.4375 102.733332 
L 1300.4375 78.795253 
" style="fill:none;stroke:#000000;stroke-width:1.5;"/>
   </g>
   <g id="LineCollection_8">
    <path clip-path="url(#p5f95325479)" d="M 934.010417 229.481559 
L 934.010417 101.762235 
" style="fill:none;stroke:#000000;stroke-width:1.5;"/>
    <path clip-path="url(#p5f95325479)" d="M 1060.364583 189.221858 
L 1060.364583 95.240439 
" style="fill:none;stroke:#000000;stroke-width:1.5;"/>
    <path clip-path="url(#p5f95325479)" d="M 1186.71875 100.228917 
L 1186.71875 70.559385 
" style="fill:none;stroke:#000000;stroke-width:1.5;"/>
    <path clip-path="url(#p5f95325479)" d="M 1313.072917 65.133158 
L 1313.072917 64.928571 
" style="fill:none;stroke:#000000;stroke-width:1.5;"/>
   </g>
   <g id="LineCollection_9">
    <path clip-path="url(#p5f95325479)" d="M 946.645833 89.340665 
L 946.645833 89.340665 
" style="fill:none;stroke:#000000;stroke-width:1.5;"/>
    <path clip-path="url(#p5f95325479)" d="M 1073 89.160458 
L 1073 89.160458 
" style="fill:none;stroke:#000000;stroke-width:1.5;"/>
    <path clip-path="url(#p5f95325479)" d="M 1199.354167 89.160458 
L 1199.354167 89.160458 
" style="fill:none;stroke:#000000;stroke-width:1.5;"/>
    <path clip-path="url(#p5f95325479)" d="M 1325.708333 89.160458 
L 1325.708333 89.160458 
" style="fill:none;stroke:#000000;stroke-width:1.5;"/>
   </g>
   <g id="LineCollection_10">
    <path clip-path="url(#p5f95325479)" d="M 959.28125 81.003258 
L 959.28125 79.873711 
" style="fill:none;stroke:#000000;stroke-width:1.5;"/>
    <path clip-path="url(#p5f95325479)" d="M 1085.635417 80.406747 
L 1085.635417 79.857521 
" style="fill:none;stroke:#000000;stroke-width:1.5;"/>
    <path clip-path="url(#p5f95325479)" d="M 1211.989583 80.390981 
L 1211.989583 79.801205 
" style="fill:none;stroke:#000000;stroke-width:1.5;"/>
    <path clip-path="url(#p5f95325479)" d="M 1338.34375 80.171588 
L 1338.34375 79.840392 
" style="fill:none;stroke:#000000;stroke-width:1.5;"/>
   </g>
   <g id="patch_54">
    <path d="M 870.833333 508.5 
L 870.833333 42.75 
" style="fill:none;stroke:#000000;stroke-linecap:square;stroke-linejoin:miter;stroke-width:0.8;"/>
   </g>
   <g id="patch_55">
    <path d="M 1376.25 508.5 
L 1376.25 42.75 
" style="fill:none;stroke:#000000;stroke-linecap:square;stroke-linejoin:miter;stroke-width:0.8;"/>
   </g>
   <g id="patch_56">
    <path d="M 870.833333 508.5 
L 1376.25 508.5 
" style="fill:none;stroke:#000000;stroke-linecap:square;stroke-linejoin:miter;stroke-width:0.8;"/>
   </g>
   <g id="patch_57">
    <path d="M 870.833333 42.75 
L 1376.25 42.75 
" style="fill:none;stroke:#000000;stroke-linecap:square;stroke-linejoin:miter;stroke-width:0.8;"/>
   </g>
   <g id="text_32">
    <!-- Sparsity -->
    <g transform="translate(1064.843667 36.75)scale(0.288 -0.288)">
     <defs>
      <path d="M 53.515625 70.515625 
L 53.515625 60.890625 
Q 47.90625 63.578125 42.921875 64.890625 
Q 37.9375 66.21875 33.296875 66.21875 
Q 25.25 66.21875 20.875 63.09375 
Q 16.5 59.96875 16.5 54.203125 
Q 16.5 49.359375 19.40625 46.890625 
Q 22.3125 44.4375 30.421875 42.921875 
L 36.375 41.703125 
Q 47.40625 39.59375 52.65625 34.296875 
Q 57.90625 29 57.90625 20.125 
Q 57.90625 9.515625 50.796875 4.046875 
Q 43.703125 -1.421875 29.984375 -1.421875 
Q 24.8125 -1.421875 18.96875 -0.25 
Q 13.140625 0.921875 6.890625 3.21875 
L 6.890625 13.375 
Q 12.890625 10.015625 18.65625 8.296875 
Q 24.421875 6.59375 29.984375 6.59375 
Q 38.421875 6.59375 43.015625 9.90625 
Q 47.609375 13.234375 47.609375 19.390625 
Q 47.609375 24.75 44.3125 27.78125 
Q 41.015625 30.8125 33.5 32.328125 
L 27.484375 33.5 
Q 16.453125 35.6875 11.515625 40.375 
Q 6.59375 45.0625 6.59375 53.421875 
Q 6.59375 63.09375 13.40625 68.65625 
Q 20.21875 74.21875 32.171875 74.21875 
Q 37.3125 74.21875 42.625 73.28125 
Q 47.953125 72.359375 53.515625 70.515625 
z
" id="DejaVuSans-83"/>
      <path d="M 32.171875 -5.078125 
Q 28.375 -14.84375 24.75 -17.8125 
Q 21.140625 -20.796875 15.09375 -20.796875 
L 7.90625 -20.796875 
L 7.90625 -13.28125 
L 13.1875 -13.28125 
Q 16.890625 -13.28125 18.9375 -11.515625 
Q 21 -9.765625 23.484375 -3.21875 
L 25.09375 0.875 
L 2.984375 54.6875 
L 12.5 54.6875 
L 29.59375 11.921875 
L 46.6875 54.6875 
L 56.203125 54.6875 
z
" id="DejaVuSans-121"/>
     </defs>
     <use xlink:href="#DejaVuSans-83"/>
     <use x="63.476562" xlink:href="#DejaVuSans-112"/>
     <use x="126.953125" xlink:href="#DejaVuSans-97"/>
     <use x="188.232422" xlink:href="#DejaVuSans-114"/>
     <use x="229.345703" xlink:href="#DejaVuSans-115"/>
     <use x="281.445312" xlink:href="#DejaVuSans-105"/>
     <use x="309.228516" xlink:href="#DejaVuSans-116"/>
     <use x="348.4375" xlink:href="#DejaVuSans-121"/>
    </g>
   </g>
  </g>
  <g id="axes_3">
   <g id="patch_58">
    <path d="M 150.833333 1156.5 
L 656.25 1156.5 
L 656.25 690.75 
L 150.833333 690.75 
z
" style="fill:#ffffff;"/>
   </g>
   <g id="patch_59">
    <path clip-path="url(#p4edf77784e)" d="M 182.421875 1156.5 
L 195.057292 1156.5 
L 195.057292 740.996844 
L 182.421875 740.996844 
z
" style="fill:#1b9e77;"/>
   </g>
   <g id="patch_60">
    <path clip-path="url(#p4edf77784e)" d="M 308.776042 1156.5 
L 321.411458 1156.5 
L 321.411458 739.504193 
L 308.776042 739.504193 
z
" style="fill:#1b9e77;"/>
   </g>
   <g id="patch_61">
    <path clip-path="url(#p4edf77784e)" d="M 435.130208 1156.5 
L 447.765625 1156.5 
L 447.765625 739.140132 
L 435.130208 739.140132 
z
" style="fill:#1b9e77;"/>
   </g>
   <g id="patch_62">
    <path clip-path="url(#p4edf77784e)" d="M 561.484375 1156.5 
L 574.119792 1156.5 
L 574.119792 738.557633 
L 561.484375 738.557633 
z
" style="fill:#1b9e77;"/>
   </g>
   <g id="patch_63">
    <path clip-path="url(#p4edf77784e)" d="M 195.057292 1156.5 
L 207.692708 1156.5 
L 207.692708 813.881915 
L 195.057292 813.881915 
z
" style="fill:#7570b3;"/>
   </g>
   <g id="patch_64">
    <path clip-path="url(#p4edf77784e)" d="M 321.411458 1156.5 
L 334.046875 1156.5 
L 334.046875 806.382253 
L 321.411458 806.382253 
z
" style="fill:#7570b3;"/>
   </g>
   <g id="patch_65">
    <path clip-path="url(#p4edf77784e)" d="M 447.765625 1156.5 
L 460.401042 1156.5 
L 460.401042 804.161479 
L 447.765625 804.161479 
z
" style="fill:#7570b3;"/>
   </g>
   <g id="patch_66">
    <path clip-path="url(#p4edf77784e)" d="M 574.119792 1156.5 
L 586.755208 1156.5 
L 586.755208 809.185525 
L 574.119792 809.185525 
z
" style="fill:#7570b3;"/>
   </g>
   <g id="patch_67">
    <path clip-path="url(#p4edf77784e)" d="M 207.692708 1156.5 
L 220.328125 1156.5 
L 220.328125 814.864881 
L 207.692708 814.864881 
z
" style="fill:#66a61e;"/>
   </g>
   <g id="patch_68">
    <path clip-path="url(#p4edf77784e)" d="M 334.046875 1156.5 
L 346.682292 1156.5 
L 346.682292 792.875579 
L 334.046875 792.875579 
z
" style="fill:#66a61e;"/>
   </g>
   <g id="patch_69">
    <path clip-path="url(#p4edf77784e)" d="M 460.401042 1156.5 
L 473.036458 1156.5 
L 473.036458 732.186561 
L 460.401042 732.186561 
z
" style="fill:#66a61e;"/>
   </g>
   <g id="patch_70">
    <path clip-path="url(#p4edf77784e)" d="M 586.755208 1156.5 
L 599.390625 1156.5 
L 599.390625 720.827848 
L 586.755208 720.827848 
z
" style="fill:#66a61e;"/>
   </g>
   <g id="patch_71">
    <path clip-path="url(#p4edf77784e)" d="M 220.328125 1156.5 
L 232.963542 1156.5 
L 232.963542 761.16584 
L 220.328125 761.16584 
z
" style="fill:#a6761d;"/>
   </g>
   <g id="patch_72">
    <path clip-path="url(#p4edf77784e)" d="M 346.682292 1156.5 
L 359.317708 1156.5 
L 359.317708 765.279733 
L 346.682292 765.279733 
z
" style="fill:#a6761d;"/>
   </g>
   <g id="patch_73">
    <path clip-path="url(#p4edf77784e)" d="M 473.036458 1156.5 
L 485.671875 1156.5 
L 485.671875 763.641457 
L 473.036458 763.641457 
z
" style="fill:#a6761d;"/>
   </g>
   <g id="patch_74">
    <path clip-path="url(#p4edf77784e)" d="M 599.390625 1156.5 
L 612.026042 1156.5 
L 612.026042 764.260361 
L 599.390625 764.260361 
z
" style="fill:#a6761d;"/>
   </g>
   <g id="patch_75">
    <path clip-path="url(#p4edf77784e)" d="M 232.963542 1156.5 
L 245.598958 1156.5 
L 245.598958 723.63112 
L 232.963542 723.63112 
z
" style="fill:#666666;"/>
   </g>
   <g id="patch_76">
    <path clip-path="url(#p4edf77784e)" d="M 359.317708 1156.5 
L 371.953125 1156.5 
L 371.953125 720.645818 
L 359.317708 720.645818 
z
" style="fill:#666666;"/>
   </g>
   <g id="patch_77">
    <path clip-path="url(#p4edf77784e)" d="M 485.671875 1156.5 
L 498.307292 1156.5 
L 498.307292 722.720967 
L 485.671875 722.720967 
z
" style="fill:#666666;"/>
   </g>
   <g id="patch_78">
    <path clip-path="url(#p4edf77784e)" d="M 612.026042 1156.5 
L 624.661458 1156.5 
L 624.661458 722.065657 
L 612.026042 722.065657 
z
" style="fill:#666666;"/>
   </g>
   <g id="matplotlib.axis_5">
    <g id="xtick_9">
     <g id="line2d_22">
      <g>
       <use style="stroke:#000000;stroke-width:0.8;" x="214.010417" xlink:href="#m092843a438" y="1156.5"/>
      </g>
     </g>
     <g id="text_33">
      <!-- 500 -->
      <g transform="translate(220.632917 1209.31)rotate(-90)scale(0.24 -0.24)">
       <use xlink:href="#DejaVuSans-53"/>
       <use x="63.623047" xlink:href="#DejaVuSans-48"/>
       <use x="127.246094" xlink:href="#DejaVuSans-48"/>
      </g>
     </g>
    </g>
    <g id="xtick_10">
     <g id="line2d_23">
      <g>
       <use style="stroke:#000000;stroke-width:0.8;" x="340.364583" xlink:href="#m092843a438" y="1156.5"/>
      </g>
     </g>
     <g id="text_34">
      <!-- 750 -->
      <g transform="translate(346.987083 1209.31)rotate(-90)scale(0.24 -0.24)">
       <use xlink:href="#DejaVuSans-55"/>
       <use x="63.623047" xlink:href="#DejaVuSans-53"/>
       <use x="127.246094" xlink:href="#DejaVuSans-48"/>
      </g>
     </g>
    </g>
    <g id="xtick_11">
     <g id="line2d_24">
      <g>
       <use style="stroke:#000000;stroke-width:0.8;" x="466.71875" xlink:href="#m092843a438" y="1156.5"/>
      </g>
     </g>
     <g id="text_35">
      <!-- 1000 -->
      <g transform="translate(473.34125 1224.58)rotate(-90)scale(0.24 -0.24)">
       <use xlink:href="#DejaVuSans-49"/>
       <use x="63.623047" xlink:href="#DejaVuSans-48"/>
       <use x="127.246094" xlink:href="#DejaVuSans-48"/>
       <use x="190.869141" xlink:href="#DejaVuSans-48"/>
      </g>
     </g>
    </g>
    <g id="xtick_12">
     <g id="line2d_25">
      <g>
       <use style="stroke:#000000;stroke-width:0.8;" x="593.072917" xlink:href="#m092843a438" y="1156.5"/>
      </g>
     </g>
     <g id="text_36">
      <!-- 1500 -->
      <g transform="translate(599.695417 1224.58)rotate(-90)scale(0.24 -0.24)">
       <use xlink:href="#DejaVuSans-49"/>
       <use x="63.623047" xlink:href="#DejaVuSans-53"/>
       <use x="127.246094" xlink:href="#DejaVuSans-48"/>
       <use x="190.869141" xlink:href="#DejaVuSans-48"/>
      </g>
     </g>
    </g>
    <g id="text_37">
     <!-- size -->
     <g transform="translate(380.274792 1246.81625)scale(0.24 -0.24)">
      <use xlink:href="#DejaVuSans-115"/>
      <use x="52.099609" xlink:href="#DejaVuSans-105"/>
      <use x="79.882812" xlink:href="#DejaVuSans-122"/>
      <use x="132.373047" xlink:href="#DejaVuSans-101"/>
     </g>
    </g>
   </g>
   <g id="matplotlib.axis_6">
    <g id="ytick_14">
     <g id="line2d_26">
      <g>
       <use style="stroke:#000000;stroke-width:0.8;" x="150.833333" xlink:href="#mec7f017f07" y="1156.5"/>
      </g>
     </g>
     <g id="text_38">
      <!-- 0.0 -->
      <g transform="translate(105.665833 1165.618125)scale(0.24 -0.24)">
       <use xlink:href="#DejaVuSans-48"/>
       <use x="63.623047" xlink:href="#DejaVuSans-46"/>
       <use x="95.410156" xlink:href="#DejaVuSans-48"/>
      </g>
     </g>
    </g>
    <g id="ytick_15">
     <g id="line2d_27">
      <g>
       <use style="stroke:#000000;stroke-width:0.8;" x="150.833333" xlink:href="#mec7f017f07" y="1083.687741"/>
      </g>
     </g>
     <g id="text_39">
      <!-- 0.2 -->
      <g transform="translate(105.665833 1092.805866)scale(0.24 -0.24)">
       <use xlink:href="#DejaVuSans-48"/>
       <use x="63.623047" xlink:href="#DejaVuSans-46"/>
       <use x="95.410156" xlink:href="#DejaVuSans-50"/>
      </g>
     </g>
    </g>
    <g id="ytick_16">
     <g id="line2d_28">
      <g>
       <use style="stroke:#000000;stroke-width:0.8;" x="150.833333" xlink:href="#mec7f017f07" y="1010.875482"/>
      </g>
     </g>
     <g id="text_40">
      <!-- 0.4 -->
      <g transform="translate(105.665833 1019.993607)scale(0.24 -0.24)">
       <use xlink:href="#DejaVuSans-48"/>
       <use x="63.623047" xlink:href="#DejaVuSans-46"/>
       <use x="95.410156" xlink:href="#DejaVuSans-52"/>
      </g>
     </g>
    </g>
    <g id="ytick_17">
     <g id="line2d_29">
      <g>
       <use style="stroke:#000000;stroke-width:0.8;" x="150.833333" xlink:href="#mec7f017f07" y="938.063223"/>
      </g>
     </g>
     <g id="text_41">
      <!-- 0.6 -->
      <g transform="translate(105.665833 947.181348)scale(0.24 -0.24)">
       <use xlink:href="#DejaVuSans-48"/>
       <use x="63.623047" xlink:href="#DejaVuSans-46"/>
       <use x="95.410156" xlink:href="#DejaVuSans-54"/>
      </g>
     </g>
    </g>
    <g id="ytick_18">
     <g id="line2d_30">
      <g>
       <use style="stroke:#000000;stroke-width:0.8;" x="150.833333" xlink:href="#mec7f017f07" y="865.250964"/>
      </g>
     </g>
     <g id="text_42">
      <!-- 0.8 -->
      <g transform="translate(105.665833 874.369089)scale(0.24 -0.24)">
       <use xlink:href="#DejaVuSans-48"/>
       <use x="63.623047" xlink:href="#DejaVuSans-46"/>
       <use x="95.410156" xlink:href="#DejaVuSans-56"/>
      </g>
     </g>
    </g>
    <g id="ytick_19">
     <g id="line2d_31">
      <g>
       <use style="stroke:#000000;stroke-width:0.8;" x="150.833333" xlink:href="#mec7f017f07" y="792.438705"/>
      </g>
     </g>
     <g id="text_43">
      <!-- 1.0 -->
      <g transform="translate(105.665833 801.55683)scale(0.24 -0.24)">
       <use xlink:href="#DejaVuSans-49"/>
       <use x="63.623047" xlink:href="#DejaVuSans-46"/>
       <use x="95.410156" xlink:href="#DejaVuSans-48"/>
      </g>
     </g>
    </g>
    <g id="ytick_20">
     <g id="line2d_32">
      <g>
       <use style="stroke:#000000;stroke-width:0.8;" x="150.833333" xlink:href="#mec7f017f07" y="719.626446"/>
      </g>
     </g>
     <g id="text_44">
      <!-- 1.2 -->
      <g transform="translate(105.665833 728.744571)scale(0.24 -0.24)">
       <use xlink:href="#DejaVuSans-49"/>
       <use x="63.623047" xlink:href="#DejaVuSans-46"/>
       <use x="95.410156" xlink:href="#DejaVuSans-50"/>
      </g>
     </g>
    </g>
    <g id="text_45">
     <!-- average in-degree per node -->
     <g transform="translate(96.674583 1091.398125)rotate(-90)scale(0.24 -0.24)">
      <use xlink:href="#DejaVuSans-97"/>
      <use x="61.279297" xlink:href="#DejaVuSans-118"/>
      <use x="120.458984" xlink:href="#DejaVuSans-101"/>
      <use x="181.982422" xlink:href="#DejaVuSans-114"/>
      <use x="223.095703" xlink:href="#DejaVuSans-97"/>
      <use x="284.375" xlink:href="#DejaVuSans-103"/>
      <use x="347.851562" xlink:href="#DejaVuSans-101"/>
      <use x="409.375" xlink:href="#DejaVuSans-32"/>
      <use x="441.162109" xlink:href="#DejaVuSans-105"/>
      <use x="468.945312" xlink:href="#DejaVuSans-110"/>
      <use x="532.324219" xlink:href="#DejaVuSans-45"/>
      <use x="568.408203" xlink:href="#DejaVuSans-100"/>
      <use x="631.884766" xlink:href="#DejaVuSans-101"/>
      <use x="693.408203" xlink:href="#DejaVuSans-103"/>
      <use x="756.884766" xlink:href="#DejaVuSans-114"/>
      <use x="795.748047" xlink:href="#DejaVuSans-101"/>
      <use x="857.271484" xlink:href="#DejaVuSans-101"/>
      <use x="918.794922" xlink:href="#DejaVuSans-32"/>
      <use x="950.582031" xlink:href="#DejaVuSans-112"/>
      <use x="1014.058594" xlink:href="#DejaVuSans-101"/>
      <use x="1075.582031" xlink:href="#DejaVuSans-114"/>
      <use x="1116.695312" xlink:href="#DejaVuSans-32"/>
      <use x="1148.482422" xlink:href="#DejaVuSans-110"/>
      <use x="1211.861328" xlink:href="#DejaVuSans-111"/>
      <use x="1273.042969" xlink:href="#DejaVuSans-100"/>
      <use x="1336.519531" xlink:href="#DejaVuSans-101"/>
     </g>
    </g>
   </g>
   <g id="LineCollection_11">
    <path clip-path="url(#p4edf77784e)" d="M 188.739583 749.789844 
L 188.739583 732.203845 
" style="fill:none;stroke:#000000;stroke-width:1.5;"/>
    <path clip-path="url(#p4edf77784e)" d="M 315.09375 744.791653 
L 315.09375 734.216733 
" style="fill:none;stroke:#000000;stroke-width:1.5;"/>
    <path clip-path="url(#p4edf77784e)" d="M 441.447917 743.997921 
L 441.447917 734.282342 
" style="fill:none;stroke:#000000;stroke-width:1.5;"/>
    <path clip-path="url(#p4edf77784e)" d="M 567.802083 741.085756 
L 567.802083 736.029511 
" style="fill:none;stroke:#000000;stroke-width:1.5;"/>
   </g>
   <g id="LineCollection_12">
    <path clip-path="url(#p4edf77784e)" d="M 201.375 822.075676 
L 201.375 805.688154 
" style="fill:none;stroke:#000000;stroke-width:1.5;"/>
    <path clip-path="url(#p4edf77784e)" d="M 327.729167 817.679304 
L 327.729167 795.085201 
" style="fill:none;stroke:#000000;stroke-width:1.5;"/>
    <path clip-path="url(#p4edf77784e)" d="M 454.083333 816.052662 
L 454.083333 792.270296 
" style="fill:none;stroke:#000000;stroke-width:1.5;"/>
    <path clip-path="url(#p4edf77784e)" d="M 580.4375 821.960566 
L 580.4375 796.410483 
" style="fill:none;stroke:#000000;stroke-width:1.5;"/>
   </g>
   <g id="LineCollection_13">
    <path clip-path="url(#p4edf77784e)" d="M 214.010417 876.624338 
L 214.010417 753.105423 
" style="fill:none;stroke:#000000;stroke-width:1.5;"/>
    <path clip-path="url(#p4edf77784e)" d="M 340.364583 845.146183 
L 340.364583 740.604975 
" style="fill:none;stroke:#000000;stroke-width:1.5;"/>
    <path clip-path="url(#p4edf77784e)" d="M 466.71875 748.524987 
L 466.71875 715.848134 
" style="fill:none;stroke:#000000;stroke-width:1.5;"/>
    <path clip-path="url(#p4edf77784e)" d="M 593.072917 721.940736 
L 593.072917 719.714961 
" style="fill:none;stroke:#000000;stroke-width:1.5;"/>
   </g>
   <g id="LineCollection_14">
    <path clip-path="url(#p4edf77784e)" d="M 226.645833 767.94527 
L 226.645833 754.38641 
" style="fill:none;stroke:#000000;stroke-width:1.5;"/>
    <path clip-path="url(#p4edf77784e)" d="M 353 772.934068 
L 353 757.625397 
" style="fill:none;stroke:#000000;stroke-width:1.5;"/>
    <path clip-path="url(#p4edf77784e)" d="M 479.354167 769.49028 
L 479.354167 757.792633 
" style="fill:none;stroke:#000000;stroke-width:1.5;"/>
    <path clip-path="url(#p4edf77784e)" d="M 605.708333 767.807546 
L 605.708333 760.713176 
" style="fill:none;stroke:#000000;stroke-width:1.5;"/>
   </g>
   <g id="LineCollection_15">
    <path clip-path="url(#p4edf77784e)" d="M 239.28125 734.333669 
L 239.28125 712.928571 
" style="fill:none;stroke:#000000;stroke-width:1.5;"/>
    <path clip-path="url(#p4edf77784e)" d="M 365.635417 728.316681 
L 365.635417 712.974954 
" style="fill:none;stroke:#000000;stroke-width:1.5;"/>
    <path clip-path="url(#p4edf77784e)" d="M 491.989583 727.275373 
L 491.989583 718.166562 
" style="fill:none;stroke:#000000;stroke-width:1.5;"/>
    <path clip-path="url(#p4edf77784e)" d="M 618.34375 726.220318 
L 618.34375 717.910996 
" style="fill:none;stroke:#000000;stroke-width:1.5;"/>
   </g>
   <g id="patch_79">
    <path d="M 150.833333 1156.5 
L 150.833333 690.75 
" style="fill:none;stroke:#000000;stroke-linecap:square;stroke-linejoin:miter;stroke-width:0.8;"/>
   </g>
   <g id="patch_80">
    <path d="M 656.25 1156.5 
L 656.25 690.75 
" style="fill:none;stroke:#000000;stroke-linecap:square;stroke-linejoin:miter;stroke-width:0.8;"/>
   </g>
   <g id="patch_81">
    <path d="M 150.833333 1156.5 
L 656.25 1156.5 
" style="fill:none;stroke:#000000;stroke-linecap:square;stroke-linejoin:miter;stroke-width:0.8;"/>
   </g>
   <g id="patch_82">
    <path d="M 150.833333 690.75 
L 656.25 690.75 
" style="fill:none;stroke:#000000;stroke-linecap:square;stroke-linejoin:miter;stroke-width:0.8;"/>
   </g>
   <g id="text_46">
    <!-- In-degree -->
    <g transform="translate(334.511667 684.75)scale(0.288 -0.288)">
     <defs>
      <path d="M 9.8125 72.90625 
L 19.671875 72.90625 
L 19.671875 0 
L 9.8125 0 
z
" id="DejaVuSans-73"/>
     </defs>
     <use xlink:href="#DejaVuSans-73"/>
     <use x="29.492188" xlink:href="#DejaVuSans-110"/>
     <use x="92.871094" xlink:href="#DejaVuSans-45"/>
     <use x="128.955078" xlink:href="#DejaVuSans-100"/>
     <use x="192.431641" xlink:href="#DejaVuSans-101"/>
     <use x="253.955078" xlink:href="#DejaVuSans-103"/>
     <use x="317.431641" xlink:href="#DejaVuSans-114"/>
     <use x="356.294922" xlink:href="#DejaVuSans-101"/>
     <use x="417.818359" xlink:href="#DejaVuSans-101"/>
    </g>
   </g>
  </g>
  <g id="axes_4">
   <g id="patch_83">
    <path d="M 870.833333 1156.5 
L 1376.25 1156.5 
L 1376.25 690.75 
L 870.833333 690.75 
z
" style="fill:#ffffff;"/>
   </g>
   <g id="patch_84">
    <path clip-path="url(#pfca16ba607)" d="M 902.421875 1156.5 
L 915.057292 1156.5 
L 915.057292 797.889618 
L 902.421875 797.889618 
z
" style="fill:#1b9e77;"/>
   </g>
   <g id="patch_85">
    <path clip-path="url(#pfca16ba607)" d="M 1028.776042 1156.5 
L 1041.411458 1156.5 
L 1041.411458 799.158543 
L 1028.776042 799.158543 
z
" style="fill:#1b9e77;"/>
   </g>
   <g id="patch_86">
    <path clip-path="url(#pfca16ba607)" d="M 1155.130208 1156.5 
L 1167.765625 1156.5 
L 1167.765625 799.468036 
L 1155.130208 799.468036 
z
" style="fill:#1b9e77;"/>
   </g>
   <g id="patch_87">
    <path clip-path="url(#pfca16ba607)" d="M 1281.484375 1156.5 
L 1294.119792 1156.5 
L 1294.119792 799.963226 
L 1281.484375 799.963226 
z
" style="fill:#1b9e77;"/>
   </g>
   <g id="patch_88">
    <path clip-path="url(#pfca16ba607)" d="M 915.057292 1156.5 
L 927.692708 1156.5 
L 927.692708 734.133911 
L 915.057292 734.133911 
z
" style="fill:#7570b3;"/>
   </g>
   <g id="patch_89">
    <path clip-path="url(#pfca16ba607)" d="M 1041.411458 1156.5 
L 1054.046875 1156.5 
L 1054.046875 729.058213 
L 1041.411458 729.058213 
z
" style="fill:#7570b3;"/>
   </g>
   <g id="patch_90">
    <path clip-path="url(#pfca16ba607)" d="M 1167.765625 1156.5 
L 1180.401042 1156.5 
L 1180.401042 730.946125 
L 1167.765625 730.946125 
z
" style="fill:#7570b3;"/>
   </g>
   <g id="patch_91">
    <path clip-path="url(#pfca16ba607)" d="M 1294.119792 1156.5 
L 1306.755208 1156.5 
L 1306.755208 734.257708 
L 1294.119792 734.257708 
z
" style="fill:#7570b3;"/>
   </g>
   <g id="patch_92">
    <path clip-path="url(#pfca16ba607)" d="M 927.692708 1156.5 
L 940.328125 1156.5 
L 940.328125 858.055199 
L 927.692708 858.055199 
z
" style="fill:#66a61e;"/>
   </g>
   <g id="patch_93">
    <path clip-path="url(#pfca16ba607)" d="M 1054.046875 1156.5 
L 1066.682292 1156.5 
L 1066.682292 836.545385 
L 1054.046875 836.545385 
z
" style="fill:#66a61e;"/>
   </g>
   <g id="patch_94">
    <path clip-path="url(#pfca16ba607)" d="M 1180.401042 1156.5 
L 1193.036458 1156.5 
L 1193.036458 790.554617 
L 1180.401042 790.554617 
z
" style="fill:#66a61e;"/>
   </g>
   <g id="patch_95">
    <path clip-path="url(#pfca16ba607)" d="M 1306.755208 1156.5 
L 1319.390625 1156.5 
L 1319.390625 765.26898 
L 1306.755208 765.26898 
z
" style="fill:#66a61e;"/>
   </g>
   <g id="patch_96">
    <path clip-path="url(#pfca16ba607)" d="M 940.328125 1156.5 
L 952.963542 1156.5 
L 952.963542 772.696829 
L 940.328125 772.696829 
z
" style="fill:#a6761d;"/>
   </g>
   <g id="patch_97">
    <path clip-path="url(#pfca16ba607)" d="M 1066.682292 1156.5 
L 1079.317708 1156.5 
L 1079.317708 768.982904 
L 1066.682292 768.982904 
z
" style="fill:#a6761d;"/>
   </g>
   <g id="patch_98">
    <path clip-path="url(#pfca16ba607)" d="M 1193.036458 1156.5 
L 1205.671875 1156.5 
L 1205.671875 770.282778 
L 1193.036458 770.282778 
z
" style="fill:#a6761d;"/>
   </g>
   <g id="patch_99">
    <path clip-path="url(#pfca16ba607)" d="M 1319.390625 1156.5 
L 1332.026042 1156.5 
L 1332.026042 769.570942 
L 1319.390625 769.570942 
z
" style="fill:#a6761d;"/>
   </g>
   <g id="patch_100">
    <path clip-path="url(#pfca16ba607)" d="M 952.963542 1156.5 
L 965.598958 1156.5 
L 965.598958 789.316642 
L 952.963542 789.316642 
z
" style="fill:#666666;"/>
   </g>
   <g id="patch_101">
    <path clip-path="url(#pfca16ba607)" d="M 1079.317708 1156.5 
L 1091.953125 1156.5 
L 1091.953125 791.328351 
L 1079.317708 791.328351 
z
" style="fill:#666666;"/>
   </g>
   <g id="patch_102">
    <path clip-path="url(#pfca16ba607)" d="M 1205.671875 1156.5 
L 1218.307292 1156.5 
L 1218.307292 789.502338 
L 1205.671875 789.502338 
z
" style="fill:#666666;"/>
   </g>
   <g id="patch_103">
    <path clip-path="url(#pfca16ba607)" d="M 1332.026042 1156.5 
L 1344.661458 1156.5 
L 1344.661458 789.873731 
L 1332.026042 789.873731 
z
" style="fill:#666666;"/>
   </g>
   <g id="matplotlib.axis_7">
    <g id="xtick_13">
     <g id="line2d_33">
      <g>
       <use style="stroke:#000000;stroke-width:0.8;" x="934.010417" xlink:href="#m092843a438" y="1156.5"/>
      </g>
     </g>
     <g id="text_47">
      <!-- 500 -->
      <g transform="translate(940.632917 1209.31)rotate(-90)scale(0.24 -0.24)">
       <use xlink:href="#DejaVuSans-53"/>
       <use x="63.623047" xlink:href="#DejaVuSans-48"/>
       <use x="127.246094" xlink:href="#DejaVuSans-48"/>
      </g>
     </g>
    </g>
    <g id="xtick_14">
     <g id="line2d_34">
      <g>
       <use style="stroke:#000000;stroke-width:0.8;" x="1060.364583" xlink:href="#m092843a438" y="1156.5"/>
      </g>
     </g>
     <g id="text_48">
      <!-- 750 -->
      <g transform="translate(1066.987083 1209.31)rotate(-90)scale(0.24 -0.24)">
       <use xlink:href="#DejaVuSans-55"/>
       <use x="63.623047" xlink:href="#DejaVuSans-53"/>
       <use x="127.246094" xlink:href="#DejaVuSans-48"/>
      </g>
     </g>
    </g>
    <g id="xtick_15">
     <g id="line2d_35">
      <g>
       <use style="stroke:#000000;stroke-width:0.8;" x="1186.71875" xlink:href="#m092843a438" y="1156.5"/>
      </g>
     </g>
     <g id="text_49">
      <!-- 1000 -->
      <g transform="translate(1193.34125 1224.58)rotate(-90)scale(0.24 -0.24)">
       <use xlink:href="#DejaVuSans-49"/>
       <use x="63.623047" xlink:href="#DejaVuSans-48"/>
       <use x="127.246094" xlink:href="#DejaVuSans-48"/>
       <use x="190.869141" xlink:href="#DejaVuSans-48"/>
      </g>
     </g>
    </g>
    <g id="xtick_16">
     <g id="line2d_36">
      <g>
       <use style="stroke:#000000;stroke-width:0.8;" x="1313.072917" xlink:href="#m092843a438" y="1156.5"/>
      </g>
     </g>
     <g id="text_50">
      <!-- 1500 -->
      <g transform="translate(1319.695417 1224.58)rotate(-90)scale(0.24 -0.24)">
       <use xlink:href="#DejaVuSans-49"/>
       <use x="63.623047" xlink:href="#DejaVuSans-53"/>
       <use x="127.246094" xlink:href="#DejaVuSans-48"/>
       <use x="190.869141" xlink:href="#DejaVuSans-48"/>
      </g>
     </g>
    </g>
    <g id="text_51">
     <!-- size -->
     <g transform="translate(1100.274792 1246.81625)scale(0.24 -0.24)">
      <use xlink:href="#DejaVuSans-115"/>
      <use x="52.099609" xlink:href="#DejaVuSans-105"/>
      <use x="79.882812" xlink:href="#DejaVuSans-122"/>
      <use x="132.373047" xlink:href="#DejaVuSans-101"/>
     </g>
    </g>
   </g>
   <g id="matplotlib.axis_8">
    <g id="ytick_21">
     <g id="line2d_37">
      <g>
       <use style="stroke:#000000;stroke-width:0.8;" x="870.833333" xlink:href="#mec7f017f07" y="1156.5"/>
      </g>
     </g>
     <g id="text_52">
      <!-- 0.0 -->
      <g transform="translate(825.665833 1165.618125)scale(0.24 -0.24)">
       <use xlink:href="#DejaVuSans-48"/>
       <use x="63.623047" xlink:href="#DejaVuSans-46"/>
       <use x="95.410156" xlink:href="#DejaVuSans-48"/>
      </g>
     </g>
    </g>
    <g id="ytick_22">
     <g id="line2d_38">
      <g>
       <use style="stroke:#000000;stroke-width:0.8;" x="870.833333" xlink:href="#mec7f017f07" y="1094.601255"/>
      </g>
     </g>
     <g id="text_53">
      <!-- 0.2 -->
      <g transform="translate(825.665833 1103.71938)scale(0.24 -0.24)">
       <use xlink:href="#DejaVuSans-48"/>
       <use x="63.623047" xlink:href="#DejaVuSans-46"/>
       <use x="95.410156" xlink:href="#DejaVuSans-50"/>
      </g>
     </g>
    </g>
    <g id="ytick_23">
     <g id="line2d_39">
      <g>
       <use style="stroke:#000000;stroke-width:0.8;" x="870.833333" xlink:href="#mec7f017f07" y="1032.702509"/>
      </g>
     </g>
     <g id="text_54">
      <!-- 0.4 -->
      <g transform="translate(825.665833 1041.820634)scale(0.24 -0.24)">
       <use xlink:href="#DejaVuSans-48"/>
       <use x="63.623047" xlink:href="#DejaVuSans-46"/>
       <use x="95.410156" xlink:href="#DejaVuSans-52"/>
      </g>
     </g>
    </g>
    <g id="ytick_24">
     <g id="line2d_40">
      <g>
       <use style="stroke:#000000;stroke-width:0.8;" x="870.833333" xlink:href="#mec7f017f07" y="970.803764"/>
      </g>
     </g>
     <g id="text_55">
      <!-- 0.6 -->
      <g transform="translate(825.665833 979.921889)scale(0.24 -0.24)">
       <use xlink:href="#DejaVuSans-48"/>
       <use x="63.623047" xlink:href="#DejaVuSans-46"/>
       <use x="95.410156" xlink:href="#DejaVuSans-54"/>
      </g>
     </g>
    </g>
    <g id="ytick_25">
     <g id="line2d_41">
      <g>
       <use style="stroke:#000000;stroke-width:0.8;" x="870.833333" xlink:href="#mec7f017f07" y="908.905018"/>
      </g>
     </g>
     <g id="text_56">
      <!-- 0.8 -->
      <g transform="translate(825.665833 918.023143)scale(0.24 -0.24)">
       <use xlink:href="#DejaVuSans-48"/>
       <use x="63.623047" xlink:href="#DejaVuSans-46"/>
       <use x="95.410156" xlink:href="#DejaVuSans-56"/>
      </g>
     </g>
    </g>
    <g id="ytick_26">
     <g id="line2d_42">
      <g>
       <use style="stroke:#000000;stroke-width:0.8;" x="870.833333" xlink:href="#mec7f017f07" y="847.006273"/>
      </g>
     </g>
     <g id="text_57">
      <!-- 1.0 -->
      <g transform="translate(825.665833 856.124398)scale(0.24 -0.24)">
       <use xlink:href="#DejaVuSans-49"/>
       <use x="63.623047" xlink:href="#DejaVuSans-46"/>
       <use x="95.410156" xlink:href="#DejaVuSans-48"/>
      </g>
     </g>
    </g>
    <g id="ytick_27">
     <g id="line2d_43">
      <g>
       <use style="stroke:#000000;stroke-width:0.8;" x="870.833333" xlink:href="#mec7f017f07" y="785.107527"/>
      </g>
     </g>
     <g id="text_58">
      <!-- 1.2 -->
      <g transform="translate(825.665833 794.225652)scale(0.24 -0.24)">
       <use xlink:href="#DejaVuSans-49"/>
       <use x="63.623047" xlink:href="#DejaVuSans-46"/>
       <use x="95.410156" xlink:href="#DejaVuSans-50"/>
      </g>
     </g>
    </g>
    <g id="ytick_28">
     <g id="line2d_44">
      <g>
       <use style="stroke:#000000;stroke-width:0.8;" x="870.833333" xlink:href="#mec7f017f07" y="723.208782"/>
      </g>
     </g>
     <g id="text_59">
      <!-- 1.4 -->
      <g transform="translate(825.665833 732.326907)scale(0.24 -0.24)">
       <use xlink:href="#DejaVuSans-49"/>
       <use x="63.623047" xlink:href="#DejaVuSans-46"/>
       <use x="95.410156" xlink:href="#DejaVuSans-52"/>
      </g>
     </g>
    </g>
    <g id="text_60">
     <!-- average out-degree per node -->
     <g transform="translate(816.674583 1100.11125)rotate(-90)scale(0.24 -0.24)">
      <use xlink:href="#DejaVuSans-97"/>
      <use x="61.279297" xlink:href="#DejaVuSans-118"/>
      <use x="120.458984" xlink:href="#DejaVuSans-101"/>
      <use x="181.982422" xlink:href="#DejaVuSans-114"/>
      <use x="223.095703" xlink:href="#DejaVuSans-97"/>
      <use x="284.375" xlink:href="#DejaVuSans-103"/>
      <use x="347.851562" xlink:href="#DejaVuSans-101"/>
      <use x="409.375" xlink:href="#DejaVuSans-32"/>
      <use x="441.162109" xlink:href="#DejaVuSans-111"/>
      <use x="502.34375" xlink:href="#DejaVuSans-117"/>
      <use x="565.722656" xlink:href="#DejaVuSans-116"/>
      <use x="604.931641" xlink:href="#DejaVuSans-45"/>
      <use x="641.015625" xlink:href="#DejaVuSans-100"/>
      <use x="704.492188" xlink:href="#DejaVuSans-101"/>
      <use x="766.015625" xlink:href="#DejaVuSans-103"/>
      <use x="829.492188" xlink:href="#DejaVuSans-114"/>
      <use x="868.355469" xlink:href="#DejaVuSans-101"/>
      <use x="929.878906" xlink:href="#DejaVuSans-101"/>
      <use x="991.402344" xlink:href="#DejaVuSans-32"/>
      <use x="1023.189453" xlink:href="#DejaVuSans-112"/>
      <use x="1086.666016" xlink:href="#DejaVuSans-101"/>
      <use x="1148.189453" xlink:href="#DejaVuSans-114"/>
      <use x="1189.302734" xlink:href="#DejaVuSans-32"/>
      <use x="1221.089844" xlink:href="#DejaVuSans-110"/>
      <use x="1284.46875" xlink:href="#DejaVuSans-111"/>
      <use x="1345.650391" xlink:href="#DejaVuSans-100"/>
      <use x="1409.126953" xlink:href="#DejaVuSans-101"/>
     </g>
    </g>
   </g>
   <g id="LineCollection_16">
    <path clip-path="url(#pfca16ba607)" d="M 908.739583 805.364673 
L 908.739583 790.414564 
" style="fill:none;stroke:#000000;stroke-width:1.5;"/>
    <path clip-path="url(#pfca16ba607)" d="M 1035.09375 803.653488 
L 1035.09375 794.663597 
" style="fill:none;stroke:#000000;stroke-width:1.5;"/>
    <path clip-path="url(#pfca16ba607)" d="M 1161.447917 803.597713 
L 1161.447917 795.33836 
" style="fill:none;stroke:#000000;stroke-width:1.5;"/>
    <path clip-path="url(#pfca16ba607)" d="M 1287.802083 802.11242 
L 1287.802083 797.814033 
" style="fill:none;stroke:#000000;stroke-width:1.5;"/>
   </g>
   <g id="LineCollection_17">
    <path clip-path="url(#pfca16ba607)" d="M 921.375 750.059427 
L 921.375 718.208394 
" style="fill:none;stroke:#000000;stroke-width:1.5;"/>
    <path clip-path="url(#pfca16ba607)" d="M 1047.729167 745.187855 
L 1047.729167 712.928571 
" style="fill:none;stroke:#000000;stroke-width:1.5;"/>
    <path clip-path="url(#pfca16ba607)" d="M 1174.083333 743.05907 
L 1174.083333 718.833181 
" style="fill:none;stroke:#000000;stroke-width:1.5;"/>
    <path clip-path="url(#pfca16ba607)" d="M 1300.4375 746.995129 
L 1300.4375 721.520287 
" style="fill:none;stroke:#000000;stroke-width:1.5;"/>
   </g>
   <g id="LineCollection_18">
    <path clip-path="url(#pfca16ba607)" d="M 934.010417 915.255663 
L 934.010417 800.854735 
" style="fill:none;stroke:#000000;stroke-width:1.5;"/>
    <path clip-path="url(#pfca16ba607)" d="M 1060.364583 872.972503 
L 1060.364583 800.118267 
" style="fill:none;stroke:#000000;stroke-width:1.5;"/>
    <path clip-path="url(#pfca16ba607)" d="M 1186.71875 802.816194 
L 1186.71875 778.29304 
" style="fill:none;stroke:#000000;stroke-width:1.5;"/>
    <path clip-path="url(#pfca16ba607)" d="M 1313.072917 766.21955 
L 1313.072917 764.318409 
" style="fill:none;stroke:#000000;stroke-width:1.5;"/>
   </g>
   <g id="LineCollection_19">
    <path clip-path="url(#pfca16ba607)" d="M 946.645833 778.46012 
L 946.645833 766.933538 
" style="fill:none;stroke:#000000;stroke-width:1.5;"/>
    <path clip-path="url(#pfca16ba607)" d="M 1073 775.490373 
L 1073 762.475435 
" style="fill:none;stroke:#000000;stroke-width:1.5;"/>
    <path clip-path="url(#pfca16ba607)" d="M 1199.354167 775.254947 
L 1199.354167 765.310609 
" style="fill:none;stroke:#000000;stroke-width:1.5;"/>
    <path clip-path="url(#pfca16ba607)" d="M 1325.708333 772.524406 
L 1325.708333 766.617479 
" style="fill:none;stroke:#000000;stroke-width:1.5;"/>
   </g>
   <g id="LineCollection_20">
    <path clip-path="url(#pfca16ba607)" d="M 959.28125 798.311741 
L 959.28125 780.321543 
" style="fill:none;stroke:#000000;stroke-width:1.5;"/>
    <path clip-path="url(#pfca16ba607)" d="M 1085.635417 797.649992 
L 1085.635417 785.006711 
" style="fill:none;stroke:#000000;stroke-width:1.5;"/>
    <path clip-path="url(#pfca16ba607)" d="M 1211.989583 793.227137 
L 1211.989583 785.77754 
" style="fill:none;stroke:#000000;stroke-width:1.5;"/>
    <path clip-path="url(#pfca16ba607)" d="M 1338.34375 793.311449 
L 1338.34375 786.436012 
" style="fill:none;stroke:#000000;stroke-width:1.5;"/>
   </g>
   <g id="patch_104">
    <path d="M 870.833333 1156.5 
L 870.833333 690.75 
" style="fill:none;stroke:#000000;stroke-linecap:square;stroke-linejoin:miter;stroke-width:0.8;"/>
   </g>
   <g id="patch_105">
    <path d="M 1376.25 1156.5 
L 1376.25 690.75 
" style="fill:none;stroke:#000000;stroke-linecap:square;stroke-linejoin:miter;stroke-width:0.8;"/>
   </g>
   <g id="patch_106">
    <path d="M 870.833333 1156.5 
L 1376.25 1156.5 
" style="fill:none;stroke:#000000;stroke-linecap:square;stroke-linejoin:miter;stroke-width:0.8;"/>
   </g>
   <g id="patch_107">
    <path d="M 870.833333 690.75 
L 1376.25 690.75 
" style="fill:none;stroke:#000000;stroke-linecap:square;stroke-linejoin:miter;stroke-width:0.8;"/>
   </g>
   <g id="text_61">
    <!-- Out-degree -->
    <g transform="translate(1041.778917 684.75)scale(0.288 -0.288)">
     <defs>
      <path d="M 39.40625 66.21875 
Q 28.65625 66.21875 22.328125 58.203125 
Q 16.015625 50.203125 16.015625 36.375 
Q 16.015625 22.609375 22.328125 14.59375 
Q 28.65625 6.59375 39.40625 6.59375 
Q 50.140625 6.59375 56.421875 14.59375 
Q 62.703125 22.609375 62.703125 36.375 
Q 62.703125 50.203125 56.421875 58.203125 
Q 50.140625 66.21875 39.40625 66.21875 
z
M 39.40625 74.21875 
Q 54.734375 74.21875 63.90625 63.9375 
Q 73.09375 53.65625 73.09375 36.375 
Q 73.09375 19.140625 63.90625 8.859375 
Q 54.734375 -1.421875 39.40625 -1.421875 
Q 24.03125 -1.421875 14.8125 8.828125 
Q 5.609375 19.09375 5.609375 36.375 
Q 5.609375 53.65625 14.8125 63.9375 
Q 24.03125 74.21875 39.40625 74.21875 
z
" id="DejaVuSans-79"/>
     </defs>
     <use xlink:href="#DejaVuSans-79"/>
     <use x="78.710938" xlink:href="#DejaVuSans-117"/>
     <use x="142.089844" xlink:href="#DejaVuSans-116"/>
     <use x="181.298828" xlink:href="#DejaVuSans-45"/>
     <use x="217.382812" xlink:href="#DejaVuSans-100"/>
     <use x="280.859375" xlink:href="#DejaVuSans-101"/>
     <use x="342.382812" xlink:href="#DejaVuSans-103"/>
     <use x="405.859375" xlink:href="#DejaVuSans-114"/>
     <use x="444.722656" xlink:href="#DejaVuSans-101"/>
     <use x="506.246094" xlink:href="#DejaVuSans-101"/>
    </g>
   </g>
  </g>
 </g>
 <defs>
  <clipPath id="p328f338fde">
   <rect height="465.75" width="505.416667" x="150.833333" y="42.75"/>
  </clipPath>
  <clipPath id="p5f95325479">
   <rect height="465.75" width="505.416667" x="870.833333" y="42.75"/>
  </clipPath>
  <clipPath id="p4edf77784e">
   <rect height="465.75" width="505.416667" x="150.833333" y="690.75"/>
  </clipPath>
  <clipPath id="pfca16ba607">
   <rect height="465.75" width="505.416667" x="870.833333" y="690.75"/>
  </clipPath>
 </defs>
</svg>
