<svg version="1.1" viewBox="0.0 0.0 4032.0 3456.0" fill="none" stroke="none" stroke-linecap="square" stroke-miterlimit="10" xmlns:xlink="http://www.w3.org/1999/xlink" xmlns="http://www.w3.org/2000/svg"><clipPath id="gf84ff55190_0_72.0"><path d="m0 0l4032.0 0l0 3456.0l-4032.0 0l0 -3456.0z" clip-rule="nonzero"/></clipPath><g clip-path="url(#gf84ff55190_0_72.0)"><path fill="#ffffff" d="m0 0l4032.0 0l0 3456.0l-4032.0 0z" fill-rule="evenodd"/><path fill="#000000" fill-opacity="0.0" d="m2052.2625 1697.2274l-199.05505 -100.031494" fill-rule="evenodd"/><path stroke="#666666" stroke-width="4.0" stroke-linejoin="round" stroke-linecap="butt" d="m2052.2625 1697.2274l-177.6106 -89.255005" fill-rule="evenodd"/><path fill="#666666" stroke="#666666" stroke-width="4.0" stroke-linecap="butt" d="m1877.6185 1602.069l-19.18628 -2.2474365l13.25293 14.054321z" fill-rule="evenodd"/><path fill="#93c47d" d="m1795.4042 1864.6447l0 0c0 13.959351 12.557251 25.275635 28.047241 25.275635l0 0c15.490112 0 28.047241 -11.316284 28.047241 -25.275635l0 0c0 -13.9592285 -12.557129 -25.275513 -28.047241 -25.275513l0 0c-15.48999 0 -28.047241 11.316284 -28.047241 25.275513z" fill-rule="evenodd"/><path stroke="#666666" stroke-width="4.0" stroke-linejoin="round" stroke-linecap="butt" d="m1795.4042 1864.6447l0 0c0 13.959351 12.557251 25.275635 28.047241 25.275635l0 0c15.490112 0 28.047241 -11.316284 28.047241 -25.275635l0 0c0 -13.9592285 -12.557129 -25.275513 -28.047241 -25.275513l0 0c-15.48999 0 -28.047241 11.316284 -28.047241 25.275513z" fill-rule="evenodd"/><path fill="#6d9eeb" d="m1797.1129 1597.1959l0 0c0 13.9592285 12.557129 25.275513 28.047241 25.275513l0 0c15.48999 0 28.047241 -11.316284 28.047241 -25.275513l0 0c0 -13.959351 -12.557251 -25.275635 -28.047241 -25.275635l0 0c-15.490112 0 -28.047241 11.316284 -28.047241 25.275635z" fill-rule="evenodd"/><path stroke="#666666" stroke-width="4.0" stroke-linejoin="round" stroke-linecap="butt" d="m1797.1129 1597.1959l0 0c0 13.9592285 12.557129 25.275513 28.047241 25.275513l0 0c15.48999 0 28.047241 -11.316284 28.047241 -25.275513l0 0c0 -13.959351 -12.557251 -25.275635 -28.047241 -25.275635l0 0c-15.490112 0 -28.047241 11.316284 -28.047241 25.275635z" fill-rule="evenodd"/><path fill="#000000" fill-opacity="0.0" d="m1843.2838 1846.7721l207.46448 -117.51172" fill-rule="evenodd"/><path stroke="#666666" stroke-width="4.0" stroke-linejoin="round" stroke-linecap="butt" d="m1864.1665 1834.9437l186.58179 -105.68335" fill-rule="evenodd"/><path fill="#666666" stroke="#666666" stroke-width="4.0" stroke-linecap="butt" d="m1860.9103 1829.195l-12.538452 14.69519l19.050903 -3.1976318z" fill-rule="evenodd"/><path fill="#000000" fill-opacity="0.0" d="m1823.4514 1839.3691l1.7008057 -216.88196" fill-rule="evenodd"/><path stroke="#666666" stroke-width="4.0" stroke-linejoin="round" stroke-linecap="butt" d="m1823.4514 1839.3691l1.5126953 -192.88281" fill-rule="evenodd"/><path fill="#666666" stroke="#666666" stroke-width="4.0" stroke-linecap="butt" d="m1831.5708 1646.5383l-6.4644775 -18.203735l-6.7490234 18.100098z" fill-rule="evenodd"/><path fill="#000000" fill-opacity="0.0" d="m2093.9133 1697.2484l197.00781 -102.96069" fill-rule="evenodd"/><path stroke="#666666" stroke-width="4.0" stroke-linejoin="round" stroke-linecap="butt" d="m2093.9133 1697.2484l175.73755 -91.84436" fill-rule="evenodd"/><path fill="#666666" stroke="#666666" stroke-width="4.0" stroke-linecap="butt" d="m2272.7112 1611.2595l13.027588 -14.263306l-19.14795 2.5523682z" fill-rule="evenodd"/><path fill="#f6b26b" d="m2348.7244 1861.7366l0 0c0 13.959351 -12.557129 25.275513 -28.04712 25.275513l0 0c-15.490234 0 -28.047363 -11.316162 -28.047363 -25.275513l0 0c0 -13.959351 12.557129 -25.275635 28.047363 -25.275635l0 0c15.48999 0 28.04712 11.316284 28.04712 25.275635z" fill-rule="evenodd"/><path stroke="#666666" stroke-width="4.0" stroke-linejoin="round" stroke-linecap="butt" d="m2348.7244 1861.7366l0 0c0 13.959351 -12.557129 25.275513 -28.04712 25.275513l0 0c-15.490234 0 -28.047363 -11.316162 -28.047363 -25.275513l0 0c0 -13.959351 12.557129 -25.275635 28.047363 -25.275635l0 0c15.48999 0 28.04712 11.316284 28.04712 25.275635z" fill-rule="evenodd"/><path fill="#6d9eeb" d="m2347.0159 1594.2877l0 0c0 13.959351 -12.557373 25.275635 -28.047363 25.275635l0 0c-15.48999 0 -28.047363 -11.316284 -28.047363 -25.275635l0 0c0 -13.959351 12.557373 -25.275635 28.047363 -25.275635l0 0c15.48999 0 28.047363 11.316284 28.047363 25.275635z" fill-rule="evenodd"/><path stroke="#666666" stroke-width="4.0" stroke-linejoin="round" stroke-linecap="butt" d="m2347.0159 1594.2877l0 0c0 13.959351 -12.557373 25.275635 -28.047363 25.275635l0 0c-15.48999 0 -28.047363 -11.316284 -28.047363 -25.275635l0 0c0 -13.959351 12.557373 -25.275635 28.047363 -25.275635l0 0c15.48999 0 28.047363 11.316284 28.047363 25.275635z" fill-rule="evenodd"/><path fill="#000000" fill-opacity="0.0" d="m2300.8447 1843.864l-204.91333 -116.62988" fill-rule="evenodd"/><path stroke="#666666" stroke-width="4.0" stroke-linejoin="round" stroke-linecap="butt" d="m2300.8447 1843.864l-184.05518 -104.75818" fill-rule="evenodd"/><path fill="#666666" stroke="#666666" stroke-width="4.0" stroke-linecap="butt" d="m2120.0576 1733.3639l-19.04419 -3.2373047l12.508057 14.721313z" fill-rule="evenodd"/><path fill="#000000" fill-opacity="0.0" d="m2320.6772 1836.4609l-1.7009277 -216.88184" fill-rule="evenodd"/><path stroke="#666666" stroke-width="4.0" stroke-linejoin="round" stroke-linecap="butt" d="m2320.6772 1836.4609l-1.5126953 -192.88269" fill-rule="evenodd"/><path fill="#666666" stroke="#666666" stroke-width="4.0" stroke-linecap="butt" d="m2325.7712 1643.5265l-6.7490234 -18.099976l-6.4643555 18.203613z" fill-rule="evenodd"/><path fill="#000000" fill-opacity="0.0" d="m2015.9384 1749.0052l112.25183 0l0 54.929077l-112.25183 0z" fill-rule="evenodd"/><path fill="#f6b26b" d="m2040.3584 1777.3215l0 5.4375q0 1.578125 0.1875 1.984375q0.1875 0.40625 0.671875 0.65625q0.5 0.234375 1.828125 0.234375l0 0.53125l-9.9375 0l0 -0.53125q1.34375 0 1.8125 -0.25q0.484375 -0.25 0.671875 -0.640625q0.203125 -0.40625 0.203125 -1.984375l0 -12.609375q0 -1.5625 -0.203125 -1.96875q-0.1875 -0.421875 -0.671875 -0.65625q-0.484375 -0.25 -1.8125 -0.25l0 -0.53125l9.015625 0q3.53125 0 5.15625 0.5q1.640625 0.484375 2.671875 1.796875q1.03125 1.296875 1.03125 3.0625q0 2.140625 -1.546875 3.546875q-1.0 0.890625 -2.765625 1.34375l4.671875 6.5625q0.90625 1.28125 1.296875 1.59375q0.59375 0.4375 1.359375 0.484375l0 0.53125l-6.109375 0l-6.265625 -8.84375l-1.265625 0zm0 -9.53125l0 8.515625l0.8125 0q1.984375 0 2.96875 -0.359375q1.0 -0.375 1.5625 -1.328125q0.5625 -0.953125 0.5625 -2.484375q0 -2.21875 -1.046875 -3.28125q-1.03125 -1.0625 -3.328125 -1.0625l-1.53125 0zm20.679932 4.578125q1.75 0 3.25 0.90625q1.515625 0.90625 2.296875 2.578125q0.78125 1.65625 0.78125 3.625q0 2.84375 -1.453125 4.765625q-1.75 2.328125 -4.828125 2.328125q-3.015625 0 -4.65625 -2.125q-1.625 -2.125 -1.625 -4.90625q0 -2.890625 1.65625 -5.03125q1.671875 -2.140625 4.578125 -2.140625zm0.0625 1.015625q-0.734375 0 -1.265625 0.5625q-0.515625 0.546875 -0.6875 2.171875q-0.15625 1.625 -0.15625 4.515625q0 1.53125 0.203125 2.875q0.15625 1.015625 0.671875 1.546875q0.515625 0.515625 1.171875 0.515625q0.65625 0 1.078125 -0.34375q0.5625 -0.5 0.75 -1.375q0.28125 -1.359375 0.28125 -5.484375q0 -2.4375 -0.28125 -3.34375q-0.265625 -0.921875 -0.796875 -1.328125q-0.359375 -0.3125 -0.96875 -0.3125zm13.5390625 -6.640625l0 16.640625q0 1.421875 0.328125 1.8125q0.328125 0.390625 1.28125 0.453125l0 0.515625l-7.234375 0l0 -0.515625q0.890625 -0.03125 1.328125 -0.515625q0.28125 -0.328125 0.28125 -1.75l0 -13.859375q0 -1.40625 -0.328125 -1.796875q-0.328125 -0.390625 -1.28125 -0.453125l0 -0.53125l5.625 0zm14.241943 12.25l-7.34375 0q0.125 2.65625 1.421875 4.203125q0.984375 1.1875 2.375 1.1875q0.859375 0 1.5625 -0.46875q0.703125 -0.484375 1.5 -1.734375l0.484375 0.3125q-1.09375 2.21875 -2.40625 3.15625q-1.3125 0.921875 -3.046875 0.921875q-2.984375 0 -4.515625 -2.296875q-1.234375 -1.84375 -1.234375 -4.578125q0 -3.359375 1.8125 -5.34375q1.8125 -1.984375 4.25 -1.984375q2.03125 0 3.53125 1.671875q1.5 1.671875 1.609375 4.953125zm-3.515625 -0.96875q0 -2.296875 -0.25 -3.15625q-0.25 -0.859375 -0.78125 -1.3125q-0.3125 -0.25 -0.8125 -0.25q-0.734375 0 -1.21875 0.734375q-0.84375 1.265625 -0.84375 3.484375l0 0.5l3.90625 0zm21.08374 -11.671875l0 15.875q0 1.796875 0.15625 2.296875q0.15625 0.484375 0.65625 0.796875q0.515625 0.3125 1.609375 0.3125l0.453125 0l0 0.53125l-10.234375 0l0 -0.53125l0.515625 0q1.25 0 1.78125 -0.28125q0.53125 -0.296875 0.71875 -0.796875q0.1875 -0.5 0.1875 -2.328125l0 -10.0625q0 -1.34375 -0.140625 -1.6875q-0.125 -0.34375 -0.484375 -0.578125q-0.34375 -0.234375 -0.796875 -0.234375q-0.734375 0 -1.78125 0.46875l-0.25 -0.515625l7.140625 -3.265625l0.46875 0z" fill-rule="nonzero"/><path fill="#000000" fill-opacity="0.0" d="m1679.9357 1834.273l112.25195 0l0 54.9292l-112.25195 0z" fill-rule="evenodd"/><path fill="#6aa84f" d="m1704.3558 1862.5892l0 5.4375q0 1.578125 0.1875 1.984375q0.1875 0.40625 0.671875 0.65625q0.5 0.234375 1.828125 0.234375l0 0.53125l-9.9375 0l0 -0.53125q1.34375 0 1.8125 -0.25q0.484375 -0.25 0.671875 -0.640625q0.203125 -0.40625 0.203125 -1.984375l0 -12.609375q0 -1.5625 -0.203125 -1.96875q-0.1875 -0.421875 -0.671875 -0.65625q-0.484375 -0.25 -1.8125 -0.25l0 -0.53125l9.015625 0q3.53125 0 5.15625 0.5q1.640625 0.484375 2.671875 1.796875q1.03125 1.296875 1.03125 3.0625q0 2.140625 -1.546875 3.546875q-1.0 0.890625 -2.765625 1.34375l4.671875 6.5625q0.90625 1.28125 1.296875 1.59375q0.59375 0.4375 1.359375 0.484375l0 0.53125l-6.109375 0l-6.265625 -8.84375l-1.265625 0zm0 -9.53125l0 8.515625l0.8125 0q1.984375 0 2.96875 -0.359375q1.0 -0.375 1.5625 -1.328125q0.5625 -0.953125 0.5625 -2.484375q0 -2.21875 -1.046875 -3.28125q-1.03125 -1.0625 -3.328125 -1.0625l-1.53125 0zm20.67981 4.578125q1.75 0 3.25 0.90625q1.515625 0.90625 2.296875 2.578125q0.78125 1.65625 0.78125 3.625q0 2.84375 -1.453125 4.765625q-1.75 2.328125 -4.828125 2.328125q-3.015625 0 -4.65625 -2.125q-1.625 -2.125 -1.625 -4.90625q0 -2.890625 1.65625 -5.03125q1.671875 -2.140625 4.578125 -2.140625zm0.0625 1.015625q-0.734375 0 -1.265625 0.5625q-0.515625 0.546875 -0.6875 2.171875q-0.15625 1.625 -0.15625 4.515625q0 1.53125 0.203125 2.875q0.15625 1.015625 0.671875 1.546875q0.515625 0.515625 1.171875 0.515625q0.65625 0 1.078125 -0.34375q0.5625 -0.5 0.75 -1.375q0.28125 -1.359375 0.28125 -5.484375q0 -2.4375 -0.28125 -3.34375q-0.265625 -0.921875 -0.796875 -1.328125q-0.359375 -0.3125 -0.96875 -0.3125zm13.5390625 -6.640625l0 16.640625q0 1.421875 0.328125 1.8125q0.328125 0.390625 1.28125 0.453125l0 0.515625l-7.234375 0l0 -0.515625q0.890625 -0.03125 1.328125 -0.515625q0.28125 -0.328125 0.28125 -1.75l0 -13.859375q0 -1.40625 -0.328125 -1.796875q-0.328125 -0.390625 -1.28125 -0.453125l0 -0.53125l5.625 0zm14.242065 12.25l-7.34375 0q0.125 2.65625 1.421875 4.203125q0.984375 1.1875 2.375 1.1875q0.859375 0 1.5625 -0.46875q0.703125 -0.484375 1.5 -1.734375l0.484375 0.3125q-1.09375 2.21875 -2.40625 3.15625q-1.3125 0.921875 -3.046875 0.921875q-2.984375 0 -4.515625 -2.296875q-1.234375 -1.84375 -1.234375 -4.578125q0 -3.359375 1.8125 -5.34375q1.8125 -1.984375 4.25 -1.984375q2.03125 0 3.53125 1.671875q1.5 1.671875 1.609375 4.953125zm-3.515625 -0.96875q0 -2.296875 -0.25 -3.15625q-0.25 -0.859375 -0.78125 -1.3125q-0.3125 -0.25 -0.8125 -0.25q-0.734375 0 -1.21875 0.734375q-0.84375 1.265625 -0.84375 3.484375l0 0.5l3.90625 0zm23.677368 8.140625l-11.421875 0l0 -0.3125q5.25 -6.265625 6.375 -8.421875q1.125 -2.15625 1.125 -4.21875q0 -1.515625 -0.9375 -2.5q-0.921875 -1.0 -2.265625 -1.0q-2.203125 0 -3.421875 2.203125l-0.53125 -0.1875q0.765625 -2.75 2.34375 -4.0625q1.578125 -1.3125 3.640625 -1.3125q1.46875 0 2.6875 0.6875q1.21875 0.6875 1.90625 1.890625q0.6875 1.1875 0.6875 2.234375q0 1.890625 -1.0625 3.859375q-1.4375 2.65625 -6.3125 7.390625l4.203125 0q1.546875 0 2.0 -0.125q0.46875 -0.140625 0.765625 -0.4375q0.3125 -0.3125 0.796875 -1.296875l0.515625 0l-1.09375 5.609375z" fill-rule="nonzero"/><path fill="#000000" fill-opacity="0.0" d="m1684.8569 1569.7323l112.25195 0l0 54.929077l-112.25195 0z" fill-rule="evenodd"/><path fill="#6d9eeb" d="m1709.2771 1598.0486l0 5.4375q0 1.578125 0.1875 1.984375q0.1875 0.40625 0.671875 0.65625q0.5 0.234375 1.828125 0.234375l0 0.53125l-9.9375 0l0 -0.53125q1.34375 0 1.8125 -0.25q0.484375 -0.25 0.671875 -0.640625q0.203125 -0.40625 0.203125 -1.984375l0 -12.609375q0 -1.5625 -0.203125 -1.96875q-0.1875 -0.421875 -0.671875 -0.65625q-0.484375 -0.25 -1.8125 -0.25l0 -0.53125l9.015625 0q3.53125 0 5.15625 0.5q1.640625 0.484375 2.671875 1.796875q1.03125 1.296875 1.03125 3.0625q0 2.140625 -1.546875 3.546875q-1.0 0.890625 -2.765625 1.34375l4.671875 6.5625q0.90625 1.28125 1.296875 1.59375q0.59375 0.4375 1.359375 0.484375l0 0.53125l-6.109375 0l-6.265625 -8.84375l-1.265625 0zm0 -9.53125l0 8.515625l0.8125 0q1.984375 0 2.96875 -0.359375q1.0 -0.375 1.5625 -1.328125q0.5625 -0.953125 0.5625 -2.484375q0 -2.21875 -1.046875 -3.28125q-1.03125 -1.0625 -3.328125 -1.0625l-1.53125 0zm20.67981 4.578125q1.75 0 3.25 0.90625q1.515625 0.90625 2.296875 2.578125q0.78125 1.65625 0.78125 3.625q0 2.84375 -1.453125 4.765625q-1.75 2.328125 -4.828125 2.328125q-3.015625 0 -4.65625 -2.125q-1.625 -2.125 -1.625 -4.90625q0 -2.890625 1.65625 -5.03125q1.671875 -2.140625 4.578125 -2.140625zm0.0625 1.015625q-0.734375 0 -1.265625 0.5625q-0.515625 0.546875 -0.6875 2.171875q-0.15625 1.625 -0.15625 4.515625q0 1.53125 0.203125 2.875q0.15625 1.015625 0.671875 1.546875q0.515625 0.515625 1.171875 0.515625q0.65625 0 1.078125 -0.34375q0.5625 -0.5 0.75 -1.375q0.28125 -1.359375 0.28125 -5.484375q0 -2.4375 -0.28125 -3.34375q-0.265625 -0.921875 -0.796875 -1.328125q-0.359375 -0.3125 -0.96875 -0.3125zm13.5390625 -6.640625l0 16.640625q0 1.421875 0.328125 1.8125q0.328125 0.390625 1.28125 0.453125l0 0.515625l-7.234375 0l0 -0.515625q0.890625 -0.03125 1.328125 -0.515625q0.28125 -0.328125 0.28125 -1.75l0 -13.859375q0 -1.40625 -0.328125 -1.796875q-0.328125 -0.390625 -1.28125 -0.453125l0 -0.53125l5.625 0zm14.242065 12.25l-7.34375 0q0.125 2.65625 1.421875 4.203125q0.984375 1.1875 2.375 1.1875q0.859375 0 1.5625 -0.46875q0.703125 -0.484375 1.5 -1.734375l0.484375 0.3125q-1.09375 2.21875 -2.40625 3.15625q-1.3125 0.921875 -3.046875 0.921875q-2.984375 0 -4.515625 -2.296875q-1.234375 -1.84375 -1.234375 -4.578125q0 -3.359375 1.8125 -5.34375q1.8125 -1.984375 4.25 -1.984375q2.03125 0 3.53125 1.671875q1.5 1.671875 1.609375 4.953125zm-3.515625 -0.96875q0 -2.296875 -0.25 -3.15625q-0.25 -0.859375 -0.78125 -1.3125q-0.3125 -0.25 -0.8125 -0.25q-0.734375 0 -1.21875 0.734375q-0.84375 1.265625 -0.84375 3.484375l0 0.5l3.90625 0zm15.880493 -1.59375l0 -0.5q1.625 -0.484375 2.25 -0.890625q0.640625 -0.40625 1.09375 -1.234375q0.453125 -0.84375 0.453125 -1.703125q0 -1.1875 -0.859375 -2.03125q-0.859375 -0.859375 -2.15625 -0.859375q-2.0 0 -3.40625 2.125l-0.53125 -0.1875q1.03125 -2.390625 2.640625 -3.59375q1.609375 -1.203125 3.59375 -1.203125q2.015625 0 3.328125 1.234375q1.3125 1.21875 1.3125 2.875q0 1.0625 -0.609375 2.0625q-0.609375 1.0 -1.921875 1.75q1.6875 0.828125 2.5625 2.03125q0.875 1.1875 0.875 2.984375q0 3.03125 -2.203125 5.171875q-2.1875 2.125 -5.875 2.125q-2.46875 0 -3.609375 -0.828125q-0.8125 -0.5625 -0.8125 -1.46875q0 -0.65625 0.46875 -1.125q0.484375 -0.46875 1.09375 -0.46875q0.46875 0 0.890625 0.203125q0.234375 0.109375 1.625 1.25q1.390625 1.140625 2.609375 1.140625q1.0625 0 1.8125 -0.828125q0.765625 -0.84375 0.765625 -2.140625q0 -1.953125 -1.375 -3.609375q-1.375 -1.65625 -4.015625 -2.28125z" fill-rule="nonzero"/><path fill="#000000" fill-opacity="0.0" d="m2015.626 1784.4409l112.25195 0l0 54.9292l-112.25195 0z" fill-rule="evenodd"/><path fill="#93c47d" d="m2040.0461 1812.7572l0 5.4375q0 1.578125 0.1875 1.984375q0.1875 0.40625 0.671875 0.65625q0.5 0.234375 1.828125 0.234375l0 0.53125l-9.9375 0l0 -0.53125q1.34375 0 1.8125 -0.25q0.484375 -0.25 0.671875 -0.640625q0.203125 -0.40625 0.203125 -1.984375l0 -12.609375q0 -1.5625 -0.203125 -1.96875q-0.1875 -0.421875 -0.671875 -0.65625q-0.484375 -0.25 -1.8125 -0.25l0 -0.53125l9.015625 0q3.53125 0 5.15625 0.5q1.640625 0.484375 2.671875 1.796875q1.03125 1.296875 1.03125 3.0625q0 2.140625 -1.546875 3.546875q-1.0 0.890625 -2.765625 1.34375l4.671875 6.5625q0.90625 1.28125 1.296875 1.59375q0.59375 0.4375 1.359375 0.484375l0 0.53125l-6.109375 0l-6.265625 -8.84375l-1.265625 0zm0 -9.53125l0 8.515625l0.8125 0q1.984375 0 2.96875 -0.359375q1.0 -0.375 1.5625 -1.328125q0.5625 -0.953125 0.5625 -2.484375q0 -2.21875 -1.046875 -3.28125q-1.03125 -1.0625 -3.328125 -1.0625l-1.53125 0zm20.679688 4.578125q1.75 0 3.25 0.90625q1.515625 0.90625 2.296875 2.578125q0.78125 1.65625 0.78125 3.625q0 2.84375 -1.453125 4.765625q-1.75 2.328125 -4.828125 2.328125q-3.015625 0 -4.65625 -2.125q-1.625 -2.125 -1.625 -4.90625q0 -2.890625 1.65625 -5.03125q1.671875 -2.140625 4.578125 -2.140625zm0.0625 1.015625q-0.734375 0 -1.265625 0.5625q-0.515625 0.546875 -0.6875 2.171875q-0.15625 1.625 -0.15625 4.515625q0 1.53125 0.203125 2.875q0.15625 1.015625 0.671875 1.546875q0.515625 0.515625 1.171875 0.515625q0.65625 0 1.078125 -0.34375q0.5625 -0.5 0.75 -1.375q0.28125 -1.359375 0.28125 -5.484375q0 -2.4375 -0.28125 -3.34375q-0.265625 -0.921875 -0.796875 -1.328125q-0.359375 -0.3125 -0.96875 -0.3125zm13.5390625 -6.640625l0 16.640625q0 1.421875 0.328125 1.8125q0.328125 0.390625 1.28125 0.453125l0 0.515625l-7.234375 0l0 -0.515625q0.890625 -0.03125 1.328125 -0.515625q0.28125 -0.328125 0.28125 -1.75l0 -13.859375q0 -1.40625 -0.328125 -1.796875q-0.328125 -0.390625 -1.28125 -0.453125l0 -0.53125l5.625 0zm14.2421875 12.25l-7.34375 0q0.125 2.65625 1.421875 4.203125q0.984375 1.1875 2.375 1.1875q0.859375 0 1.5625 -0.46875q0.703125 -0.484375 1.5 -1.734375l0.484375 0.3125q-1.09375 2.21875 -2.40625 3.15625q-1.3125 0.921875 -3.046875 0.921875q-2.984375 0 -4.515625 -2.296875q-1.234375 -1.84375 -1.234375 -4.578125q0 -3.359375 1.8125 -5.34375q1.8125 -1.984375 4.25 -1.984375q2.03125 0 3.53125 1.671875q1.5 1.671875 1.609375 4.953125zm-3.515625 -0.96875q0 -2.296875 -0.25 -3.15625q-0.25 -0.859375 -0.78125 -1.3125q-0.3125 -0.25 -0.8125 -0.25q-0.734375 0 -1.21875 0.734375q-0.84375 1.265625 -0.84375 3.484375l0 0.5l3.90625 0zm23.677246 8.140625l-11.421875 0l0 -0.3125q5.25 -6.265625 6.375 -8.421875q1.125 -2.15625 1.125 -4.21875q0 -1.515625 -0.9375 -2.5q-0.921875 -1.0 -2.265625 -1.0q-2.203125 0 -3.421875 2.203125l-0.53125 -0.1875q0.765625 -2.75 2.34375 -4.0625q1.578125 -1.3125 3.640625 -1.3125q1.46875 0 2.6875 0.6875q1.21875 0.6875 1.90625 1.890625q0.6875 1.1875 0.6875 2.234375q0 1.890625 -1.0625 3.859375q-1.4375 2.65625 -6.3125 7.390625l4.203125 0q1.546875 0 2.0 -0.125q0.46875 -0.140625 0.765625 -0.4375q0.3125 -0.3125 0.796875 -1.296875l0.515625 0l-1.09375 5.609375z" fill-rule="nonzero"/><path fill="#000000" fill-opacity="0.0" d="m2351.3162 1831.9895l112.2522 0l0 54.929077l-112.2522 0z" fill-rule="evenodd"/><path fill="#e69138" d="m2375.7363 1860.3058l0 5.4375q0 1.578125 0.1875 1.984375q0.1875 0.40625 0.671875 0.65625q0.5 0.234375 1.828125 0.234375l0 0.53125l-9.9375 0l0 -0.53125q1.34375 0 1.8125 -0.25q0.484375 -0.25 0.671875 -0.640625q0.203125 -0.40625 0.203125 -1.984375l0 -12.609375q0 -1.5625 -0.203125 -1.96875q-0.1875 -0.421875 -0.671875 -0.65625q-0.484375 -0.25 -1.8125 -0.25l0 -0.53125l9.015625 0q3.53125 0 5.15625 0.5q1.640625 0.484375 2.671875 1.796875q1.03125 1.296875 1.03125 3.0625q0 2.140625 -1.546875 3.546875q-1.0 0.890625 -2.765625 1.34375l4.671875 6.5625q0.90625 1.28125 1.296875 1.59375q0.59375 0.4375 1.359375 0.484375l0 0.53125l-6.109375 0l-6.265625 -8.84375l-1.265625 0zm0 -9.53125l0 8.515625l0.8125 0q1.984375 0 2.96875 -0.359375q1.0 -0.375 1.5625 -1.328125q0.5625 -0.953125 0.5625 -2.484375q0 -2.21875 -1.046875 -3.28125q-1.03125 -1.0625 -3.328125 -1.0625l-1.53125 0zm20.679932 4.578125q1.75 0 3.25 0.90625q1.515625 0.90625 2.296875 2.578125q0.78125 1.65625 0.78125 3.625q0 2.84375 -1.453125 4.765625q-1.75 2.328125 -4.828125 2.328125q-3.015625 0 -4.65625 -2.125q-1.625 -2.125 -1.625 -4.90625q0 -2.890625 1.65625 -5.03125q1.671875 -2.140625 4.578125 -2.140625zm0.0625 1.015625q-0.734375 0 -1.265625 0.5625q-0.515625 0.546875 -0.6875 2.171875q-0.15625 1.625 -0.15625 4.515625q0 1.53125 0.203125 2.875q0.15625 1.015625 0.671875 1.546875q0.515625 0.515625 1.171875 0.515625q0.65625 0 1.078125 -0.34375q0.5625 -0.5 0.75 -1.375q0.28125 -1.359375 0.28125 -5.484375q0 -2.4375 -0.28125 -3.34375q-0.265625 -0.921875 -0.796875 -1.328125q-0.359375 -0.3125 -0.96875 -0.3125zm13.5390625 -6.640625l0 16.640625q0 1.421875 0.328125 1.8125q0.328125 0.390625 1.28125 0.453125l0 0.515625l-7.234375 0l0 -0.515625q0.890625 -0.03125 1.328125 -0.515625q0.28125 -0.328125 0.28125 -1.75l0 -13.859375q0 -1.40625 -0.328125 -1.796875q-0.328125 -0.390625 -1.28125 -0.453125l0 -0.53125l5.625 0zm14.241943 12.25l-7.34375 0q0.125 2.65625 1.421875 4.203125q0.984375 1.1875 2.375 1.1875q0.859375 0 1.5625 -0.46875q0.703125 -0.484375 1.5 -1.734375l0.484375 0.3125q-1.09375 2.21875 -2.40625 3.15625q-1.3125 0.921875 -3.046875 0.921875q-2.984375 0 -4.515625 -2.296875q-1.234375 -1.84375 -1.234375 -4.578125q0 -3.359375 1.8125 -5.34375q1.8125 -1.984375 4.25 -1.984375q2.03125 0 3.53125 1.671875q1.5 1.671875 1.609375 4.953125zm-3.515625 -0.96875q0 -2.296875 -0.25 -3.15625q-0.25 -0.859375 -0.78125 -1.3125q-0.3125 -0.25 -0.8125 -0.25q-0.734375 0 -1.21875 0.734375q-0.84375 1.265625 -0.84375 3.484375l0 0.5l3.90625 0zm21.08374 -11.671875l0 15.875q0 1.796875 0.15625 2.296875q0.15625 0.484375 0.65625 0.796875q0.515625 0.3125 1.609375 0.3125l0.453125 0l0 0.53125l-10.234375 0l0 -0.53125l0.515625 0q1.25 0 1.78125 -0.28125q0.53125 -0.296875 0.71875 -0.796875q0.1875 -0.5 0.1875 -2.328125l0 -10.0625q0 -1.34375 -0.140625 -1.6875q-0.125 -0.34375 -0.484375 -0.578125q-0.34375 -0.234375 -0.796875 -0.234375q-0.734375 0 -1.78125 0.46875l-0.25 -0.515625l7.140625 -3.265625l0.46875 0z" fill-rule="nonzero"/><path fill="#000000" fill-opacity="0.0" d="m1864.9384 1683.5354l112.25195 0l0 54.9292l-112.25195 0z" fill-rule="evenodd"/><path fill="#666666" d="m1891.2424 1702.3986l0 7.96875l0.5625 0q1.28125 0 2.09375 -0.375q0.828125 -0.390625 1.390625 -1.3125q0.5625 -0.921875 0.734375 -2.484375l0.5 0l0 9.765625l-0.5 0q-0.265625 -2.765625 -1.484375 -3.640625q-1.203125 -0.890625 -2.734375 -0.890625l-0.5625 0l0 5.9375q0 1.5 0.15625 1.875q0.171875 0.359375 0.640625 0.640625q0.484375 0.28125 1.3125 0.28125l0.640625 0l0 0.53125l-10.15625 0l0 -0.53125l0.640625 0q0.84375 0 1.359375 -0.296875q0.375 -0.203125 0.578125 -0.6875q0.15625 -0.34375 0.15625 -1.8125l0 -12.765625q0 -1.484375 -0.15625 -1.859375q-0.15625 -0.375 -0.640625 -0.65625q-0.46875 -0.28125 -1.296875 -0.28125l-0.640625 0l0 -0.53125l16.390625 0l0 5.578125l-0.59375 0q-0.203125 -1.96875 -1.03125 -2.90625q-0.8125 -0.953125 -2.375 -1.34375q-0.859375 -0.203125 -3.1875 -0.203125l-1.796875 0zm17.914795 0l0 7.96875l0.5625 0q1.28125 0 2.09375 -0.375q0.828125 -0.390625 1.390625 -1.3125q0.5625 -0.921875 0.734375 -2.484375l0.5 0l0 9.765625l-0.5 0q-0.265625 -2.765625 -1.484375 -3.640625q-1.203125 -0.890625 -2.734375 -0.890625l-0.5625 0l0 5.9375q0 1.5 0.15625 1.875q0.171875 0.359375 0.640625 0.640625q0.484375 0.28125 1.3125 0.28125l0.640625 0l0 0.53125l-10.15625 0l0 -0.53125l0.640625 0q0.84375 0 1.359375 -0.296875q0.375 -0.203125 0.578125 -0.6875q0.15625 -0.34375 0.15625 -1.8125l0 -12.765625q0 -1.484375 -0.15625 -1.859375q-0.15625 -0.375 -0.640625 -0.65625q-0.46875 -0.28125 -1.296875 -0.28125l-0.640625 0l0 -0.53125l16.390625 0l0 5.578125l-0.59375 0q-0.203125 -1.96875 -1.03125 -2.90625q-0.8125 -0.953125 -2.375 -1.34375q-0.859375 -0.203125 -3.1875 -0.203125l-1.796875 0zm28.36792 11.484375l-0.734375 6.8125l-17.234375 0l0 -0.53125l0.640625 0q0.84375 0 1.359375 -0.296875q0.375 -0.203125 0.578125 -0.6875q0.15625 -0.34375 0.15625 -1.8125l0 -12.765625q0 -1.484375 -0.15625 -1.859375q-0.15625 -0.375 -0.640625 -0.65625q-0.484375 -0.28125 -1.296875 -0.28125l-0.640625 0l0 -0.53125l10.34375 0l0 0.53125l-0.84375 0q-0.84375 0 -1.359375 0.296875q-0.375 0.203125 -0.578125 0.6875q-0.15625 0.34375 -0.15625 1.8125l0 12.375q0 1.484375 0.171875 1.890625q0.171875 0.40625 0.671875 0.609375q0.359375 0.125 1.734375 0.125l1.609375 0q1.546875 0 2.578125 -0.53125q1.03125 -0.546875 1.78125 -1.71875q0.75 -1.1875 1.421875 -3.46875l0.59375 0zm16.306396 -13.0l0 15.875q0 1.796875 0.15625 2.296875q0.15625 0.484375 0.65625 0.796875q0.515625 0.3125 1.609375 0.3125l0.453125 0l0 0.53125l-10.234375 0l0 -0.53125l0.515625 0q1.25 0 1.78125 -0.28125q0.53125 -0.296875 0.71875 -0.796875q0.1875 -0.5 0.1875 -2.328125l0 -10.0625q0 -1.34375 -0.140625 -1.6875q-0.125 -0.34375 -0.484375 -0.578125q-0.34375 -0.234375 -0.796875 -0.234375q-0.734375 0 -1.78125 0.46875l-0.25 -0.515625l7.140625 -3.265625l0.46875 0z" fill-rule="nonzero"/><path fill="#000000" fill-opacity="0.0" d="m2180.378 1683.5354l112.25195 0l0 54.9292l-112.25195 0z" fill-rule="evenodd"/><path fill="#666666" d="m2206.6821 1702.3986l0 7.96875l0.5625 0q1.28125 0 2.09375 -0.375q0.828125 -0.390625 1.390625 -1.3125q0.5625 -0.921875 0.734375 -2.484375l0.5 0l0 9.765625l-0.5 0q-0.265625 -2.765625 -1.484375 -3.640625q-1.203125 -0.890625 -2.734375 -0.890625l-0.5625 0l0 5.9375q0 1.5 0.15625 1.875q0.171875 0.359375 0.640625 0.640625q0.484375 0.28125 1.3125 0.28125l0.640625 0l0 0.53125l-10.15625 0l0 -0.53125l0.640625 0q0.84375 0 1.359375 -0.296875q0.375 -0.203125 0.578125 -0.6875q0.15625 -0.34375 0.15625 -1.8125l0 -12.765625q0 -1.484375 -0.15625 -1.859375q-0.15625 -0.375 -0.640625 -0.65625q-0.46875 -0.28125 -1.296875 -0.28125l-0.640625 0l0 -0.53125l16.390625 0l0 5.578125l-0.59375 0q-0.203125 -1.96875 -1.03125 -2.90625q-0.8125 -0.953125 -2.375 -1.34375q-0.859375 -0.203125 -3.1875 -0.203125l-1.796875 0zm17.914795 0l0 7.96875l0.5625 0q1.28125 0 2.09375 -0.375q0.828125 -0.390625 1.390625 -1.3125q0.5625 -0.921875 0.734375 -2.484375l0.5 0l0 9.765625l-0.5 0q-0.265625 -2.765625 -1.484375 -3.640625q-1.203125 -0.890625 -2.734375 -0.890625l-0.5625 0l0 5.9375q0 1.5 0.15625 1.875q0.171875 0.359375 0.640625 0.640625q0.484375 0.28125 1.3125 0.28125l0.640625 0l0 0.53125l-10.15625 0l0 -0.53125l0.640625 0q0.84375 0 1.359375 -0.296875q0.375 -0.203125 0.578125 -0.6875q0.15625 -0.34375 0.15625 -1.8125l0 -12.765625q0 -1.484375 -0.15625 -1.859375q-0.15625 -0.375 -0.640625 -0.65625q-0.46875 -0.28125 -1.296875 -0.28125l-0.640625 0l0 -0.53125l16.390625 0l0 5.578125l-0.59375 0q-0.203125 -1.96875 -1.03125 -2.90625q-0.8125 -0.953125 -2.375 -1.34375q-0.859375 -0.203125 -3.1875 -0.203125l-1.796875 0zm28.36792 11.484375l-0.734375 6.8125l-17.234375 0l0 -0.53125l0.640625 0q0.84375 0 1.359375 -0.296875q0.375 -0.203125 0.578125 -0.6875q0.15625 -0.34375 0.15625 -1.8125l0 -12.765625q0 -1.484375 -0.15625 -1.859375q-0.15625 -0.375 -0.640625 -0.65625q-0.484375 -0.28125 -1.296875 -0.28125l-0.640625 0l0 -0.53125l10.34375 0l0 0.53125l-0.84375 0q-0.84375 0 -1.359375 0.296875q-0.375 0.203125 -0.578125 0.6875q-0.15625 0.34375 -0.15625 1.8125l0 12.375q0 1.484375 0.171875 1.890625q0.171875 0.40625 0.671875 0.609375q0.359375 0.125 1.734375 0.125l1.609375 0q1.546875 0 2.578125 -0.53125q1.03125 -0.546875 1.78125 -1.71875q0.75 -1.1875 1.421875 -3.46875l0.59375 0zm18.900146 6.8125l-11.421875 0l0 -0.3125q5.25 -6.265625 6.375 -8.421875q1.125 -2.15625 1.125 -4.21875q0 -1.515625 -0.9375 -2.5q-0.921875 -1.0 -2.265625 -1.0q-2.203125 0 -3.421875 2.203125l-0.53125 -0.1875q0.765625 -2.75 2.34375 -4.0625q1.578125 -1.3125 3.640625 -1.3125q1.46875 0 2.6875 0.6875q1.21875 0.6875 1.90625 1.890625q0.6875 1.1875 0.6875 2.234375q0 1.890625 -1.0625 3.859375q-1.4375 2.65625 -6.3125 7.390625l4.203125 0q1.546875 0 2.0 -0.125q0.46875 -0.140625 0.765625 -0.4375q0.3125 -0.3125 0.796875 -1.296875l0.515625 0l-1.09375 5.609375z" fill-rule="nonzero"/><path fill="#000000" fill-opacity="0.0" d="m2348.731 1569.7323l112.25195 0l0 54.929077l-112.25195 0z" fill-rule="evenodd"/><path fill="#6d9eeb" d="m2373.1511 1598.0486l0 5.4375q0 1.578125 0.1875 1.984375q0.1875 0.40625 0.671875 0.65625q0.5 0.234375 1.828125 0.234375l0 0.53125l-9.9375 0l0 -0.53125q1.34375 0 1.8125 -0.25q0.484375 -0.25 0.671875 -0.640625q0.203125 -0.40625 0.203125 -1.984375l0 -12.609375q0 -1.5625 -0.203125 -1.96875q-0.1875 -0.421875 -0.671875 -0.65625q-0.484375 -0.25 -1.8125 -0.25l0 -0.53125l9.015625 0q3.53125 0 5.15625 0.5q1.640625 0.484375 2.671875 1.796875q1.03125 1.296875 1.03125 3.0625q0 2.140625 -1.546875 3.546875q-1.0 0.890625 -2.765625 1.34375l4.671875 6.5625q0.90625 1.28125 1.296875 1.59375q0.59375 0.4375 1.359375 0.484375l0 0.53125l-6.109375 0l-6.265625 -8.84375l-1.265625 0zm0 -9.53125l0 8.515625l0.8125 0q1.984375 0 2.96875 -0.359375q1.0 -0.375 1.5625 -1.328125q0.5625 -0.953125 0.5625 -2.484375q0 -2.21875 -1.046875 -3.28125q-1.03125 -1.0625 -3.328125 -1.0625l-1.53125 0zm20.679688 4.578125q1.75 0 3.25 0.90625q1.515625 0.90625 2.296875 2.578125q0.78125 1.65625 0.78125 3.625q0 2.84375 -1.453125 4.765625q-1.75 2.328125 -4.828125 2.328125q-3.015625 0 -4.65625 -2.125q-1.625 -2.125 -1.625 -4.90625q0 -2.890625 1.65625 -5.03125q1.671875 -2.140625 4.578125 -2.140625zm0.0625 1.015625q-0.734375 0 -1.265625 0.5625q-0.515625 0.546875 -0.6875 2.171875q-0.15625 1.625 -0.15625 4.515625q0 1.53125 0.203125 2.875q0.15625 1.015625 0.671875 1.546875q0.515625 0.515625 1.171875 0.515625q0.65625 0 1.078125 -0.34375q0.5625 -0.5 0.75 -1.375q0.28125 -1.359375 0.28125 -5.484375q0 -2.4375 -0.28125 -3.34375q-0.265625 -0.921875 -0.796875 -1.328125q-0.359375 -0.3125 -0.96875 -0.3125zm13.5390625 -6.640625l0 16.640625q0 1.421875 0.328125 1.8125q0.328125 0.390625 1.28125 0.453125l0 0.515625l-7.234375 0l0 -0.515625q0.890625 -0.03125 1.328125 -0.515625q0.28125 -0.328125 0.28125 -1.75l0 -13.859375q0 -1.40625 -0.328125 -1.796875q-0.328125 -0.390625 -1.28125 -0.453125l0 -0.53125l5.625 0zm14.2421875 12.25l-7.34375 0q0.125 2.65625 1.421875 4.203125q0.984375 1.1875 2.375 1.1875q0.859375 0 1.5625 -0.46875q0.703125 -0.484375 1.5 -1.734375l0.484375 0.3125q-1.09375 2.21875 -2.40625 3.15625q-1.3125 0.921875 -3.046875 0.921875q-2.984375 0 -4.515625 -2.296875q-1.234375 -1.84375 -1.234375 -4.578125q0 -3.359375 1.8125 -5.34375q1.8125 -1.984375 4.25 -1.984375q2.03125 0 3.53125 1.671875q1.5 1.671875 1.609375 4.953125zm-3.515625 -0.96875q0 -2.296875 -0.25 -3.15625q-0.25 -0.859375 -0.78125 -1.3125q-0.3125 -0.25 -0.8125 -0.25q-0.734375 0 -1.21875 0.734375q-0.84375 1.265625 -0.84375 3.484375l0 0.5l3.90625 0zm15.880371 -1.59375l0 -0.5q1.625 -0.484375 2.25 -0.890625q0.640625 -0.40625 1.09375 -1.234375q0.453125 -0.84375 0.453125 -1.703125q0 -1.1875 -0.859375 -2.03125q-0.859375 -0.859375 -2.15625 -0.859375q-2.0 0 -3.40625 2.125l-0.53125 -0.1875q1.03125 -2.390625 2.640625 -3.59375q1.609375 -1.203125 3.59375 -1.203125q2.015625 0 3.328125 1.234375q1.3125 1.21875 1.3125 2.875q0 1.0625 -0.609375 2.0625q-0.609375 1.0 -1.921875 1.75q1.6875 0.828125 2.5625 2.03125q0.875 1.1875 0.875 2.984375q0 3.03125 -2.203125 5.171875q-2.1875 2.125 -5.875 2.125q-2.46875 0 -3.609375 -0.828125q-0.8125 -0.5625 -0.8125 -1.46875q0 -0.65625 0.46875 -1.125q0.484375 -0.46875 1.09375 -0.46875q0.46875 0 0.890625 0.203125q0.234375 0.109375 1.625 1.25q1.390625 1.140625 2.609375 1.140625q1.0625 0 1.8125 -0.828125q0.765625 -0.84375 0.765625 -2.140625q0 -1.953125 -1.375 -3.609375q-1.375 -1.65625 -4.015625 -2.28125z" fill-rule="nonzero"/><path fill="#f6b26b" d="m2072.1257 1738.4645l0 0c-10.027832 0.020141602 -19.304688 -4.7647705 -24.33142 -12.550049c-5.0268555 -7.7852783 -5.0388184 -17.38623 -0.03137207 -25.18164c5.007324 -7.795288 14.272217 -12.598877 24.300049 -12.598877l0 25.165283z" fill-rule="evenodd"/><path fill="#93c47d" d="m2072.1035 1738.4646l0 0c15.482178 -0.020141602 28.017822 -11.292236 28.006592 -25.183594c-0.010986328 -13.891357 -12.564941 -25.147095 -28.04712 -25.147095l0 25.165283z" fill-rule="evenodd"/><path fill="#000000" fill-opacity="0.0" d="m2044.0157 1713.2982l0 0c0 13.959351 12.557251 25.275635 28.047241 25.275635l0 0c15.48999 0 28.047363 -11.316284 28.047363 -25.275635l0 0c0 -13.959351 -12.557373 -25.275635 -28.047363 -25.275635l0 0c-15.48999 0 -28.047241 11.316284 -28.047241 25.275635z" fill-rule="evenodd"/><path stroke="#666666" stroke-width="4.0" stroke-linejoin="round" stroke-linecap="butt" d="m2044.0157 1713.2982l0 0c0 13.959351 12.557251 25.275635 28.047241 25.275635l0 0c15.48999 0 28.047363 -11.316284 28.047363 -25.275635l0 0c0 -13.959351 -12.557373 -25.275635 -28.047363 -25.275635l0 0c-15.48999 0 -28.047241 11.316284 -28.047241 25.275635z" fill-rule="evenodd"/><path fill="#000000" fill-opacity="0.0" d="m2039.8268 1683.5354l64.472534 0l0 50.33069l-64.472534 0z" fill-rule="evenodd"/><path fill="#000000" d="m2073.4849 1720.3977q-3.328125 2.953125 -5.984375 2.953125q-1.5625 0 -2.609375 -1.015625q-1.03125 -1.03125 -1.03125 -2.578125q0 -2.09375 1.796875 -3.75q1.796875 -1.671875 7.828125 -4.453125l0 -1.828125q0 -2.078125 -0.21875 -2.609375q-0.21875 -0.546875 -0.84375 -0.9375q-0.625 -0.40625 -1.40625 -0.40625q-1.28125 0 -2.09375 0.5625q-0.515625 0.359375 -0.515625 0.828125q0 0.40625 0.546875 1.015625q0.75 0.84375 0.75 1.625q0 0.953125 -0.71875 1.625q-0.703125 0.671875 -1.859375 0.671875q-1.234375 0 -2.0625 -0.734375q-0.828125 -0.75 -0.828125 -1.75q0 -1.40625 1.109375 -2.671875q1.109375 -1.28125 3.09375 -1.96875q2.0 -0.6875 4.15625 -0.6875q2.59375 0 4.109375 1.109375q1.515625 1.09375 1.96875 2.390625q0.265625 0.8125 0.265625 3.765625l0 7.09375q0 1.25 0.09375 1.578125q0.109375 0.3125 0.296875 0.46875q0.203125 0.15625 0.453125 0.15625q0.5 0 1.03125 -0.71875l0.59375 0.46875q-0.984375 1.4375 -2.03125 2.09375q-1.046875 0.65625 -2.375 0.65625q-1.5625 0 -2.4375 -0.734375q-0.875 -0.734375 -1.078125 -2.21875zm0 -1.421875l0 -6.109375q-2.359375 1.390625 -3.515625 2.96875q-0.75 1.046875 -0.75 2.125q0 0.90625 0.640625 1.578125q0.484375 0.53125 1.359375 0.53125q0.984375 0 2.265625 -1.09375z" fill-rule="nonzero"/><path fill="#000000" fill-opacity="0.0" d="m1792.0657 1836.5721l64.47241 0l0 50.33069l-64.47241 0z" fill-rule="evenodd"/><path fill="#000000" d="m1821.6007 1849.6532l0 10.0625q2.296875 -2.390625 5.03125 -2.390625q1.875 0 3.53125 1.109375q1.671875 1.09375 2.609375 3.125q0.9375 2.03125 0.9375 4.6875q0 3.0 -1.203125 5.4375q-1.1875 2.4375 -3.1875 3.71875q-1.984375 1.28125 -4.53125 1.28125q-1.484375 0 -2.640625 -0.46875q-1.15625 -0.46875 -2.265625 -1.53125l-3.03125 1.984375l-0.65625 0l0 -23.234375q0 -1.578125 -0.140625 -1.953125q-0.203125 -0.546875 -0.625 -0.796875q-0.40625 -0.265625 -1.40625 -0.3125l0 -0.71875l7.578125 0zm0 11.796875l0 8.125q0 2.484375 0.109375 3.15625q0.203125 1.15625 0.9375 1.875q0.75 0.703125 1.90625 0.703125q0.984375 0 1.703125 -0.5625q0.71875 -0.5625 1.1875 -2.234375q0.484375 -1.6875 0.484375 -6.0625q0 -4.203125 -1.0625 -5.765625q-0.75 -1.125 -2.046875 -1.125q-1.671875 0 -3.21875 1.890625z" fill-rule="nonzero"/><path fill="#000000" fill-opacity="0.0" d="m1792.9238 1565.6246l64.472534 0l0 50.33069l-64.472534 0z" fill-rule="evenodd"/><path fill="#000000" d="m1832.5332 1600.4869l0.609375 0.46875q-1.296875 2.421875 -3.21875 3.609375q-1.921875 1.171875 -4.09375 1.171875q-3.640625 0 -5.828125 -2.75q-2.1875 -2.765625 -2.1875 -6.625q0 -3.734375 1.984375 -6.5625q2.40625 -3.421875 6.625 -3.421875q2.828125 0 4.5 1.4375q1.671875 1.421875 1.671875 3.171875q0 1.109375 -0.671875 1.78125q-0.671875 0.65625 -1.765625 0.65625q-1.15625 0 -1.90625 -0.75q-0.75 -0.765625 -0.9375 -2.71875q-0.109375 -1.234375 -0.5625 -1.71875q-0.453125 -0.484375 -1.046875 -0.484375q-0.9375 0 -1.609375 0.984375q-1.015625 1.515625 -1.015625 4.609375q0 2.578125 0.8125 4.9375q0.828125 2.359375 2.25 3.5q1.078125 0.84375 2.546875 0.84375q0.953125 0 1.8125 -0.4375q0.859375 -0.453125 2.03125 -1.703125z" fill-rule="nonzero"/><path fill="#000000" fill-opacity="0.0" d="m2286.7322 1563.1234l64.47266 0l0 50.33069l-64.47266 0z" fill-rule="evenodd"/><path fill="#000000" d="m2326.904 1592.9075l-10.015625 0q0.171875 3.625 1.9375 5.734375q1.34375 1.625 3.234375 1.625q1.171875 0 2.125 -0.65625q0.96875 -0.65625 2.0625 -2.359375l0.65625 0.4375q-1.484375 3.03125 -3.28125 4.296875q-1.796875 1.25 -4.15625 1.25q-4.0625 0 -6.15625 -3.125q-1.671875 -2.515625 -1.671875 -6.25q0 -4.578125 2.46875 -7.28125q2.46875 -2.703125 5.796875 -2.703125q2.765625 0 4.796875 2.28125q2.046875 2.265625 2.203125 6.75zm-4.796875 -1.3125q0 -3.140625 -0.34375 -4.3125q-0.34375 -1.171875 -1.0625 -1.78125q-0.40625 -0.359375 -1.09375 -0.359375q-1.015625 0 -1.65625 1.0q-1.15625 1.734375 -1.15625 4.765625l0 0.6875l5.3125 0z" fill-rule="nonzero"/><path fill="#000000" fill-opacity="0.0" d="m2288.441 1834.2887l64.47241 0l0 50.33069l-64.47241 0z" fill-rule="evenodd"/><path fill="#000000" d="m2328.6636 1847.3698l0 21.015625q0 2.125 0.109375 2.515625q0.15625 0.640625 0.59375 0.953125q0.4375 0.3125 1.53125 0.390625l0 0.65625l-7.703125 1.5l0 -2.890625q-1.390625 1.671875 -2.484375 2.28125q-1.078125 0.609375 -2.4375 0.609375q-3.5 0 -5.53125 -3.125q-1.640625 -2.546875 -1.640625 -6.234375q0 -2.953125 1.015625 -5.28125q1.015625 -2.328125 2.78125 -3.515625q1.765625 -1.203125 3.796875 -1.203125q1.3125 0 2.328125 0.515625q1.015625 0.5 2.171875 1.765625l0 -5.5q0 -2.09375 -0.1875 -2.515625q-0.234375 -0.578125 -0.703125 -0.84375q-0.46875 -0.28125 -1.75 -0.28125l0 -0.8125l8.109375 0zm-5.46875 12.375q-1.453125 -2.765625 -3.546875 -2.765625q-0.71875 0 -1.1875 0.390625q-0.71875 0.609375 -1.1875 2.140625q-0.453125 1.515625 -0.453125 4.65625q0 3.453125 0.5 5.125q0.515625 1.65625 1.390625 2.390625q0.453125 0.375 1.234375 0.375q1.71875 0 3.25 -2.703125l0 -9.609375z" fill-rule="nonzero"/></g></svg>