<?xml version="1.0" encoding="utf-8" standalone="no"?>
<!DOCTYPE svg PUBLIC "-//W3C//DTD SVG 1.1//EN"
  "http://www.w3.org/Graphics/SVG/1.1/DTD/svg11.dtd">
<!-- Created with matplotlib (https://matplotlib.org/) -->
<svg height="1296pt" version="1.1" viewBox="0 0 1440 1296" width="1440pt" xmlns="http://www.w3.org/2000/svg" xmlns:xlink="http://www.w3.org/1999/xlink">
 <metadata>
  <rdf:RDF xmlns:cc="http://creativecommons.org/ns#" xmlns:dc="http://purl.org/dc/elements/1.1/" xmlns:rdf="http://www.w3.org/1999/02/22-rdf-syntax-ns#">
   <cc:Work>
    <dc:type rdf:resource="http://purl.org/dc/dcmitype/StillImage"/>
    <dc:date>2021-11-02T08:41:07.404227</dc:date>
    <dc:format>image/svg+xml</dc:format>
    <dc:creator>
     <cc:Agent>
      <dc:title>Matplotlib v3.3.4, https://matplotlib.org/</dc:title>
     </cc:Agent>
    </dc:creator>
   </cc:Work>
  </rdf:RDF>
 </metadata>
 <defs>
  <style type="text/css">*{stroke-linecap:butt;stroke-linejoin:round;}</style>
 </defs>
 <g id="figure_1">
  <g id="patch_1">
   <path d="M 0 1296 
L 1440 1296 
L 1440 0 
L 0 0 
z
" style="fill:none;"/>
  </g>
  <g id="axes_1">
   <g id="patch_2">
    <path d="M 157.266667 504.72 
L 653.033333 504.72 
L 653.033333 50.31 
L 157.266667 50.31 
z
" style="fill:#ffffff;"/>
   </g>
   <g id="patch_3">
    <path clip-path="url(#peb6567c766)" d="M 188.252083 504.72 
L 208.909028 504.72 
L 208.909028 396.762097 
L 188.252083 396.762097 
z
" style="fill:#00876c;"/>
   </g>
   <g id="patch_4">
    <path clip-path="url(#peb6567c766)" d="M 312.19375 504.72 
L 332.850694 504.72 
L 332.850694 287.16245 
L 312.19375 287.16245 
z
" style="fill:#00876c;"/>
   </g>
   <g id="patch_5">
    <path clip-path="url(#peb6567c766)" d="M 436.135417 504.72 
L 456.792361 504.72 
L 456.792361 241.405458 
L 436.135417 241.405458 
z
" style="fill:#00876c;"/>
   </g>
   <g id="patch_6">
    <path clip-path="url(#peb6567c766)" d="M 560.077083 504.72 
L 580.734028 504.72 
L 580.734028 72.358794 
L 560.077083 72.358794 
z
" style="fill:#00876c;"/>
   </g>
   <g id="patch_7">
    <path clip-path="url(#peb6567c766)" d="M 208.909028 504.72 
L 229.565972 504.72 
L 229.565972 311.364933 
L 208.909028 311.364933 
z
" style="fill:#e79053;"/>
   </g>
   <g id="patch_8">
    <path clip-path="url(#peb6567c766)" d="M 332.850694 504.72 
L 353.507639 504.72 
L 353.507639 296.3774 
L 332.850694 296.3774 
z
" style="fill:#e79053;"/>
   </g>
   <g id="patch_9">
    <path clip-path="url(#peb6567c766)" d="M 456.792361 504.72 
L 477.449306 504.72 
L 477.449306 240.425708 
L 456.792361 240.425708 
z
" style="fill:#e79053;"/>
   </g>
   <g id="patch_10">
    <path clip-path="url(#peb6567c766)" d="M 580.734028 504.72 
L 601.390972 504.72 
L 601.390972 292.167121 
L 580.734028 292.167121 
z
" style="fill:#e79053;"/>
   </g>
   <g id="patch_11">
    <path clip-path="url(#peb6567c766)" d="M 229.565972 504.72 
L 250.222917 504.72 
L 250.222917 450.357092 
L 229.565972 450.357092 
z
" style="fill:#7dc9e1;"/>
   </g>
   <g id="patch_12">
    <path clip-path="url(#peb6567c766)" d="M 353.507639 504.72 
L 374.164583 504.72 
L 374.164583 450.118775 
L 353.507639 450.118775 
z
" style="fill:#7dc9e1;"/>
   </g>
   <g id="patch_13">
    <path clip-path="url(#peb6567c766)" d="M 477.449306 504.72 
L 498.10625 504.72 
L 498.10625 435.26364 
L 477.449306 435.26364 
z
" style="fill:#7dc9e1;"/>
   </g>
   <g id="patch_14">
    <path clip-path="url(#peb6567c766)" d="M 601.390972 504.72 
L 622.047917 504.72 
L 622.047917 415.191997 
L 601.390972 415.191997 
z
" style="fill:#7dc9e1;"/>
   </g>
   <g id="matplotlib.axis_1">
    <g id="xtick_1">
     <g id="line2d_1">
      <defs>
       <path d="M 0 0 
L 0 3.5 
" id="md3a703bef5" style="stroke:#000000;stroke-width:0.8;"/>
      </defs>
      <g>
       <use style="stroke:#000000;stroke-width:0.8;" x="219.2375" xlink:href="#md3a703bef5" y="504.72"/>
      </g>
     </g>
     <g id="text_1">
      <!-- 500 -->
      <g transform="translate(225.86 557.53)rotate(-90)scale(0.24 -0.24)">
       <defs>
        <path d="M 10.796875 72.90625 
L 49.515625 72.90625 
L 49.515625 64.59375 
L 19.828125 64.59375 
L 19.828125 46.734375 
Q 21.96875 47.46875 24.109375 47.828125 
Q 26.265625 48.1875 28.421875 48.1875 
Q 40.625 48.1875 47.75 41.5 
Q 54.890625 34.8125 54.890625 23.390625 
Q 54.890625 11.625 47.5625 5.09375 
Q 40.234375 -1.421875 26.90625 -1.421875 
Q 22.3125 -1.421875 17.546875 -0.640625 
Q 12.796875 0.140625 7.71875 1.703125 
L 7.71875 11.625 
Q 12.109375 9.234375 16.796875 8.0625 
Q 21.484375 6.890625 26.703125 6.890625 
Q 35.15625 6.890625 40.078125 11.328125 
Q 45.015625 15.765625 45.015625 23.390625 
Q 45.015625 31 40.078125 35.4375 
Q 35.15625 39.890625 26.703125 39.890625 
Q 22.75 39.890625 18.8125 39.015625 
Q 14.890625 38.140625 10.796875 36.28125 
z
" id="DejaVuSans-53"/>
        <path d="M 31.78125 66.40625 
Q 24.171875 66.40625 20.328125 58.90625 
Q 16.5 51.421875 16.5 36.375 
Q 16.5 21.390625 20.328125 13.890625 
Q 24.171875 6.390625 31.78125 6.390625 
Q 39.453125 6.390625 43.28125 13.890625 
Q 47.125 21.390625 47.125 36.375 
Q 47.125 51.421875 43.28125 58.90625 
Q 39.453125 66.40625 31.78125 66.40625 
z
M 31.78125 74.21875 
Q 44.046875 74.21875 50.515625 64.515625 
Q 56.984375 54.828125 56.984375 36.375 
Q 56.984375 17.96875 50.515625 8.265625 
Q 44.046875 -1.421875 31.78125 -1.421875 
Q 19.53125 -1.421875 13.0625 8.265625 
Q 6.59375 17.96875 6.59375 36.375 
Q 6.59375 54.828125 13.0625 64.515625 
Q 19.53125 74.21875 31.78125 74.21875 
z
" id="DejaVuSans-48"/>
       </defs>
       <use xlink:href="#DejaVuSans-53"/>
       <use x="63.623047" xlink:href="#DejaVuSans-48"/>
       <use x="127.246094" xlink:href="#DejaVuSans-48"/>
      </g>
     </g>
    </g>
    <g id="xtick_2">
     <g id="line2d_2">
      <g>
       <use style="stroke:#000000;stroke-width:0.8;" x="343.179167" xlink:href="#md3a703bef5" y="504.72"/>
      </g>
     </g>
     <g id="text_2">
      <!-- 750 -->
      <g transform="translate(349.801667 557.53)rotate(-90)scale(0.24 -0.24)">
       <defs>
        <path d="M 8.203125 72.90625 
L 55.078125 72.90625 
L 55.078125 68.703125 
L 28.609375 0 
L 18.3125 0 
L 43.21875 64.59375 
L 8.203125 64.59375 
z
" id="DejaVuSans-55"/>
       </defs>
       <use xlink:href="#DejaVuSans-55"/>
       <use x="63.623047" xlink:href="#DejaVuSans-53"/>
       <use x="127.246094" xlink:href="#DejaVuSans-48"/>
      </g>
     </g>
    </g>
    <g id="xtick_3">
     <g id="line2d_3">
      <g>
       <use style="stroke:#000000;stroke-width:0.8;" x="467.120833" xlink:href="#md3a703bef5" y="504.72"/>
      </g>
     </g>
     <g id="text_3">
      <!-- 1000 -->
      <g transform="translate(473.743333 572.8)rotate(-90)scale(0.24 -0.24)">
       <defs>
        <path d="M 12.40625 8.296875 
L 28.515625 8.296875 
L 28.515625 63.921875 
L 10.984375 60.40625 
L 10.984375 69.390625 
L 28.421875 72.90625 
L 38.28125 72.90625 
L 38.28125 8.296875 
L 54.390625 8.296875 
L 54.390625 0 
L 12.40625 0 
z
" id="DejaVuSans-49"/>
       </defs>
       <use xlink:href="#DejaVuSans-49"/>
       <use x="63.623047" xlink:href="#DejaVuSans-48"/>
       <use x="127.246094" xlink:href="#DejaVuSans-48"/>
       <use x="190.869141" xlink:href="#DejaVuSans-48"/>
      </g>
     </g>
    </g>
    <g id="xtick_4">
     <g id="line2d_4">
      <g>
       <use style="stroke:#000000;stroke-width:0.8;" x="591.0625" xlink:href="#md3a703bef5" y="504.72"/>
      </g>
     </g>
     <g id="text_4">
      <!-- 1500 -->
      <g transform="translate(597.685 572.8)rotate(-90)scale(0.24 -0.24)">
       <use xlink:href="#DejaVuSans-49"/>
       <use x="63.623047" xlink:href="#DejaVuSans-53"/>
       <use x="127.246094" xlink:href="#DejaVuSans-48"/>
       <use x="190.869141" xlink:href="#DejaVuSans-48"/>
      </g>
     </g>
    </g>
    <g id="text_5">
     <!-- network size -->
     <g transform="translate(329.338125 595.03625)scale(0.24 -0.24)">
      <defs>
       <path d="M 54.890625 33.015625 
L 54.890625 0 
L 45.90625 0 
L 45.90625 32.71875 
Q 45.90625 40.484375 42.875 44.328125 
Q 39.84375 48.1875 33.796875 48.1875 
Q 26.515625 48.1875 22.3125 43.546875 
Q 18.109375 38.921875 18.109375 30.90625 
L 18.109375 0 
L 9.078125 0 
L 9.078125 54.6875 
L 18.109375 54.6875 
L 18.109375 46.1875 
Q 21.34375 51.125 25.703125 53.5625 
Q 30.078125 56 35.796875 56 
Q 45.21875 56 50.046875 50.171875 
Q 54.890625 44.34375 54.890625 33.015625 
z
" id="DejaVuSans-110"/>
       <path d="M 56.203125 29.59375 
L 56.203125 25.203125 
L 14.890625 25.203125 
Q 15.484375 15.921875 20.484375 11.0625 
Q 25.484375 6.203125 34.421875 6.203125 
Q 39.59375 6.203125 44.453125 7.46875 
Q 49.3125 8.734375 54.109375 11.28125 
L 54.109375 2.78125 
Q 49.265625 0.734375 44.1875 -0.34375 
Q 39.109375 -1.421875 33.890625 -1.421875 
Q 20.796875 -1.421875 13.15625 6.1875 
Q 5.515625 13.8125 5.515625 26.8125 
Q 5.515625 40.234375 12.765625 48.109375 
Q 20.015625 56 32.328125 56 
Q 43.359375 56 49.78125 48.890625 
Q 56.203125 41.796875 56.203125 29.59375 
z
M 47.21875 32.234375 
Q 47.125 39.59375 43.09375 43.984375 
Q 39.0625 48.390625 32.421875 48.390625 
Q 24.90625 48.390625 20.390625 44.140625 
Q 15.875 39.890625 15.1875 32.171875 
z
" id="DejaVuSans-101"/>
       <path d="M 18.3125 70.21875 
L 18.3125 54.6875 
L 36.8125 54.6875 
L 36.8125 47.703125 
L 18.3125 47.703125 
L 18.3125 18.015625 
Q 18.3125 11.328125 20.140625 9.421875 
Q 21.96875 7.515625 27.59375 7.515625 
L 36.8125 7.515625 
L 36.8125 0 
L 27.59375 0 
Q 17.1875 0 13.234375 3.875 
Q 9.28125 7.765625 9.28125 18.015625 
L 9.28125 47.703125 
L 2.6875 47.703125 
L 2.6875 54.6875 
L 9.28125 54.6875 
L 9.28125 70.21875 
z
" id="DejaVuSans-116"/>
       <path d="M 4.203125 54.6875 
L 13.1875 54.6875 
L 24.421875 12.015625 
L 35.59375 54.6875 
L 46.1875 54.6875 
L 57.421875 12.015625 
L 68.609375 54.6875 
L 77.59375 54.6875 
L 63.28125 0 
L 52.6875 0 
L 40.921875 44.828125 
L 29.109375 0 
L 18.5 0 
z
" id="DejaVuSans-119"/>
       <path d="M 30.609375 48.390625 
Q 23.390625 48.390625 19.1875 42.75 
Q 14.984375 37.109375 14.984375 27.296875 
Q 14.984375 17.484375 19.15625 11.84375 
Q 23.34375 6.203125 30.609375 6.203125 
Q 37.796875 6.203125 41.984375 11.859375 
Q 46.1875 17.53125 46.1875 27.296875 
Q 46.1875 37.015625 41.984375 42.703125 
Q 37.796875 48.390625 30.609375 48.390625 
z
M 30.609375 56 
Q 42.328125 56 49.015625 48.375 
Q 55.71875 40.765625 55.71875 27.296875 
Q 55.71875 13.875 49.015625 6.21875 
Q 42.328125 -1.421875 30.609375 -1.421875 
Q 18.84375 -1.421875 12.171875 6.21875 
Q 5.515625 13.875 5.515625 27.296875 
Q 5.515625 40.765625 12.171875 48.375 
Q 18.84375 56 30.609375 56 
z
" id="DejaVuSans-111"/>
       <path d="M 41.109375 46.296875 
Q 39.59375 47.171875 37.8125 47.578125 
Q 36.03125 48 33.890625 48 
Q 26.265625 48 22.1875 43.046875 
Q 18.109375 38.09375 18.109375 28.8125 
L 18.109375 0 
L 9.078125 0 
L 9.078125 54.6875 
L 18.109375 54.6875 
L 18.109375 46.1875 
Q 20.953125 51.171875 25.484375 53.578125 
Q 30.03125 56 36.53125 56 
Q 37.453125 56 38.578125 55.875 
Q 39.703125 55.765625 41.0625 55.515625 
z
" id="DejaVuSans-114"/>
       <path d="M 9.078125 75.984375 
L 18.109375 75.984375 
L 18.109375 31.109375 
L 44.921875 54.6875 
L 56.390625 54.6875 
L 27.390625 29.109375 
L 57.625 0 
L 45.90625 0 
L 18.109375 26.703125 
L 18.109375 0 
L 9.078125 0 
z
" id="DejaVuSans-107"/>
       <path id="DejaVuSans-32"/>
       <path d="M 44.28125 53.078125 
L 44.28125 44.578125 
Q 40.484375 46.53125 36.375 47.5 
Q 32.28125 48.484375 27.875 48.484375 
Q 21.1875 48.484375 17.84375 46.4375 
Q 14.5 44.390625 14.5 40.28125 
Q 14.5 37.15625 16.890625 35.375 
Q 19.28125 33.59375 26.515625 31.984375 
L 29.59375 31.296875 
Q 39.15625 29.25 43.1875 25.515625 
Q 47.21875 21.78125 47.21875 15.09375 
Q 47.21875 7.46875 41.1875 3.015625 
Q 35.15625 -1.421875 24.609375 -1.421875 
Q 20.21875 -1.421875 15.453125 -0.5625 
Q 10.6875 0.296875 5.421875 2 
L 5.421875 11.28125 
Q 10.40625 8.6875 15.234375 7.390625 
Q 20.0625 6.109375 24.8125 6.109375 
Q 31.15625 6.109375 34.5625 8.28125 
Q 37.984375 10.453125 37.984375 14.40625 
Q 37.984375 18.0625 35.515625 20.015625 
Q 33.0625 21.96875 24.703125 23.78125 
L 21.578125 24.515625 
Q 13.234375 26.265625 9.515625 29.90625 
Q 5.8125 33.546875 5.8125 39.890625 
Q 5.8125 47.609375 11.28125 51.796875 
Q 16.75 56 26.8125 56 
Q 31.78125 56 36.171875 55.265625 
Q 40.578125 54.546875 44.28125 53.078125 
z
" id="DejaVuSans-115"/>
       <path d="M 9.421875 54.6875 
L 18.40625 54.6875 
L 18.40625 0 
L 9.421875 0 
z
M 9.421875 75.984375 
L 18.40625 75.984375 
L 18.40625 64.59375 
L 9.421875 64.59375 
z
" id="DejaVuSans-105"/>
       <path d="M 5.515625 54.6875 
L 48.1875 54.6875 
L 48.1875 46.484375 
L 14.40625 7.171875 
L 48.1875 7.171875 
L 48.1875 0 
L 4.296875 0 
L 4.296875 8.203125 
L 38.09375 47.515625 
L 5.515625 47.515625 
z
" id="DejaVuSans-122"/>
      </defs>
      <use xlink:href="#DejaVuSans-110"/>
      <use x="63.378906" xlink:href="#DejaVuSans-101"/>
      <use x="124.902344" xlink:href="#DejaVuSans-116"/>
      <use x="164.111328" xlink:href="#DejaVuSans-119"/>
      <use x="245.898438" xlink:href="#DejaVuSans-111"/>
      <use x="307.080078" xlink:href="#DejaVuSans-114"/>
      <use x="348.193359" xlink:href="#DejaVuSans-107"/>
      <use x="406.103516" xlink:href="#DejaVuSans-32"/>
      <use x="437.890625" xlink:href="#DejaVuSans-115"/>
      <use x="489.990234" xlink:href="#DejaVuSans-105"/>
      <use x="517.773438" xlink:href="#DejaVuSans-122"/>
      <use x="570.263672" xlink:href="#DejaVuSans-101"/>
     </g>
    </g>
   </g>
   <g id="matplotlib.axis_2">
    <g id="ytick_1">
     <g id="line2d_5">
      <defs>
       <path d="M 0 0 
L -3.5 0 
" id="m7e7ddb769b" style="stroke:#000000;stroke-width:0.8;"/>
      </defs>
      <g>
       <use style="stroke:#000000;stroke-width:0.8;" x="157.266667" xlink:href="#m7e7ddb769b" y="504.72"/>
      </g>
     </g>
     <g id="text_6">
      <!-- 0 -->
      <g transform="translate(134.996667 513.838125)scale(0.24 -0.24)">
       <use xlink:href="#DejaVuSans-48"/>
      </g>
     </g>
    </g>
    <g id="ytick_2">
     <g id="line2d_6">
      <g>
       <use style="stroke:#000000;stroke-width:0.8;" x="157.266667" xlink:href="#m7e7ddb769b" y="451.760519"/>
      </g>
     </g>
     <g id="text_7">
      <!-- 200 -->
      <g transform="translate(104.456667 460.878644)scale(0.24 -0.24)">
       <defs>
        <path d="M 19.1875 8.296875 
L 53.609375 8.296875 
L 53.609375 0 
L 7.328125 0 
L 7.328125 8.296875 
Q 12.9375 14.109375 22.625 23.890625 
Q 32.328125 33.6875 34.8125 36.53125 
Q 39.546875 41.84375 41.421875 45.53125 
Q 43.3125 49.21875 43.3125 52.78125 
Q 43.3125 58.59375 39.234375 62.25 
Q 35.15625 65.921875 28.609375 65.921875 
Q 23.96875 65.921875 18.8125 64.3125 
Q 13.671875 62.703125 7.8125 59.421875 
L 7.8125 69.390625 
Q 13.765625 71.78125 18.9375 73 
Q 24.125 74.21875 28.421875 74.21875 
Q 39.75 74.21875 46.484375 68.546875 
Q 53.21875 62.890625 53.21875 53.421875 
Q 53.21875 48.921875 51.53125 44.890625 
Q 49.859375 40.875 45.40625 35.40625 
Q 44.1875 33.984375 37.640625 27.21875 
Q 31.109375 20.453125 19.1875 8.296875 
z
" id="DejaVuSans-50"/>
       </defs>
       <use xlink:href="#DejaVuSans-50"/>
       <use x="63.623047" xlink:href="#DejaVuSans-48"/>
       <use x="127.246094" xlink:href="#DejaVuSans-48"/>
      </g>
     </g>
    </g>
    <g id="ytick_3">
     <g id="line2d_7">
      <g>
       <use style="stroke:#000000;stroke-width:0.8;" x="157.266667" xlink:href="#m7e7ddb769b" y="398.801037"/>
      </g>
     </g>
     <g id="text_8">
      <!-- 400 -->
      <g transform="translate(104.456667 407.919162)scale(0.24 -0.24)">
       <defs>
        <path d="M 37.796875 64.3125 
L 12.890625 25.390625 
L 37.796875 25.390625 
z
M 35.203125 72.90625 
L 47.609375 72.90625 
L 47.609375 25.390625 
L 58.015625 25.390625 
L 58.015625 17.1875 
L 47.609375 17.1875 
L 47.609375 0 
L 37.796875 0 
L 37.796875 17.1875 
L 4.890625 17.1875 
L 4.890625 26.703125 
z
" id="DejaVuSans-52"/>
       </defs>
       <use xlink:href="#DejaVuSans-52"/>
       <use x="63.623047" xlink:href="#DejaVuSans-48"/>
       <use x="127.246094" xlink:href="#DejaVuSans-48"/>
      </g>
     </g>
    </g>
    <g id="ytick_4">
     <g id="line2d_8">
      <g>
       <use style="stroke:#000000;stroke-width:0.8;" x="157.266667" xlink:href="#m7e7ddb769b" y="345.841556"/>
      </g>
     </g>
     <g id="text_9">
      <!-- 600 -->
      <g transform="translate(104.456667 354.959681)scale(0.24 -0.24)">
       <defs>
        <path d="M 33.015625 40.375 
Q 26.375 40.375 22.484375 35.828125 
Q 18.609375 31.296875 18.609375 23.390625 
Q 18.609375 15.53125 22.484375 10.953125 
Q 26.375 6.390625 33.015625 6.390625 
Q 39.65625 6.390625 43.53125 10.953125 
Q 47.40625 15.53125 47.40625 23.390625 
Q 47.40625 31.296875 43.53125 35.828125 
Q 39.65625 40.375 33.015625 40.375 
z
M 52.59375 71.296875 
L 52.59375 62.3125 
Q 48.875 64.0625 45.09375 64.984375 
Q 41.3125 65.921875 37.59375 65.921875 
Q 27.828125 65.921875 22.671875 59.328125 
Q 17.53125 52.734375 16.796875 39.40625 
Q 19.671875 43.65625 24.015625 45.921875 
Q 28.375 48.1875 33.59375 48.1875 
Q 44.578125 48.1875 50.953125 41.515625 
Q 57.328125 34.859375 57.328125 23.390625 
Q 57.328125 12.15625 50.6875 5.359375 
Q 44.046875 -1.421875 33.015625 -1.421875 
Q 20.359375 -1.421875 13.671875 8.265625 
Q 6.984375 17.96875 6.984375 36.375 
Q 6.984375 53.65625 15.1875 63.9375 
Q 23.390625 74.21875 37.203125 74.21875 
Q 40.921875 74.21875 44.703125 73.484375 
Q 48.484375 72.75 52.59375 71.296875 
z
" id="DejaVuSans-54"/>
       </defs>
       <use xlink:href="#DejaVuSans-54"/>
       <use x="63.623047" xlink:href="#DejaVuSans-48"/>
       <use x="127.246094" xlink:href="#DejaVuSans-48"/>
      </g>
     </g>
    </g>
    <g id="ytick_5">
     <g id="line2d_9">
      <g>
       <use style="stroke:#000000;stroke-width:0.8;" x="157.266667" xlink:href="#m7e7ddb769b" y="292.882074"/>
      </g>
     </g>
     <g id="text_10">
      <!-- 800 -->
      <g transform="translate(104.456667 302.000199)scale(0.24 -0.24)">
       <defs>
        <path d="M 31.78125 34.625 
Q 24.75 34.625 20.71875 30.859375 
Q 16.703125 27.09375 16.703125 20.515625 
Q 16.703125 13.921875 20.71875 10.15625 
Q 24.75 6.390625 31.78125 6.390625 
Q 38.8125 6.390625 42.859375 10.171875 
Q 46.921875 13.96875 46.921875 20.515625 
Q 46.921875 27.09375 42.890625 30.859375 
Q 38.875 34.625 31.78125 34.625 
z
M 21.921875 38.8125 
Q 15.578125 40.375 12.03125 44.71875 
Q 8.5 49.078125 8.5 55.328125 
Q 8.5 64.0625 14.71875 69.140625 
Q 20.953125 74.21875 31.78125 74.21875 
Q 42.671875 74.21875 48.875 69.140625 
Q 55.078125 64.0625 55.078125 55.328125 
Q 55.078125 49.078125 51.53125 44.71875 
Q 48 40.375 41.703125 38.8125 
Q 48.828125 37.15625 52.796875 32.3125 
Q 56.78125 27.484375 56.78125 20.515625 
Q 56.78125 9.90625 50.3125 4.234375 
Q 43.84375 -1.421875 31.78125 -1.421875 
Q 19.734375 -1.421875 13.25 4.234375 
Q 6.78125 9.90625 6.78125 20.515625 
Q 6.78125 27.484375 10.78125 32.3125 
Q 14.796875 37.15625 21.921875 38.8125 
z
M 18.3125 54.390625 
Q 18.3125 48.734375 21.84375 45.5625 
Q 25.390625 42.390625 31.78125 42.390625 
Q 38.140625 42.390625 41.71875 45.5625 
Q 45.3125 48.734375 45.3125 54.390625 
Q 45.3125 60.0625 41.71875 63.234375 
Q 38.140625 66.40625 31.78125 66.40625 
Q 25.390625 66.40625 21.84375 63.234375 
Q 18.3125 60.0625 18.3125 54.390625 
z
" id="DejaVuSans-56"/>
       </defs>
       <use xlink:href="#DejaVuSans-56"/>
       <use x="63.623047" xlink:href="#DejaVuSans-48"/>
       <use x="127.246094" xlink:href="#DejaVuSans-48"/>
      </g>
     </g>
    </g>
    <g id="ytick_6">
     <g id="line2d_10">
      <g>
       <use style="stroke:#000000;stroke-width:0.8;" x="157.266667" xlink:href="#m7e7ddb769b" y="239.922593"/>
      </g>
     </g>
     <g id="text_11">
      <!-- 1000 -->
      <g transform="translate(89.186667 249.040718)scale(0.24 -0.24)">
       <use xlink:href="#DejaVuSans-49"/>
       <use x="63.623047" xlink:href="#DejaVuSans-48"/>
       <use x="127.246094" xlink:href="#DejaVuSans-48"/>
       <use x="190.869141" xlink:href="#DejaVuSans-48"/>
      </g>
     </g>
    </g>
    <g id="ytick_7">
     <g id="line2d_11">
      <g>
       <use style="stroke:#000000;stroke-width:0.8;" x="157.266667" xlink:href="#m7e7ddb769b" y="186.963112"/>
      </g>
     </g>
     <g id="text_12">
      <!-- 1200 -->
      <g transform="translate(89.186667 196.081237)scale(0.24 -0.24)">
       <use xlink:href="#DejaVuSans-49"/>
       <use x="63.623047" xlink:href="#DejaVuSans-50"/>
       <use x="127.246094" xlink:href="#DejaVuSans-48"/>
       <use x="190.869141" xlink:href="#DejaVuSans-48"/>
      </g>
     </g>
    </g>
    <g id="ytick_8">
     <g id="line2d_12">
      <g>
       <use style="stroke:#000000;stroke-width:0.8;" x="157.266667" xlink:href="#m7e7ddb769b" y="134.00363"/>
      </g>
     </g>
     <g id="text_13">
      <!-- 1400 -->
      <g transform="translate(89.186667 143.121755)scale(0.24 -0.24)">
       <use xlink:href="#DejaVuSans-49"/>
       <use x="63.623047" xlink:href="#DejaVuSans-52"/>
       <use x="127.246094" xlink:href="#DejaVuSans-48"/>
       <use x="190.869141" xlink:href="#DejaVuSans-48"/>
      </g>
     </g>
    </g>
    <g id="ytick_9">
     <g id="line2d_13">
      <g>
       <use style="stroke:#000000;stroke-width:0.8;" x="157.266667" xlink:href="#m7e7ddb769b" y="81.044149"/>
      </g>
     </g>
     <g id="text_14">
      <!-- 1600 -->
      <g transform="translate(89.186667 90.162274)scale(0.24 -0.24)">
       <use xlink:href="#DejaVuSans-49"/>
       <use x="63.623047" xlink:href="#DejaVuSans-54"/>
       <use x="127.246094" xlink:href="#DejaVuSans-48"/>
       <use x="190.869141" xlink:href="#DejaVuSans-48"/>
      </g>
     </g>
    </g>
    <g id="text_15">
     <!-- counts -->
     <g transform="translate(80.195417 317.62125)rotate(-90)scale(0.24 -0.24)">
      <defs>
       <path d="M 48.78125 52.59375 
L 48.78125 44.1875 
Q 44.96875 46.296875 41.140625 47.34375 
Q 37.3125 48.390625 33.40625 48.390625 
Q 24.65625 48.390625 19.8125 42.84375 
Q 14.984375 37.3125 14.984375 27.296875 
Q 14.984375 17.28125 19.8125 11.734375 
Q 24.65625 6.203125 33.40625 6.203125 
Q 37.3125 6.203125 41.140625 7.25 
Q 44.96875 8.296875 48.78125 10.40625 
L 48.78125 2.09375 
Q 45.015625 0.34375 40.984375 -0.53125 
Q 36.96875 -1.421875 32.421875 -1.421875 
Q 20.0625 -1.421875 12.78125 6.34375 
Q 5.515625 14.109375 5.515625 27.296875 
Q 5.515625 40.671875 12.859375 48.328125 
Q 20.21875 56 33.015625 56 
Q 37.15625 56 41.109375 55.140625 
Q 45.0625 54.296875 48.78125 52.59375 
z
" id="DejaVuSans-99"/>
       <path d="M 8.5 21.578125 
L 8.5 54.6875 
L 17.484375 54.6875 
L 17.484375 21.921875 
Q 17.484375 14.15625 20.5 10.265625 
Q 23.53125 6.390625 29.59375 6.390625 
Q 36.859375 6.390625 41.078125 11.03125 
Q 45.3125 15.671875 45.3125 23.6875 
L 45.3125 54.6875 
L 54.296875 54.6875 
L 54.296875 0 
L 45.3125 0 
L 45.3125 8.40625 
Q 42.046875 3.421875 37.71875 1 
Q 33.40625 -1.421875 27.6875 -1.421875 
Q 18.265625 -1.421875 13.375 4.4375 
Q 8.5 10.296875 8.5 21.578125 
z
M 31.109375 56 
z
" id="DejaVuSans-117"/>
      </defs>
      <use xlink:href="#DejaVuSans-99"/>
      <use x="54.980469" xlink:href="#DejaVuSans-111"/>
      <use x="116.162109" xlink:href="#DejaVuSans-117"/>
      <use x="179.541016" xlink:href="#DejaVuSans-110"/>
      <use x="242.919922" xlink:href="#DejaVuSans-116"/>
      <use x="282.128906" xlink:href="#DejaVuSans-115"/>
     </g>
    </g>
   </g>
   <g id="LineCollection_1">
    <path clip-path="url(#peb6567c766)" d="M 198.580556 405.72188 
L 198.580556 387.802314 
" style="fill:none;stroke:#000000;stroke-width:1.5;"/>
    <path clip-path="url(#peb6567c766)" d="M 322.522222 302.226814 
L 322.522222 272.098087 
" style="fill:none;stroke:#000000;stroke-width:1.5;"/>
    <path clip-path="url(#peb6567c766)" d="M 446.463889 261.837114 
L 446.463889 220.973803 
" style="fill:none;stroke:#000000;stroke-width:1.5;"/>
    <path clip-path="url(#peb6567c766)" d="M 570.405556 72.769016 
L 570.405556 71.948571 
" style="fill:none;stroke:#000000;stroke-width:1.5;"/>
   </g>
   <g id="LineCollection_2">
    <path clip-path="url(#peb6567c766)" d="M 219.2375 412.004113 
L 219.2375 210.725753 
" style="fill:none;stroke:#000000;stroke-width:1.5;"/>
    <path clip-path="url(#peb6567c766)" d="M 343.179167 405.900843 
L 343.179167 186.853957 
" style="fill:none;stroke:#000000;stroke-width:1.5;"/>
    <path clip-path="url(#peb6567c766)" d="M 467.120833 310.158871 
L 467.120833 170.692546 
" style="fill:none;stroke:#000000;stroke-width:1.5;"/>
    <path clip-path="url(#peb6567c766)" d="M 591.0625 431.697184 
L 591.0625 152.637059 
" style="fill:none;stroke:#000000;stroke-width:1.5;"/>
   </g>
   <g id="LineCollection_3">
    <path clip-path="url(#peb6567c766)" d="M 239.894444 463.501912 
L 239.894444 437.212272 
" style="fill:none;stroke:#000000;stroke-width:1.5;"/>
    <path clip-path="url(#peb6567c766)" d="M 363.836111 463.261668 
L 363.836111 436.975881 
" style="fill:none;stroke:#000000;stroke-width:1.5;"/>
    <path clip-path="url(#peb6567c766)" d="M 487.777778 449.945536 
L 487.777778 420.581744 
" style="fill:none;stroke:#000000;stroke-width:1.5;"/>
    <path clip-path="url(#peb6567c766)" d="M 611.719444 437.355134 
L 611.719444 393.02886 
" style="fill:none;stroke:#000000;stroke-width:1.5;"/>
   </g>
   <g id="patch_15">
    <path d="M 157.266667 504.72 
L 157.266667 50.31 
" style="fill:none;stroke:#000000;stroke-linecap:square;stroke-linejoin:miter;stroke-width:0.8;"/>
   </g>
   <g id="patch_16">
    <path d="M 653.033333 504.72 
L 653.033333 50.31 
" style="fill:none;stroke:#000000;stroke-linecap:square;stroke-linejoin:miter;stroke-width:0.8;"/>
   </g>
   <g id="patch_17">
    <path d="M 157.266667 504.72 
L 653.033333 504.72 
" style="fill:none;stroke:#000000;stroke-linecap:square;stroke-linejoin:miter;stroke-width:0.8;"/>
   </g>
   <g id="patch_18">
    <path d="M 157.266667 50.31 
L 653.033333 50.31 
" style="fill:none;stroke:#000000;stroke-linecap:square;stroke-linejoin:miter;stroke-width:0.8;"/>
   </g>
   <g id="text_16">
    <!-- FFL motif-node participation -->
    <g transform="translate(202.515 44.31)scale(0.288 -0.288)">
     <defs>
      <path d="M 9.8125 72.90625 
L 51.703125 72.90625 
L 51.703125 64.59375 
L 19.671875 64.59375 
L 19.671875 43.109375 
L 48.578125 43.109375 
L 48.578125 34.8125 
L 19.671875 34.8125 
L 19.671875 0 
L 9.8125 0 
z
" id="DejaVuSans-70"/>
      <path d="M 9.8125 72.90625 
L 19.671875 72.90625 
L 19.671875 8.296875 
L 55.171875 8.296875 
L 55.171875 0 
L 9.8125 0 
z
" id="DejaVuSans-76"/>
      <path d="M 52 44.1875 
Q 55.375 50.25 60.0625 53.125 
Q 64.75 56 71.09375 56 
Q 79.640625 56 84.28125 50.015625 
Q 88.921875 44.046875 88.921875 33.015625 
L 88.921875 0 
L 79.890625 0 
L 79.890625 32.71875 
Q 79.890625 40.578125 77.09375 44.375 
Q 74.3125 48.1875 68.609375 48.1875 
Q 61.625 48.1875 57.5625 43.546875 
Q 53.515625 38.921875 53.515625 30.90625 
L 53.515625 0 
L 44.484375 0 
L 44.484375 32.71875 
Q 44.484375 40.625 41.703125 44.40625 
Q 38.921875 48.1875 33.109375 48.1875 
Q 26.21875 48.1875 22.15625 43.53125 
Q 18.109375 38.875 18.109375 30.90625 
L 18.109375 0 
L 9.078125 0 
L 9.078125 54.6875 
L 18.109375 54.6875 
L 18.109375 46.1875 
Q 21.1875 51.21875 25.484375 53.609375 
Q 29.78125 56 35.6875 56 
Q 41.65625 56 45.828125 52.96875 
Q 50 49.953125 52 44.1875 
z
" id="DejaVuSans-109"/>
      <path d="M 37.109375 75.984375 
L 37.109375 68.5 
L 28.515625 68.5 
Q 23.6875 68.5 21.796875 66.546875 
Q 19.921875 64.59375 19.921875 59.515625 
L 19.921875 54.6875 
L 34.71875 54.6875 
L 34.71875 47.703125 
L 19.921875 47.703125 
L 19.921875 0 
L 10.890625 0 
L 10.890625 47.703125 
L 2.296875 47.703125 
L 2.296875 54.6875 
L 10.890625 54.6875 
L 10.890625 58.5 
Q 10.890625 67.625 15.140625 71.796875 
Q 19.390625 75.984375 28.609375 75.984375 
z
" id="DejaVuSans-102"/>
      <path d="M 4.890625 31.390625 
L 31.203125 31.390625 
L 31.203125 23.390625 
L 4.890625 23.390625 
z
" id="DejaVuSans-45"/>
      <path d="M 45.40625 46.390625 
L 45.40625 75.984375 
L 54.390625 75.984375 
L 54.390625 0 
L 45.40625 0 
L 45.40625 8.203125 
Q 42.578125 3.328125 38.25 0.953125 
Q 33.9375 -1.421875 27.875 -1.421875 
Q 17.96875 -1.421875 11.734375 6.484375 
Q 5.515625 14.40625 5.515625 27.296875 
Q 5.515625 40.1875 11.734375 48.09375 
Q 17.96875 56 27.875 56 
Q 33.9375 56 38.25 53.625 
Q 42.578125 51.265625 45.40625 46.390625 
z
M 14.796875 27.296875 
Q 14.796875 17.390625 18.875 11.75 
Q 22.953125 6.109375 30.078125 6.109375 
Q 37.203125 6.109375 41.296875 11.75 
Q 45.40625 17.390625 45.40625 27.296875 
Q 45.40625 37.203125 41.296875 42.84375 
Q 37.203125 48.484375 30.078125 48.484375 
Q 22.953125 48.484375 18.875 42.84375 
Q 14.796875 37.203125 14.796875 27.296875 
z
" id="DejaVuSans-100"/>
      <path d="M 18.109375 8.203125 
L 18.109375 -20.796875 
L 9.078125 -20.796875 
L 9.078125 54.6875 
L 18.109375 54.6875 
L 18.109375 46.390625 
Q 20.953125 51.265625 25.265625 53.625 
Q 29.59375 56 35.59375 56 
Q 45.5625 56 51.78125 48.09375 
Q 58.015625 40.1875 58.015625 27.296875 
Q 58.015625 14.40625 51.78125 6.484375 
Q 45.5625 -1.421875 35.59375 -1.421875 
Q 29.59375 -1.421875 25.265625 0.953125 
Q 20.953125 3.328125 18.109375 8.203125 
z
M 48.6875 27.296875 
Q 48.6875 37.203125 44.609375 42.84375 
Q 40.53125 48.484375 33.40625 48.484375 
Q 26.265625 48.484375 22.1875 42.84375 
Q 18.109375 37.203125 18.109375 27.296875 
Q 18.109375 17.390625 22.1875 11.75 
Q 26.265625 6.109375 33.40625 6.109375 
Q 40.53125 6.109375 44.609375 11.75 
Q 48.6875 17.390625 48.6875 27.296875 
z
" id="DejaVuSans-112"/>
      <path d="M 34.28125 27.484375 
Q 23.390625 27.484375 19.1875 25 
Q 14.984375 22.515625 14.984375 16.5 
Q 14.984375 11.71875 18.140625 8.90625 
Q 21.296875 6.109375 26.703125 6.109375 
Q 34.1875 6.109375 38.703125 11.40625 
Q 43.21875 16.703125 43.21875 25.484375 
L 43.21875 27.484375 
z
M 52.203125 31.203125 
L 52.203125 0 
L 43.21875 0 
L 43.21875 8.296875 
Q 40.140625 3.328125 35.546875 0.953125 
Q 30.953125 -1.421875 24.3125 -1.421875 
Q 15.921875 -1.421875 10.953125 3.296875 
Q 6 8.015625 6 15.921875 
Q 6 25.140625 12.171875 29.828125 
Q 18.359375 34.515625 30.609375 34.515625 
L 43.21875 34.515625 
L 43.21875 35.40625 
Q 43.21875 41.609375 39.140625 45 
Q 35.0625 48.390625 27.6875 48.390625 
Q 23 48.390625 18.546875 47.265625 
Q 14.109375 46.140625 10.015625 43.890625 
L 10.015625 52.203125 
Q 14.9375 54.109375 19.578125 55.046875 
Q 24.21875 56 28.609375 56 
Q 40.484375 56 46.34375 49.84375 
Q 52.203125 43.703125 52.203125 31.203125 
z
" id="DejaVuSans-97"/>
     </defs>
     <use xlink:href="#DejaVuSans-70"/>
     <use x="57.519531" xlink:href="#DejaVuSans-70"/>
     <use x="115.039062" xlink:href="#DejaVuSans-76"/>
     <use x="170.751953" xlink:href="#DejaVuSans-32"/>
     <use x="202.539062" xlink:href="#DejaVuSans-109"/>
     <use x="299.951172" xlink:href="#DejaVuSans-111"/>
     <use x="361.132812" xlink:href="#DejaVuSans-116"/>
     <use x="400.341797" xlink:href="#DejaVuSans-105"/>
     <use x="428.125" xlink:href="#DejaVuSans-102"/>
     <use x="457.830078" xlink:href="#DejaVuSans-45"/>
     <use x="493.914062" xlink:href="#DejaVuSans-110"/>
     <use x="557.292969" xlink:href="#DejaVuSans-111"/>
     <use x="618.474609" xlink:href="#DejaVuSans-100"/>
     <use x="681.951172" xlink:href="#DejaVuSans-101"/>
     <use x="743.474609" xlink:href="#DejaVuSans-32"/>
     <use x="775.261719" xlink:href="#DejaVuSans-112"/>
     <use x="838.738281" xlink:href="#DejaVuSans-97"/>
     <use x="900.017578" xlink:href="#DejaVuSans-114"/>
     <use x="941.130859" xlink:href="#DejaVuSans-116"/>
     <use x="980.339844" xlink:href="#DejaVuSans-105"/>
     <use x="1008.123047" xlink:href="#DejaVuSans-99"/>
     <use x="1063.103516" xlink:href="#DejaVuSans-105"/>
     <use x="1090.886719" xlink:href="#DejaVuSans-112"/>
     <use x="1154.363281" xlink:href="#DejaVuSans-97"/>
     <use x="1215.642578" xlink:href="#DejaVuSans-116"/>
     <use x="1254.851562" xlink:href="#DejaVuSans-105"/>
     <use x="1282.634766" xlink:href="#DejaVuSans-111"/>
     <use x="1343.816406" xlink:href="#DejaVuSans-110"/>
    </g>
   </g>
   <g id="legend_1">
    <g id="patch_19">
     <path d="M 174.066667 175.1925 
L 445.397917 175.1925 
Q 450.197917 175.1925 450.197917 170.3925 
L 450.197917 67.11 
Q 450.197917 62.31 445.397917 62.31 
L 174.066667 62.31 
Q 169.266667 62.31 169.266667 67.11 
L 169.266667 170.3925 
Q 169.266667 175.1925 174.066667 175.1925 
z
" style="fill:#ffffff;opacity:0.8;stroke:#cccccc;stroke-linejoin:miter;"/>
    </g>
    <g id="patch_20">
     <path d="M 178.866667 90.14625 
L 226.866667 90.14625 
L 226.866667 73.34625 
L 178.866667 73.34625 
z
" style="fill:#00876c;"/>
    </g>
    <g id="text_17">
     <!-- FFLatt -->
     <g transform="translate(246.066667 90.14625)scale(0.24 -0.24)">
      <use xlink:href="#DejaVuSans-70"/>
      <use x="57.519531" xlink:href="#DejaVuSans-70"/>
      <use x="115.039062" xlink:href="#DejaVuSans-76"/>
      <use x="170.751953" xlink:href="#DejaVuSans-97"/>
      <use x="232.03125" xlink:href="#DejaVuSans-116"/>
      <use x="271.240234" xlink:href="#DejaVuSans-116"/>
     </g>
    </g>
    <g id="patch_21">
     <path d="M 178.866667 125.37375 
L 226.866667 125.37375 
L 226.866667 108.57375 
L 178.866667 108.57375 
z
" style="fill:#e79053;"/>
    </g>
    <g id="text_18">
     <!-- GNW -->
     <g transform="translate(246.066667 125.37375)scale(0.24 -0.24)">
      <defs>
       <path d="M 59.515625 10.40625 
L 59.515625 29.984375 
L 43.40625 29.984375 
L 43.40625 38.09375 
L 69.28125 38.09375 
L 69.28125 6.78125 
Q 63.578125 2.734375 56.6875 0.65625 
Q 49.8125 -1.421875 42 -1.421875 
Q 24.90625 -1.421875 15.25 8.5625 
Q 5.609375 18.5625 5.609375 36.375 
Q 5.609375 54.25 15.25 64.234375 
Q 24.90625 74.21875 42 74.21875 
Q 49.125 74.21875 55.546875 72.453125 
Q 61.96875 70.703125 67.390625 67.28125 
L 67.390625 56.78125 
Q 61.921875 61.421875 55.765625 63.765625 
Q 49.609375 66.109375 42.828125 66.109375 
Q 29.4375 66.109375 22.71875 58.640625 
Q 16.015625 51.171875 16.015625 36.375 
Q 16.015625 21.625 22.71875 14.15625 
Q 29.4375 6.6875 42.828125 6.6875 
Q 48.046875 6.6875 52.140625 7.59375 
Q 56.25 8.5 59.515625 10.40625 
z
" id="DejaVuSans-71"/>
       <path d="M 9.8125 72.90625 
L 23.09375 72.90625 
L 55.421875 11.921875 
L 55.421875 72.90625 
L 64.984375 72.90625 
L 64.984375 0 
L 51.703125 0 
L 19.390625 60.984375 
L 19.390625 0 
L 9.8125 0 
z
" id="DejaVuSans-78"/>
       <path d="M 3.328125 72.90625 
L 13.28125 72.90625 
L 28.609375 11.28125 
L 43.890625 72.90625 
L 54.984375 72.90625 
L 70.3125 11.28125 
L 85.59375 72.90625 
L 95.609375 72.90625 
L 77.296875 0 
L 64.890625 0 
L 49.515625 63.28125 
L 33.984375 0 
L 21.578125 0 
z
" id="DejaVuSans-87"/>
      </defs>
      <use xlink:href="#DejaVuSans-71"/>
      <use x="77.490234" xlink:href="#DejaVuSans-78"/>
      <use x="152.294922" xlink:href="#DejaVuSans-87"/>
     </g>
    </g>
    <g id="patch_22">
     <path d="M 178.866667 160.60125 
L 226.866667 160.60125 
L 226.866667 143.80125 
L 178.866667 143.80125 
z
" style="fill:#7dc9e1;"/>
    </g>
    <g id="text_19">
     <!-- NetworkX graph -->
     <g transform="translate(246.066667 160.60125)scale(0.24 -0.24)">
      <defs>
       <path d="M 6.296875 72.90625 
L 16.890625 72.90625 
L 35.015625 45.796875 
L 53.21875 72.90625 
L 63.8125 72.90625 
L 40.375 37.890625 
L 65.375 0 
L 54.78125 0 
L 34.28125 31 
L 13.625 0 
L 2.984375 0 
L 29 38.921875 
z
" id="DejaVuSans-88"/>
       <path d="M 45.40625 27.984375 
Q 45.40625 37.75 41.375 43.109375 
Q 37.359375 48.484375 30.078125 48.484375 
Q 22.859375 48.484375 18.828125 43.109375 
Q 14.796875 37.75 14.796875 27.984375 
Q 14.796875 18.265625 18.828125 12.890625 
Q 22.859375 7.515625 30.078125 7.515625 
Q 37.359375 7.515625 41.375 12.890625 
Q 45.40625 18.265625 45.40625 27.984375 
z
M 54.390625 6.78125 
Q 54.390625 -7.171875 48.1875 -13.984375 
Q 42 -20.796875 29.203125 -20.796875 
Q 24.46875 -20.796875 20.265625 -20.09375 
Q 16.0625 -19.390625 12.109375 -17.921875 
L 12.109375 -9.1875 
Q 16.0625 -11.328125 19.921875 -12.34375 
Q 23.78125 -13.375 27.78125 -13.375 
Q 36.625 -13.375 41.015625 -8.765625 
Q 45.40625 -4.15625 45.40625 5.171875 
L 45.40625 9.625 
Q 42.625 4.78125 38.28125 2.390625 
Q 33.9375 0 27.875 0 
Q 17.828125 0 11.671875 7.65625 
Q 5.515625 15.328125 5.515625 27.984375 
Q 5.515625 40.671875 11.671875 48.328125 
Q 17.828125 56 27.875 56 
Q 33.9375 56 38.28125 53.609375 
Q 42.625 51.21875 45.40625 46.390625 
L 45.40625 54.6875 
L 54.390625 54.6875 
z
" id="DejaVuSans-103"/>
       <path d="M 54.890625 33.015625 
L 54.890625 0 
L 45.90625 0 
L 45.90625 32.71875 
Q 45.90625 40.484375 42.875 44.328125 
Q 39.84375 48.1875 33.796875 48.1875 
Q 26.515625 48.1875 22.3125 43.546875 
Q 18.109375 38.921875 18.109375 30.90625 
L 18.109375 0 
L 9.078125 0 
L 9.078125 75.984375 
L 18.109375 75.984375 
L 18.109375 46.1875 
Q 21.34375 51.125 25.703125 53.5625 
Q 30.078125 56 35.796875 56 
Q 45.21875 56 50.046875 50.171875 
Q 54.890625 44.34375 54.890625 33.015625 
z
" id="DejaVuSans-104"/>
      </defs>
      <use xlink:href="#DejaVuSans-78"/>
      <use x="74.804688" xlink:href="#DejaVuSans-101"/>
      <use x="136.328125" xlink:href="#DejaVuSans-116"/>
      <use x="175.537109" xlink:href="#DejaVuSans-119"/>
      <use x="257.324219" xlink:href="#DejaVuSans-111"/>
      <use x="318.505859" xlink:href="#DejaVuSans-114"/>
      <use x="359.619141" xlink:href="#DejaVuSans-107"/>
      <use x="417.529297" xlink:href="#DejaVuSans-88"/>
      <use x="486.035156" xlink:href="#DejaVuSans-32"/>
      <use x="517.822266" xlink:href="#DejaVuSans-103"/>
      <use x="581.298828" xlink:href="#DejaVuSans-114"/>
      <use x="622.412109" xlink:href="#DejaVuSans-97"/>
      <use x="683.691406" xlink:href="#DejaVuSans-112"/>
      <use x="747.167969" xlink:href="#DejaVuSans-104"/>
     </g>
    </g>
   </g>
  </g>
  <g id="axes_2">
   <g id="patch_23">
    <path d="M 874.466667 504.72 
L 1370.233333 504.72 
L 1370.233333 50.31 
L 874.466667 50.31 
z
" style="fill:#ffffff;"/>
   </g>
   <g id="patch_24">
    <path clip-path="url(#p9c199192c5)" d="M 905.452083 504.72 
L 926.109028 504.72 
L 926.109028 214.818985 
L 905.452083 214.818985 
z
" style="fill:#00876c;"/>
   </g>
   <g id="patch_25">
    <path clip-path="url(#p9c199192c5)" d="M 1029.39375 504.72 
L 1050.050694 504.72 
L 1050.050694 213.656913 
L 1029.39375 213.656913 
z
" style="fill:#00876c;"/>
   </g>
   <g id="patch_26">
    <path clip-path="url(#p9c199192c5)" d="M 1153.335417 504.72 
L 1173.992361 504.72 
L 1173.992361 211.322485 
L 1153.335417 211.322485 
z
" style="fill:#00876c;"/>
   </g>
   <g id="patch_27">
    <path clip-path="url(#p9c199192c5)" d="M 1277.277083 504.72 
L 1297.934028 504.72 
L 1297.934028 201.779096 
L 1277.277083 201.779096 
z
" style="fill:#00876c;"/>
   </g>
   <g id="patch_28">
    <path clip-path="url(#p9c199192c5)" d="M 926.109028 504.72 
L 946.765972 504.72 
L 946.765972 126.357526 
L 926.109028 126.357526 
z
" style="fill:#e79053;"/>
   </g>
   <g id="patch_29">
    <path clip-path="url(#p9c199192c5)" d="M 1050.050694 504.72 
L 1070.707639 504.72 
L 1070.707639 191.392433 
L 1050.050694 191.392433 
z
" style="fill:#e79053;"/>
   </g>
   <g id="patch_30">
    <path clip-path="url(#p9c199192c5)" d="M 1173.992361 504.72 
L 1194.649306 504.72 
L 1194.649306 200.442198 
L 1173.992361 200.442198 
z
" style="fill:#e79053;"/>
   </g>
   <g id="patch_31">
    <path clip-path="url(#p9c199192c5)" d="M 1297.934028 504.72 
L 1318.590972 504.72 
L 1318.590972 263.913964 
L 1297.934028 263.913964 
z
" style="fill:#e79053;"/>
   </g>
   <g id="patch_32">
    <path clip-path="url(#p9c199192c5)" d="M 946.765972 504.72 
L 967.422917 504.72 
L 967.422917 206.694764 
L 946.765972 206.694764 
z
" style="fill:#7dc9e1;"/>
   </g>
   <g id="patch_33">
    <path clip-path="url(#p9c199192c5)" d="M 1070.707639 504.72 
L 1091.364583 504.72 
L 1091.364583 206.591926 
L 1070.707639 206.591926 
z
" style="fill:#7dc9e1;"/>
   </g>
   <g id="patch_34">
    <path clip-path="url(#p9c199192c5)" d="M 1194.649306 504.72 
L 1215.30625 504.72 
L 1215.30625 206.694764 
L 1194.649306 206.694764 
z
" style="fill:#7dc9e1;"/>
   </g>
   <g id="patch_35">
    <path clip-path="url(#p9c199192c5)" d="M 1318.590972 504.72 
L 1339.247917 504.72 
L 1339.247917 206.591926 
L 1318.590972 206.591926 
z
" style="fill:#7dc9e1;"/>
   </g>
   <g id="matplotlib.axis_3">
    <g id="xtick_5">
     <g id="line2d_14">
      <g>
       <use style="stroke:#000000;stroke-width:0.8;" x="936.4375" xlink:href="#md3a703bef5" y="504.72"/>
      </g>
     </g>
     <g id="text_20">
      <!-- 500 -->
      <g transform="translate(943.06 557.53)rotate(-90)scale(0.24 -0.24)">
       <use xlink:href="#DejaVuSans-53"/>
       <use x="63.623047" xlink:href="#DejaVuSans-48"/>
       <use x="127.246094" xlink:href="#DejaVuSans-48"/>
      </g>
     </g>
    </g>
    <g id="xtick_6">
     <g id="line2d_15">
      <g>
       <use style="stroke:#000000;stroke-width:0.8;" x="1060.379167" xlink:href="#md3a703bef5" y="504.72"/>
      </g>
     </g>
     <g id="text_21">
      <!-- 750 -->
      <g transform="translate(1067.001667 557.53)rotate(-90)scale(0.24 -0.24)">
       <use xlink:href="#DejaVuSans-55"/>
       <use x="63.623047" xlink:href="#DejaVuSans-53"/>
       <use x="127.246094" xlink:href="#DejaVuSans-48"/>
      </g>
     </g>
    </g>
    <g id="xtick_7">
     <g id="line2d_16">
      <g>
       <use style="stroke:#000000;stroke-width:0.8;" x="1184.320833" xlink:href="#md3a703bef5" y="504.72"/>
      </g>
     </g>
     <g id="text_22">
      <!-- 1000 -->
      <g transform="translate(1190.943333 572.8)rotate(-90)scale(0.24 -0.24)">
       <use xlink:href="#DejaVuSans-49"/>
       <use x="63.623047" xlink:href="#DejaVuSans-48"/>
       <use x="127.246094" xlink:href="#DejaVuSans-48"/>
       <use x="190.869141" xlink:href="#DejaVuSans-48"/>
      </g>
     </g>
    </g>
    <g id="xtick_8">
     <g id="line2d_17">
      <g>
       <use style="stroke:#000000;stroke-width:0.8;" x="1308.2625" xlink:href="#md3a703bef5" y="504.72"/>
      </g>
     </g>
     <g id="text_23">
      <!-- 1500 -->
      <g transform="translate(1314.885 572.8)rotate(-90)scale(0.24 -0.24)">
       <use xlink:href="#DejaVuSans-49"/>
       <use x="63.623047" xlink:href="#DejaVuSans-53"/>
       <use x="127.246094" xlink:href="#DejaVuSans-48"/>
       <use x="190.869141" xlink:href="#DejaVuSans-48"/>
      </g>
     </g>
    </g>
    <g id="text_24">
     <!-- network size -->
     <g transform="translate(1046.538125 595.03625)scale(0.24 -0.24)">
      <use xlink:href="#DejaVuSans-110"/>
      <use x="63.378906" xlink:href="#DejaVuSans-101"/>
      <use x="124.902344" xlink:href="#DejaVuSans-116"/>
      <use x="164.111328" xlink:href="#DejaVuSans-119"/>
      <use x="245.898438" xlink:href="#DejaVuSans-111"/>
      <use x="307.080078" xlink:href="#DejaVuSans-114"/>
      <use x="348.193359" xlink:href="#DejaVuSans-107"/>
      <use x="406.103516" xlink:href="#DejaVuSans-32"/>
      <use x="437.890625" xlink:href="#DejaVuSans-115"/>
      <use x="489.990234" xlink:href="#DejaVuSans-105"/>
      <use x="517.773438" xlink:href="#DejaVuSans-122"/>
      <use x="570.263672" xlink:href="#DejaVuSans-101"/>
     </g>
    </g>
   </g>
   <g id="matplotlib.axis_4">
    <g id="ytick_10">
     <g id="line2d_18">
      <g>
       <use style="stroke:#000000;stroke-width:0.8;" x="874.466667" xlink:href="#m7e7ddb769b" y="504.72"/>
      </g>
     </g>
     <g id="text_25">
      <!-- 0.0 -->
      <g transform="translate(829.299167 513.838125)scale(0.24 -0.24)">
       <defs>
        <path d="M 10.6875 12.40625 
L 21 12.40625 
L 21 0 
L 10.6875 0 
z
" id="DejaVuSans-46"/>
       </defs>
       <use xlink:href="#DejaVuSans-48"/>
       <use x="63.623047" xlink:href="#DejaVuSans-46"/>
       <use x="95.410156" xlink:href="#DejaVuSans-48"/>
      </g>
     </g>
    </g>
    <g id="ytick_11">
     <g id="line2d_19">
      <g>
       <use style="stroke:#000000;stroke-width:0.8;" x="874.466667" xlink:href="#m7e7ddb769b" y="453.300877"/>
      </g>
     </g>
     <g id="text_26">
      <!-- 0.5 -->
      <g transform="translate(829.299167 462.419002)scale(0.24 -0.24)">
       <use xlink:href="#DejaVuSans-48"/>
       <use x="63.623047" xlink:href="#DejaVuSans-46"/>
       <use x="95.410156" xlink:href="#DejaVuSans-53"/>
      </g>
     </g>
    </g>
    <g id="ytick_12">
     <g id="line2d_20">
      <g>
       <use style="stroke:#000000;stroke-width:0.8;" x="874.466667" xlink:href="#m7e7ddb769b" y="401.881754"/>
      </g>
     </g>
     <g id="text_27">
      <!-- 1.0 -->
      <g transform="translate(829.299167 410.999879)scale(0.24 -0.24)">
       <use xlink:href="#DejaVuSans-49"/>
       <use x="63.623047" xlink:href="#DejaVuSans-46"/>
       <use x="95.410156" xlink:href="#DejaVuSans-48"/>
      </g>
     </g>
    </g>
    <g id="ytick_13">
     <g id="line2d_21">
      <g>
       <use style="stroke:#000000;stroke-width:0.8;" x="874.466667" xlink:href="#m7e7ddb769b" y="350.462631"/>
      </g>
     </g>
     <g id="text_28">
      <!-- 1.5 -->
      <g transform="translate(829.299167 359.580756)scale(0.24 -0.24)">
       <use xlink:href="#DejaVuSans-49"/>
       <use x="63.623047" xlink:href="#DejaVuSans-46"/>
       <use x="95.410156" xlink:href="#DejaVuSans-53"/>
      </g>
     </g>
    </g>
    <g id="ytick_14">
     <g id="line2d_22">
      <g>
       <use style="stroke:#000000;stroke-width:0.8;" x="874.466667" xlink:href="#m7e7ddb769b" y="299.043509"/>
      </g>
     </g>
     <g id="text_29">
      <!-- 2.0 -->
      <g transform="translate(829.299167 308.161634)scale(0.24 -0.24)">
       <use xlink:href="#DejaVuSans-50"/>
       <use x="63.623047" xlink:href="#DejaVuSans-46"/>
       <use x="95.410156" xlink:href="#DejaVuSans-48"/>
      </g>
     </g>
    </g>
    <g id="ytick_15">
     <g id="line2d_23">
      <g>
       <use style="stroke:#000000;stroke-width:0.8;" x="874.466667" xlink:href="#m7e7ddb769b" y="247.624386"/>
      </g>
     </g>
     <g id="text_30">
      <!-- 2.5 -->
      <g transform="translate(829.299167 256.742511)scale(0.24 -0.24)">
       <use xlink:href="#DejaVuSans-50"/>
       <use x="63.623047" xlink:href="#DejaVuSans-46"/>
       <use x="95.410156" xlink:href="#DejaVuSans-53"/>
      </g>
     </g>
    </g>
    <g id="ytick_16">
     <g id="line2d_24">
      <g>
       <use style="stroke:#000000;stroke-width:0.8;" x="874.466667" xlink:href="#m7e7ddb769b" y="196.205263"/>
      </g>
     </g>
     <g id="text_31">
      <!-- 3.0 -->
      <g transform="translate(829.299167 205.323388)scale(0.24 -0.24)">
       <defs>
        <path d="M 40.578125 39.3125 
Q 47.65625 37.796875 51.625 33 
Q 55.609375 28.21875 55.609375 21.1875 
Q 55.609375 10.40625 48.1875 4.484375 
Q 40.765625 -1.421875 27.09375 -1.421875 
Q 22.515625 -1.421875 17.65625 -0.515625 
Q 12.796875 0.390625 7.625 2.203125 
L 7.625 11.71875 
Q 11.71875 9.328125 16.59375 8.109375 
Q 21.484375 6.890625 26.8125 6.890625 
Q 36.078125 6.890625 40.9375 10.546875 
Q 45.796875 14.203125 45.796875 21.1875 
Q 45.796875 27.640625 41.28125 31.265625 
Q 36.765625 34.90625 28.71875 34.90625 
L 20.21875 34.90625 
L 20.21875 43.015625 
L 29.109375 43.015625 
Q 36.375 43.015625 40.234375 45.921875 
Q 44.09375 48.828125 44.09375 54.296875 
Q 44.09375 59.90625 40.109375 62.90625 
Q 36.140625 65.921875 28.71875 65.921875 
Q 24.65625 65.921875 20.015625 65.03125 
Q 15.375 64.15625 9.8125 62.3125 
L 9.8125 71.09375 
Q 15.4375 72.65625 20.34375 73.4375 
Q 25.25 74.21875 29.59375 74.21875 
Q 40.828125 74.21875 47.359375 69.109375 
Q 53.90625 64.015625 53.90625 55.328125 
Q 53.90625 49.265625 50.4375 45.09375 
Q 46.96875 40.921875 40.578125 39.3125 
z
" id="DejaVuSans-51"/>
       </defs>
       <use xlink:href="#DejaVuSans-51"/>
       <use x="63.623047" xlink:href="#DejaVuSans-46"/>
       <use x="95.410156" xlink:href="#DejaVuSans-48"/>
      </g>
     </g>
    </g>
    <g id="ytick_17">
     <g id="line2d_25">
      <g>
       <use style="stroke:#000000;stroke-width:0.8;" x="874.466667" xlink:href="#m7e7ddb769b" y="144.78614"/>
      </g>
     </g>
     <g id="text_32">
      <!-- 3.5 -->
      <g transform="translate(829.299167 153.904265)scale(0.24 -0.24)">
       <use xlink:href="#DejaVuSans-51"/>
       <use x="63.623047" xlink:href="#DejaVuSans-46"/>
       <use x="95.410156" xlink:href="#DejaVuSans-53"/>
      </g>
     </g>
    </g>
    <g id="ytick_18">
     <g id="line2d_26">
      <g>
       <use style="stroke:#000000;stroke-width:0.8;" x="874.466667" xlink:href="#m7e7ddb769b" y="93.367017"/>
      </g>
     </g>
     <g id="text_33">
      <!-- 4.0 -->
      <g transform="translate(829.299167 102.485142)scale(0.24 -0.24)">
       <use xlink:href="#DejaVuSans-52"/>
       <use x="63.623047" xlink:href="#DejaVuSans-46"/>
       <use x="95.410156" xlink:href="#DejaVuSans-48"/>
      </g>
     </g>
    </g>
    <g id="text_34">
     <!-- average links per node -->
     <g transform="translate(820.307917 415.441875)rotate(-90)scale(0.24 -0.24)">
      <defs>
       <path d="M 2.984375 54.6875 
L 12.5 54.6875 
L 29.59375 8.796875 
L 46.6875 54.6875 
L 56.203125 54.6875 
L 35.6875 0 
L 23.484375 0 
z
" id="DejaVuSans-118"/>
       <path d="M 9.421875 75.984375 
L 18.40625 75.984375 
L 18.40625 0 
L 9.421875 0 
z
" id="DejaVuSans-108"/>
      </defs>
      <use xlink:href="#DejaVuSans-97"/>
      <use x="61.279297" xlink:href="#DejaVuSans-118"/>
      <use x="120.458984" xlink:href="#DejaVuSans-101"/>
      <use x="181.982422" xlink:href="#DejaVuSans-114"/>
      <use x="223.095703" xlink:href="#DejaVuSans-97"/>
      <use x="284.375" xlink:href="#DejaVuSans-103"/>
      <use x="347.851562" xlink:href="#DejaVuSans-101"/>
      <use x="409.375" xlink:href="#DejaVuSans-32"/>
      <use x="441.162109" xlink:href="#DejaVuSans-108"/>
      <use x="468.945312" xlink:href="#DejaVuSans-105"/>
      <use x="496.728516" xlink:href="#DejaVuSans-110"/>
      <use x="560.107422" xlink:href="#DejaVuSans-107"/>
      <use x="618.017578" xlink:href="#DejaVuSans-115"/>
      <use x="670.117188" xlink:href="#DejaVuSans-32"/>
      <use x="701.904297" xlink:href="#DejaVuSans-112"/>
      <use x="765.380859" xlink:href="#DejaVuSans-101"/>
      <use x="826.904297" xlink:href="#DejaVuSans-114"/>
      <use x="868.017578" xlink:href="#DejaVuSans-32"/>
      <use x="899.804688" xlink:href="#DejaVuSans-110"/>
      <use x="963.183594" xlink:href="#DejaVuSans-111"/>
      <use x="1024.365234" xlink:href="#DejaVuSans-100"/>
      <use x="1087.841797" xlink:href="#DejaVuSans-101"/>
     </g>
    </g>
   </g>
   <g id="LineCollection_4">
    <path clip-path="url(#p9c199192c5)" d="M 915.780556 219.697032 
L 915.780556 209.940939 
" style="fill:none;stroke:#000000;stroke-width:1.5;"/>
    <path clip-path="url(#p9c199192c5)" d="M 1039.722222 219.120594 
L 1039.722222 208.193232 
" style="fill:none;stroke:#000000;stroke-width:1.5;"/>
    <path clip-path="url(#p9c199192c5)" d="M 1163.663889 218.910557 
L 1163.663889 203.734413 
" style="fill:none;stroke:#000000;stroke-width:1.5;"/>
    <path clip-path="url(#p9c199192c5)" d="M 1287.605556 205.390266 
L 1287.605556 198.167926 
" style="fill:none;stroke:#000000;stroke-width:1.5;"/>
   </g>
   <g id="LineCollection_5">
    <path clip-path="url(#p9c199192c5)" d="M 936.4375 180.766481 
L 936.4375 71.948571 
" style="fill:none;stroke:#000000;stroke-width:1.5;"/>
    <path clip-path="url(#p9c199192c5)" d="M 1060.379167 230.048209 
L 1060.379167 152.736656 
" style="fill:none;stroke:#000000;stroke-width:1.5;"/>
    <path clip-path="url(#p9c199192c5)" d="M 1184.320833 225.96749 
L 1184.320833 174.916907 
" style="fill:none;stroke:#000000;stroke-width:1.5;"/>
    <path clip-path="url(#p9c199192c5)" d="M 1308.2625 292.662366 
L 1308.2625 235.165561 
" style="fill:none;stroke:#000000;stroke-width:1.5;"/>
   </g>
   <g id="LineCollection_6">
    <path clip-path="url(#p9c199192c5)" d="M 957.094444 206.694764 
L 957.094444 206.694764 
" style="fill:none;stroke:#000000;stroke-width:1.5;"/>
    <path clip-path="url(#p9c199192c5)" d="M 1081.036111 206.591926 
L 1081.036111 206.591926 
" style="fill:none;stroke:#000000;stroke-width:1.5;"/>
    <path clip-path="url(#p9c199192c5)" d="M 1204.977778 206.694764 
L 1204.977778 206.694764 
" style="fill:none;stroke:#000000;stroke-width:1.5;"/>
    <path clip-path="url(#p9c199192c5)" d="M 1328.919444 206.591926 
L 1328.919444 206.591926 
" style="fill:none;stroke:#000000;stroke-width:1.5;"/>
   </g>
   <g id="patch_36">
    <path d="M 874.466667 504.72 
L 874.466667 50.31 
" style="fill:none;stroke:#000000;stroke-linecap:square;stroke-linejoin:miter;stroke-width:0.8;"/>
   </g>
   <g id="patch_37">
    <path d="M 1370.233333 504.72 
L 1370.233333 50.31 
" style="fill:none;stroke:#000000;stroke-linecap:square;stroke-linejoin:miter;stroke-width:0.8;"/>
   </g>
   <g id="patch_38">
    <path d="M 874.466667 504.72 
L 1370.233333 504.72 
" style="fill:none;stroke:#000000;stroke-linecap:square;stroke-linejoin:miter;stroke-width:0.8;"/>
   </g>
   <g id="patch_39">
    <path d="M 874.466667 50.31 
L 1370.233333 50.31 
" style="fill:none;stroke:#000000;stroke-linecap:square;stroke-linejoin:miter;stroke-width:0.8;"/>
   </g>
   <g id="text_35">
    <!-- Sparsity -->
    <g transform="translate(1063.652 44.31)scale(0.288 -0.288)">
     <defs>
      <path d="M 53.515625 70.515625 
L 53.515625 60.890625 
Q 47.90625 63.578125 42.921875 64.890625 
Q 37.9375 66.21875 33.296875 66.21875 
Q 25.25 66.21875 20.875 63.09375 
Q 16.5 59.96875 16.5 54.203125 
Q 16.5 49.359375 19.40625 46.890625 
Q 22.3125 44.4375 30.421875 42.921875 
L 36.375 41.703125 
Q 47.40625 39.59375 52.65625 34.296875 
Q 57.90625 29 57.90625 20.125 
Q 57.90625 9.515625 50.796875 4.046875 
Q 43.703125 -1.421875 29.984375 -1.421875 
Q 24.8125 -1.421875 18.96875 -0.25 
Q 13.140625 0.921875 6.890625 3.21875 
L 6.890625 13.375 
Q 12.890625 10.015625 18.65625 8.296875 
Q 24.421875 6.59375 29.984375 6.59375 
Q 38.421875 6.59375 43.015625 9.90625 
Q 47.609375 13.234375 47.609375 19.390625 
Q 47.609375 24.75 44.3125 27.78125 
Q 41.015625 30.8125 33.5 32.328125 
L 27.484375 33.5 
Q 16.453125 35.6875 11.515625 40.375 
Q 6.59375 45.0625 6.59375 53.421875 
Q 6.59375 63.09375 13.40625 68.65625 
Q 20.21875 74.21875 32.171875 74.21875 
Q 37.3125 74.21875 42.625 73.28125 
Q 47.953125 72.359375 53.515625 70.515625 
z
" id="DejaVuSans-83"/>
      <path d="M 32.171875 -5.078125 
Q 28.375 -14.84375 24.75 -17.8125 
Q 21.140625 -20.796875 15.09375 -20.796875 
L 7.90625 -20.796875 
L 7.90625 -13.28125 
L 13.1875 -13.28125 
Q 16.890625 -13.28125 18.9375 -11.515625 
Q 21 -9.765625 23.484375 -3.21875 
L 25.09375 0.875 
L 2.984375 54.6875 
L 12.5 54.6875 
L 29.59375 11.921875 
L 46.6875 54.6875 
L 56.203125 54.6875 
z
" id="DejaVuSans-121"/>
     </defs>
     <use xlink:href="#DejaVuSans-83"/>
     <use x="63.476562" xlink:href="#DejaVuSans-112"/>
     <use x="126.953125" xlink:href="#DejaVuSans-97"/>
     <use x="188.232422" xlink:href="#DejaVuSans-114"/>
     <use x="229.345703" xlink:href="#DejaVuSans-115"/>
     <use x="281.445312" xlink:href="#DejaVuSans-105"/>
     <use x="309.228516" xlink:href="#DejaVuSans-116"/>
     <use x="348.4375" xlink:href="#DejaVuSans-121"/>
    </g>
   </g>
  </g>
  <g id="axes_3">
   <g id="patch_40">
    <path d="M 157.266667 1148.94 
L 653.033333 1148.94 
L 653.033333 694.53 
L 157.266667 694.53 
z
" style="fill:#ffffff;"/>
   </g>
   <g id="patch_41">
    <path clip-path="url(#pde3ab46b3f)" d="M 188.252083 1148.94 
L 208.909028 1148.94 
L 208.909028 895.037771 
L 188.252083 895.037771 
z
" style="fill:#00876c;"/>
   </g>
   <g id="patch_42">
    <path clip-path="url(#pde3ab46b3f)" d="M 312.19375 1148.94 
L 332.850694 1148.94 
L 332.850694 900.402493 
L 312.19375 900.402493 
z
" style="fill:#00876c;"/>
   </g>
   <g id="patch_43">
    <path clip-path="url(#pde3ab46b3f)" d="M 436.135417 1148.94 
L 456.792361 1148.94 
L 456.792361 898.851753 
L 436.135417 898.851753 
z
" style="fill:#00876c;"/>
   </g>
   <g id="patch_44">
    <path clip-path="url(#pde3ab46b3f)" d="M 560.077083 1148.94 
L 580.734028 1148.94 
L 580.734028 879.949491 
L 560.077083 879.949491 
z
" style="fill:#00876c;"/>
   </g>
   <g id="patch_45">
    <path clip-path="url(#pde3ab46b3f)" d="M 208.909028 1148.94 
L 229.565972 1148.94 
L 229.565972 772.173066 
L 208.909028 772.173066 
z
" style="fill:#e79053;"/>
   </g>
   <g id="patch_46">
    <path clip-path="url(#pde3ab46b3f)" d="M 332.850694 1148.94 
L 353.507639 1148.94 
L 353.507639 838.771059 
L 332.850694 838.771059 
z
" style="fill:#e79053;"/>
   </g>
   <g id="patch_47">
    <path clip-path="url(#pde3ab46b3f)" d="M 456.792361 1148.94 
L 477.449306 1148.94 
L 477.449306 850.380652 
L 456.792361 850.380652 
z
" style="fill:#e79053;"/>
   </g>
   <g id="patch_48">
    <path clip-path="url(#pde3ab46b3f)" d="M 580.734028 1148.94 
L 601.390972 1148.94 
L 601.390972 912.137822 
L 580.734028 912.137822 
z
" style="fill:#e79053;"/>
   </g>
   <g id="patch_49">
    <path clip-path="url(#pde3ab46b3f)" d="M 229.565972 1148.94 
L 250.222917 1148.94 
L 250.222917 867.39688 
L 229.565972 867.39688 
z
" style="fill:#7dc9e1;"/>
   </g>
   <g id="patch_50">
    <path clip-path="url(#pde3ab46b3f)" d="M 353.507639 1148.94 
L 374.164583 1148.94 
L 374.164583 866.349082 
L 353.507639 866.349082 
z
" style="fill:#7dc9e1;"/>
   </g>
   <g id="patch_51">
    <path clip-path="url(#pde3ab46b3f)" d="M 477.449306 1148.94 
L 498.10625 1148.94 
L 498.10625 865.049814 
L 477.449306 865.049814 
z
" style="fill:#7dc9e1;"/>
   </g>
   <g id="patch_52">
    <path clip-path="url(#pde3ab46b3f)" d="M 601.390972 1148.94 
L 622.047917 1148.94 
L 622.047917 867.08254 
L 601.390972 867.08254 
z
" style="fill:#7dc9e1;"/>
   </g>
   <g id="matplotlib.axis_5">
    <g id="xtick_9">
     <g id="line2d_27">
      <g>
       <use style="stroke:#000000;stroke-width:0.8;" x="219.2375" xlink:href="#md3a703bef5" y="1148.94"/>
      </g>
     </g>
     <g id="text_36">
      <!-- 500 -->
      <g transform="translate(225.86 1201.75)rotate(-90)scale(0.24 -0.24)">
       <use xlink:href="#DejaVuSans-53"/>
       <use x="63.623047" xlink:href="#DejaVuSans-48"/>
       <use x="127.246094" xlink:href="#DejaVuSans-48"/>
      </g>
     </g>
    </g>
    <g id="xtick_10">
     <g id="line2d_28">
      <g>
       <use style="stroke:#000000;stroke-width:0.8;" x="343.179167" xlink:href="#md3a703bef5" y="1148.94"/>
      </g>
     </g>
     <g id="text_37">
      <!-- 750 -->
      <g transform="translate(349.801667 1201.75)rotate(-90)scale(0.24 -0.24)">
       <use xlink:href="#DejaVuSans-55"/>
       <use x="63.623047" xlink:href="#DejaVuSans-53"/>
       <use x="127.246094" xlink:href="#DejaVuSans-48"/>
      </g>
     </g>
    </g>
    <g id="xtick_11">
     <g id="line2d_29">
      <g>
       <use style="stroke:#000000;stroke-width:0.8;" x="467.120833" xlink:href="#md3a703bef5" y="1148.94"/>
      </g>
     </g>
     <g id="text_38">
      <!-- 1000 -->
      <g transform="translate(473.743333 1217.02)rotate(-90)scale(0.24 -0.24)">
       <use xlink:href="#DejaVuSans-49"/>
       <use x="63.623047" xlink:href="#DejaVuSans-48"/>
       <use x="127.246094" xlink:href="#DejaVuSans-48"/>
       <use x="190.869141" xlink:href="#DejaVuSans-48"/>
      </g>
     </g>
    </g>
    <g id="xtick_12">
     <g id="line2d_30">
      <g>
       <use style="stroke:#000000;stroke-width:0.8;" x="591.0625" xlink:href="#md3a703bef5" y="1148.94"/>
      </g>
     </g>
     <g id="text_39">
      <!-- 1500 -->
      <g transform="translate(597.685 1217.02)rotate(-90)scale(0.24 -0.24)">
       <use xlink:href="#DejaVuSans-49"/>
       <use x="63.623047" xlink:href="#DejaVuSans-53"/>
       <use x="127.246094" xlink:href="#DejaVuSans-48"/>
       <use x="190.869141" xlink:href="#DejaVuSans-48"/>
      </g>
     </g>
    </g>
    <g id="text_40">
     <!-- network size -->
     <g transform="translate(329.338125 1239.25625)scale(0.24 -0.24)">
      <use xlink:href="#DejaVuSans-110"/>
      <use x="63.378906" xlink:href="#DejaVuSans-101"/>
      <use x="124.902344" xlink:href="#DejaVuSans-116"/>
      <use x="164.111328" xlink:href="#DejaVuSans-119"/>
      <use x="245.898438" xlink:href="#DejaVuSans-111"/>
      <use x="307.080078" xlink:href="#DejaVuSans-114"/>
      <use x="348.193359" xlink:href="#DejaVuSans-107"/>
      <use x="406.103516" xlink:href="#DejaVuSans-32"/>
      <use x="437.890625" xlink:href="#DejaVuSans-115"/>
      <use x="489.990234" xlink:href="#DejaVuSans-105"/>
      <use x="517.773438" xlink:href="#DejaVuSans-122"/>
      <use x="570.263672" xlink:href="#DejaVuSans-101"/>
     </g>
    </g>
   </g>
   <g id="matplotlib.axis_6">
    <g id="ytick_19">
     <g id="line2d_31">
      <g>
       <use style="stroke:#000000;stroke-width:0.8;" x="157.266667" xlink:href="#m7e7ddb769b" y="1148.94"/>
      </g>
     </g>
     <g id="text_41">
      <!-- 0.00 -->
      <g transform="translate(96.829167 1158.058125)scale(0.24 -0.24)">
       <use xlink:href="#DejaVuSans-48"/>
       <use x="63.623047" xlink:href="#DejaVuSans-46"/>
       <use x="95.410156" xlink:href="#DejaVuSans-48"/>
       <use x="159.033203" xlink:href="#DejaVuSans-48"/>
      </g>
     </g>
    </g>
    <g id="ytick_20">
     <g id="line2d_32">
      <g>
       <use style="stroke:#000000;stroke-width:0.8;" x="157.266667" xlink:href="#m7e7ddb769b" y="1096.550138"/>
      </g>
     </g>
     <g id="text_42">
      <!-- 0.25 -->
      <g transform="translate(96.829167 1105.668263)scale(0.24 -0.24)">
       <use xlink:href="#DejaVuSans-48"/>
       <use x="63.623047" xlink:href="#DejaVuSans-46"/>
       <use x="95.410156" xlink:href="#DejaVuSans-50"/>
       <use x="159.033203" xlink:href="#DejaVuSans-53"/>
      </g>
     </g>
    </g>
    <g id="ytick_21">
     <g id="line2d_33">
      <g>
       <use style="stroke:#000000;stroke-width:0.8;" x="157.266667" xlink:href="#m7e7ddb769b" y="1044.160275"/>
      </g>
     </g>
     <g id="text_43">
      <!-- 0.50 -->
      <g transform="translate(96.829167 1053.2784)scale(0.24 -0.24)">
       <use xlink:href="#DejaVuSans-48"/>
       <use x="63.623047" xlink:href="#DejaVuSans-46"/>
       <use x="95.410156" xlink:href="#DejaVuSans-53"/>
       <use x="159.033203" xlink:href="#DejaVuSans-48"/>
      </g>
     </g>
    </g>
    <g id="ytick_22">
     <g id="line2d_34">
      <g>
       <use style="stroke:#000000;stroke-width:0.8;" x="157.266667" xlink:href="#m7e7ddb769b" y="991.770413"/>
      </g>
     </g>
     <g id="text_44">
      <!-- 0.75 -->
      <g transform="translate(96.829167 1000.888538)scale(0.24 -0.24)">
       <use xlink:href="#DejaVuSans-48"/>
       <use x="63.623047" xlink:href="#DejaVuSans-46"/>
       <use x="95.410156" xlink:href="#DejaVuSans-55"/>
       <use x="159.033203" xlink:href="#DejaVuSans-53"/>
      </g>
     </g>
    </g>
    <g id="ytick_23">
     <g id="line2d_35">
      <g>
       <use style="stroke:#000000;stroke-width:0.8;" x="157.266667" xlink:href="#m7e7ddb769b" y="939.380551"/>
      </g>
     </g>
     <g id="text_45">
      <!-- 1.00 -->
      <g transform="translate(96.829167 948.498676)scale(0.24 -0.24)">
       <use xlink:href="#DejaVuSans-49"/>
       <use x="63.623047" xlink:href="#DejaVuSans-46"/>
       <use x="95.410156" xlink:href="#DejaVuSans-48"/>
       <use x="159.033203" xlink:href="#DejaVuSans-48"/>
      </g>
     </g>
    </g>
    <g id="ytick_24">
     <g id="line2d_36">
      <g>
       <use style="stroke:#000000;stroke-width:0.8;" x="157.266667" xlink:href="#m7e7ddb769b" y="886.990688"/>
      </g>
     </g>
     <g id="text_46">
      <!-- 1.25 -->
      <g transform="translate(96.829167 896.108813)scale(0.24 -0.24)">
       <use xlink:href="#DejaVuSans-49"/>
       <use x="63.623047" xlink:href="#DejaVuSans-46"/>
       <use x="95.410156" xlink:href="#DejaVuSans-50"/>
       <use x="159.033203" xlink:href="#DejaVuSans-53"/>
      </g>
     </g>
    </g>
    <g id="ytick_25">
     <g id="line2d_37">
      <g>
       <use style="stroke:#000000;stroke-width:0.8;" x="157.266667" xlink:href="#m7e7ddb769b" y="834.600826"/>
      </g>
     </g>
     <g id="text_47">
      <!-- 1.50 -->
      <g transform="translate(96.829167 843.718951)scale(0.24 -0.24)">
       <use xlink:href="#DejaVuSans-49"/>
       <use x="63.623047" xlink:href="#DejaVuSans-46"/>
       <use x="95.410156" xlink:href="#DejaVuSans-53"/>
       <use x="159.033203" xlink:href="#DejaVuSans-48"/>
      </g>
     </g>
    </g>
    <g id="ytick_26">
     <g id="line2d_38">
      <g>
       <use style="stroke:#000000;stroke-width:0.8;" x="157.266667" xlink:href="#m7e7ddb769b" y="782.210963"/>
      </g>
     </g>
     <g id="text_48">
      <!-- 1.75 -->
      <g transform="translate(96.829167 791.329088)scale(0.24 -0.24)">
       <use xlink:href="#DejaVuSans-49"/>
       <use x="63.623047" xlink:href="#DejaVuSans-46"/>
       <use x="95.410156" xlink:href="#DejaVuSans-55"/>
       <use x="159.033203" xlink:href="#DejaVuSans-53"/>
      </g>
     </g>
    </g>
    <g id="ytick_27">
     <g id="line2d_39">
      <g>
       <use style="stroke:#000000;stroke-width:0.8;" x="157.266667" xlink:href="#m7e7ddb769b" y="729.821101"/>
      </g>
     </g>
     <g id="text_49">
      <!-- 2.00 -->
      <g transform="translate(96.829167 738.939226)scale(0.24 -0.24)">
       <use xlink:href="#DejaVuSans-50"/>
       <use x="63.623047" xlink:href="#DejaVuSans-46"/>
       <use x="95.410156" xlink:href="#DejaVuSans-48"/>
       <use x="159.033203" xlink:href="#DejaVuSans-48"/>
      </g>
     </g>
    </g>
    <g id="text_50">
     <!-- average in-degree per node -->
     <g transform="translate(87.837917 1089.508125)rotate(-90)scale(0.24 -0.24)">
      <use xlink:href="#DejaVuSans-97"/>
      <use x="61.279297" xlink:href="#DejaVuSans-118"/>
      <use x="120.458984" xlink:href="#DejaVuSans-101"/>
      <use x="181.982422" xlink:href="#DejaVuSans-114"/>
      <use x="223.095703" xlink:href="#DejaVuSans-97"/>
      <use x="284.375" xlink:href="#DejaVuSans-103"/>
      <use x="347.851562" xlink:href="#DejaVuSans-101"/>
      <use x="409.375" xlink:href="#DejaVuSans-32"/>
      <use x="441.162109" xlink:href="#DejaVuSans-105"/>
      <use x="468.945312" xlink:href="#DejaVuSans-110"/>
      <use x="532.324219" xlink:href="#DejaVuSans-45"/>
      <use x="568.408203" xlink:href="#DejaVuSans-100"/>
      <use x="631.884766" xlink:href="#DejaVuSans-101"/>
      <use x="693.408203" xlink:href="#DejaVuSans-103"/>
      <use x="756.884766" xlink:href="#DejaVuSans-114"/>
      <use x="795.748047" xlink:href="#DejaVuSans-101"/>
      <use x="857.271484" xlink:href="#DejaVuSans-101"/>
      <use x="918.794922" xlink:href="#DejaVuSans-32"/>
      <use x="950.582031" xlink:href="#DejaVuSans-112"/>
      <use x="1014.058594" xlink:href="#DejaVuSans-101"/>
      <use x="1075.582031" xlink:href="#DejaVuSans-114"/>
      <use x="1116.695312" xlink:href="#DejaVuSans-32"/>
      <use x="1148.482422" xlink:href="#DejaVuSans-110"/>
      <use x="1211.861328" xlink:href="#DejaVuSans-111"/>
      <use x="1273.042969" xlink:href="#DejaVuSans-100"/>
      <use x="1336.519531" xlink:href="#DejaVuSans-101"/>
     </g>
    </g>
   </g>
   <g id="LineCollection_7">
    <path clip-path="url(#pde3ab46b3f)" d="M 198.580556 897.423438 
L 198.580556 892.652104 
" style="fill:none;stroke:#000000;stroke-width:1.5;"/>
    <path clip-path="url(#pde3ab46b3f)" d="M 322.522222 911.454312 
L 322.522222 889.350674 
" style="fill:none;stroke:#000000;stroke-width:1.5;"/>
    <path clip-path="url(#pde3ab46b3f)" d="M 446.463889 903.44637 
L 446.463889 894.257136 
" style="fill:none;stroke:#000000;stroke-width:1.5;"/>
    <path clip-path="url(#pde3ab46b3f)" d="M 570.405556 884.386348 
L 570.405556 875.512633 
" style="fill:none;stroke:#000000;stroke-width:1.5;"/>
   </g>
   <g id="LineCollection_8">
    <path clip-path="url(#pde3ab46b3f)" d="M 219.2375 828.17756 
L 219.2375 716.168571 
" style="fill:none;stroke:#000000;stroke-width:1.5;"/>
    <path clip-path="url(#pde3ab46b3f)" d="M 343.179167 879.066997 
L 343.179167 798.47512 
" style="fill:none;stroke:#000000;stroke-width:1.5;"/>
    <path clip-path="url(#pde3ab46b3f)" d="M 467.120833 876.346685 
L 467.120833 824.41462 
" style="fill:none;stroke:#000000;stroke-width:1.5;"/>
    <path clip-path="url(#pde3ab46b3f)" d="M 591.0625 939.989351 
L 591.0625 884.286293 
" style="fill:none;stroke:#000000;stroke-width:1.5;"/>
   </g>
   <g id="LineCollection_9">
    <path clip-path="url(#pde3ab46b3f)" d="M 239.894444 874.020233 
L 239.894444 860.773526 
" style="fill:none;stroke:#000000;stroke-width:1.5;"/>
    <path clip-path="url(#pde3ab46b3f)" d="M 363.836111 871.008083 
L 363.836111 861.690082 
" style="fill:none;stroke:#000000;stroke-width:1.5;"/>
    <path clip-path="url(#pde3ab46b3f)" d="M 487.777778 870.651192 
L 487.777778 859.448436 
" style="fill:none;stroke:#000000;stroke-width:1.5;"/>
    <path clip-path="url(#pde3ab46b3f)" d="M 611.719444 870.714904 
L 611.719444 863.450177 
" style="fill:none;stroke:#000000;stroke-width:1.5;"/>
   </g>
   <g id="patch_53">
    <path d="M 157.266667 1148.94 
L 157.266667 694.53 
" style="fill:none;stroke:#000000;stroke-linecap:square;stroke-linejoin:miter;stroke-width:0.8;"/>
   </g>
   <g id="patch_54">
    <path d="M 653.033333 1148.94 
L 653.033333 694.53 
" style="fill:none;stroke:#000000;stroke-linecap:square;stroke-linejoin:miter;stroke-width:0.8;"/>
   </g>
   <g id="patch_55">
    <path d="M 157.266667 1148.94 
L 653.033333 1148.94 
" style="fill:none;stroke:#000000;stroke-linecap:square;stroke-linejoin:miter;stroke-width:0.8;"/>
   </g>
   <g id="patch_56">
    <path d="M 157.266667 694.53 
L 653.033333 694.53 
" style="fill:none;stroke:#000000;stroke-linecap:square;stroke-linejoin:miter;stroke-width:0.8;"/>
   </g>
   <g id="text_51">
    <!-- In-degree -->
    <g transform="translate(336.12 688.53)scale(0.288 -0.288)">
     <defs>
      <path d="M 9.8125 72.90625 
L 19.671875 72.90625 
L 19.671875 0 
L 9.8125 0 
z
" id="DejaVuSans-73"/>
     </defs>
     <use xlink:href="#DejaVuSans-73"/>
     <use x="29.492188" xlink:href="#DejaVuSans-110"/>
     <use x="92.871094" xlink:href="#DejaVuSans-45"/>
     <use x="128.955078" xlink:href="#DejaVuSans-100"/>
     <use x="192.431641" xlink:href="#DejaVuSans-101"/>
     <use x="253.955078" xlink:href="#DejaVuSans-103"/>
     <use x="317.431641" xlink:href="#DejaVuSans-114"/>
     <use x="356.294922" xlink:href="#DejaVuSans-101"/>
     <use x="417.818359" xlink:href="#DejaVuSans-101"/>
    </g>
   </g>
  </g>
  <g id="axes_4">
   <g id="patch_57">
    <path d="M 874.466667 1148.94 
L 1370.233333 1148.94 
L 1370.233333 694.53 
L 874.466667 694.53 
z
" style="fill:#ffffff;"/>
   </g>
   <g id="patch_58">
    <path clip-path="url(#p8846f65a16)" d="M 905.452083 1148.94 
L 926.109028 1148.94 
L 926.109028 824.803473 
L 905.452083 824.803473 
z
" style="fill:#00876c;"/>
   </g>
   <g id="patch_59">
    <path clip-path="url(#p8846f65a16)" d="M 1029.39375 1148.94 
L 1050.050694 1148.94 
L 1050.050694 817.382655 
L 1029.39375 817.382655 
z
" style="fill:#00876c;"/>
   </g>
   <g id="patch_60">
    <path clip-path="url(#p8846f65a16)" d="M 1153.335417 1148.94 
L 1173.992361 1148.94 
L 1173.992361 814.277203 
L 1153.335417 814.277203 
z
" style="fill:#00876c;"/>
   </g>
   <g id="patch_61">
    <path clip-path="url(#p8846f65a16)" d="M 1277.277083 1148.94 
L 1297.934028 1148.94 
L 1297.934028 813.631915 
L 1277.277083 813.631915 
z
" style="fill:#00876c;"/>
   </g>
   <g id="patch_62">
    <path clip-path="url(#p8846f65a16)" d="M 926.109028 1148.94 
L 946.765972 1148.94 
L 946.765972 769.570803 
L 926.109028 769.570803 
z
" style="fill:#e79053;"/>
   </g>
   <g id="patch_63">
    <path clip-path="url(#p8846f65a16)" d="M 1050.050694 1148.94 
L 1070.707639 1148.94 
L 1070.707639 832.970407 
L 1050.050694 832.970407 
z
" style="fill:#e79053;"/>
   </g>
   <g id="patch_64">
    <path clip-path="url(#p8846f65a16)" d="M 1173.992361 1148.94 
L 1194.649306 1148.94 
L 1194.649306 839.584615 
L 1173.992361 839.584615 
z
" style="fill:#e79053;"/>
   </g>
   <g id="patch_65">
    <path clip-path="url(#p8846f65a16)" d="M 1297.934028 1148.94 
L 1318.590972 1148.94 
L 1318.590972 904.617606 
L 1297.934028 904.617606 
z
" style="fill:#e79053;"/>
   </g>
   <g id="patch_66">
    <path clip-path="url(#p8846f65a16)" d="M 946.765972 1148.94 
L 967.422917 1148.94 
L 967.422917 835.4709 
L 946.765972 835.4709 
z
" style="fill:#7dc9e1;"/>
   </g>
   <g id="patch_67">
    <path clip-path="url(#p8846f65a16)" d="M 1070.707639 1148.94 
L 1091.364583 1148.94 
L 1091.364583 836.338007 
L 1070.707639 836.338007 
z
" style="fill:#7dc9e1;"/>
   </g>
   <g id="patch_68">
    <path clip-path="url(#p8846f65a16)" d="M 1194.649306 1148.94 
L 1215.30625 1148.94 
L 1215.30625 837.729411 
L 1194.649306 837.729411 
z
" style="fill:#7dc9e1;"/>
   </g>
   <g id="patch_69">
    <path clip-path="url(#p8846f65a16)" d="M 1318.590972 1148.94 
L 1339.247917 1148.94 
L 1339.247917 835.672553 
L 1318.590972 835.672553 
z
" style="fill:#7dc9e1;"/>
   </g>
   <g id="matplotlib.axis_7">
    <g id="xtick_13">
     <g id="line2d_40">
      <g>
       <use style="stroke:#000000;stroke-width:0.8;" x="936.4375" xlink:href="#md3a703bef5" y="1148.94"/>
      </g>
     </g>
     <g id="text_52">
      <!-- 500 -->
      <g transform="translate(943.06 1201.75)rotate(-90)scale(0.24 -0.24)">
       <use xlink:href="#DejaVuSans-53"/>
       <use x="63.623047" xlink:href="#DejaVuSans-48"/>
       <use x="127.246094" xlink:href="#DejaVuSans-48"/>
      </g>
     </g>
    </g>
    <g id="xtick_14">
     <g id="line2d_41">
      <g>
       <use style="stroke:#000000;stroke-width:0.8;" x="1060.379167" xlink:href="#md3a703bef5" y="1148.94"/>
      </g>
     </g>
     <g id="text_53">
      <!-- 750 -->
      <g transform="translate(1067.001667 1201.75)rotate(-90)scale(0.24 -0.24)">
       <use xlink:href="#DejaVuSans-55"/>
       <use x="63.623047" xlink:href="#DejaVuSans-53"/>
       <use x="127.246094" xlink:href="#DejaVuSans-48"/>
      </g>
     </g>
    </g>
    <g id="xtick_15">
     <g id="line2d_42">
      <g>
       <use style="stroke:#000000;stroke-width:0.8;" x="1184.320833" xlink:href="#md3a703bef5" y="1148.94"/>
      </g>
     </g>
     <g id="text_54">
      <!-- 1000 -->
      <g transform="translate(1190.943333 1217.02)rotate(-90)scale(0.24 -0.24)">
       <use xlink:href="#DejaVuSans-49"/>
       <use x="63.623047" xlink:href="#DejaVuSans-48"/>
       <use x="127.246094" xlink:href="#DejaVuSans-48"/>
       <use x="190.869141" xlink:href="#DejaVuSans-48"/>
      </g>
     </g>
    </g>
    <g id="xtick_16">
     <g id="line2d_43">
      <g>
       <use style="stroke:#000000;stroke-width:0.8;" x="1308.2625" xlink:href="#md3a703bef5" y="1148.94"/>
      </g>
     </g>
     <g id="text_55">
      <!-- 1500 -->
      <g transform="translate(1314.885 1217.02)rotate(-90)scale(0.24 -0.24)">
       <use xlink:href="#DejaVuSans-49"/>
       <use x="63.623047" xlink:href="#DejaVuSans-53"/>
       <use x="127.246094" xlink:href="#DejaVuSans-48"/>
       <use x="190.869141" xlink:href="#DejaVuSans-48"/>
      </g>
     </g>
    </g>
    <g id="text_56">
     <!-- network size -->
     <g transform="translate(1046.538125 1239.25625)scale(0.24 -0.24)">
      <use xlink:href="#DejaVuSans-110"/>
      <use x="63.378906" xlink:href="#DejaVuSans-101"/>
      <use x="124.902344" xlink:href="#DejaVuSans-116"/>
      <use x="164.111328" xlink:href="#DejaVuSans-119"/>
      <use x="245.898438" xlink:href="#DejaVuSans-111"/>
      <use x="307.080078" xlink:href="#DejaVuSans-114"/>
      <use x="348.193359" xlink:href="#DejaVuSans-107"/>
      <use x="406.103516" xlink:href="#DejaVuSans-32"/>
      <use x="437.890625" xlink:href="#DejaVuSans-115"/>
      <use x="489.990234" xlink:href="#DejaVuSans-105"/>
      <use x="517.773438" xlink:href="#DejaVuSans-122"/>
      <use x="570.263672" xlink:href="#DejaVuSans-101"/>
     </g>
    </g>
   </g>
   <g id="matplotlib.axis_8">
    <g id="ytick_28">
     <g id="line2d_44">
      <g>
       <use style="stroke:#000000;stroke-width:0.8;" x="874.466667" xlink:href="#m7e7ddb769b" y="1148.94"/>
      </g>
     </g>
     <g id="text_57">
      <!-- 0.0 -->
      <g transform="translate(829.299167 1158.058125)scale(0.24 -0.24)">
       <use xlink:href="#DejaVuSans-48"/>
       <use x="63.623047" xlink:href="#DejaVuSans-46"/>
       <use x="95.410156" xlink:href="#DejaVuSans-48"/>
      </g>
     </g>
    </g>
    <g id="ytick_29">
     <g id="line2d_45">
      <g>
       <use style="stroke:#000000;stroke-width:0.8;" x="874.466667" xlink:href="#m7e7ddb769b" y="1048.113657"/>
      </g>
     </g>
     <g id="text_58">
      <!-- 0.5 -->
      <g transform="translate(829.299167 1057.231782)scale(0.24 -0.24)">
       <use xlink:href="#DejaVuSans-48"/>
       <use x="63.623047" xlink:href="#DejaVuSans-46"/>
       <use x="95.410156" xlink:href="#DejaVuSans-53"/>
      </g>
     </g>
    </g>
    <g id="ytick_30">
     <g id="line2d_46">
      <g>
       <use style="stroke:#000000;stroke-width:0.8;" x="874.466667" xlink:href="#m7e7ddb769b" y="947.287315"/>
      </g>
     </g>
     <g id="text_59">
      <!-- 1.0 -->
      <g transform="translate(829.299167 956.40544)scale(0.24 -0.24)">
       <use xlink:href="#DejaVuSans-49"/>
       <use x="63.623047" xlink:href="#DejaVuSans-46"/>
       <use x="95.410156" xlink:href="#DejaVuSans-48"/>
      </g>
     </g>
    </g>
    <g id="ytick_31">
     <g id="line2d_47">
      <g>
       <use style="stroke:#000000;stroke-width:0.8;" x="874.466667" xlink:href="#m7e7ddb769b" y="846.460972"/>
      </g>
     </g>
     <g id="text_60">
      <!-- 1.5 -->
      <g transform="translate(829.299167 855.579097)scale(0.24 -0.24)">
       <use xlink:href="#DejaVuSans-49"/>
       <use x="63.623047" xlink:href="#DejaVuSans-46"/>
       <use x="95.410156" xlink:href="#DejaVuSans-53"/>
      </g>
     </g>
    </g>
    <g id="ytick_32">
     <g id="line2d_48">
      <g>
       <use style="stroke:#000000;stroke-width:0.8;" x="874.466667" xlink:href="#m7e7ddb769b" y="745.634629"/>
      </g>
     </g>
     <g id="text_61">
      <!-- 2.0 -->
      <g transform="translate(829.299167 754.752754)scale(0.24 -0.24)">
       <use xlink:href="#DejaVuSans-50"/>
       <use x="63.623047" xlink:href="#DejaVuSans-46"/>
       <use x="95.410156" xlink:href="#DejaVuSans-48"/>
      </g>
     </g>
    </g>
    <g id="text_62">
     <!-- average out-degree per node -->
     <g transform="translate(820.307917 1098.22125)rotate(-90)scale(0.24 -0.24)">
      <use xlink:href="#DejaVuSans-97"/>
      <use x="61.279297" xlink:href="#DejaVuSans-118"/>
      <use x="120.458984" xlink:href="#DejaVuSans-101"/>
      <use x="181.982422" xlink:href="#DejaVuSans-114"/>
      <use x="223.095703" xlink:href="#DejaVuSans-97"/>
      <use x="284.375" xlink:href="#DejaVuSans-103"/>
      <use x="347.851562" xlink:href="#DejaVuSans-101"/>
      <use x="409.375" xlink:href="#DejaVuSans-32"/>
      <use x="441.162109" xlink:href="#DejaVuSans-111"/>
      <use x="502.34375" xlink:href="#DejaVuSans-117"/>
      <use x="565.722656" xlink:href="#DejaVuSans-116"/>
      <use x="604.931641" xlink:href="#DejaVuSans-45"/>
      <use x="641.015625" xlink:href="#DejaVuSans-100"/>
      <use x="704.492188" xlink:href="#DejaVuSans-101"/>
      <use x="766.015625" xlink:href="#DejaVuSans-103"/>
      <use x="829.492188" xlink:href="#DejaVuSans-114"/>
      <use x="868.355469" xlink:href="#DejaVuSans-101"/>
      <use x="929.878906" xlink:href="#DejaVuSans-101"/>
      <use x="991.402344" xlink:href="#DejaVuSans-32"/>
      <use x="1023.189453" xlink:href="#DejaVuSans-112"/>
      <use x="1086.666016" xlink:href="#DejaVuSans-101"/>
      <use x="1148.189453" xlink:href="#DejaVuSans-114"/>
      <use x="1189.302734" xlink:href="#DejaVuSans-32"/>
      <use x="1221.089844" xlink:href="#DejaVuSans-110"/>
      <use x="1284.46875" xlink:href="#DejaVuSans-111"/>
      <use x="1345.650391" xlink:href="#DejaVuSans-100"/>
      <use x="1409.126953" xlink:href="#DejaVuSans-101"/>
     </g>
    </g>
   </g>
   <g id="LineCollection_10">
    <path clip-path="url(#p8846f65a16)" d="M 915.780556 832.073046 
L 915.780556 817.533901 
" style="fill:none;stroke:#000000;stroke-width:1.5;"/>
    <path clip-path="url(#p8846f65a16)" d="M 1039.722222 822.190285 
L 1039.722222 812.575024 
" style="fill:none;stroke:#000000;stroke-width:1.5;"/>
    <path clip-path="url(#p8846f65a16)" d="M 1163.663889 824.735184 
L 1163.663889 803.819222 
" style="fill:none;stroke:#000000;stroke-width:1.5;"/>
    <path clip-path="url(#p8846f65a16)" d="M 1287.605556 816.547639 
L 1287.605556 810.716191 
" style="fill:none;stroke:#000000;stroke-width:1.5;"/>
   </g>
   <g id="LineCollection_11">
    <path clip-path="url(#p8846f65a16)" d="M 936.4375 822.973034 
L 936.4375 716.168571 
" style="fill:none;stroke:#000000;stroke-width:1.5;"/>
    <path clip-path="url(#p8846f65a16)" d="M 1060.379167 870.717177 
L 1060.379167 795.223637 
" style="fill:none;stroke:#000000;stroke-width:1.5;"/>
    <path clip-path="url(#p8846f65a16)" d="M 1184.320833 865.100998 
L 1184.320833 814.068232 
" style="fill:none;stroke:#000000;stroke-width:1.5;"/>
    <path clip-path="url(#p8846f65a16)" d="M 1308.2625 934.371716 
L 1308.2625 874.863496 
" style="fill:none;stroke:#000000;stroke-width:1.5;"/>
   </g>
   <g id="LineCollection_12">
    <path clip-path="url(#p8846f65a16)" d="M 957.094444 841.844352 
L 957.094444 829.097449 
" style="fill:none;stroke:#000000;stroke-width:1.5;"/>
    <path clip-path="url(#p8846f65a16)" d="M 1081.036111 840.764986 
L 1081.036111 831.911028 
" style="fill:none;stroke:#000000;stroke-width:1.5;"/>
    <path clip-path="url(#p8846f65a16)" d="M 1204.977778 843.119446 
L 1204.977778 832.339375 
" style="fill:none;stroke:#000000;stroke-width:1.5;"/>
    <path clip-path="url(#p8846f65a16)" d="M 1328.919444 839.211863 
L 1328.919444 832.133244 
" style="fill:none;stroke:#000000;stroke-width:1.5;"/>
   </g>
   <g id="patch_70">
    <path d="M 874.466667 1148.94 
L 874.466667 694.53 
" style="fill:none;stroke:#000000;stroke-linecap:square;stroke-linejoin:miter;stroke-width:0.8;"/>
   </g>
   <g id="patch_71">
    <path d="M 1370.233333 1148.94 
L 1370.233333 694.53 
" style="fill:none;stroke:#000000;stroke-linecap:square;stroke-linejoin:miter;stroke-width:0.8;"/>
   </g>
   <g id="patch_72">
    <path d="M 874.466667 1148.94 
L 1370.233333 1148.94 
" style="fill:none;stroke:#000000;stroke-linecap:square;stroke-linejoin:miter;stroke-width:0.8;"/>
   </g>
   <g id="patch_73">
    <path d="M 874.466667 694.53 
L 1370.233333 694.53 
" style="fill:none;stroke:#000000;stroke-linecap:square;stroke-linejoin:miter;stroke-width:0.8;"/>
   </g>
   <g id="text_63">
    <!-- Out-degree -->
    <g transform="translate(1040.58725 688.53)scale(0.288 -0.288)">
     <defs>
      <path d="M 39.40625 66.21875 
Q 28.65625 66.21875 22.328125 58.203125 
Q 16.015625 50.203125 16.015625 36.375 
Q 16.015625 22.609375 22.328125 14.59375 
Q 28.65625 6.59375 39.40625 6.59375 
Q 50.140625 6.59375 56.421875 14.59375 
Q 62.703125 22.609375 62.703125 36.375 
Q 62.703125 50.203125 56.421875 58.203125 
Q 50.140625 66.21875 39.40625 66.21875 
z
M 39.40625 74.21875 
Q 54.734375 74.21875 63.90625 63.9375 
Q 73.09375 53.65625 73.09375 36.375 
Q 73.09375 19.140625 63.90625 8.859375 
Q 54.734375 -1.421875 39.40625 -1.421875 
Q 24.03125 -1.421875 14.8125 8.828125 
Q 5.609375 19.09375 5.609375 36.375 
Q 5.609375 53.65625 14.8125 63.9375 
Q 24.03125 74.21875 39.40625 74.21875 
z
" id="DejaVuSans-79"/>
     </defs>
     <use xlink:href="#DejaVuSans-79"/>
     <use x="78.710938" xlink:href="#DejaVuSans-117"/>
     <use x="142.089844" xlink:href="#DejaVuSans-116"/>
     <use x="181.298828" xlink:href="#DejaVuSans-45"/>
     <use x="217.382812" xlink:href="#DejaVuSans-100"/>
     <use x="280.859375" xlink:href="#DejaVuSans-101"/>
     <use x="342.382812" xlink:href="#DejaVuSans-103"/>
     <use x="405.859375" xlink:href="#DejaVuSans-114"/>
     <use x="444.722656" xlink:href="#DejaVuSans-101"/>
     <use x="506.246094" xlink:href="#DejaVuSans-101"/>
    </g>
   </g>
  </g>
  <g id="text_64">
   <!-- A -->
   <g transform="translate(49.931979 22.31)scale(0.28 -0.28)">
    <defs>
     <path d="M 53.421875 13.28125 
L 24.03125 13.28125 
L 19.390625 0 
L 0.484375 0 
L 27.484375 72.90625 
L 49.90625 72.90625 
L 76.90625 0 
L 58.015625 0 
z
M 28.71875 26.8125 
L 48.6875 26.8125 
L 38.71875 55.8125 
z
" id="DejaVuSans-Bold-65"/>
    </defs>
    <use xlink:href="#DejaVuSans-Bold-65"/>
   </g>
  </g>
  <g id="text_65">
   <!-- B -->
   <g transform="translate(790.296042 22.31)scale(0.28 -0.28)">
    <defs>
     <path d="M 38.375 44.671875 
Q 42.828125 44.671875 45.109375 46.625 
Q 47.40625 48.578125 47.40625 52.390625 
Q 47.40625 56.15625 45.109375 58.125 
Q 42.828125 60.109375 38.375 60.109375 
L 27.984375 60.109375 
L 27.984375 44.671875 
z
M 39.015625 12.796875 
Q 44.671875 12.796875 47.53125 15.1875 
Q 50.390625 17.578125 50.390625 22.40625 
Q 50.390625 27.15625 47.5625 29.515625 
Q 44.734375 31.890625 39.015625 31.890625 
L 27.984375 31.890625 
L 27.984375 12.796875 
z
M 56.5 39.015625 
Q 62.546875 37.25 65.859375 32.515625 
Q 69.1875 27.78125 69.1875 20.90625 
Q 69.1875 10.359375 62.0625 5.171875 
Q 54.9375 0 40.375 0 
L 9.1875 0 
L 9.1875 72.90625 
L 37.40625 72.90625 
Q 52.59375 72.90625 59.40625 68.3125 
Q 66.21875 63.71875 66.21875 53.609375 
Q 66.21875 48.296875 63.71875 44.5625 
Q 61.234375 40.828125 56.5 39.015625 
z
" id="DejaVuSans-Bold-66"/>
    </defs>
    <use xlink:href="#DejaVuSans-Bold-66"/>
   </g>
  </g>
  <g id="text_66">
   <!-- C -->
   <g transform="translate(58.116979 666.53)scale(0.28 -0.28)">
    <defs>
     <path d="M 67 4 
Q 61.8125 1.3125 56.203125 -0.046875 
Q 50.59375 -1.421875 44.484375 -1.421875 
Q 26.265625 -1.421875 15.625 8.765625 
Q 4.984375 18.953125 4.984375 36.375 
Q 4.984375 53.859375 15.625 64.03125 
Q 26.265625 74.21875 44.484375 74.21875 
Q 50.59375 74.21875 56.203125 72.84375 
Q 61.8125 71.484375 67 68.796875 
L 67 53.71875 
Q 61.765625 57.28125 56.6875 58.9375 
Q 51.609375 60.59375 46 60.59375 
Q 35.9375 60.59375 30.171875 54.140625 
Q 24.421875 47.703125 24.421875 36.375 
Q 24.421875 25.09375 30.171875 18.640625 
Q 35.9375 12.203125 46 12.203125 
Q 51.609375 12.203125 56.6875 13.859375 
Q 61.765625 15.53125 67 19.09375 
z
" id="DejaVuSans-Bold-67"/>
    </defs>
    <use xlink:href="#DejaVuSans-Bold-67"/>
   </g>
  </g>
  <g id="text_67">
   <!-- D -->
   <g transform="translate(789.344479 666.53)scale(0.28 -0.28)">
    <defs>
     <path d="M 27.984375 58.6875 
L 27.984375 14.203125 
L 34.71875 14.203125 
Q 46.234375 14.203125 52.3125 19.921875 
Q 58.40625 25.640625 58.40625 36.53125 
Q 58.40625 47.359375 52.34375 53.015625 
Q 46.296875 58.6875 34.71875 58.6875 
z
M 9.1875 72.90625 
L 29 72.90625 
Q 45.609375 72.90625 53.734375 70.53125 
Q 61.859375 68.171875 67.671875 62.5 
Q 72.796875 57.5625 75.28125 51.109375 
Q 77.78125 44.671875 77.78125 36.53125 
Q 77.78125 28.265625 75.28125 21.796875 
Q 72.796875 15.328125 67.671875 10.40625 
Q 61.8125 4.734375 53.609375 2.359375 
Q 45.40625 0 29 0 
L 9.1875 0 
z
" id="DejaVuSans-Bold-68"/>
    </defs>
    <use xlink:href="#DejaVuSans-Bold-68"/>
   </g>
  </g>
 </g>
 <defs>
  <clipPath id="peb6567c766">
   <rect height="454.41" width="495.766667" x="157.266667" y="50.31"/>
  </clipPath>
  <clipPath id="p9c199192c5">
   <rect height="454.41" width="495.766667" x="874.466667" y="50.31"/>
  </clipPath>
  <clipPath id="pde3ab46b3f">
   <rect height="454.41" width="495.766667" x="157.266667" y="694.53"/>
  </clipPath>
  <clipPath id="p8846f65a16">
   <rect height="454.41" width="495.766667" x="874.466667" y="694.53"/>
  </clipPath>
 </defs>
</svg>
